<svg width="117" height="25" viewBox="0 0 117 25" fill="none" xmlns="http://www.w3.org/2000/svg">
<path d="M22.8139 13.6206C22.7139 15.0497 22.3335 16.4451 21.6943 17.7272C21.055 19.0093 20.1696 20.1529 19.0884 21.0928C18.0072 22.0327 16.7514 22.7504 15.3929 23.2049C14.0343 23.6595 12.5995 23.8421 11.1704 23.7421L11.9314 12.8596L22.8139 13.6206Z" fill="#FFA800"/>
<path d="M16.2878 13.1611C16.2478 13.7328 16.0957 14.2909 15.84 14.8038C15.5843 15.3166 15.2301 15.7741 14.7976 16.15C14.3651 16.526 13.8628 16.813 13.3194 16.9949C12.776 17.1767 12.2021 17.2497 11.6304 17.2097L11.9348 12.8567L16.2878 13.1611Z" fill="#FFBB00"/>
<path d="M12.6926 1.98173L19.2221 2.43832C21.6262 2.60643 23.4389 4.69162 23.2708 7.09571L22.8142 13.6252L11.9316 12.8642L12.6926 1.98173Z" fill="#59F2F6"/>
<path d="M1.04795 12.1007C1.14788 10.6716 1.52832 9.27614 2.16754 7.99406C2.80677 6.71197 3.69226 5.56834 4.77345 4.62847C5.85465 3.6886 7.11039 2.97089 8.46896 2.51632C9.82753 2.06175 11.2623 1.87922 12.6914 1.97915L11.9305 12.8617L1.04795 12.1007Z" fill="#EE5A24"/>
<path d="M11.171 23.7436C9.74185 23.6437 8.34641 23.2632 7.06433 22.624C5.78224 21.9848 4.63862 21.0993 3.69875 20.0181C2.75887 18.9369 2.04116 17.6812 1.58659 16.3226C1.13202 14.964 0.949491 13.5292 1.04942 12.1001L11.9319 12.8611L11.171 23.7436Z" fill="#25C16F"/>
<path d="M7.58181 12.5523C7.62178 11.9807 7.77396 11.4225 8.02965 10.9097C8.28534 10.3968 8.63953 9.9394 9.07201 9.56345C9.50449 9.1875 10.0068 8.90042 10.5502 8.71859C11.0936 8.53676 11.6676 8.46375 12.2392 8.50372L11.9348 12.8567L7.58181 12.5523Z" fill="#D33C4E"/>
<path d="M17.9367 13.2713C17.989 12.4861 17.8857 11.6982 17.6327 10.9527C17.3798 10.2072 16.9821 9.51864 16.4625 8.92635C15.9429 8.33406 15.3114 7.84964 14.6042 7.50074C13.8969 7.15184 13.1278 6.9453 12.3406 6.8929L11.9426 12.8724L17.9367 13.2713Z" fill="#45A4EC"/>
<path d="M5.91766 12.4565C5.86638 13.2409 5.97083 14.0277 6.22505 14.7721C6.47927 15.5165 6.87829 16.2038 7.39932 16.7949C7.92035 17.386 8.55318 17.8692 9.2617 18.217C9.97021 18.5648 10.7405 18.7703 11.5287 18.8218L11.9192 12.8489L5.91766 12.4565Z" fill="#8BDF55"/>
<path d="M36.8474 5.94204L31.9435 20.1692H28.9785L35.1564 3.75497H37.0504L36.8474 5.94204ZM40.951 20.1692L36.0357 5.94204L35.8215 3.75497H37.7268L43.9272 20.1692H40.951ZM40.7143 14.0815V16.325H31.7856V14.0815H40.7143ZM44.8129 2.85309H47.5298V17.565L47.2705 20.1692H44.8129V2.85309ZM55.4889 13.9575V14.1943C55.4889 15.0961 55.3874 15.9266 55.1845 16.6857C54.9891 17.4373 54.6885 18.0911 54.2826 18.6473C53.8843 19.2035 53.3883 19.6356 52.7945 19.9438C52.2083 20.2444 51.5281 20.3947 50.754 20.3947C49.9949 20.3947 49.3335 20.2519 48.7699 19.9663C48.2062 19.6807 47.7327 19.2749 47.3494 18.7488C46.9736 18.2227 46.6692 17.5951 46.4362 16.8661C46.2033 16.1371 46.0379 15.3329 45.9402 14.4536V13.6982C46.0379 12.8114 46.2033 12.0072 46.4362 11.2857C46.6692 10.5567 46.9736 9.92911 47.3494 9.40301C47.7327 8.8694 48.2024 8.45979 48.7586 8.1742C49.3223 7.8886 49.9799 7.7458 50.7315 7.7458C51.5131 7.7458 52.2008 7.89612 52.7945 8.19674C53.3958 8.49737 53.8956 8.92576 54.2939 9.48193C54.6922 10.0306 54.9891 10.6844 55.1845 11.4435C55.3874 12.2026 55.4889 13.0406 55.4889 13.9575ZM52.772 14.1943V13.9575C52.772 13.4089 52.7269 12.894 52.6367 12.413C52.5465 11.9245 52.3962 11.4961 52.1857 11.1279C51.9828 10.7596 51.7047 10.4702 51.3515 10.2598C51.0058 10.0418 50.5736 9.93287 50.055 9.93287C49.574 9.93287 49.1607 10.0155 48.815 10.1809C48.4692 10.3462 48.1799 10.5717 47.9469 10.8573C47.7139 11.1429 47.5298 11.4736 47.3945 11.8494C47.2667 12.2251 47.1803 12.631 47.1352 13.0669V15.1074C47.2028 15.6711 47.3456 16.1897 47.5636 16.6632C47.7891 17.1291 48.1047 17.5049 48.5106 17.7905C48.9164 18.0686 49.4388 18.2076 50.0776 18.2076C50.5811 18.2076 51.0058 18.1062 51.3515 17.9032C51.6972 17.7003 51.9715 17.4185 52.1745 17.0577C52.3849 16.6895 52.5352 16.2611 52.6254 15.7726C52.7231 15.284 52.772 14.7579 52.772 14.1943ZM56.5775 14.2055V13.9462C56.5775 13.0669 56.7052 12.2515 56.9608 11.4999C57.2163 10.7408 57.5846 10.0832 58.0656 9.52702C58.5541 8.96334 59.1478 8.52743 59.8468 8.21929C60.5533 7.90363 61.3499 7.7458 62.2368 7.7458C63.1311 7.7458 63.9278 7.90363 64.6268 8.21929C65.3332 8.52743 65.9307 8.96334 66.4192 9.52702C66.9078 10.0832 67.2798 10.7408 67.5353 11.4999C67.7909 12.2515 67.9186 13.0669 67.9186 13.9462V14.2055C67.9186 15.0849 67.7909 15.9003 67.5353 16.6519C67.2798 17.4035 66.9078 18.0611 66.4192 18.6248C65.9307 19.1809 65.337 19.6168 64.638 19.9325C63.9391 20.2406 63.1462 20.3947 62.2593 20.3947C61.3649 20.3947 60.5645 20.2406 59.8581 19.9325C59.1591 19.6168 58.5654 19.1809 58.0768 18.6248C57.5883 18.0611 57.2163 17.4035 56.9608 16.6519C56.7052 15.9003 56.5775 15.0849 56.5775 14.2055ZM59.2944 13.9462V14.2055C59.2944 14.7542 59.3507 15.2728 59.4635 15.7613C59.5762 16.2498 59.7528 16.6782 59.9933 17.0465C60.2338 17.4147 60.542 17.7041 60.9178 17.9145C61.2936 18.125 61.7407 18.2302 62.2593 18.2302C62.7629 18.2302 63.1988 18.125 63.567 17.9145C63.9428 17.7041 64.251 17.4147 64.4915 17.0465C64.732 16.6782 64.9086 16.2498 65.0213 15.7613C65.1416 15.2728 65.2017 14.7542 65.2017 14.2055V13.9462C65.2017 13.4051 65.1416 12.894 65.0213 12.413C64.9086 11.9245 64.7282 11.4924 64.4802 11.1166C64.2397 10.7408 63.9316 10.4477 63.5558 10.2373C63.1875 10.0193 62.7478 9.91032 62.2368 9.91032C61.7257 9.91032 61.2823 10.0193 60.9065 10.2373C60.5382 10.4477 60.2338 10.7408 59.9933 11.1166C59.7528 11.4924 59.5762 11.9245 59.4635 12.413C59.3507 12.894 59.2944 13.4051 59.2944 13.9462ZM76.8423 17.2945V7.97127H79.5705V20.1692H77.0001L76.8423 17.2945ZM77.2256 14.7579L78.1388 14.7354C78.1388 15.5546 78.0486 16.3099 77.8682 17.0014C77.6878 17.6853 77.4097 18.2828 77.0339 18.7939C76.6582 19.2974 76.1772 19.692 75.5909 19.9776C75.0047 20.2557 74.302 20.3947 73.4828 20.3947C72.889 20.3947 72.3442 20.3083 71.8481 20.1354C71.3521 19.9625 70.9237 19.6957 70.5629 19.335C70.2097 18.9742 69.9354 18.5045 69.74 17.9258C69.5446 17.3471 69.4469 16.6556 69.4469 15.8515V7.97127H72.1638V15.874C72.1638 16.3174 72.2164 16.6895 72.3216 16.9901C72.4268 17.2832 72.5696 17.5199 72.75 17.7003C72.9304 17.8807 73.1408 18.0085 73.3813 18.0836C73.6218 18.1588 73.8774 18.1964 74.1479 18.1964C74.922 18.1964 75.5308 18.046 75.9742 17.7454C76.4252 17.4373 76.7446 17.0239 76.9325 16.5053C77.1279 15.9867 77.2256 15.4043 77.2256 14.7579ZM87.2541 7.97127V9.95541H80.3772V7.97127H87.2541ZM82.3614 4.98379H85.0783V16.7984C85.0783 17.1742 85.1309 17.4636 85.2361 17.6665C85.3488 17.8619 85.5029 17.9934 85.6983 18.0611C85.8937 18.1287 86.123 18.1625 86.386 18.1625C86.5739 18.1625 86.7543 18.1513 86.9271 18.1287C87.1 18.1062 87.239 18.0836 87.3443 18.0611L87.3555 20.1354C87.1301 20.203 86.867 20.2632 86.5664 20.3158C86.2733 20.3684 85.9351 20.3947 85.5518 20.3947C84.928 20.3947 84.3756 20.2857 83.8946 20.0678C83.4136 19.8423 83.0378 19.4778 82.7672 18.9742C82.4966 18.4707 82.3614 17.8018 82.3614 16.9675V4.98379ZM101.054 17.2945V7.97127H103.782V20.1692H101.212L101.054 17.2945ZM101.438 14.7579L102.351 14.7354C102.351 15.5546 102.26 16.3099 102.08 17.0014C101.9 17.6853 101.622 18.2828 101.246 18.7939C100.87 19.2974 100.389 19.692 99.8029 19.9776C99.2166 20.2557 98.5139 20.3947 97.6947 20.3947C97.101 20.3947 96.5561 20.3083 96.0601 20.1354C95.564 19.9625 95.1356 19.6957 94.7749 19.335C94.4216 18.9742 94.1473 18.5045 93.9519 17.9258C93.7565 17.3471 93.6588 16.6556 93.6588 15.8515V7.97127H96.3757V15.874C96.3757 16.3174 96.4283 16.6895 96.5335 16.9901C96.6388 17.2832 96.7816 17.5199 96.9619 17.7003C97.1423 17.8807 97.3527 18.0085 97.5933 18.0836C97.8338 18.1588 98.0893 18.1964 98.3599 18.1964C99.134 18.1964 99.7427 18.046 100.186 17.7454C100.637 17.4373 100.957 17.0239 101.144 16.5053C101.34 15.9867 101.438 15.4043 101.438 14.7579ZM112.717 16.8661C112.717 16.5955 112.65 16.3513 112.514 16.1333C112.379 15.9078 112.12 15.7049 111.737 15.5245C111.361 15.3442 110.805 15.1788 110.068 15.0285C109.422 14.8857 108.828 14.7166 108.287 14.5212C107.753 14.3183 107.295 14.074 106.911 13.7884C106.528 13.5028 106.231 13.1646 106.021 12.7738C105.81 12.383 105.705 11.932 105.705 11.421C105.705 10.9249 105.814 10.4552 106.032 10.0118C106.25 9.56836 106.562 9.17754 106.968 8.83933C107.374 8.50113 107.866 8.23432 108.445 8.03891C109.031 7.84351 109.685 7.7458 110.406 7.7458C111.428 7.7458 112.304 7.91866 113.033 8.26438C113.77 8.60259 114.333 9.0648 114.724 9.65103C115.115 10.2297 115.31 10.8836 115.31 11.6126H112.593C112.593 11.2894 112.511 10.9888 112.345 10.7107C112.188 10.4251 111.947 10.1959 111.624 10.0231C111.301 9.84268 110.895 9.75249 110.406 9.75249C109.94 9.75249 109.553 9.82765 109.245 9.97796C108.944 10.1208 108.719 10.3087 108.569 10.5416C108.426 10.7746 108.355 11.0302 108.355 11.3082C108.355 11.5112 108.392 11.6953 108.467 11.8606C108.55 12.0185 108.685 12.165 108.873 12.3003C109.061 12.4281 109.317 12.5483 109.64 12.6611C109.97 12.7738 110.384 12.8828 110.88 12.988C111.812 13.1834 112.612 13.4352 113.281 13.7433C113.957 14.0439 114.476 14.4348 114.837 14.9158C115.198 15.3893 115.378 15.9905 115.378 16.7195C115.378 17.2607 115.261 17.7567 115.028 18.2076C114.803 18.6511 114.472 19.0381 114.036 19.3688C113.6 19.692 113.078 19.9438 112.469 20.1241C111.868 20.3045 111.192 20.3947 110.44 20.3947C109.335 20.3947 108.4 20.1993 107.633 19.8085C106.866 19.4101 106.284 18.9028 105.886 18.2865C105.495 17.6627 105.299 17.0164 105.299 16.3475H107.926C107.956 16.8511 108.095 17.2531 108.343 17.5538C108.599 17.8469 108.914 18.0611 109.29 18.1964C109.674 18.3241 110.068 18.388 110.474 18.388C110.962 18.388 111.372 18.3241 111.703 18.1964C112.033 18.0611 112.285 17.8807 112.458 17.6552C112.631 17.4222 112.717 17.1592 112.717 16.8661Z" fill="#1D2026"/>
</svg>
