<svg width="75" height="25" viewBox="0 0 75 25" fill="none" xmlns="http://www.w3.org/2000/svg">
<path d="M23.3139 13.6206C23.2139 15.0497 22.8335 16.4451 22.1943 17.7272C21.555 19.0093 20.6696 20.1529 19.5884 21.0928C18.5072 22.0327 17.2514 22.7504 15.8929 23.2049C14.5343 23.6595 13.0995 23.8421 11.6704 23.7421L12.4314 12.8596L23.3139 13.6206Z" fill="#FFA800"/>
<path d="M16.7878 13.1611C16.7478 13.7328 16.5957 14.2909 16.34 14.8038C16.0843 15.3166 15.7301 15.7741 15.2976 16.15C14.8651 16.526 14.3628 16.813 13.8194 16.9949C13.276 17.1767 12.7021 17.2497 12.1304 17.2097L12.4348 12.8567L16.7878 13.1611Z" fill="#FFBB00"/>
<path d="M13.1926 1.98173L19.7221 2.43832C22.1262 2.60643 23.9389 4.69162 23.7708 7.09571L23.3142 13.6252L12.4316 12.8642L13.1926 1.98173Z" fill="#59F2F6"/>
<path d="M1.54795 12.1007C1.64788 10.6716 2.02832 9.27614 2.66754 7.99406C3.30677 6.71197 4.19226 5.56834 5.27345 4.62847C6.35465 3.6886 7.61039 2.97089 8.96896 2.51632C10.3275 2.06175 11.7623 1.87922 13.1914 1.97915L12.4305 12.8617L1.54795 12.1007Z" fill="#EE5A24"/>
<path d="M11.671 23.7436C10.2418 23.6437 8.84641 23.2632 7.56433 22.624C6.28224 21.9848 5.13862 21.0993 4.19875 20.0181C3.25887 18.9369 2.54116 17.6812 2.08659 16.3226C1.63202 14.964 1.44949 13.5292 1.54942 12.1001L12.4319 12.8611L11.671 23.7436Z" fill="#25C16F"/>
<path d="M8.08181 12.5523C8.12178 11.9807 8.27396 11.4225 8.52965 10.9097C8.78534 10.3968 9.13953 9.9394 9.57201 9.56345C10.0045 9.1875 10.5068 8.90042 11.0502 8.71859C11.5936 8.53676 12.1676 8.46375 12.7392 8.50372L12.4348 12.8567L8.08181 12.5523Z" fill="#D33C4E"/>
<path d="M18.4367 13.2713C18.489 12.4861 18.3857 11.6982 18.1327 10.9527C17.8798 10.2072 17.4821 9.51864 16.9625 8.92635C16.4429 8.33406 15.8114 7.84964 15.1042 7.50074C14.3969 7.15184 13.6278 6.9453 12.8406 6.8929L12.4426 12.8724L18.4367 13.2713Z" fill="#45A4EC"/>
<path d="M6.41766 12.4565C6.36638 13.2409 6.47083 14.0277 6.72505 14.7721C6.97927 15.5165 7.37829 16.2038 7.89932 16.7949C8.42035 17.386 9.05318 17.8692 9.7617 18.217C10.4702 18.5648 11.2405 18.7703 12.0287 18.8218L12.4192 12.8489L6.41766 12.4565Z" fill="#8BDF55"/>
<path d="M37.1107 12.7512H32.9282L32.9057 10.6882H36.5583C37.1746 10.6882 37.6969 10.598 38.1253 10.4176C38.5612 10.2297 38.8919 9.96293 39.1174 9.61721C39.3429 9.26397 39.4556 8.83933 39.4556 8.3433C39.4556 7.79465 39.3504 7.34747 39.1399 7.00175C38.9295 6.65603 38.6063 6.40425 38.1704 6.24642C37.742 6.08859 37.1934 6.00968 36.5245 6.00968H33.785V20.1692H30.9553V3.75497H36.5245C37.4264 3.75497 38.2305 3.8414 38.937 4.01427C39.651 4.18713 40.256 4.45769 40.752 4.82596C41.2556 5.18671 41.6351 5.64517 41.8907 6.20133C42.1537 6.75749 42.2852 7.41887 42.2852 8.18547C42.2852 8.86188 42.1237 9.48193 41.8005 10.0456C41.4773 10.6018 41.0001 11.0565 40.3687 11.4097C39.7374 11.7629 38.952 11.9734 38.0126 12.041L37.1107 12.7512ZM36.9867 20.1692H32.0376L33.3115 17.9258H36.9867C37.6255 17.9258 38.1591 17.8206 38.5875 17.6101C39.0159 17.3922 39.3353 17.0953 39.5458 16.7195C39.7637 16.3362 39.8727 15.889 39.8727 15.378C39.8727 14.8444 39.7788 14.3822 39.5909 13.9913C39.403 13.593 39.1061 13.2886 38.7003 13.0782C38.2944 12.8602 37.7646 12.7512 37.1107 12.7512H33.9316L33.9541 10.6882H38.0915L38.7341 11.4661C39.636 11.4961 40.3763 11.6953 40.955 12.0636C41.5412 12.4318 41.9771 12.9091 42.2627 13.4953C42.5483 14.0815 42.6911 14.7128 42.6911 15.3893C42.6911 16.4339 42.4619 17.3095 42.0034 18.016C41.5525 18.7225 40.9024 19.2598 40.0531 19.6281C39.2038 19.9889 38.1817 20.1692 36.9867 20.1692ZM47.4886 2.85309V20.1692H44.7605V2.85309H47.4886ZM49.2536 14.2055V13.9462C49.2536 13.0669 49.3814 12.2515 49.6369 11.4999C49.8925 10.7408 50.2607 10.0832 50.7417 9.52702C51.2303 8.96334 51.824 8.52743 52.523 8.21929C53.2294 7.90363 54.0261 7.7458 54.9129 7.7458C55.8073 7.7458 56.604 7.90363 57.3029 8.21929C58.0094 8.52743 58.6069 8.96334 59.0954 9.52702C59.5839 10.0832 59.956 10.7408 60.2115 11.4999C60.467 12.2515 60.5948 13.0669 60.5948 13.9462V14.2055C60.5948 15.0849 60.467 15.9003 60.2115 16.6519C59.956 17.4035 59.5839 18.0611 59.0954 18.6248C58.6069 19.1809 58.0132 19.6168 57.3142 19.9325C56.6152 20.2406 55.8223 20.3947 54.9355 20.3947C54.0411 20.3947 53.2407 20.2406 52.5342 19.9325C51.8353 19.6168 51.2415 19.1809 50.753 18.6248C50.2645 18.0611 49.8925 17.4035 49.6369 16.6519C49.3814 15.9003 49.2536 15.0849 49.2536 14.2055ZM51.9706 13.9462V14.2055C51.9706 14.7542 52.0269 15.2728 52.1397 15.7613C52.2524 16.2498 52.429 16.6782 52.6695 17.0465C52.91 17.4147 53.2182 17.7041 53.5939 17.9145C53.9697 18.125 54.4169 18.2302 54.9355 18.2302C55.439 18.2302 55.8749 18.125 56.2432 17.9145C56.619 17.7041 56.9271 17.4147 57.1676 17.0465C57.4081 16.6782 57.5848 16.2498 57.6975 15.7613C57.8178 15.2728 57.8779 14.7542 57.8779 14.2055V13.9462C57.8779 13.4051 57.8178 12.894 57.6975 12.413C57.5848 11.9245 57.4044 11.4924 57.1564 11.1166C56.9159 10.7408 56.6077 10.4477 56.2319 10.2373C55.8637 10.0193 55.424 9.91032 54.9129 9.91032C54.4019 9.91032 53.9584 10.0193 53.5827 10.2373C53.2144 10.4477 52.91 10.7408 52.6695 11.1166C52.429 11.4924 52.2524 11.9245 52.1397 12.413C52.0269 12.894 51.9706 13.4051 51.9706 13.9462ZM69.992 7.97127H72.4609V19.831C72.4609 20.9283 72.2279 21.8603 71.7619 22.6269C71.2959 23.3935 70.6458 23.9759 69.8116 24.3743C68.9773 24.7801 68.0116 24.983 66.9143 24.983C66.4483 24.983 65.9297 24.9154 65.3585 24.7801C64.7949 24.6448 64.2462 24.4269 63.7126 24.1262C63.1865 23.8331 62.7468 23.4461 62.3936 22.9651L63.6675 21.3642C64.1034 21.8828 64.5844 22.2623 65.1105 22.5028C65.6366 22.7433 66.189 22.8636 66.7677 22.8636C67.3915 22.8636 67.9214 22.7471 68.3573 22.5141C68.8007 22.2887 69.1427 21.9542 69.3832 21.5108C69.6237 21.0674 69.7439 20.5262 69.7439 19.8874V10.7333L69.992 7.97127ZM61.7059 14.2055V13.9688C61.7059 13.0444 61.8187 12.2026 62.0441 11.4435C62.2696 10.6769 62.5928 10.0193 63.0136 9.47065C63.4345 8.91449 63.9456 8.48986 64.5468 8.19674C65.1481 7.89612 65.8283 7.7458 66.5874 7.7458C67.3765 7.7458 68.0492 7.8886 68.6053 8.1742C69.169 8.45979 69.6387 8.8694 70.0145 9.40301C70.3903 9.92911 70.6834 10.5604 70.8938 11.297C71.1118 12.026 71.2734 12.8377 71.3786 13.732V14.4874C71.2809 15.3592 71.1156 16.1559 70.8826 16.8774C70.6496 17.5989 70.3414 18.2227 69.9581 18.7488C69.5748 19.2749 69.1014 19.6807 68.5377 19.9663C67.9815 20.2519 67.3239 20.3947 66.5648 20.3947C65.8208 20.3947 65.1481 20.2406 64.5468 19.9325C63.9531 19.6243 63.442 19.1922 63.0136 18.636C62.5928 18.0799 62.2696 17.426 62.0441 16.6744C61.8187 15.9154 61.7059 15.0924 61.7059 14.2055ZM64.4228 13.9688V14.2055C64.4228 14.7617 64.4754 15.2803 64.5807 15.7613C64.6934 16.2423 64.8625 16.6669 65.088 17.0352C65.321 17.3959 65.6141 17.6815 65.9673 17.892C66.3281 18.0949 66.7527 18.1964 67.2412 18.1964C67.8801 18.1964 68.4024 18.0611 68.8082 17.7905C69.2216 17.5199 69.5373 17.1554 69.7552 16.697C69.9807 16.231 70.1385 15.7124 70.2287 15.1412V13.1007C70.1836 12.6573 70.0897 12.2439 69.9469 11.8606C69.8116 11.4773 69.6274 11.1429 69.3945 10.8573C69.1615 10.5642 68.8684 10.3387 68.5151 10.1809C68.1619 10.0155 67.7448 9.93287 67.2638 9.93287C66.7752 9.93287 66.3506 10.0381 65.9899 10.2485C65.6291 10.459 65.3322 10.7483 65.0992 11.1166C64.8738 11.4849 64.7047 11.9132 64.5919 12.4018C64.4792 12.8903 64.4228 13.4126 64.4228 13.9688Z" fill="#1D2026"/>
</svg>
