<svg width="91" height="25" viewBox="0 0 91 25" fill="none" xmlns="http://www.w3.org/2000/svg">
<path d="M23.3139 13.6206C23.2139 15.0497 22.8335 16.4451 22.1943 17.7272C21.555 19.0093 20.6696 20.1529 19.5884 21.0928C18.5072 22.0327 17.2514 22.7504 15.8929 23.2049C14.5343 23.6595 13.0995 23.8421 11.6704 23.7421L12.4314 12.8596L23.3139 13.6206Z" fill="#FFA800"/>
<path d="M16.7878 13.1611C16.7478 13.7328 16.5957 14.2909 16.34 14.8038C16.0843 15.3166 15.7301 15.7741 15.2976 16.15C14.8651 16.526 14.3628 16.813 13.8194 16.9949C13.276 17.1767 12.7021 17.2497 12.1304 17.2097L12.4348 12.8567L16.7878 13.1611Z" fill="#FFBB00"/>
<path d="M13.1926 1.98173L19.7221 2.43832C22.1262 2.60643 23.9389 4.69162 23.7708 7.09571L23.3142 13.6252L12.4316 12.8642L13.1926 1.98173Z" fill="#59F2F6"/>
<path d="M1.54795 12.1007C1.64788 10.6716 2.02832 9.27614 2.66754 7.99406C3.30677 6.71197 4.19226 5.56834 5.27345 4.62847C6.35465 3.6886 7.61039 2.97089 8.96896 2.51632C10.3275 2.06175 11.7623 1.87922 13.1914 1.97915L12.4305 12.8617L1.54795 12.1007Z" fill="#EE5A24"/>
<path d="M11.671 23.7436C10.2418 23.6437 8.84641 23.2632 7.56433 22.624C6.28224 21.9848 5.13862 21.0993 4.19875 20.0181C3.25887 18.9369 2.54116 17.6812 2.08659 16.3226C1.63202 14.964 1.44949 13.5292 1.54942 12.1001L12.4319 12.8611L11.671 23.7436Z" fill="#25C16F"/>
<path d="M8.08181 12.5523C8.12178 11.9807 8.27396 11.4225 8.52965 10.9097C8.78534 10.3968 9.13953 9.9394 9.57201 9.56345C10.0045 9.1875 10.5068 8.90042 11.0502 8.71859C11.5936 8.53676 12.1676 8.46375 12.7392 8.50372L12.4348 12.8567L8.08181 12.5523Z" fill="#D33C4E"/>
<path d="M18.4367 13.2713C18.489 12.4861 18.3857 11.6982 18.1327 10.9527C17.8798 10.2072 17.4821 9.51864 16.9625 8.92635C16.4429 8.33406 15.8114 7.84964 15.1042 7.50074C14.3969 7.15184 13.6278 6.9453 12.8406 6.8929L12.4426 12.8724L18.4367 13.2713Z" fill="#45A4EC"/>
<path d="M6.41766 12.4565C6.36638 13.2409 6.47083 14.0277 6.72505 14.7721C6.97927 15.5165 7.37829 16.2038 7.89932 16.7949C8.42035 17.386 9.05318 17.8692 9.7617 18.217C10.4702 18.5648 11.2405 18.7703 12.0287 18.8218L12.4192 12.8489L6.41766 12.4565Z" fill="#8BDF55"/>
<path d="M37.1107 13.2512H32.9282L32.9057 11.1882H36.5583C37.1746 11.1882 37.6969 11.098 38.1253 10.9176C38.5612 10.7297 38.8919 10.4629 39.1174 10.1172C39.3429 9.76397 39.4556 9.33933 39.4556 8.8433C39.4556 8.29465 39.3504 7.84747 39.1399 7.50175C38.9295 7.15603 38.6063 6.90425 38.1704 6.74642C37.742 6.58859 37.1934 6.50968 36.5245 6.50968H33.785V20.6692H30.9553V4.25497H36.5245C37.4264 4.25497 38.2305 4.3414 38.937 4.51427C39.651 4.68713 40.256 4.95769 40.752 5.32596C41.2556 5.68671 41.6351 6.14517 41.8907 6.70133C42.1537 7.25749 42.2852 7.91887 42.2852 8.68547C42.2852 9.36188 42.1237 9.98193 41.8005 10.5456C41.4773 11.1018 41.0001 11.5565 40.3687 11.9097C39.7374 12.2629 38.952 12.4734 38.0126 12.541L37.1107 13.2512ZM36.9867 20.6692H32.0376L33.3115 18.4258H36.9867C37.6255 18.4258 38.1591 18.3206 38.5875 18.1101C39.0159 17.8922 39.3353 17.5953 39.5458 17.2195C39.7637 16.8362 39.8727 16.389 39.8727 15.878C39.8727 15.3444 39.7788 14.8822 39.5909 14.4913C39.403 14.093 39.1061 13.7886 38.7003 13.5782C38.2944 13.3602 37.7646 13.2512 37.1107 13.2512H33.9316L33.9541 11.1882H38.0915L38.7341 11.9661C39.636 11.9961 40.3763 12.1953 40.955 12.5636C41.5412 12.9318 41.9771 13.4091 42.2627 13.9953C42.5483 14.5815 42.6911 15.2128 42.6911 15.8893C42.6911 16.9339 42.4619 17.8095 42.0034 18.516C41.5525 19.2225 40.9024 19.7598 40.0531 20.1281C39.2038 20.4889 38.1817 20.6692 36.9867 20.6692ZM47.3083 10.7936V20.6692H44.5914V8.47127H47.1843L47.3083 10.7936ZM51.0398 8.39236L51.0173 10.9176C50.8519 10.8876 50.6715 10.865 50.4761 10.85C50.2882 10.835 50.1003 10.8274 49.9125 10.8274C49.4465 10.8274 49.0369 10.8951 48.6836 11.0304C48.3304 11.1581 48.0335 11.346 47.793 11.594C47.56 11.8345 47.3797 12.1277 47.2519 12.4734C47.1241 12.8191 47.049 13.2062 47.0264 13.6345L46.4064 13.6796C46.4064 12.913 46.4815 12.2028 46.6319 11.5489C46.7822 10.8951 47.0076 10.3201 47.3083 9.8241C47.6164 9.32806 47.9997 8.941 48.4582 8.66292C48.9241 8.38484 49.4615 8.2458 50.0703 8.2458C50.2356 8.2458 50.4123 8.26083 50.6001 8.2909C50.7955 8.32096 50.9421 8.35478 51.0398 8.39236ZM58.5205 18.2229V12.4057C58.5205 11.9698 58.4416 11.594 58.2837 11.2784C58.1259 10.9627 57.8854 10.7185 57.5622 10.5456C57.2466 10.3727 56.8482 10.2863 56.3672 10.2863C55.9238 10.2863 55.5405 10.3615 55.2173 10.5118C54.8942 10.6621 54.6424 10.865 54.462 11.1206C54.2816 11.3761 54.1914 11.6654 54.1914 11.9886H51.4858C51.4858 11.5076 51.6023 11.0416 51.8353 10.5907C52.0683 10.1398 52.4065 9.73767 52.8499 9.38443C53.2933 9.03119 53.8232 8.75311 54.4395 8.55019C55.0557 8.34726 55.7472 8.2458 56.5138 8.2458C57.4307 8.2458 58.2424 8.39987 58.9489 8.70802C59.6629 9.01616 60.2228 9.48213 60.6286 10.1059C61.042 10.7222 61.2487 11.4963 61.2487 12.4283V17.8508C61.2487 18.407 61.2862 18.9068 61.3614 19.3502C61.4441 19.7861 61.5606 20.1657 61.7109 20.4889V20.6692H58.9263C58.7986 20.3761 58.6971 20.0041 58.6219 19.5531C58.5543 19.0947 58.5205 18.6513 58.5205 18.2229ZM58.915 13.2512L58.9376 14.931H56.9873C56.4837 14.931 56.0403 14.9799 55.657 15.0776C55.2737 15.1677 54.9543 15.303 54.6987 15.4834C54.4432 15.6638 54.2516 15.8817 54.1238 16.1373C53.996 16.3928 53.9321 16.6822 53.9321 17.0053C53.9321 17.3285 54.0073 17.6254 54.1576 17.8959C54.3079 18.159 54.5259 18.3657 54.8115 18.516C55.1046 18.6663 55.4578 18.7415 55.8712 18.7415C56.4274 18.7415 56.9121 18.6287 57.3255 18.4032C57.7464 18.1703 58.077 17.8884 58.3175 17.5577C58.558 17.2195 58.6858 16.9001 58.7008 16.5995L59.5802 17.8058C59.49 18.1139 59.3359 18.4446 59.118 18.7978C58.9 19.1511 58.6144 19.4893 58.2612 19.8124C57.9155 20.1281 57.4983 20.3874 57.0098 20.5903C56.5288 20.7932 55.9727 20.8947 55.3413 20.8947C54.5447 20.8947 53.8344 20.7369 53.2106 20.4212C52.5868 20.098 52.0983 19.6659 51.7451 19.1248C51.3918 18.5761 51.2152 17.9561 51.2152 17.2646C51.2152 16.6183 51.3355 16.0471 51.576 15.551C51.824 15.0475 52.1847 14.6266 52.6582 14.2884C53.1392 13.9502 53.7255 13.6947 54.4169 13.5218C55.1084 13.3414 55.8975 13.2512 56.7843 13.2512H58.915ZM66.0913 11.0755V20.6692H63.3744V8.47127H65.9335L66.0913 11.0755ZM65.6066 14.1193L64.7272 14.108C64.7347 13.2437 64.855 12.4508 65.088 11.7293C65.3285 11.0078 65.6592 10.3878 66.08 9.86919C66.5084 9.35061 67.0195 8.95228 67.6132 8.6742C68.207 8.3886 68.8684 8.2458 69.5974 8.2458C70.1836 8.2458 70.7135 8.32847 71.187 8.49382C71.668 8.65165 72.0776 8.91094 72.4158 9.27169C72.7615 9.63245 73.0245 10.1022 73.2049 10.6809C73.3853 11.2521 73.4755 11.9548 73.4755 12.789V20.6692H70.7473V12.7778C70.7473 12.1915 70.6609 11.7293 70.488 11.3911C70.3226 11.0454 70.0784 10.8011 69.7552 10.6583C69.4396 10.508 69.045 10.4329 68.5715 10.4329C68.1055 10.4329 67.6884 10.5306 67.3201 10.726C66.9519 10.9214 66.64 11.1882 66.3844 11.5264C66.1364 11.8646 65.9448 12.2554 65.8095 12.6988C65.6742 13.1423 65.6066 13.6158 65.6066 14.1193ZM82.9966 18.144V3.35309H85.7248V20.6692H83.2559L82.9966 18.144ZM75.0601 14.7055V14.4688C75.0601 13.5444 75.1691 12.7026 75.387 11.9435C75.605 11.1769 75.9206 10.5193 76.334 9.97065C76.7474 9.41449 77.2509 8.98986 77.8446 8.69674C78.4384 8.39612 79.1073 8.2458 79.8513 8.2458C80.5879 8.2458 81.2342 8.3886 81.7904 8.6742C82.3465 8.95979 82.82 9.3694 83.2108 9.90301C83.6017 10.4291 83.9136 11.0604 84.1465 11.797C84.3795 12.526 84.5449 13.3377 84.6426 14.232V14.9874C84.5449 15.8592 84.3795 16.6559 84.1465 17.3774C83.9136 18.0989 83.6017 18.7227 83.2108 19.2488C82.82 19.7749 82.3428 20.1807 81.7791 20.4663C81.2229 20.7519 80.5728 20.8947 79.8288 20.8947C79.0922 20.8947 78.4271 20.7406 77.8334 20.4325C77.2471 20.1243 76.7474 19.6922 76.334 19.136C75.9206 18.5799 75.605 17.926 75.387 17.1744C75.1691 16.4154 75.0601 15.5924 75.0601 14.7055ZM77.777 14.4688V14.7055C77.777 15.2617 77.8259 15.7803 77.9236 16.2613C78.0288 16.7423 78.1904 17.1669 78.4083 17.5352C78.6263 17.8959 78.9081 18.1815 79.2538 18.392C79.6071 18.5949 80.028 18.6964 80.5165 18.6964C81.1328 18.6964 81.6401 18.5611 82.0384 18.2905C82.4367 18.0199 82.7486 17.6554 82.9741 17.197C83.2071 16.731 83.3649 16.2124 83.4476 15.6412V13.6007C83.4025 13.1573 83.3085 12.7439 83.1658 12.3606C83.0305 11.9773 82.8463 11.6429 82.6133 11.3573C82.3804 11.0642 82.091 10.8387 81.7453 10.6809C81.4071 10.5155 81.005 10.4329 80.539 10.4329C80.043 10.4329 79.6221 10.5381 79.2764 10.7485C78.9307 10.959 78.6451 11.2483 78.4196 11.6166C78.2016 11.9849 78.0401 12.4132 77.9348 12.9018C77.8296 13.3903 77.777 13.9126 77.777 14.4688Z" fill="#1D2026"/>
</svg>
