<svg width="173" height="26" viewBox="0 0 173 26" fill="none" xmlns="http://www.w3.org/2000/svg">
<path d="M23.3139 13.6206C23.2139 15.0497 22.8335 16.4451 22.1943 17.7272C21.555 19.0093 20.6696 20.1529 19.5884 21.0928C18.5072 22.0327 17.2514 22.7504 15.8929 23.2049C14.5343 23.6595 13.0995 23.8421 11.6704 23.7421L12.4314 12.8596L23.3139 13.6206Z" fill="#FFA800"/>
<path d="M16.7878 13.1611C16.7478 13.7328 16.5957 14.2909 16.34 14.8038C16.0843 15.3166 15.7301 15.7741 15.2976 16.15C14.8651 16.526 14.3628 16.813 13.8194 16.9949C13.276 17.1767 12.7021 17.2497 12.1304 17.2097L12.4348 12.8567L16.7878 13.1611Z" fill="#FFBB00"/>
<path d="M13.1926 1.98173L19.7221 2.43832C22.1262 2.60643 23.9389 4.69162 23.7708 7.09571L23.3142 13.6252L12.4316 12.8642L13.1926 1.98173Z" fill="#59F2F6"/>
<path d="M1.54795 12.1007C1.64788 10.6716 2.02832 9.27614 2.66754 7.99406C3.30677 6.71197 4.19226 5.56834 5.27345 4.62847C6.35465 3.6886 7.61039 2.97089 8.96896 2.51632C10.3275 2.06175 11.7623 1.87922 13.1914 1.97915L12.4305 12.8617L1.54795 12.1007Z" fill="#EE5A24"/>
<path d="M11.671 23.7436C10.2418 23.6437 8.84641 23.2632 7.56433 22.624C6.28224 21.9848 5.13862 21.0993 4.19875 20.0181C3.25887 18.9369 2.54116 17.6812 2.08659 16.3226C1.63202 14.964 1.44949 13.5292 1.54942 12.1001L12.4319 12.8611L11.671 23.7436Z" fill="#25C16F"/>
<path d="M8.08181 12.5523C8.12178 11.9807 8.27396 11.4225 8.52965 10.9097C8.78534 10.3968 9.13953 9.9394 9.57201 9.56345C10.0045 9.1875 10.5068 8.90042 11.0502 8.71859C11.5936 8.53676 12.1676 8.46375 12.7392 8.50372L12.4348 12.8567L8.08181 12.5523Z" fill="#D33C4E"/>
<path d="M18.4367 13.2713C18.489 12.4861 18.3857 11.6982 18.1327 10.9527C17.8798 10.2072 17.4821 9.51864 16.9625 8.92635C16.4429 8.33406 15.8114 7.84964 15.1042 7.50074C14.3969 7.15184 13.6278 6.9453 12.8406 6.8929L12.4426 12.8724L18.4367 13.2713Z" fill="#45A4EC"/>
<path d="M6.41766 12.4565C6.36638 13.2409 6.47083 14.0277 6.72505 14.7721C6.97927 15.5165 7.37829 16.2038 7.89932 16.7949C8.42035 17.386 9.05318 17.8692 9.7617 18.217C10.4702 18.5648 11.2405 18.7703 12.0287 18.8218L12.4192 12.8489L6.41766 12.4565Z" fill="#8BDF55"/>
<path d="M40.6506 14.8256H43.469C43.3788 15.9003 43.0781 16.8586 42.5671 17.7003C42.056 18.5346 41.3383 19.1922 40.4138 19.6732C39.4894 20.1542 38.3658 20.3947 37.0431 20.3947C36.0284 20.3947 35.1153 20.2143 34.3036 19.8536C33.4919 19.4853 32.7967 18.9667 32.218 18.2978C31.6393 17.6214 31.1958 16.806 30.8877 15.8515C30.5871 14.897 30.4368 13.8297 30.4368 12.6498V11.2857C30.4368 10.1057 30.5908 9.0385 30.899 8.08401C31.2146 7.12952 31.6656 6.31406 32.2518 5.63765C32.838 4.95373 33.5407 4.43139 34.36 4.07063C35.1867 3.70988 36.1149 3.5295 37.1445 3.5295C38.4522 3.5295 39.557 3.77001 40.4589 4.25101C41.3608 4.73201 42.0598 5.39715 42.5558 6.24642C43.0594 7.0957 43.3675 8.06898 43.4802 9.16627H40.6619C40.5867 8.45979 40.4214 7.85478 40.1658 7.35123C39.9178 6.84768 39.5495 6.46438 39.061 6.20133C38.5725 5.93076 37.9337 5.79548 37.1445 5.79548C36.4982 5.79548 35.9345 5.91573 35.4535 6.15624C34.9725 6.39674 34.5704 6.74997 34.2472 7.21595C33.924 7.68192 33.6798 8.25687 33.5144 8.9408C33.3566 9.61721 33.2777 10.3913 33.2777 11.2631V12.6498C33.2777 13.4765 33.3491 14.2281 33.4919 14.9045C33.6422 15.5734 33.8677 16.1483 34.1683 16.6293C34.4764 17.1103 34.8673 17.4824 35.3407 17.7454C35.8142 18.0085 36.3817 18.14 37.0431 18.14C37.8472 18.14 38.4973 18.0122 38.9934 17.7567C39.4969 17.5012 39.8765 17.1291 40.132 16.6406C40.395 16.1446 40.5679 15.5396 40.6506 14.8256ZM47.9847 2.85309V20.1692H45.2565V2.85309H47.9847ZM57.1451 17.7229V11.9057C57.1451 11.4698 57.0662 11.094 56.9084 10.7784C56.7505 10.4627 56.51 10.2185 56.1869 10.0456C55.8712 9.87274 55.4729 9.78631 54.9919 9.78631C54.5484 9.78631 54.1651 9.86147 53.842 10.0118C53.5188 10.1621 53.267 10.365 53.0866 10.6206C52.9063 10.8761 52.8161 11.1654 52.8161 11.4886H50.1104C50.1104 11.0076 50.2269 10.5416 50.4599 10.0907C50.6929 9.63975 51.0311 9.23767 51.4745 8.88443C51.9179 8.53119 52.4478 8.25311 53.0641 8.05019C53.6804 7.84726 54.3718 7.7458 55.1384 7.7458C56.0553 7.7458 56.867 7.89987 57.5735 8.20802C58.2875 8.51616 58.8474 8.98213 59.2532 9.60593C59.6666 10.2222 59.8733 10.9963 59.8733 11.9283V17.3508C59.8733 17.907 59.9109 18.4068 59.986 18.8502C60.0687 19.2861 60.1852 19.6657 60.3355 19.9889V20.1692H57.5509C57.4232 19.8761 57.3217 19.5041 57.2466 19.0531C57.1789 18.5947 57.1451 18.1513 57.1451 17.7229ZM57.5397 12.7512L57.5622 14.431H55.6119C55.1084 14.431 54.6649 14.4799 54.2816 14.5776C53.8983 14.6677 53.5789 14.803 53.3234 14.9834C53.0678 15.1638 52.8762 15.3817 52.7484 15.6373C52.6207 15.8928 52.5568 16.1822 52.5568 16.5053C52.5568 16.8285 52.6319 17.1254 52.7822 17.3959C52.9326 17.659 53.1505 17.8657 53.4361 18.016C53.7292 18.1663 54.0825 18.2415 54.4958 18.2415C55.052 18.2415 55.5367 18.1287 55.9501 17.9032C56.371 17.6703 56.7017 17.3884 56.9422 17.0577C57.1827 16.7195 57.3104 16.4001 57.3255 16.0995L58.2048 17.3058C58.1146 17.6139 57.9606 17.9446 57.7426 18.2978C57.5246 18.6511 57.239 18.9893 56.8858 19.3124C56.5401 19.6281 56.123 19.8874 55.6344 20.0903C55.1534 20.2932 54.5973 20.3947 53.966 20.3947C53.1693 20.3947 52.4591 20.2369 51.8353 19.9212C51.2115 19.598 50.7229 19.1659 50.3697 18.6248C50.0165 18.0761 49.8399 17.4561 49.8399 16.7646C49.8399 16.1183 49.9601 15.5471 50.2006 15.051C50.4486 14.5475 50.8094 14.1266 51.2829 13.7884C51.7639 13.4502 52.3501 13.1947 53.0415 13.0218C53.733 12.8414 54.5221 12.7512 55.409 12.7512H57.5397ZM64.7498 10.2936V20.1692H62.0328V7.97127H64.6258L64.7498 10.2936ZM68.4813 7.89236L68.4588 10.4176C68.2934 10.3876 68.113 10.365 67.9176 10.35C67.7297 10.335 67.5418 10.3274 67.354 10.3274C66.888 10.3274 66.4784 10.3951 66.1251 10.5304C65.7719 10.6581 65.475 10.846 65.2345 11.094C65.0015 11.3345 64.8212 11.6277 64.6934 11.9734C64.5656 12.3191 64.4905 12.7062 64.4679 13.1345L63.8479 13.1796C63.8479 12.413 63.923 11.7028 64.0734 11.0489C64.2237 10.3951 64.4491 9.82013 64.7498 9.3241C65.0579 8.82806 65.4412 8.441 65.8997 8.16292C66.3656 7.88484 66.903 7.7458 67.5118 7.7458C67.6771 7.7458 67.8537 7.76083 68.0416 7.7909C68.237 7.82096 68.3836 7.85478 68.4813 7.89236ZM72.3995 7.97127V20.1692H69.6713V7.97127H72.3995ZM69.491 4.76959C69.491 4.35623 69.6262 4.01427 69.8968 3.7437C70.1749 3.46562 70.5582 3.32658 71.0467 3.32658C71.5277 3.32658 71.9073 3.46562 72.1853 3.7437C72.4634 4.01427 72.6025 4.35623 72.6025 4.76959C72.6025 5.17544 72.4634 5.51364 72.1853 5.78421C71.9073 6.05477 71.5277 6.19006 71.0467 6.19006C70.5582 6.19006 70.1749 6.05477 69.8968 5.78421C69.6262 5.51364 69.491 5.17544 69.491 4.76959ZM80.2748 7.97127V9.95541H73.3979V7.97127H80.2748ZM75.3821 4.98379H78.099V16.7984C78.099 17.1742 78.1516 17.4636 78.2568 17.6665C78.3695 17.8619 78.5236 17.9934 78.719 18.0611C78.9144 18.1287 79.1437 18.1625 79.4067 18.1625C79.5946 18.1625 79.775 18.1513 79.9478 18.1287C80.1207 18.1062 80.2597 18.0836 80.365 18.0611L80.3762 20.1354C80.1508 20.203 79.8877 20.2632 79.5871 20.3158C79.294 20.3684 78.9558 20.3947 78.5725 20.3947C77.9487 20.3947 77.3963 20.2857 76.9153 20.0678C76.4343 19.8423 76.0585 19.4778 75.7879 18.9742C75.5173 18.4707 75.3821 17.8018 75.3821 16.9675V4.98379ZM85.2189 18.839L88.5333 7.97127H91.4419L86.5492 22.0294C86.4364 22.33 86.2899 22.6569 86.1095 23.0102C85.9291 23.3634 85.6924 23.6978 85.3993 24.0135C85.1137 24.3367 84.7567 24.596 84.3283 24.7914C83.8999 24.9943 83.3813 25.0958 82.7725 25.0958C82.532 25.0958 82.299 25.0732 82.0736 25.0281C81.8556 24.9905 81.6489 24.9492 81.4535 24.9041L81.4423 22.8298C81.5174 22.8373 81.6076 22.8448 81.7128 22.8523C81.8256 22.8598 81.9157 22.8636 81.9834 22.8636C82.4343 22.8636 82.8101 22.8072 83.1107 22.6945C83.4114 22.5893 83.6556 22.4164 83.8435 22.1759C84.0389 21.9354 84.2043 21.6122 84.3395 21.2064L85.2189 18.839ZM83.3475 7.97127L86.2448 17.1028L86.7295 19.9663L84.8469 20.4511L80.4164 7.97127H83.3475ZM98.7823 3.75497H101.308L106.054 16.4151L110.789 3.75497H113.314L107.046 20.1692H105.039L98.7823 3.75497ZM97.6324 3.75497H100.034L100.451 14.7128V20.1692H97.6324V3.75497ZM112.062 3.75497H114.475V20.1692H111.645V14.7128L112.062 3.75497ZM122.249 20.3947C121.347 20.3947 120.531 20.2481 119.802 19.955C119.081 19.6544 118.465 19.2373 117.954 18.7037C117.45 18.1701 117.063 17.5425 116.792 16.821C116.522 16.0995 116.387 15.3216 116.387 14.4874V14.0364C116.387 13.0819 116.526 12.2176 116.804 11.4435C117.082 10.6694 117.469 10.008 117.965 9.45938C118.461 8.90322 119.047 8.47858 119.724 8.18547C120.4 7.89236 121.133 7.7458 121.922 7.7458C122.794 7.7458 123.557 7.89236 124.21 8.18547C124.864 8.47858 125.405 8.89194 125.834 9.42556C126.27 9.95166 126.593 10.5792 126.803 11.3082C127.021 12.0373 127.13 12.8414 127.13 13.7208V14.8819H117.706V12.9316H124.447V12.7174C124.432 12.2289 124.334 11.7705 124.154 11.3421C123.981 10.9137 123.714 10.5679 123.354 10.3049C122.993 10.0418 122.512 9.91032 121.911 9.91032C121.46 9.91032 121.058 10.008 120.704 10.2034C120.359 10.3913 120.069 10.6656 119.836 11.0264C119.603 11.3872 119.423 11.8231 119.295 12.3341C119.175 12.8377 119.115 13.4051 119.115 14.0364V14.4874C119.115 15.021 119.186 15.517 119.329 15.9755C119.479 16.4264 119.697 16.821 119.983 17.1592C120.268 17.4974 120.614 17.7642 121.02 17.9596C121.426 18.1475 121.888 18.2415 122.407 18.2415C123.061 18.2415 123.643 18.1099 124.154 17.8469C124.665 17.5838 125.109 17.2118 125.484 16.7308L126.916 18.1174C126.653 18.5007 126.311 18.869 125.89 19.2223C125.469 19.568 124.954 19.8498 124.346 20.0678C123.744 20.2857 123.045 20.3947 122.249 20.3947ZM134.149 7.97127V9.95541H127.272V7.97127H134.149ZM129.256 4.98379H131.973V16.7984C131.973 17.1742 132.026 17.4636 132.131 17.6665C132.243 17.8619 132.398 17.9934 132.593 18.0611C132.788 18.1287 133.018 18.1625 133.281 18.1625C133.469 18.1625 133.649 18.1513 133.822 18.1287C133.995 18.1062 134.134 18.0836 134.239 18.0611L134.25 20.1354C134.025 20.203 133.762 20.2632 133.461 20.3158C133.168 20.3684 132.83 20.3947 132.446 20.3947C131.823 20.3947 131.27 20.2857 130.789 20.0678C130.308 19.8423 129.932 19.4778 129.662 18.9742C129.391 18.4707 129.256 17.8018 129.256 16.9675V4.98379ZM138.236 2.85309V20.1692H135.53V2.85309H138.236ZM137.763 13.6193L136.883 13.608C136.891 12.7663 137.007 11.9884 137.233 11.2744C137.466 10.5604 137.789 9.94038 138.202 9.41428C138.623 8.88067 139.127 8.47107 139.713 8.18547C140.299 7.89236 140.949 7.7458 141.663 7.7458C142.264 7.7458 142.806 7.82847 143.287 7.99382C143.775 8.15916 144.196 8.42597 144.549 8.79424C144.902 9.15499 145.169 9.62848 145.35 10.2147C145.538 10.7934 145.631 11.4999 145.631 12.3341V20.1692H142.903V12.3116C142.903 11.7254 142.817 11.2594 142.644 10.9137C142.479 10.5679 142.234 10.3199 141.911 10.1696C141.588 10.0118 141.193 9.93287 140.727 9.93287C140.239 9.93287 139.807 10.0306 139.431 10.226C139.063 10.4214 138.755 10.6882 138.507 11.0264C138.259 11.3646 138.071 11.7554 137.943 12.1988C137.823 12.6423 137.763 13.1158 137.763 13.6193ZM147.171 14.2055V13.9462C147.171 13.0669 147.299 12.2515 147.554 11.4999C147.81 10.7408 148.178 10.0832 148.659 9.52702C149.148 8.96334 149.741 8.52743 150.44 8.21929C151.147 7.90363 151.943 7.7458 152.83 7.7458C153.725 7.7458 154.521 7.90363 155.22 8.21929C155.927 8.52743 156.524 8.96334 157.013 9.52702C157.501 10.0832 157.873 10.7408 158.129 11.4999C158.384 12.2515 158.512 13.0669 158.512 13.9462V14.2055C158.512 15.0849 158.384 15.9003 158.129 16.6519C157.873 17.4035 157.501 18.0611 157.013 18.6248C156.524 19.1809 155.93 19.6168 155.232 19.9325C154.533 20.2406 153.74 20.3947 152.853 20.3947C151.958 20.3947 151.158 20.2406 150.452 19.9325C149.753 19.6168 149.159 19.1809 148.67 18.6248C148.182 18.0611 147.81 17.4035 147.554 16.6519C147.299 15.9003 147.171 15.0849 147.171 14.2055ZM149.888 13.9462V14.2055C149.888 14.7542 149.944 15.2728 150.057 15.7613C150.17 16.2498 150.346 16.6782 150.587 17.0465C150.827 17.4147 151.135 17.7041 151.511 17.9145C151.887 18.125 152.334 18.2302 152.853 18.2302C153.356 18.2302 153.792 18.125 154.161 17.9145C154.536 17.7041 154.844 17.4147 155.085 17.0465C155.325 16.6782 155.502 16.2498 155.615 15.7613C155.735 15.2728 155.795 14.7542 155.795 14.2055V13.9462C155.795 13.4051 155.735 12.894 155.615 12.413C155.502 11.9245 155.322 11.4924 155.074 11.1166C154.833 10.7408 154.525 10.4477 154.149 10.2373C153.781 10.0193 153.341 9.91032 152.83 9.91032C152.319 9.91032 151.876 10.0193 151.5 10.2373C151.132 10.4477 150.827 10.7408 150.587 11.1166C150.346 11.4924 150.17 11.9245 150.057 12.413C149.944 12.894 149.888 13.4051 149.888 13.9462ZM167.537 17.644V2.85309H170.265V20.1692H167.797L167.537 17.644ZM159.601 14.2055V13.9688C159.601 13.0444 159.71 12.2026 159.928 11.4435C160.146 10.6769 160.461 10.0193 160.875 9.47065C161.288 8.91449 161.792 8.48986 162.385 8.19674C162.979 7.89612 163.648 7.7458 164.392 7.7458C165.128 7.7458 165.775 7.8886 166.331 8.1742C166.887 8.45979 167.361 8.8694 167.751 9.40301C168.142 9.92911 168.454 10.5604 168.687 11.297C168.92 12.026 169.085 12.8377 169.183 13.732V14.4874C169.085 15.3592 168.92 16.1559 168.687 16.8774C168.454 17.5989 168.142 18.2227 167.751 18.7488C167.361 19.2749 166.883 19.6807 166.32 19.9663C165.764 20.2519 165.113 20.3947 164.369 20.3947C163.633 20.3947 162.968 20.2406 162.374 19.9325C161.788 19.6243 161.288 19.1922 160.875 18.636C160.461 18.0799 160.146 17.426 159.928 16.6744C159.71 15.9154 159.601 15.0924 159.601 14.2055ZM162.318 13.9688V14.2055C162.318 14.7617 162.366 15.2803 162.464 15.7613C162.569 16.2423 162.731 16.6669 162.949 17.0352C163.167 17.3959 163.449 17.6815 163.794 17.892C164.148 18.0949 164.569 18.1964 165.057 18.1964C165.673 18.1964 166.181 18.0611 166.579 17.7905C166.977 17.5199 167.289 17.1554 167.515 16.697C167.748 16.231 167.906 15.7124 167.988 15.1412V13.1007C167.943 12.6573 167.849 12.2439 167.706 11.8606C167.571 11.4773 167.387 11.1429 167.154 10.8573C166.921 10.5642 166.632 10.3387 166.286 10.1809C165.948 10.0155 165.546 9.93287 165.08 9.93287C164.584 9.93287 164.163 10.0381 163.817 10.2485C163.471 10.459 163.186 10.7483 162.96 11.1166C162.742 11.4849 162.581 11.9132 162.475 12.4018C162.37 12.8903 162.318 13.4126 162.318 13.9688Z" fill="#1D2026"/>
</svg>
