<svg width="162" height="25" viewBox="0 0 162 25" fill="none" xmlns="http://www.w3.org/2000/svg">
<path d="M23.3139 13.6206C23.2139 15.0497 22.8335 16.4451 22.1943 17.7272C21.555 19.0093 20.6696 20.1529 19.5884 21.0928C18.5072 22.0327 17.2514 22.7504 15.8929 23.2049C14.5343 23.6595 13.0995 23.8421 11.6704 23.7421L12.4314 12.8596L23.3139 13.6206Z" fill="#FFA800"/>
<path d="M16.7878 13.1611C16.7478 13.7328 16.5957 14.2909 16.34 14.8038C16.0843 15.3166 15.7301 15.7741 15.2976 16.15C14.8651 16.526 14.3628 16.813 13.8194 16.9949C13.276 17.1767 12.7021 17.2497 12.1304 17.2097L12.4348 12.8567L16.7878 13.1611Z" fill="#FFBB00"/>
<path d="M13.1926 1.98173L19.7221 2.43832C22.1262 2.60643 23.9389 4.69162 23.7708 7.09571L23.3142 13.6252L12.4316 12.8642L13.1926 1.98173Z" fill="#59F2F6"/>
<path d="M1.54795 12.1007C1.64788 10.6716 2.02832 9.27614 2.66754 7.99406C3.30677 6.71197 4.19226 5.56834 5.27345 4.62847C6.35465 3.6886 7.61039 2.97089 8.96896 2.51632C10.3275 2.06175 11.7623 1.87922 13.1914 1.97915L12.4305 12.8617L1.54795 12.1007Z" fill="#EE5A24"/>
<path d="M11.671 23.7436C10.2418 23.6437 8.84641 23.2632 7.56433 22.624C6.28224 21.9848 5.13862 21.0993 4.19875 20.0181C3.25887 18.9369 2.54116 17.6812 2.08659 16.3226C1.63202 14.964 1.44949 13.5292 1.54942 12.1001L12.4319 12.8611L11.671 23.7436Z" fill="#25C16F"/>
<path d="M8.08181 12.5523C8.12178 11.9807 8.27396 11.4225 8.52965 10.9097C8.78534 10.3968 9.13953 9.9394 9.57201 9.56345C10.0045 9.1875 10.5068 8.90042 11.0502 8.71859C11.5936 8.53676 12.1676 8.46375 12.7392 8.50372L12.4348 12.8567L8.08181 12.5523Z" fill="#D33C4E"/>
<path d="M18.4367 13.2713C18.489 12.4861 18.3857 11.6982 18.1327 10.9527C17.8798 10.2072 17.4821 9.51864 16.9625 8.92635C16.4429 8.33406 15.8114 7.84964 15.1042 7.50074C14.3969 7.15184 13.6278 6.9453 12.8406 6.8929L12.4426 12.8724L18.4367 13.2713Z" fill="#45A4EC"/>
<path d="M6.41766 12.4565C6.36638 13.2409 6.47083 14.0277 6.72505 14.7721C6.97927 15.5165 7.37829 16.2038 7.89932 16.7949C8.42035 17.386 9.05318 17.8692 9.7617 18.217C10.4702 18.5648 11.2405 18.7703 12.0287 18.8218L12.4192 12.8489L6.41766 12.4565Z" fill="#8BDF55"/>
<path d="M40.6506 14.8256H43.469C43.3788 15.9003 43.0781 16.8586 42.5671 17.7003C42.056 18.5346 41.3383 19.1922 40.4138 19.6732C39.4894 20.1542 38.3658 20.3947 37.0431 20.3947C36.0284 20.3947 35.1153 20.2143 34.3036 19.8536C33.4919 19.4853 32.7967 18.9667 32.218 18.2978C31.6393 17.6214 31.1958 16.806 30.8877 15.8515C30.5871 14.897 30.4368 13.8297 30.4368 12.6498V11.2857C30.4368 10.1057 30.5908 9.0385 30.899 8.08401C31.2146 7.12952 31.6656 6.31406 32.2518 5.63765C32.838 4.95373 33.5407 4.43139 34.36 4.07063C35.1867 3.70988 36.1149 3.5295 37.1445 3.5295C38.4522 3.5295 39.557 3.77001 40.4589 4.25101C41.3608 4.73201 42.0598 5.39715 42.5558 6.24642C43.0594 7.0957 43.3675 8.06898 43.4802 9.16627H40.6619C40.5867 8.45979 40.4214 7.85478 40.1658 7.35123C39.9178 6.84768 39.5495 6.46438 39.061 6.20133C38.5725 5.93076 37.9337 5.79548 37.1445 5.79548C36.4982 5.79548 35.9345 5.91573 35.4535 6.15624C34.9725 6.39674 34.5704 6.74997 34.2472 7.21595C33.924 7.68192 33.6798 8.25687 33.5144 8.9408C33.3566 9.61721 33.2777 10.3913 33.2777 11.2631V12.6498C33.2777 13.4765 33.3491 14.2281 33.4919 14.9045C33.6422 15.5734 33.8677 16.1483 34.1683 16.6293C34.4764 17.1103 34.8673 17.4824 35.3407 17.7454C35.8142 18.0085 36.3817 18.14 37.0431 18.14C37.8472 18.14 38.4973 18.0122 38.9934 17.7567C39.4969 17.5012 39.8765 17.1291 40.132 16.6406C40.395 16.1446 40.5679 15.5396 40.6506 14.8256ZM44.5575 14.2055V13.9462C44.5575 13.0669 44.6853 12.2515 44.9408 11.4999C45.1964 10.7408 45.5646 10.0832 46.0456 9.52702C46.5342 8.96334 47.1279 8.52743 47.8269 8.21929C48.5333 7.90363 49.33 7.7458 50.2168 7.7458C51.1112 7.7458 51.9079 7.90363 52.6068 8.21929C53.3133 8.52743 53.9108 8.96334 54.3993 9.52702C54.8878 10.0832 55.2599 10.7408 55.5154 11.4999C55.7709 12.2515 55.8987 13.0669 55.8987 13.9462V14.2055C55.8987 15.0849 55.7709 15.9003 55.5154 16.6519C55.2599 17.4035 54.8878 18.0611 54.3993 18.6248C53.9108 19.1809 53.3171 19.6168 52.6181 19.9325C51.9191 20.2406 51.1262 20.3947 50.2394 20.3947C49.345 20.3947 48.5446 20.2406 47.8381 19.9325C47.1392 19.6168 46.5454 19.1809 46.0569 18.6248C45.5684 18.0611 45.1964 17.4035 44.9408 16.6519C44.6853 15.9003 44.5575 15.0849 44.5575 14.2055ZM47.2745 13.9462V14.2055C47.2745 14.7542 47.3308 15.2728 47.4436 15.7613C47.5563 16.2498 47.7329 16.6782 47.9734 17.0465C48.2139 17.4147 48.5221 17.7041 48.8978 17.9145C49.2736 18.125 49.7208 18.2302 50.2394 18.2302C50.7429 18.2302 51.1789 18.125 51.5471 17.9145C51.9229 17.7041 52.231 17.4147 52.4715 17.0465C52.712 16.6782 52.8887 16.2498 53.0014 15.7613C53.1217 15.2728 53.1818 14.7542 53.1818 14.2055V13.9462C53.1818 13.4051 53.1217 12.894 53.0014 12.413C52.8887 11.9245 52.7083 11.4924 52.4603 11.1166C52.2198 10.7408 51.9116 10.4477 51.5358 10.2373C51.1676 10.0193 50.7279 9.91032 50.2168 9.91032C49.7058 9.91032 49.2624 10.0193 48.8866 10.2373C48.5183 10.4477 48.2139 10.7408 47.9734 11.1166C47.7329 11.4924 47.5563 11.9245 47.4436 12.413C47.3308 12.894 47.2745 13.4051 47.2745 13.9462ZM60.1777 10.5755V20.1692H57.4608V7.97127H60.0198L60.1777 10.5755ZM59.6929 13.6193L58.8136 13.608C58.8211 12.7437 58.9413 11.9508 59.1743 11.2293C59.4148 10.5078 59.7455 9.88777 60.1664 9.36919C60.5948 8.85061 61.1059 8.45228 61.6996 8.1742C62.2933 7.8886 62.9547 7.7458 63.6837 7.7458C64.27 7.7458 64.7998 7.82847 65.2733 7.99382C65.7543 8.15165 66.1639 8.41094 66.5021 8.77169C66.8478 9.13245 67.1109 9.60218 67.2913 10.1809C67.4716 10.7521 67.5618 11.4548 67.5618 12.289V20.1692H64.8336V12.2778C64.8336 11.6915 64.7472 11.2293 64.5744 10.8911C64.409 10.5454 64.1647 10.3011 63.8416 10.1583C63.5259 10.008 63.1313 9.93287 62.6579 9.93287C62.1919 9.93287 61.7748 10.0306 61.4065 10.226C61.0382 10.4214 60.7263 10.6882 60.4708 11.0264C60.2228 11.3646 60.0311 11.7554 59.8958 12.1988C59.7606 12.6423 59.6929 13.1158 59.6929 13.6193ZM75.2341 7.97127V9.95541H68.3573V7.97127H75.2341ZM70.3414 4.98379H73.0584V16.7984C73.0584 17.1742 73.111 17.4636 73.2162 17.6665C73.3289 17.8619 73.483 17.9934 73.6784 18.0611C73.8738 18.1287 74.103 18.1625 74.3661 18.1625C74.554 18.1625 74.7344 18.1513 74.9072 18.1287C75.0801 18.1062 75.2191 18.0836 75.3243 18.0611L75.3356 20.1354C75.1101 20.203 74.8471 20.2632 74.5465 20.3158C74.2533 20.3684 73.9151 20.3947 73.5318 20.3947C72.908 20.3947 72.3556 20.2857 71.8746 20.0678C71.3936 19.8423 71.0178 19.4778 70.7473 18.9742C70.4767 18.4707 70.3414 17.8018 70.3414 16.9675V4.98379ZM83.5152 17.7229V11.9057C83.5152 11.4698 83.4363 11.094 83.2785 10.7784C83.1207 10.4627 82.8802 10.2185 82.557 10.0456C82.2413 9.87274 81.843 9.78631 81.362 9.78631C80.9186 9.78631 80.5353 9.86147 80.2121 10.0118C79.8889 10.1621 79.6371 10.365 79.4568 10.6206C79.2764 10.8761 79.1862 11.1654 79.1862 11.4886H76.4805C76.4805 11.0076 76.597 10.5416 76.83 10.0907C77.063 9.63975 77.4012 9.23767 77.8446 8.88443C78.2881 8.53119 78.8179 8.25311 79.4342 8.05019C80.0505 7.84726 80.7419 7.7458 81.5085 7.7458C82.4255 7.7458 83.2371 7.89987 83.9436 8.20802C84.6576 8.51616 85.2175 8.98213 85.6234 9.60593C86.0367 10.2222 86.2434 10.9963 86.2434 11.9283V17.3508C86.2434 17.907 86.281 18.4068 86.3562 18.8502C86.4388 19.2861 86.5553 19.6657 86.7056 19.9889V20.1692H83.9211C83.7933 19.8761 83.6918 19.5041 83.6167 19.0531C83.549 18.5947 83.5152 18.1513 83.5152 17.7229ZM83.9098 12.7512L83.9323 14.431H81.982C81.4785 14.431 81.0351 14.4799 80.6518 14.5776C80.2685 14.6677 79.949 14.803 79.6935 14.9834C79.438 15.1638 79.2463 15.3817 79.1186 15.6373C78.9908 15.8928 78.9269 16.1822 78.9269 16.5053C78.9269 16.8285 79.0021 17.1254 79.1524 17.3959C79.3027 17.659 79.5206 17.8657 79.8062 18.016C80.0993 18.1663 80.4526 18.2415 80.8659 18.2415C81.4221 18.2415 81.9069 18.1287 82.3202 17.9032C82.7411 17.6703 83.0718 17.3884 83.3123 17.0577C83.5528 16.7195 83.6806 16.4001 83.6956 16.0995L84.5749 17.3058C84.4848 17.6139 84.3307 17.9446 84.1127 18.2978C83.8948 18.6511 83.6092 18.9893 83.2559 19.3124C82.9102 19.6281 82.4931 19.8874 82.0046 20.0903C81.5236 20.2932 80.9674 20.3947 80.3361 20.3947C79.5394 20.3947 78.8292 20.2369 78.2054 19.9212C77.5816 19.598 77.0931 19.1659 76.7398 18.6248C76.3866 18.0761 76.21 17.4561 76.21 16.7646C76.21 16.1183 76.3302 15.5471 76.5707 15.051C76.8188 14.5475 77.1795 14.1266 77.653 13.7884C78.134 13.4502 78.7202 13.1947 79.4117 13.0218C80.1031 12.8414 80.8923 12.7512 81.7791 12.7512H83.9098ZM93.3746 18.2302C93.818 18.2302 94.2164 18.1438 94.5696 17.9709C94.9304 17.7905 95.2197 17.5425 95.4377 17.2268C95.6631 16.9112 95.7871 16.5467 95.8097 16.1333H98.3688C98.3537 16.9225 98.1208 17.6402 97.6698 18.2865C97.2189 18.9329 96.6214 19.4477 95.8773 19.831C95.1333 20.2068 94.3103 20.3947 93.4084 20.3947C92.4765 20.3947 91.6648 20.2369 90.9733 19.9212C90.2819 19.598 89.707 19.1546 89.2485 18.5909C88.79 18.0273 88.4443 17.3772 88.2113 16.6406C87.9859 15.9041 87.8731 15.1149 87.8731 14.2732V13.8786C87.8731 13.0368 87.9859 12.2477 88.2113 11.5112C88.4443 10.7671 88.79 10.1132 89.2485 9.54957C89.707 8.98589 90.2819 8.54622 90.9733 8.23056C91.6648 7.90739 92.4727 7.7458 93.3972 7.7458C94.3742 7.7458 95.231 7.94121 95.9675 8.33203C96.7041 8.71533 97.2828 9.2527 97.7036 9.94414C98.132 10.6281 98.3537 11.4247 98.3688 12.3341H95.8097C95.7871 11.8832 95.6744 11.4773 95.4715 11.1166C95.2761 10.7483 94.998 10.4552 94.6372 10.2373C94.284 10.0193 93.8594 9.91032 93.3633 9.91032C92.8147 9.91032 92.36 10.0231 91.9992 10.2485C91.6385 10.4665 91.3566 10.7671 91.1537 11.1504C90.9508 11.5262 90.8042 11.9508 90.7141 12.4243C90.6314 12.8903 90.59 13.375 90.59 13.8786V14.2732C90.59 14.7767 90.6314 15.2652 90.7141 15.7387C90.7967 16.2122 90.9395 16.6369 91.1424 17.0126C91.3529 17.3809 91.6385 17.6778 91.9992 17.9032C92.36 18.1212 92.8184 18.2302 93.3746 18.2302ZM105.353 7.97127V9.95541H98.4766V7.97127H105.353ZM100.461 4.98379H103.178V16.7984C103.178 17.1742 103.23 17.4636 103.335 17.6665C103.448 17.8619 103.602 17.9934 103.798 18.0611C103.993 18.1287 104.222 18.1625 104.485 18.1625C104.673 18.1625 104.854 18.1513 105.026 18.1287C105.199 18.1062 105.338 18.0836 105.444 18.0611L105.455 20.1354C105.229 20.203 104.966 20.2632 104.666 20.3158C104.373 20.3684 104.034 20.3947 103.651 20.3947C103.027 20.3947 102.475 20.2857 101.994 20.0678C101.513 19.8423 101.137 19.4778 100.867 18.9742C100.596 18.4707 100.461 17.8018 100.461 16.9675V4.98379ZM118.319 14.0477H114.047V11.8043H118.319C119.063 11.8043 119.665 11.684 120.123 11.4435C120.582 11.203 120.916 10.8723 121.126 10.4514C121.344 10.0231 121.453 9.53454 121.453 8.98589C121.453 8.46731 121.344 7.98255 121.126 7.53161C120.916 7.07315 120.582 6.70488 120.123 6.4268C119.665 6.14872 119.063 6.00968 118.319 6.00968H114.915V20.1692H112.085V3.75497H118.319C119.589 3.75497 120.668 3.98044 121.555 4.43139C122.449 4.87481 123.129 5.4911 123.595 6.28024C124.061 7.06188 124.294 7.95624 124.294 8.96334C124.294 10.0231 124.061 10.9325 123.595 11.6915C123.129 12.4506 122.449 13.0331 121.555 13.4389C120.668 13.8448 119.589 14.0477 118.319 14.0477ZM132.609 17.7229V11.9057C132.609 11.4698 132.53 11.094 132.372 10.7784C132.215 10.4627 131.974 10.2185 131.651 10.0456C131.335 9.87274 130.937 9.78631 130.456 9.78631C130.013 9.78631 129.629 9.86147 129.306 10.0118C128.983 10.1621 128.731 10.365 128.551 10.6206C128.37 10.8761 128.28 11.1654 128.28 11.4886H125.574C125.574 11.0076 125.691 10.5416 125.924 10.0907C126.157 9.63975 126.495 9.23767 126.939 8.88443C127.382 8.53119 127.912 8.25311 128.528 8.05019C129.144 7.84726 129.836 7.7458 130.602 7.7458C131.519 7.7458 132.331 7.89987 133.038 8.20802C133.752 8.51616 134.311 8.98213 134.717 9.60593C135.131 10.2222 135.337 10.9963 135.337 11.9283V17.3508C135.337 17.907 135.375 18.4068 135.45 18.8502C135.533 19.2861 135.649 19.6657 135.8 19.9889V20.1692H133.015C132.887 19.8761 132.786 19.5041 132.711 19.0531C132.643 18.5947 132.609 18.1513 132.609 17.7229ZM133.004 12.7512L133.026 14.431H131.076C130.572 14.431 130.129 14.4799 129.746 14.5776C129.362 14.6677 129.043 14.803 128.787 14.9834C128.532 15.1638 128.34 15.3817 128.213 15.6373C128.085 15.8928 128.021 16.1822 128.021 16.5053C128.021 16.8285 128.096 17.1254 128.246 17.3959C128.397 17.659 128.615 17.8657 128.9 18.016C129.193 18.1663 129.547 18.2415 129.96 18.2415C130.516 18.2415 131.001 18.1287 131.414 17.9032C131.835 17.6703 132.166 17.3884 132.406 17.0577C132.647 16.7195 132.775 16.4001 132.79 16.0995L133.669 17.3058C133.579 17.6139 133.425 17.9446 133.207 18.2978C132.989 18.6511 132.703 18.9893 132.35 19.3124C132.004 19.6281 131.587 19.8874 131.099 20.0903C130.618 20.2932 130.061 20.3947 129.43 20.3947C128.633 20.3947 127.923 20.2369 127.299 19.9212C126.676 19.598 126.187 19.1659 125.834 18.6248C125.481 18.0761 125.304 17.4561 125.304 16.7646C125.304 16.1183 125.424 15.5471 125.665 15.051C125.913 14.5475 126.273 14.1266 126.747 13.7884C127.228 13.4502 127.814 13.1947 128.506 13.0218C129.197 12.8414 129.986 12.7512 130.873 12.7512H133.004ZM145.298 7.97127H147.767V19.831C147.767 20.9283 147.534 21.8603 147.068 22.6269C146.602 23.3935 145.952 23.9759 145.118 24.3743C144.284 24.7801 143.318 24.983 142.221 24.983C141.755 24.983 141.236 24.9154 140.665 24.7801C140.101 24.6448 139.552 24.4269 139.019 24.1262C138.493 23.8331 138.053 23.4461 137.7 22.9651L138.974 21.3642C139.41 21.8828 139.891 22.2623 140.417 22.5028C140.943 22.7433 141.495 22.8636 142.074 22.8636C142.698 22.8636 143.228 22.7471 143.664 22.5141C144.107 22.2887 144.449 21.9542 144.689 21.5108C144.93 21.0674 145.05 20.5262 145.05 19.8874V10.7333L145.298 7.97127ZM137.012 14.2055V13.9688C137.012 13.0444 137.125 12.2026 137.35 11.4435C137.576 10.6769 137.899 10.0193 138.32 9.47065C138.741 8.91449 139.252 8.48986 139.853 8.19674C140.454 7.89612 141.135 7.7458 141.894 7.7458C142.683 7.7458 143.355 7.8886 143.912 8.1742C144.475 8.45979 144.945 8.8694 145.321 9.40301C145.697 9.92911 145.99 10.5604 146.2 11.297C146.418 12.026 146.58 12.8377 146.685 13.732V14.4874C146.587 15.3592 146.422 16.1559 146.189 16.8774C145.956 17.5989 145.648 18.2227 145.264 18.7488C144.881 19.2749 144.408 19.6807 143.844 19.9663C143.288 20.2519 142.63 20.3947 141.871 20.3947C141.127 20.3947 140.454 20.2406 139.853 19.9325C139.259 19.6243 138.748 19.1922 138.32 18.636C137.899 18.0799 137.576 17.426 137.35 16.6744C137.125 15.9154 137.012 15.0924 137.012 14.2055ZM139.729 13.9688V14.2055C139.729 14.7617 139.782 15.2803 139.887 15.7613C140 16.2423 140.169 16.6669 140.394 17.0352C140.627 17.3959 140.92 17.6815 141.274 17.892C141.634 18.0949 142.059 18.1964 142.547 18.1964C143.186 18.1964 143.709 18.0611 144.114 17.7905C144.528 17.5199 144.844 17.1554 145.061 16.697C145.287 16.231 145.445 15.7124 145.535 15.1412V13.1007C145.49 12.6573 145.396 12.2439 145.253 11.8606C145.118 11.4773 144.934 11.1429 144.701 10.8573C144.468 10.5642 144.175 10.3387 143.821 10.1809C143.468 10.0155 143.051 9.93287 142.57 9.93287C142.081 9.93287 141.657 10.0381 141.296 10.2485C140.935 10.459 140.638 10.7483 140.405 11.1166C140.18 11.4849 140.011 11.9132 139.898 12.4018C139.785 12.8903 139.729 13.4126 139.729 13.9688ZM155.27 20.3947C154.368 20.3947 153.553 20.2481 152.824 19.955C152.102 19.6544 151.486 19.2373 150.975 18.7037C150.472 18.1701 150.084 17.5425 149.814 16.821C149.543 16.0995 149.408 15.3216 149.408 14.4874V14.0364C149.408 13.0819 149.547 12.2176 149.825 11.4435C150.103 10.6694 150.49 10.008 150.986 9.45938C151.482 8.90322 152.069 8.47858 152.745 8.18547C153.421 7.89236 154.154 7.7458 154.943 7.7458C155.815 7.7458 156.578 7.89236 157.232 8.18547C157.886 8.47858 158.427 8.89194 158.855 9.42556C159.291 9.95166 159.614 10.5792 159.825 11.3082C160.043 12.0373 160.152 12.8414 160.152 13.7208V14.8819H150.727V12.9316H157.469V12.7174C157.454 12.2289 157.356 11.7705 157.176 11.3421C157.003 10.9137 156.736 10.5679 156.375 10.3049C156.014 10.0418 155.533 9.91032 154.932 9.91032C154.481 9.91032 154.079 10.008 153.726 10.2034C153.38 10.3913 153.091 10.6656 152.858 11.0264C152.625 11.3872 152.444 11.8231 152.317 12.3341C152.196 12.8377 152.136 13.4051 152.136 14.0364V14.4874C152.136 15.021 152.208 15.517 152.35 15.9755C152.501 16.4264 152.719 16.821 153.004 17.1592C153.29 17.4974 153.636 17.7642 154.042 17.9596C154.447 18.1475 154.91 18.2415 155.428 18.2415C156.082 18.2415 156.664 18.1099 157.176 17.8469C157.687 17.5838 158.13 17.2118 158.506 16.7308L159.938 18.1174C159.675 18.5007 159.333 18.869 158.912 19.2223C158.491 19.568 157.976 19.8498 157.367 20.0678C156.766 20.2857 156.067 20.3947 155.27 20.3947Z" fill="#1D2026"/>
</svg>
