<svg width="115" height="25" viewBox="0 0 115 25" fill="none" xmlns="http://www.w3.org/2000/svg">
<path d="M22.8139 13.6206C22.714 15.0497 22.3335 16.4451 21.6943 17.7272C21.0551 19.0093 20.1696 20.1529 19.0884 21.0928C18.0072 22.0327 16.7515 22.7504 15.3929 23.2049C14.0343 23.6595 12.5995 23.8421 11.1704 23.7421L11.9314 12.8596L22.8139 13.6206Z" fill="#FFA800"/>
<path d="M16.2879 13.1611C16.2479 13.7328 16.0957 14.2909 15.84 14.8038C15.5843 15.3166 15.2301 15.7741 14.7976 16.15C14.3652 16.526 13.8629 16.813 13.3194 16.9949C12.776 17.1767 12.2021 17.2497 11.6305 17.2097L11.9348 12.8567L16.2879 13.1611Z" fill="#FFBB00"/>
<path d="M12.6927 1.98173L19.2222 2.43832C21.6263 2.60643 23.4389 4.69162 23.2708 7.09571L22.8142 13.6252L11.9317 12.8642L12.6927 1.98173Z" fill="#59F2F6"/>
<path d="M1.04798 12.1007C1.14791 10.6716 1.52835 9.27614 2.16757 7.99406C2.8068 6.71197 3.69229 5.56834 4.77348 4.62847C5.85468 3.6886 7.11042 2.97089 8.46899 2.51632C9.82756 2.06175 11.2624 1.87922 12.6915 1.97915L11.9305 12.8617L1.04798 12.1007Z" fill="#EE5A24"/>
<path d="M11.171 23.7436C9.74188 23.6437 8.34644 23.2632 7.06436 22.624C5.78227 21.9848 4.63865 21.0993 3.69878 20.0181C2.7589 18.9369 2.04119 17.6812 1.58662 16.3226C1.13205 14.964 0.949522 13.5292 1.04946 12.1001L11.932 12.8611L11.171 23.7436Z" fill="#25C16F"/>
<path d="M7.58184 12.5523C7.62181 11.9807 7.77399 11.4225 8.02968 10.9097C8.28537 10.3968 8.63956 9.9394 9.07204 9.56345C9.50452 9.1875 10.0068 8.90042 10.5502 8.71859C11.0937 8.53676 11.6676 8.46375 12.2392 8.50372L11.9348 12.8567L7.58184 12.5523Z" fill="#D33C4E"/>
<path d="M17.9367 13.2713C17.989 12.4861 17.8857 11.6982 17.6328 10.9527C17.3798 10.2072 16.9822 9.51864 16.4625 8.92635C15.9429 8.33406 15.3114 7.84964 14.6042 7.50074C13.8969 7.15184 13.1278 6.9453 12.3406 6.8929L11.9427 12.8724L17.9367 13.2713Z" fill="#45A4EC"/>
<path d="M5.9177 12.4565C5.86641 13.2409 5.97086 14.0277 6.22508 14.7721C6.4793 15.5165 6.87832 16.2038 7.39935 16.7949C7.92038 17.386 8.55321 17.8692 9.26173 18.217C9.97024 18.5648 10.7406 18.7703 11.5287 18.8218L11.9192 12.8489L5.9177 12.4565Z" fill="#8BDF55"/>
<path d="M33.285 3.75497V20.1692H30.4553V3.75497H33.285ZM39.9815 10.9362V13.1796H32.5635V10.9362H39.9815ZM40.9172 3.75497V6.00968H32.5635V3.75497H40.9172ZM47.3381 20.3947C46.4362 20.3947 45.6208 20.2481 44.8918 19.955C44.1703 19.6544 43.554 19.2373 43.0429 18.7037C42.5394 18.1701 42.1523 17.5425 41.8817 16.821C41.6112 16.0995 41.4759 15.3216 41.4759 14.4874V14.0364C41.4759 13.0819 41.6149 12.2176 41.893 11.4435C42.1711 10.6694 42.5582 10.008 43.0542 9.45938C43.5502 8.90322 44.1364 8.47858 44.8129 8.18547C45.4893 7.89236 46.222 7.7458 47.0112 7.7458C47.883 7.7458 48.6459 7.89236 49.2997 8.18547C49.9536 8.47858 50.4947 8.89194 50.9231 9.42556C51.359 9.95166 51.6822 10.5792 51.8926 11.3082C52.1106 12.0373 52.2196 12.8414 52.2196 13.7208V14.8819H42.7949V12.9316H49.5365V12.7174C49.5214 12.2289 49.4237 11.7705 49.2434 11.3421C49.0705 10.9137 48.8037 10.5679 48.4429 10.3049C48.0822 10.0418 47.6012 9.91032 46.9999 9.91032C46.549 9.91032 46.1469 10.008 45.7937 10.2034C45.4479 10.3913 45.1586 10.6656 44.9256 11.0264C44.6926 11.3872 44.5122 11.8231 44.3845 12.3341C44.2642 12.8377 44.2041 13.4051 44.2041 14.0364V14.4874C44.2041 15.021 44.2755 15.517 44.4183 15.9755C44.5686 16.4264 44.7866 16.821 45.0721 17.1592C45.3577 17.4974 45.7035 17.7642 46.1093 17.9596C46.5152 18.1475 46.9774 18.2415 47.496 18.2415C48.1498 18.2415 48.7323 18.1099 49.2434 17.8469C49.7544 17.5838 50.1978 17.2118 50.5736 16.7308L52.0054 18.1174C51.7423 18.5007 51.4004 18.869 50.9795 19.2223C50.5586 19.568 50.0438 19.8498 49.435 20.0678C48.8337 20.2857 48.1348 20.3947 47.3381 20.3947ZM60.5232 17.7229V11.9057C60.5232 11.4698 60.4443 11.094 60.2864 10.7784C60.1286 10.4627 59.8881 10.2185 59.5649 10.0456C59.2493 9.87274 58.851 9.78631 58.3699 9.78631C57.9265 9.78631 57.5432 9.86147 57.22 10.0118C56.8969 10.1621 56.6451 10.365 56.4647 10.6206C56.2843 10.8761 56.1942 11.1654 56.1942 11.4886H53.4885C53.4885 11.0076 53.605 10.5416 53.838 10.0907C54.071 9.63975 54.4092 9.23767 54.8526 8.88443C55.296 8.53119 55.8259 8.25311 56.4422 8.05019C57.0585 7.84726 57.7499 7.7458 58.5165 7.7458C59.4334 7.7458 60.2451 7.89987 60.9516 8.20802C61.6656 8.51616 62.2255 8.98213 62.6313 9.60593C63.0447 10.2222 63.2514 10.9963 63.2514 11.9283V17.3508C63.2514 17.907 63.289 18.4068 63.3641 18.8502C63.4468 19.2861 63.5633 19.6657 63.7136 19.9889V20.1692H60.929C60.8013 19.8761 60.6998 19.5041 60.6247 19.0531C60.557 18.5947 60.5232 18.1513 60.5232 17.7229ZM60.9178 12.7512L60.9403 14.431H58.99C58.4864 14.431 58.043 14.4799 57.6597 14.5776C57.2764 14.6677 56.957 14.803 56.7015 14.9834C56.4459 15.1638 56.2543 15.3817 56.1265 15.6373C55.9988 15.8928 55.9349 16.1822 55.9349 16.5053C55.9349 16.8285 56.01 17.1254 56.1603 17.3959C56.3107 17.659 56.5286 17.8657 56.8142 18.016C57.1073 18.1663 57.4606 18.2415 57.8739 18.2415C58.4301 18.2415 58.9148 18.1287 59.3282 17.9032C59.7491 17.6703 60.0798 17.3884 60.3203 17.0577C60.5608 16.7195 60.6885 16.4001 60.7036 16.0995L61.5829 17.3058C61.4927 17.6139 61.3386 17.9446 61.1207 18.2978C60.9027 18.6511 60.6171 18.9893 60.2639 19.3124C59.9182 19.6281 59.5011 19.8874 59.0125 20.0903C58.5315 20.2932 57.9754 20.3947 57.3441 20.3947C56.5474 20.3947 55.8372 20.2369 55.2134 19.9212C54.5896 19.598 54.101 19.1659 53.7478 18.6248C53.3946 18.0761 53.2179 17.4561 53.2179 16.7646C53.2179 16.1183 53.3382 15.5471 53.5787 15.051C53.8267 14.5475 54.1875 14.1266 54.661 13.7884C55.142 13.4502 55.7282 13.1947 56.4196 13.0218C57.1111 12.8414 57.9002 12.7512 58.7871 12.7512H60.9178ZM70.9913 7.97127V9.95541H64.1145V7.97127H70.9913ZM66.0986 4.98379H68.8155V16.7984C68.8155 17.1742 68.8682 17.4636 68.9734 17.6665C69.0861 17.8619 69.2402 17.9934 69.4356 18.0611C69.631 18.1287 69.8602 18.1625 70.1233 18.1625C70.3112 18.1625 70.4915 18.1513 70.6644 18.1287C70.8373 18.1062 70.9763 18.0836 71.0815 18.0611L71.0928 20.1354C70.8673 20.203 70.6043 20.2632 70.3037 20.3158C70.0105 20.3684 69.6723 20.3947 69.289 20.3947C68.6652 20.3947 68.1128 20.2857 67.6318 20.0678C67.1508 19.8423 66.775 19.4778 66.5045 18.9742C66.2339 18.4707 66.0986 17.8018 66.0986 16.9675V4.98379ZM79.7346 17.2945V7.97127H82.4628V20.1692H79.8925L79.7346 17.2945ZM80.1179 14.7579L81.0311 14.7354C81.0311 15.5546 80.9409 16.3099 80.7605 17.0014C80.5801 17.6853 80.3021 18.2828 79.9263 18.7939C79.5505 19.2974 79.0695 19.692 78.4833 19.9776C77.897 20.2557 77.1943 20.3947 76.3751 20.3947C75.7814 20.3947 75.2365 20.3083 74.7405 20.1354C74.2444 19.9625 73.816 19.6957 73.4553 19.335C73.102 18.9742 72.8277 18.5045 72.6323 17.9258C72.4369 17.3471 72.3392 16.6556 72.3392 15.8515V7.97127H75.0561V15.874C75.0561 16.3174 75.1087 16.6895 75.2139 16.9901C75.3192 17.2832 75.462 17.5199 75.6423 17.7003C75.8227 17.8807 76.0332 18.0085 76.2737 18.0836C76.5142 18.1588 76.7697 18.1964 77.0403 18.1964C77.8144 18.1964 78.4231 18.046 78.8666 17.7454C79.3175 17.4373 79.6369 17.0239 79.8248 16.5053C80.0202 15.9867 80.1179 15.4043 80.1179 14.7579ZM87.2829 10.2936V20.1692H84.566V7.97127H87.1589L87.2829 10.2936ZM91.0145 7.89236L90.9919 10.4176C90.8266 10.3876 90.6462 10.365 90.4508 10.35C90.2629 10.335 90.075 10.3274 89.8871 10.3274C89.4211 10.3274 89.0115 10.3951 88.6583 10.5304C88.3051 10.6581 88.0082 10.846 87.7677 11.094C87.5347 11.3345 87.3543 11.6277 87.2266 11.9734C87.0988 12.3191 87.0236 12.7062 87.0011 13.1345L86.3811 13.1796C86.3811 12.413 86.4562 11.7028 86.6065 11.0489C86.7568 10.3951 86.9823 9.82013 87.2829 9.3241C87.5911 8.82806 87.9744 8.441 88.4328 8.16292C88.8988 7.88484 89.4362 7.7458 90.045 7.7458C90.2103 7.7458 90.3869 7.76083 90.5748 7.7909C90.7702 7.82096 90.9168 7.85478 91.0145 7.89236ZM97.1761 20.3947C96.2742 20.3947 95.4588 20.2481 94.7298 19.955C94.0083 19.6544 93.392 19.2373 92.8809 18.7037C92.3774 18.1701 91.9903 17.5425 91.7197 16.821C91.4492 16.0995 91.3139 15.3216 91.3139 14.4874V14.0364C91.3139 13.0819 91.4529 12.2176 91.731 11.4435C92.0091 10.6694 92.3962 10.008 92.8922 9.45938C93.3882 8.90322 93.9744 8.47858 94.6509 8.18547C95.3273 7.89236 96.0601 7.7458 96.8492 7.7458C97.721 7.7458 98.4839 7.89236 99.1377 8.18547C99.7916 8.47858 100.333 8.89194 100.761 9.42556C101.197 9.95166 101.52 10.5792 101.731 11.3082C101.949 12.0373 102.058 12.8414 102.058 13.7208V14.8819H92.6329V12.9316H99.3745V12.7174C99.3594 12.2289 99.2617 11.7705 99.0814 11.3421C98.9085 10.9137 98.6417 10.5679 98.2809 10.3049C97.9202 10.0418 97.4392 9.91032 96.8379 9.91032C96.387 9.91032 95.9849 10.008 95.6317 10.2034C95.2859 10.3913 94.9966 10.6656 94.7636 11.0264C94.5306 11.3872 94.3502 11.8231 94.2225 12.3341C94.1022 12.8377 94.0421 13.4051 94.0421 14.0364V14.4874C94.0421 15.021 94.1135 15.517 94.2563 15.9755C94.4066 16.4264 94.6246 16.821 94.9102 17.1592C95.1957 17.4974 95.5415 17.7642 95.9473 17.9596C96.3532 18.1475 96.8154 18.2415 97.334 18.2415C97.9878 18.2415 98.5703 18.1099 99.0814 17.8469C99.5924 17.5838 100.036 17.2118 100.412 16.7308L101.843 18.1174C101.58 18.5007 101.238 18.869 100.817 19.2223C100.397 19.568 99.8818 19.8498 99.273 20.0678C98.6718 20.2857 97.9728 20.3947 97.1761 20.3947ZM110.327 16.8661C110.327 16.5955 110.26 16.3513 110.124 16.1333C109.989 15.9078 109.73 15.7049 109.347 15.5245C108.971 15.3442 108.415 15.1788 107.678 15.0285C107.032 14.8857 106.438 14.7166 105.897 14.5212C105.363 14.3183 104.905 14.074 104.522 13.7884C104.138 13.5028 103.841 13.1646 103.631 12.7738C103.42 12.383 103.315 11.932 103.315 11.421C103.315 10.9249 103.424 10.4552 103.642 10.0118C103.86 9.56836 104.172 9.17754 104.578 8.83933C104.984 8.50113 105.476 8.23432 106.055 8.03891C106.641 7.84351 107.295 7.7458 108.016 7.7458C109.038 7.7458 109.914 7.91866 110.643 8.26438C111.38 8.60259 111.943 9.0648 112.334 9.65103C112.725 10.2297 112.92 10.8836 112.92 11.6126H110.203C110.203 11.2894 110.121 10.9888 109.955 10.7107C109.798 10.4251 109.557 10.1959 109.234 10.0231C108.911 9.84268 108.505 9.75249 108.016 9.75249C107.55 9.75249 107.163 9.82765 106.855 9.97796C106.554 10.1208 106.329 10.3087 106.179 10.5416C106.036 10.7746 105.965 11.0302 105.965 11.3082C105.965 11.5112 106.002 11.6953 106.077 11.8606C106.16 12.0185 106.295 12.165 106.483 12.3003C106.671 12.4281 106.927 12.5483 107.25 12.6611C107.58 12.7738 107.994 12.8828 108.49 12.988C109.422 13.1834 110.222 13.4352 110.891 13.7433C111.567 14.0439 112.086 14.4348 112.447 14.9158C112.808 15.3893 112.988 15.9905 112.988 16.7195C112.988 17.2607 112.871 17.7567 112.638 18.2076C112.413 18.6511 112.082 19.0381 111.646 19.3688C111.21 19.692 110.688 19.9438 110.079 20.1241C109.478 20.3045 108.802 20.3947 108.05 20.3947C106.945 20.3947 106.01 20.1993 105.243 19.8085C104.476 19.4101 103.894 18.9028 103.496 18.2865C103.105 17.6627 102.909 17.0164 102.909 16.3475H105.536C105.566 16.8511 105.705 17.2531 105.953 17.5538C106.209 17.8469 106.524 18.0611 106.9 18.1964C107.284 18.3241 107.678 18.388 108.084 18.388C108.572 18.388 108.982 18.3241 109.313 18.1964C109.643 18.0611 109.895 17.8807 110.068 17.6552C110.241 17.4222 110.327 17.1592 110.327 16.8661Z" fill="#1D2026"/>
</svg>
