<svg width="164" height="70" viewBox="0 0 164 70" fill="none" xmlns="http://www.w3.org/2000/svg">
<path d="M22.6447 12.9514C22.5447 14.3805 22.1643 15.7759 21.5251 17.058C20.8859 18.3401 20.0004 19.4837 18.9192 20.4236C17.838 21.3634 16.5822 22.0812 15.2237 22.5357C13.8651 22.9903 12.4303 23.1728 11.0012 23.0729L11.7622 12.1904L22.6447 12.9514Z" fill="#FFA800"/>
<path d="M16.1186 12.4919C16.0787 13.0635 15.9265 13.6217 15.6708 14.1345C15.4151 14.6474 15.0609 15.1048 14.6284 15.4808C14.1959 15.8567 13.6937 16.1438 13.1502 16.3256C12.6068 16.5075 12.0329 16.5805 11.4612 16.5405L11.7656 12.1875L16.1186 12.4919Z" fill="#FFBB00"/>
<path d="M12.5234 1.3125L19.0529 1.76909C21.457 1.9372 23.2697 4.02239 23.1016 6.42649L22.645 12.956L11.7625 12.195L12.5234 1.3125Z" fill="#59F2F6"/>
<path d="M0.878757 11.4315C0.97869 10.0023 1.35913 8.60691 1.99835 7.32483C2.63758 6.04274 3.52307 4.89912 4.60426 3.95924C5.68546 3.01937 6.9412 2.30166 8.29977 1.84709C9.65834 1.39252 11.0931 1.20999 12.5223 1.30992L11.7613 12.1924L0.878757 11.4315Z" fill="#EE5A24"/>
<path d="M11.0018 23.0744C9.57266 22.9744 8.17722 22.594 6.89514 21.9548C5.61305 21.3155 4.46943 20.4301 3.52956 19.3489C2.58968 18.2677 1.87197 17.0119 1.4174 15.6534C0.962831 14.2948 0.780302 12.86 0.880235 11.4309L11.7628 12.1918L11.0018 23.0744Z" fill="#25C16F"/>
<path d="M7.41262 11.8831C7.45259 11.3115 7.60477 10.7533 7.86046 10.2405C8.11615 9.72762 8.47034 9.27017 8.90282 8.89422C9.3353 8.51827 9.8376 8.23119 10.381 8.04936C10.9245 7.86753 11.4984 7.79452 12.07 7.83449L11.7656 12.1875L7.41262 11.8831Z" fill="#D33C4E"/>
<path d="M17.7675 12.6021C17.8198 11.8168 17.7165 11.029 17.4635 10.2835C17.2106 9.53797 16.813 8.84941 16.2933 8.25712C15.7737 7.66483 15.1422 7.18041 14.435 6.83151C13.7277 6.48261 12.9586 6.27607 12.1714 6.22367L11.7734 12.2031L17.7675 12.6021Z" fill="#45A4EC"/>
<path d="M5.74848 11.7873C5.69719 12.5716 5.80164 13.3585 6.05586 14.1029C6.31008 14.8473 6.7091 15.5346 7.23013 16.1257C7.75116 16.7168 8.38399 17.2 9.09251 17.5478C9.80102 17.8955 10.5713 18.1011 11.3595 18.1526L11.75 12.1797L5.74848 11.7873Z" fill="#8BDF55"/>
<path d="M36.4753 13.149H32.2928V10.511H36.4753C37.1217 10.511 37.6478 10.4058 38.0536 10.1954C38.4595 9.97742 38.7563 9.67679 38.9442 9.29349C39.1321 8.91019 39.2261 8.47804 39.2261 7.99704C39.2261 7.50852 39.1321 7.05382 38.9442 6.63294C38.7563 6.21206 38.4595 5.87386 38.0536 5.61833C37.6478 5.36279 37.1217 5.23503 36.4753 5.23503H33.4653V19H30.0832V2.58575H36.4753C37.7605 2.58575 38.8616 2.81873 39.7785 3.28471C40.7029 3.74316 41.4094 4.37824 41.8979 5.18993C42.3864 6.00162 42.6307 6.92981 42.6307 7.97449C42.6307 9.0342 42.3864 9.95112 41.8979 10.7252C41.4094 11.4993 40.7029 12.0968 39.7785 12.5177C38.8616 12.9386 37.7605 13.149 36.4753 13.149ZM50.5172 16.2493V10.8154C50.5172 10.4246 50.4533 10.0902 50.3255 9.81208C50.1978 9.52648 49.9986 9.30477 49.728 9.14694C49.465 8.98911 49.123 8.91019 48.7021 8.91019C48.3414 8.91019 48.0295 8.97408 47.7664 9.10184C47.5034 9.2221 47.3005 9.39871 47.1577 9.6317C47.0149 9.85717 46.9435 10.124 46.9435 10.4321H43.6967C43.6967 9.91354 43.8169 9.42126 44.0574 8.95529C44.2979 8.48932 44.6474 8.07971 45.1059 7.72647C45.5643 7.36572 46.1092 7.08388 46.7405 6.88096C47.3794 6.67804 48.0934 6.57657 48.8825 6.57657C49.8295 6.57657 50.6712 6.7344 51.4078 7.05006C52.1443 7.36572 52.723 7.83921 53.1439 8.47053C53.5723 9.10184 53.7865 9.89099 53.7865 10.838V16.0576C53.7865 16.7265 53.8278 17.2752 53.9105 17.7035C53.9932 18.1244 54.1134 18.4927 54.2713 18.8084V19H50.9907C50.8328 18.6693 50.7126 18.2559 50.6299 17.7599C50.5548 17.2564 50.5172 16.7528 50.5172 16.2493ZM50.9456 11.5707L50.9681 13.4083H49.1531C48.7247 13.4083 48.3527 13.4572 48.037 13.5549C47.7213 13.6526 47.4621 13.7916 47.2591 13.972C47.0562 14.1449 46.9059 14.3478 46.8082 14.5808C46.718 14.8138 46.6729 15.0693 46.6729 15.3474C46.6729 15.6255 46.7368 15.8772 46.8646 16.1027C46.9923 16.3207 47.1765 16.4935 47.417 16.6213C47.6575 16.7415 47.9393 16.8017 48.2625 16.8017C48.751 16.8017 49.1756 16.704 49.5364 16.5086C49.8971 16.3131 50.1752 16.0726 50.3706 15.787C50.5735 15.5014 50.6788 15.2309 50.6863 14.9754L51.5431 16.3507C51.4228 16.6589 51.2575 16.9783 51.047 17.309C50.8441 17.6397 50.5848 17.9516 50.2692 18.2447C49.9535 18.5303 49.574 18.767 49.1305 18.9549C48.6871 19.1353 48.161 19.2255 47.5522 19.2255C46.7781 19.2255 46.0754 19.0714 45.4441 18.7633C44.8203 18.4476 44.3243 18.0154 43.956 17.4668C43.5952 16.9106 43.4149 16.2793 43.4149 15.5728C43.4149 14.934 43.5351 14.3666 43.7756 13.8705C44.0161 13.3745 44.3693 12.9574 44.8353 12.6192C45.3088 12.2735 45.8988 12.0142 46.6053 11.8413C47.3117 11.6609 48.1309 11.5707 49.0629 11.5707H50.9456ZM61.5715 6.80205V9.10184H54.4692V6.80205H61.5715ZM56.2279 3.79201H59.4747V15.3248C59.4747 15.6781 59.5198 15.9486 59.61 16.1365C59.7077 16.3244 59.8505 16.4559 60.0383 16.5311C60.2262 16.5987 60.463 16.6326 60.7486 16.6326C60.9515 16.6326 61.1319 16.625 61.2897 16.61C61.4551 16.5875 61.5941 16.5649 61.7068 16.5424L61.7181 18.9324C61.44 19.0225 61.1394 19.0939 60.8162 19.1466C60.493 19.1992 60.136 19.2255 59.7452 19.2255C59.0312 19.2255 58.4074 19.109 57.8738 18.876C57.3477 18.6355 56.9419 18.2522 56.6563 17.7261C56.3707 17.2 56.2279 16.5086 56.2279 15.6518V3.79201ZM66.1549 6.80205V19H62.8969V6.80205H66.1549ZM62.6939 3.62291C62.6939 3.14942 62.8593 2.75861 63.19 2.45046C63.5207 2.14232 63.9641 1.98825 64.5202 1.98825C65.0689 1.98825 65.5086 2.14232 65.8393 2.45046C66.1775 2.75861 66.3466 3.14942 66.3466 3.62291C66.3466 4.0964 66.1775 4.48721 65.8393 4.79536C65.5086 5.1035 65.0689 5.25757 64.5202 5.25757C63.9641 5.25757 63.5207 5.1035 63.19 4.79536C62.8593 4.48721 62.6939 4.0964 62.6939 3.62291ZM73.7596 19.2255C72.8126 19.2255 71.9633 19.0752 71.2118 18.7745C70.4602 18.4664 69.8214 18.0418 69.2953 17.5006C68.7767 16.9595 68.3783 16.3319 68.1003 15.6179C67.8222 14.8964 67.6831 14.1298 67.6831 13.3181V12.8672C67.6831 11.9428 67.8147 11.0973 68.0777 10.3307C68.3408 9.56406 68.7166 8.89892 69.2051 8.33524C69.7011 7.77157 70.3024 7.33942 71.0088 7.03879C71.7153 6.73065 72.512 6.57657 73.3988 6.57657C74.2631 6.57657 75.0297 6.71937 75.6986 7.00497C76.3675 7.29056 76.9274 7.69641 77.3784 8.22251C77.8368 8.74861 78.1826 9.37992 78.4155 10.1165C78.6485 10.8455 78.765 11.6572 78.765 12.5515V13.9044H69.0698V11.7398H75.5746V11.4918C75.5746 11.0409 75.4919 10.6388 75.3266 10.2856C75.1688 9.92481 74.9283 9.63922 74.6051 9.42878C74.2819 9.21834 73.8686 9.11312 73.365 9.11312C72.9366 9.11312 72.5683 9.20706 72.2602 9.39496C71.9521 9.58285 71.7003 9.8459 71.5049 10.1841C71.317 10.5223 71.1742 10.9206 71.0765 11.3791C70.9863 11.83 70.9412 12.3261 70.9412 12.8672V13.3181C70.9412 13.8067 71.0088 14.2576 71.1441 14.671C71.2869 15.0843 71.4861 15.4413 71.7416 15.742C72.0047 16.0426 72.3203 16.2756 72.6886 16.4409C73.0644 16.6063 73.489 16.6889 73.9625 16.6889C74.5487 16.6889 75.0936 16.5762 75.5972 16.3507C76.1082 16.1177 76.5479 15.7683 76.9162 15.3023L78.4945 17.0159C78.2389 17.3841 77.8894 17.7374 77.446 18.0756C77.0101 18.4138 76.484 18.6919 75.8677 18.9098C75.2514 19.1203 74.5487 19.2255 73.7596 19.2255ZM83.1004 9.40623V19H79.8536V6.80205H82.8974L83.1004 9.40623ZM82.6269 12.4726H81.7475C81.7475 11.5707 81.864 10.7591 82.097 10.0375C82.33 9.30853 82.6569 8.68848 83.0778 8.17742C83.4987 7.65883 83.9985 7.26426 84.5772 6.9937C85.1634 6.71561 85.8173 6.57657 86.5388 6.57657C87.11 6.57657 87.6323 6.65925 88.1058 6.82459C88.5793 6.98994 88.9851 7.25299 89.3234 7.61374C89.6691 7.97449 89.9321 8.45174 90.1125 9.04548C90.3004 9.63922 90.3943 10.3645 90.3943 11.2213V19H87.125V11.21C87.125 10.6689 87.0499 10.248 86.8995 9.94736C86.7492 9.64673 86.5275 9.43629 86.2344 9.31604C85.9488 9.18827 85.5956 9.12439 85.1747 9.12439C84.7388 9.12439 84.3592 9.21082 84.0361 9.38368C83.7204 9.55654 83.4574 9.79705 83.2469 10.1052C83.044 10.4058 82.8899 10.7591 82.7847 11.1649C82.6795 11.5707 82.6269 12.0067 82.6269 12.4726ZM98.1456 6.80205V9.10184H91.0432V6.80205H98.1456ZM92.8019 3.79201H96.0487V15.3248C96.0487 15.6781 96.0938 15.9486 96.184 16.1365C96.2817 16.3244 96.4245 16.4559 96.6124 16.5311C96.8003 16.5987 97.037 16.6326 97.3226 16.6326C97.5255 16.6326 97.7059 16.625 97.8637 16.61C98.0291 16.5875 98.1681 16.5649 98.2808 16.5424L98.2921 18.9324C98.014 19.0225 97.7134 19.0939 97.3902 19.1466C97.0671 19.1992 96.7101 19.2255 96.3193 19.2255C95.6053 19.2255 94.9815 19.109 94.4478 18.876C93.9218 18.6355 93.5159 18.2522 93.2303 17.7261C92.9447 17.2 92.8019 16.5086 92.8019 15.6518V3.79201ZM31.6277 25.5857H34.4912L38.7075 37.6371L42.9238 25.5857H45.7873L39.8574 42H37.5576L31.6277 25.5857ZM30.0832 25.5857H32.9354L33.454 37.3328V42H30.0832V25.5857ZM44.4795 25.5857H47.343V42H43.9609V37.3328L44.4795 25.5857ZM55.9961 39.2493V33.8154C55.9961 33.4246 55.9322 33.0902 55.8045 32.8121C55.6767 32.5265 55.4775 32.3048 55.207 32.1469C54.9439 31.9891 54.6019 31.9102 54.1811 31.9102C53.8203 31.9102 53.5084 31.9741 53.2454 32.1018C52.9823 32.2221 52.7794 32.3987 52.6366 32.6317C52.4938 32.8572 52.4224 33.124 52.4224 33.4321H49.1756C49.1756 32.9135 49.2959 32.4213 49.5364 31.9553C49.7769 31.4893 50.1264 31.0797 50.5848 30.7265C51.0433 30.3657 51.5882 30.0839 52.2195 29.881C52.8583 29.678 53.5723 29.5766 54.3614 29.5766C55.3084 29.5766 56.1502 29.7344 56.8867 30.0501C57.6233 30.3657 58.202 30.8392 58.6228 31.4705C59.0512 32.1018 59.2654 32.891 59.2654 33.838V39.0576C59.2654 39.7265 59.3068 40.2752 59.3894 40.7035C59.4721 41.1244 59.5924 41.4927 59.7502 41.8084V42H56.4696C56.3118 41.6693 56.1915 41.2559 56.1088 40.7599C56.0337 40.2564 55.9961 39.7528 55.9961 39.2493ZM56.4245 34.5707L56.447 36.4083H54.632C54.2036 36.4083 53.8316 36.4572 53.5159 36.5549C53.2003 36.6526 52.941 36.7916 52.7381 36.972C52.5351 37.1449 52.3848 37.3478 52.2871 37.5808C52.1969 37.8138 52.1518 38.0693 52.1518 38.3474C52.1518 38.6255 52.2157 38.8772 52.3435 39.1027C52.4713 39.3207 52.6554 39.4935 52.8959 39.6213C53.1364 39.7415 53.4182 39.8017 53.7414 39.8017C54.2299 39.8017 54.6546 39.704 55.0153 39.5086C55.3761 39.3131 55.6541 39.0726 55.8496 38.787C56.0525 38.5014 56.1577 38.2309 56.1652 37.9754L57.022 39.3507C56.9017 39.6589 56.7364 39.9783 56.526 40.309C56.323 40.6397 56.0637 40.9516 55.7481 41.2447C55.4324 41.5303 55.0529 41.767 54.6095 41.9549C54.166 42.1353 53.6399 42.2255 53.0312 42.2255C52.2571 42.2255 51.5543 42.0714 50.923 41.7633C50.2992 41.4476 49.8032 41.0154 49.4349 40.4668C49.0742 39.9106 48.8938 39.2793 48.8938 38.5728C48.8938 37.934 49.014 37.3666 49.2545 36.8705C49.495 36.3745 49.8483 35.9574 50.3143 35.6192C50.7877 35.2735 51.3777 35.0142 52.0842 34.8413C52.7907 34.6609 53.6099 34.5707 54.5418 34.5707H56.4245ZM64.2546 32.4062V42H61.0079V29.802H64.0517L64.2546 32.4062ZM63.7812 35.4726H62.9018C62.9018 34.5707 63.0183 33.7591 63.2513 33.0375C63.4843 32.3085 63.8112 31.6885 64.2321 31.1774C64.653 30.6588 65.1528 30.2643 65.7315 29.9937C66.3177 29.7156 66.9716 29.5766 67.6931 29.5766C68.2643 29.5766 68.7866 29.6592 69.2601 29.8246C69.7336 29.9899 70.1394 30.253 70.4776 30.6137C70.8234 30.9745 71.0864 31.4517 71.2668 32.0455C71.4547 32.6392 71.5486 33.3645 71.5486 34.2213V42H68.2793V34.21C68.2793 33.6689 68.2041 33.248 68.0538 32.9474C67.9035 32.6467 67.6818 32.4363 67.3887 32.316C67.1031 32.1883 66.7498 32.1244 66.329 32.1244C65.8931 32.1244 65.5135 32.2108 65.1903 32.3837C64.8747 32.5565 64.6116 32.797 64.4012 33.1052C64.1983 33.4058 64.0442 33.7591 63.939 34.1649C63.8338 34.5707 63.7812 35.0067 63.7812 35.4726ZM79.9086 39.2493V33.8154C79.9086 33.4246 79.8447 33.0902 79.717 32.8121C79.5892 32.5265 79.39 32.3048 79.1195 32.1469C78.8564 31.9891 78.5145 31.9102 78.0936 31.9102C77.7328 31.9102 77.4209 31.9741 77.1579 32.1018C76.8948 32.2221 76.6919 32.3987 76.5491 32.6317C76.4063 32.8572 76.3349 33.124 76.3349 33.4321H73.0881C73.0881 32.9135 73.2084 32.4213 73.4489 31.9553C73.6894 31.4893 74.0389 31.0797 74.4973 30.7265C74.9558 30.3657 75.5007 30.0839 76.132 29.881C76.7708 29.678 77.4848 29.5766 78.2739 29.5766C79.2209 29.5766 80.0627 29.7344 80.7992 30.0501C81.5358 30.3657 82.1145 30.8392 82.5353 31.4705C82.9637 32.1018 83.1779 32.891 83.1779 33.838V39.0576C83.1779 39.7265 83.2193 40.2752 83.3019 40.7035C83.3846 41.1244 83.5049 41.4927 83.6627 41.8084V42H80.3821C80.2243 41.6693 80.104 41.2559 80.0213 40.7599C79.9462 40.2564 79.9086 39.7528 79.9086 39.2493ZM80.337 34.5707L80.3596 36.4083H78.5445C78.1161 36.4083 77.7441 36.4572 77.4284 36.5549C77.1128 36.6526 76.8535 36.7916 76.6506 36.972C76.4476 37.1449 76.2973 37.3478 76.1996 37.5808C76.1094 37.8138 76.0643 38.0693 76.0643 38.3474C76.0643 38.6255 76.1282 38.8772 76.256 39.1027C76.3838 39.3207 76.5679 39.4935 76.8084 39.6213C77.0489 39.7415 77.3307 39.8017 77.6539 39.8017C78.1424 39.8017 78.5671 39.704 78.9278 39.5086C79.2886 39.3131 79.5666 39.0726 79.7621 38.787C79.965 38.5014 80.0702 38.2309 80.0777 37.9754L80.9345 39.3507C80.8143 39.6589 80.6489 39.9783 80.4385 40.309C80.2355 40.6397 79.9763 40.9516 79.6606 41.2447C79.3449 41.5303 78.9654 41.767 78.522 41.9549C78.0785 42.1353 77.5524 42.2255 76.9437 42.2255C76.1696 42.2255 75.4668 42.0714 74.8355 41.7633C74.2117 41.4476 73.7157 41.0154 73.3474 40.4668C72.9867 39.9106 72.8063 39.2793 72.8063 38.5728C72.8063 37.934 72.9265 37.3666 73.167 36.8705C73.4075 36.3745 73.7608 35.9574 74.2268 35.6192C74.7002 35.2735 75.2902 35.0142 75.9967 34.8413C76.7032 34.6609 77.5224 34.5707 78.4543 34.5707H80.337ZM92.7104 29.802H95.6528V41.5942C95.6528 42.7065 95.4047 43.6497 94.9087 44.4238C94.4202 45.2054 93.7363 45.7954 92.8569 46.1938C91.9776 46.5996 90.9555 46.8025 89.7905 46.8025C89.2795 46.8025 88.7383 46.7349 88.1671 46.5996C87.6035 46.4643 87.0623 46.2539 86.5438 45.9683C86.0327 45.6827 85.6043 45.3219 85.2586 44.886L86.6903 42.9695C87.0661 43.4054 87.502 43.7436 87.998 43.9841C88.4941 44.2322 89.0427 44.3562 89.644 44.3562C90.2302 44.3562 90.7262 44.2472 91.1321 44.0292C91.5379 43.8188 91.8498 43.5069 92.0678 43.0935C92.2857 42.6877 92.3947 42.1954 92.3947 41.6167V32.6204L92.7104 29.802ZM84.5032 36.0476V35.8108C84.5032 34.8789 84.616 34.0334 84.8415 33.2743C85.0744 32.5077 85.4014 31.8501 85.8223 31.3014C86.2506 30.7528 86.7692 30.3281 87.378 30.0275C87.9868 29.7269 88.6745 29.5766 89.4411 29.5766C90.2527 29.5766 90.9329 29.7269 91.4816 30.0275C92.0302 30.3281 92.4811 30.7565 92.8344 31.3127C93.1876 31.8613 93.4619 32.5114 93.6574 33.263C93.8603 34.0071 94.0181 34.8225 94.1308 35.7094V36.228C94.0181 37.0772 93.849 37.8664 93.6235 38.5954C93.3981 39.3244 93.1012 39.9632 92.7329 40.5119C92.3647 41.053 91.9062 41.4739 91.3576 41.7745C90.8164 42.0752 90.1701 42.2255 89.4185 42.2255C88.6669 42.2255 87.9868 42.0714 87.378 41.7633C86.7767 41.4551 86.2619 41.023 85.8335 40.4668C85.4051 39.9106 85.0744 39.2568 84.8415 38.5052C84.616 37.7536 84.5032 36.9344 84.5032 36.0476ZM87.75 35.8108V36.0476C87.75 36.5511 87.7989 37.0209 87.8966 37.4568C87.9943 37.8927 88.1446 38.2797 88.3475 38.6179C88.558 38.9486 88.8173 39.2079 89.1254 39.3958C89.4411 39.5762 89.8131 39.6664 90.2415 39.6664C90.8352 39.6664 91.32 39.5424 91.6958 39.2944C92.0715 39.0388 92.3534 38.6893 92.5413 38.2459C92.7292 37.8025 92.8381 37.2914 92.8682 36.7127V35.2359C92.8532 34.7624 92.7893 34.3378 92.6766 33.962C92.5638 33.5787 92.406 33.2517 92.2031 32.9812C92.0001 32.7106 91.7371 32.5002 91.4139 32.3499C91.0907 32.1995 90.7074 32.1244 90.264 32.1244C89.8356 32.1244 89.4636 32.2221 89.1479 32.4175C88.8398 32.6054 88.5805 32.8647 88.3701 33.1954C88.1671 33.5261 88.0131 33.9169 87.9079 34.3678C87.8026 34.8112 87.75 35.2923 87.75 35.8108ZM103.1 42.2255C102.153 42.2255 101.303 42.0752 100.552 41.7745C99.8002 41.4664 99.1614 41.0418 98.6353 40.5006C98.1167 39.9595 97.7184 39.3319 97.4403 38.6179C97.1622 37.8964 97.0232 37.1298 97.0232 36.3181V35.8672C97.0232 34.9428 97.1547 34.0973 97.4177 33.3307C97.6808 32.5641 98.0566 31.8989 98.5451 31.3352C99.0411 30.7716 99.6424 30.3394 100.349 30.0388C101.055 29.7306 101.852 29.5766 102.739 29.5766C103.603 29.5766 104.37 29.7194 105.039 30.005C105.708 30.2906 106.267 30.6964 106.718 31.2225C107.177 31.7486 107.523 32.3799 107.756 33.1165C107.989 33.8455 108.105 34.6572 108.105 35.5515V36.9044H98.4098V34.7398H104.915V34.4918C104.915 34.0409 104.832 33.6388 104.667 33.2856C104.509 32.9248 104.268 32.6392 103.945 32.4288C103.622 32.2183 103.209 32.1131 102.705 32.1131C102.277 32.1131 101.908 32.2071 101.6 32.395C101.292 32.5828 101.04 32.8459 100.845 33.1841C100.657 33.5223 100.514 33.9206 100.417 34.3791C100.326 34.83 100.281 35.3261 100.281 35.8672V36.3181C100.281 36.8067 100.349 37.2576 100.484 37.671C100.627 38.0843 100.826 38.4413 101.082 38.742C101.345 39.0426 101.66 39.2756 102.029 39.4409C102.404 39.6063 102.829 39.6889 103.303 39.6889C103.889 39.6889 104.434 39.5762 104.937 39.3507C105.448 39.1177 105.888 38.7683 106.256 38.3023L107.834 40.0159C107.579 40.3841 107.229 40.7374 106.786 41.0756C106.35 41.4138 105.824 41.6919 105.208 41.9098C104.591 42.1203 103.889 42.2255 103.1 42.2255ZM112.508 32.3273V42H109.25V29.802H112.305L112.508 32.3273ZM112.057 35.4726H111.155C111.155 34.6234 111.257 33.8417 111.46 33.1277C111.67 32.4062 111.974 31.7824 112.373 31.2563C112.779 30.7227 113.278 30.3094 113.872 30.0162C114.466 29.7231 115.154 29.5766 115.935 29.5766C116.476 29.5766 116.972 29.6592 117.423 29.8246C117.874 29.9824 118.261 30.2342 118.584 30.5799C118.915 30.9181 119.171 31.3615 119.351 31.9102C119.531 32.4513 119.622 33.1014 119.622 33.8605V42H116.375V34.2213C116.375 33.6651 116.3 33.2367 116.149 32.9361C115.999 32.6355 115.785 32.425 115.507 32.3048C115.236 32.1845 114.909 32.1244 114.526 32.1244C114.105 32.1244 113.737 32.2108 113.421 32.3837C113.113 32.5565 112.858 32.797 112.655 33.1052C112.452 33.4058 112.301 33.7591 112.204 34.1649C112.106 34.5707 112.057 35.0067 112.057 35.4726ZM119.317 35.1006L118.156 35.2472C118.156 34.4505 118.254 33.7102 118.449 33.0263C118.652 32.3423 118.949 31.7411 119.34 31.2225C119.738 30.7039 120.23 30.3018 120.817 30.0162C121.403 29.7231 122.079 29.5766 122.846 29.5766C123.432 29.5766 123.966 29.663 124.447 29.8359C124.928 30.0012 125.337 30.268 125.676 30.6363C126.021 30.997 126.284 31.4705 126.465 32.0568C126.653 32.643 126.746 33.3607 126.746 34.21V42H123.488V34.21C123.488 33.6463 123.413 33.2179 123.263 32.9248C123.12 32.6242 122.91 32.4175 122.632 32.3048C122.361 32.1845 122.038 32.1244 121.662 32.1244C121.271 32.1244 120.929 32.2033 120.636 32.3611C120.343 32.5114 120.099 32.7219 119.903 32.9925C119.708 33.263 119.562 33.5787 119.464 33.9394C119.366 34.2927 119.317 34.6797 119.317 35.1006ZM134.182 42.2255C133.235 42.2255 132.386 42.0752 131.634 41.7745C130.883 41.4664 130.244 41.0418 129.718 40.5006C129.199 39.9595 128.801 39.3319 128.523 38.6179C128.245 37.8964 128.106 37.1298 128.106 36.3181V35.8672C128.106 34.9428 128.237 34.0973 128.5 33.3307C128.763 32.5641 129.139 31.8989 129.628 31.3352C130.124 30.7716 130.725 30.3394 131.431 30.0388C132.138 29.7306 132.934 29.5766 133.821 29.5766C134.686 29.5766 135.452 29.7194 136.121 30.005C136.79 30.2906 137.35 30.6964 137.801 31.2225C138.259 31.7486 138.605 32.3799 138.838 33.1165C139.071 33.8455 139.188 34.6572 139.188 35.5515V36.9044H129.492V34.7398H135.997V34.4918C135.997 34.0409 135.914 33.6388 135.749 33.2856C135.591 32.9248 135.351 32.6392 135.028 32.4288C134.704 32.2183 134.291 32.1131 133.787 32.1131C133.359 32.1131 132.991 32.2071 132.683 32.395C132.375 32.5828 132.123 32.8459 131.927 33.1841C131.739 33.5223 131.597 33.9206 131.499 34.3791C131.409 34.83 131.364 35.3261 131.364 35.8672V36.3181C131.364 36.8067 131.431 37.2576 131.567 37.671C131.709 38.0843 131.909 38.4413 132.164 38.742C132.427 39.0426 132.743 39.2756 133.111 39.4409C133.487 39.6063 133.912 39.6889 134.385 39.6889C134.971 39.6889 135.516 39.5762 136.02 39.3507C136.531 39.1177 136.97 38.7683 137.339 38.3023L138.917 40.0159C138.661 40.3841 138.312 40.7374 137.869 41.0756C137.433 41.4138 136.907 41.6919 136.29 41.9098C135.674 42.1203 134.971 42.2255 134.182 42.2255ZM143.523 32.4062V42H140.276V29.802H143.32L143.523 32.4062ZM143.049 35.4726H142.17C142.17 34.5707 142.287 33.7591 142.52 33.0375C142.753 32.3085 143.079 31.6885 143.5 31.1774C143.921 30.6588 144.421 30.2643 145 29.9937C145.586 29.7156 146.24 29.5766 146.961 29.5766C147.532 29.5766 148.055 29.6592 148.528 29.8246C149.002 29.9899 149.408 30.253 149.746 30.6137C150.092 30.9745 150.355 31.4517 150.535 32.0455C150.723 32.6392 150.817 33.3645 150.817 34.2213V42H147.548V34.21C147.548 33.6689 147.472 33.248 147.322 32.9474C147.172 32.6467 146.95 32.4363 146.657 32.316C146.371 32.1883 146.018 32.1244 145.597 32.1244C145.161 32.1244 144.782 32.2108 144.459 32.3837C144.143 32.5565 143.88 32.797 143.669 33.1052C143.466 33.4058 143.312 33.7591 143.207 34.1649C143.102 34.5707 143.049 35.0067 143.049 35.4726ZM158.568 29.802V32.1018H151.466V29.802H158.568ZM153.224 26.792H156.471V38.3248C156.471 38.6781 156.516 38.9486 156.606 39.1365C156.704 39.3244 156.847 39.4559 157.035 39.5311C157.223 39.5987 157.459 39.6326 157.745 39.6326C157.948 39.6326 158.128 39.625 158.286 39.61C158.452 39.5875 158.591 39.5649 158.703 39.5424L158.715 41.9324C158.437 42.0225 158.136 42.0939 157.813 42.1466C157.49 42.1992 157.133 42.2255 156.742 42.2255C156.028 42.2255 155.404 42.109 154.87 41.876C154.344 41.6355 153.938 41.2522 153.653 40.7261C153.367 40.2 153.224 39.5086 153.224 38.6518V26.792ZM38.6286 60.7048C38.6286 60.4117 38.5835 60.1486 38.4933 59.9156C38.4106 59.6751 38.2528 59.4572 38.0198 59.2618C37.7868 59.0589 37.4599 58.8597 37.039 58.6643C36.6181 58.4689 36.0732 58.2659 35.4043 58.0555C34.6603 57.815 33.9538 57.5444 33.2849 57.2438C32.6235 56.9432 32.0373 56.5937 31.5262 56.1954C31.0227 55.7895 30.6244 55.3198 30.3313 54.7862C30.0457 54.2526 29.9029 53.6325 29.9029 52.9261C29.9029 52.2421 30.0532 51.6221 30.3538 51.0659C30.6544 50.5022 31.0753 50.0212 31.6164 49.6229C32.1576 49.2171 32.7964 48.9052 33.5329 48.6872C34.277 48.4693 35.0924 48.3603 35.9793 48.3603C37.1893 48.3603 38.2453 48.5782 39.1471 49.0141C40.049 49.4501 40.748 50.0475 41.244 50.8066C41.7476 51.5657 41.9994 52.4338 41.9994 53.4108H38.6398C38.6398 52.9298 38.5384 52.5089 38.3355 52.1482C38.14 51.7799 37.8394 51.4906 37.4336 51.2801C37.0352 51.0697 36.5317 50.9645 35.9229 50.9645C35.3367 50.9645 34.8482 51.0546 34.4574 51.235C34.0665 51.4079 33.7734 51.6446 33.578 51.9453C33.3826 52.2384 33.2849 52.5691 33.2849 52.9373C33.2849 53.2154 33.3526 53.4672 33.4878 53.6927C33.6306 53.9181 33.8411 54.1286 34.1192 54.324C34.3972 54.5194 34.7392 54.7035 35.145 54.8764C35.5509 55.0492 36.0206 55.2183 36.5542 55.3837C37.4486 55.6542 38.234 55.9586 38.9104 56.2968C39.5943 56.635 40.1655 57.0146 40.624 57.4355C41.0824 57.8563 41.4282 58.3336 41.6611 58.8672C41.8941 59.4008 42.0106 60.0058 42.0106 60.6822C42.0106 61.3962 41.8716 62.0351 41.5935 62.5987C41.3154 63.1624 40.9133 63.6397 40.3872 64.0305C39.8611 64.4213 39.2336 64.7182 38.5046 64.9211C37.7755 65.124 36.9601 65.2255 36.0582 65.2255C35.2465 65.2255 34.4461 65.1203 33.6569 64.9098C32.8678 64.6919 32.15 64.3649 31.5037 63.929C30.8649 63.4931 30.3538 62.9369 29.9705 62.2605C29.5872 61.5841 29.3955 60.7837 29.3955 59.8593H32.7889C32.7889 60.3703 32.8678 60.8025 33.0256 61.1557C33.1835 61.509 33.4052 61.7946 33.6908 62.0125C33.9839 62.2305 34.3296 62.3883 34.7279 62.486C35.1338 62.5837 35.5772 62.6326 36.0582 62.6326C36.6444 62.6326 37.1254 62.5499 37.5012 62.3845C37.8845 62.2192 38.1664 61.99 38.3467 61.6969C38.5346 61.4037 38.6286 61.0731 38.6286 60.7048ZM47.0337 63.6246L50.2692 52.802H53.7527L48.8487 66.8376C48.7435 67.1457 48.6007 67.4764 48.4203 67.8297C48.2474 68.1829 48.0107 68.5173 47.7101 68.833C47.417 69.1562 47.0449 69.4192 46.594 69.6221C46.1506 69.8251 45.6057 69.9265 44.9593 69.9265C44.6512 69.9265 44.3994 69.9077 44.204 69.8702C44.0086 69.8326 43.7756 69.78 43.505 69.7123V67.3336C43.5877 67.3336 43.6741 67.3336 43.7643 67.3336C43.8545 67.3411 43.941 67.3449 44.0236 67.3449C44.452 67.3449 44.8015 67.296 45.0721 67.1983C45.3426 67.1006 45.5606 66.9503 45.7259 66.7474C45.8913 66.552 46.0228 66.2965 46.1205 65.9808L47.0337 63.6246ZM45.6808 52.802L48.3301 61.6405L48.7923 65.0789L46.5827 65.3157L42.1973 52.802H45.6808ZM60.9515 61.6292C60.9515 61.3962 60.8839 61.1858 60.7486 60.9979C60.6133 60.81 60.3615 60.6371 59.9933 60.4793C59.6325 60.314 59.1102 60.1637 58.4262 60.0284C57.8099 59.8931 57.235 59.724 56.7014 59.5211C56.1753 59.3106 55.7168 59.0589 55.326 58.7657C54.9427 58.4726 54.6421 58.1269 54.4241 57.7286C54.2062 57.3227 54.0972 56.8605 54.0972 56.3419C54.0972 55.8309 54.2062 55.3499 54.4241 54.8989C54.6496 54.448 54.969 54.0496 55.3824 53.7039C55.8033 53.3507 56.3143 53.0764 56.9156 52.881C57.5243 52.678 58.2083 52.5766 58.9674 52.5766C60.0271 52.5766 60.9365 52.7457 61.6956 53.0839C62.4622 53.4221 63.0484 53.8881 63.4542 54.4818C63.8676 55.068 64.0743 55.7369 64.0743 56.4885H60.8275C60.8275 56.1728 60.7599 55.891 60.6246 55.643C60.4968 55.3874 60.2939 55.1883 60.0158 55.0455C59.7452 54.8952 59.392 54.82 58.9561 54.82C58.5953 54.82 58.2834 54.8839 58.0204 55.0117C57.7573 55.1319 57.5544 55.2973 57.4116 55.5077C57.2763 55.7106 57.2087 55.9361 57.2087 56.1841C57.2087 56.372 57.2463 56.5411 57.3214 56.6914C57.4041 56.8342 57.5356 56.9657 57.716 57.086C57.8964 57.2062 58.1294 57.319 58.415 57.4242C58.7081 57.5219 59.0688 57.6121 59.4972 57.6948C60.3766 57.8751 61.1619 58.1119 61.8534 58.405C62.5448 58.6906 63.0935 59.0814 63.4993 59.5774C63.9052 60.066 64.1081 60.7085 64.1081 61.5052C64.1081 62.0463 63.9878 62.5424 63.7473 62.9933C63.5068 63.4443 63.1611 63.8388 62.7102 64.177C62.2592 64.5077 61.7181 64.767 61.0868 64.9549C60.463 65.1353 59.7603 65.2255 58.9786 65.2255C57.8438 65.2255 56.8818 65.0225 56.0926 64.6167C55.311 64.2109 54.7172 63.696 54.3114 63.0722C53.9131 62.4409 53.7139 61.7946 53.7139 61.1332H56.7916C56.8066 61.5766 56.9193 61.9336 57.1298 62.2042C57.3477 62.4747 57.6221 62.6701 57.9527 62.7904C58.2909 62.9106 58.6555 62.9708 59.0463 62.9708C59.4672 62.9708 59.8166 62.9144 60.0947 62.8017C60.3728 62.6814 60.5832 62.5236 60.726 62.3282C60.8763 62.1253 60.9515 61.8923 60.9515 61.6292ZM71.4986 52.802V55.1018H64.3962V52.802H71.4986ZM66.1549 49.792H69.4017V61.3248C69.4017 61.6781 69.4468 61.9486 69.537 62.1365C69.6347 62.3244 69.7775 62.4559 69.9654 62.5311C70.1533 62.5987 70.39 62.6326 70.6756 62.6326C70.8785 62.6326 71.0589 62.625 71.2167 62.61C71.3821 62.5875 71.5211 62.5649 71.6338 62.5424L71.6451 64.9324C71.367 65.0225 71.0664 65.0939 70.7432 65.1466C70.4201 65.1992 70.0631 65.2255 69.6722 65.2255C68.9583 65.2255 68.3345 65.109 67.8008 64.876C67.2747 64.6355 66.8689 64.2522 66.5833 63.7261C66.2977 63.2 66.1549 62.5086 66.1549 61.6518V49.792ZM78.269 65.2255C77.322 65.2255 76.4727 65.0752 75.7212 64.7745C74.9696 64.4664 74.3308 64.0418 73.8047 63.5006C73.2861 62.9595 72.8878 62.3319 72.6097 61.6179C72.3316 60.8964 72.1926 60.1298 72.1926 59.3181V58.8672C72.1926 57.9428 72.3241 57.0973 72.5871 56.3307C72.8502 55.5641 73.226 54.8989 73.7145 54.3352C74.2105 53.7716 74.8118 53.3394 75.5182 53.0388C76.2247 52.7306 77.0214 52.5766 77.9082 52.5766C78.7725 52.5766 79.5391 52.7194 80.208 53.005C80.8769 53.2906 81.4368 53.6964 81.8878 54.2225C82.3462 54.7486 82.692 55.3799 82.925 56.1165C83.1579 56.8455 83.2744 57.6572 83.2744 58.5515V59.9044H73.5792V57.7398H80.084V57.4918C80.084 57.0409 80.0014 56.6388 79.836 56.2856C79.6782 55.9248 79.4377 55.6392 79.1145 55.4288C78.7913 55.2183 78.378 55.1131 77.8744 55.1131C77.446 55.1131 77.0778 55.2071 76.7696 55.395C76.4615 55.5828 76.2097 55.8459 76.0143 56.1841C75.8264 56.5223 75.6836 56.9206 75.5859 57.3791C75.4957 57.83 75.4506 58.3261 75.4506 58.8672V59.3181C75.4506 59.8067 75.5182 60.2576 75.6535 60.671C75.7963 61.0843 75.9955 61.4413 76.251 61.742C76.5141 62.0426 76.8297 62.2756 77.198 62.4409C77.5738 62.6063 77.9984 62.6889 78.4719 62.6889C79.0581 62.6889 79.603 62.5762 80.1066 62.3507C80.6176 62.1177 81.0573 61.7683 81.4256 61.3023L83.0039 63.0159C82.7483 63.3841 82.3989 63.7374 81.9554 64.0756C81.5195 64.4138 80.9934 64.6919 80.3771 64.9098C79.7608 65.1203 79.0581 65.2255 78.269 65.2255ZM87.6774 55.3273V65H84.4194V52.802H87.4745L87.6774 55.3273ZM87.2265 58.4726H86.3246C86.3246 57.6234 86.4261 56.8417 86.629 56.1277C86.8394 55.4062 87.1438 54.7824 87.5421 54.2563C87.948 53.7227 88.4478 53.3094 89.0415 53.0162C89.6353 52.7231 90.3229 52.5766 91.1046 52.5766C91.6457 52.5766 92.1417 52.6592 92.5927 52.8246C93.0436 52.9824 93.4307 53.2342 93.7539 53.5799C94.0845 53.9181 94.3401 54.3615 94.5205 54.9102C94.7008 55.4513 94.791 56.1014 94.791 56.8605V65H91.5442V57.2213C91.5442 56.6651 91.4691 56.2367 91.3188 55.9361C91.1685 55.6355 90.9543 55.425 90.6762 55.3048C90.4056 55.1845 90.0787 55.1244 89.6954 55.1244C89.2745 55.1244 88.9062 55.2108 88.5906 55.3837C88.2824 55.5565 88.0269 55.797 87.824 56.1052C87.6211 56.4058 87.4707 56.7591 87.373 57.1649C87.2753 57.5707 87.2265 58.0067 87.2265 58.4726ZM94.4866 58.1006L93.3255 58.2472C93.3255 57.4505 93.4232 56.7102 93.6186 56.0263C93.8215 55.3423 94.1184 54.7411 94.5092 54.2225C94.9075 53.7039 95.3998 53.3018 95.986 53.0162C96.5722 52.7231 97.2486 52.5766 98.0152 52.5766C98.6015 52.5766 99.1351 52.663 99.6161 52.8359C100.097 53.0012 100.507 53.268 100.845 53.6363C101.191 53.997 101.454 54.4705 101.634 55.0568C101.822 55.643 101.916 56.3607 101.916 57.21V65H98.6578V57.21C98.6578 56.6463 98.5827 56.2179 98.4324 55.9248C98.2896 55.6242 98.0791 55.4175 97.801 55.3048C97.5305 55.1845 97.2073 55.1244 96.8315 55.1244C96.4407 55.1244 96.0987 55.2033 95.8056 55.3611C95.5125 55.5114 95.2683 55.7219 95.0729 55.9925C94.8774 56.263 94.7309 56.5787 94.6332 56.9394C94.5355 57.2927 94.4866 57.6797 94.4866 58.1006Z" fill="#1D2026"/>
</svg>
