<svg width="166" height="69" viewBox="0 0 166 69" fill="none" xmlns="http://www.w3.org/2000/svg">
<path d="M23.3361 12.9514C23.2362 14.3805 22.8557 15.7759 22.2165 17.058C21.5773 18.3401 20.6918 19.4837 19.6106 20.4236C18.5294 21.3634 17.2736 22.0812 15.9151 22.5357C14.5565 22.9903 13.1217 23.1728 11.6926 23.0729L12.4536 12.1904L23.3361 12.9514Z" fill="#FFA800"/>
<path d="M16.81 12.4919C16.7701 13.0635 16.6179 13.6217 16.3622 14.1345C16.1065 14.6474 15.7523 15.1048 15.3198 15.4808C14.8874 15.8567 14.3851 16.1438 13.8416 16.3256C13.2982 16.5075 12.7243 16.5805 12.1526 16.5405L12.457 12.1875L16.81 12.4919Z" fill="#FFBB00"/>
<path d="M13.2148 1.3125L19.7444 1.76909C22.1485 1.9372 23.9611 4.02239 23.793 6.42649L23.3364 12.956L12.4539 12.195L13.2148 1.3125Z" fill="#59F2F6"/>
<path d="M1.57016 11.4315C1.6701 10.0023 2.05053 8.60691 2.68976 7.32483C3.32898 6.04274 4.21447 4.89912 5.29567 3.95924C6.37687 3.01937 7.6326 2.30166 8.99117 1.84709C10.3497 1.39252 11.7845 1.20999 13.2137 1.30992L12.4527 12.1924L1.57016 11.4315Z" fill="#EE5A24"/>
<path d="M11.6932 23.0744C10.2641 22.9744 8.86863 22.594 7.58655 21.9548C6.30446 21.3155 5.16083 20.4301 4.22096 19.3489C3.28109 18.2677 2.56338 17.0119 2.10881 15.6534C1.65424 14.2948 1.47171 12.86 1.57164 11.4309L12.4542 12.1918L11.6932 23.0744Z" fill="#25C16F"/>
<path d="M8.10402 11.8831C8.144 11.3115 8.29617 10.7533 8.55186 10.2405C8.80755 9.72762 9.16175 9.27017 9.59423 8.89422C10.0267 8.51827 10.529 8.23119 11.0724 8.04936C11.6159 7.86753 12.1898 7.79452 12.7614 7.83449L12.457 12.1875L8.10402 11.8831Z" fill="#D33C4E"/>
<path d="M18.4589 12.6021C18.5112 11.8168 18.4079 11.029 18.155 10.2835C17.902 9.53797 17.5044 8.84941 16.9847 8.25712C16.4651 7.66483 15.8336 7.18041 15.1264 6.83151C14.4191 6.48261 13.65 6.27607 12.8628 6.22367L12.4648 12.2031L18.4589 12.6021Z" fill="#45A4EC"/>
<path d="M6.43988 11.7873C6.3886 12.5716 6.49305 13.3585 6.74727 14.1029C7.00149 14.8473 7.40051 15.5346 7.92154 16.1257C8.44256 16.7168 9.0754 17.2 9.78391 17.5478C10.4924 17.8955 11.2627 18.1011 12.0509 18.1526L12.4414 12.1797L6.43988 11.7873Z" fill="#8BDF55"/>
<path d="M37.1667 13.149H32.9843V10.511H37.1667C37.8131 10.511 38.3392 10.4058 38.745 10.1954C39.1509 9.97742 39.4477 9.67679 39.6356 9.29349C39.8235 8.91019 39.9175 8.47804 39.9175 7.99704C39.9175 7.50852 39.8235 7.05382 39.6356 6.63294C39.4477 6.21206 39.1509 5.87386 38.745 5.61833C38.3392 5.36279 37.8131 5.23503 37.1667 5.23503H34.1567V19H30.7746V2.58575H37.1667C38.4519 2.58575 39.553 2.81873 40.4699 3.28471C41.3943 3.74316 42.1008 4.37824 42.5893 5.18993C43.0778 6.00162 43.3221 6.92981 43.3221 7.97449C43.3221 9.0342 43.0778 9.95112 42.5893 10.7252C42.1008 11.4993 41.3943 12.0968 40.4699 12.5177C39.553 12.9386 38.4519 13.149 37.1667 13.149ZM48.0069 9.4626V19H44.7601V6.80205H47.8153L48.0069 9.4626ZM51.6821 6.72313L51.6257 9.73316C51.4679 9.71061 51.2762 9.69183 51.0508 9.67679C50.8328 9.65425 50.6336 9.64297 50.4533 9.64297C49.9948 9.64297 49.5965 9.7031 49.2583 9.82335C48.9276 9.93609 48.6495 10.1052 48.424 10.3307C48.2061 10.5561 48.0407 10.8305 47.928 11.1536C47.8228 11.4768 47.7626 11.8451 47.7476 12.2584L47.0937 12.0555C47.0937 11.2664 47.1727 10.5411 47.3305 9.87972C47.4883 9.21082 47.7175 8.62836 48.0182 8.13232C48.3263 7.63629 48.7021 7.25299 49.1455 6.98242C49.589 6.71186 50.0963 6.57657 50.6675 6.57657C50.8478 6.57657 51.032 6.59161 51.2199 6.62167C51.4077 6.64422 51.5618 6.67804 51.6821 6.72313ZM58.7231 16.2493V10.8154C58.7231 10.4246 58.6592 10.0902 58.5314 9.81208C58.4036 9.52648 58.2045 9.30477 57.9339 9.14694C57.6709 8.98911 57.3289 8.91019 56.908 8.91019C56.5473 8.91019 56.2354 8.97408 55.9723 9.10184C55.7093 9.2221 55.5064 9.39871 55.3636 9.6317C55.2208 9.85717 55.1494 10.124 55.1494 10.4321H51.9026C51.9026 9.91354 52.0228 9.42126 52.2633 8.95529C52.5038 8.48932 52.8533 8.07971 53.3118 7.72647C53.7702 7.36572 54.3151 7.08388 54.9464 6.88096C55.5853 6.67804 56.2993 6.57657 57.0884 6.57657C58.0354 6.57657 58.8771 6.7344 59.6137 7.05006C60.3502 7.36572 60.9289 7.83921 61.3498 8.47053C61.7782 9.10184 61.9924 9.89099 61.9924 10.838V16.0576C61.9924 16.7265 62.0337 17.2752 62.1164 17.7035C62.1991 18.1244 62.3193 18.4927 62.4771 18.8084V19H59.1966C59.0387 18.6693 58.9185 18.2559 58.8358 17.7599C58.7606 17.2564 58.7231 16.7528 58.7231 16.2493ZM59.1515 11.5707L59.174 13.4083H57.359C56.9306 13.4083 56.5585 13.4572 56.2429 13.5549C55.9272 13.6526 55.6679 13.7916 55.465 13.972C55.2621 14.1449 55.1118 14.3478 55.0141 14.5808C54.9239 14.8138 54.8788 15.0693 54.8788 15.3474C54.8788 15.6255 54.9427 15.8772 55.0704 16.1027C55.1982 16.3207 55.3823 16.4935 55.6228 16.6213C55.8633 16.7415 56.1452 16.8017 56.4684 16.8017C56.9569 16.8017 57.3815 16.704 57.7423 16.5086C58.103 16.3131 58.3811 16.0726 58.5765 15.787C58.7794 15.5014 58.8847 15.2309 58.8922 14.9754L59.749 16.3507C59.6287 16.6589 59.4634 16.9783 59.2529 17.309C59.05 17.6397 58.7907 17.9516 58.475 18.2447C58.1594 18.5303 57.7798 18.767 57.3364 18.9549C56.893 19.1353 56.3669 19.2255 55.7581 19.2255C54.984 19.2255 54.2813 19.0714 53.65 18.7633C53.0262 18.4476 52.5301 18.0154 52.1619 17.4668C51.8011 16.9106 51.6207 16.2793 51.6207 15.5728C51.6207 14.934 51.741 14.3666 51.9815 13.8705C52.222 13.3745 52.5752 12.9574 53.0412 12.6192C53.5147 12.2735 54.1047 12.0142 54.8112 11.8413C55.5176 11.6609 56.3368 11.5707 57.2688 11.5707H59.1515ZM68.8417 16.6889C69.2401 16.6889 69.5933 16.6138 69.9014 16.4635C70.2096 16.3056 70.4501 16.0877 70.6229 15.8096C70.8033 15.524 70.8973 15.1895 70.9048 14.8062H73.9599C73.9524 15.663 73.7232 16.4259 73.2722 17.0948C72.8213 17.7562 72.2163 18.2785 71.4572 18.6618C70.6981 19.0376 69.8488 19.2255 68.9094 19.2255C67.9624 19.2255 67.1357 19.0676 66.4292 18.752C65.7302 18.4363 65.1478 18.0004 64.6818 17.4443C64.2158 16.8806 63.8663 16.2267 63.6334 15.4827C63.4004 14.7311 63.2839 13.9269 63.2839 13.0701V12.7432C63.2839 11.8789 63.4004 11.0747 63.6334 10.3307C63.8663 9.57909 64.2158 8.92523 64.6818 8.36907C65.1478 7.80539 65.7302 7.36572 66.4292 7.05006C67.1282 6.7344 67.9474 6.57657 68.8868 6.57657C69.8864 6.57657 70.762 6.76822 71.5136 7.15152C72.2726 7.53482 72.8664 8.08347 73.2948 8.79746C73.7307 9.50393 73.9524 10.3419 73.9599 11.3115H70.9048C70.8973 10.9056 70.8108 10.5373 70.6455 10.2066C70.4877 9.87596 70.2547 9.61291 69.9465 9.4175C69.6459 9.21458 69.2739 9.11312 68.8305 9.11312C68.357 9.11312 67.9699 9.21458 67.6693 9.4175C67.3687 9.61291 67.1357 9.88348 66.9703 10.2292C66.805 10.5674 66.6885 10.9545 66.6208 11.3904C66.5607 11.8188 66.5307 12.2697 66.5307 12.7432V13.0701C66.5307 13.5436 66.5607 13.9983 66.6208 14.4342C66.681 14.8701 66.7937 15.2572 66.9591 15.5954C67.1319 15.9336 67.3687 16.2004 67.6693 16.3958C67.9699 16.5912 68.3607 16.6889 68.8417 16.6889ZM81.1249 6.80205V9.10184H74.0226V6.80205H81.1249ZM75.7813 3.79201H79.028V15.3248C79.028 15.6781 79.0731 15.9486 79.1633 16.1365C79.261 16.3244 79.4038 16.4559 79.5917 16.5311C79.7796 16.5987 80.0164 16.6326 80.3019 16.6326C80.5049 16.6326 80.6852 16.625 80.8431 16.61C81.0084 16.5875 81.1475 16.5649 81.2602 16.5424L81.2715 18.9324C80.9934 19.0225 80.6928 19.0939 80.3696 19.1466C80.0464 19.1992 79.6894 19.2255 79.2986 19.2255C78.5846 19.2255 77.9608 19.109 77.4272 18.876C76.9011 18.6355 76.4953 18.2522 76.2097 17.7261C75.9241 17.2 75.7813 16.5086 75.7813 15.6518V3.79201ZM85.7083 6.80205V19H82.4502V6.80205H85.7083ZM82.2473 3.62291C82.2473 3.14942 82.4126 2.75861 82.7433 2.45046C83.074 2.14232 83.5175 1.98825 84.0736 1.98825C84.6223 1.98825 85.0619 2.14232 85.3926 2.45046C85.7308 2.75861 85.8999 3.14942 85.8999 3.62291C85.8999 4.0964 85.7308 4.48721 85.3926 4.79536C85.0619 5.1035 84.6223 5.25757 84.0736 5.25757C83.5175 5.25757 83.074 5.1035 82.7433 4.79536C82.4126 4.48721 82.2473 4.0964 82.2473 3.62291ZM92.738 16.6889C93.1363 16.6889 93.4896 16.6138 93.7977 16.4635C94.1059 16.3056 94.3464 16.0877 94.5192 15.8096C94.6996 15.524 94.7935 15.1895 94.8011 14.8062H97.8562C97.8487 15.663 97.6194 16.4259 97.1685 17.0948C96.7176 17.7562 96.1125 18.2785 95.3535 18.6618C94.5944 19.0376 93.7451 19.2255 92.8056 19.2255C91.8587 19.2255 91.0319 19.0676 90.3255 18.752C89.6265 18.4363 89.044 18.0004 88.5781 17.4443C88.1121 16.8806 87.7626 16.2267 87.5296 15.4827C87.2966 14.7311 87.1801 13.9269 87.1801 13.0701V12.7432C87.1801 11.8789 87.2966 11.0747 87.5296 10.3307C87.7626 9.57909 88.1121 8.92523 88.5781 8.36907C89.044 7.80539 89.6265 7.36572 90.3255 7.05006C91.0244 6.7344 91.8436 6.57657 92.7831 6.57657C93.7827 6.57657 94.6583 6.76822 95.4098 7.15152C96.1689 7.53482 96.7626 8.08347 97.191 8.79746C97.6269 9.50393 97.8487 10.3419 97.8562 11.3115H94.8011C94.7935 10.9056 94.7071 10.5373 94.5418 10.2066C94.3839 9.87596 94.1509 9.61291 93.8428 9.4175C93.5422 9.21458 93.1701 9.11312 92.7267 9.11312C92.2532 9.11312 91.8662 9.21458 91.5656 9.4175C91.2649 9.61291 91.0319 9.88348 90.8666 10.2292C90.7012 10.5674 90.5848 10.9545 90.5171 11.3904C90.457 11.8188 90.4269 12.2697 90.4269 12.7432V13.0701C90.4269 13.5436 90.457 13.9983 90.5171 14.4342C90.5772 14.8701 90.69 15.2572 90.8553 15.5954C91.0282 15.9336 91.2649 16.2004 91.5656 16.3958C91.8662 16.5912 92.257 16.6889 92.738 16.6889ZM104.66 19.2255C103.713 19.2255 102.864 19.0752 102.113 18.7745C101.361 18.4664 100.722 18.0418 100.196 17.5006C99.6775 16.9595 99.2792 16.3319 99.0011 15.6179C98.723 14.8964 98.584 14.1298 98.584 13.3181V12.8672C98.584 11.9428 98.7155 11.0973 98.9786 10.3307C99.2416 9.56406 99.6174 8.89892 100.106 8.33524C100.602 7.77157 101.203 7.33942 101.91 7.03879C102.616 6.73065 103.413 6.57657 104.3 6.57657C105.164 6.57657 105.931 6.71937 106.599 7.00497C107.268 7.29056 107.828 7.69641 108.279 8.22251C108.738 8.74861 109.083 9.37992 109.316 10.1165C109.549 10.8455 109.666 11.6572 109.666 12.5515V13.9044H99.9706V11.7398H106.475V11.4918C106.475 11.0409 106.393 10.6388 106.227 10.2856C106.07 9.92481 105.829 9.63922 105.506 9.42878C105.183 9.21834 104.769 9.11312 104.266 9.11312C103.837 9.11312 103.469 9.20706 103.161 9.39496C102.853 9.58285 102.601 9.8459 102.406 10.1841C102.218 10.5223 102.075 10.9206 101.977 11.3791C101.887 11.83 101.842 12.3261 101.842 12.8672V13.3181C101.842 13.8067 101.91 14.2576 102.045 14.671C102.188 15.0843 102.387 15.4413 102.642 15.742C102.906 16.0426 103.221 16.2756 103.589 16.4409C103.965 16.6063 104.39 16.6889 104.863 16.6889C105.45 16.6889 105.994 16.5762 106.498 16.3507C107.009 16.1177 107.449 15.7683 107.817 15.3023L109.395 17.0159C109.14 17.3841 108.79 17.7374 108.347 18.0756C107.911 18.4138 107.385 18.6919 106.769 18.9098C106.152 19.1203 105.45 19.2255 104.66 19.2255ZM32.3191 25.5857H35.1826L39.3989 37.6371L43.6152 25.5857H46.4787L40.5488 42H38.249L32.3191 25.5857ZM30.7746 25.5857H33.6268L34.1454 37.3328V42H30.7746V25.5857ZM45.1709 25.5857H48.0344V42H44.6524V37.3328L45.1709 25.5857ZM56.6875 39.2493V33.8154C56.6875 33.4246 56.6236 33.0902 56.4959 32.8121C56.3681 32.5265 56.1689 32.3048 55.8984 32.1469C55.6353 31.9891 55.2934 31.9102 54.8725 31.9102C54.5117 31.9102 54.1998 31.9741 53.9368 32.1018C53.6737 32.2221 53.4708 32.3987 53.328 32.6317C53.1852 32.8572 53.1138 33.124 53.1138 33.4321H49.867C49.867 32.9135 49.9873 32.4213 50.2278 31.9553C50.4683 31.4893 50.8178 31.0797 51.2762 30.7265C51.7347 30.3657 52.2796 30.0839 52.9109 29.881C53.5497 29.678 54.2637 29.5766 55.0529 29.5766C55.9998 29.5766 56.8416 29.7344 57.5781 30.0501C58.3147 30.3657 58.8934 30.8392 59.3142 31.4705C59.7426 32.1018 59.9568 32.891 59.9568 33.838V39.0576C59.9568 39.7265 59.9982 40.2752 60.0808 40.7035C60.1635 41.1244 60.2838 41.4927 60.4416 41.8084V42H57.161C57.0032 41.6693 56.8829 41.2559 56.8002 40.7599C56.7251 40.2564 56.6875 39.7528 56.6875 39.2493ZM57.1159 34.5707L57.1385 36.4083H55.3234C54.895 36.4083 54.523 36.4572 54.2073 36.5549C53.8917 36.6526 53.6324 36.7916 53.4295 36.972C53.2265 37.1449 53.0762 37.3478 52.9785 37.5808C52.8883 37.8138 52.8432 38.0693 52.8432 38.3474C52.8432 38.6255 52.9071 38.8772 53.0349 39.1027C53.1627 39.3207 53.3468 39.4935 53.5873 39.6213C53.8278 39.7415 54.1096 39.8017 54.4328 39.8017C54.9213 39.8017 55.346 39.704 55.7067 39.5086C56.0675 39.3131 56.3456 39.0726 56.541 38.787C56.7439 38.5014 56.8491 38.2309 56.8566 37.9754L57.7134 39.3507C57.5932 39.6589 57.4278 39.9783 57.2174 40.309C57.0144 40.6397 56.7552 40.9516 56.4395 41.2447C56.1238 41.5303 55.7443 41.767 55.3009 41.9549C54.8574 42.1353 54.3313 42.2255 53.7226 42.2255C52.9485 42.2255 52.2457 42.0714 51.6144 41.7633C50.9906 41.4476 50.4946 41.0154 50.1263 40.4668C49.7656 39.9106 49.5852 39.2793 49.5852 38.5728C49.5852 37.934 49.7054 37.3666 49.9459 36.8705C50.1864 36.3745 50.5397 35.9574 51.0057 35.6192C51.4791 35.2735 52.0691 35.0142 52.7756 34.8413C53.4821 34.6609 54.3013 34.5707 55.2332 34.5707H57.1159ZM64.946 32.4062V42H61.6993V29.802H64.7431L64.946 32.4062ZM64.4726 35.4726H63.5932C63.5932 34.5707 63.7097 33.7591 63.9427 33.0375C64.1757 32.3085 64.5026 31.6885 64.9235 31.1774C65.3444 30.6588 65.8442 30.2643 66.4229 29.9937C67.0091 29.7156 67.663 29.5766 68.3845 29.5766C68.9557 29.5766 69.478 29.6592 69.9515 29.8246C70.425 29.9899 70.8308 30.253 71.169 30.6137C71.5148 30.9745 71.7778 31.4517 71.9582 32.0455C72.1461 32.6392 72.24 33.3645 72.24 34.2213V42H68.9707V34.21C68.9707 33.6689 68.8955 33.248 68.7452 32.9474C68.5949 32.6467 68.3732 32.4363 68.0801 32.316C67.7945 32.1883 67.4413 32.1244 67.0204 32.1244C66.5845 32.1244 66.2049 32.2108 65.8818 32.3837C65.5661 32.5565 65.303 32.797 65.0926 33.1052C64.8897 33.4058 64.7356 33.7591 64.6304 34.1649C64.5252 34.5707 64.4726 35.0067 64.4726 35.4726ZM80.6 39.2493V33.8154C80.6 33.4246 80.5361 33.0902 80.4084 32.8121C80.2806 32.5265 80.0814 32.3048 79.8109 32.1469C79.5478 31.9891 79.2059 31.9102 78.785 31.9102C78.4242 31.9102 78.1123 31.9741 77.8493 32.1018C77.5862 32.2221 77.3833 32.3987 77.2405 32.6317C77.0977 32.8572 77.0263 33.124 77.0263 33.4321H73.7795C73.7795 32.9135 73.8998 32.4213 74.1403 31.9553C74.3808 31.4893 74.7303 31.0797 75.1887 30.7265C75.6472 30.3657 76.1921 30.0839 76.8234 29.881C77.4622 29.678 78.1762 29.5766 78.9654 29.5766C79.9123 29.5766 80.7541 29.7344 81.4906 30.0501C82.2272 30.3657 82.8059 30.8392 83.2267 31.4705C83.6551 32.1018 83.8693 32.891 83.8693 33.838V39.0576C83.8693 39.7265 83.9107 40.2752 83.9933 40.7035C84.076 41.1244 84.1963 41.4927 84.3541 41.8084V42H81.0735C80.9157 41.6693 80.7954 41.2559 80.7128 40.7599C80.6376 40.2564 80.6 39.7528 80.6 39.2493ZM81.0284 34.5707L81.051 36.4083H79.2359C78.8075 36.4083 78.4355 36.4572 78.1198 36.5549C77.8042 36.6526 77.5449 36.7916 77.342 36.972C77.139 37.1449 76.9887 37.3478 76.891 37.5808C76.8008 37.8138 76.7557 38.0693 76.7557 38.3474C76.7557 38.6255 76.8196 38.8772 76.9474 39.1027C77.0752 39.3207 77.2593 39.4935 77.4998 39.6213C77.7403 39.7415 78.0221 39.8017 78.3453 39.8017C78.8338 39.8017 79.2585 39.704 79.6192 39.5086C79.98 39.3131 80.2581 39.0726 80.4535 38.787C80.6564 38.5014 80.7616 38.2309 80.7691 37.9754L81.6259 39.3507C81.5057 39.6589 81.3403 39.9783 81.1299 40.309C80.9269 40.6397 80.6677 40.9516 80.352 41.2447C80.0363 41.5303 79.6568 41.767 79.2134 41.9549C78.7699 42.1353 78.2439 42.2255 77.6351 42.2255C76.861 42.2255 76.1582 42.0714 75.5269 41.7633C74.9031 41.4476 74.4071 41.0154 74.0388 40.4668C73.6781 39.9106 73.4977 39.2793 73.4977 38.5728C73.4977 37.934 73.6179 37.3666 73.8584 36.8705C74.099 36.3745 74.4522 35.9574 74.9182 35.6192C75.3916 35.2735 75.9816 35.0142 76.6881 34.8413C77.3946 34.6609 78.2138 34.5707 79.1457 34.5707H81.0284ZM93.4018 29.802H96.3442V41.5942C96.3442 42.7065 96.0962 43.6497 95.6001 44.4238C95.1116 45.2054 94.4277 45.7954 93.5483 46.1938C92.669 46.5996 91.6469 46.8025 90.4819 46.8025C89.9709 46.8025 89.4297 46.7349 88.8586 46.5996C88.2949 46.4643 87.7537 46.2539 87.2352 45.9683C86.7241 45.6827 86.2957 45.3219 85.95 44.886L87.3817 42.9695C87.7575 43.4054 88.1934 43.7436 88.6894 43.9841C89.1855 44.2322 89.7341 44.3562 90.3354 44.3562C90.9216 44.3562 91.4176 44.2472 91.8235 44.0292C92.2293 43.8188 92.5412 43.5069 92.7592 43.0935C92.9771 42.6877 93.0861 42.1954 93.0861 41.6167V32.6204L93.4018 29.802ZM85.1947 36.0476V35.8108C85.1947 34.8789 85.3074 34.0334 85.5329 33.2743C85.7658 32.5077 86.0928 31.8501 86.5137 31.3014C86.9421 30.7528 87.4606 30.3281 88.0694 30.0275C88.6782 29.7269 89.3659 29.5766 90.1325 29.5766C90.9442 29.5766 91.6243 29.7269 92.173 30.0275C92.7216 30.3281 93.1726 30.7565 93.5258 31.3127C93.879 31.8613 94.1534 32.5114 94.3488 33.263C94.5517 34.0071 94.7095 34.8225 94.8222 35.7094V36.228C94.7095 37.0772 94.5404 37.8664 94.3149 38.5954C94.0895 39.3244 93.7926 39.9632 93.4243 40.5119C93.0561 41.053 92.5976 41.4739 92.049 41.7745C91.5078 42.0752 90.8615 42.2255 90.1099 42.2255C89.3583 42.2255 88.6782 42.0714 88.0694 41.7633C87.4681 41.4551 86.9533 41.023 86.5249 40.4668C86.0965 39.9106 85.7658 39.2568 85.5329 38.5052C85.3074 37.7536 85.1947 36.9344 85.1947 36.0476ZM88.4414 35.8108V36.0476C88.4414 36.5511 88.4903 37.0209 88.588 37.4568C88.6857 37.8927 88.836 38.2797 89.0389 38.6179C89.2494 38.9486 89.5087 39.2079 89.8168 39.3958C90.1325 39.5762 90.5045 39.6664 90.9329 39.6664C91.5266 39.6664 92.0114 39.5424 92.3872 39.2944C92.7629 39.0388 93.0448 38.6893 93.2327 38.2459C93.4206 37.8025 93.5295 37.2914 93.5596 36.7127V35.2359C93.5446 34.7624 93.4807 34.3378 93.368 33.962C93.2552 33.5787 93.0974 33.2517 92.8945 32.9812C92.6916 32.7106 92.4285 32.5002 92.1053 32.3499C91.7822 32.1995 91.3989 32.1244 90.9554 32.1244C90.527 32.1244 90.155 32.2221 89.8393 32.4175C89.5312 32.6054 89.2719 32.8647 89.0615 33.1954C88.8586 33.5261 88.7045 33.9169 88.5993 34.3678C88.494 34.8112 88.4414 35.2923 88.4414 35.8108ZM103.791 42.2255C102.844 42.2255 101.995 42.0752 101.243 41.7745C100.492 41.4664 99.8528 41.0418 99.3267 40.5006C98.8081 39.9595 98.4098 39.3319 98.1317 38.6179C97.8536 37.8964 97.7146 37.1298 97.7146 36.3181V35.8672C97.7146 34.9428 97.8461 34.0973 98.1092 33.3307C98.3722 32.5641 98.748 31.8989 99.2365 31.3352C99.7325 30.7716 100.334 30.3394 101.04 30.0388C101.747 29.7306 102.543 29.5766 103.43 29.5766C104.295 29.5766 105.061 29.7194 105.73 30.005C106.399 30.2906 106.959 30.6964 107.41 31.2225C107.868 31.7486 108.214 32.3799 108.447 33.1165C108.68 33.8455 108.796 34.6572 108.796 35.5515V36.9044H99.1012V34.7398H105.606V34.4918C105.606 34.0409 105.523 33.6388 105.358 33.2856C105.2 32.9248 104.96 32.6392 104.637 32.4288C104.313 32.2183 103.9 32.1131 103.396 32.1131C102.968 32.1131 102.6 32.2071 102.292 32.395C101.983 32.5828 101.732 32.8459 101.536 33.1841C101.348 33.5223 101.206 33.9206 101.108 34.3791C101.018 34.83 100.973 35.3261 100.973 35.8672V36.3181C100.973 36.8067 101.04 37.2576 101.176 37.671C101.318 38.0843 101.518 38.4413 101.773 38.742C102.036 39.0426 102.352 39.2756 102.72 39.4409C103.096 39.6063 103.52 39.6889 103.994 39.6889C104.58 39.6889 105.125 39.5762 105.629 39.3507C106.14 39.1177 106.579 38.7683 106.948 38.3023L108.526 40.0159C108.27 40.3841 107.921 40.7374 107.477 41.0756C107.042 41.4138 106.515 41.6919 105.899 41.9098C105.283 42.1203 104.58 42.2255 103.791 42.2255ZM113.199 32.3273V42H109.941V29.802H112.997L113.199 32.3273ZM112.749 35.4726H111.847C111.847 34.6234 111.948 33.8417 112.151 33.1277C112.361 32.4062 112.666 31.7824 113.064 31.2563C113.47 30.7227 113.97 30.3094 114.564 30.0162C115.157 29.7231 115.845 29.5766 116.627 29.5766C117.168 29.5766 117.664 29.6592 118.115 29.8246C118.566 29.9824 118.953 30.2342 119.276 30.5799C119.607 30.9181 119.862 31.3615 120.042 31.9102C120.223 32.4513 120.313 33.1014 120.313 33.8605V42H117.066V34.2213C117.066 33.6651 116.991 33.2367 116.841 32.9361C116.69 32.6355 116.476 32.425 116.198 32.3048C115.928 32.1845 115.601 32.1244 115.217 32.1244C114.797 32.1244 114.428 32.2108 114.113 32.3837C113.804 32.5565 113.549 32.797 113.346 33.1052C113.143 33.4058 112.993 33.7591 112.895 34.1649C112.797 34.5707 112.749 35.0067 112.749 35.4726ZM120.009 35.1006L118.847 35.2472C118.847 34.4505 118.945 33.7102 119.141 33.0263C119.344 32.3423 119.64 31.7411 120.031 31.2225C120.43 30.7039 120.922 30.3018 121.508 30.0162C122.094 29.7231 122.771 29.5766 123.537 29.5766C124.123 29.5766 124.657 29.663 125.138 29.8359C125.619 30.0012 126.029 30.268 126.367 30.6363C126.713 30.997 126.976 31.4705 127.156 32.0568C127.344 32.643 127.438 33.3607 127.438 34.21V42H124.18V34.21C124.18 33.6463 124.105 33.2179 123.954 32.9248C123.812 32.6242 123.601 32.4175 123.323 32.3048C123.053 32.1845 122.729 32.1244 122.354 32.1244C121.963 32.1244 121.621 32.2033 121.328 32.3611C121.035 32.5114 120.79 32.7219 120.595 32.9925C120.399 33.263 120.253 33.5787 120.155 33.9394C120.058 34.2927 120.009 34.6797 120.009 35.1006ZM134.873 42.2255C133.927 42.2255 133.077 42.0752 132.326 41.7745C131.574 41.4664 130.935 41.0418 130.409 40.5006C129.891 39.9595 129.492 39.3319 129.214 38.6179C128.936 37.8964 128.797 37.1298 128.797 36.3181V35.8672C128.797 34.9428 128.929 34.0973 129.192 33.3307C129.455 32.5641 129.83 31.8989 130.319 31.3352C130.815 30.7716 131.416 30.3394 132.123 30.0388C132.829 29.7306 133.626 29.5766 134.513 29.5766C135.377 29.5766 136.144 29.7194 136.813 30.005C137.481 30.2906 138.041 30.6964 138.492 31.2225C138.951 31.7486 139.296 32.3799 139.529 33.1165C139.762 33.8455 139.879 34.6572 139.879 35.5515V36.9044H130.184V34.7398H136.689V34.4918C136.689 34.0409 136.606 33.6388 136.44 33.2856C136.283 32.9248 136.042 32.6392 135.719 32.4288C135.396 32.2183 134.982 32.1131 134.479 32.1131C134.051 32.1131 133.682 32.2071 133.374 32.395C133.066 32.5828 132.814 32.8459 132.619 33.1841C132.431 33.5223 132.288 33.9206 132.19 34.3791C132.1 34.83 132.055 35.3261 132.055 35.8672V36.3181C132.055 36.8067 132.123 37.2576 132.258 37.671C132.401 38.0843 132.6 38.4413 132.856 38.742C133.119 39.0426 133.434 39.2756 133.802 39.4409C134.178 39.6063 134.603 39.6889 135.076 39.6889C135.663 39.6889 136.208 39.5762 136.711 39.3507C137.222 39.1177 137.662 38.7683 138.03 38.3023L139.608 40.0159C139.353 40.3841 139.003 40.7374 138.56 41.0756C138.124 41.4138 137.598 41.6919 136.982 41.9098C136.365 42.1203 135.663 42.2255 134.873 42.2255ZM144.214 32.4062V42H140.967V29.802H144.011L144.214 32.4062ZM143.741 35.4726H142.861C142.861 34.5707 142.978 33.7591 143.211 33.0375C143.444 32.3085 143.771 31.6885 144.192 31.1774C144.613 30.6588 145.112 30.2643 145.691 29.9937C146.277 29.7156 146.931 29.5766 147.653 29.5766C148.224 29.5766 148.746 29.6592 149.22 29.8246C149.693 29.9899 150.099 30.253 150.437 30.6137C150.783 30.9745 151.046 31.4517 151.226 32.0455C151.414 32.6392 151.508 33.3645 151.508 34.2213V42H148.239V34.21C148.239 33.6689 148.164 33.248 148.013 32.9474C147.863 32.6467 147.641 32.4363 147.348 32.316C147.063 32.1883 146.709 32.1244 146.289 32.1244C145.853 32.1244 145.473 32.2108 145.15 32.3837C144.834 32.5565 144.571 32.797 144.361 33.1052C144.158 33.4058 144.004 33.7591 143.899 34.1649C143.793 34.5707 143.741 35.0067 143.741 35.4726ZM159.259 29.802V32.1018H152.157V29.802H159.259ZM153.916 26.792H157.163V38.3248C157.163 38.6781 157.208 38.9486 157.298 39.1365C157.396 39.3244 157.538 39.4559 157.726 39.5311C157.914 39.5987 158.151 39.6326 158.436 39.6326C158.639 39.6326 158.82 39.625 158.978 39.61C159.143 39.5875 159.282 39.5649 159.395 39.5424L159.406 41.9324C159.128 42.0225 158.827 42.0939 158.504 42.1466C158.181 42.1992 157.824 42.2255 157.433 42.2255C156.719 42.2255 156.095 42.109 155.562 41.876C155.036 41.6355 154.63 41.2522 154.344 40.7261C154.059 40.2 153.916 39.5086 153.916 38.6518V26.792ZM39.32 60.7048C39.32 60.4117 39.2749 60.1486 39.1847 59.9156C39.102 59.6751 38.9442 59.4572 38.7112 59.2618C38.4782 59.0589 38.1513 58.8597 37.7304 58.6643C37.3095 58.4689 36.7646 58.2659 36.0957 58.0555C35.3517 57.815 34.6452 57.5444 33.9763 57.2438C33.3149 56.9432 32.7287 56.5937 32.2177 56.1954C31.7141 55.7895 31.3158 55.3198 31.0227 54.7862C30.7371 54.2526 30.5943 53.6325 30.5943 52.9261C30.5943 52.2421 30.7446 51.6221 31.0452 51.0659C31.3458 50.5022 31.7667 50.0212 32.3078 49.6229C32.849 49.2171 33.4878 48.9052 34.2243 48.6872C34.9684 48.4693 35.7838 48.3603 36.6707 48.3603C37.8807 48.3603 38.9367 48.5782 39.8386 49.0141C40.7404 49.4501 41.4394 50.0475 41.9354 50.8066C42.439 51.5657 42.6908 52.4338 42.6908 53.4108H39.3312C39.3312 52.9298 39.2298 52.5089 39.0269 52.1482C38.8315 51.7799 38.5308 51.4906 38.125 51.2801C37.7266 51.0697 37.2231 50.9645 36.6143 50.9645C36.0281 50.9645 35.5396 51.0546 35.1488 51.235C34.758 51.4079 34.4648 51.6446 34.2694 51.9453C34.074 52.2384 33.9763 52.5691 33.9763 52.9373C33.9763 53.2154 34.044 53.4672 34.1792 53.6927C34.322 53.9181 34.5325 54.1286 34.8106 54.324C35.0886 54.5194 35.4306 54.7035 35.8365 54.8764C36.2423 55.0492 36.712 55.2183 37.2456 55.3837C38.14 55.6542 38.9254 55.9586 39.6018 56.2968C40.2857 56.635 40.8569 57.0146 41.3154 57.4355C41.7738 57.8563 42.1196 58.3336 42.3526 58.8672C42.5855 59.4008 42.702 60.0058 42.702 60.6822C42.702 61.3962 42.563 62.0351 42.2849 62.5987C42.0068 63.1624 41.6047 63.6397 41.0786 64.0305C40.5525 64.4213 39.925 64.7182 39.196 64.9211C38.4669 65.124 37.6515 65.2255 36.7496 65.2255C35.9379 65.2255 35.1375 65.1203 34.3483 64.9098C33.5592 64.6919 32.8415 64.3649 32.1951 63.929C31.5563 63.4931 31.0452 62.9369 30.6619 62.2605C30.2786 61.5841 30.087 60.7837 30.087 59.8593H33.4803C33.4803 60.3703 33.5592 60.8025 33.717 61.1557C33.8749 61.509 34.0966 61.7946 34.3822 62.0125C34.6753 62.2305 35.021 62.3883 35.4193 62.486C35.8252 62.5837 36.2686 62.6326 36.7496 62.6326C37.3358 62.6326 37.8168 62.5499 38.1926 62.3845C38.5759 62.2192 38.8578 61.99 39.0381 61.6969C39.226 61.4037 39.32 61.0731 39.32 60.7048ZM43.5877 59.025V58.7883C43.5877 57.8939 43.7154 57.071 43.971 56.3194C44.2265 55.5603 44.5985 54.9027 45.0871 54.3465C45.5756 53.7904 46.1768 53.3582 46.8908 53.0501C47.6048 52.7344 48.424 52.5766 49.3485 52.5766C50.2729 52.5766 51.0958 52.7344 51.8174 53.0501C52.5389 53.3582 53.1439 53.7904 53.6324 54.3465C54.1284 54.9027 54.5042 55.5603 54.7597 56.3194C55.0153 57.071 55.143 57.8939 55.143 58.7883V59.025C55.143 59.9119 55.0153 60.7348 54.7597 61.4939C54.5042 62.2455 54.1284 62.9031 53.6324 63.4668C53.1439 64.023 52.5426 64.4551 51.8286 64.7633C51.1146 65.0714 50.2954 65.2255 49.371 65.2255C48.4466 65.2255 47.6236 65.0714 46.9021 64.7633C46.1881 64.4551 45.5831 64.023 45.0871 63.4668C44.5985 62.9031 44.2265 62.2455 43.971 61.4939C43.7154 60.7348 43.5877 59.9119 43.5877 59.025ZM46.8345 58.7883V59.025C46.8345 59.5361 46.8795 60.0133 46.9697 60.4568C47.0599 60.9002 47.2027 61.291 47.3981 61.6292C47.6011 61.9599 47.8641 62.2192 48.1873 62.4071C48.5105 62.595 48.905 62.6889 49.371 62.6889C49.8219 62.6889 50.209 62.595 50.5322 62.4071C50.8553 62.2192 51.1146 61.9599 51.31 61.6292C51.5055 61.291 51.6482 60.9002 51.7384 60.4568C51.8361 60.0133 51.885 59.5361 51.885 59.025V58.7883C51.885 58.2923 51.8361 57.8263 51.7384 57.3904C51.6482 56.9469 51.5017 56.5561 51.2988 56.2179C51.1034 55.8722 50.8441 55.6016 50.5209 55.4062C50.1977 55.2108 49.8069 55.1131 49.3485 55.1131C48.89 55.1131 48.4992 55.2108 48.176 55.4062C47.8603 55.6016 47.6011 55.8722 47.3981 56.2179C47.2027 56.5561 47.0599 56.9469 46.9697 57.3904C46.8795 57.8263 46.8345 58.2923 46.8345 58.7883ZM60.5832 65H57.3139V51.7198C57.3139 50.7954 57.4942 50.0175 57.855 49.3862C58.2233 48.7473 58.7381 48.2663 59.3995 47.9432C60.0684 47.6125 60.8613 47.4471 61.7782 47.4471C62.0788 47.4471 62.3682 47.4697 62.6463 47.5148C62.9243 47.5523 63.1949 47.6012 63.4579 47.6613L63.4241 50.1077C63.2813 50.0701 63.131 50.0438 62.9732 50.0288C62.8154 50.0137 62.6312 50.0062 62.4208 50.0062C62.03 50.0062 61.6955 50.0739 61.4174 50.2091C61.1469 50.3369 60.9402 50.5286 60.7974 50.7841C60.6546 51.0396 60.5832 51.3515 60.5832 51.7198V65ZM63.0183 52.802V55.1018H55.4988V52.802H63.0183ZM70.0029 52.802V55.1018H62.9006V52.802H70.0029ZM64.6592 49.792H67.906V61.3248C67.906 61.6781 67.9511 61.9486 68.0413 62.1365C68.139 62.3244 68.2818 62.4559 68.4697 62.5311C68.6576 62.5987 68.8943 62.6326 69.1799 62.6326C69.3829 62.6326 69.5632 62.625 69.7211 62.61C69.8864 62.5875 70.0254 62.5649 70.1382 62.5424L70.1495 64.9324C69.8714 65.0225 69.5707 65.0939 69.2476 65.1466C68.9244 65.1992 68.5674 65.2255 68.1766 65.2255C67.4626 65.2255 66.8388 65.109 66.3052 64.876C65.7791 64.6355 65.3732 64.2522 65.0876 63.7261C64.802 63.2 64.6592 62.5086 64.6592 61.6518V49.792ZM74.6426 61.8434L77.1792 52.802H79.2422L78.5771 56.3532L76.0406 65H74.3157L74.6426 61.8434ZM73.3575 52.802L75.1725 61.8321L75.3416 65H73.3124L70.2234 52.802H73.3575ZM81.5646 61.6856L83.3345 52.802H86.4798L83.3909 65H81.3729L81.5646 61.6856ZM79.5241 52.802L82.0493 61.7758L82.3988 65H80.6627L78.1262 56.3645L77.4836 52.802H79.5241ZM94.0056 62.2493V56.8154C94.0056 56.4246 93.9417 56.0902 93.8139 55.8121C93.6862 55.5265 93.487 55.3048 93.2164 55.1469C92.9534 54.9891 92.6114 54.9102 92.1906 54.9102C91.8298 54.9102 91.5179 54.9741 91.2549 55.1018C90.9918 55.2221 90.7889 55.3987 90.6461 55.6317C90.5033 55.8572 90.4319 56.124 90.4319 56.4321H87.1851C87.1851 55.9135 87.3054 55.4213 87.5459 54.9553C87.7864 54.4893 88.1358 54.0797 88.5943 53.7265C89.0528 53.3657 89.5976 53.0839 90.229 52.881C90.8678 52.678 91.5818 52.5766 92.3709 52.5766C93.3179 52.5766 94.1597 52.7344 94.8962 53.0501C95.6327 53.3657 96.2114 53.8392 96.6323 54.4705C97.0607 55.1018 97.2749 55.891 97.2749 56.838V62.0576C97.2749 62.7265 97.3163 63.2752 97.3989 63.7035C97.4816 64.1244 97.6018 64.4927 97.7597 64.8084V65H94.4791C94.3213 64.6693 94.201 64.2559 94.1183 63.7599C94.0432 63.2564 94.0056 62.7528 94.0056 62.2493ZM94.434 57.5707L94.4565 59.4083H92.6415C92.2131 59.4083 91.8411 59.4572 91.5254 59.5549C91.2098 59.6526 90.9505 59.7916 90.7475 59.972C90.5446 60.1449 90.3943 60.3478 90.2966 60.5808C90.2064 60.8138 90.1613 61.0693 90.1613 61.3474C90.1613 61.6255 90.2252 61.8772 90.353 62.1027C90.4807 62.3207 90.6649 62.4935 90.9054 62.6213C91.1459 62.7415 91.4277 62.8017 91.7509 62.8017C92.2394 62.8017 92.664 62.704 93.0248 62.5086C93.3855 62.3131 93.6636 62.0726 93.859 61.787C94.062 61.5014 94.1672 61.2309 94.1747 60.9754L95.0315 62.3507C94.9112 62.6589 94.7459 62.9783 94.5354 63.309C94.3325 63.6397 94.0732 63.9516 93.7576 64.2447C93.4419 64.5303 93.0624 64.767 92.6189 64.9549C92.1755 65.1353 91.6494 65.2255 91.0407 65.2255C90.2665 65.2255 89.5638 65.0714 88.9325 64.7633C88.3087 64.4476 87.8127 64.0154 87.4444 63.4668C87.0836 62.9106 86.9033 62.2793 86.9033 61.5728C86.9033 60.934 87.0235 60.3666 87.264 59.8705C87.5045 59.3745 87.8578 58.9574 88.3237 58.6192C88.7972 58.2735 89.3872 58.0142 90.0937 57.8413C90.8002 57.6609 91.6194 57.5707 92.5513 57.5707H94.434ZM102.332 55.4626V65H99.085V52.802H102.14L102.332 55.4626ZM106.007 52.7231L105.951 55.7332C105.793 55.7106 105.601 55.6918 105.376 55.6768C105.158 55.6542 104.958 55.643 104.778 55.643C104.32 55.643 103.921 55.7031 103.583 55.8234C103.252 55.9361 102.974 56.1052 102.749 56.3307C102.531 56.5561 102.366 56.8305 102.253 57.1536C102.148 57.4768 102.088 57.8451 102.072 58.2584L101.419 58.0555C101.419 57.2664 101.498 56.5411 101.655 55.8797C101.813 55.2108 102.042 54.6284 102.343 54.1323C102.651 53.6363 103.027 53.253 103.47 52.9824C103.914 52.7119 104.421 52.5766 104.992 52.5766C105.173 52.5766 105.357 52.5916 105.545 52.6217C105.733 52.6442 105.887 52.678 106.007 52.7231ZM112.236 65.2255C111.289 65.2255 110.44 65.0752 109.688 64.7745C108.937 64.4664 108.298 64.0418 107.772 63.5006C107.253 62.9595 106.855 62.3319 106.577 61.6179C106.299 60.8964 106.16 60.1298 106.16 59.3181V58.8672C106.16 57.9428 106.291 57.0973 106.554 56.3307C106.817 55.5641 107.193 54.8989 107.682 54.3352C108.178 53.7716 108.779 53.3394 109.485 53.0388C110.192 52.7306 110.989 52.5766 111.875 52.5766C112.74 52.5766 113.506 52.7194 114.175 53.005C114.844 53.2906 115.404 53.6964 115.855 54.2225C116.313 54.7486 116.659 55.3799 116.892 56.1165C117.125 56.8455 117.242 57.6572 117.242 58.5515V59.9044H107.546V57.7398H114.051V57.4918C114.051 57.0409 113.969 56.6388 113.803 56.2856C113.645 55.9248 113.405 55.6392 113.082 55.4288C112.759 55.2183 112.345 55.1131 111.842 55.1131C111.413 55.1131 111.045 55.2071 110.737 55.395C110.429 55.5828 110.177 55.8459 109.982 56.1841C109.794 56.5223 109.651 56.9206 109.553 57.3791C109.463 57.83 109.418 58.3261 109.418 58.8672V59.3181C109.418 59.8067 109.485 60.2576 109.621 60.671C109.764 61.0843 109.963 61.4413 110.218 61.742C110.481 62.0426 110.797 62.2756 111.165 62.4409C111.541 62.6063 111.966 62.6889 112.439 62.6889C113.025 62.6889 113.57 62.5762 114.074 62.3507C114.585 62.1177 115.025 61.7683 115.393 61.3023L116.971 63.0159C116.716 63.3841 116.366 63.7374 115.923 64.0756C115.487 64.4138 114.961 64.6919 114.344 64.9098C113.728 65.1203 113.025 65.2255 112.236 65.2255Z" fill="#1D2026"/>
</svg>
