<svg width="99" height="25" viewBox="0 0 99 25" fill="none" xmlns="http://www.w3.org/2000/svg">
<path d="M23.3139 13.6206C23.2139 15.0497 22.8335 16.4451 22.1943 17.7272C21.555 19.0093 20.6696 20.1529 19.5884 21.0928C18.5072 22.0327 17.2514 22.7504 15.8929 23.2049C14.5343 23.6595 13.0995 23.8421 11.6704 23.7421L12.4314 12.8596L23.3139 13.6206Z" fill="#FFA800"/>
<path d="M16.7878 13.1611C16.7478 13.7328 16.5957 14.2909 16.34 14.8038C16.0843 15.3166 15.7301 15.7741 15.2976 16.15C14.8651 16.526 14.3628 16.813 13.8194 16.9949C13.276 17.1767 12.7021 17.2497 12.1304 17.2097L12.4348 12.8567L16.7878 13.1611Z" fill="#FFBB00"/>
<path d="M13.1926 1.98173L19.7221 2.43832C22.1262 2.60643 23.9389 4.69162 23.7708 7.09571L23.3142 13.6252L12.4316 12.8642L13.1926 1.98173Z" fill="#59F2F6"/>
<path d="M1.54795 12.1007C1.64788 10.6716 2.02832 9.27614 2.66754 7.99406C3.30677 6.71197 4.19226 5.56834 5.27345 4.62847C6.35465 3.6886 7.61039 2.97089 8.96896 2.51632C10.3275 2.06175 11.7623 1.87922 13.1914 1.97915L12.4305 12.8617L1.54795 12.1007Z" fill="#EE5A24"/>
<path d="M11.671 23.7436C10.2418 23.6437 8.84641 23.2632 7.56433 22.624C6.28224 21.9848 5.13862 21.0993 4.19875 20.0181C3.25887 18.9369 2.54116 17.6812 2.08659 16.3226C1.63202 14.964 1.44949 13.5292 1.54942 12.1001L12.4319 12.8611L11.671 23.7436Z" fill="#25C16F"/>
<path d="M8.08181 12.5523C8.12178 11.9807 8.27396 11.4225 8.52965 10.9097C8.78534 10.3968 9.13953 9.9394 9.57201 9.56345C10.0045 9.1875 10.5068 8.90042 11.0502 8.71859C11.5936 8.53676 12.1676 8.46375 12.7392 8.50372L12.4348 12.8567L8.08181 12.5523Z" fill="#D33C4E"/>
<path d="M18.4367 13.2713C18.489 12.4861 18.3857 11.6982 18.1327 10.9527C17.8798 10.2072 17.4821 9.51864 16.9625 8.92635C16.4429 8.33406 15.8114 7.84964 15.1042 7.50074C14.3969 7.15184 13.6278 6.9453 12.8406 6.8929L12.4426 12.8724L18.4367 13.2713Z" fill="#45A4EC"/>
<path d="M6.41766 12.4565C6.36638 13.2409 6.47083 14.0277 6.72505 14.7721C6.97927 15.5165 7.37829 16.2038 7.89932 16.7949C8.42035 17.386 9.05318 17.8692 9.7617 18.217C10.4702 18.5648 11.2405 18.7703 12.0287 18.8218L12.4192 12.8489L6.41766 12.4565Z" fill="#8BDF55"/>
<path d="M37.1895 14.0477H32.9169V11.8043H37.1895C37.9336 11.8043 38.5349 11.684 38.9933 11.4435C39.4518 11.203 39.7862 10.8723 39.9967 10.4514C40.2146 10.0231 40.3236 9.53454 40.3236 8.98589C40.3236 8.46731 40.2146 7.98255 39.9967 7.53161C39.7862 7.07315 39.4518 6.70488 38.9933 6.4268C38.5349 6.14872 37.9336 6.00968 37.1895 6.00968H33.7849V20.1692H30.9553V3.75497H37.1895C38.4597 3.75497 39.5382 3.98044 40.425 4.43139C41.3194 4.87481 41.9996 5.4911 42.4656 6.28024C42.9315 7.06188 43.1645 7.95624 43.1645 8.96334C43.1645 10.0231 42.9315 10.9325 42.4656 11.6915C41.9996 12.4506 41.3194 13.0331 40.425 13.4389C39.5382 13.8448 38.4597 14.0477 37.1895 14.0477ZM47.466 10.2936V20.1692H44.7491V7.97127H47.342L47.466 10.2936ZM51.1976 7.89236L51.175 10.4176C51.0097 10.3876 50.8293 10.365 50.6339 10.35C50.446 10.335 50.2581 10.3274 50.0702 10.3274C49.6043 10.3274 49.1946 10.3951 48.8414 10.5304C48.4882 10.6581 48.1913 10.846 47.9508 11.094C47.7178 11.3345 47.5374 11.6277 47.4097 11.9734C47.2819 12.3191 47.2067 12.7062 47.1842 13.1345L46.5642 13.1796C46.5642 12.413 46.6393 11.7028 46.7896 11.0489C46.9399 10.3951 47.1654 9.82013 47.466 9.3241C47.7742 8.82806 48.1575 8.441 48.6159 8.16292C49.0819 7.88484 49.6193 7.7458 50.2281 7.7458C50.3934 7.7458 50.57 7.76083 50.7579 7.7909C50.9533 7.82096 51.0999 7.85478 51.1976 7.89236ZM55.1158 7.97127V20.1692H52.3876V7.97127H55.1158ZM52.2072 4.76959C52.2072 4.35623 52.3425 4.01427 52.6131 3.7437C52.8912 3.46562 53.2745 3.32658 53.763 3.32658C54.244 3.32658 54.6235 3.46562 54.9016 3.7437C55.1797 4.01427 55.3187 4.35623 55.3187 4.76959C55.3187 5.17544 55.1797 5.51364 54.9016 5.78421C54.6235 6.05477 54.244 6.19006 53.763 6.19006C53.2745 6.19006 52.8912 6.05477 52.6131 5.78421C52.3425 5.51364 52.2072 5.17544 52.2072 4.76959ZM62.3823 18.2302C62.8257 18.2302 63.224 18.1438 63.5773 17.9709C63.938 17.7905 64.2274 17.5425 64.4453 17.2268C64.6708 16.9112 64.7948 16.5467 64.8173 16.1333H67.3764C67.3614 16.9225 67.1284 17.6402 66.6775 18.2865C66.2265 18.9329 65.629 19.4477 64.885 19.831C64.1409 20.2068 63.318 20.3947 62.4161 20.3947C61.4841 20.3947 60.6724 20.2369 59.981 19.9212C59.2896 19.598 58.7146 19.1546 58.2562 18.5909C57.7977 18.0273 57.452 17.3772 57.219 16.6406C56.9935 15.9041 56.8808 15.1149 56.8808 14.2732V13.8786C56.8808 13.0368 56.9935 12.2477 57.219 11.5112C57.452 10.7671 57.7977 10.1132 58.2562 9.54957C58.7146 8.98589 59.2896 8.54622 59.981 8.23056C60.6724 7.90739 61.4804 7.7458 62.4048 7.7458C63.3819 7.7458 64.2386 7.94121 64.9752 8.33203C65.7117 8.71533 66.2904 9.2527 66.7113 9.94414C67.1397 10.6281 67.3614 11.4247 67.3764 12.3341H64.8173C64.7948 11.8832 64.6821 11.4773 64.4791 11.1166C64.2837 10.7483 64.0057 10.4552 63.6449 10.2373C63.2917 10.0193 62.867 9.91032 62.371 9.91032C61.8223 9.91032 61.3676 10.0231 61.0069 10.2485C60.6461 10.4665 60.3643 10.7671 60.1614 11.1504C59.9585 11.5262 59.8119 11.9508 59.7217 12.4243C59.639 12.8903 59.5977 13.375 59.5977 13.8786V14.2732C59.5977 14.7767 59.639 15.2652 59.7217 15.7387C59.8044 16.2122 59.9472 16.6369 60.1501 17.0126C60.3605 17.3809 60.6461 17.6778 61.0069 17.9032C61.3676 18.1212 61.8261 18.2302 62.3823 18.2302ZM71.678 7.97127V20.1692H68.9498V7.97127H71.678ZM68.7694 4.76959C68.7694 4.35623 68.9047 4.01427 69.1752 3.7437C69.4533 3.46562 69.8366 3.32658 70.3251 3.32658C70.8061 3.32658 71.1857 3.46562 71.4638 3.7437C71.7418 4.01427 71.8809 4.35623 71.8809 4.76959C71.8809 5.17544 71.7418 5.51364 71.4638 5.78421C71.1857 6.05477 70.8061 6.19006 70.3251 6.19006C69.8366 6.19006 69.4533 6.05477 69.1752 5.78421C68.9047 5.51364 68.7694 5.17544 68.7694 4.76959ZM76.6559 10.5755V20.1692H73.939V7.97127H76.4981L76.6559 10.5755ZM76.1711 13.6193L75.2918 13.608C75.2993 12.7437 75.4196 11.9508 75.6526 11.2293C75.8931 10.5078 76.2238 9.88777 76.6446 9.36919C77.073 8.85061 77.5841 8.45228 78.1778 8.1742C78.7716 7.8886 79.4329 7.7458 80.162 7.7458C80.7482 7.7458 81.278 7.82847 81.7515 7.99382C82.2325 8.15165 82.6421 8.41094 82.9804 8.77169C83.3261 9.13245 83.5891 9.60218 83.7695 10.1809C83.9499 10.7521 84.0401 11.4548 84.0401 12.289V20.1692H81.3119V12.2778C81.3119 11.6915 81.2254 11.2293 81.0526 10.8911C80.8872 10.5454 80.643 10.3011 80.3198 10.1583C80.0041 10.008 79.6096 9.93287 79.1361 9.93287C78.6701 9.93287 78.253 10.0306 77.8847 10.226C77.5164 10.4214 77.2045 10.6882 76.949 11.0264C76.701 11.3646 76.5093 11.7554 76.3741 12.1988C76.2388 12.6423 76.1711 13.1158 76.1711 13.6193ZM93.9333 7.97127H96.4022V19.831C96.4022 20.9283 96.1692 21.8603 95.7032 22.6269C95.2372 23.3935 94.5871 23.9759 93.7529 24.3743C92.9186 24.7801 91.9529 24.983 90.8556 24.983C90.3896 24.983 89.871 24.9154 89.2998 24.7801C88.7362 24.6448 88.1875 24.4269 87.6539 24.1262C87.1278 23.8331 86.6881 23.4461 86.3349 22.9651L87.6088 21.3642C88.0447 21.8828 88.5257 22.2623 89.0518 22.5028C89.5779 22.7433 90.1303 22.8636 90.709 22.8636C91.3328 22.8636 91.8627 22.7471 92.2986 22.5141C92.742 22.2887 93.084 21.9542 93.3245 21.5108C93.565 21.0674 93.6852 20.5262 93.6852 19.8874V10.7333L93.9333 7.97127ZM85.6472 14.2055V13.9688C85.6472 13.0444 85.76 12.2026 85.9854 11.4435C86.2109 10.6769 86.5341 10.0193 86.9549 9.47065C87.3758 8.91449 87.8869 8.48986 88.4881 8.19674C89.0894 7.89612 89.7696 7.7458 90.5287 7.7458C91.3178 7.7458 91.9905 7.8886 92.5466 8.1742C93.1103 8.45979 93.58 8.8694 93.9558 9.40301C94.3316 9.92911 94.6247 10.5604 94.8351 11.297C95.0531 12.026 95.2147 12.8377 95.3199 13.732V14.4874C95.2222 15.3592 95.0569 16.1559 94.8239 16.8774C94.5909 17.5989 94.2827 18.2227 93.8994 18.7488C93.5161 19.2749 93.0426 19.6807 92.479 19.9663C91.9228 20.2519 91.2652 20.3947 90.5061 20.3947C89.7621 20.3947 89.0894 20.2406 88.4881 19.9325C87.8944 19.6243 87.3833 19.1922 86.9549 18.636C86.5341 18.0799 86.2109 17.426 85.9854 16.6744C85.76 15.9154 85.6472 15.0924 85.6472 14.2055ZM88.3641 13.9688V14.2055C88.3641 14.7617 88.4167 15.2803 88.522 15.7613C88.6347 16.2423 88.8038 16.6669 89.0293 17.0352C89.2623 17.3959 89.5554 17.6815 89.9086 17.892C90.2694 18.0949 90.694 18.1964 91.1825 18.1964C91.8213 18.1964 92.3437 18.0611 92.7495 17.7905C93.1629 17.5199 93.4786 17.1554 93.6965 16.697C93.922 16.231 94.0798 15.7124 94.17 15.1412V13.1007C94.1249 12.6573 94.031 12.2439 93.8882 11.8606C93.7529 11.4773 93.5687 11.1429 93.3358 10.8573C93.1028 10.5642 92.8097 10.3387 92.4564 10.1809C92.1032 10.0155 91.6861 9.93287 91.2051 9.93287C90.7165 9.93287 90.2919 10.0381 89.9312 10.2485C89.5704 10.459 89.2735 10.7483 89.0405 11.1166C88.8151 11.4849 88.646 11.9132 88.5332 12.4018C88.4205 12.8903 88.3641 13.4126 88.3641 13.9688Z" fill="#1D2026"/>
</svg>
