<svg width="165" height="26" viewBox="0 0 165 26" fill="none" xmlns="http://www.w3.org/2000/svg">
<path d="M22.8139 13.6206C22.7139 15.0497 22.3335 16.4451 21.6943 17.7272C21.055 19.0093 20.1696 20.1529 19.0884 21.0928C18.0072 22.0327 16.7514 22.7504 15.3929 23.2049C14.0343 23.6595 12.5995 23.8421 11.1704 23.7421L11.9314 12.8596L22.8139 13.6206Z" fill="#FFA800"/>
<path d="M16.2878 13.1611C16.2478 13.7328 16.0957 14.2909 15.84 14.8038C15.5843 15.3166 15.2301 15.7741 14.7976 16.15C14.3651 16.526 13.8628 16.813 13.3194 16.9949C12.776 17.1767 12.2021 17.2497 11.6304 17.2097L11.9348 12.8567L16.2878 13.1611Z" fill="#FFBB00"/>
<path d="M12.6926 1.98173L19.2221 2.43832C21.6262 2.60643 23.4389 4.69162 23.2708 7.09571L22.8142 13.6252L11.9316 12.8642L12.6926 1.98173Z" fill="#59F2F6"/>
<path d="M1.04795 12.1007C1.14788 10.6716 1.52832 9.27614 2.16754 7.99406C2.80677 6.71197 3.69226 5.56834 4.77345 4.62847C5.85465 3.6886 7.11039 2.97089 8.46896 2.51632C9.82753 2.06175 11.2623 1.87922 12.6914 1.97915L11.9305 12.8617L1.04795 12.1007Z" fill="#EE5A24"/>
<path d="M11.171 23.7436C9.74185 23.6437 8.34641 23.2632 7.06433 22.624C5.78224 21.9848 4.63862 21.0993 3.69875 20.0181C2.75887 18.9369 2.04116 17.6812 1.58659 16.3226C1.13202 14.964 0.949491 13.5292 1.04942 12.1001L11.9319 12.8611L11.171 23.7436Z" fill="#25C16F"/>
<path d="M7.58181 12.5523C7.62178 11.9807 7.77396 11.4225 8.02965 10.9097C8.28534 10.3968 8.63953 9.9394 9.07201 9.56345C9.50449 9.1875 10.0068 8.90042 10.5502 8.71859C11.0936 8.53676 11.6676 8.46375 12.2392 8.50372L11.9348 12.8567L7.58181 12.5523Z" fill="#D33C4E"/>
<path d="M17.9367 13.2713C17.989 12.4861 17.8857 11.6982 17.6327 10.9527C17.3798 10.2072 16.9821 9.51864 16.4625 8.92635C15.9429 8.33406 15.3114 7.84964 14.6042 7.50074C13.8969 7.15184 13.1278 6.9453 12.3406 6.8929L11.9426 12.8724L17.9367 13.2713Z" fill="#45A4EC"/>
<path d="M5.91766 12.4565C5.86638 13.2409 5.97083 14.0277 6.22505 14.7721C6.47927 15.5165 6.87829 16.2038 7.39932 16.7949C7.92035 17.386 8.55318 17.8692 9.2617 18.217C9.97021 18.5648 10.7405 18.7703 11.5287 18.8218L11.9192 12.8489L5.91766 12.4565Z" fill="#8BDF55"/>
<path d="M36.6896 14.0477H32.4169V11.8043H36.6896C37.4337 11.8043 38.0349 11.684 38.4934 11.4435C38.9518 11.203 39.2863 10.8723 39.4967 10.4514C39.7147 10.0231 39.8236 9.53454 39.8236 8.98589C39.8236 8.46731 39.7147 7.98255 39.4967 7.53161C39.2863 7.07315 38.9518 6.70488 38.4934 6.4268C38.0349 6.14872 37.4337 6.00968 36.6896 6.00968H33.285V20.1692H30.4553V3.75497H36.6896C37.9598 3.75497 39.0383 3.98044 39.9251 4.43139C40.8195 4.87481 41.4996 5.4911 41.9656 6.28024C42.4316 7.06188 42.6646 7.95624 42.6646 8.96334C42.6646 10.0231 42.4316 10.9325 41.9656 11.6915C41.4996 12.4506 40.8195 13.0331 39.9251 13.4389C39.0383 13.8448 37.9598 14.0477 36.6896 14.0477ZM46.9661 10.2936V20.1692H44.2492V7.97127H46.8421L46.9661 10.2936ZM50.6976 7.89236L50.6751 10.4176C50.5097 10.3876 50.3294 10.365 50.134 10.35C49.9461 10.335 49.7582 10.3274 49.5703 10.3274C49.1043 10.3274 48.6947 10.3951 48.3415 10.5304C47.9882 10.6581 47.6914 10.846 47.4509 11.094C47.2179 11.3345 47.0375 11.6277 46.9097 11.9734C46.782 12.3191 46.7068 12.7062 46.6843 13.1345L46.0642 13.1796C46.0642 12.413 46.1394 11.7028 46.2897 11.0489C46.44 10.3951 46.6655 9.82013 46.9661 9.3241C47.2742 8.82806 47.6575 8.441 48.116 8.16292C48.582 7.88484 49.1193 7.7458 49.7281 7.7458C49.8935 7.7458 50.0701 7.76083 50.258 7.7909C50.4534 7.82096 50.5999 7.85478 50.6976 7.89236ZM54.6159 7.97127V20.1692H51.8877V7.97127H54.6159ZM51.7073 4.76959C51.7073 4.35623 51.8426 4.01427 52.1131 3.7437C52.3912 3.46562 52.7745 3.32658 53.263 3.32658C53.744 3.32658 54.1236 3.46562 54.4017 3.7437C54.6797 4.01427 54.8188 4.35623 54.8188 4.76959C54.8188 5.17544 54.6797 5.51364 54.4017 5.78421C54.1236 6.05477 53.744 6.19006 53.263 6.19006C52.7745 6.19006 52.3912 6.05477 52.1131 5.78421C51.8426 5.51364 51.7073 5.17544 51.7073 4.76959ZM60.8677 18.016L63.8552 7.97127H66.6736L62.4347 20.1692H60.6761L60.8677 18.016ZM58.5792 7.97127L61.623 18.0611L61.7696 20.1692H60.0109L55.7495 7.97127H58.5792ZM74.3572 17.7229V11.9057C74.3572 11.4698 74.2782 11.094 74.1204 10.7784C73.9626 10.4627 73.7221 10.2185 73.3989 10.0456C73.0833 9.87274 72.6849 9.78631 72.2039 9.78631C71.7605 9.78631 71.3772 9.86147 71.054 10.0118C70.7308 10.1621 70.4791 10.365 70.2987 10.6206C70.1183 10.8761 70.0281 11.1654 70.0281 11.4886H67.3225C67.3225 11.0076 67.439 10.5416 67.672 10.0907C67.9049 9.63975 68.2432 9.23767 68.6866 8.88443C69.13 8.53119 69.6599 8.25311 70.2761 8.05019C70.8924 7.84726 71.5839 7.7458 72.3505 7.7458C73.2674 7.7458 74.0791 7.89987 74.7856 8.20802C75.4995 8.51616 76.0595 8.98213 76.4653 9.60593C76.8787 10.2222 77.0854 10.9963 77.0854 11.9283V17.3508C77.0854 17.907 77.1229 18.4068 77.1981 18.8502C77.2808 19.2861 77.3973 19.6657 77.5476 19.9889V20.1692H74.763C74.6352 19.8761 74.5338 19.5041 74.4586 19.0531C74.391 18.5947 74.3572 18.1513 74.3572 17.7229ZM74.7517 12.7512L74.7743 14.431H72.824C72.3204 14.431 71.877 14.4799 71.4937 14.5776C71.1104 14.6677 70.791 14.803 70.5354 14.9834C70.2799 15.1638 70.0883 15.3817 69.9605 15.6373C69.8327 15.8928 69.7688 16.1822 69.7688 16.5053C69.7688 16.8285 69.844 17.1254 69.9943 17.3959C70.1446 17.659 70.3626 17.8657 70.6482 18.016C70.9413 18.1663 71.2945 18.2415 71.7079 18.2415C72.264 18.2415 72.7488 18.1287 73.1622 17.9032C73.583 17.6703 73.9137 17.3884 74.1542 17.0577C74.3947 16.7195 74.5225 16.4001 74.5375 16.0995L75.4169 17.3058C75.3267 17.6139 75.1726 17.9446 74.9547 18.2978C74.7367 18.6511 74.4511 18.9893 74.0979 19.3124C73.7521 19.6281 73.335 19.8874 72.8465 20.0903C72.3655 20.2932 71.8093 20.3947 71.178 20.3947C70.3814 20.3947 69.6711 20.2369 69.0473 19.9212C68.4235 19.598 67.935 19.1659 67.5818 18.6248C67.2285 18.0761 67.0519 17.4561 67.0519 16.7646C67.0519 16.1183 67.1722 15.5471 67.4127 15.051C67.6607 14.5475 68.0214 14.1266 68.4949 13.7884C68.9759 13.4502 69.5622 13.1947 70.2536 13.0218C70.945 12.8414 71.7342 12.7512 72.621 12.7512H74.7517ZM84.2165 18.2302C84.66 18.2302 85.0583 18.1438 85.4115 17.9709C85.7723 17.7905 86.0616 17.5425 86.2796 17.2268C86.5051 16.9112 86.6291 16.5467 86.6516 16.1333H89.2107C89.1957 16.9225 88.9627 17.6402 88.5117 18.2865C88.0608 18.9329 87.4633 19.4477 86.7193 19.831C85.9752 20.2068 85.1522 20.3947 84.2504 20.3947C83.3184 20.3947 82.5067 20.2369 81.8153 19.9212C81.1238 19.598 80.5489 19.1546 80.0904 18.5909C79.632 18.0273 79.2862 17.3772 79.0533 16.6406C78.8278 15.9041 78.7151 15.1149 78.7151 14.2732V13.8786C78.7151 13.0368 78.8278 12.2477 79.0533 11.5112C79.2862 10.7671 79.632 10.1132 80.0904 9.54957C80.5489 8.98589 81.1238 8.54622 81.8153 8.23056C82.5067 7.90739 83.3147 7.7458 84.2391 7.7458C85.2161 7.7458 86.0729 7.94121 86.8094 8.33203C87.546 8.71533 88.1247 9.2527 88.5456 9.94414C88.974 10.6281 89.1957 11.4247 89.2107 12.3341H86.6516C86.6291 11.8832 86.5163 11.4773 86.3134 11.1166C86.118 10.7483 85.8399 10.4552 85.4792 10.2373C85.1259 10.0193 84.7013 9.91032 84.2053 9.91032C83.6566 9.91032 83.2019 10.0231 82.8412 10.2485C82.4804 10.4665 82.1986 10.7671 81.9957 11.1504C81.7927 11.5262 81.6462 11.9508 81.556 12.4243C81.4733 12.8903 81.432 13.375 81.432 13.8786V14.2732C81.432 14.7767 81.4733 15.2652 81.556 15.7387C81.6387 16.2122 81.7815 16.6369 81.9844 17.0126C82.1948 17.3809 82.4804 17.6778 82.8412 17.9032C83.2019 18.1212 83.6604 18.2302 84.2165 18.2302ZM94.1435 18.839L97.458 7.97127H100.367L95.4738 22.0294C95.3611 22.33 95.2145 22.6569 95.0342 23.0102C94.8538 23.3634 94.617 23.6978 94.3239 24.0135C94.0383 24.3367 93.6813 24.596 93.2529 24.7914C92.8245 24.9943 92.306 25.0958 91.6972 25.0958C91.4567 25.0958 91.2237 25.0732 90.9982 25.0281C90.7803 24.9905 90.5736 24.9492 90.3782 24.9041L90.3669 22.8298C90.4421 22.8373 90.5323 22.8448 90.6375 22.8523C90.7502 22.8598 90.8404 22.8636 90.908 22.8636C91.359 22.8636 91.7348 22.8072 92.0354 22.6945C92.336 22.5893 92.5803 22.4164 92.7682 22.1759C92.9636 21.9354 93.1289 21.6122 93.2642 21.2064L94.1435 18.839ZM92.2721 7.97127L95.1694 17.1028L95.6542 19.9663L93.7715 20.4511L89.341 7.97127H92.2721ZM112.791 14.0477H108.519V11.8043H112.791C113.535 11.8043 114.137 11.684 114.595 11.4435C115.054 11.203 115.388 10.8723 115.598 10.4514C115.816 10.0231 115.925 9.53454 115.925 8.98589C115.925 8.46731 115.816 7.98255 115.598 7.53161C115.388 7.07315 115.054 6.70488 114.595 6.4268C114.137 6.14872 113.535 6.00968 112.791 6.00968H109.387V20.1692H106.557V3.75497H112.791C114.061 3.75497 115.14 3.98044 116.027 4.43139C116.921 4.87481 117.601 5.4911 118.067 6.28024C118.533 7.06188 118.766 7.95624 118.766 8.96334C118.766 10.0231 118.533 10.9325 118.067 11.6915C117.601 12.4506 116.921 13.0331 116.027 13.4389C115.14 13.8448 114.061 14.0477 112.791 14.0477ZM119.663 14.2055V13.9462C119.663 13.0669 119.791 12.2515 120.047 11.4999C120.302 10.7408 120.67 10.0832 121.151 9.52702C121.64 8.96334 122.234 8.52743 122.933 8.21929C123.639 7.90363 124.436 7.7458 125.323 7.7458C126.217 7.7458 127.014 7.90363 127.712 8.21929C128.419 8.52743 129.016 8.96334 129.505 9.52702C129.994 10.0832 130.366 10.7408 130.621 11.4999C130.877 12.2515 131.004 13.0669 131.004 13.9462V14.2055C131.004 15.0849 130.877 15.9003 130.621 16.6519C130.366 17.4035 129.994 18.0611 129.505 18.6248C129.016 19.1809 128.423 19.6168 127.724 19.9325C127.025 20.2406 126.232 20.3947 125.345 20.3947C124.451 20.3947 123.65 20.2406 122.944 19.9325C122.245 19.6168 121.651 19.1809 121.163 18.6248C120.674 18.0611 120.302 17.4035 120.047 16.6519C119.791 15.9003 119.663 15.0849 119.663 14.2055ZM122.38 13.9462V14.2055C122.38 14.7542 122.436 15.2728 122.549 15.7613C122.662 16.2498 122.839 16.6782 123.079 17.0465C123.32 17.4147 123.628 17.7041 124.004 17.9145C124.379 18.125 124.826 18.2302 125.345 18.2302C125.849 18.2302 126.285 18.125 126.653 17.9145C127.029 17.7041 127.337 17.4147 127.577 17.0465C127.818 16.6782 127.994 16.2498 128.107 15.7613C128.227 15.2728 128.287 14.7542 128.287 14.2055V13.9462C128.287 13.4051 128.227 12.894 128.107 12.413C127.994 11.9245 127.814 11.4924 127.566 11.1166C127.325 10.7408 127.017 10.4477 126.642 10.2373C126.273 10.0193 125.834 9.91032 125.323 9.91032C124.811 9.91032 124.368 10.0193 123.992 10.2373C123.624 10.4477 123.32 10.7408 123.079 11.1166C122.839 11.4924 122.662 11.9245 122.549 12.413C122.436 12.894 122.38 13.4051 122.38 13.9462ZM135.498 2.85309V20.1692H132.769V2.85309H135.498ZM140.69 7.97127V20.1692H137.961V7.97127H140.69ZM137.781 4.76959C137.781 4.35623 137.916 4.01427 138.187 3.7437C138.465 3.46562 138.848 3.32658 139.337 3.32658C139.818 3.32658 140.197 3.46562 140.475 3.7437C140.754 4.01427 140.893 4.35623 140.893 4.76959C140.893 5.17544 140.754 5.51364 140.475 5.78421C140.197 6.05477 139.818 6.19006 139.337 6.19006C138.848 6.19006 138.465 6.05477 138.187 5.78421C137.916 5.51364 137.781 5.17544 137.781 4.76959ZM147.956 18.2302C148.4 18.2302 148.798 18.1438 149.151 17.9709C149.512 17.7905 149.801 17.5425 150.019 17.2268C150.245 16.9112 150.369 16.5467 150.391 16.1333H152.95C152.935 16.9225 152.702 17.6402 152.251 18.2865C151.8 18.9329 151.203 19.4477 150.459 19.831C149.715 20.2068 148.892 20.3947 147.99 20.3947C147.058 20.3947 146.246 20.2369 145.555 19.9212C144.863 19.598 144.288 19.1546 143.83 18.5909C143.372 18.0273 143.026 17.3772 142.793 16.6406C142.567 15.9041 142.455 15.1149 142.455 14.2732V13.8786C142.455 13.0368 142.567 12.2477 142.793 11.5112C143.026 10.7671 143.372 10.1132 143.83 9.54957C144.288 8.98589 144.863 8.54622 145.555 8.23056C146.246 7.90739 147.054 7.7458 147.979 7.7458C148.956 7.7458 149.813 7.94121 150.549 8.33203C151.286 8.71533 151.864 9.2527 152.285 9.94414C152.714 10.6281 152.935 11.4247 152.95 12.3341H150.391C150.369 11.8832 150.256 11.4773 150.053 11.1166C149.858 10.7483 149.58 10.4552 149.219 10.2373C148.866 10.0193 148.441 9.91032 147.945 9.91032C147.396 9.91032 146.942 10.0231 146.581 10.2485C146.22 10.4665 145.938 10.7671 145.735 11.1504C145.532 11.5262 145.386 11.9508 145.296 12.4243C145.213 12.8903 145.172 13.375 145.172 13.8786V14.2732C145.172 14.7767 145.213 15.2652 145.296 15.7387C145.378 16.2122 145.521 16.6369 145.724 17.0126C145.934 17.3809 146.22 17.6778 146.581 17.9032C146.942 18.1212 147.4 18.2302 147.956 18.2302ZM157.883 18.839L161.198 7.97127H164.106L159.213 22.0294C159.101 22.33 158.954 22.6569 158.774 23.0102C158.593 23.3634 158.357 23.6978 158.064 24.0135C157.778 24.3367 157.421 24.596 156.993 24.7914C156.564 24.9943 156.046 25.0958 155.437 25.0958C155.196 25.0958 154.963 25.0732 154.738 25.0281C154.52 24.9905 154.313 24.9492 154.118 24.9041L154.107 22.8298C154.182 22.8373 154.272 22.8448 154.377 22.8523C154.49 22.8598 154.58 22.8636 154.648 22.8636C155.099 22.8636 155.474 22.8072 155.775 22.6945C156.076 22.5893 156.32 22.4164 156.508 22.1759C156.703 21.9354 156.869 21.6122 157.004 21.2064L157.883 18.839ZM156.012 7.97127L158.909 17.1028L159.394 19.9663L157.511 20.4511L153.081 7.97127H156.012Z" fill="#1D2026"/>
</svg>
