<svg width="109" height="26" viewBox="0 0 109 26" fill="none" xmlns="http://www.w3.org/2000/svg">
<path d="M22.8139 13.6206C22.7139 15.0497 22.3335 16.4451 21.6943 17.7272C21.055 19.0093 20.1696 20.1529 19.0884 21.0928C18.0072 22.0327 16.7514 22.7504 15.3929 23.2049C14.0343 23.6595 12.5995 23.8421 11.1704 23.7421L11.9314 12.8596L22.8139 13.6206Z" fill="#FFA800"/>
<path d="M16.2878 13.1611C16.2478 13.7328 16.0957 14.2909 15.84 14.8038C15.5843 15.3166 15.2301 15.7741 14.7976 16.15C14.3651 16.526 13.8628 16.813 13.3194 16.9949C12.776 17.1767 12.2021 17.2497 11.6304 17.2097L11.9348 12.8567L16.2878 13.1611Z" fill="#FFBB00"/>
<path d="M12.6926 1.98173L19.2221 2.43832C21.6262 2.60643 23.4389 4.69162 23.2708 7.09571L22.8142 13.6252L11.9316 12.8642L12.6926 1.98173Z" fill="#59F2F6"/>
<path d="M1.04795 12.1007C1.14788 10.6716 1.52832 9.27614 2.16754 7.99406C2.80677 6.71197 3.69226 5.56834 4.77345 4.62847C5.85465 3.6886 7.11039 2.97089 8.46896 2.51632C9.82753 2.06175 11.2623 1.87922 12.6914 1.97915L11.9305 12.8617L1.04795 12.1007Z" fill="#EE5A24"/>
<path d="M11.171 23.7436C9.74185 23.6437 8.34641 23.2632 7.06433 22.624C5.78224 21.9848 4.63862 21.0993 3.69875 20.0181C2.75887 18.9369 2.04116 17.6812 1.58659 16.3226C1.13202 14.964 0.949491 13.5292 1.04942 12.1001L11.9319 12.8611L11.171 23.7436Z" fill="#25C16F"/>
<path d="M7.58181 12.5523C7.62178 11.9807 7.77396 11.4225 8.02965 10.9097C8.28534 10.3968 8.63953 9.9394 9.07201 9.56345C9.50449 9.1875 10.0068 8.90042 10.5502 8.71859C11.0936 8.53676 11.6676 8.46375 12.2392 8.50372L11.9348 12.8567L7.58181 12.5523Z" fill="#D33C4E"/>
<path d="M17.9367 13.2713C17.989 12.4861 17.8857 11.6982 17.6327 10.9527C17.3798 10.2072 16.9821 9.51864 16.4625 8.92635C15.9429 8.33406 15.3114 7.84964 14.6042 7.50074C13.8969 7.15184 13.1278 6.9453 12.3406 6.8929L11.9426 12.8724L17.9367 13.2713Z" fill="#45A4EC"/>
<path d="M5.91766 12.4565C5.86638 13.2409 5.97083 14.0277 6.22505 14.7721C6.47927 15.5165 6.87829 16.2038 7.39932 16.7949C7.92035 17.386 8.55318 17.8692 9.2617 18.217C9.97021 18.5648 10.7405 18.7703 11.5287 18.8218L11.9192 12.8489L5.91766 12.4565Z" fill="#8BDF55"/>
<path d="M39.0909 15.9417C39.0909 15.6034 39.0383 15.3028 38.933 15.0398C38.8353 14.7767 38.6587 14.5362 38.4032 14.3183C38.1476 14.1003 37.7869 13.8899 37.3209 13.687C36.8625 13.4765 36.2762 13.2623 35.5623 13.0444C34.7806 12.8039 34.0591 12.5371 33.3977 12.2439C32.7439 11.9433 32.1727 11.5976 31.6842 11.2068C31.1956 10.8084 30.8161 10.3537 30.5455 9.84268C30.275 9.3241 30.1397 8.7266 30.1397 8.05019C30.1397 7.38129 30.2787 6.77252 30.5568 6.22388C30.8424 5.67523 31.2445 5.20174 31.7631 4.80341C32.2892 4.39757 32.9092 4.08566 33.6232 3.86771C34.3372 3.64224 35.1263 3.5295 35.9906 3.5295C37.2082 3.5295 38.2566 3.75497 39.136 4.20592C40.0228 4.65686 40.703 5.26187 41.1765 6.02095C41.6575 6.78004 41.898 7.61804 41.898 8.53495H39.0909C39.0909 7.99382 38.9744 7.51657 38.7414 7.10321C38.5159 6.68233 38.1702 6.35164 37.7042 6.11114C37.2458 5.87064 36.6633 5.75039 35.9568 5.75039C35.2879 5.75039 34.7318 5.85185 34.2883 6.05477C33.8449 6.2577 33.5142 6.53202 33.2963 6.87774C33.0783 7.22346 32.9693 7.61428 32.9693 8.05019C32.9693 8.35833 33.0407 8.64017 33.1835 8.8957C33.3263 9.14372 33.5443 9.37671 33.8374 9.59466C34.1305 9.8051 34.4988 10.0043 34.9422 10.1922C35.3856 10.38 35.908 10.5604 36.5092 10.7333C37.4186 11.0039 38.2115 11.3045 38.8879 11.6352C39.5644 11.9583 40.128 12.3266 40.579 12.74C41.0299 13.1533 41.3681 13.6231 41.5936 14.1492C41.8191 14.6677 41.9318 15.2577 41.9318 15.9191C41.9318 16.6106 41.7928 17.2344 41.5147 17.7905C41.2366 18.3392 40.8383 18.8089 40.3197 19.1997C39.8086 19.583 39.1923 19.8799 38.4708 20.0903C37.7568 20.2932 36.9602 20.3947 36.0808 20.3947C35.2917 20.3947 34.5138 20.2895 33.7472 20.079C32.9881 19.8686 32.2967 19.5492 31.6729 19.1208C31.0491 18.6849 30.5531 18.1438 30.1848 17.4974C29.8165 16.8435 29.6324 16.0807 29.6324 15.2089H32.462C32.462 15.7425 32.5522 16.1972 32.7326 16.573C32.9205 16.9488 33.1798 17.2569 33.5105 17.4974C33.8412 17.7304 34.2245 17.9032 34.6604 18.016C35.1038 18.1287 35.5773 18.1851 36.0808 18.1851C36.7422 18.1851 37.2946 18.0911 37.738 17.9032C38.189 17.7154 38.5272 17.4523 38.7527 17.1141C38.9781 16.7759 39.0909 16.3851 39.0909 15.9417ZM48.8488 20.3947C47.9469 20.3947 47.1314 20.2481 46.4024 19.955C45.6809 19.6544 45.0646 19.2373 44.5536 18.7037C44.05 18.1701 43.663 17.5425 43.3924 16.821C43.1218 16.0995 42.9865 15.3216 42.9865 14.4874V14.0364C42.9865 13.0819 43.1256 12.2176 43.4037 11.4435C43.6817 10.6694 44.0688 10.008 44.5648 9.45938C45.0609 8.90322 45.6471 8.47858 46.3235 8.18547C46.9999 7.89236 47.7327 7.7458 48.5218 7.7458C49.3937 7.7458 50.1565 7.89236 50.8104 8.18547C51.4642 8.47858 52.0054 8.89194 52.4338 9.42556C52.8697 9.95166 53.1928 10.5792 53.4033 11.3082C53.6212 12.0373 53.7302 12.8414 53.7302 13.7208V14.8819H44.3055V12.9316H51.0471V12.7174C51.0321 12.2289 50.9344 11.7705 50.754 11.3421C50.5811 10.9137 50.3143 10.5679 49.9536 10.3049C49.5928 10.0418 49.1118 9.91032 48.5106 9.91032C48.0596 9.91032 47.6575 10.008 47.3043 10.2034C46.9586 10.3913 46.6692 10.6656 46.4362 11.0264C46.2033 11.3872 46.0229 11.8231 45.8951 12.3341C45.7749 12.8377 45.7147 13.4051 45.7147 14.0364V14.4874C45.7147 15.021 45.7861 15.517 45.9289 15.9755C46.0793 16.4264 46.2972 16.821 46.5828 17.1592C46.8684 17.4974 47.2141 17.7642 47.62 17.9596C48.0258 18.1475 48.488 18.2415 49.0066 18.2415C49.6605 18.2415 50.2429 18.1099 50.754 17.8469C51.2651 17.5838 51.7085 17.2118 52.0843 16.7308L53.516 18.1174C53.253 18.5007 52.911 18.869 52.4901 19.2223C52.0693 19.568 51.5544 19.8498 50.9457 20.0678C50.3444 20.2857 49.6454 20.3947 48.8488 20.3947ZM60.1399 18.2302C60.5833 18.2302 60.9816 18.1438 61.3349 17.9709C61.6956 17.7905 61.985 17.5425 62.2029 17.2268C62.4284 16.9112 62.5524 16.5467 62.575 16.1333H65.1341C65.119 16.9225 64.886 17.6402 64.4351 18.2865C63.9842 18.9329 63.3867 19.4477 62.6426 19.831C61.8986 20.2068 61.0756 20.3947 60.1737 20.3947C59.2418 20.3947 58.4301 20.2369 57.7386 19.9212C57.0472 19.598 56.4722 19.1546 56.0138 18.5909C55.5553 18.0273 55.2096 17.3772 54.9766 16.6406C54.7511 15.9041 54.6384 15.1149 54.6384 14.2732V13.8786C54.6384 13.0368 54.7511 12.2477 54.9766 11.5112C55.2096 10.7671 55.5553 10.1132 56.0138 9.54957C56.4722 8.98589 57.0472 8.54622 57.7386 8.23056C58.4301 7.90739 59.238 7.7458 60.1624 7.7458C61.1395 7.7458 61.9963 7.94121 62.7328 8.33203C63.4693 8.71533 64.048 9.2527 64.4689 9.94414C64.8973 10.6281 65.119 11.4247 65.1341 12.3341H62.575C62.5524 11.8832 62.4397 11.4773 62.2368 11.1166C62.0414 10.7483 61.7633 10.4552 61.4025 10.2373C61.0493 10.0193 60.6247 9.91032 60.1286 9.91032C59.58 9.91032 59.1253 10.0231 58.7645 10.2485C58.4038 10.4665 58.1219 10.7671 57.919 11.1504C57.7161 11.5262 57.5695 11.9508 57.4793 12.4243C57.3967 12.8903 57.3553 13.375 57.3553 13.8786V14.2732C57.3553 14.7767 57.3967 15.2652 57.4793 15.7387C57.562 16.2122 57.7048 16.6369 57.9077 17.0126C58.1182 17.3809 58.4038 17.6778 58.7645 17.9032C59.1253 18.1212 59.5837 18.2302 60.1399 18.2302ZM73.8661 17.2945V7.97127H76.5943V20.1692H74.0239L73.8661 17.2945ZM74.2494 14.7579L75.1625 14.7354C75.1625 15.5546 75.0724 16.3099 74.892 17.0014C74.7116 17.6853 74.4335 18.2828 74.0577 18.7939C73.682 19.2974 73.2009 19.692 72.6147 19.9776C72.0285 20.2557 71.3258 20.3947 70.5066 20.3947C69.9128 20.3947 69.368 20.3083 68.8719 20.1354C68.3759 19.9625 67.9475 19.6957 67.5867 19.335C67.2335 18.9742 66.9592 18.5045 66.7638 17.9258C66.5684 17.3471 66.4707 16.6556 66.4707 15.8515V7.97127H69.1876V15.874C69.1876 16.3174 69.2402 16.6895 69.3454 16.9901C69.4506 17.2832 69.5934 17.5199 69.7738 17.7003C69.9542 17.8807 70.1646 18.0085 70.4051 18.0836C70.6456 18.1588 70.9011 18.1964 71.1717 18.1964C71.9458 18.1964 72.5546 18.046 72.998 17.7454C73.449 17.4373 73.7684 17.0239 73.9563 16.5053C74.1517 15.9867 74.2494 15.4043 74.2494 14.7579ZM81.4144 10.2936V20.1692H78.6975V7.97127H81.2904L81.4144 10.2936ZM85.1459 7.89236L85.1234 10.4176C84.958 10.3876 84.7777 10.365 84.5822 10.35C84.3944 10.335 84.2065 10.3274 84.0186 10.3274C83.5526 10.3274 83.143 10.3951 82.7898 10.5304C82.4365 10.6581 82.1397 10.846 81.8991 11.094C81.6662 11.3345 81.4858 11.6277 81.358 11.9734C81.2303 12.3191 81.1551 12.7062 81.1325 13.1345L80.5125 13.1796C80.5125 12.413 80.5877 11.7028 80.738 11.0489C80.8883 10.3951 81.1138 9.82013 81.4144 9.3241C81.7225 8.82806 82.1058 8.441 82.5643 8.16292C83.0303 7.88484 83.5676 7.7458 84.1764 7.7458C84.3417 7.7458 84.5184 7.76083 84.7063 7.7909C84.9017 7.82096 85.0482 7.85478 85.1459 7.89236ZM89.0642 7.97127V20.1692H86.336V7.97127H89.0642ZM86.1556 4.76959C86.1556 4.35623 86.2909 4.01427 86.5614 3.7437C86.8395 3.46562 87.2228 3.32658 87.7113 3.32658C88.1923 3.32658 88.5719 3.46562 88.85 3.7437C89.128 4.01427 89.2671 4.35623 89.2671 4.76959C89.2671 5.17544 89.128 5.51364 88.85 5.78421C88.5719 6.05477 88.1923 6.19006 87.7113 6.19006C87.2228 6.19006 86.8395 6.05477 86.5614 5.78421C86.2909 5.51364 86.1556 5.17544 86.1556 4.76959ZM96.9394 7.97127V9.95541H90.0625V7.97127H96.9394ZM92.0467 4.98379H94.7636V16.7984C94.7636 17.1742 94.8162 17.4636 94.9214 17.6665C95.0342 17.8619 95.1882 17.9934 95.3836 18.0611C95.579 18.1287 95.8083 18.1625 96.0713 18.1625C96.2592 18.1625 96.4396 18.1513 96.6125 18.1287C96.7853 18.1062 96.9244 18.0836 97.0296 18.0611L97.0408 20.1354C96.8154 20.203 96.5523 20.2632 96.2517 20.3158C95.9586 20.3684 95.6204 20.3947 95.2371 20.3947C94.6133 20.3947 94.0609 20.2857 93.5799 20.0678C93.0989 19.8423 92.7231 19.4778 92.4525 18.9742C92.182 18.4707 92.0467 17.8018 92.0467 16.9675V4.98379ZM101.884 18.839L105.198 7.97127H108.106L103.214 22.0294C103.101 22.33 102.954 22.6569 102.774 23.0102C102.594 23.3634 102.357 23.6978 102.064 24.0135C101.778 24.3367 101.421 24.596 100.993 24.7914C100.565 24.9943 100.046 25.0958 99.4372 25.0958C99.1966 25.0958 98.9637 25.0732 98.7382 25.0281C98.5202 24.9905 98.3136 24.9492 98.1181 24.9041L98.1069 22.8298C98.182 22.8373 98.2722 22.8448 98.3774 22.8523C98.4902 22.8598 98.5804 22.8636 98.648 22.8636C99.0989 22.8636 99.4747 22.8072 99.7754 22.6945C100.076 22.5893 100.32 22.4164 100.508 22.1759C100.704 21.9354 100.869 21.6122 101.004 21.2064L101.884 18.839ZM100.012 7.97127L102.909 17.1028L103.394 19.9663L101.511 20.4511L97.081 7.97127H100.012Z" fill="#1D2026"/>
</svg>
