<svg width="221" height="25" viewBox="0 0 221 25" fill="none" xmlns="http://www.w3.org/2000/svg">
<path d="M22.8139 13.6206C22.7139 15.0497 22.3335 16.4451 21.6943 17.7272C21.055 19.0093 20.1696 20.1529 19.0884 21.0928C18.0072 22.0327 16.7514 22.7504 15.3929 23.2049C14.0343 23.6595 12.5995 23.8421 11.1704 23.7421L11.9314 12.8596L22.8139 13.6206Z" fill="#FFA800"/>
<path d="M16.2878 13.1611C16.2478 13.7328 16.0957 14.2909 15.84 14.8038C15.5843 15.3166 15.2301 15.7741 14.7976 16.15C14.3651 16.526 13.8628 16.813 13.3194 16.9949C12.776 17.1767 12.2021 17.2497 11.6304 17.2097L11.9348 12.8567L16.2878 13.1611Z" fill="#FFBB00"/>
<path d="M12.6926 1.98173L19.2221 2.43832C21.6262 2.60643 23.4389 4.69162 23.2708 7.09571L22.8142 13.6252L11.9316 12.8642L12.6926 1.98173Z" fill="#59F2F6"/>
<path d="M1.04795 12.1007C1.14788 10.6716 1.52832 9.27614 2.16754 7.99406C2.80677 6.71197 3.69226 5.56834 4.77345 4.62847C5.85465 3.6886 7.11039 2.97089 8.46896 2.51632C9.82753 2.06175 11.2623 1.87922 12.6914 1.97915L11.9305 12.8617L1.04795 12.1007Z" fill="#EE5A24"/>
<path d="M11.171 23.7436C9.74185 23.6437 8.34641 23.2632 7.06433 22.624C5.78224 21.9848 4.63862 21.0993 3.69875 20.0181C2.75887 18.9369 2.04116 17.6812 1.58659 16.3226C1.13202 14.964 0.949491 13.5292 1.04942 12.1001L11.9319 12.8611L11.171 23.7436Z" fill="#25C16F"/>
<path d="M7.58181 12.5523C7.62178 11.9807 7.77396 11.4225 8.02965 10.9097C8.28534 10.3968 8.63953 9.9394 9.07201 9.56345C9.50449 9.1875 10.0068 8.90042 10.5502 8.71859C11.0936 8.53676 11.6676 8.46375 12.2392 8.50372L11.9348 12.8567L7.58181 12.5523Z" fill="#D33C4E"/>
<path d="M17.9367 13.2713C17.989 12.4861 17.8857 11.6982 17.6327 10.9527C17.3798 10.2072 16.9821 9.51864 16.4625 8.92635C15.9429 8.33406 15.3114 7.84964 14.6042 7.50074C13.8969 7.15184 13.1278 6.9453 12.3406 6.8929L11.9426 12.8724L17.9367 13.2713Z" fill="#45A4EC"/>
<path d="M5.91766 12.4565C5.86638 13.2409 5.97083 14.0277 6.22505 14.7721C6.47927 15.5165 6.87829 16.2038 7.39932 16.7949C7.92035 17.386 8.55318 17.8692 9.2617 18.217C9.97021 18.5648 10.7405 18.7703 11.5287 18.8218L11.9192 12.8489L5.91766 12.4565Z" fill="#8BDF55"/>
<path d="M37.2082 3.75497V20.1692H34.4011V3.75497H37.2082ZM42.3602 3.75497V6.00968H29.2942V3.75497H42.3602ZM47.8567 20.3947C46.9548 20.3947 46.1394 20.2481 45.4104 19.955C44.6888 19.6544 44.0726 19.2373 43.5615 18.7037C43.0579 18.1701 42.6709 17.5425 42.4003 16.821C42.1298 16.0995 41.9945 15.3216 41.9945 14.4874V14.0364C41.9945 13.0819 42.1335 12.2176 42.4116 11.4435C42.6897 10.6694 43.0767 10.008 43.5728 9.45938C44.0688 8.90322 44.655 8.47858 45.3314 8.18547C46.0079 7.89236 46.7406 7.7458 47.5298 7.7458C48.4016 7.7458 49.1644 7.89236 49.8183 8.18547C50.4722 8.47858 51.0133 8.89194 51.4417 9.42556C51.8776 9.95166 52.2008 10.5792 52.4112 11.3082C52.6292 12.0373 52.7381 12.8414 52.7381 13.7208V14.8819H43.3135V12.9316H50.055V12.7174C50.04 12.2289 49.9423 11.7705 49.7619 11.3421C49.5891 10.9137 49.3223 10.5679 48.9615 10.3049C48.6008 10.0418 48.1198 9.91032 47.5185 9.91032C47.0676 9.91032 46.6655 10.008 46.3122 10.2034C45.9665 10.3913 45.6772 10.6656 45.4442 11.0264C45.2112 11.3872 45.0308 11.8231 44.903 12.3341C44.7828 12.8377 44.7227 13.4051 44.7227 14.0364V14.4874C44.7227 15.021 44.7941 15.517 44.9369 15.9755C45.0872 16.4264 45.3051 16.821 45.5907 17.1592C45.8763 17.4974 46.222 17.7642 46.6279 17.9596C47.0337 18.1475 47.496 18.2415 48.0145 18.2415C48.6684 18.2415 49.2509 18.1099 49.7619 17.8469C50.273 17.5838 50.7164 17.2118 51.0922 16.7308L52.524 18.1174C52.2609 18.5007 51.9189 18.869 51.4981 19.2223C51.0772 19.568 50.5624 19.8498 49.9536 20.0678C49.3523 20.2857 48.6534 20.3947 47.8567 20.3947ZM56.8931 10.2936V20.1692H54.1762V7.97127H56.7691L56.8931 10.2936ZM60.6247 7.89236L60.6021 10.4176C60.4368 10.3876 60.2564 10.365 60.061 10.35C59.8731 10.335 59.6852 10.3274 59.4973 10.3274C59.0313 10.3274 58.6217 10.3951 58.2685 10.5304C57.9153 10.6581 57.6184 10.846 57.3779 11.094C57.1449 11.3345 56.9645 11.6277 56.8368 11.9734C56.709 12.3191 56.6338 12.7062 56.6113 13.1345L55.9912 13.1796C55.9912 12.413 56.0664 11.7028 56.2167 11.0489C56.367 10.3951 56.5925 9.82013 56.8931 9.3241C57.2013 8.82806 57.5846 8.441 58.043 8.16292C58.509 7.88484 59.0464 7.7458 59.6551 7.7458C59.8205 7.7458 59.9971 7.76083 60.185 7.7909C60.3804 7.82096 60.527 7.85478 60.6247 7.89236ZM64.3512 10.4514V20.1692H61.6343V7.97127H64.1934L64.3512 10.4514ZM63.9116 13.6193L62.9871 13.608C62.9871 12.7663 63.0924 11.9884 63.3028 11.2744C63.5132 10.5604 63.8214 9.94038 64.2272 9.41428C64.6331 8.88067 65.1366 8.47107 65.7379 8.18547C66.3466 7.89236 67.0494 7.7458 67.846 7.7458C68.4022 7.7458 68.9095 7.82847 69.3679 7.99382C69.8339 8.15165 70.236 8.40342 70.5742 8.74915C70.9199 9.09487 71.183 9.53829 71.3634 10.0794C71.5513 10.6206 71.6452 11.2744 71.6452 12.041V20.1692H68.9283V12.2778C68.9283 11.684 68.8381 11.218 68.6577 10.8798C68.4849 10.5416 68.2331 10.3011 67.9024 10.1583C67.5792 10.008 67.1922 9.93287 66.7412 9.93287C66.2302 9.93287 65.7942 10.0306 65.4335 10.226C65.0803 10.4214 64.7909 10.6882 64.5654 11.0264C64.34 11.3646 64.1746 11.7554 64.0694 12.1988C63.9642 12.6423 63.9116 13.1158 63.9116 13.6193ZM71.4761 12.8978L70.2022 13.1796C70.2022 12.4431 70.3037 11.7479 70.5066 11.094C70.717 10.4327 71.0214 9.85395 71.4197 9.35792C71.8256 8.85437 72.3254 8.45979 72.9191 8.1742C73.5128 7.8886 74.193 7.7458 74.9596 7.7458C75.5834 7.7458 76.1396 7.83223 76.6281 8.00509C77.1241 8.17044 77.545 8.43349 77.8907 8.79424C78.2365 9.15499 78.4995 9.62472 78.6799 10.2034C78.8603 10.7746 78.9504 11.4661 78.9504 12.2778V20.1692H76.2223V12.2665C76.2223 11.6502 76.1321 11.173 75.9517 10.8347C75.7788 10.4965 75.5308 10.2636 75.2076 10.1358C74.8845 10.0005 74.4974 9.93287 74.0465 9.93287C73.6256 9.93287 73.2536 10.0118 72.9304 10.1696C72.6147 10.3199 72.3479 10.5341 72.13 10.8122C71.912 11.0828 71.7467 11.3947 71.6339 11.7479C71.5287 12.1011 71.4761 12.4844 71.4761 12.8978ZM87.8967 16.8661C87.8967 16.5955 87.829 16.3513 87.6937 16.1333C87.5585 15.9078 87.2992 15.7049 86.9159 15.5245C86.5401 15.3442 85.9839 15.1788 85.2474 15.0285C84.601 14.8857 84.0073 14.7166 83.4662 14.5212C82.9326 14.3183 82.4741 14.074 82.0908 13.7884C81.7075 13.5028 81.4106 13.1646 81.2002 12.7738C80.9897 12.383 80.8845 11.932 80.8845 11.421C80.8845 10.9249 80.9935 10.4552 81.2115 10.0118C81.4294 9.56836 81.7413 9.17754 82.1472 8.83933C82.553 8.50113 83.0453 8.23432 83.624 8.03891C84.2102 7.84351 84.8641 7.7458 85.5856 7.7458C86.6077 7.7458 87.4833 7.91866 88.2123 8.26438C88.9489 8.60259 89.5125 9.0648 89.9034 9.65103C90.2942 10.2297 90.4896 10.8836 90.4896 11.6126H87.7727C87.7727 11.2894 87.69 10.9888 87.5246 10.7107C87.3668 10.4251 87.1263 10.1959 86.8031 10.0231C86.48 9.84268 86.0741 9.75249 85.5856 9.75249C85.1196 9.75249 84.7326 9.82765 84.4244 9.97796C84.1238 10.1208 83.8983 10.3087 83.748 10.5416C83.6052 10.7746 83.5338 11.0302 83.5338 11.3082C83.5338 11.5112 83.5714 11.6953 83.6465 11.8606C83.7292 12.0185 83.8645 12.165 84.0524 12.3003C84.2403 12.4281 84.4958 12.5483 84.819 12.6611C85.1497 12.7738 85.563 12.8828 86.0591 12.988C86.991 13.1834 87.7914 13.4352 88.4603 13.7433C89.1368 14.0439 89.6553 14.4348 90.0161 14.9158C90.3768 15.3893 90.5572 15.9905 90.5572 16.7195C90.5572 17.2607 90.4407 17.7567 90.2077 18.2076C89.9823 18.6511 89.6516 19.0381 89.2157 19.3688C88.7798 19.692 88.2574 19.9438 87.6486 20.1241C87.0474 20.3045 86.371 20.3947 85.6194 20.3947C84.5146 20.3947 83.5789 20.1993 82.8123 19.8085C82.0457 19.4101 81.4632 18.9028 81.0649 18.2865C80.6741 17.6627 80.4787 17.0164 80.4787 16.3475H83.1054C83.1355 16.8511 83.2745 17.2531 83.5225 17.5538C83.7781 17.8469 84.0937 18.0611 84.4695 18.1964C84.8528 18.3241 85.2474 18.388 85.6532 18.388C86.1418 18.388 86.5514 18.3241 86.882 18.1964C87.2127 18.0611 87.4645 17.8807 87.6374 17.6552C87.8102 17.4222 87.8967 17.1592 87.8967 16.8661ZM100.107 11.2406L102.937 9.33537C103.41 9.01971 103.749 8.71157 103.952 8.41094C104.154 8.1028 104.256 7.7195 104.256 7.26104C104.256 6.87023 104.106 6.50947 103.805 6.17878C103.504 5.84809 103.08 5.68275 102.531 5.68275C102.148 5.68275 101.825 5.77294 101.562 5.95331C101.298 6.12617 101.099 6.35916 100.964 6.65227C100.836 6.93787 100.772 7.25728 100.772 7.61052C100.772 7.94873 100.859 8.29821 101.032 8.65896C101.205 9.0122 101.441 9.38422 101.742 9.77504C102.043 10.1583 102.381 10.5717 102.757 11.0151L110.513 20.1692H107.367L101.032 12.7174C100.483 12.056 99.9983 11.451 99.5774 10.9024C99.1565 10.3462 98.8296 9.80886 98.5966 9.29028C98.3636 8.76418 98.2471 8.22305 98.2471 7.66689C98.2471 6.8101 98.4237 6.07356 98.777 5.45728C99.1302 4.84099 99.63 4.3675 100.276 4.03681C100.923 3.69861 101.678 3.5295 102.542 3.5295C103.377 3.5295 104.094 3.69861 104.696 4.03681C105.304 4.3675 105.77 4.80717 106.093 5.35581C106.424 5.90446 106.59 6.50571 106.59 7.15958C106.59 7.67816 106.496 8.15165 106.308 8.58004C106.12 9.00844 105.861 9.39925 105.53 9.75249C105.199 10.1057 104.816 10.4402 104.38 10.7558L100.941 13.2586C100.543 13.5817 100.246 13.8936 100.051 14.1943C99.863 14.4874 99.739 14.7579 99.6789 15.006C99.6187 15.254 99.5887 15.4719 99.5887 15.6598C99.5887 16.1408 99.6901 16.5767 99.893 16.9675C100.103 17.3584 100.408 17.6703 100.806 17.9032C101.212 18.1287 101.704 18.2415 102.283 18.2415C102.907 18.2415 103.512 18.1024 104.098 17.8243C104.684 17.5387 105.21 17.1366 105.676 16.6181C106.142 16.0995 106.511 15.4794 106.781 14.7579C107.059 14.0364 107.198 13.236 107.198 12.3567H109.543C109.543 13.1533 109.464 13.9087 109.306 14.6227C109.156 15.3366 108.912 15.998 108.574 16.6068C108.243 17.2156 107.807 17.7605 107.266 18.2415C107.213 18.2941 107.153 18.3617 107.086 18.4444C107.025 18.5195 106.965 18.5834 106.905 18.636C106.259 19.2298 105.534 19.6732 104.729 19.9663C103.933 20.2519 103.083 20.3947 102.182 20.3947C101.092 20.3947 100.149 20.1955 99.3519 19.7972C98.5553 19.3989 97.939 18.8502 97.5031 18.1513C97.0747 17.4523 96.8605 16.6519 96.8605 15.75C96.8605 15.0811 96.9995 14.4949 97.2776 13.9913C97.5557 13.4803 97.9352 13.0068 98.4162 12.5709C98.9047 12.1274 99.4684 11.684 100.107 11.2406ZM126.444 14.8256H129.262C129.172 15.9003 128.871 16.8586 128.36 17.7003C127.849 18.5346 127.131 19.1922 126.207 19.6732C125.282 20.1542 124.159 20.3947 122.836 20.3947C121.821 20.3947 120.908 20.2143 120.097 19.8536C119.285 19.4853 118.59 18.9667 118.011 18.2978C117.432 17.6214 116.989 16.806 116.681 15.8515C116.38 14.897 116.23 13.8297 116.23 12.6498V11.2857C116.23 10.1057 116.384 9.0385 116.692 8.08401C117.008 7.12952 117.459 6.31406 118.045 5.63765C118.631 4.95373 119.334 4.43139 120.153 4.07063C120.98 3.70988 121.908 3.5295 122.937 3.5295C124.245 3.5295 125.35 3.77001 126.252 4.25101C127.154 4.73201 127.853 5.39715 128.349 6.24642C128.852 7.0957 129.16 8.06898 129.273 9.16627H126.455C126.38 8.45979 126.214 7.85478 125.959 7.35123C125.711 6.84768 125.343 6.46438 124.854 6.20133C124.365 5.93076 123.727 5.79548 122.937 5.79548C122.291 5.79548 121.727 5.91573 121.246 6.15624C120.765 6.39674 120.363 6.74997 120.04 7.21595C119.717 7.68192 119.473 8.25687 119.307 8.9408C119.15 9.61721 119.071 10.3913 119.071 11.2631V12.6498C119.071 13.4765 119.142 14.2281 119.285 14.9045C119.435 15.5734 119.661 16.1483 119.961 16.6293C120.269 17.1103 120.66 17.4824 121.134 17.7454C121.607 18.0085 122.175 18.14 122.836 18.14C123.64 18.14 124.29 18.0122 124.786 17.7567C125.29 17.5012 125.669 17.1291 125.925 16.6406C126.188 16.1446 126.361 15.5396 126.444 14.8256ZM130.351 14.2055V13.9462C130.351 13.0669 130.478 12.2515 130.734 11.4999C130.989 10.7408 131.358 10.0832 131.839 9.52702C132.327 8.96334 132.921 8.52743 133.62 8.21929C134.326 7.90363 135.123 7.7458 136.01 7.7458C136.904 7.7458 137.701 7.90363 138.4 8.21929C139.106 8.52743 139.704 8.96334 140.192 9.52702C140.681 10.0832 141.053 10.7408 141.308 11.4999C141.564 12.2515 141.692 13.0669 141.692 13.9462V14.2055C141.692 15.0849 141.564 15.9003 141.308 16.6519C141.053 17.4035 140.681 18.0611 140.192 18.6248C139.704 19.1809 139.11 19.6168 138.411 19.9325C137.712 20.2406 136.919 20.3947 136.032 20.3947C135.138 20.3947 134.338 20.2406 133.631 19.9325C132.932 19.6168 132.338 19.1809 131.85 18.6248C131.361 18.0611 130.989 17.4035 130.734 16.6519C130.478 15.9003 130.351 15.0849 130.351 14.2055ZM133.067 13.9462V14.2055C133.067 14.7542 133.124 15.2728 133.237 15.7613C133.349 16.2498 133.526 16.6782 133.766 17.0465C134.007 17.4147 134.315 17.7041 134.691 17.9145C135.067 18.125 135.514 18.2302 136.032 18.2302C136.536 18.2302 136.972 18.125 137.34 17.9145C137.716 17.7041 138.024 17.4147 138.265 17.0465C138.505 16.6782 138.682 16.2498 138.794 15.7613C138.915 15.2728 138.975 14.7542 138.975 14.2055V13.9462C138.975 13.4051 138.915 12.894 138.794 12.413C138.682 11.9245 138.501 11.4924 138.253 11.1166C138.013 10.7408 137.705 10.4477 137.329 10.2373C136.961 10.0193 136.521 9.91032 136.01 9.91032C135.499 9.91032 135.055 10.0193 134.68 10.2373C134.311 10.4477 134.007 10.7408 133.766 11.1166C133.526 11.4924 133.349 11.9245 133.237 12.413C133.124 12.894 133.067 13.4051 133.067 13.9462ZM145.971 10.5755V20.1692H143.254V7.97127H145.813L145.971 10.5755ZM145.486 13.6193L144.607 13.608C144.614 12.7437 144.734 11.9508 144.967 11.2293C145.208 10.5078 145.539 9.88777 145.959 9.36919C146.388 8.85061 146.899 8.45228 147.493 8.1742C148.086 7.8886 148.748 7.7458 149.477 7.7458C150.063 7.7458 150.593 7.82847 151.066 7.99382C151.547 8.15165 151.957 8.41094 152.295 8.77169C152.641 9.13245 152.904 9.60218 153.084 10.1809C153.265 10.7521 153.355 11.4548 153.355 12.289V20.1692H150.627V12.2778C150.627 11.6915 150.54 11.2293 150.367 10.8911C150.202 10.5454 149.958 10.3011 149.635 10.1583C149.319 10.008 148.924 9.93287 148.451 9.93287C147.985 9.93287 147.568 10.0306 147.199 10.226C146.831 10.4214 146.519 10.6882 146.264 11.0264C146.016 11.3646 145.824 11.7554 145.689 12.1988C145.554 12.6423 145.486 13.1158 145.486 13.6193ZM162.876 17.644V2.85309H165.604V20.1692H163.135L162.876 17.644ZM154.939 14.2055V13.9688C154.939 13.0444 155.048 12.2026 155.266 11.4435C155.484 10.6769 155.8 10.0193 156.213 9.47065C156.627 8.91449 157.13 8.48986 157.724 8.19674C158.318 7.89612 158.987 7.7458 159.731 7.7458C160.467 7.7458 161.114 7.8886 161.67 8.1742C162.226 8.45979 162.699 8.8694 163.09 9.40301C163.481 9.92911 163.793 10.5604 164.026 11.297C164.259 12.026 164.424 12.8377 164.522 13.732V14.4874C164.424 15.3592 164.259 16.1559 164.026 16.8774C163.793 17.5989 163.481 18.2227 163.09 18.7488C162.699 19.2749 162.222 19.6807 161.658 19.9663C161.102 20.2519 160.452 20.3947 159.708 20.3947C158.972 20.3947 158.306 20.2406 157.713 19.9325C157.126 19.6243 156.627 19.1922 156.213 18.636C155.8 18.0799 155.484 17.426 155.266 16.6744C155.048 15.9154 154.939 15.0924 154.939 14.2055ZM157.656 13.9688V14.2055C157.656 14.7617 157.705 15.2803 157.803 15.7613C157.908 16.2423 158.07 16.6669 158.288 17.0352C158.506 17.3959 158.787 17.6815 159.133 17.892C159.486 18.0949 159.907 18.1964 160.396 18.1964C161.012 18.1964 161.519 18.0611 161.918 17.7905C162.316 17.5199 162.628 17.1554 162.853 16.697C163.086 16.231 163.244 15.7124 163.327 15.1412V13.1007C163.282 12.6573 163.188 12.2439 163.045 11.8606C162.91 11.4773 162.726 11.1429 162.493 10.8573C162.26 10.5642 161.97 10.3387 161.625 10.1809C161.286 10.0155 160.884 9.93287 160.418 9.93287C159.922 9.93287 159.501 10.0381 159.156 10.2485C158.81 10.459 158.524 10.7483 158.299 11.1166C158.081 11.4849 157.919 11.9132 157.814 12.4018C157.709 12.8903 157.656 13.4126 157.656 13.9688ZM170.661 7.97127V20.1692H167.933V7.97127H170.661ZM167.752 4.76959C167.752 4.35623 167.888 4.01427 168.158 3.7437C168.436 3.46562 168.82 3.32658 169.308 3.32658C169.789 3.32658 170.169 3.46562 170.447 3.7437C170.725 4.01427 170.864 4.35623 170.864 4.76959C170.864 5.17544 170.725 5.51364 170.447 5.78421C170.169 6.05477 169.789 6.19006 169.308 6.19006C168.82 6.19006 168.436 6.05477 168.158 5.78421C167.888 5.51364 167.752 5.17544 167.752 4.76959ZM178.536 7.97127V9.95541H171.659V7.97127H178.536ZM173.644 4.98379H176.36V16.7984C176.36 17.1742 176.413 17.4636 176.518 17.6665C176.631 17.8619 176.785 17.9934 176.981 18.0611C177.176 18.1287 177.405 18.1625 177.668 18.1625C177.856 18.1625 178.036 18.1513 178.209 18.1287C178.382 18.1062 178.521 18.0836 178.626 18.0611L178.638 20.1354C178.412 20.203 178.149 20.2632 177.849 20.3158C177.555 20.3684 177.217 20.3947 176.834 20.3947C176.21 20.3947 175.658 20.2857 175.177 20.0678C174.696 19.8423 174.32 19.4778 174.049 18.9742C173.779 18.4707 173.644 17.8018 173.644 16.9675V4.98379ZM182.849 7.97127V20.1692H180.121V7.97127H182.849ZM179.94 4.76959C179.94 4.35623 180.076 4.01427 180.346 3.7437C180.624 3.46562 181.008 3.32658 181.496 3.32658C181.977 3.32658 182.357 3.46562 182.635 3.7437C182.913 4.01427 183.052 4.35623 183.052 4.76959C183.052 5.17544 182.913 5.51364 182.635 5.78421C182.357 6.05477 181.977 6.19006 181.496 6.19006C181.008 6.19006 180.624 6.05477 180.346 5.78421C180.076 5.51364 179.94 5.17544 179.94 4.76959ZM184.614 14.2055V13.9462C184.614 13.0669 184.742 12.2515 184.997 11.4999C185.253 10.7408 185.621 10.0832 186.102 9.52702C186.591 8.96334 187.184 8.52743 187.883 8.21929C188.59 7.90363 189.387 7.7458 190.273 7.7458C191.168 7.7458 191.964 7.90363 192.663 8.21929C193.37 8.52743 193.967 8.96334 194.456 9.52702C194.944 10.0832 195.316 10.7408 195.572 11.4999C195.827 12.2515 195.955 13.0669 195.955 13.9462V14.2055C195.955 15.0849 195.827 15.9003 195.572 16.6519C195.316 17.4035 194.944 18.0611 194.456 18.6248C193.967 19.1809 193.374 19.6168 192.675 19.9325C191.976 20.2406 191.183 20.3947 190.296 20.3947C189.402 20.3947 188.601 20.2406 187.895 19.9325C187.196 19.6168 186.602 19.1809 186.113 18.6248C185.625 18.0611 185.253 17.4035 184.997 16.6519C184.742 15.9003 184.614 15.0849 184.614 14.2055ZM187.331 13.9462V14.2055C187.331 14.7542 187.387 15.2728 187.5 15.7613C187.613 16.2498 187.789 16.6782 188.03 17.0465C188.27 17.4147 188.579 17.7041 188.954 17.9145C189.33 18.125 189.777 18.2302 190.296 18.2302C190.799 18.2302 191.235 18.125 191.604 17.9145C191.979 17.7041 192.288 17.4147 192.528 17.0465C192.769 16.6782 192.945 16.2498 193.058 15.7613C193.178 15.2728 193.238 14.7542 193.238 14.2055V13.9462C193.238 13.4051 193.178 12.894 193.058 12.413C192.945 11.9245 192.765 11.4924 192.517 11.1166C192.276 10.7408 191.968 10.4477 191.592 10.2373C191.224 10.0193 190.784 9.91032 190.273 9.91032C189.762 9.91032 189.319 10.0193 188.943 10.2373C188.575 10.4477 188.27 10.7408 188.03 11.1166C187.789 11.4924 187.613 11.9245 187.5 12.413C187.387 12.894 187.331 13.4051 187.331 13.9462ZM200.234 10.5755V20.1692H197.517V7.97127H200.076L200.234 10.5755ZM199.749 13.6193L198.87 13.608C198.878 12.7437 198.998 11.9508 199.231 11.2293C199.471 10.5078 199.802 9.88777 200.223 9.36919C200.651 8.85061 201.162 8.45228 201.756 8.1742C202.35 7.8886 203.011 7.7458 203.74 7.7458C204.326 7.7458 204.856 7.82847 205.33 7.99382C205.811 8.15165 206.22 8.41094 206.559 8.77169C206.904 9.13245 207.167 9.60218 207.348 10.1809C207.528 10.7521 207.618 11.4548 207.618 12.289V20.1692H204.89V12.2778C204.89 11.6915 204.804 11.2293 204.631 10.8911C204.466 10.5454 204.221 10.3011 203.898 10.1583C203.582 10.008 203.188 9.93287 202.714 9.93287C202.248 9.93287 201.831 10.0306 201.463 10.226C201.095 10.4214 200.783 10.6882 200.527 11.0264C200.279 11.3646 200.088 11.7554 199.952 12.1988C199.817 12.6423 199.749 13.1158 199.749 13.6193ZM216.542 16.8661C216.542 16.5955 216.474 16.3513 216.339 16.1333C216.204 15.9078 215.945 15.7049 215.561 15.5245C215.185 15.3442 214.629 15.1788 213.893 15.0285C213.246 14.8857 212.653 14.7166 212.112 14.5212C211.578 14.3183 211.119 14.074 210.736 13.7884C210.353 13.5028 210.056 13.1646 209.846 12.7738C209.635 12.383 209.53 11.932 209.53 11.421C209.53 10.9249 209.639 10.4552 209.857 10.0118C210.075 9.56836 210.387 9.17754 210.793 8.83933C211.198 8.50113 211.691 8.23432 212.269 8.03891C212.856 7.84351 213.509 7.7458 214.231 7.7458C215.253 7.7458 216.129 7.91866 216.858 8.26438C217.594 8.60259 218.158 9.0648 218.549 9.65103C218.94 10.2297 219.135 10.8836 219.135 11.6126H216.418C216.418 11.2894 216.335 10.9888 216.17 10.7107C216.012 10.4251 215.772 10.1959 215.448 10.0231C215.125 9.84268 214.719 9.75249 214.231 9.75249C213.765 9.75249 213.378 9.82765 213.07 9.97796C212.769 10.1208 212.544 10.3087 212.393 10.5416C212.251 10.7746 212.179 11.0302 212.179 11.3082C212.179 11.5112 212.217 11.6953 212.292 11.8606C212.375 12.0185 212.51 12.165 212.698 12.3003C212.886 12.4281 213.141 12.5483 213.464 12.6611C213.795 12.7738 214.208 12.8828 214.704 12.988C215.636 13.1834 216.437 13.4352 217.106 13.7433C217.782 14.0439 218.301 14.4348 218.661 14.9158C219.022 15.3893 219.203 15.9905 219.203 16.7195C219.203 17.2607 219.086 17.7567 218.853 18.2076C218.628 18.6511 218.297 19.0381 217.861 19.3688C217.425 19.692 216.903 19.9438 216.294 20.1241C215.693 20.3045 215.016 20.3947 214.265 20.3947C213.16 20.3947 212.224 20.1993 211.458 19.8085C210.691 19.4101 210.109 18.9028 209.71 18.2865C209.319 17.6627 209.124 17.0164 209.124 16.3475H211.751C211.781 16.8511 211.92 17.2531 212.168 17.5538C212.423 17.8469 212.739 18.0611 213.115 18.1964C213.498 18.3241 213.893 18.388 214.299 18.388C214.787 18.388 215.197 18.3241 215.527 18.1964C215.858 18.0611 216.11 17.8807 216.283 17.6552C216.456 17.4222 216.542 17.1592 216.542 16.8661Z" fill="#1D2026"/>
</svg>
