<svg width="300" height="150" viewBox="0 0 300 150" fill="none" xmlns="http://www.w3.org/2000/svg">
<rect width="300" height="150" rx="2" fill="url(#paint0_linear_1360_19927)"/>
<rect x="92.5" y="63" width="23.3385" height="23.3385" rx="6.93756" fill="url(#paint1_linear_1360_19927)"/>
<path d="M108.824 73.8347L108.927 73.7597L108.819 73.6915L104.761 71.1226L104.715 71.1958L104.761 71.1226C104.455 70.9292 104.07 70.9301 103.766 71.1248L99.7517 73.6893L99.6453 73.7573L99.7471 73.832L100.499 74.3842L100.547 74.4193L100.597 74.3873L104.265 72.0435L107.97 74.3885L108.02 74.42L108.067 74.3854L108.824 73.8347Z" fill="white" stroke="white" stroke-width="0.173161"/>
<path d="M111.226 72.9063L111.226 72.9063L111.226 72.9063ZM111.226 72.9063L111.231 72.9061L111.226 72.9063ZM104.758 67.6407L104.758 67.6407C104.452 67.4473 104.067 67.4482 103.762 67.6428C103.762 67.6428 103.762 67.6428 103.762 67.6428L96.8266 72.0742L96.8732 72.1472L96.8266 72.0742C96.2495 72.4429 96.2234 73.2992 96.7759 73.705L96.8272 73.6352L96.7759 73.705L103.712 78.7988C104.04 79.0396 104.479 79.0406 104.808 78.8013L104.758 78.7312L104.808 78.8012L111.809 73.7076C112.366 73.3023 112.34 72.4403 111.758 72.0722L104.758 67.6407Z" fill="white" stroke="white" stroke-width="0.173161"/>
<path d="M111.249 76.4064L111.242 76.4026L111.242 76.4026L111.223 76.3932L111.223 76.3932L111.223 76.393L111.188 76.4181C111.189 76.4195 111.19 76.4209 111.192 76.4223C111.193 76.423 111.194 76.4239 111.195 76.4248L111.198 76.427L111.2 76.4286L111.199 76.4278C111.201 76.429 111.203 76.4303 111.205 76.4316L111.205 76.4317C111.206 76.4322 111.208 76.4334 111.211 76.4347L111.246 76.409C111.249 76.4073 111.249 76.4064 111.249 76.4064ZM111.249 76.4064L111.244 76.4025L111.24 76.3998L111.239 76.3986L111.251 76.4041M111.249 76.4064L111.25 76.4056L111.251 76.4041M111.251 76.4041C111.252 76.4003 111.255 76.392 111.254 76.3804M111.251 76.4041L111.238 76.3979L111.238 76.3978L111.237 76.3974L111.227 76.3898L111.23 76.3874L111.231 76.3873L111.24 76.3808M111.254 76.3804C111.254 76.3768 111.254 76.3737 111.253 76.3709L111.24 76.3808M111.254 76.3804L111.24 76.3808M111.254 76.3804L111.24 76.3808M97.3387 76.3581C97.3371 76.3611 97.3341 76.3687 97.3337 76.3802C97.3334 76.3917 97.3359 76.4 97.3376 76.4038L97.3385 76.4055M97.3387 76.3581L97.342 76.4089C97.3398 76.4072 97.3391 76.4063 97.339 76.4063L97.3385 76.4055M97.3387 76.3581L97.3395 76.3568M97.3387 76.3581L97.3395 76.3568M97.3385 76.4055L97.3432 76.4027L97.3489 76.3993L97.3492 76.3992L97.3456 76.3617L97.3395 76.3568M97.3385 76.4055L97.3444 76.4017L97.349 76.3987L97.3499 76.3981L97.35 76.3981L97.3522 76.395L97.3601 76.3844L97.3579 76.381L97.3579 76.381L97.3484 76.3661L97.3428 76.3603L97.3428 76.3602L97.3395 76.3568M97.4881 75.1921L97.4402 75.157L97.3902 75.189L96.8265 75.5492L96.8265 75.5492C96.2494 75.9179 96.2233 76.7742 96.7758 77.18L96.7758 77.18L103.712 82.2737C104.04 82.5146 104.479 82.5155 104.808 82.2762L104.757 82.2062L104.808 82.2762L111.809 77.1826C112.366 76.7772 112.34 75.9153 111.758 75.5472L111.188 75.1863L111.139 75.1549L111.091 75.1895L110.334 75.7401L110.231 75.8151L110.339 75.8833L111.132 76.3852L104.262 81.3835L97.4558 76.385L98.2353 75.887L98.3417 75.819L98.2399 75.7443L97.4881 75.1921ZM97.358 76.381L97.3485 76.3662L97.3626 76.3809L97.3624 76.3811L97.3624 76.3811L97.3601 76.3843L97.358 76.381L97.358 76.381ZM97.3628 76.3811L97.3629 76.3811L97.3629 76.3811L97.3654 76.3838L97.3677 76.3862L97.368 76.3865L97.3635 76.3895L97.3633 76.3892L97.3618 76.3869L97.3603 76.3845L97.3628 76.3811ZM97.4148 76.3992L97.4148 76.3992L97.4148 76.3992Z" fill="white" stroke="white" stroke-width="0.173161"/>
<path d="M128.517 67.942L123.613 82.1692H120.648L126.826 65.755H128.72L128.517 67.942ZM132.62 82.1692L127.705 67.942L127.491 65.755H129.396L135.596 82.1692H132.62ZM132.383 76.0815V78.325H123.455V76.0815H132.383ZM136.482 64.8531H139.199V79.565L138.94 82.1692H136.482V64.8531ZM147.158 75.9575V76.1943C147.158 77.0961 147.057 77.9266 146.854 78.6857C146.658 79.4373 146.358 80.0911 145.952 80.6473C145.553 81.2035 145.057 81.6356 144.464 81.9438C143.877 82.2444 143.197 82.3947 142.423 82.3947C141.664 82.3947 141.003 82.2519 140.439 81.9663C139.875 81.6807 139.402 81.2749 139.019 80.7488C138.643 80.2227 138.338 79.5951 138.105 78.8661C137.872 78.1371 137.707 77.3329 137.609 76.4535V75.6982C137.707 74.8114 137.872 74.0072 138.105 73.2857C138.338 72.5567 138.643 71.9291 139.019 71.403C139.402 70.8694 139.872 70.4598 140.428 70.1742C140.991 69.8886 141.649 69.7458 142.401 69.7458C143.182 69.7458 143.87 69.8961 144.464 70.1967C145.065 70.4974 145.565 70.9258 145.963 71.4819C146.361 72.0306 146.658 72.6844 146.854 73.4435C147.057 74.2026 147.158 75.0406 147.158 75.9575ZM144.441 76.1943V75.9575C144.441 75.4089 144.396 74.894 144.306 74.413C144.216 73.9245 144.065 73.4961 143.855 73.1279C143.652 72.7596 143.374 72.4702 143.021 72.2598C142.675 72.0418 142.243 71.9329 141.724 71.9329C141.243 71.9329 140.83 72.0155 140.484 72.1809C140.138 72.3462 139.849 72.5717 139.616 72.8573C139.383 73.1429 139.199 73.4736 139.064 73.8494C138.936 74.2251 138.849 74.631 138.804 75.0669V77.1074C138.872 77.6711 139.015 78.1897 139.233 78.6632C139.458 79.1291 139.774 79.5049 140.18 79.7905C140.586 80.0686 141.108 80.2076 141.747 80.2076C142.25 80.2076 142.675 80.1062 143.021 79.9032C143.366 79.7003 143.641 79.4185 143.844 79.0577C144.054 78.6895 144.204 78.2611 144.295 77.7726C144.392 77.284 144.441 76.7579 144.441 76.1943ZM148.247 76.2055V75.9462C148.247 75.0669 148.374 74.2515 148.63 73.4999C148.885 72.7408 149.254 72.0832 149.735 71.527C150.223 70.9633 150.817 70.5274 151.516 70.2193C152.222 69.9036 153.019 69.7458 153.906 69.7458C154.8 69.7458 155.597 69.9036 156.296 70.2193C157.002 70.5274 157.6 70.9633 158.088 71.527C158.577 72.0832 158.949 72.7408 159.205 73.4999C159.46 74.2515 159.588 75.0669 159.588 75.9462V76.2055C159.588 77.0849 159.46 77.9003 159.205 78.6519C158.949 79.4035 158.577 80.0611 158.088 80.6248C157.6 81.1809 157.006 81.6168 156.307 81.9325C155.608 82.2406 154.815 82.3947 153.929 82.3947C153.034 82.3947 152.234 82.2406 151.527 81.9325C150.828 81.6168 150.235 81.1809 149.746 80.6248C149.258 80.0611 148.885 79.4035 148.63 78.6519C148.374 77.9003 148.247 77.0849 148.247 76.2055ZM150.964 75.9462V76.2055C150.964 76.7542 151.02 77.2728 151.133 77.7613C151.245 78.2498 151.422 78.6782 151.663 79.0465C151.903 79.4147 152.211 79.7041 152.587 79.9145C152.963 80.125 153.41 80.2302 153.929 80.2302C154.432 80.2302 154.868 80.125 155.236 79.9145C155.612 79.7041 155.92 79.4147 156.161 79.0465C156.401 78.6782 156.578 78.2498 156.691 77.7613C156.811 77.2728 156.871 76.7542 156.871 76.2055V75.9462C156.871 75.4051 156.811 74.894 156.691 74.413C156.578 73.9245 156.397 73.4924 156.149 73.1166C155.909 72.7408 155.601 72.4477 155.225 72.2373C154.857 72.0193 154.417 71.9103 153.906 71.9103C153.395 71.9103 152.951 72.0193 152.576 72.2373C152.207 72.4477 151.903 72.7408 151.663 73.1166C151.422 73.4924 151.245 73.9245 151.133 74.413C151.02 74.894 150.964 75.4051 150.964 75.9462ZM168.511 79.2945V69.9713H171.24V82.1692H168.669L168.511 79.2945ZM168.895 76.7579L169.808 76.7354C169.808 77.5546 169.718 78.3099 169.537 79.0014C169.357 79.6853 169.079 80.2828 168.703 80.7939C168.327 81.2974 167.846 81.692 167.26 81.9776C166.674 82.2557 165.971 82.3947 165.152 82.3947C164.558 82.3947 164.013 82.3083 163.517 82.1354C163.021 81.9625 162.593 81.6957 162.232 81.335C161.879 80.9742 161.605 80.5045 161.409 79.9258C161.214 79.3471 161.116 78.6556 161.116 77.8515V69.9713H163.833V77.874C163.833 78.3174 163.886 78.6895 163.991 78.9901C164.096 79.2832 164.239 79.5199 164.419 79.7003C164.6 79.8807 164.81 80.0085 165.051 80.0836C165.291 80.1588 165.547 80.1964 165.817 80.1964C166.591 80.1964 167.2 80.046 167.643 79.7454C168.094 79.4373 168.414 79.0239 168.602 78.5053C168.797 77.9867 168.895 77.4043 168.895 76.7579ZM178.923 69.9713V71.9554H172.046V69.9713H178.923ZM174.031 66.9838H176.747V78.7984C176.747 79.1742 176.8 79.4636 176.905 79.6665C177.018 79.8619 177.172 79.9934 177.368 80.0611C177.563 80.1287 177.792 80.1625 178.055 80.1625C178.243 80.1625 178.423 80.1513 178.596 80.1287C178.769 80.1062 178.908 80.0836 179.013 80.0611L179.025 82.1354C178.799 82.203 178.536 82.2632 178.236 82.3158C177.942 82.3684 177.604 82.3947 177.221 82.3947C176.597 82.3947 176.045 82.2857 175.564 82.0678C175.083 81.8423 174.707 81.4778 174.436 80.9742C174.166 80.4707 174.031 79.8018 174.031 78.9675V66.9838ZM192.723 79.2945V69.9713H195.452V82.1692H192.881L192.723 79.2945ZM193.107 76.7579L194.02 76.7354C194.02 77.5546 193.93 78.3099 193.749 79.0014C193.569 79.6853 193.291 80.2828 192.915 80.7939C192.539 81.2974 192.058 81.692 191.472 81.9776C190.886 82.2557 190.183 82.3947 189.364 82.3947C188.77 82.3947 188.225 82.3083 187.729 82.1354C187.233 81.9625 186.805 81.6957 186.444 81.335C186.091 80.9742 185.817 80.5045 185.621 79.9258C185.426 79.3471 185.328 78.6556 185.328 77.8515V69.9713H188.045V77.874C188.045 78.3174 188.098 78.6895 188.203 78.9901C188.308 79.2832 188.451 79.5199 188.631 79.7003C188.812 79.8807 189.022 80.0085 189.262 80.0836C189.503 80.1588 189.758 80.1964 190.029 80.1964C190.803 80.1964 191.412 80.046 191.855 79.7454C192.306 79.4373 192.626 79.0239 192.814 78.5053C193.009 77.9867 193.107 77.4043 193.107 76.7579ZM204.387 78.8661C204.387 78.5955 204.319 78.3513 204.184 78.1333C204.048 77.9078 203.789 77.7049 203.406 77.5245C203.03 77.3442 202.474 77.1788 201.737 77.0285C201.091 76.8857 200.497 76.7166 199.956 76.5212C199.422 76.3183 198.964 76.074 198.581 75.7884C198.197 75.5028 197.901 75.1646 197.69 74.7738C197.48 74.383 197.374 73.932 197.374 73.421C197.374 72.9249 197.483 72.4552 197.701 72.0118C197.919 71.5684 198.231 71.1775 198.637 70.8393C199.043 70.5011 199.535 70.2343 200.114 70.0389C200.7 69.8435 201.354 69.7458 202.075 69.7458C203.098 69.7458 203.973 69.9187 204.702 70.2644C205.439 70.6026 206.002 71.0648 206.393 71.651C206.784 72.2297 206.979 72.8836 206.979 73.6126H204.263C204.263 73.2894 204.18 72.9888 204.015 72.7107C203.857 72.4251 203.616 72.1959 203.293 72.0231C202.97 71.8427 202.564 71.7525 202.075 71.7525C201.61 71.7525 201.222 71.8276 200.914 71.978C200.614 72.1208 200.388 72.3086 200.238 72.5416C200.095 72.7746 200.024 73.0302 200.024 73.3082C200.024 73.5112 200.061 73.6953 200.136 73.8606C200.219 74.0185 200.354 74.165 200.542 74.3003C200.73 74.4281 200.986 74.5483 201.309 74.6611C201.64 74.7738 202.053 74.8828 202.549 74.988C203.481 75.1834 204.281 75.4352 204.95 75.7433C205.627 76.0439 206.145 76.4348 206.506 76.9158C206.867 77.3893 207.047 77.9905 207.047 78.7195C207.047 79.2607 206.931 79.7567 206.698 80.2076C206.472 80.6511 206.141 81.0381 205.706 81.3688C205.27 81.692 204.747 81.9438 204.139 82.1241C203.537 82.3045 202.861 82.3947 202.109 82.3947C201.004 82.3947 200.069 82.1993 199.302 81.8085C198.536 81.4101 197.953 80.9028 197.555 80.2865C197.164 79.6627 196.969 79.0164 196.969 78.3475H199.595C199.625 78.8511 199.764 79.2531 200.012 79.5538C200.268 79.8469 200.584 80.0611 200.959 80.1964C201.343 80.3241 201.737 80.388 202.143 80.388C202.632 80.388 203.041 80.3241 203.372 80.1964C203.703 80.0611 203.954 79.8807 204.127 79.6552C204.3 79.4222 204.387 79.1592 204.387 78.8661Z" fill="#1D2026"/>
<defs>
<linearGradient id="paint0_linear_1360_19927" x1="150" y1="0" x2="150" y2="150" gradientUnits="userSpaceOnUse">
<stop stop-color="#EBEFF2"/>
<stop offset="0.565" stop-color="#F3EEFF"/>
<stop offset="1" stop-color="white"/>
</linearGradient>
<linearGradient id="paint1_linear_1360_19927" x1="95.9632" y1="86.7905" x2="113.657" y2="65.1533" gradientUnits="userSpaceOnUse">
<stop stop-color="#8512E0"/>
<stop offset="1" stop-color="#BE63C5"/>
</linearGradient>
</defs>
</svg>
