<svg width="400" height="261" viewBox="0 0 400 261" fill="none" xmlns="http://www.w3.org/2000/svg">
<g filter="url(#filter0_b_1165_3699)">
<g clip-path="url(#clip0_1165_3699)">
<mask id="mask0_1165_3699" style="mask-type:alpha" maskUnits="userSpaceOnUse" x="20" y="20" width="360" height="360">
<rect x="20" y="20" width="360" height="360" fill="url(#paint0_linear_1165_3699)"/>
</mask>
<g mask="url(#mask0_1165_3699)">
<path d="M35.9496 56.5675V66.7451H34.2708V58.5599L31.7839 59.4028V58.0165L35.7476 56.5675H35.9496ZM46.2734 65.4076V66.7451H39.4745V65.5957L42.7764 61.9942C43.1387 61.5855 43.4243 61.2325 43.6333 60.9353C43.8423 60.6381 43.9885 60.3711 44.0721 60.1342C44.1604 59.8927 44.2045 59.6582 44.2045 59.4306C44.2045 59.1102 44.1441 58.8292 44.0234 58.5877C43.9073 58.3416 43.7354 58.1489 43.5079 58.0095C43.2803 57.8656 43.004 57.7936 42.6789 57.7936C42.3027 57.7936 41.9869 57.8749 41.7315 58.0374C41.4761 58.1999 41.2834 58.4252 41.1533 58.7131C41.0233 58.9964 40.9583 59.3215 40.9583 59.6884H39.2794C39.2794 59.0986 39.4141 58.5599 39.6835 58.0722C39.9528 57.58 40.3429 57.1899 40.8538 56.9019C41.3646 56.6093 41.98 56.4631 42.6998 56.4631C43.3778 56.4631 43.9537 56.5768 44.4274 56.8044C44.9011 57.032 45.261 57.3547 45.5072 57.7727C45.7579 58.1907 45.8833 58.6853 45.8833 59.2565C45.8833 59.5723 45.8322 59.8858 45.7301 60.1969C45.6279 60.5081 45.4816 60.8192 45.2912 61.1304C45.1054 61.4369 44.8849 61.7457 44.6294 62.0569C44.374 62.3634 44.093 62.6745 43.7865 62.9903L41.5922 65.4076H46.2734ZM54.3472 66.7451H52.1807L52.1947 65.3588H54.3472C54.9742 65.3588 55.4989 65.2218 55.9215 64.9478C56.3488 64.6738 56.6692 64.2814 56.8829 63.7705C57.1012 63.2597 57.2103 62.6513 57.2103 61.9454V61.3951C57.2103 60.8471 57.1476 60.3618 57.0222 59.9392C56.9015 59.5165 56.7203 59.1613 56.4788 58.8733C56.242 58.5854 55.9494 58.3671 55.6011 58.2185C55.2574 58.0699 54.8604 57.9956 54.4099 57.9956H52.1389V56.6024H54.4099C55.0833 56.6024 55.6986 56.7162 56.2559 56.9437C56.8132 57.1666 57.2939 57.4894 57.6979 57.912C58.1066 58.3346 58.4201 58.8408 58.6383 59.4306C58.8566 60.0204 58.9658 60.6799 58.9658 61.409V61.9454C58.9658 62.6745 58.8566 63.334 58.6383 63.9238C58.4201 64.5136 58.1066 65.0198 57.6979 65.4424C57.2892 65.8604 56.8016 66.1832 56.235 66.4107C55.6731 66.6336 55.0438 66.7451 54.3472 66.7451ZM53.149 56.6024V66.7451H51.4005V56.6024H53.149ZM63.8769 66.8844C63.3196 66.8844 62.8157 66.7938 62.3652 66.6127C61.9194 66.427 61.5386 66.1692 61.2228 65.8395C60.9116 65.5098 60.6725 65.122 60.5053 64.6761C60.3381 64.2303 60.2545 63.7496 60.2545 63.2341V62.9555C60.2545 62.3657 60.3404 61.8316 60.5122 61.3533C60.6841 60.8749 60.9232 60.4663 61.2298 60.1272C61.5363 59.7836 61.8985 59.5212 62.3165 59.3401C62.7344 59.159 63.1872 59.0684 63.6749 59.0684C64.2136 59.0684 64.685 59.159 65.089 59.3401C65.493 59.5212 65.8274 59.7766 66.0921 60.1063C66.3615 60.4314 66.5612 60.8192 66.6912 61.2697C66.8259 61.7202 66.8932 62.2171 66.8932 62.7605V63.478H61.0695V62.2728H65.2353V62.1405C65.226 61.8386 65.1656 61.5553 65.0542 61.2906C64.9474 61.0259 64.7825 60.8123 64.5596 60.6497C64.3367 60.4872 64.0394 60.4059 63.6679 60.4059C63.3893 60.4059 63.1408 60.4663 62.9225 60.587C62.7089 60.7031 62.5301 60.8726 62.3861 61.0955C62.2422 61.3185 62.1307 61.5878 62.0518 61.9036C61.9775 62.2148 61.9403 62.5654 61.9403 62.9555V63.2341C61.9403 63.5639 61.9844 63.8704 62.0727 64.1537C62.1655 64.4323 62.3002 64.6761 62.4767 64.8851C62.6532 65.0941 62.8668 65.259 63.1176 65.3797C63.3684 65.4958 63.654 65.5539 63.9744 65.5539C64.3785 65.5539 64.7384 65.4726 65.0542 65.3101C65.37 65.1475 65.644 64.9176 65.8762 64.6204L66.7609 65.4772C66.5983 65.7141 66.387 65.9417 66.127 66.1599C65.8669 66.3736 65.5488 66.5477 65.1726 66.6824C64.8011 66.8171 64.3692 66.8844 63.8769 66.8844ZM71.2819 65.5469C71.5559 65.5469 71.802 65.4935 72.0203 65.3867C72.2432 65.2752 72.422 65.122 72.5567 64.9269C72.696 64.7319 72.7727 64.5066 72.7866 64.2512H74.3679C74.3586 64.7388 74.2146 65.1823 73.936 65.5817C73.6574 65.9811 73.2882 66.2993 72.8284 66.5361C72.3686 66.7683 71.8601 66.8844 71.3028 66.8844C70.7269 66.8844 70.2254 66.7869 69.7981 66.5918C69.3709 66.3921 69.0156 66.1181 68.7323 65.7698C68.449 65.4215 68.2354 65.0198 68.0914 64.5647C67.9521 64.1096 67.8824 63.6219 67.8824 63.1018V62.858C67.8824 62.3378 67.9521 61.8502 68.0914 61.3951C68.2354 60.9353 68.449 60.5313 68.7323 60.183C69.0156 59.8347 69.3709 59.563 69.7981 59.3679C70.2254 59.1682 70.7246 59.0684 71.2958 59.0684C71.8996 59.0684 72.429 59.1891 72.8841 59.4306C73.3392 59.6675 73.6968 59.9995 73.9569 60.4268C74.2216 60.8494 74.3586 61.3417 74.3679 61.9036H72.7866C72.7727 61.625 72.703 61.3742 72.5776 61.1513C72.4569 60.9237 72.285 60.7426 72.0621 60.6079C71.8438 60.4732 71.5814 60.4059 71.2749 60.4059C70.9359 60.4059 70.6549 60.4756 70.432 60.6149C70.2091 60.7496 70.035 60.9353 69.9096 61.1722C69.7842 61.4044 69.6936 61.6668 69.6379 61.9593C69.5868 62.2473 69.5613 62.5468 69.5613 62.858V63.1018C69.5613 63.4129 69.5868 63.7148 69.6379 64.0074C69.689 64.3 69.7772 64.5624 69.9026 64.7946C70.0326 65.0221 70.2091 65.2056 70.432 65.3449C70.6549 65.4796 70.9382 65.5469 71.2819 65.5469ZM85.9108 65.4076V66.7451H79.1118V65.5957L82.4138 61.9942C82.776 61.5855 83.0617 61.2325 83.2706 60.9353C83.4796 60.6381 83.6259 60.3711 83.7095 60.1342C83.7977 59.8927 83.8419 59.6582 83.8419 59.4306C83.8419 59.1102 83.7815 58.8292 83.6607 58.5877C83.5446 58.3416 83.3728 58.1489 83.1452 58.0095C82.9177 57.8656 82.6414 57.7936 82.3163 57.7936C81.9401 57.7936 81.6243 57.8749 81.3689 58.0374C81.1135 58.1999 80.9207 58.4252 80.7907 58.7131C80.6607 58.9964 80.5956 59.3215 80.5956 59.6884H78.9168C78.9168 59.0986 79.0515 58.5599 79.3208 58.0722C79.5902 57.58 79.9803 57.1899 80.4911 56.9019C81.002 56.6093 81.6173 56.4631 82.3372 56.4631C83.0152 56.4631 83.5911 56.5768 84.0648 56.8044C84.5385 57.032 84.8984 57.3547 85.1445 57.7727C85.3953 58.1907 85.5207 58.6853 85.5207 59.2565C85.5207 59.5723 85.4696 59.8858 85.3674 60.1969C85.2653 60.5081 85.119 60.8192 84.9286 61.1304C84.7428 61.4369 84.5222 61.7457 84.2668 62.0569C84.0114 62.3634 83.7304 62.6745 83.4239 62.9903L81.2296 65.4076H85.9108ZM93.8313 60.8239V62.4818C93.8313 63.2759 93.7524 63.954 93.5945 64.5159C93.4412 65.0732 93.2183 65.526 92.9257 65.8743C92.6331 66.2226 92.2825 66.4781 91.8738 66.6406C91.4698 66.8031 91.017 66.8844 90.5154 66.8844C90.116 66.8844 89.7445 66.8333 89.4008 66.7312C89.0618 66.629 88.7553 66.4688 88.4813 66.2505C88.2073 66.0322 87.9728 65.7512 87.7777 65.4076C87.5873 65.0593 87.4387 64.6436 87.3319 64.1606C87.2297 63.6777 87.1786 63.118 87.1786 62.4818V60.8239C87.1786 60.0251 87.2576 59.3517 87.4155 58.8037C87.5734 58.251 87.7986 57.8029 88.0912 57.4592C88.3838 57.1109 88.7321 56.8578 89.1361 56.6999C89.5448 56.542 89.9999 56.4631 90.5015 56.4631C90.9055 56.4631 91.2771 56.5141 91.6161 56.6163C91.9597 56.7138 92.2663 56.8694 92.5356 57.083C92.8096 57.2967 93.0418 57.5753 93.2322 57.919C93.4273 58.258 93.5759 58.669 93.6781 59.152C93.7802 59.6303 93.8313 60.1876 93.8313 60.8239ZM92.1525 62.7187V60.5731C92.1525 60.169 92.1293 59.8138 92.0828 59.5073C92.0364 59.1961 91.9667 58.9337 91.8738 58.7201C91.7856 58.5018 91.6741 58.3253 91.5395 58.1907C91.4048 58.0513 91.2515 57.9515 91.0797 57.8911C90.9079 57.8261 90.7151 57.7936 90.5015 57.7936C90.2414 57.7936 90.0092 57.8447 89.8049 57.9468C89.6005 58.0444 89.4287 58.2023 89.2894 58.4205C89.1501 58.6388 89.0433 58.9267 88.9689 59.2843C88.8993 59.6373 88.8645 60.0669 88.8645 60.5731V62.7187C88.8645 63.1273 88.8877 63.4873 88.9341 63.7984C88.9806 64.1096 89.0502 64.3766 89.1431 64.5995C89.236 64.8178 89.3474 64.9989 89.4775 65.1429C89.6122 65.2822 89.7654 65.3844 89.9372 65.4494C90.1137 65.5144 90.3064 65.5469 90.5154 65.5469C90.7801 65.5469 91.0147 65.4958 91.219 65.3937C91.4234 65.2915 91.5952 65.1289 91.7345 64.906C91.8738 64.6785 91.9783 64.3836 92.048 64.0213C92.1176 63.6591 92.1525 63.2249 92.1525 62.7187ZM102.128 65.4076V66.7451H95.329V65.5957L98.631 61.9942C98.9932 61.5855 99.2788 61.2325 99.4878 60.9353C99.6968 60.6381 99.8431 60.3711 99.9267 60.1342C100.015 59.8927 100.059 59.6582 100.059 59.4306C100.059 59.1102 99.9987 58.8292 99.8779 58.5877C99.7618 58.3416 99.59 58.1489 99.3624 58.0095C99.1349 57.8656 98.8585 57.7936 98.5335 57.7936C98.1573 57.7936 97.8415 57.8749 97.5861 58.0374C97.3306 58.1999 97.1379 58.4252 97.0079 58.7131C96.8778 58.9964 96.8128 59.3215 96.8128 59.6884H95.134C95.134 59.0986 95.2687 58.5599 95.538 58.0722C95.8074 57.58 96.1975 57.1899 96.7083 56.9019C97.2192 56.6093 97.8345 56.4631 98.5544 56.4631C99.2324 56.4631 99.8083 56.5768 100.282 56.8044C100.756 57.032 101.116 57.3547 101.362 57.7727C101.612 58.1907 101.738 58.6853 101.738 59.2565C101.738 59.5723 101.687 59.8858 101.585 60.1969C101.482 60.5081 101.336 60.8192 101.146 61.1304C100.96 61.4369 100.739 61.7457 100.484 62.0569C100.229 62.3634 99.9476 62.6745 99.6411 62.9903L97.4467 65.4076H102.128ZM105.409 60.9144H106.412C106.802 60.9144 107.125 60.8471 107.38 60.7124C107.641 60.5777 107.833 60.392 107.959 60.1551C108.084 59.9183 108.147 59.6466 108.147 59.3401C108.147 59.0196 108.089 58.7456 107.973 58.5181C107.861 58.2859 107.689 58.1071 107.457 57.9817C107.23 57.8563 106.939 57.7936 106.586 57.7936C106.289 57.7936 106.02 57.854 105.778 57.9747C105.541 58.0908 105.353 58.258 105.214 58.4763C105.075 58.6899 105.005 58.9453 105.005 59.2425H103.319C103.319 58.7038 103.461 58.2255 103.744 57.8075C104.027 57.3896 104.413 57.0621 104.901 56.8253C105.393 56.5838 105.945 56.4631 106.558 56.4631C107.213 56.4631 107.785 56.5722 108.272 56.7905C108.764 57.0041 109.148 57.3245 109.422 57.7518C109.696 58.179 109.833 58.7085 109.833 59.3401C109.833 59.628 109.765 59.9206 109.631 60.2178C109.496 60.515 109.296 60.7867 109.031 61.0328C108.767 61.2743 108.437 61.4717 108.042 61.625C107.648 61.7736 107.19 61.8479 106.67 61.8479H105.409V60.9144ZM105.409 62.2241V61.3045H106.67C107.264 61.3045 107.771 61.3742 108.189 61.5135C108.611 61.6528 108.955 61.8456 109.22 62.0917C109.484 62.3332 109.677 62.6095 109.798 62.9207C109.923 63.2318 109.986 63.5616 109.986 63.9099C109.986 64.3836 109.9 64.8062 109.728 65.1777C109.561 65.5446 109.322 65.8557 109.011 66.1112C108.699 66.3666 108.335 66.5593 107.917 66.6894C107.504 66.8194 107.053 66.8844 106.565 66.8844C106.129 66.8844 105.711 66.824 105.312 66.7033C104.912 66.5825 104.555 66.4037 104.239 66.1669C103.923 65.9254 103.672 65.6259 103.486 65.2683C103.305 64.906 103.215 64.4881 103.215 64.0144H104.894C104.894 64.3162 104.963 64.5833 105.103 64.8155C105.247 65.043 105.446 65.2218 105.702 65.3519C105.962 65.4819 106.259 65.5469 106.593 65.5469C106.946 65.5469 107.25 65.4842 107.506 65.3588C107.761 65.2334 107.956 65.0477 108.091 64.8015C108.23 64.5554 108.3 64.2582 108.3 63.9099C108.3 63.5151 108.223 63.1947 108.07 62.9485C107.917 62.7024 107.699 62.5213 107.415 62.4052C107.132 62.2844 106.798 62.2241 106.412 62.2241H105.409Z" fill="#8B909C"/>
<path d="M35.9496 100.768V110.945H34.2708V102.76L31.7839 103.603V102.216L35.7476 100.768H35.9496ZM44.0582 100.768V110.945H42.3794V102.76L39.8924 103.603V102.216L43.8562 100.768H44.0582ZM47.7015 110.109C47.7015 109.849 47.7897 109.631 47.9662 109.454C48.1427 109.273 48.3819 109.183 48.6837 109.183C48.9902 109.183 49.2294 109.273 49.4012 109.454C49.5777 109.631 49.666 109.849 49.666 110.109C49.666 110.369 49.5777 110.587 49.4012 110.764C49.2294 110.94 48.9902 111.029 48.6837 111.029C48.3819 111.029 48.1427 110.94 47.9662 110.764C47.7897 110.587 47.7015 110.369 47.7015 110.109ZM47.7085 104.174C47.7085 103.914 47.7967 103.696 47.9732 103.519C48.1497 103.338 48.3888 103.247 48.6907 103.247C48.9972 103.247 49.2364 103.338 49.4082 103.519C49.5847 103.696 49.6729 103.914 49.6729 104.174C49.6729 104.434 49.5847 104.652 49.4082 104.829C49.2364 105.005 48.9972 105.094 48.6907 105.094C48.3888 105.094 48.1497 105.005 47.9732 104.829C47.7967 104.652 47.7085 104.434 47.7085 104.174ZM58.3318 107.33V108.667H51.0174L50.9617 107.657L55.3364 100.802H56.6809L55.2249 103.296L52.7102 107.33H58.3318ZM57.064 100.802V110.945H55.3852V100.802H57.064ZM66.0643 105.024V106.682C66.0643 107.476 65.9853 108.154 65.8274 108.716C65.6742 109.273 65.4512 109.726 65.1587 110.074C64.8661 110.423 64.5155 110.678 64.1068 110.841C63.7027 111.003 63.2499 111.084 62.7484 111.084C62.349 111.084 61.9775 111.033 61.6338 110.931C61.2948 110.829 60.9883 110.669 60.7143 110.45C60.4403 110.232 60.2057 109.951 60.0107 109.608C59.8203 109.259 59.6717 108.844 59.5648 108.361C59.4627 107.878 59.4116 107.318 59.4116 106.682V105.024C59.4116 104.225 59.4905 103.552 59.6484 103.004C59.8063 102.451 60.0316 102.003 60.3242 101.659C60.6167 101.311 60.965 101.058 61.3691 100.9C61.7778 100.742 62.2329 100.663 62.7344 100.663C63.1385 100.663 63.51 100.714 63.849 100.816C64.1927 100.914 64.4992 101.069 64.7686 101.283C65.0426 101.497 65.2748 101.775 65.4652 102.119C65.6602 102.458 65.8088 102.869 65.911 103.352C66.0132 103.83 66.0643 104.388 66.0643 105.024ZM64.3854 106.919V104.773C64.3854 104.369 64.3622 104.014 64.3158 103.707C64.2693 103.396 64.1997 103.134 64.1068 102.92C64.0185 102.702 63.9071 102.525 63.7724 102.391C63.6377 102.251 63.4845 102.151 63.3126 102.091C63.1408 102.026 62.9481 101.994 62.7344 101.994C62.4744 101.994 62.2422 102.045 62.0378 102.147C61.8335 102.244 61.6617 102.402 61.5223 102.621C61.383 102.839 61.2762 103.127 61.2019 103.484C61.1322 103.837 61.0974 104.267 61.0974 104.773V106.919C61.0974 107.327 61.1206 107.687 61.1671 107.998C61.2135 108.31 61.2832 108.577 61.376 108.799C61.4689 109.018 61.5804 109.199 61.7104 109.343C61.8451 109.482 61.9984 109.584 62.1702 109.649C62.3467 109.714 62.5394 109.747 62.7484 109.747C63.0131 109.747 63.2476 109.696 63.452 109.594C63.6563 109.491 63.8281 109.329 63.9674 109.106C64.1068 108.878 64.2113 108.584 64.2809 108.221C64.3506 107.859 64.3854 107.425 64.3854 106.919ZM75.2317 107.162H72.5915V105.776H75.2317C75.6915 105.776 76.063 105.702 76.3463 105.553C76.6296 105.405 76.8362 105.2 76.9663 104.94C77.101 104.676 77.1683 104.374 77.1683 104.035C77.1683 103.714 77.101 103.415 76.9663 103.136C76.8362 102.853 76.6296 102.625 76.3463 102.453C76.063 102.282 75.6915 102.196 75.2317 102.196H73.1279V110.945H71.3794V100.802H75.2317C76.0166 100.802 76.683 100.942 77.231 101.22C77.7836 101.494 78.2039 101.875 78.4919 102.363C78.7798 102.846 78.9238 103.398 78.9238 104.021C78.9238 104.676 78.7798 105.237 78.4919 105.707C78.2039 106.176 77.7836 106.535 77.231 106.786C76.683 107.037 76.0166 107.162 75.2317 107.162ZM81.2017 100.802H82.7621L85.6949 108.625L88.6206 100.802H90.1811L86.3079 110.945H85.0679L81.2017 100.802ZM80.4911 100.802H81.9749L82.2327 107.573V110.945H80.4911V100.802ZM89.4078 100.802H90.8986V110.945H89.1501V107.573L89.4078 100.802Z" fill="#8B909C"/>
<g filter="url(#filter1_dd_1165_3699)">
<rect x="121.11" y="30.3673" width="247.289" height="108.956" rx="4.75556" fill="white" shape-rendering="crispEdges"/>
<circle cx="147.266" cy="56.5229" r="14.2667" fill="#D9D9D9"/>
<rect x="169.854" y="51.7673" width="185.467" height="9.51111" rx="2.37778" fill="#D9D9D9"/>
<path d="M143.89 82.4673C143.069 82.4673 142.404 83.1327 142.404 83.9534C142.404 84.7742 143.069 85.4395 143.89 85.4395C144.711 85.4395 145.376 84.7742 145.376 83.9534C145.376 83.1327 144.711 82.4673 143.89 82.4673ZM141.215 83.9534C141.215 82.4761 142.413 81.2784 143.89 81.2784C145.367 81.2784 146.565 82.4761 146.565 83.9534C146.565 84.6976 146.261 85.3708 145.771 85.8558C146.05 86.01 146.291 86.2345 146.465 86.5141L147.234 87.745L148.763 88.7009C149.654 89.2577 149.925 90.4313 149.368 91.3222C148.811 92.2131 147.638 92.4839 146.747 91.9271L145.023 90.8499L145.71 91.8212C146.009 92.2439 146.197 92.7349 146.257 93.2492L146.553 95.8011C146.675 96.8446 145.927 97.7889 144.883 97.9102C143.84 98.0314 142.896 97.2837 142.774 96.2402L142.499 93.8692L142.077 93.2728L140.728 96.7147C140.345 97.6929 139.241 98.1751 138.263 97.7917C137.285 97.4084 136.803 96.3047 137.186 95.3266L138.498 91.9789C138.262 91.978 138.022 91.9327 137.79 91.8383C136.816 91.4425 136.348 90.3327 136.744 89.3595L137.889 86.5446C138.121 85.9753 138.613 85.553 139.211 85.4107L141.37 84.8968L141.385 84.8933C141.275 84.6009 141.215 84.2842 141.215 83.9534ZM141.986 86.056C141.874 86.0275 141.757 86.0266 141.645 86.0534L139.486 86.5673C139.262 86.6207 139.077 86.779 138.99 86.9925L137.845 89.8075C137.697 90.1724 137.872 90.5886 138.237 90.737C138.602 90.8854 139.018 90.7099 139.167 90.345L140.064 88.14C140.132 87.9707 140.279 87.845 140.457 87.8027C140.901 87.6969 141.281 88.1343 141.115 88.5597L138.293 95.7604C138.149 96.1272 138.33 96.5411 138.697 96.6848C139.063 96.8286 139.477 96.6477 139.621 96.2809L140.961 92.8625C141.303 91.9901 142.472 91.8376 143.026 92.5932L143.571 93.3356C143.62 93.4021 143.65 93.4801 143.66 93.562L143.955 96.103C144 96.4943 144.355 96.7747 144.746 96.7292C145.137 96.6837 145.418 96.3296 145.372 95.9383L145.077 93.3973C145.039 93.0698 144.916 92.7578 144.721 92.4919L143.856 91.3123C143.619 90.9888 143.561 90.5674 143.702 90.1918L144.104 89.1184C144.134 89.038 144.186 88.9673 144.253 88.9137C144.475 88.7356 144.803 88.7916 144.954 89.0335L145.247 89.5028C145.305 89.5948 145.382 89.6725 145.474 89.73L147.377 90.9189C147.711 91.1277 148.151 91.0261 148.36 90.6921C148.568 90.358 148.467 89.9179 148.133 89.7091L146.603 88.7532C146.45 88.6574 146.321 88.5279 146.225 88.3745L145.457 87.1436C145.359 86.9876 145.205 86.8753 145.027 86.83L141.986 86.056Z" fill="#242424"/>
<path d="M159.948 94.1118L157.07 83.736H158.717L160.738 91.7711H160.834L162.937 83.736H164.568L166.671 91.7762H166.767L168.783 83.736H170.435L167.552 94.1118H165.977L163.793 86.3401H163.712L161.529 94.1118H159.948ZM173.239 94.284C172.746 94.284 172.3 94.1928 171.902 94.0104C171.503 93.8247 171.187 93.5562 170.954 93.2049C170.725 92.8536 170.61 92.423 170.61 91.913C170.61 91.4739 170.694 91.1125 170.863 90.8288C171.032 90.5451 171.26 90.3205 171.547 90.155C171.834 89.9895 172.155 89.8645 172.51 89.7801C172.864 89.6956 173.226 89.6315 173.594 89.5876C174.06 89.5335 174.438 89.4896 174.729 89.4558C175.019 89.4187 175.23 89.3596 175.362 89.2785C175.494 89.1975 175.56 89.0657 175.56 88.8833V88.8479C175.56 88.4054 175.435 88.0626 175.185 87.8194C174.938 87.5762 174.57 87.4547 174.08 87.4547C173.57 87.4547 173.168 87.5678 172.874 87.7941C172.584 88.017 172.383 88.2653 172.272 88.5388L170.848 88.2146C171.017 87.7417 171.263 87.3601 171.588 87.0696C171.915 86.7758 172.292 86.563 172.717 86.4313C173.143 86.2962 173.591 86.2286 174.06 86.2286C174.371 86.2286 174.7 86.2658 175.048 86.3401C175.399 86.411 175.727 86.5427 176.031 86.7352C176.338 86.9278 176.59 87.203 176.786 87.561C176.982 87.9157 177.08 88.3767 177.08 88.9441V94.1118H175.6V93.0478H175.539C175.441 93.2437 175.294 93.4363 175.099 93.6254C174.903 93.8145 174.651 93.9716 174.344 94.0966C174.036 94.2215 173.668 94.284 173.239 94.284ZM173.569 93.0681C173.987 93.0681 174.345 92.9854 174.643 92.8199C174.943 92.6544 175.171 92.4382 175.327 92.1714C175.485 91.9012 175.565 91.6124 175.565 91.305V90.3019C175.511 90.3559 175.406 90.4066 175.251 90.4539C175.099 90.4978 174.925 90.5366 174.729 90.5704C174.533 90.6008 174.342 90.6295 174.156 90.6565C173.971 90.6802 173.815 90.7005 173.69 90.7173C173.396 90.7545 173.128 90.817 172.885 90.9048C172.645 90.9926 172.452 91.1193 172.307 91.2848C172.165 91.4469 172.094 91.663 172.094 91.9333C172.094 92.3082 172.233 92.5919 172.51 92.7844C172.787 92.9735 173.14 93.0681 173.569 93.0681ZM180.612 83.736V94.1118H179.097V83.736H180.612ZM184.043 91.4722L184.033 89.623H184.296L187.397 86.3299H189.211L185.674 90.079H185.436L184.043 91.4722ZM182.65 94.1118V83.736H184.165V94.1118H182.65ZM187.564 94.1118L184.778 90.4134L185.821 89.3545L189.424 94.1118H187.564ZM194.647 89.0708V90.383H190.047V89.0708H194.647ZM196.666 94.1118V86.3299H198.181V94.1118H196.666ZM197.431 85.1292C197.167 85.1292 196.941 85.0414 196.752 84.8658C196.566 84.6868 196.473 84.474 196.473 84.2274C196.473 83.9775 196.566 83.7647 196.752 83.5891C196.941 83.4101 197.167 83.3206 197.431 83.3206C197.694 83.3206 197.919 83.4101 198.105 83.5891C198.294 83.7647 198.388 83.9775 198.388 84.2274C198.388 84.474 198.294 84.6868 198.105 84.8658C197.919 85.0414 197.694 85.1292 197.431 85.1292ZM201.733 89.4913V94.1118H200.219V86.3299H201.673V87.5965H201.769C201.948 87.1845 202.228 86.8535 202.61 86.6035C202.995 86.3536 203.48 86.2286 204.064 86.2286C204.594 86.2286 205.059 86.3401 205.457 86.563C205.856 86.7825 206.165 87.1101 206.384 87.5458C206.604 87.9815 206.714 88.5203 206.714 89.162V94.1118H205.199V89.3444C205.199 88.7803 205.052 88.3396 204.758 88.0221C204.464 87.7012 204.06 87.5408 203.547 87.5408C203.196 87.5408 202.883 87.6168 202.61 87.7688C202.34 87.9208 202.125 88.1437 201.966 88.4375C201.811 88.728 201.733 89.0792 201.733 89.4913ZM221.26 87.1101H219.679C219.619 86.7724 219.505 86.4752 219.34 86.2185C219.174 85.9618 218.972 85.7439 218.732 85.5649C218.492 85.3859 218.224 85.2508 217.926 85.1596C217.633 85.0684 217.32 85.0228 216.989 85.0228C216.391 85.0228 215.856 85.1731 215.383 85.4737C214.914 85.7743 214.542 86.2151 214.269 86.796C213.998 87.377 213.863 88.0863 213.863 88.9239C213.863 89.7683 213.998 90.4809 214.269 91.0618C214.542 91.6428 214.915 92.0819 215.388 92.3791C215.861 92.6763 216.393 92.8249 216.984 92.8249C217.312 92.8249 217.622 92.781 217.916 92.6932C218.214 92.602 218.482 92.4686 218.722 92.293C218.962 92.1173 219.164 91.9029 219.33 91.6495C219.499 91.3928 219.615 91.099 219.679 90.768L221.26 90.7731C221.176 91.2831 221.012 91.7526 220.769 92.1815C220.529 92.6071 220.22 92.9752 219.842 93.286C219.467 93.5933 219.038 93.8314 218.555 94.0003C218.072 94.1692 217.545 94.2536 216.974 94.2536C216.076 94.2536 215.275 94.0408 214.573 93.6153C213.87 93.1863 213.316 92.5733 212.911 91.7762C212.509 90.9791 212.308 90.0283 212.308 88.9239C212.308 87.816 212.511 86.8653 212.916 86.0716C213.321 85.2745 213.875 84.6631 214.578 84.2376C215.28 83.8086 216.079 83.5941 216.974 83.5941C217.525 83.5941 218.038 83.6735 218.514 83.8323C218.994 83.9876 219.424 84.2173 219.806 84.5213C220.188 84.8219 220.504 85.19 220.753 85.6257C221.003 86.058 221.172 86.5529 221.26 87.1101ZM226.29 94.2688C225.56 94.2688 224.923 94.1016 224.38 93.7672C223.836 93.4329 223.414 92.9651 223.113 92.3639C222.812 91.7627 222.662 91.0602 222.662 90.2563C222.662 89.4491 222.812 88.7432 223.113 88.1386C223.414 87.534 223.836 87.0645 224.38 86.7302C224.923 86.3958 225.56 86.2286 226.29 86.2286C227.019 86.2286 227.656 86.3958 228.2 86.7302C228.743 87.0645 229.166 87.534 229.466 88.1386C229.767 88.7432 229.917 89.4491 229.917 90.2563C229.917 91.0602 229.767 91.7627 229.466 92.3639C229.166 92.9651 228.743 93.4329 228.2 93.7672C227.656 94.1016 227.019 94.2688 226.29 94.2688ZM226.295 92.9972C226.768 92.9972 227.159 92.8722 227.47 92.6223C227.781 92.3723 228.01 92.0396 228.159 91.6242C228.311 91.2088 228.387 90.7511 228.387 90.2512C228.387 89.7547 228.311 89.2988 228.159 88.8833C228.01 88.4645 227.781 88.1285 227.47 87.8752C227.159 87.6218 226.768 87.4952 226.295 87.4952C225.818 87.4952 225.423 87.6218 225.109 87.8752C224.798 88.1285 224.567 88.4645 224.415 88.8833C224.266 89.2988 224.192 89.7547 224.192 90.2512C224.192 90.7511 224.266 91.2088 224.415 91.6242C224.567 92.0396 224.798 92.3723 225.109 92.6223C225.423 92.8722 225.818 92.9972 226.295 92.9972ZM233.123 89.4913V94.1118H231.608V86.3299H233.062V87.5965H233.158C233.337 87.1845 233.618 86.8535 233.999 86.6035C234.384 86.3536 234.869 86.2286 235.453 86.2286C235.984 86.2286 236.448 86.3401 236.847 86.563C237.245 86.7825 237.554 87.1101 237.774 87.5458C237.993 87.9815 238.103 88.5203 238.103 89.162V94.1118H236.588V89.3444C236.588 88.7803 236.441 88.3396 236.147 88.0221C235.854 87.7012 235.45 87.5408 234.937 87.5408C234.585 87.5408 234.273 87.6168 233.999 87.7688C233.729 87.9208 233.515 88.1437 233.356 88.4375C233.2 88.728 233.123 89.0792 233.123 89.4913ZM245.966 88.2298L244.593 88.473C244.535 88.2973 244.444 88.1302 244.319 87.9714C244.198 87.8127 244.032 87.6826 243.823 87.5813C243.613 87.48 243.352 87.4293 243.038 87.4293C242.609 87.4293 242.251 87.5256 241.963 87.7181C241.676 87.9072 241.533 88.1521 241.533 88.4527C241.533 88.7128 241.629 88.9222 241.822 89.0809C242.014 89.2397 242.325 89.3697 242.754 89.471L243.99 89.7547C244.706 89.9202 245.24 90.1752 245.591 90.5198C245.942 90.8643 246.118 91.3118 246.118 91.8623C246.118 92.3284 245.983 92.7439 245.713 93.1086C245.446 93.47 245.072 93.7537 244.593 93.9598C244.117 94.1658 243.564 94.2688 242.936 94.2688C242.065 94.2688 241.354 94.083 240.803 93.7115C240.253 93.3366 239.915 92.8047 239.79 92.1156L241.254 91.8927C241.345 92.2744 241.533 92.5632 241.817 92.7591C242.1 92.9516 242.47 93.0478 242.926 93.0478C243.423 93.0478 243.819 92.9448 244.117 92.7388C244.414 92.5294 244.562 92.2744 244.562 91.9738C244.562 91.7306 244.471 91.5263 244.289 91.3608C244.11 91.1953 243.835 91.0703 243.463 90.9859L242.146 90.6971C241.42 90.5316 240.883 90.2681 240.535 89.9067C240.19 89.5453 240.018 89.0877 240.018 88.5338C240.018 88.0744 240.146 87.6725 240.403 87.328C240.66 86.9835 241.014 86.715 241.467 86.5225C241.92 86.3266 242.438 86.2286 243.022 86.2286C243.863 86.2286 244.525 86.411 245.008 86.7758C245.491 87.1372 245.81 87.6218 245.966 88.2298ZM252.713 90.8845V86.3299H254.233V94.1118H252.743V92.7641H252.662C252.483 93.1796 252.196 93.5258 251.801 93.8027C251.409 94.0763 250.921 94.2131 250.337 94.2131C249.837 94.2131 249.394 94.1033 249.009 93.8838C248.628 93.6609 248.327 93.3315 248.108 92.8958C247.891 92.4601 247.783 91.9214 247.783 91.2797V86.3299H249.298V91.0973C249.298 91.6276 249.445 92.0498 249.739 92.3639C250.033 92.678 250.414 92.8351 250.884 92.8351C251.168 92.8351 251.45 92.7641 251.73 92.6223C252.014 92.4804 252.248 92.2659 252.434 91.9788C252.623 91.6918 252.716 91.327 252.713 90.8845ZM257.783 83.736V94.1118H256.268V83.736H257.783ZM263.453 86.3299V87.5458H259.203V86.3299H263.453ZM260.343 84.4655H261.858V91.8269C261.858 92.1207 261.901 92.3419 261.989 92.4905C262.077 92.6358 262.19 92.7354 262.329 92.7895C262.471 92.8401 262.624 92.8654 262.79 92.8654C262.911 92.8654 263.018 92.857 263.109 92.8401C263.2 92.8232 263.271 92.8097 263.322 92.7996L263.595 94.051C263.507 94.0847 263.382 94.1185 263.22 94.1523C263.058 94.1894 262.856 94.2097 262.612 94.2131C262.214 94.2198 261.842 94.1489 261.498 94.0003C261.153 93.8517 260.875 93.622 260.662 93.3113C260.449 93.0005 260.343 92.6104 260.343 92.141V84.4655ZM267.394 94.284C266.901 94.284 266.455 94.1928 266.056 94.0104C265.658 93.8247 265.342 93.5562 265.109 93.2049C264.879 92.8536 264.764 92.423 264.764 91.913C264.764 91.4739 264.849 91.1125 265.018 90.8288C265.186 90.5451 265.414 90.3205 265.702 90.155C265.989 89.9895 266.31 89.8645 266.664 89.7801C267.019 89.6956 267.38 89.6315 267.748 89.5876C268.214 89.5335 268.593 89.4896 268.883 89.4558C269.174 89.4187 269.385 89.3596 269.516 89.2785C269.648 89.1975 269.714 89.0657 269.714 88.8833V88.8479C269.714 88.4054 269.589 88.0626 269.339 87.8194C269.093 87.5762 268.724 87.4547 268.235 87.4547C267.725 87.4547 267.323 87.5678 267.029 87.7941C266.738 88.017 266.537 88.2653 266.426 88.5388L265.002 88.2146C265.171 87.7417 265.418 87.3601 265.742 87.0696C266.07 86.7758 266.446 86.563 266.872 86.4313C267.297 86.2962 267.745 86.2286 268.214 86.2286C268.525 86.2286 268.854 86.2658 269.202 86.3401C269.554 86.411 269.881 86.5427 270.185 86.7352C270.493 86.9278 270.744 87.203 270.94 87.561C271.136 87.9157 271.234 88.3767 271.234 88.9441V94.1118H269.755V93.0478H269.694C269.596 93.2437 269.449 93.4363 269.253 93.6254C269.057 93.8145 268.806 93.9716 268.498 94.0966C268.191 94.2215 267.823 94.284 267.394 94.284ZM267.723 93.0681C268.142 93.0681 268.5 92.9854 268.797 92.8199C269.098 92.6544 269.326 92.4382 269.481 92.1714C269.64 91.9012 269.719 91.6124 269.719 91.305V90.3019C269.665 90.3559 269.56 90.4066 269.405 90.4539C269.253 90.4978 269.079 90.5366 268.883 90.5704C268.687 90.6008 268.496 90.6295 268.311 90.6565C268.125 90.6802 267.97 90.7005 267.845 90.7173C267.551 90.7545 267.282 90.817 267.039 90.9048C266.799 90.9926 266.607 91.1193 266.461 91.2848C266.32 91.4469 266.249 91.663 266.249 91.9333C266.249 92.3082 266.387 92.5919 266.664 92.7844C266.941 92.9735 267.294 93.0681 267.723 93.0681ZM276.884 86.3299V87.5458H272.634V86.3299H276.884ZM273.773 84.4655H275.288V91.8269C275.288 92.1207 275.332 92.3419 275.42 92.4905C275.508 92.6358 275.621 92.7354 275.759 92.7895C275.901 92.8401 276.055 92.8654 276.22 92.8654C276.342 92.8654 276.448 92.857 276.54 92.8401C276.631 92.8232 276.702 92.8097 276.752 92.7996L277.026 94.051C276.938 94.0847 276.813 94.1185 276.651 94.1523C276.489 94.1894 276.286 94.2097 276.043 94.2131C275.645 94.2198 275.273 94.1489 274.929 94.0003C274.584 93.8517 274.305 93.622 274.093 93.3113C273.88 93.0005 273.773 92.6104 273.773 92.141V84.4655ZM278.56 94.1118V86.3299H280.075V94.1118H278.56ZM279.325 85.1292C279.061 85.1292 278.835 85.0414 278.646 84.8658C278.46 84.6868 278.367 84.474 278.367 84.2274C278.367 83.9775 278.46 83.7647 278.646 83.5891C278.835 83.4101 279.061 83.3206 279.325 83.3206C279.588 83.3206 279.813 83.4101 279.999 83.5891C280.188 83.7647 280.282 83.9775 280.282 84.2274C280.282 84.474 280.188 84.6868 279.999 84.8658C279.813 85.0414 279.588 85.1292 279.325 85.1292ZM285.39 94.2688C284.661 94.2688 284.024 94.1016 283.48 93.7672C282.937 93.4329 282.514 92.9651 282.214 92.3639C281.913 91.7627 281.763 91.0602 281.763 90.2563C281.763 89.4491 281.913 88.7432 282.214 88.1386C282.514 87.534 282.937 87.0645 283.48 86.7302C284.024 86.3958 284.661 86.2286 285.39 86.2286C286.12 86.2286 286.757 86.3958 287.3 86.7302C287.844 87.0645 288.266 87.534 288.567 88.1386C288.868 88.7432 289.018 89.4491 289.018 90.2563C289.018 91.0602 288.868 91.7627 288.567 92.3639C288.266 92.9651 287.844 93.4329 287.3 93.7672C286.757 94.1016 286.12 94.2688 285.39 94.2688ZM285.395 92.9972C285.868 92.9972 286.26 92.8722 286.571 92.6223C286.882 92.3723 287.111 92.0396 287.26 91.6242C287.412 91.2088 287.488 90.7511 287.488 90.2512C287.488 89.7547 287.412 89.2988 287.26 88.8833C287.111 88.4645 286.882 88.1285 286.571 87.8752C286.26 87.6218 285.868 87.4952 285.395 87.4952C284.919 87.4952 284.524 87.6218 284.21 87.8752C283.899 88.1285 283.668 88.4645 283.516 88.8833C283.367 89.2988 283.293 89.7547 283.293 90.2512C283.293 90.7511 283.367 91.2088 283.516 91.6242C283.668 92.0396 283.899 92.3723 284.21 92.6223C284.524 92.8722 284.919 92.9972 285.395 92.9972ZM292.224 89.4913V94.1118H290.709V86.3299H292.163V87.5965H292.259C292.438 87.1845 292.718 86.8535 293.1 86.6035C293.485 86.3536 293.97 86.2286 294.554 86.2286C295.084 86.2286 295.549 86.3401 295.947 86.563C296.346 86.7825 296.655 87.1101 296.874 87.5458C297.094 87.9815 297.204 88.5203 297.204 89.162V94.1118H295.689V89.3444C295.689 88.7803 295.542 88.3396 295.248 88.0221C294.954 87.7012 294.551 87.5408 294.037 87.5408C293.686 87.5408 293.374 87.6168 293.1 87.7688C292.83 87.9208 292.615 88.1437 292.457 88.4375C292.301 88.728 292.224 89.0792 292.224 89.4913Z" fill="#45484E"/>
<path d="M134.139 122.434V112.058H137.939C138.675 112.058 139.285 112.18 139.768 112.423C140.251 112.663 140.612 112.989 140.852 113.401C141.092 113.809 141.211 114.27 141.211 114.784C141.211 115.216 141.132 115.581 140.973 115.878C140.815 116.172 140.602 116.408 140.335 116.587C140.072 116.763 139.781 116.891 139.464 116.973V117.074C139.808 117.091 140.144 117.202 140.472 117.408C140.803 117.611 141.076 117.9 141.293 118.275C141.509 118.649 141.617 119.105 141.617 119.642C141.617 120.173 141.492 120.649 141.242 121.071C140.995 121.49 140.614 121.823 140.097 122.069C139.58 122.312 138.92 122.434 138.116 122.434H134.139ZM135.704 121.091H137.964C138.714 121.091 139.251 120.946 139.575 120.656C139.899 120.365 140.061 120.002 140.061 119.566C140.061 119.239 139.979 118.938 139.813 118.665C139.648 118.391 139.411 118.173 139.104 118.011C138.8 117.849 138.439 117.768 138.02 117.768H135.704V121.091ZM135.704 116.547H137.802C138.153 116.547 138.469 116.479 138.749 116.344C139.033 116.209 139.258 116.02 139.423 115.777C139.592 115.53 139.676 115.24 139.676 114.905C139.676 114.477 139.526 114.117 139.225 113.826C138.925 113.536 138.464 113.391 137.842 113.391H135.704V116.547ZM145.617 122.606C145.123 122.606 144.678 122.515 144.279 122.333C143.881 122.147 143.565 121.878 143.332 121.527C143.102 121.176 142.987 120.745 142.987 120.235C142.987 119.796 143.072 119.435 143.241 119.151C143.409 118.867 143.637 118.643 143.924 118.477C144.212 118.312 144.532 118.187 144.887 118.102C145.242 118.018 145.603 117.954 145.971 117.91C146.437 117.856 146.816 117.812 147.106 117.778C147.397 117.741 147.608 117.682 147.739 117.601C147.871 117.52 147.937 117.388 147.937 117.206V117.17C147.937 116.728 147.812 116.385 147.562 116.142C147.316 115.898 146.947 115.777 146.458 115.777C145.948 115.777 145.546 115.89 145.252 116.116C144.961 116.339 144.76 116.587 144.649 116.861L143.225 116.537C143.394 116.064 143.641 115.682 143.965 115.392C144.293 115.098 144.669 114.885 145.095 114.753C145.52 114.618 145.968 114.551 146.437 114.551C146.748 114.551 147.077 114.588 147.425 114.662C147.777 114.733 148.104 114.865 148.408 115.057C148.715 115.25 148.967 115.525 149.163 115.883C149.359 116.238 149.457 116.699 149.457 117.266V122.434H147.978V121.37H147.917C147.819 121.566 147.672 121.758 147.476 121.948C147.28 122.137 147.028 122.294 146.721 122.419C146.414 122.544 146.046 122.606 145.617 122.606ZM145.946 121.39C146.365 121.39 146.723 121.308 147.02 121.142C147.321 120.977 147.549 120.76 147.704 120.494C147.863 120.223 147.942 119.935 147.942 119.627V118.624C147.888 118.678 147.783 118.729 147.628 118.776C147.476 118.82 147.302 118.859 147.106 118.893C146.91 118.923 146.719 118.952 146.534 118.979C146.348 119.002 146.192 119.023 146.068 119.04C145.774 119.077 145.505 119.139 145.262 119.227C145.022 119.315 144.83 119.441 144.684 119.607C144.543 119.769 144.472 119.985 144.472 120.255C144.472 120.63 144.61 120.914 144.887 121.107C145.164 121.296 145.517 121.39 145.946 121.39ZM154.752 122.591C153.999 122.591 153.351 122.42 152.807 122.079C152.267 121.735 151.851 121.26 151.561 120.656C151.27 120.051 151.125 119.359 151.125 118.579C151.125 117.788 151.274 117.091 151.571 116.486C151.868 115.878 152.287 115.404 152.827 115.063C153.368 114.721 154.004 114.551 154.737 114.551C155.328 114.551 155.855 114.661 156.318 114.88C156.781 115.096 157.154 115.4 157.438 115.792C157.725 116.184 157.895 116.642 157.949 117.165H156.475C156.394 116.8 156.208 116.486 155.918 116.223C155.631 115.959 155.246 115.828 154.763 115.828C154.34 115.828 153.97 115.939 153.653 116.162C153.339 116.381 153.094 116.696 152.918 117.104C152.743 117.51 152.655 117.989 152.655 118.543C152.655 119.11 152.741 119.6 152.913 120.012C153.086 120.424 153.329 120.744 153.643 120.97C153.96 121.196 154.334 121.309 154.763 121.309C155.05 121.309 155.31 121.257 155.543 121.152C155.779 121.044 155.977 120.89 156.135 120.691C156.298 120.492 156.411 120.252 156.475 119.972H157.949C157.895 120.475 157.731 120.924 157.458 121.319C157.184 121.715 156.818 122.025 156.358 122.252C155.902 122.478 155.367 122.591 154.752 122.591ZM160.962 119.794L160.952 117.945H161.216L164.316 114.652H166.13L162.594 118.401H162.356L160.962 119.794ZM159.569 122.434V112.058H161.084V122.434H159.569ZM164.483 122.434L161.697 118.736L162.741 117.677L166.343 122.434H164.483ZM171.408 122.434V112.058H175.106C175.913 112.058 176.582 112.205 177.112 112.499C177.643 112.793 178.04 113.195 178.303 113.705C178.566 114.211 178.698 114.782 178.698 115.417C178.698 116.056 178.565 116.63 178.298 117.14C178.035 117.646 177.636 118.048 177.102 118.345C176.572 118.639 175.905 118.786 175.101 118.786H172.558V117.459H174.959C175.469 117.459 175.883 117.371 176.201 117.195C176.518 117.016 176.751 116.773 176.9 116.466C177.048 116.159 177.123 115.809 177.123 115.417C177.123 115.025 177.048 114.677 176.9 114.373C176.751 114.07 176.516 113.831 176.195 113.659C175.878 113.487 175.459 113.401 174.939 113.401H172.973V122.434H171.408ZM182.607 122.606C182.114 122.606 181.668 122.515 181.269 122.333C180.871 122.147 180.555 121.878 180.322 121.527C180.092 121.176 179.977 120.745 179.977 120.235C179.977 119.796 180.062 119.435 180.231 119.151C180.4 118.867 180.628 118.643 180.915 118.477C181.202 118.312 181.523 118.187 181.877 118.102C182.232 118.018 182.593 117.954 182.961 117.91C183.428 117.856 183.806 117.812 184.096 117.778C184.387 117.741 184.598 117.682 184.73 117.601C184.861 117.52 184.927 117.388 184.927 117.206V117.17C184.927 116.728 184.802 116.385 184.552 116.142C184.306 115.898 183.938 115.777 183.448 115.777C182.938 115.777 182.536 115.89 182.242 116.116C181.952 116.339 181.751 116.587 181.639 116.861L180.216 116.537C180.384 116.064 180.631 115.682 180.955 115.392C181.283 115.098 181.659 114.885 182.085 114.753C182.511 114.618 182.958 114.551 183.428 114.551C183.738 114.551 184.068 114.588 184.416 114.662C184.767 114.733 185.094 114.865 185.398 115.057C185.706 115.25 185.957 115.525 186.153 115.883C186.349 116.238 186.447 116.699 186.447 117.266V122.434H184.968V121.37H184.907C184.809 121.566 184.662 121.758 184.466 121.948C184.27 122.137 184.019 122.294 183.711 122.419C183.404 122.544 183.036 122.606 182.607 122.606ZM182.936 121.39C183.355 121.39 183.713 121.308 184.01 121.142C184.311 120.977 184.539 120.76 184.694 120.494C184.853 120.223 184.932 119.935 184.932 119.627V118.624C184.878 118.678 184.774 118.729 184.618 118.776C184.466 118.82 184.292 118.859 184.096 118.893C183.9 118.923 183.71 118.952 183.524 118.979C183.338 119.002 183.183 119.023 183.058 119.04C182.764 119.077 182.495 119.139 182.252 119.227C182.012 119.315 181.82 119.441 181.675 119.607C181.533 119.769 181.462 119.985 181.462 120.255C181.462 120.63 181.6 120.914 181.877 121.107C182.154 121.296 182.507 121.39 182.936 121.39ZM188.465 122.434V114.652H189.98V122.434H188.465ZM189.23 113.451C188.966 113.451 188.74 113.364 188.551 113.188C188.365 113.009 188.272 112.796 188.272 112.55C188.272 112.3 188.365 112.087 188.551 111.911C188.74 111.732 188.966 111.643 189.23 111.643C189.493 111.643 189.718 111.732 189.904 111.911C190.093 112.087 190.187 112.3 190.187 112.55C190.187 112.796 190.093 113.009 189.904 113.188C189.718 113.364 189.493 113.451 189.23 113.451ZM193.532 117.814V122.434H192.017V114.652H193.472V115.919H193.568C193.747 115.507 194.027 115.176 194.409 114.926C194.794 114.676 195.278 114.551 195.863 114.551C196.393 114.551 196.857 114.662 197.256 114.885C197.655 115.105 197.964 115.432 198.183 115.868C198.403 116.304 198.512 116.842 198.512 117.484V122.434H196.998V117.667C196.998 117.103 196.851 116.662 196.557 116.344C196.263 116.023 195.859 115.863 195.346 115.863C194.995 115.863 194.682 115.939 194.409 116.091C194.139 116.243 193.924 116.466 193.765 116.76C193.61 117.05 193.532 117.401 193.532 117.814Z" fill="#8B909C"/>
</g>
<path d="M35.9496 176.523V186.701H34.2708V178.515L31.7839 179.358V177.972L35.7476 176.523H35.9496ZM46.2734 185.363V186.701H39.4745V185.551L42.7764 181.95C43.1387 181.541 43.4243 181.188 43.6333 180.891C43.8423 180.594 43.9885 180.327 44.0721 180.09C44.1604 179.848 44.2045 179.614 44.2045 179.386C44.2045 179.066 44.1441 178.785 44.0234 178.543C43.9073 178.297 43.7354 178.104 43.5079 177.965C43.2803 177.821 43.004 177.749 42.6789 177.749C42.3027 177.749 41.9869 177.83 41.7315 177.993C41.4761 178.156 41.2834 178.381 41.1533 178.669C41.0233 178.952 40.9583 179.277 40.9583 179.644H39.2794C39.2794 179.054 39.4141 178.515 39.6835 178.028C39.9528 177.536 40.3429 177.145 40.8538 176.858C41.3646 176.565 41.98 176.419 42.6998 176.419C43.3778 176.419 43.9537 176.532 44.4274 176.76C44.9011 176.988 45.261 177.31 45.5072 177.728C45.7579 178.146 45.8833 178.641 45.8833 179.212C45.8833 179.528 45.8322 179.841 45.7301 180.153C45.6279 180.464 45.4816 180.775 45.2912 181.086C45.1054 181.392 44.8849 181.701 44.6294 182.012C44.374 182.319 44.093 182.63 43.7865 182.946L41.5922 185.363H46.2734ZM54.3472 186.701H52.1807L52.1947 185.314H54.3472C54.9742 185.314 55.4989 185.177 55.9215 184.903C56.3488 184.629 56.6692 184.237 56.8829 183.726C57.1012 183.215 57.2103 182.607 57.2103 181.901V181.351C57.2103 180.803 57.1476 180.317 57.0222 179.895C56.9015 179.472 56.7203 179.117 56.4788 178.829C56.242 178.541 55.9494 178.323 55.6011 178.174C55.2574 178.026 54.8604 177.951 54.4099 177.951H52.1389V176.558H54.4099C55.0833 176.558 55.6986 176.672 56.2559 176.899C56.8132 177.122 57.2939 177.445 57.6979 177.868C58.1066 178.29 58.4201 178.796 58.6383 179.386C58.8566 179.976 58.9658 180.635 58.9658 181.365V181.901C58.9658 182.63 58.8566 183.29 58.6383 183.879C58.4201 184.469 58.1066 184.975 57.6979 185.398C57.2892 185.816 56.8016 186.139 56.235 186.366C55.6731 186.589 55.0438 186.701 54.3472 186.701ZM53.149 176.558V186.701H51.4005V176.558H53.149ZM63.8769 186.84C63.3196 186.84 62.8157 186.749 62.3652 186.568C61.9194 186.383 61.5386 186.125 61.2228 185.795C60.9116 185.465 60.6725 185.078 60.5053 184.632C60.3381 184.186 60.2545 183.705 60.2545 183.19V182.911C60.2545 182.321 60.3404 181.787 60.5122 181.309C60.6841 180.831 60.9232 180.422 61.2298 180.083C61.5363 179.739 61.8985 179.477 62.3165 179.296C62.7344 179.115 63.1872 179.024 63.6749 179.024C64.2136 179.024 64.685 179.115 65.089 179.296C65.493 179.477 65.8274 179.732 66.0921 180.062C66.3615 180.387 66.5612 180.775 66.6912 181.225C66.8259 181.676 66.8932 182.173 66.8932 182.716V183.434H61.0695V182.228H65.2353V182.096C65.226 181.794 65.1656 181.511 65.0542 181.246C64.9474 180.981 64.7825 180.768 64.5596 180.605C64.3367 180.443 64.0394 180.361 63.6679 180.361C63.3893 180.361 63.1408 180.422 62.9225 180.543C62.7089 180.659 62.5301 180.828 62.3861 181.051C62.2422 181.274 62.1307 181.543 62.0518 181.859C61.9775 182.17 61.9403 182.521 61.9403 182.911V183.19C61.9403 183.519 61.9844 183.826 62.0727 184.109C62.1655 184.388 62.3002 184.632 62.4767 184.841C62.6532 185.05 62.8668 185.215 63.1176 185.335C63.3684 185.451 63.654 185.509 63.9744 185.509C64.3785 185.509 64.7384 185.428 65.0542 185.266C65.37 185.103 65.644 184.873 65.8762 184.576L66.7609 185.433C66.5983 185.67 66.387 185.897 66.127 186.116C65.8669 186.329 65.5488 186.503 65.1726 186.638C64.8011 186.773 64.3692 186.84 63.8769 186.84ZM71.2819 185.503C71.5559 185.503 71.802 185.449 72.0203 185.342C72.2432 185.231 72.422 185.078 72.5567 184.883C72.696 184.687 72.7727 184.462 72.7866 184.207H74.3679C74.3586 184.694 74.2146 185.138 73.936 185.537C73.6574 185.937 73.2882 186.255 72.8284 186.492C72.3686 186.724 71.8601 186.84 71.3028 186.84C70.7269 186.84 70.2254 186.742 69.7981 186.547C69.3709 186.348 69.0156 186.074 68.7323 185.725C68.449 185.377 68.2354 184.975 68.0914 184.52C67.9521 184.065 67.8824 183.578 67.8824 183.057V182.814C67.8824 182.293 67.9521 181.806 68.0914 181.351C68.2354 180.891 68.449 180.487 68.7323 180.139C69.0156 179.79 69.3709 179.519 69.7981 179.324C70.2254 179.124 70.7246 179.024 71.2958 179.024C71.8996 179.024 72.429 179.145 72.8841 179.386C73.3392 179.623 73.6968 179.955 73.9569 180.382C74.2216 180.805 74.3586 181.297 74.3679 181.859H72.7866C72.7727 181.581 72.703 181.33 72.5776 181.107C72.4569 180.879 72.285 180.698 72.0621 180.564C71.8438 180.429 71.5814 180.361 71.2749 180.361C70.9359 180.361 70.6549 180.431 70.432 180.57C70.2091 180.705 70.035 180.891 69.9096 181.128C69.7842 181.36 69.6936 181.622 69.6379 181.915C69.5868 182.203 69.5613 182.502 69.5613 182.814V183.057C69.5613 183.369 69.5868 183.67 69.6379 183.963C69.689 184.256 69.7772 184.518 69.9026 184.75C70.0326 184.978 70.2091 185.161 70.432 185.3C70.6549 185.435 70.9382 185.503 71.2819 185.503ZM85.9108 185.363V186.701H79.1118V185.551L82.4138 181.95C82.776 181.541 83.0617 181.188 83.2706 180.891C83.4796 180.594 83.6259 180.327 83.7095 180.09C83.7977 179.848 83.8419 179.614 83.8419 179.386C83.8419 179.066 83.7815 178.785 83.6607 178.543C83.5446 178.297 83.3728 178.104 83.1452 177.965C82.9177 177.821 82.6414 177.749 82.3163 177.749C81.9401 177.749 81.6243 177.83 81.3689 177.993C81.1135 178.156 80.9207 178.381 80.7907 178.669C80.6607 178.952 80.5956 179.277 80.5956 179.644H78.9168C78.9168 179.054 79.0515 178.515 79.3208 178.028C79.5902 177.536 79.9803 177.145 80.4911 176.858C81.002 176.565 81.6173 176.419 82.3372 176.419C83.0152 176.419 83.5911 176.532 84.0648 176.76C84.5385 176.988 84.8984 177.31 85.1445 177.728C85.3953 178.146 85.5207 178.641 85.5207 179.212C85.5207 179.528 85.4696 179.841 85.3674 180.153C85.2653 180.464 85.119 180.775 84.9286 181.086C84.7428 181.392 84.5222 181.701 84.2668 182.012C84.0114 182.319 83.7304 182.63 83.4239 182.946L81.2296 185.363H85.9108ZM93.8313 180.779V182.437C93.8313 183.232 93.7524 183.91 93.5945 184.472C93.4412 185.029 93.2183 185.482 92.9257 185.83C92.6331 186.178 92.2825 186.434 91.8738 186.596C91.4698 186.759 91.017 186.84 90.5154 186.84C90.116 186.84 89.7445 186.789 89.4008 186.687C89.0618 186.585 88.7553 186.424 88.4813 186.206C88.2073 185.988 87.9728 185.707 87.7777 185.363C87.5873 185.015 87.4387 184.599 87.3319 184.116C87.2297 183.633 87.1786 183.074 87.1786 182.437V180.779C87.1786 179.981 87.2576 179.307 87.4155 178.759C87.5734 178.207 87.7986 177.758 88.0912 177.415C88.3838 177.067 88.7321 176.813 89.1361 176.656C89.5448 176.498 89.9999 176.419 90.5015 176.419C90.9055 176.419 91.2771 176.47 91.6161 176.572C91.9597 176.669 92.2663 176.825 92.5356 177.039C92.8096 177.252 93.0418 177.531 93.2322 177.875C93.4273 178.214 93.5759 178.625 93.6781 179.108C93.7802 179.586 93.8313 180.143 93.8313 180.779ZM92.1525 182.674V180.529C92.1525 180.125 92.1293 179.769 92.0828 179.463C92.0364 179.152 91.9667 178.889 91.8738 178.676C91.7856 178.457 91.6741 178.281 91.5395 178.146C91.4048 178.007 91.2515 177.907 91.0797 177.847C90.9079 177.782 90.7151 177.749 90.5015 177.749C90.2414 177.749 90.0092 177.8 89.8049 177.902C89.6005 178 89.4287 178.158 89.2894 178.376C89.1501 178.594 89.0433 178.882 88.9689 179.24C88.8993 179.593 88.8645 180.022 88.8645 180.529V182.674C88.8645 183.083 88.8877 183.443 88.9341 183.754C88.9806 184.065 89.0502 184.332 89.1431 184.555C89.236 184.773 89.3474 184.955 89.4775 185.098C89.6122 185.238 89.7654 185.34 89.9372 185.405C90.1137 185.47 90.3064 185.503 90.5154 185.503C90.7801 185.503 91.0147 185.451 91.219 185.349C91.4234 185.247 91.5952 185.085 91.7345 184.862C91.8738 184.634 91.9783 184.339 92.048 183.977C92.1176 183.615 92.1525 183.18 92.1525 182.674ZM102.128 185.363V186.701H95.329V185.551L98.631 181.95C98.9932 181.541 99.2788 181.188 99.4878 180.891C99.6968 180.594 99.8431 180.327 99.9267 180.09C100.015 179.848 100.059 179.614 100.059 179.386C100.059 179.066 99.9987 178.785 99.8779 178.543C99.7618 178.297 99.59 178.104 99.3624 177.965C99.1349 177.821 98.8585 177.749 98.5335 177.749C98.1573 177.749 97.8415 177.83 97.5861 177.993C97.3306 178.156 97.1379 178.381 97.0079 178.669C96.8778 178.952 96.8128 179.277 96.8128 179.644H95.134C95.134 179.054 95.2687 178.515 95.538 178.028C95.8074 177.536 96.1975 177.145 96.7083 176.858C97.2192 176.565 97.8345 176.419 98.5544 176.419C99.2324 176.419 99.8083 176.532 100.282 176.76C100.756 176.988 101.116 177.31 101.362 177.728C101.612 178.146 101.738 178.641 101.738 179.212C101.738 179.528 101.687 179.841 101.585 180.153C101.482 180.464 101.336 180.775 101.146 181.086C100.96 181.392 100.739 181.701 100.484 182.012C100.229 182.319 99.9476 182.63 99.6411 182.946L97.4467 185.363H102.128ZM105.409 180.87H106.412C106.802 180.87 107.125 180.803 107.38 180.668C107.641 180.533 107.833 180.348 107.959 180.111C108.084 179.874 108.147 179.602 108.147 179.296C108.147 178.975 108.089 178.701 107.973 178.474C107.861 178.241 107.689 178.063 107.457 177.937C107.23 177.812 106.939 177.749 106.586 177.749C106.289 177.749 106.02 177.81 105.778 177.93C105.541 178.046 105.353 178.214 105.214 178.432C105.075 178.645 105.005 178.901 105.005 179.198H103.319C103.319 178.659 103.461 178.181 103.744 177.763C104.027 177.345 104.413 177.018 104.901 176.781C105.393 176.539 105.945 176.419 106.558 176.419C107.213 176.419 107.785 176.528 108.272 176.746C108.764 176.96 109.148 177.28 109.422 177.707C109.696 178.135 109.833 178.664 109.833 179.296C109.833 179.584 109.765 179.876 109.631 180.173C109.496 180.471 109.296 180.742 109.031 180.988C108.767 181.23 108.437 181.427 108.042 181.581C107.648 181.729 107.19 181.803 106.67 181.803H105.409V180.87ZM105.409 182.18V181.26H106.67C107.264 181.26 107.771 181.33 108.189 181.469C108.611 181.608 108.955 181.801 109.22 182.047C109.484 182.289 109.677 182.565 109.798 182.876C109.923 183.187 109.986 183.517 109.986 183.865C109.986 184.339 109.9 184.762 109.728 185.133C109.561 185.5 109.322 185.811 109.011 186.067C108.699 186.322 108.335 186.515 107.917 186.645C107.504 186.775 107.053 186.84 106.565 186.84C106.129 186.84 105.711 186.78 105.312 186.659C104.912 186.538 104.555 186.359 104.239 186.122C103.923 185.881 103.672 185.581 103.486 185.224C103.305 184.862 103.215 184.444 103.215 183.97H104.894C104.894 184.272 104.963 184.539 105.103 184.771C105.247 184.999 105.446 185.177 105.702 185.307C105.962 185.437 106.259 185.503 106.593 185.503C106.946 185.503 107.25 185.44 107.506 185.314C107.761 185.189 107.956 185.003 108.091 184.757C108.23 184.511 108.3 184.214 108.3 183.865C108.3 183.471 108.223 183.15 108.07 182.904C107.917 182.658 107.699 182.477 107.415 182.361C107.132 182.24 106.798 182.18 106.412 182.18H105.409Z" fill="#8B909C"/>
<path d="M35.9496 220.723V230.901H34.2708V222.715L31.7839 223.558V222.172L35.7476 220.723H35.9496ZM44.0582 220.723V230.901H42.3794V222.715L39.8924 223.558V222.172L43.8562 220.723H44.0582ZM47.7015 230.065C47.7015 229.805 47.7897 229.586 47.9662 229.41C48.1427 229.229 48.3819 229.138 48.6837 229.138C48.9902 229.138 49.2294 229.229 49.4012 229.41C49.5777 229.586 49.666 229.805 49.666 230.065C49.666 230.325 49.5777 230.543 49.4012 230.72C49.2294 230.896 48.9902 230.984 48.6837 230.984C48.3819 230.984 48.1427 230.896 47.9662 230.72C47.7897 230.543 47.7015 230.325 47.7015 230.065ZM47.7085 224.13C47.7085 223.87 47.7967 223.651 47.9732 223.475C48.1497 223.294 48.3888 223.203 48.6907 223.203C48.9972 223.203 49.2364 223.294 49.4082 223.475C49.5847 223.651 49.6729 223.87 49.6729 224.13C49.6729 224.39 49.5847 224.608 49.4082 224.784C49.2364 224.961 48.9972 225.049 48.6907 225.049C48.3888 225.049 48.1497 224.961 47.9732 224.784C47.7967 224.608 47.7085 224.39 47.7085 224.13ZM58.3318 227.285V228.623H51.0174L50.9617 227.613L55.3364 220.758H56.6809L55.2249 223.252L52.7102 227.285H58.3318ZM57.064 220.758V230.901H55.3852V220.758H57.064ZM66.0643 224.979V226.637C66.0643 227.432 65.9853 228.11 65.8274 228.672C65.6742 229.229 65.4512 229.682 65.1587 230.03C64.8661 230.378 64.5155 230.634 64.1068 230.796C63.7027 230.959 63.2499 231.04 62.7484 231.04C62.349 231.04 61.9775 230.989 61.6338 230.887C61.2948 230.785 60.9883 230.624 60.7143 230.406C60.4403 230.188 60.2057 229.907 60.0107 229.563C59.8203 229.215 59.6717 228.799 59.5648 228.316C59.4627 227.833 59.4116 227.274 59.4116 226.637V224.979C59.4116 224.181 59.4905 223.507 59.6484 222.959C59.8063 222.407 60.0316 221.958 60.3242 221.615C60.6167 221.267 60.965 221.013 61.3691 220.856C61.7778 220.698 62.2329 220.619 62.7344 220.619C63.1385 220.619 63.51 220.67 63.849 220.772C64.1927 220.869 64.4992 221.025 64.7686 221.239C65.0426 221.452 65.2748 221.731 65.4652 222.075C65.6602 222.414 65.8088 222.825 65.911 223.308C66.0132 223.786 66.0643 224.343 66.0643 224.979ZM64.3854 226.874V224.729C64.3854 224.325 64.3622 223.969 64.3158 223.663C64.2693 223.352 64.1997 223.089 64.1068 222.876C64.0185 222.657 63.9071 222.481 63.7724 222.346C63.6377 222.207 63.4845 222.107 63.3126 222.047C63.1408 221.982 62.9481 221.949 62.7344 221.949C62.4744 221.949 62.2422 222 62.0378 222.102C61.8335 222.2 61.6617 222.358 61.5223 222.576C61.383 222.794 61.2762 223.082 61.2019 223.44C61.1322 223.793 61.0974 224.222 61.0974 224.729V226.874C61.0974 227.283 61.1206 227.643 61.1671 227.954C61.2135 228.265 61.2832 228.532 61.376 228.755C61.4689 228.973 61.5804 229.155 61.7104 229.298C61.8451 229.438 61.9984 229.54 62.1702 229.605C62.3467 229.67 62.5394 229.703 62.7484 229.703C63.0131 229.703 63.2476 229.651 63.452 229.549C63.6563 229.447 63.8281 229.285 63.9674 229.062C64.1068 228.834 64.2113 228.539 64.2809 228.177C64.3506 227.815 64.3854 227.38 64.3854 226.874ZM75.2317 227.118H72.5915V225.732H75.2317C75.6915 225.732 76.063 225.658 76.3463 225.509C76.6296 225.36 76.8362 225.156 76.9663 224.896C77.101 224.631 77.1683 224.329 77.1683 223.99C77.1683 223.67 77.101 223.37 76.9663 223.092C76.8362 222.808 76.6296 222.581 76.3463 222.409C76.063 222.237 75.6915 222.151 75.2317 222.151H73.1279V230.901H71.3794V220.758H75.2317C76.0166 220.758 76.683 220.897 77.231 221.176C77.7836 221.45 78.2039 221.831 78.4919 222.318C78.7798 222.801 78.9238 223.354 78.9238 223.976C78.9238 224.631 78.7798 225.193 78.4919 225.662C78.2039 226.131 77.7836 226.491 77.231 226.742C76.683 226.993 76.0166 227.118 75.2317 227.118ZM81.2017 220.758H82.7621L85.6949 228.581L88.6206 220.758H90.1811L86.3079 230.901H85.0679L81.2017 220.758ZM80.4911 220.758H81.9749L82.2327 227.529V230.901H80.4911V220.758ZM89.4078 220.758H90.8986V230.901H89.1501V227.529L89.4078 220.758Z" fill="#8B909C"/>
<g filter="url(#filter2_dd_1165_3699)">
<rect x="121.11" y="150.323" width="247.289" height="108.956" rx="4.75556" fill="white" shape-rendering="crispEdges"/>
<circle cx="147.266" cy="176.478" r="14.2667" fill="#D9D9D9"/>
<rect x="169.854" y="171.723" width="185.467" height="9.51111" rx="2.37778" fill="#D9D9D9"/>
<path d="M143.89 202.423C143.069 202.423 142.404 203.088 142.404 203.909C142.404 204.73 143.069 205.395 143.89 205.395C144.711 205.395 145.376 204.73 145.376 203.909C145.376 203.088 144.711 202.423 143.89 202.423ZM141.215 203.909C141.215 202.432 142.413 201.234 143.89 201.234C145.367 201.234 146.565 202.432 146.565 203.909C146.565 204.653 146.261 205.326 145.771 205.811C146.05 205.966 146.291 206.19 146.465 206.47L147.234 207.701L148.763 208.656C149.654 209.213 149.925 210.387 149.368 211.278C148.811 212.169 147.638 212.439 146.747 211.883L145.023 210.805L145.71 211.777C146.009 212.199 146.197 212.69 146.257 213.205L146.553 215.757C146.675 216.8 145.927 217.744 144.883 217.866C143.84 217.987 142.896 217.239 142.774 216.196L142.499 213.825L142.077 213.228L140.728 216.67C140.345 217.648 139.241 218.131 138.263 217.747C137.285 217.364 136.803 216.26 137.186 215.282L138.498 211.934C138.262 211.934 138.022 211.888 137.79 211.794C136.816 211.398 136.348 210.288 136.744 209.315L137.889 206.5C138.121 205.931 138.613 205.509 139.211 205.366L141.37 204.852L141.385 204.849C141.275 204.556 141.215 204.24 141.215 203.909ZM141.986 206.012C141.874 205.983 141.757 205.982 141.645 206.009L139.486 206.523C139.262 206.576 139.077 206.735 138.99 206.948L137.845 209.763C137.697 210.128 137.872 210.544 138.237 210.693C138.602 210.841 139.018 210.665 139.167 210.301L140.064 208.096C140.132 207.926 140.279 207.801 140.457 207.758C140.901 207.652 141.281 208.09 141.115 208.515L138.293 215.716C138.149 216.083 138.33 216.497 138.697 216.64C139.063 216.784 139.477 216.603 139.621 216.236L140.961 212.818C141.303 211.946 142.472 211.793 143.026 212.549L143.571 213.291C143.62 213.358 143.65 213.436 143.66 213.517L143.955 216.059C144 216.45 144.355 216.73 144.746 216.685C145.137 216.639 145.418 216.285 145.372 215.894L145.077 213.353C145.039 213.025 144.916 212.713 144.721 212.447L143.856 211.268C143.619 210.944 143.561 210.523 143.702 210.147L144.104 209.074C144.134 208.994 144.186 208.923 144.253 208.869C144.475 208.691 144.803 208.747 144.954 208.989L145.247 209.458C145.305 209.55 145.382 209.628 145.474 209.686L147.377 210.874C147.711 211.083 148.151 210.982 148.36 210.648C148.568 210.314 148.467 209.873 148.133 209.665L146.603 208.709C146.45 208.613 146.321 208.483 146.225 208.33L145.457 207.099C145.359 206.943 145.205 206.831 145.027 206.785L141.986 206.012Z" fill="#242424"/>
<path d="M159.948 214.067L157.07 203.692H158.717L160.738 211.727H160.834L162.937 203.692H164.568L166.671 211.732H166.767L168.783 203.692H170.435L167.552 214.067H165.977L163.793 206.296H163.712L161.529 214.067H159.948ZM173.239 214.24C172.746 214.24 172.3 214.148 171.902 213.966C171.503 213.78 171.187 213.512 170.954 213.16C170.725 212.809 170.61 212.379 170.61 211.869C170.61 211.429 170.694 211.068 170.863 210.784C171.032 210.501 171.26 210.276 171.547 210.111C171.834 209.945 172.155 209.82 172.51 209.736C172.864 209.651 173.226 209.587 173.594 209.543C174.06 209.489 174.438 209.445 174.729 209.411C175.019 209.374 175.23 209.315 175.362 209.234C175.494 209.153 175.56 209.021 175.56 208.839V208.803C175.56 208.361 175.435 208.018 175.185 207.775C174.938 207.532 174.57 207.41 174.08 207.41C173.57 207.41 173.168 207.523 172.874 207.75C172.584 207.973 172.383 208.221 172.272 208.494L170.848 208.17C171.017 207.697 171.263 207.316 171.588 207.025C171.915 206.731 172.292 206.519 172.717 206.387C173.143 206.252 173.591 206.184 174.06 206.184C174.371 206.184 174.7 206.221 175.048 206.296C175.399 206.367 175.727 206.498 176.031 206.691C176.338 206.883 176.59 207.159 176.786 207.517C176.982 207.871 177.08 208.332 177.08 208.9V214.067H175.6V213.003H175.539C175.441 213.199 175.294 213.392 175.099 213.581C174.903 213.77 174.651 213.927 174.344 214.052C174.036 214.177 173.668 214.24 173.239 214.24ZM173.569 213.024C173.987 213.024 174.345 212.941 174.643 212.775C174.943 212.61 175.171 212.394 175.327 212.127C175.485 211.857 175.565 211.568 175.565 211.261V210.257C175.511 210.312 175.406 210.362 175.251 210.409C175.099 210.453 174.925 210.492 174.729 210.526C174.533 210.556 174.342 210.585 174.156 210.612C173.971 210.636 173.815 210.656 173.69 210.673C173.396 210.71 173.128 210.773 172.885 210.86C172.645 210.948 172.452 211.075 172.307 211.24C172.165 211.402 172.094 211.619 172.094 211.889C172.094 212.264 172.233 212.547 172.51 212.74C172.787 212.929 173.14 213.024 173.569 213.024ZM180.612 203.692V214.067H179.097V203.692H180.612ZM184.043 211.428L184.033 209.579H184.296L187.397 206.286H189.211L185.674 210.035H185.436L184.043 211.428ZM182.65 214.067V203.692H184.165V214.067H182.65ZM187.564 214.067L184.778 210.369L185.821 209.31L189.424 214.067H187.564ZM194.647 209.026V210.339H190.047V209.026H194.647ZM196.666 214.067V206.286H198.181V214.067H196.666ZM197.431 205.085C197.167 205.085 196.941 204.997 196.752 204.821C196.566 204.642 196.473 204.43 196.473 204.183C196.473 203.933 196.566 203.72 196.752 203.545C196.941 203.366 197.167 203.276 197.431 203.276C197.694 203.276 197.919 203.366 198.105 203.545C198.294 203.72 198.388 203.933 198.388 204.183C198.388 204.43 198.294 204.642 198.105 204.821C197.919 204.997 197.694 205.085 197.431 205.085ZM201.733 209.447V214.067H200.219V206.286H201.673V207.552H201.769C201.948 207.14 202.228 206.809 202.61 206.559C202.995 206.309 203.48 206.184 204.064 206.184C204.594 206.184 205.059 206.296 205.457 206.519C205.856 206.738 206.165 207.066 206.384 207.501C206.604 207.937 206.714 208.476 206.714 209.118V214.067H205.199V209.3C205.199 208.736 205.052 208.295 204.758 207.978C204.464 207.657 204.06 207.496 203.547 207.496C203.196 207.496 202.883 207.572 202.61 207.724C202.34 207.876 202.125 208.099 201.966 208.393C201.811 208.684 201.733 209.035 201.733 209.447ZM221.26 207.066H219.679C219.619 206.728 219.505 206.431 219.34 206.174C219.174 205.917 218.972 205.7 218.732 205.52C218.492 205.341 218.224 205.206 217.926 205.115C217.633 205.024 217.32 204.978 216.989 204.978C216.391 204.978 215.856 205.129 215.383 205.429C214.914 205.73 214.542 206.171 214.269 206.752C213.998 207.333 213.863 208.042 213.863 208.879C213.863 209.724 213.998 210.436 214.269 211.017C214.542 211.598 214.915 212.037 215.388 212.335C215.861 212.632 216.393 212.78 216.984 212.78C217.312 212.78 217.622 212.737 217.916 212.649C218.214 212.558 218.482 212.424 218.722 212.249C218.962 212.073 219.164 211.858 219.33 211.605C219.499 211.348 219.615 211.055 219.679 210.724L221.26 210.729C221.176 211.239 221.012 211.708 220.769 212.137C220.529 212.563 220.22 212.931 219.842 213.242C219.467 213.549 219.038 213.787 218.555 213.956C218.072 214.125 217.545 214.209 216.974 214.209C216.076 214.209 215.275 213.996 214.573 213.571C213.87 213.142 213.316 212.529 212.911 211.732C212.509 210.935 212.308 209.984 212.308 208.879C212.308 207.772 212.511 206.821 212.916 206.027C213.321 205.23 213.875 204.619 214.578 204.193C215.28 203.764 216.079 203.55 216.974 203.55C217.525 203.55 218.038 203.629 218.514 203.788C218.994 203.943 219.424 204.173 219.806 204.477C220.188 204.777 220.504 205.146 220.753 205.581C221.003 206.014 221.172 206.508 221.26 207.066ZM226.29 214.224C225.56 214.224 224.923 214.057 224.38 213.723C223.836 213.388 223.414 212.921 223.113 212.319C222.812 211.718 222.662 211.016 222.662 210.212C222.662 209.405 222.812 208.699 223.113 208.094C223.414 207.49 223.836 207.02 224.38 206.686C224.923 206.351 225.56 206.184 226.29 206.184C227.019 206.184 227.656 206.351 228.2 206.686C228.743 207.02 229.166 207.49 229.466 208.094C229.767 208.699 229.917 209.405 229.917 210.212C229.917 211.016 229.767 211.718 229.466 212.319C229.166 212.921 228.743 213.388 228.2 213.723C227.656 214.057 227.019 214.224 226.29 214.224ZM226.295 212.953C226.768 212.953 227.159 212.828 227.47 212.578C227.781 212.328 228.01 211.995 228.159 211.58C228.311 211.164 228.387 210.707 228.387 210.207C228.387 209.71 228.311 209.254 228.159 208.839C228.01 208.42 227.781 208.084 227.47 207.831C227.159 207.577 226.768 207.451 226.295 207.451C225.818 207.451 225.423 207.577 225.109 207.831C224.798 208.084 224.567 208.42 224.415 208.839C224.266 209.254 224.192 209.71 224.192 210.207C224.192 210.707 224.266 211.164 224.415 211.58C224.567 211.995 224.798 212.328 225.109 212.578C225.423 212.828 225.818 212.953 226.295 212.953ZM233.123 209.447V214.067H231.608V206.286H233.062V207.552H233.158C233.337 207.14 233.618 206.809 233.999 206.559C234.384 206.309 234.869 206.184 235.453 206.184C235.984 206.184 236.448 206.296 236.847 206.519C237.245 206.738 237.554 207.066 237.774 207.501C237.993 207.937 238.103 208.476 238.103 209.118V214.067H236.588V209.3C236.588 208.736 236.441 208.295 236.147 207.978C235.854 207.657 235.45 207.496 234.937 207.496C234.585 207.496 234.273 207.572 233.999 207.724C233.729 207.876 233.515 208.099 233.356 208.393C233.2 208.684 233.123 209.035 233.123 209.447ZM245.966 208.185L244.593 208.429C244.535 208.253 244.444 208.086 244.319 207.927C244.198 207.768 244.032 207.638 243.823 207.537C243.613 207.436 243.352 207.385 243.038 207.385C242.609 207.385 242.251 207.481 241.963 207.674C241.676 207.863 241.533 208.108 241.533 208.408C241.533 208.668 241.629 208.878 241.822 209.036C242.014 209.195 242.325 209.325 242.754 209.427L243.99 209.71C244.706 209.876 245.24 210.131 245.591 210.475C245.942 210.82 246.118 211.267 246.118 211.818C246.118 212.284 245.983 212.699 245.713 213.064C245.446 213.426 245.072 213.709 244.593 213.915C244.117 214.121 243.564 214.224 242.936 214.224C242.065 214.224 241.354 214.039 240.803 213.667C240.253 213.292 239.915 212.76 239.79 212.071L241.254 211.848C241.345 212.23 241.533 212.519 241.817 212.715C242.1 212.907 242.47 213.003 242.926 213.003C243.423 213.003 243.819 212.9 244.117 212.694C244.414 212.485 244.562 212.23 244.562 211.929C244.562 211.686 244.471 211.482 244.289 211.316C244.11 211.151 243.835 211.026 243.463 210.941L242.146 210.653C241.42 210.487 240.883 210.224 240.535 209.862C240.19 209.501 240.018 209.043 240.018 208.489C240.018 208.03 240.146 207.628 240.403 207.284C240.66 206.939 241.014 206.671 241.467 206.478C241.92 206.282 242.438 206.184 243.022 206.184C243.863 206.184 244.525 206.367 245.008 206.731C245.491 207.093 245.81 207.577 245.966 208.185ZM252.713 210.84V206.286H254.233V214.067H252.743V212.72H252.662C252.483 213.135 252.196 213.481 251.801 213.758C251.409 214.032 250.921 214.169 250.337 214.169C249.837 214.169 249.394 214.059 249.009 213.839C248.628 213.616 248.327 213.287 248.108 212.851C247.891 212.416 247.783 211.877 247.783 211.235V206.286H249.298V211.053C249.298 211.583 249.445 212.005 249.739 212.319C250.033 212.634 250.414 212.791 250.884 212.791C251.168 212.791 251.45 212.72 251.73 212.578C252.014 212.436 252.248 212.222 252.434 211.934C252.623 211.647 252.716 211.283 252.713 210.84ZM257.783 203.692V214.067H256.268V203.692H257.783ZM263.453 206.286V207.501H259.203V206.286H263.453ZM260.343 204.421H261.858V211.782C261.858 212.076 261.901 212.297 261.989 212.446C262.077 212.591 262.19 212.691 262.329 212.745C262.471 212.796 262.624 212.821 262.79 212.821C262.911 212.821 263.018 212.813 263.109 212.796C263.2 212.779 263.271 212.765 263.322 212.755L263.595 214.007C263.507 214.04 263.382 214.074 263.22 214.108C263.058 214.145 262.856 214.165 262.612 214.169C262.214 214.175 261.842 214.104 261.498 213.956C261.153 213.807 260.875 213.578 260.662 213.267C260.449 212.956 260.343 212.566 260.343 212.097V204.421ZM267.394 214.24C266.901 214.24 266.455 214.148 266.056 213.966C265.658 213.78 265.342 213.512 265.109 213.16C264.879 212.809 264.764 212.379 264.764 211.869C264.764 211.429 264.849 211.068 265.018 210.784C265.186 210.501 265.414 210.276 265.702 210.111C265.989 209.945 266.31 209.82 266.664 209.736C267.019 209.651 267.38 209.587 267.748 209.543C268.214 209.489 268.593 209.445 268.883 209.411C269.174 209.374 269.385 209.315 269.516 209.234C269.648 209.153 269.714 209.021 269.714 208.839V208.803C269.714 208.361 269.589 208.018 269.339 207.775C269.093 207.532 268.724 207.41 268.235 207.41C267.725 207.41 267.323 207.523 267.029 207.75C266.738 207.973 266.537 208.221 266.426 208.494L265.002 208.17C265.171 207.697 265.418 207.316 265.742 207.025C266.07 206.731 266.446 206.519 266.872 206.387C267.297 206.252 267.745 206.184 268.214 206.184C268.525 206.184 268.854 206.221 269.202 206.296C269.554 206.367 269.881 206.498 270.185 206.691C270.493 206.883 270.744 207.159 270.94 207.517C271.136 207.871 271.234 208.332 271.234 208.9V214.067H269.755V213.003H269.694C269.596 213.199 269.449 213.392 269.253 213.581C269.057 213.77 268.806 213.927 268.498 214.052C268.191 214.177 267.823 214.24 267.394 214.24ZM267.723 213.024C268.142 213.024 268.5 212.941 268.797 212.775C269.098 212.61 269.326 212.394 269.481 212.127C269.64 211.857 269.719 211.568 269.719 211.261V210.257C269.665 210.312 269.56 210.362 269.405 210.409C269.253 210.453 269.079 210.492 268.883 210.526C268.687 210.556 268.496 210.585 268.311 210.612C268.125 210.636 267.97 210.656 267.845 210.673C267.551 210.71 267.282 210.773 267.039 210.86C266.799 210.948 266.607 211.075 266.461 211.24C266.32 211.402 266.249 211.619 266.249 211.889C266.249 212.264 266.387 212.547 266.664 212.74C266.941 212.929 267.294 213.024 267.723 213.024ZM276.884 206.286V207.501H272.634V206.286H276.884ZM273.773 204.421H275.288V211.782C275.288 212.076 275.332 212.297 275.42 212.446C275.508 212.591 275.621 212.691 275.759 212.745C275.901 212.796 276.055 212.821 276.22 212.821C276.342 212.821 276.448 212.813 276.54 212.796C276.631 212.779 276.702 212.765 276.752 212.755L277.026 214.007C276.938 214.04 276.813 214.074 276.651 214.108C276.489 214.145 276.286 214.165 276.043 214.169C275.645 214.175 275.273 214.104 274.929 213.956C274.584 213.807 274.305 213.578 274.093 213.267C273.88 212.956 273.773 212.566 273.773 212.097V204.421ZM278.56 214.067V206.286H280.075V214.067H278.56ZM279.325 205.085C279.061 205.085 278.835 204.997 278.646 204.821C278.46 204.642 278.367 204.43 278.367 204.183C278.367 203.933 278.46 203.72 278.646 203.545C278.835 203.366 279.061 203.276 279.325 203.276C279.588 203.276 279.813 203.366 279.999 203.545C280.188 203.72 280.282 203.933 280.282 204.183C280.282 204.43 280.188 204.642 279.999 204.821C279.813 204.997 279.588 205.085 279.325 205.085ZM285.39 214.224C284.661 214.224 284.024 214.057 283.48 213.723C282.937 213.388 282.514 212.921 282.214 212.319C281.913 211.718 281.763 211.016 281.763 210.212C281.763 209.405 281.913 208.699 282.214 208.094C282.514 207.49 282.937 207.02 283.48 206.686C284.024 206.351 284.661 206.184 285.39 206.184C286.12 206.184 286.757 206.351 287.3 206.686C287.844 207.02 288.266 207.49 288.567 208.094C288.868 208.699 289.018 209.405 289.018 210.212C289.018 211.016 288.868 211.718 288.567 212.319C288.266 212.921 287.844 213.388 287.3 213.723C286.757 214.057 286.12 214.224 285.39 214.224ZM285.395 212.953C285.868 212.953 286.26 212.828 286.571 212.578C286.882 212.328 287.111 211.995 287.26 211.58C287.412 211.164 287.488 210.707 287.488 210.207C287.488 209.71 287.412 209.254 287.26 208.839C287.111 208.42 286.882 208.084 286.571 207.831C286.26 207.577 285.868 207.451 285.395 207.451C284.919 207.451 284.524 207.577 284.21 207.831C283.899 208.084 283.668 208.42 283.516 208.839C283.367 209.254 283.293 209.71 283.293 210.207C283.293 210.707 283.367 211.164 283.516 211.58C283.668 211.995 283.899 212.328 284.21 212.578C284.524 212.828 284.919 212.953 285.395 212.953ZM292.224 209.447V214.067H290.709V206.286H292.163V207.552H292.259C292.438 207.14 292.718 206.809 293.1 206.559C293.485 206.309 293.97 206.184 294.554 206.184C295.084 206.184 295.549 206.296 295.947 206.519C296.346 206.738 296.655 207.066 296.874 207.501C297.094 207.937 297.204 208.476 297.204 209.118V214.067H295.689V209.3C295.689 208.736 295.542 208.295 295.248 207.978C294.954 207.657 294.551 207.496 294.037 207.496C293.686 207.496 293.374 207.572 293.1 207.724C292.83 207.876 292.615 208.099 292.457 208.393C292.301 208.684 292.224 209.035 292.224 209.447Z" fill="#45484E"/>
<path d="M139.798 234.739C139.744 234.26 139.521 233.888 139.129 233.625C138.737 233.358 138.244 233.225 137.65 233.225C137.224 233.225 136.856 233.292 136.545 233.427C136.235 233.559 135.993 233.741 135.821 233.974C135.652 234.204 135.568 234.466 135.568 234.76C135.568 235.006 135.625 235.219 135.74 235.398C135.858 235.577 136.012 235.727 136.201 235.849C136.393 235.967 136.599 236.067 136.819 236.148C137.039 236.226 137.25 236.29 137.452 236.34L138.466 236.604C138.797 236.685 139.136 236.795 139.484 236.933C139.832 237.072 140.154 237.254 140.452 237.48C140.749 237.707 140.989 237.987 141.171 238.321C141.357 238.656 141.45 239.056 141.45 239.522C141.45 240.11 141.298 240.632 140.994 241.087C140.693 241.543 140.256 241.903 139.681 242.167C139.111 242.43 138.42 242.562 137.609 242.562C136.833 242.562 136.16 242.439 135.593 242.192C135.026 241.945 134.581 241.596 134.261 241.143C133.94 240.687 133.762 240.147 133.729 239.522H135.299C135.33 239.897 135.451 240.209 135.664 240.459C135.88 240.706 136.155 240.89 136.49 241.011C136.827 241.13 137.197 241.189 137.599 241.189C138.042 241.189 138.435 241.12 138.78 240.981C139.128 240.839 139.401 240.643 139.6 240.393C139.8 240.14 139.899 239.845 139.899 239.507C139.899 239.199 139.811 238.948 139.636 238.752C139.464 238.556 139.229 238.394 138.932 238.266C138.638 238.137 138.305 238.024 137.934 237.926L136.708 237.592C135.877 237.365 135.218 237.033 134.732 236.594C134.249 236.155 134.007 235.574 134.007 234.851C134.007 234.253 134.169 233.731 134.494 233.285C134.818 232.84 135.257 232.493 135.811 232.247C136.365 231.997 136.99 231.872 137.685 231.872C138.388 231.872 139.008 231.995 139.545 232.242C140.085 232.488 140.511 232.828 140.821 233.26C141.132 233.689 141.294 234.182 141.308 234.739H139.798ZM146.477 242.547C145.747 242.547 145.11 242.379 144.567 242.045C144.023 241.711 143.601 241.243 143.3 240.642C142.999 240.04 142.849 239.338 142.849 238.534C142.849 237.727 142.999 237.021 143.3 236.416C143.601 235.812 144.023 235.342 144.567 235.008C145.11 234.674 145.747 234.506 146.477 234.506C147.206 234.506 147.843 234.674 148.387 235.008C148.93 235.342 149.353 235.812 149.653 236.416C149.954 237.021 150.104 237.727 150.104 238.534C150.104 239.338 149.954 240.04 149.653 240.642C149.353 241.243 148.93 241.711 148.387 242.045C147.843 242.379 147.206 242.547 146.477 242.547ZM146.482 241.275C146.955 241.275 147.346 241.15 147.657 240.9C147.968 240.65 148.197 240.317 148.346 239.902C148.498 239.487 148.574 239.029 148.574 238.529C148.574 238.033 148.498 237.577 148.346 237.161C148.197 236.742 147.968 236.406 147.657 236.153C147.346 235.9 146.955 235.773 146.482 235.773C146.005 235.773 145.61 235.9 145.296 236.153C144.985 236.406 144.754 236.742 144.602 237.161C144.453 237.577 144.379 238.033 144.379 238.529C144.379 239.029 144.453 239.487 144.602 239.902C144.754 240.317 144.985 240.65 145.296 240.9C145.61 241.15 146.005 241.275 146.482 241.275ZM151.795 242.39V234.608H153.259V235.844H153.34C153.482 235.425 153.732 235.096 154.09 234.856C154.451 234.613 154.86 234.491 155.316 234.491C155.411 234.491 155.522 234.495 155.65 234.501C155.782 234.508 155.885 234.517 155.959 234.527V235.976C155.899 235.959 155.791 235.94 155.635 235.92C155.48 235.896 155.324 235.884 155.169 235.884C154.811 235.884 154.492 235.96 154.212 236.112C153.935 236.261 153.715 236.469 153.553 236.736C153.391 236.999 153.31 237.3 153.31 237.637V242.39H151.795ZM160.346 242.547C159.579 242.547 158.919 242.383 158.365 242.055C157.814 241.724 157.389 241.26 157.088 240.662C156.791 240.061 156.642 239.357 156.642 238.549C156.642 237.752 156.791 237.05 157.088 236.442C157.389 235.834 157.807 235.359 158.344 235.018C158.885 234.677 159.516 234.506 160.239 234.506C160.678 234.506 161.104 234.579 161.516 234.724C161.928 234.869 162.298 235.097 162.625 235.408C162.953 235.719 163.211 236.123 163.401 236.619C163.59 237.112 163.684 237.712 163.684 238.418V238.955H157.498V237.82H162.2C162.2 237.421 162.119 237.068 161.957 236.761C161.795 236.45 161.567 236.205 161.273 236.026C160.982 235.847 160.641 235.758 160.249 235.758C159.824 235.758 159.452 235.862 159.135 236.072C158.821 236.278 158.577 236.548 158.405 236.882C158.236 237.213 158.152 237.573 158.152 237.962V238.848C158.152 239.368 158.243 239.811 158.425 240.176C158.611 240.54 158.87 240.819 159.201 241.011C159.532 241.201 159.918 241.295 160.361 241.295C160.648 241.295 160.91 241.255 161.146 241.174C161.382 241.089 161.587 240.964 161.759 240.799C161.931 240.633 162.063 240.429 162.154 240.186L163.588 240.444C163.473 240.866 163.267 241.236 162.97 241.554C162.676 241.868 162.306 242.113 161.86 242.288C161.418 242.46 160.913 242.547 160.346 242.547ZM169.262 242.39V232.014H170.828V241.042H175.529V242.39H169.262ZM180.547 242.547C179.781 242.547 179.12 242.383 178.566 242.055C178.016 241.724 177.59 241.26 177.29 240.662C176.993 240.061 176.844 239.357 176.844 238.549C176.844 237.752 176.993 237.05 177.29 236.442C177.59 235.834 178.009 235.359 178.546 235.018C179.087 234.677 179.718 234.506 180.441 234.506C180.88 234.506 181.306 234.579 181.718 234.724C182.13 234.869 182.5 235.097 182.827 235.408C183.155 235.719 183.413 236.123 183.602 236.619C183.792 237.112 183.886 237.712 183.886 238.418V238.955H177.7V237.82H182.402C182.402 237.421 182.321 237.068 182.158 236.761C181.996 236.45 181.768 236.205 181.475 236.026C181.184 235.847 180.843 235.758 180.451 235.758C180.026 235.758 179.654 235.862 179.337 236.072C179.022 236.278 178.779 236.548 178.607 236.882C178.438 237.213 178.354 237.573 178.354 237.962V238.848C178.354 239.368 178.445 239.811 178.627 240.176C178.813 240.54 179.071 240.819 179.402 241.011C179.733 241.201 180.12 241.295 180.563 241.295C180.85 241.295 181.111 241.255 181.348 241.174C181.584 241.089 181.789 240.964 181.961 240.799C182.133 240.633 182.265 240.429 182.356 240.186L183.79 240.444C183.675 240.866 183.469 241.236 183.172 241.554C182.878 241.868 182.508 242.113 182.062 242.288C181.62 242.46 181.115 242.547 180.547 242.547ZM188.83 245.47C188.211 245.47 187.679 245.389 187.234 245.227C186.791 245.065 186.43 244.85 186.149 244.583C185.869 244.316 185.66 244.024 185.521 243.707L186.823 243.17C186.914 243.318 187.036 243.475 187.188 243.641C187.343 243.81 187.553 243.953 187.816 244.072C188.083 244.19 188.426 244.249 188.845 244.249C189.419 244.249 189.893 244.109 190.268 243.828C190.643 243.551 190.831 243.109 190.831 242.501V240.971H190.734C190.643 241.136 190.512 241.321 190.339 241.523C190.17 241.726 189.937 241.901 189.64 242.05C189.343 242.199 188.956 242.273 188.48 242.273C187.865 242.273 187.311 242.129 186.818 241.842C186.328 241.552 185.94 241.125 185.653 240.561C185.369 239.993 185.227 239.296 185.227 238.468C185.227 237.641 185.368 236.931 185.648 236.34C185.932 235.749 186.32 235.297 186.813 234.983C187.306 234.665 187.865 234.506 188.49 234.506C188.973 234.506 189.363 234.587 189.66 234.75C189.958 234.908 190.189 235.094 190.354 235.307C190.523 235.52 190.653 235.707 190.745 235.869H190.856V234.608H192.34V242.562C192.34 243.231 192.185 243.779 191.874 244.208C191.564 244.637 191.143 244.955 190.613 245.161C190.086 245.367 189.492 245.47 188.83 245.47ZM188.814 241.017C189.25 241.017 189.618 240.915 189.919 240.713C190.223 240.507 190.452 240.213 190.608 239.831C190.767 239.446 190.846 238.985 190.846 238.448C190.846 237.924 190.768 237.463 190.613 237.065C190.457 236.666 190.229 236.356 189.929 236.133C189.628 235.906 189.257 235.793 188.814 235.793C188.358 235.793 187.978 235.911 187.674 236.148C187.37 236.381 187.141 236.698 186.985 237.1C186.833 237.502 186.757 237.951 186.757 238.448C186.757 238.958 186.835 239.405 186.99 239.791C187.146 240.176 187.375 240.476 187.679 240.692C187.987 240.908 188.365 241.017 188.814 241.017ZM200.203 236.508L198.83 236.751C198.773 236.575 198.682 236.408 198.557 236.249C198.435 236.09 198.27 235.96 198.06 235.859C197.851 235.758 197.589 235.707 197.275 235.707C196.846 235.707 196.488 235.803 196.201 235.996C195.914 236.185 195.77 236.43 195.77 236.73C195.77 236.991 195.867 237.2 196.059 237.359C196.252 237.517 196.562 237.647 196.991 237.749L198.227 238.033C198.944 238.198 199.477 238.453 199.828 238.798C200.18 239.142 200.355 239.59 200.355 240.14C200.355 240.606 200.22 241.022 199.95 241.386C199.683 241.748 199.31 242.032 198.83 242.238C198.354 242.444 197.802 242.547 197.174 242.547C196.302 242.547 195.591 242.361 195.041 241.989C194.49 241.614 194.152 241.082 194.028 240.393L195.492 240.17C195.583 240.552 195.77 240.841 196.054 241.037C196.338 241.229 196.708 241.326 197.164 241.326C197.66 241.326 198.057 241.223 198.354 241.017C198.651 240.807 198.8 240.552 198.8 240.252C198.8 240.008 198.709 239.804 198.526 239.639C198.347 239.473 198.072 239.348 197.701 239.264L196.383 238.975C195.657 238.809 195.12 238.546 194.772 238.185C194.428 237.823 194.256 237.365 194.256 236.812C194.256 236.352 194.384 235.95 194.641 235.606C194.897 235.261 195.252 234.993 195.704 234.8C196.157 234.604 196.676 234.506 197.26 234.506C198.101 234.506 198.763 234.689 199.246 235.054C199.729 235.415 200.048 235.9 200.203 236.508Z" fill="#8B909C"/>
</g>
</g>
</g>
</g>
<defs>
<filter id="filter0_b_1165_3699" x="-24" y="-24" width="448" height="309" filterUnits="userSpaceOnUse" color-interpolation-filters="sRGB">
<feFlood flood-opacity="0" result="BackgroundImageFix"/>
<feGaussianBlur in="BackgroundImageFix" stdDeviation="12"/>
<feComposite in2="SourceAlpha" operator="in" result="effect1_backgroundBlur_1165_3699"/>
<feBlend mode="normal" in="SourceGraphic" in2="effect1_backgroundBlur_1165_3699" result="shape"/>
</filter>
<filter id="filter1_dd_1165_3699" x="106.844" y="30.3673" width="343.589" height="137.489" filterUnits="userSpaceOnUse" color-interpolation-filters="sRGB">
<feFlood flood-opacity="0" result="BackgroundImageFix"/>
<feColorMatrix in="SourceAlpha" type="matrix" values="0 0 0 0 0 0 0 0 0 0 0 0 0 0 0 0 0 0 127 0" result="hardAlpha"/>
<feMorphology radius="2.37778" operator="erode" in="SourceAlpha" result="effect1_dropShadow_1165_3699"/>
<feOffset dy="4.75556"/>
<feGaussianBlur stdDeviation="3.56667"/>
<feComposite in2="hardAlpha" operator="out"/>
<feColorMatrix type="matrix" values="0 0 0 0 0.145098 0 0 0 0 0.192157 0 0 0 0 0.219608 0 0 0 0.03 0"/>
<feBlend mode="normal" in2="BackgroundImageFix" result="effect1_dropShadow_1165_3699"/>
<feColorMatrix in="SourceAlpha" type="matrix" values="0 0 0 0 0 0 0 0 0 0 0 0 0 0 0 0 0 0 127 0" result="hardAlpha"/>
<feMorphology radius="4.75556" operator="erode" in="SourceAlpha" result="effect2_dropShadow_1165_3699"/>
<feOffset dy="14.2667"/>
<feGaussianBlur stdDeviation="9.51111"/>
<feComposite in2="hardAlpha" operator="out"/>
<feColorMatrix type="matrix" values="0 0 0 0 0.145098 0 0 0 0 0.192157 0 0 0 0 0.219608 0 0 0 0.08 0"/>
<feBlend mode="normal" in2="effect1_dropShadow_1165_3699" result="effect2_dropShadow_1165_3699"/>
<feBlend mode="normal" in="SourceGraphic" in2="effect2_dropShadow_1165_3699" result="shape"/>
</filter>
<filter id="filter2_dd_1165_3699" x="106.844" y="150.323" width="343.589" height="137.489" filterUnits="userSpaceOnUse" color-interpolation-filters="sRGB">
<feFlood flood-opacity="0" result="BackgroundImageFix"/>
<feColorMatrix in="SourceAlpha" type="matrix" values="0 0 0 0 0 0 0 0 0 0 0 0 0 0 0 0 0 0 127 0" result="hardAlpha"/>
<feMorphology radius="2.37778" operator="erode" in="SourceAlpha" result="effect1_dropShadow_1165_3699"/>
<feOffset dy="4.75556"/>
<feGaussianBlur stdDeviation="3.56667"/>
<feComposite in2="hardAlpha" operator="out"/>
<feColorMatrix type="matrix" values="0 0 0 0 0.145098 0 0 0 0 0.192157 0 0 0 0 0.219608 0 0 0 0.03 0"/>
<feBlend mode="normal" in2="BackgroundImageFix" result="effect1_dropShadow_1165_3699"/>
<feColorMatrix in="SourceAlpha" type="matrix" values="0 0 0 0 0 0 0 0 0 0 0 0 0 0 0 0 0 0 127 0" result="hardAlpha"/>
<feMorphology radius="4.75556" operator="erode" in="SourceAlpha" result="effect2_dropShadow_1165_3699"/>
<feOffset dy="14.2667"/>
<feGaussianBlur stdDeviation="9.51111"/>
<feComposite in2="hardAlpha" operator="out"/>
<feColorMatrix type="matrix" values="0 0 0 0 0.145098 0 0 0 0 0.192157 0 0 0 0 0.219608 0 0 0 0.08 0"/>
<feBlend mode="normal" in2="effect1_dropShadow_1165_3699" result="effect2_dropShadow_1165_3699"/>
<feBlend mode="normal" in="SourceGraphic" in2="effect2_dropShadow_1165_3699" result="shape"/>
</filter>
<linearGradient id="paint0_linear_1165_3699" x1="200" y1="20" x2="200" y2="253" gradientUnits="userSpaceOnUse">
<stop stop-color="#D9D9D9"/>
<stop offset="0.797083" stop-color="#D9D9D9" stop-opacity="0.15133"/>
<stop offset="1" stop-color="#D9D9D9" stop-opacity="0"/>
</linearGradient>
<clipPath id="clip0_1165_3699">
<rect width="400" height="261" rx="12" fill="white"/>
</clipPath>
</defs>
</svg>
