<svg width="426" height="280" viewBox="0 0 426 280" fill="none" xmlns="http://www.w3.org/2000/svg">
<path d="M5.88153 35.9375V46.0859H4.59912V37.5388L2.01349 38.4816V37.3239L5.6805 35.9375H5.88153ZM16.2656 45.0323V46.0859H9.65946V45.164L12.966 41.4831C13.3727 41.0302 13.6869 40.6467 13.9088 40.3324C14.1352 40.0135 14.2923 39.7293 14.3801 39.4798C14.4726 39.2256 14.5188 38.9668 14.5188 38.7034C14.5188 38.3707 14.4494 38.0703 14.3108 37.8022C14.1768 37.5296 13.9781 37.3124 13.7147 37.1506C13.4512 36.9889 13.1324 36.908 12.758 36.908C12.3098 36.908 11.9355 36.9958 11.6351 37.1714C11.3393 37.3424 11.1175 37.5827 10.9696 37.8923C10.8217 38.202 10.7478 38.5578 10.7478 38.9599H9.46536C9.46536 38.3914 9.59014 37.8716 9.83969 37.4002C10.0892 36.9288 10.4589 36.5545 10.9488 36.2772C11.4387 35.9953 12.0417 35.8543 12.758 35.8543C13.3958 35.8543 13.9411 35.9676 14.394 36.194C14.8469 36.4158 15.1935 36.7301 15.4338 37.1368C15.6787 37.5388 15.8012 38.0102 15.8012 38.5509C15.8012 38.8466 15.7503 39.147 15.6487 39.452C15.5516 39.7524 15.4153 40.0528 15.2397 40.3532C15.0687 40.6536 14.8677 40.9493 14.6366 41.2405C14.4102 41.5316 14.1675 41.8182 13.9088 42.1001L11.2053 45.0323H16.2656ZM24.2235 46.0859H22.1162L22.1301 44.9976H24.2235C24.9445 44.9976 25.5452 44.8474 26.0258 44.547C26.5065 44.242 26.8669 43.8169 27.1072 43.2716C27.3522 42.7216 27.4746 42.0793 27.4746 41.3445V40.7275C27.4746 40.1499 27.4053 39.6369 27.2667 39.1886C27.128 38.7357 26.9247 38.3545 26.6566 38.0449C26.3886 37.7306 26.0605 37.4926 25.6723 37.3309C25.2887 37.1691 24.8474 37.0882 24.3483 37.0882H22.0746V35.993H24.3483C25.0092 35.993 25.6122 36.1039 26.1575 36.3257C26.7029 36.5429 27.1719 36.8595 27.5647 37.2754C27.9622 37.6867 28.2672 38.1858 28.4798 38.7727C28.6923 39.355 28.7986 40.0112 28.7986 40.7414V41.3445C28.7986 42.0746 28.6923 42.7332 28.4798 43.3201C28.2672 43.9024 27.9599 44.3992 27.5578 44.8105C27.1604 45.2218 26.6798 45.5383 26.116 45.7601C25.5568 45.9773 24.926 46.0859 24.2235 46.0859ZM22.8302 35.993V46.0859H21.4923V35.993H22.8302ZM33.7273 46.2246C33.2051 46.2246 32.7314 46.1368 32.3062 45.9612C31.8857 45.7809 31.5229 45.5291 31.2179 45.2056C30.9175 44.8821 30.6864 44.4985 30.5247 44.0549C30.3629 43.6112 30.2821 43.126 30.2821 42.5992V42.308C30.2821 41.698 30.3722 41.155 30.5524 40.679C30.7326 40.1984 30.9776 39.7917 31.2872 39.459C31.5968 39.1262 31.9481 38.8744 32.3409 38.7034C32.7337 38.5324 33.1404 38.4469 33.5609 38.4469C34.097 38.4469 34.5591 38.5393 34.9473 38.7242C35.3401 38.909 35.6613 39.1678 35.9108 39.5006C36.1604 39.8287 36.3452 40.2169 36.4654 40.6651C36.5855 41.1088 36.6456 41.594 36.6456 42.1209V42.6962H31.0446V41.6495H35.3632V41.5524C35.3447 41.2197 35.2754 40.8962 35.1552 40.582C35.0397 40.2677 34.8549 40.0089 34.6007 39.8056C34.3465 39.6022 33.9999 39.5006 33.5609 39.5006C33.2697 39.5006 33.0017 39.563 32.7568 39.6877C32.5119 39.8079 32.3016 39.9881 32.126 40.2284C31.9504 40.4687 31.814 40.7622 31.717 41.1088C31.6199 41.4554 31.5714 41.8551 31.5714 42.308V42.5992C31.5714 42.955 31.6199 43.29 31.717 43.6043C31.8187 43.9139 31.9642 44.1866 32.1537 44.4223C32.3478 44.658 32.5812 44.8428 32.8538 44.9768C33.1311 45.1108 33.4454 45.1778 33.7966 45.1778C34.2495 45.1778 34.633 45.0854 34.9473 44.9006C35.2615 44.7157 35.5365 44.4685 35.7722 44.1588L36.5486 44.7758C36.3868 45.0207 36.1812 45.2541 35.9316 45.4759C35.6821 45.6977 35.3748 45.878 35.0097 46.0166C34.6492 46.1553 34.2217 46.2246 33.7273 46.2246ZM41.1445 45.1709C41.4495 45.1709 41.7314 45.1085 41.9902 44.9838C42.249 44.859 42.4615 44.688 42.6279 44.4708C42.7943 44.249 42.889 43.9971 42.9121 43.7152H44.1321C44.109 44.1588 43.9588 44.5725 43.6816 44.956C43.4089 45.335 43.0508 45.6423 42.6071 45.878C42.1635 46.109 41.6759 46.2246 41.1445 46.2246C40.5807 46.2246 40.0885 46.1252 39.668 45.9265C39.252 45.7278 38.9054 45.4551 38.6282 45.1085C38.3555 44.7619 38.1499 44.3645 38.0112 43.9162C37.8772 43.4633 37.8102 42.985 37.8102 42.4813V42.1902C37.8102 41.6864 37.8772 41.2105 38.0112 40.7622C38.1499 40.3093 38.3555 39.9096 38.6282 39.563C38.9054 39.2164 39.252 38.9437 39.668 38.745C40.0885 38.5463 40.5807 38.4469 41.1445 38.4469C41.7314 38.4469 42.2443 38.5671 42.6834 38.8074C43.1224 39.0431 43.4667 39.3665 43.7162 39.7778C43.9704 40.1845 44.109 40.6467 44.1321 41.1642H42.9121C42.889 40.8546 42.8012 40.575 42.6487 40.3255C42.5008 40.0759 42.2975 39.8772 42.0387 39.7293C41.7845 39.5768 41.4864 39.5006 41.1445 39.5006C40.7517 39.5006 40.4212 39.5791 40.1532 39.7363C39.8898 39.8888 39.6795 40.0967 39.5224 40.3601C39.3699 40.6189 39.259 40.9078 39.1897 41.2266C39.125 41.5409 39.0926 41.8621 39.0926 42.1902V42.4813C39.0926 42.8094 39.125 43.1329 39.1897 43.4518C39.2543 43.7707 39.363 44.0595 39.5155 44.3183C39.6726 44.5771 39.8828 44.785 40.1463 44.9422C40.4143 45.0947 40.747 45.1709 41.1445 45.1709ZM55.5699 45.0323V46.0859H48.9637V45.164L52.2703 41.4831C52.677 41.0302 52.9912 40.6467 53.213 40.3324C53.4395 40.0135 53.5966 39.7293 53.6844 39.4798C53.7768 39.2256 53.823 38.9668 53.823 38.7034C53.823 38.3707 53.7537 38.0703 53.6151 37.8022C53.4811 37.5296 53.2823 37.3124 53.0189 37.1506C52.7555 36.9889 52.4366 36.908 52.0623 36.908C51.6141 36.908 51.2397 36.9958 50.9393 37.1714C50.6436 37.3424 50.4218 37.5827 50.2739 37.8923C50.126 38.202 50.0521 38.5578 50.0521 38.9599H48.7696C48.7696 38.3914 48.8944 37.8716 49.144 37.4002C49.3935 36.9288 49.7632 36.5545 50.2531 36.2772C50.7429 35.9953 51.346 35.8543 52.0623 35.8543C52.7001 35.8543 53.2454 35.9676 53.6983 36.194C54.1512 36.4158 54.4978 36.7301 54.7381 37.1368C54.983 37.5388 55.1055 38.0102 55.1055 38.5509C55.1055 38.8466 55.0546 39.147 54.953 39.452C54.8559 39.7524 54.7196 40.0528 54.544 40.3532C54.373 40.6536 54.172 40.9493 53.9409 41.2405C53.7144 41.5316 53.4718 41.8182 53.213 42.1001L50.5096 45.0323H55.5699ZM63.2783 40.2354V41.7743C63.2783 42.6015 63.2043 43.2993 63.0564 43.8677C62.9085 44.4361 62.696 44.8936 62.4187 45.2402C62.1414 45.5868 61.8064 45.8387 61.4136 45.9958C61.0254 46.1483 60.5863 46.2246 60.0965 46.2246C59.7083 46.2246 59.3501 46.1761 59.022 46.079C58.6939 45.982 58.3981 45.8271 58.1347 45.6146C57.8759 45.3974 57.6541 45.1155 57.4693 44.7689C57.2844 44.4223 57.1435 44.0017 57.0464 43.5072C56.9494 43.0128 56.9008 42.4351 56.9008 41.7743V40.2354C56.9008 39.4081 56.9748 38.7149 57.1227 38.1558C57.2752 37.5966 57.4901 37.1483 57.7673 36.811C58.0446 36.469 58.3773 36.2241 58.7655 36.0762C59.1583 35.9283 59.5974 35.8543 60.0826 35.8543C60.4754 35.8543 60.8359 35.9029 61.164 35.9999C61.4967 36.0923 61.7925 36.2425 62.0513 36.4505C62.3101 36.6538 62.5296 36.9265 62.7098 37.2685C62.8947 37.6058 63.0356 38.0194 63.1327 38.5093C63.2297 38.9992 63.2783 39.5745 63.2783 40.2354ZM61.9889 41.9822V40.0205C61.9889 39.5676 61.9612 39.1701 61.9057 38.8282C61.8549 38.4816 61.7786 38.1858 61.677 37.9409C61.5753 37.6959 61.4459 37.4972 61.2888 37.3447C61.1363 37.1922 60.9584 37.0813 60.755 37.012C60.5563 36.938 60.3322 36.9011 60.0826 36.9011C59.7776 36.9011 59.5073 36.9588 59.2716 37.0744C59.0359 37.1853 58.8372 37.3632 58.6754 37.6081C58.5183 37.8531 58.3981 38.1742 58.315 38.5717C58.2318 38.9691 58.1902 39.452 58.1902 40.0205V41.9822C58.1902 42.4351 58.2156 42.8348 58.2664 43.1814C58.3219 43.528 58.4028 43.8284 58.5091 44.0826C58.6153 44.3321 58.7447 44.5378 58.8972 44.6995C59.0497 44.8613 59.2254 44.9814 59.4241 45.06C59.6274 45.1339 59.8515 45.1709 60.0965 45.1709C60.4107 45.1709 60.6857 45.1108 60.9214 44.9907C61.1571 44.8705 61.3535 44.6834 61.5106 44.4292C61.6723 44.1704 61.7925 43.84 61.8711 43.4379C61.9496 43.0312 61.9889 42.546 61.9889 41.9822ZM71.5412 45.0323V46.0859H64.935V45.164L68.2415 41.4831C68.6482 41.0302 68.9625 40.6467 69.1843 40.3324C69.4107 40.0135 69.5679 39.7293 69.6557 39.4798C69.7481 39.2256 69.7943 38.9668 69.7943 38.7034C69.7943 38.3707 69.725 38.0703 69.5863 37.8022C69.4523 37.5296 69.2536 37.3124 68.9902 37.1506C68.7268 36.9889 68.4079 36.908 68.0336 36.908C67.5853 36.908 67.211 36.9958 66.9106 37.1714C66.6148 37.3424 66.393 37.5827 66.2451 37.8923C66.0973 38.202 66.0233 38.5578 66.0233 38.9599H64.7409C64.7409 38.3914 64.8657 37.8716 65.1152 37.4002C65.3648 36.9288 65.7345 36.5545 66.2243 36.2772C66.7142 35.9953 67.3173 35.8543 68.0336 35.8543C68.6713 35.8543 69.2166 35.9676 69.6695 36.194C70.1224 36.4158 70.469 36.7301 70.7093 37.1368C70.9543 37.5388 71.0767 38.0102 71.0767 38.5509C71.0767 38.8466 71.0259 39.147 70.9242 39.452C70.8272 39.7524 70.6908 40.0528 70.5152 40.3532C70.3442 40.6536 70.1432 40.9493 69.9121 41.2405C69.6857 41.5316 69.4431 41.8182 69.1843 42.1001L66.4808 45.0323H71.5412ZM74.7853 40.4087H75.7003C76.1486 40.4087 76.5183 40.3347 76.8095 40.1868C77.1052 40.0343 77.3247 39.8287 77.468 39.5699C77.6159 39.3065 77.6898 39.0107 77.6898 38.6826C77.6898 38.2944 77.6251 37.9686 77.4957 37.7052C77.3663 37.4418 77.1722 37.2431 76.9134 37.109C76.6546 36.975 76.3265 36.908 75.9291 36.908C75.5686 36.908 75.2498 36.9796 74.9725 37.1229C74.6998 37.2615 74.4849 37.4603 74.3278 37.719C74.1753 37.9778 74.0991 38.2828 74.0991 38.6341H72.8166C72.8166 38.1211 72.946 37.6544 73.2048 37.2338C73.4636 36.8133 73.8264 36.4782 74.2932 36.2287C74.7645 35.9791 75.3098 35.8543 75.9291 35.8543C76.5391 35.8543 77.0729 35.9629 77.5304 36.1802C77.9879 36.3927 78.3437 36.7116 78.5979 37.1368C78.8521 37.5573 78.9792 38.0818 78.9792 38.7103C78.9792 38.9645 78.9191 39.2372 78.7989 39.5283C78.6834 39.8148 78.5009 40.0829 78.2513 40.3324C78.0064 40.582 77.6875 40.7876 77.2947 40.9493C76.9019 41.1065 76.4305 41.185 75.8806 41.185H74.7853V40.4087ZM74.7853 41.4623V40.6929H75.8806C76.5229 40.6929 77.0544 40.7691 77.4749 40.9216C77.8955 41.0741 78.2259 41.2775 78.4662 41.5316C78.7111 41.7858 78.8821 42.0654 78.9792 42.3704C79.0808 42.6708 79.1317 42.9712 79.1317 43.2716C79.1317 43.7429 79.0508 44.1612 78.889 44.5262C78.7319 44.8913 78.5078 45.201 78.2166 45.4551C77.9301 45.7093 77.5928 45.9011 77.2046 46.0305C76.8164 46.1599 76.3935 46.2246 75.936 46.2246C75.497 46.2246 75.0834 46.1622 74.6952 46.0374C74.3116 45.9126 73.972 45.7324 73.6762 45.4967C73.3804 45.2564 73.1494 44.963 72.983 44.6164C72.8166 44.2651 72.7335 43.8654 72.7335 43.4171H74.0159C74.0159 43.7683 74.0921 44.0757 74.2446 44.3391C74.4018 44.6025 74.6236 44.8081 74.9101 44.956C75.2012 45.0993 75.5432 45.1709 75.936 45.1709C76.3288 45.1709 76.6662 45.1039 76.9481 44.9699C77.2346 44.8313 77.4541 44.6233 77.6066 44.346C77.7638 44.0687 77.8423 43.7198 77.8423 43.2993C77.8423 42.8787 77.7545 42.5345 77.5789 42.2664C77.4033 41.9938 77.1537 41.7927 76.8303 41.6633C76.5114 41.5293 76.1347 41.4623 75.7003 41.4623H74.7853Z" fill="#8B909C"/>
<path d="M5.88153 80.8203V90.9688H4.59912V82.4216L2.01349 83.3644V82.2067L5.6805 80.8203H5.88153ZM13.8672 80.8203V90.9688H12.5847V82.4216L9.99912 83.3644V82.2067L13.6661 80.8203H13.8672ZM17.7213 90.2894C17.7213 90.0722 17.7883 89.8897 17.9224 89.7418C18.061 89.5893 18.2597 89.513 18.5185 89.513C18.7773 89.513 18.9737 89.5893 19.1077 89.7418C19.2464 89.8897 19.3157 90.0722 19.3157 90.2894C19.3157 90.502 19.2464 90.6822 19.1077 90.8301C18.9737 90.978 18.7773 91.0519 18.5185 91.0519C18.2597 91.0519 18.061 90.978 17.9224 90.8301C17.7883 90.6822 17.7213 90.502 17.7213 90.2894ZM17.7283 84.1685C17.7283 83.9513 17.7953 83.7687 17.9293 83.6209C18.0679 83.4684 18.2667 83.3921 18.5254 83.3921C18.7842 83.3921 18.9806 83.4684 19.1147 83.6209C19.2533 83.7687 19.3226 83.9513 19.3226 84.1685C19.3226 84.3811 19.2533 84.5613 19.1147 84.7092C18.9806 84.8571 18.7842 84.931 18.5254 84.931C18.2667 84.931 18.0679 84.8571 17.9293 84.7092C17.7953 84.5613 17.7283 84.3811 17.7283 84.1685ZM27.8975 87.5721V88.6257H20.605V87.8702L25.1247 80.8758H26.1714L25.0484 82.8999L22.0608 87.5721H27.8975ZM26.4903 80.8758V90.9688H25.2079V80.8758H26.4903ZM35.3979 85.1182V86.6571C35.3979 87.4843 35.3239 88.1821 35.176 88.7505C35.0282 89.3189 34.8156 89.7765 34.5383 90.123C34.261 90.4696 33.926 90.7215 33.5332 90.8786C33.145 91.0311 32.7059 91.1074 32.2161 91.1074C31.8279 91.1074 31.4697 91.0589 31.1416 90.9618C30.8135 90.8648 30.5178 90.71 30.2543 90.4974C29.9955 90.2802 29.7737 89.9983 29.5889 89.6517C29.404 89.3051 29.2631 88.8845 29.166 88.3901C29.069 87.8956 29.0205 87.3179 29.0205 86.6571V85.1182C29.0205 84.291 29.0944 83.5978 29.2423 83.0386C29.3948 82.4794 29.6097 82.0311 29.8869 81.6938C30.1642 81.3518 30.497 81.1069 30.8852 80.959C31.278 80.8111 31.717 80.7372 32.2022 80.7372C32.595 80.7372 32.9555 80.7857 33.2836 80.8827C33.6163 80.9752 33.9121 81.1254 34.1709 81.3333C34.4297 81.5366 34.6492 81.8093 34.8294 82.1513C35.0143 82.4886 35.1552 82.9022 35.2523 83.3921C35.3493 83.882 35.3979 84.4573 35.3979 85.1182ZM34.1085 86.865V84.9033C34.1085 84.4504 34.0808 84.053 34.0253 83.711C33.9745 83.3644 33.8982 83.0686 33.7966 82.8237C33.6949 82.5788 33.5655 82.38 33.4084 82.2275C33.2559 82.075 33.078 81.9641 32.8746 81.8948C32.6759 81.8209 32.4518 81.7839 32.2022 81.7839C31.8972 81.7839 31.6269 81.8417 31.3912 81.9572C31.1555 82.0681 30.9568 82.246 30.795 82.4909C30.6379 82.7359 30.5178 83.0571 30.4346 83.4545C30.3514 83.8519 30.3098 84.3349 30.3098 84.9033V86.865C30.3098 87.3179 30.3352 87.7177 30.386 88.0643C30.4415 88.4109 30.5224 88.7112 30.6287 88.9654C30.735 89.215 30.8644 89.4206 31.0169 89.5824C31.1694 89.7441 31.345 89.8643 31.5437 89.9428C31.747 90.0168 31.9712 90.0537 32.2161 90.0537C32.5303 90.0537 32.8053 89.9937 33.041 89.8735C33.2767 89.7533 33.4731 89.5662 33.6302 89.312C33.792 89.0532 33.9121 88.7228 33.9907 88.3207C34.0692 87.9141 34.1085 87.4288 34.1085 86.865ZM44.6243 87.0106H41.9278V85.9223H44.6243C45.1465 85.9223 45.5694 85.8391 45.8929 85.6727C46.2164 85.5064 46.452 85.2753 46.5999 84.9795C46.7524 84.6838 46.8287 84.3464 46.8287 83.9675C46.8287 83.6209 46.7524 83.2951 46.5999 82.9901C46.452 82.685 46.2164 82.4401 45.8929 82.2553C45.5694 82.0658 45.1465 81.9711 44.6243 81.9711H42.2397V90.9688H40.9018V80.8758H44.6243C45.3868 80.8758 46.0315 81.0075 46.5583 81.2709C47.0852 81.5343 47.4849 81.8994 47.7576 82.3662C48.0302 82.8283 48.1666 83.3574 48.1666 83.9536C48.1666 84.6006 48.0302 85.1528 47.7576 85.6103C47.4849 86.0678 47.0852 86.4168 46.5583 86.6571C46.0315 86.8928 45.3868 87.0106 44.6243 87.0106ZM50.2808 80.8758H51.5771L54.8836 89.104L58.1833 80.8758H59.4865L55.3827 90.9688H54.3707L50.2808 80.8758ZM49.858 80.8758H51.0017L51.1889 87.0314V90.9688H49.858V80.8758ZM58.7586 80.8758H59.9024V90.9688H58.5714V87.0314L58.7586 80.8758Z" fill="#8B909C"/>
<g filter="url(#filter0_dd_476_313)">
<rect x="98.1797" width="313" height="128.054" rx="8" fill="white" shape-rendering="crispEdges"/>
<circle cx="124.204" cy="26.0248" r="14.1967" fill="#D9D9D9"/>
<rect x="146.68" y="21.2891" width="184.557" height="9.46445" rx="2.36611" fill="#D9D9D9"/>
<g clip-path="url(#clip0_476_313)">
<path d="M119.891 58.1596C119.075 58.1596 118.413 58.8217 118.413 59.6384C118.413 60.4552 119.075 61.1173 119.891 61.1173C120.708 61.1173 121.37 60.4552 121.37 59.6384C121.37 58.8217 120.708 58.1596 119.891 58.1596ZM117.23 59.6384C117.23 58.1683 118.421 56.9766 119.891 56.9766C121.362 56.9766 122.553 58.1683 122.553 59.6384C122.553 60.379 122.251 61.0489 121.763 61.5315C122.041 61.6849 122.281 61.9083 122.454 62.1866L123.219 63.4115L124.741 64.3627C125.627 64.9167 125.897 66.0845 125.343 66.9711C124.788 67.8576 123.621 68.1271 122.734 67.573L121.019 66.5011L121.703 67.4676C122 67.8883 122.187 68.3769 122.247 68.8886L122.542 71.428C122.662 72.4664 121.918 73.406 120.88 73.5267C119.841 73.6474 118.902 72.9034 118.781 71.8649L118.507 69.5056L118.087 68.9121L116.745 72.3372C116.364 73.3105 115.265 73.7903 114.292 73.4089C113.319 73.0274 112.839 71.9292 113.22 70.9558L114.526 67.6246C114.291 67.6237 114.052 67.5786 113.821 67.4846C112.852 67.0908 112.387 65.9864 112.781 65.0181L113.92 62.2169C114.15 61.6504 114.64 61.2302 115.235 61.0886L117.384 60.5772L117.399 60.5737C117.289 60.2828 117.23 59.9676 117.23 59.6384ZM117.997 61.7307C117.886 61.7024 117.769 61.7015 117.657 61.7281L115.509 62.2395C115.286 62.2926 115.102 62.4502 115.015 62.6626L113.876 65.4638C113.728 65.8269 113.903 66.241 114.266 66.3887C114.629 66.5364 115.044 66.3618 115.191 65.9986L116.084 63.8045C116.152 63.636 116.298 63.511 116.475 63.4689C116.917 63.3636 117.295 63.7988 117.13 64.2221L114.322 71.3875C114.178 71.7525 114.358 72.1643 114.723 72.3074C115.088 72.4504 115.5 72.2705 115.643 71.9055L116.976 68.5038C117.317 67.6357 118.481 67.484 119.032 68.2358L119.574 68.9746C119.622 69.0408 119.653 69.1184 119.662 69.1998L119.956 71.7284C120.001 72.1178 120.354 72.3968 120.743 72.3515C121.132 72.3063 121.411 71.9539 121.366 71.5645L121.072 69.036C121.035 68.7101 120.913 68.3996 120.719 68.135L119.858 66.9612C119.622 66.6393 119.564 66.22 119.704 65.8462L120.105 64.7781C120.134 64.6981 120.186 64.6277 120.252 64.5744C120.474 64.3972 120.8 64.4529 120.95 64.6936L121.242 65.1606C121.299 65.2522 121.376 65.3295 121.468 65.3867L123.361 66.5698C123.693 66.7775 124.131 66.6765 124.339 66.344C124.547 66.0116 124.446 65.5737 124.113 65.3659L122.591 64.4147C122.439 64.3193 122.31 64.1904 122.215 64.0378L121.45 62.813C121.353 62.6578 121.2 62.546 121.023 62.5009L117.997 61.7307Z" fill="#45A4EC"/>
</g>
<path d="M137.498 67.1687L139.502 60.1258H140.472L139.911 62.8639L137.755 70.2188H136.791L137.498 67.1687ZM135.426 60.1258L137.02 67.03L137.498 70.2188H136.542L134.095 60.1258H135.426ZM143.065 67.0231L144.624 60.1258H145.962L143.522 70.2188H142.566L143.065 67.0231ZM140.618 60.1258L142.566 67.1687L143.273 70.2188H142.309L140.23 62.8639L139.661 60.1258H140.618ZM151.439 68.9363V65.0752C151.439 64.7795 151.378 64.523 151.258 64.3058C151.143 64.084 150.967 63.913 150.731 63.7928C150.496 63.6727 150.205 63.6126 149.858 63.6126C149.535 63.6126 149.25 63.668 149.005 63.7789C148.765 63.8899 148.576 64.0354 148.437 64.2157C148.303 64.3959 148.236 64.59 148.236 64.7979H146.954C146.954 64.5299 147.023 64.2642 147.161 64.0008C147.3 63.7374 147.499 63.4994 147.758 63.2868C148.021 63.0696 148.335 62.8986 148.7 62.7738C149.07 62.6444 149.481 62.5797 149.934 62.5797C150.48 62.5797 150.96 62.6721 151.376 62.857C151.797 63.0418 152.125 63.3214 152.36 63.6958C152.601 64.0655 152.721 64.5299 152.721 65.0891V68.5828C152.721 68.8324 152.742 69.0981 152.783 69.38C152.83 69.6619 152.897 69.9045 152.984 70.1078V70.2188H151.646C151.582 70.0709 151.531 69.8745 151.494 69.6295C151.457 69.38 151.439 69.1489 151.439 68.9363ZM151.66 65.6714L151.674 66.5725H150.378C150.013 66.5725 149.687 66.6026 149.401 66.6626C149.114 66.7181 148.874 66.8036 148.68 66.9191C148.485 67.0347 148.338 67.1802 148.236 67.3558C148.134 67.5268 148.083 67.7279 148.083 67.9589C148.083 68.1946 148.137 68.4095 148.243 68.6036C148.349 68.7977 148.509 68.9525 148.721 69.068C148.938 69.179 149.204 69.2344 149.518 69.2344C149.911 69.2344 150.258 69.1512 150.558 68.9849C150.859 68.8185 151.097 68.6152 151.272 68.3748C151.452 68.1345 151.549 67.9012 151.563 67.6747L152.111 68.2917C152.079 68.4858 151.991 68.7006 151.848 68.9363C151.704 69.172 151.512 69.3985 151.272 69.6157C151.036 69.8282 150.755 70.0062 150.426 70.1494C150.103 70.2881 149.738 70.3574 149.331 70.3574C148.823 70.3574 148.377 70.258 147.993 70.0593C147.614 69.8606 147.319 69.5949 147.106 69.2621C146.898 68.9248 146.794 68.5481 146.794 68.1322C146.794 67.7302 146.873 67.3766 147.03 67.0716C147.187 66.762 147.413 66.5055 147.709 66.3022C148.005 66.0942 148.361 65.9371 148.777 65.8308C149.193 65.7245 149.657 65.6714 150.17 65.6714H151.66ZM156.131 59.5712V70.2188H154.842V59.5712H156.131ZM159.48 59.5712V70.2188H158.19V59.5712H159.48ZM164.062 62.7184L160.79 66.219L158.96 68.1184L158.856 66.7528L160.166 65.1861L162.495 62.7184H164.062ZM162.89 70.2188L160.214 66.6419L160.88 65.4981L164.401 70.2188H162.89ZM168.054 65.401V66.4547H164.672V65.401H168.054ZM170.702 62.7184V70.2188H169.413V62.7184H170.702ZM169.316 60.7289C169.316 60.5209 169.378 60.3453 169.503 60.2021C169.633 60.0588 169.822 59.9872 170.072 59.9872C170.317 59.9872 170.504 60.0588 170.633 60.2021C170.767 60.3453 170.834 60.5209 170.834 60.7289C170.834 60.9276 170.767 61.0986 170.633 61.2418C170.504 61.3805 170.317 61.4498 170.072 61.4498C169.822 61.4498 169.633 61.3805 169.503 61.2418C169.378 61.0986 169.316 60.9276 169.316 60.7289ZM174.044 64.3196V70.2188H172.761V62.7184H173.974L174.044 64.3196ZM173.739 66.1843L173.205 66.1635C173.21 65.6506 173.286 65.1769 173.434 64.7425C173.582 64.3035 173.79 63.9222 174.058 63.5987C174.326 63.2752 174.644 63.0257 175.014 62.8501C175.388 62.6698 175.802 62.5797 176.255 62.5797C176.625 62.5797 176.957 62.6306 177.253 62.7322C177.549 62.8293 177.801 62.9864 178.009 63.2036C178.221 63.4208 178.383 63.7027 178.494 64.0493C178.605 64.3913 178.66 64.8095 178.66 65.304V70.2188H177.371V65.2901C177.371 64.8973 177.313 64.5831 177.198 64.3474C177.082 64.1071 176.914 63.9338 176.692 63.8275C176.47 63.7166 176.197 63.6611 175.874 63.6611C175.555 63.6611 175.264 63.7281 175 63.8621C174.741 63.9962 174.517 64.181 174.328 64.4167C174.143 64.6524 173.997 64.9227 173.891 65.2277C173.79 65.5281 173.739 65.847 173.739 66.1843ZM190.417 67.0092H191.748C191.679 67.647 191.496 68.2177 191.2 68.7214C190.905 69.2252 190.486 69.6249 189.946 69.9207C189.405 70.2118 188.73 70.3574 187.921 70.3574C187.33 70.3574 186.792 70.2465 186.306 70.0247C185.826 69.8028 185.412 69.4886 185.066 69.0819C184.719 68.6706 184.451 68.1784 184.261 67.6054C184.077 67.0277 183.984 66.3854 183.984 65.6783V64.6732C183.984 63.9661 184.077 63.3261 184.261 62.753C184.451 62.1754 184.721 61.6809 185.072 61.2696C185.428 60.8583 185.856 60.5417 186.355 60.3199C186.854 60.0981 187.415 59.9872 188.039 59.9872C188.802 59.9872 189.447 60.1304 189.973 60.4169C190.5 60.7035 190.909 61.1009 191.2 61.6092C191.496 62.113 191.679 62.6976 191.748 63.363H190.417C190.352 62.8917 190.232 62.4873 190.057 62.1499C189.881 61.808 189.631 61.5445 189.308 61.3597C188.984 61.1748 188.562 61.0824 188.039 61.0824C187.591 61.0824 187.196 61.1679 186.854 61.3389C186.517 61.5099 186.232 61.7525 186.001 62.0668C185.775 62.381 185.604 62.7576 185.488 63.1967C185.373 63.6357 185.315 64.1232 185.315 64.6593V65.6783C185.315 66.1728 185.366 66.6372 185.468 67.0716C185.574 67.506 185.733 67.8873 185.946 68.2154C186.158 68.5435 186.429 68.8023 186.757 68.9918C187.085 69.1766 187.473 69.2691 187.921 69.2691C188.49 69.2691 188.943 69.179 189.28 68.9987C189.618 68.8185 189.872 68.5597 190.043 68.2223C190.218 67.885 190.343 67.4806 190.417 67.0092ZM193.037 66.5517V66.3923C193.037 65.8516 193.116 65.3502 193.273 64.8881C193.43 64.4213 193.657 64.0169 193.952 63.675C194.248 63.3284 194.606 63.0603 195.027 62.8709C195.447 62.6768 195.919 62.5797 196.441 62.5797C196.968 62.5797 197.441 62.6768 197.862 62.8709C198.287 63.0603 198.648 63.3284 198.943 63.675C199.244 64.0169 199.472 64.4213 199.63 64.8881C199.787 65.3502 199.865 65.8516 199.865 66.3923V66.5517C199.865 67.0924 199.787 67.5938 199.63 68.056C199.472 68.5181 199.244 68.9225 198.943 69.2691C198.648 69.611 198.289 69.8791 197.869 70.0732C197.453 70.2627 196.982 70.3574 196.455 70.3574C195.928 70.3574 195.454 70.2627 195.034 70.0732C194.613 69.8791 194.253 69.611 193.952 69.2691C193.657 68.9225 193.43 68.5181 193.273 68.056C193.116 67.5938 193.037 67.0924 193.037 66.5517ZM194.32 66.3923V66.5517C194.32 66.9261 194.364 67.2796 194.451 67.6123C194.539 67.9404 194.671 68.2316 194.847 68.4858C195.027 68.7399 195.251 68.941 195.519 69.0888C195.787 69.2321 196.099 69.3037 196.455 69.3037C196.806 69.3037 197.113 69.2321 197.377 69.0888C197.645 68.941 197.867 68.7399 198.042 68.4858C198.218 68.2316 198.349 67.9404 198.437 67.6123C198.53 67.2796 198.576 66.9261 198.576 66.5517V66.3923C198.576 66.0226 198.53 65.6737 198.437 65.3456C198.349 65.0128 198.215 64.7194 198.035 64.4652C197.86 64.2064 197.638 64.0031 197.37 63.8552C197.106 63.7073 196.797 63.6334 196.441 63.6334C196.09 63.6334 195.78 63.7073 195.512 63.8552C195.249 64.0031 195.027 64.2064 194.847 64.4652C194.671 64.7194 194.539 65.0128 194.451 65.3456C194.364 65.6737 194.32 66.0226 194.32 66.3923ZM202.756 64.3196V70.2188H201.473V62.7184H202.687L202.756 64.3196ZM202.451 66.1843L201.917 66.1635C201.922 65.6506 201.998 65.1769 202.146 64.7425C202.294 64.3035 202.502 63.9222 202.77 63.5987C203.038 63.2752 203.357 63.0257 203.726 62.8501C204.101 62.6698 204.514 62.5797 204.967 62.5797C205.337 62.5797 205.67 62.6306 205.965 62.7322C206.261 62.8293 206.513 62.9864 206.721 63.2036C206.934 63.4208 207.095 63.7027 207.206 64.0493C207.317 64.3913 207.373 64.8095 207.373 65.304V70.2188H206.083V65.2901C206.083 64.8973 206.025 64.5831 205.91 64.3474C205.794 64.1071 205.626 63.9338 205.404 63.8275C205.182 63.7166 204.909 63.6611 204.586 63.6611C204.267 63.6611 203.976 63.7281 203.713 63.8621C203.454 63.9962 203.23 64.181 203.04 64.4167C202.855 64.6524 202.71 64.9227 202.603 65.2277C202.502 65.5281 202.451 65.847 202.451 66.1843ZM213.688 68.2293C213.688 68.0444 213.646 67.8734 213.563 67.7163C213.484 67.5546 213.32 67.409 213.071 67.2796C212.826 67.1456 212.456 67.03 211.962 66.933C211.546 66.8452 211.169 66.7412 210.832 66.6211C210.499 66.5009 210.215 66.3553 209.979 66.1843C209.748 66.0134 209.57 65.8123 209.445 65.5813C209.32 65.3502 209.258 65.0798 209.258 64.7702C209.258 64.4745 209.323 64.1949 209.452 63.9315C209.586 63.668 209.773 63.4347 210.014 63.2313C210.259 63.028 210.552 62.8686 210.894 62.753C211.236 62.6375 211.617 62.5797 212.038 62.5797C212.639 62.5797 213.152 62.686 213.577 62.8986C214.002 63.1112 214.328 63.3954 214.554 63.7512C214.781 64.1024 214.894 64.4929 214.894 64.9227H213.611C213.611 64.7148 213.549 64.5137 213.424 64.3196C213.304 64.1209 213.126 63.9569 212.89 63.8275C212.659 63.6981 212.375 63.6334 212.038 63.6334C211.682 63.6334 211.393 63.6888 211.171 63.7997C210.954 63.906 210.795 64.0424 210.693 64.2087C210.596 64.3751 210.547 64.5507 210.547 64.7356C210.547 64.8742 210.571 64.999 210.617 65.1099C210.668 65.2162 210.755 65.3155 210.88 65.408C211.005 65.4958 211.181 65.579 211.407 65.6575C211.633 65.7361 211.922 65.8146 212.273 65.8932C212.888 66.0318 213.394 66.1982 213.792 66.3923C214.189 66.5864 214.485 66.8244 214.679 67.1063C214.873 67.3882 214.97 67.7302 214.97 68.1322C214.97 68.4603 214.901 68.7607 214.762 69.0334C214.628 69.306 214.432 69.5417 214.173 69.7404C213.919 69.9345 213.614 70.087 213.258 70.198C212.907 70.3042 212.511 70.3574 212.072 70.3574C211.412 70.3574 210.852 70.2395 210.395 70.0039C209.937 69.7682 209.591 69.4632 209.355 69.0888C209.119 68.7145 209.002 68.3194 209.002 67.9035H210.291C210.309 68.2547 210.411 68.5343 210.596 68.7422C210.781 68.9456 211.007 69.0911 211.275 69.179C211.543 69.2621 211.809 69.3037 212.072 69.3037C212.424 69.3037 212.717 69.2575 212.953 69.1651C213.193 69.0727 213.376 68.9456 213.5 68.7838C213.625 68.6221 213.688 68.4372 213.688 68.2293ZM221.243 68.4858V62.7184H222.533V70.2188H221.306L221.243 68.4858ZM221.486 66.9053L222.02 66.8914C222.02 67.3905 221.967 67.8526 221.86 68.2778C221.759 68.6983 221.592 69.0634 221.361 69.373C221.13 69.6827 220.828 69.9253 220.453 70.1009C220.079 70.2719 219.624 70.3574 219.088 70.3574C218.723 70.3574 218.387 70.3042 218.082 70.198C217.782 70.0917 217.523 69.9276 217.306 69.7058C217.089 69.484 216.92 69.1951 216.8 68.8393C216.685 68.4834 216.627 68.056 216.627 67.5569V62.7184H217.909V67.5707C217.909 67.9081 217.946 68.1877 218.02 68.4095C218.099 68.6267 218.203 68.8 218.332 68.9294C218.466 69.0542 218.614 69.142 218.776 69.1928C218.942 69.2437 219.113 69.2691 219.289 69.2691C219.834 69.2691 220.266 69.1651 220.585 68.9571C220.904 68.7446 221.133 68.4603 221.271 68.1045C221.414 67.744 221.486 67.3443 221.486 66.9053ZM225.881 59.5712V70.2188H224.592V59.5712H225.881ZM231.08 62.7184V63.7027H227.025V62.7184H231.08ZM228.397 60.8952H229.68V68.361C229.68 68.6152 229.719 68.8069 229.798 68.9363C229.876 69.0657 229.978 69.1512 230.103 69.1928C230.227 69.2344 230.361 69.2552 230.505 69.2552C230.611 69.2552 230.722 69.246 230.837 69.2275C230.957 69.2044 231.048 69.1859 231.108 69.172L231.115 70.2188C231.013 70.2511 230.879 70.2811 230.713 70.3089C230.551 70.3412 230.354 70.3574 230.123 70.3574C229.809 70.3574 229.52 70.295 229.257 70.1702C228.993 70.0455 228.783 69.8375 228.626 69.5463C228.474 69.2506 228.397 68.8532 228.397 68.354V60.8952ZM237.007 68.9363V65.0752C237.007 64.7795 236.947 64.523 236.827 64.3058C236.711 64.084 236.535 63.913 236.3 63.7928C236.064 63.6727 235.773 63.6126 235.426 63.6126C235.103 63.6126 234.819 63.668 234.574 63.7789C234.333 63.8899 234.144 64.0354 234.005 64.2157C233.871 64.3959 233.804 64.59 233.804 64.7979H232.522C232.522 64.5299 232.591 64.2642 232.73 64.0008C232.868 63.7374 233.067 63.4994 233.326 63.2868C233.589 63.0696 233.904 62.8986 234.269 62.7738C234.638 62.6444 235.05 62.5797 235.503 62.5797C236.048 62.5797 236.528 62.6721 236.944 62.857C237.365 63.0418 237.693 63.3214 237.929 63.6958C238.169 64.0655 238.289 64.5299 238.289 65.0891V68.5828C238.289 68.8324 238.31 69.0981 238.352 69.38C238.398 69.6619 238.465 69.9045 238.553 70.1078V70.2188H237.215C237.15 70.0709 237.099 69.8745 237.062 69.6295C237.025 69.38 237.007 69.1489 237.007 68.9363ZM237.229 65.6714L237.242 66.5725H235.946C235.581 66.5725 235.255 66.6026 234.969 66.6626C234.682 66.7181 234.442 66.8036 234.248 66.9191C234.054 67.0347 233.906 67.1802 233.804 67.3558C233.703 67.5268 233.652 67.7279 233.652 67.9589C233.652 68.1946 233.705 68.4095 233.811 68.6036C233.917 68.7977 234.077 68.9525 234.289 69.068C234.507 69.179 234.772 69.2344 235.087 69.2344C235.479 69.2344 235.826 69.1512 236.126 68.9849C236.427 68.8185 236.665 68.6152 236.84 68.3748C237.021 68.1345 237.118 67.9012 237.132 67.6747L237.679 68.2917C237.647 68.4858 237.559 68.7006 237.416 68.9363C237.272 69.172 237.081 69.3985 236.84 69.6157C236.605 69.8282 236.323 70.0062 235.995 70.1494C235.671 70.2881 235.306 70.3574 234.899 70.3574C234.391 70.3574 233.945 70.258 233.562 70.0593C233.183 69.8606 232.887 69.5949 232.674 69.2621C232.466 68.9248 232.362 68.5481 232.362 68.1322C232.362 67.7302 232.441 67.3766 232.598 67.0716C232.755 66.762 232.982 66.5055 233.277 66.3022C233.573 66.0942 233.929 65.9371 234.345 65.8308C234.761 65.7245 235.225 65.6714 235.738 65.6714H237.229ZM243.447 62.7184V63.7027H239.391V62.7184H243.447ZM240.764 60.8952H242.046V68.361C242.046 68.6152 242.086 68.8069 242.164 68.9363C242.243 69.0657 242.344 69.1512 242.469 69.1928C242.594 69.2344 242.728 69.2552 242.871 69.2552C242.977 69.2552 243.088 69.246 243.204 69.2275C243.324 69.2044 243.414 69.1859 243.474 69.172L243.481 70.2188C243.38 70.2511 243.246 70.2811 243.079 70.3089C242.917 70.3412 242.721 70.3574 242.49 70.3574C242.176 70.3574 241.887 70.295 241.623 70.1702C241.36 70.0455 241.15 69.8375 240.993 69.5463C240.84 69.2506 240.764 68.8532 240.764 68.354V60.8952ZM246.344 62.7184V70.2188H245.055V62.7184H246.344ZM244.958 60.7289C244.958 60.5209 245.02 60.3453 245.145 60.2021C245.274 60.0588 245.464 59.9872 245.713 59.9872C245.958 59.9872 246.145 60.0588 246.275 60.2021C246.409 60.3453 246.476 60.5209 246.476 60.7289C246.476 60.9276 246.409 61.0986 246.275 61.2418C246.145 61.3805 245.958 61.4498 245.713 61.4498C245.464 61.4498 245.274 61.3805 245.145 61.2418C245.02 61.0986 244.958 60.9276 244.958 60.7289ZM248.063 66.5517V66.3923C248.063 65.8516 248.142 65.3502 248.299 64.8881C248.456 64.4213 248.683 64.0169 248.978 63.675C249.274 63.3284 249.632 63.0603 250.053 62.8709C250.473 62.6768 250.945 62.5797 251.467 62.5797C251.994 62.5797 252.467 62.6768 252.888 62.8709C253.313 63.0603 253.674 63.3284 253.969 63.675C254.27 64.0169 254.498 64.4213 254.656 64.8881C254.813 65.3502 254.891 65.8516 254.891 66.3923V66.5517C254.891 67.0924 254.813 67.5938 254.656 68.056C254.498 68.5181 254.27 68.9225 253.969 69.2691C253.674 69.611 253.315 69.8791 252.895 70.0732C252.479 70.2627 252.008 70.3574 251.481 70.3574C250.954 70.3574 250.48 70.2627 250.06 70.0732C249.639 69.8791 249.279 69.611 248.978 69.2691C248.683 68.9225 248.456 68.5181 248.299 68.056C248.142 67.5938 248.063 67.0924 248.063 66.5517ZM249.346 66.3923V66.5517C249.346 66.9261 249.39 67.2796 249.477 67.6123C249.565 67.9404 249.697 68.2316 249.872 68.4858C250.053 68.7399 250.277 68.941 250.545 69.0888C250.813 69.2321 251.125 69.3037 251.481 69.3037C251.832 69.3037 252.139 69.2321 252.403 69.0888C252.671 68.941 252.893 68.7399 253.068 68.4858C253.244 68.2316 253.375 67.9404 253.463 67.6123C253.556 67.2796 253.602 66.9261 253.602 66.5517V66.3923C253.602 66.0226 253.556 65.6737 253.463 65.3456C253.375 65.0128 253.241 64.7194 253.061 64.4652C252.886 64.2064 252.664 64.0031 252.396 63.8552C252.132 63.7073 251.823 63.6334 251.467 63.6334C251.116 63.6334 250.806 63.7073 250.538 63.8552C250.275 64.0031 250.053 64.2064 249.872 64.4652C249.697 64.7194 249.565 65.0128 249.477 65.3456C249.39 65.6737 249.346 66.0226 249.346 66.3923ZM257.782 64.3196V70.2188H256.499V62.7184H257.713L257.782 64.3196ZM257.477 66.1843L256.943 66.1635C256.948 65.6506 257.024 65.1769 257.172 64.7425C257.32 64.3035 257.528 63.9222 257.796 63.5987C258.064 63.2752 258.383 63.0257 258.752 62.8501C259.127 62.6698 259.54 62.5797 259.993 62.5797C260.363 62.5797 260.696 62.6306 260.991 62.7322C261.287 62.8293 261.539 62.9864 261.747 63.2036C261.96 63.4208 262.121 63.7027 262.232 64.0493C262.343 64.3913 262.399 64.8095 262.399 65.304V70.2188H261.109V65.2901C261.109 64.8973 261.051 64.5831 260.936 64.3474C260.82 64.1071 260.652 63.9338 260.43 63.8275C260.208 63.7166 259.935 63.6611 259.612 63.6611C259.293 63.6611 259.002 63.7281 258.738 63.8621C258.48 63.9962 258.256 64.181 258.066 64.4167C257.881 64.6524 257.736 64.9227 257.629 65.2277C257.528 65.5281 257.477 65.847 257.477 66.1843Z" fill="#45A4EC"/>
<rect x="110.008" y="91.2188" width="72" height="25" rx="12.5" fill="#FEE9ED"/>
<path d="M119.065 108.219V99.4915H122.116C122.724 99.4915 123.225 99.5966 123.62 99.8068C124.015 100.014 124.309 100.294 124.502 100.646C124.695 100.996 124.792 101.384 124.792 101.81C124.792 102.185 124.725 102.494 124.592 102.739C124.461 102.983 124.288 103.176 124.072 103.318C123.859 103.46 123.627 103.565 123.377 103.634V103.719C123.644 103.736 123.913 103.83 124.183 104C124.452 104.17 124.678 104.415 124.86 104.733C125.042 105.051 125.133 105.44 125.133 105.901C125.133 106.338 125.033 106.732 124.835 107.081C124.636 107.43 124.322 107.707 123.893 107.912C123.464 108.116 122.906 108.219 122.218 108.219H119.065ZM120.121 107.281H122.218C122.908 107.281 123.398 107.148 123.688 106.881C123.981 106.611 124.127 106.284 124.127 105.901C124.127 105.605 124.052 105.332 123.901 105.082C123.751 104.83 123.536 104.628 123.258 104.477C122.979 104.324 122.65 104.247 122.269 104.247H120.121V107.281ZM120.121 103.327H122.082C122.4 103.327 122.687 103.264 122.942 103.139C123.201 103.014 123.406 102.838 123.556 102.611C123.71 102.384 123.786 102.116 123.786 101.81C123.786 101.426 123.653 101.101 123.386 100.834C123.119 100.564 122.695 100.429 122.116 100.429H120.121V103.327ZM128.659 108.372C128.244 108.372 127.868 108.294 127.53 108.138C127.192 107.979 126.923 107.75 126.724 107.452C126.526 107.151 126.426 106.787 126.426 106.361C126.426 105.986 126.5 105.682 126.648 105.449C126.795 105.213 126.993 105.028 127.24 104.895C127.487 104.761 127.76 104.662 128.058 104.597C128.359 104.528 128.662 104.474 128.966 104.435C129.364 104.384 129.686 104.345 129.933 104.32C130.183 104.291 130.365 104.244 130.479 104.179C130.595 104.114 130.653 104 130.653 103.838V103.804C130.653 103.384 130.538 103.057 130.308 102.824C130.081 102.591 129.736 102.474 129.273 102.474C128.793 102.474 128.416 102.58 128.143 102.79C127.871 103 127.679 103.224 127.568 103.463L126.614 103.122C126.784 102.724 127.011 102.415 127.295 102.193C127.582 101.969 127.895 101.812 128.233 101.724C128.574 101.634 128.909 101.588 129.239 101.588C129.449 101.588 129.69 101.614 129.963 101.665C130.239 101.713 130.504 101.814 130.76 101.967C131.018 102.121 131.233 102.352 131.403 102.662C131.574 102.972 131.659 103.386 131.659 103.906V108.219H130.653V107.332H130.602C130.534 107.474 130.42 107.626 130.261 107.788C130.102 107.95 129.891 108.088 129.626 108.202C129.362 108.315 129.04 108.372 128.659 108.372ZM128.812 107.469C129.21 107.469 129.545 107.391 129.818 107.234C130.094 107.078 130.301 106.876 130.44 106.629C130.582 106.382 130.653 106.122 130.653 105.849V104.929C130.611 104.98 130.517 105.027 130.372 105.07C130.23 105.109 130.065 105.145 129.878 105.176C129.693 105.205 129.513 105.23 129.337 105.253C129.163 105.273 129.023 105.29 128.915 105.304C128.653 105.338 128.409 105.393 128.182 105.47C127.957 105.544 127.776 105.656 127.636 105.807C127.5 105.955 127.432 106.156 127.432 106.412C127.432 106.761 127.561 107.026 127.82 107.205C128.081 107.381 128.412 107.469 128.812 107.469ZM136.154 108.355C135.54 108.355 135.012 108.21 134.569 107.92C134.125 107.631 133.784 107.232 133.546 106.723C133.307 106.214 133.188 105.634 133.188 104.98C133.188 104.315 133.31 103.729 133.554 103.22C133.801 102.709 134.145 102.31 134.586 102.023C135.029 101.733 135.546 101.588 136.137 101.588C136.597 101.588 137.012 101.673 137.381 101.844C137.75 102.014 138.053 102.253 138.289 102.56C138.525 102.866 138.671 103.224 138.728 103.634H137.722C137.645 103.335 137.475 103.071 137.211 102.841C136.949 102.608 136.597 102.491 136.154 102.491C135.762 102.491 135.418 102.594 135.123 102.798C134.83 103 134.601 103.286 134.436 103.655C134.275 104.021 134.194 104.452 134.194 104.946C134.194 105.452 134.273 105.892 134.432 106.267C134.594 106.642 134.821 106.933 135.114 107.141C135.409 107.348 135.756 107.452 136.154 107.452C136.415 107.452 136.652 107.406 136.865 107.315C137.078 107.224 137.259 107.094 137.407 106.923C137.554 106.753 137.659 106.548 137.722 106.31H138.728C138.671 106.696 138.53 107.044 138.306 107.354C138.084 107.661 137.79 107.905 137.424 108.087C137.06 108.266 136.637 108.355 136.154 108.355ZM141.135 105.832L141.118 104.588H141.323L144.186 101.673H145.431L142.38 104.759H142.294L141.135 105.832ZM140.198 108.219V99.4915H141.203V108.219H140.198ZM144.357 108.219L141.8 104.98L142.516 104.281L145.635 108.219H144.357ZM150.237 108.219V99.4915H153.185C153.87 99.4915 154.43 99.6151 154.864 99.8622C155.302 100.107 155.626 100.438 155.836 100.855C156.046 101.273 156.151 101.739 156.151 102.253C156.151 102.767 156.046 103.234 155.836 103.655C155.629 104.075 155.308 104.411 154.873 104.661C154.438 104.908 153.881 105.031 153.202 105.031H151.089V104.094H153.168C153.637 104.094 154.013 104.013 154.298 103.851C154.582 103.689 154.788 103.47 154.915 103.195C155.046 102.916 155.112 102.602 155.112 102.253C155.112 101.903 155.046 101.591 154.915 101.315C154.788 101.04 154.58 100.824 154.293 100.668C154.006 100.509 153.626 100.429 153.151 100.429H151.293V108.219H150.237ZM159.643 108.372C159.229 108.372 158.852 108.294 158.514 108.138C158.176 107.979 157.908 107.75 157.709 107.452C157.51 107.151 157.411 106.787 157.411 106.361C157.411 105.986 157.484 105.682 157.632 105.449C157.78 105.213 157.977 105.028 158.224 104.895C158.472 104.761 158.744 104.662 159.043 104.597C159.344 104.528 159.646 104.474 159.95 104.435C160.348 104.384 160.67 104.345 160.918 104.32C161.168 104.291 161.349 104.244 161.463 104.179C161.58 104.114 161.638 104 161.638 103.838V103.804C161.638 103.384 161.523 103.057 161.293 102.824C161.065 102.591 160.72 102.474 160.257 102.474C159.777 102.474 159.401 102.58 159.128 102.79C158.855 103 158.663 103.224 158.553 103.463L157.598 103.122C157.768 102.724 157.996 102.415 158.28 102.193C158.567 101.969 158.879 101.812 159.217 101.724C159.558 101.634 159.893 101.588 160.223 101.588C160.433 101.588 160.675 101.614 160.947 101.665C161.223 101.713 161.489 101.814 161.744 101.967C162.003 102.121 162.217 102.352 162.388 102.662C162.558 102.972 162.643 103.386 162.643 103.906V108.219H161.638V107.332H161.587C161.518 107.474 161.405 107.626 161.246 107.788C161.087 107.95 160.875 108.088 160.611 108.202C160.347 108.315 160.024 108.372 159.643 108.372ZM159.797 107.469C160.195 107.469 160.53 107.391 160.803 107.234C161.078 107.078 161.286 106.876 161.425 106.629C161.567 106.382 161.638 106.122 161.638 105.849V104.929C161.595 104.98 161.501 105.027 161.357 105.07C161.214 105.109 161.05 105.145 160.862 105.176C160.678 105.205 160.497 105.23 160.321 105.253C160.148 105.273 160.007 105.29 159.899 105.304C159.638 105.338 159.393 105.393 159.166 105.47C158.942 105.544 158.76 105.656 158.621 105.807C158.484 105.955 158.416 106.156 158.416 106.412C158.416 106.761 158.545 107.026 158.804 107.205C159.065 107.381 159.396 107.469 159.797 107.469ZM164.479 108.219V101.673H165.485V108.219H164.479ZM164.99 100.582C164.794 100.582 164.625 100.516 164.483 100.382C164.344 100.249 164.275 100.088 164.275 99.9006C164.275 99.7131 164.344 99.5526 164.483 99.419C164.625 99.2855 164.794 99.2188 164.99 99.2188C165.186 99.2188 165.354 99.2855 165.493 99.419C165.635 99.5526 165.706 99.7131 165.706 99.9006C165.706 100.088 165.635 100.249 165.493 100.382C165.354 100.516 165.186 100.582 164.99 100.582ZM168.332 104.281V108.219H167.327V101.673H168.298V102.696H168.384C168.537 102.364 168.77 102.097 169.082 101.895C169.395 101.69 169.798 101.588 170.293 101.588C170.736 101.588 171.124 101.679 171.456 101.861C171.788 102.04 172.047 102.312 172.232 102.679C172.416 103.043 172.509 103.503 172.509 104.06V108.219H171.503V104.128C171.503 103.614 171.369 103.213 171.102 102.926C170.835 102.636 170.469 102.491 170.003 102.491C169.682 102.491 169.395 102.561 169.142 102.7C168.892 102.839 168.695 103.043 168.55 103.31C168.405 103.577 168.332 103.901 168.332 104.281Z" fill="#DA3757"/>
</g>
<path d="M5.88153 183.992V194.141H4.59912V185.594L2.01349 186.536V185.379L5.6805 183.992H5.88153ZM16.2656 193.087V194.141H9.65946V193.219L12.966 189.538C13.3727 189.085 13.6869 188.701 13.9088 188.387C14.1352 188.068 14.2923 187.784 14.3801 187.534C14.4726 187.28 14.5188 187.021 14.5188 186.758C14.5188 186.425 14.4494 186.125 14.3108 185.857C14.1768 185.584 13.9781 185.367 13.7147 185.205C13.4512 185.044 13.1324 184.963 12.758 184.963C12.3098 184.963 11.9355 185.051 11.6351 185.226C11.3393 185.397 11.1175 185.637 10.9696 185.947C10.8217 186.257 10.7478 186.613 10.7478 187.015H9.46536C9.46536 186.446 9.59014 185.926 9.83969 185.455C10.0892 184.983 10.4589 184.609 10.9488 184.332C11.4387 184.05 12.0417 183.909 12.758 183.909C13.3958 183.909 13.9411 184.022 14.394 184.249C14.8469 184.471 15.1935 184.785 15.4338 185.191C15.6787 185.594 15.8012 186.065 15.8012 186.606C15.8012 186.901 15.7503 187.202 15.6487 187.507C15.5516 187.807 15.4153 188.107 15.2397 188.408C15.0687 188.708 14.8677 189.004 14.6366 189.295C14.4102 189.586 14.1675 189.873 13.9088 190.155L11.2053 193.087H16.2656ZM24.2235 194.141H22.1162L22.1301 193.052H24.2235C24.9445 193.052 25.5452 192.902 26.0258 192.602C26.5065 192.297 26.8669 191.872 27.1072 191.326C27.3522 190.776 27.4746 190.134 27.4746 189.399V188.782C27.4746 188.205 27.4053 187.692 27.2667 187.243C27.128 186.79 26.9247 186.409 26.6566 186.1C26.3886 185.785 26.0605 185.547 25.6723 185.386C25.2887 185.224 24.8474 185.143 24.3483 185.143H22.0746V184.048H24.3483C25.0092 184.048 25.6122 184.159 26.1575 184.38C26.7029 184.598 27.1719 184.914 27.5647 185.33C27.9622 185.741 28.2672 186.24 28.4798 186.827C28.6923 187.41 28.7986 188.066 28.7986 188.796V189.399C28.7986 190.129 28.6923 190.788 28.4798 191.375C28.2672 191.957 27.9599 192.454 27.5578 192.865C27.1604 193.276 26.6798 193.593 26.116 193.815C25.5568 194.032 24.926 194.141 24.2235 194.141ZM22.8302 184.048V194.141H21.4923V184.048H22.8302ZM33.7273 194.279C33.2051 194.279 32.7314 194.191 32.3062 194.016C31.8857 193.836 31.5229 193.584 31.2179 193.26C30.9175 192.937 30.6864 192.553 30.5247 192.11C30.3629 191.666 30.2821 191.181 30.2821 190.654V190.363C30.2821 189.753 30.3722 189.21 30.5524 188.734C30.7326 188.253 30.9776 187.846 31.2872 187.514C31.5968 187.181 31.9481 186.929 32.3409 186.758C32.7337 186.587 33.1404 186.502 33.5609 186.502C34.097 186.502 34.5591 186.594 34.9473 186.779C35.3401 186.964 35.6613 187.223 35.9108 187.555C36.1604 187.883 36.3452 188.272 36.4654 188.72C36.5855 189.163 36.6456 189.649 36.6456 190.176V190.751H31.0446V189.704H35.3632V189.607C35.3447 189.274 35.2754 188.951 35.1552 188.637C35.0397 188.322 34.8549 188.064 34.6007 187.86C34.3465 187.657 33.9999 187.555 33.5609 187.555C33.2697 187.555 33.0017 187.618 32.7568 187.742C32.5119 187.863 32.3016 188.043 32.126 188.283C31.9504 188.523 31.814 188.817 31.717 189.163C31.6199 189.51 31.5714 189.91 31.5714 190.363V190.654C31.5714 191.01 31.6199 191.345 31.717 191.659C31.8187 191.969 31.9642 192.241 32.1537 192.477C32.3478 192.713 32.5812 192.897 32.8538 193.032C33.1311 193.166 33.4454 193.233 33.7966 193.233C34.2495 193.233 34.633 193.14 34.9473 192.955C35.2615 192.77 35.5365 192.523 35.7722 192.214L36.5486 192.83C36.3868 193.075 36.1812 193.309 35.9316 193.531C35.6821 193.752 35.3748 193.933 35.0097 194.071C34.6492 194.21 34.2217 194.279 33.7273 194.279ZM41.1445 193.226C41.4495 193.226 41.7314 193.163 41.9902 193.038C42.249 192.914 42.4615 192.743 42.6279 192.525C42.7943 192.304 42.889 192.052 42.9121 191.77H44.1321C44.109 192.214 43.9588 192.627 43.6816 193.011C43.4089 193.39 43.0508 193.697 42.6071 193.933C42.1635 194.164 41.6759 194.279 41.1445 194.279C40.5807 194.279 40.0885 194.18 39.668 193.981C39.252 193.782 38.9054 193.51 38.6282 193.163C38.3555 192.817 38.1499 192.419 38.0112 191.971C37.8772 191.518 37.8102 191.04 37.8102 190.536V190.245C37.8102 189.741 37.8772 189.265 38.0112 188.817C38.1499 188.364 38.3555 187.964 38.6282 187.618C38.9054 187.271 39.252 186.998 39.668 186.8C40.0885 186.601 40.5807 186.502 41.1445 186.502C41.7314 186.502 42.2443 186.622 42.6834 186.862C43.1224 187.098 43.4667 187.421 43.7162 187.833C43.9704 188.239 44.109 188.701 44.1321 189.219H42.9121C42.889 188.909 42.8012 188.63 42.6487 188.38C42.5008 188.131 42.2975 187.932 42.0387 187.784C41.7845 187.632 41.4864 187.555 41.1445 187.555C40.7517 187.555 40.4212 187.634 40.1532 187.791C39.8898 187.943 39.6795 188.151 39.5224 188.415C39.3699 188.674 39.259 188.962 39.1897 189.281C39.125 189.596 39.0926 189.917 39.0926 190.245V190.536C39.0926 190.864 39.125 191.188 39.1897 191.506C39.2543 191.825 39.363 192.114 39.5155 192.373C39.6726 192.632 39.8828 192.84 40.1463 192.997C40.4143 193.149 40.747 193.226 41.1445 193.226ZM55.5699 193.087V194.141H48.9637V193.219L52.2703 189.538C52.677 189.085 52.9912 188.701 53.213 188.387C53.4395 188.068 53.5966 187.784 53.6844 187.534C53.7768 187.28 53.823 187.021 53.823 186.758C53.823 186.425 53.7537 186.125 53.6151 185.857C53.4811 185.584 53.2823 185.367 53.0189 185.205C52.7555 185.044 52.4366 184.963 52.0623 184.963C51.6141 184.963 51.2397 185.051 50.9393 185.226C50.6436 185.397 50.4218 185.637 50.2739 185.947C50.126 186.257 50.0521 186.613 50.0521 187.015H48.7696C48.7696 186.446 48.8944 185.926 49.144 185.455C49.3935 184.983 49.7632 184.609 50.2531 184.332C50.7429 184.05 51.346 183.909 52.0623 183.909C52.7001 183.909 53.2454 184.022 53.6983 184.249C54.1512 184.471 54.4978 184.785 54.7381 185.191C54.983 185.594 55.1055 186.065 55.1055 186.606C55.1055 186.901 55.0546 187.202 54.953 187.507C54.8559 187.807 54.7196 188.107 54.544 188.408C54.373 188.708 54.172 189.004 53.9409 189.295C53.7144 189.586 53.4718 189.873 53.213 190.155L50.5096 193.087H55.5699ZM63.2783 188.29V189.829C63.2783 190.656 63.2043 191.354 63.0564 191.922C62.9085 192.491 62.696 192.948 62.4187 193.295C62.1414 193.642 61.8064 193.893 61.4136 194.051C61.0254 194.203 60.5863 194.279 60.0965 194.279C59.7083 194.279 59.3501 194.231 59.022 194.134C58.6939 194.037 58.3981 193.882 58.1347 193.669C57.8759 193.452 57.6541 193.17 57.4693 192.824C57.2844 192.477 57.1435 192.056 57.0464 191.562C56.9494 191.067 56.9008 190.49 56.9008 189.829V188.29C56.9008 187.463 56.9748 186.77 57.1227 186.21C57.2752 185.651 57.4901 185.203 57.7673 184.866C58.0446 184.524 58.3773 184.279 58.7655 184.131C59.1583 183.983 59.5974 183.909 60.0826 183.909C60.4754 183.909 60.8359 183.958 61.164 184.055C61.4967 184.147 61.7925 184.297 62.0513 184.505C62.3101 184.709 62.5296 184.981 62.7098 185.323C62.8947 185.661 63.0356 186.074 63.1327 186.564C63.2297 187.054 63.2783 187.629 63.2783 188.29ZM61.9889 190.037V188.075C61.9889 187.622 61.9612 187.225 61.9057 186.883C61.8549 186.536 61.7786 186.24 61.677 185.996C61.5753 185.751 61.4459 185.552 61.2888 185.399C61.1363 185.247 60.9584 185.136 60.755 185.067C60.5563 184.993 60.3322 184.956 60.0826 184.956C59.7776 184.956 59.5073 185.014 59.2716 185.129C59.0359 185.24 58.8372 185.418 58.6754 185.663C58.5183 185.908 58.3981 186.229 58.315 186.626C58.2318 187.024 58.1902 187.507 58.1902 188.075V190.037C58.1902 190.49 58.2156 190.89 58.2664 191.236C58.3219 191.583 58.4028 191.883 58.5091 192.137C58.6153 192.387 58.7447 192.592 58.8972 192.754C59.0497 192.916 59.2254 193.036 59.4241 193.115C59.6274 193.189 59.8515 193.226 60.0965 193.226C60.4107 193.226 60.6857 193.166 60.9214 193.045C61.1571 192.925 61.3535 192.738 61.5106 192.484C61.6723 192.225 61.7925 191.895 61.8711 191.493C61.9496 191.086 61.9889 190.601 61.9889 190.037ZM71.5412 193.087V194.141H64.935V193.219L68.2415 189.538C68.6482 189.085 68.9625 188.701 69.1843 188.387C69.4107 188.068 69.5679 187.784 69.6557 187.534C69.7481 187.28 69.7943 187.021 69.7943 186.758C69.7943 186.425 69.725 186.125 69.5863 185.857C69.4523 185.584 69.2536 185.367 68.9902 185.205C68.7268 185.044 68.4079 184.963 68.0336 184.963C67.5853 184.963 67.211 185.051 66.9106 185.226C66.6148 185.397 66.393 185.637 66.2451 185.947C66.0973 186.257 66.0233 186.613 66.0233 187.015H64.7409C64.7409 186.446 64.8657 185.926 65.1152 185.455C65.3648 184.983 65.7345 184.609 66.2243 184.332C66.7142 184.05 67.3173 183.909 68.0336 183.909C68.6713 183.909 69.2166 184.022 69.6695 184.249C70.1224 184.471 70.469 184.785 70.7093 185.191C70.9543 185.594 71.0767 186.065 71.0767 186.606C71.0767 186.901 71.0259 187.202 70.9242 187.507C70.8272 187.807 70.6908 188.107 70.5152 188.408C70.3442 188.708 70.1432 189.004 69.9121 189.295C69.6857 189.586 69.4431 189.873 69.1843 190.155L66.4808 193.087H71.5412ZM74.7853 188.463H75.7003C76.1486 188.463 76.5183 188.389 76.8095 188.242C77.1052 188.089 77.3247 187.883 77.468 187.625C77.6159 187.361 77.6898 187.065 77.6898 186.737C77.6898 186.349 77.6251 186.023 77.4957 185.76C77.3663 185.496 77.1722 185.298 76.9134 185.164C76.6546 185.03 76.3265 184.963 75.9291 184.963C75.5686 184.963 75.2498 185.034 74.9725 185.178C74.6998 185.316 74.4849 185.515 74.3278 185.774C74.1753 186.033 74.0991 186.338 74.0991 186.689H72.8166C72.8166 186.176 72.946 185.709 73.2048 185.288C73.4636 184.868 73.8264 184.533 74.2932 184.283C74.7645 184.034 75.3098 183.909 75.9291 183.909C76.5391 183.909 77.0729 184.018 77.5304 184.235C77.9879 184.447 78.3437 184.766 78.5979 185.191C78.8521 185.612 78.9792 186.137 78.9792 186.765C78.9792 187.019 78.9191 187.292 78.7989 187.583C78.6834 187.87 78.5009 188.138 78.2513 188.387C78.0064 188.637 77.6875 188.842 77.2947 189.004C76.9019 189.161 76.4305 189.24 75.8806 189.24H74.7853V188.463ZM74.7853 189.517V188.748H75.8806C76.5229 188.748 77.0544 188.824 77.4749 188.976C77.8955 189.129 78.2259 189.332 78.4662 189.586C78.7111 189.84 78.8821 190.12 78.9792 190.425C79.0808 190.725 79.1317 191.026 79.1317 191.326C79.1317 191.798 79.0508 192.216 78.889 192.581C78.7319 192.946 78.5078 193.256 78.2166 193.51C77.9301 193.764 77.5928 193.956 77.2046 194.085C76.8164 194.215 76.3935 194.279 75.936 194.279C75.497 194.279 75.0834 194.217 74.6952 194.092C74.3116 193.967 73.972 193.787 73.6762 193.551C73.3804 193.311 73.1494 193.018 72.983 192.671C72.8166 192.32 72.7335 191.92 72.7335 191.472H74.0159C74.0159 191.823 74.0921 192.13 74.2446 192.394C74.4018 192.657 74.6236 192.863 74.9101 193.011C75.2012 193.154 75.5432 193.226 75.936 193.226C76.3288 193.226 76.6662 193.159 76.9481 193.025C77.2346 192.886 77.4541 192.678 77.6066 192.401C77.7638 192.123 77.8423 191.775 77.8423 191.354C77.8423 190.933 77.7545 190.589 77.5789 190.321C77.4033 190.048 77.1537 189.847 76.8303 189.718C76.5114 189.584 76.1347 189.517 75.7003 189.517H74.7853Z" fill="#8B909C"/>
<path d="M5.88153 228.875V239.023H4.59912V230.476L2.01349 231.419V230.261L5.6805 228.875H5.88153ZM13.8672 228.875V239.023H12.5847V230.476L9.99912 231.419V230.261L13.6661 228.875H13.8672ZM17.7213 238.344C17.7213 238.127 17.7883 237.944 17.9224 237.796C18.061 237.644 18.2597 237.568 18.5185 237.568C18.7773 237.568 18.9737 237.644 19.1077 237.796C19.2464 237.944 19.3157 238.127 19.3157 238.344C19.3157 238.557 19.2464 238.737 19.1077 238.885C18.9737 239.033 18.7773 239.107 18.5185 239.107C18.2597 239.107 18.061 239.033 17.9224 238.885C17.7883 238.737 17.7213 238.557 17.7213 238.344ZM17.7283 232.223C17.7283 232.006 17.7953 231.823 17.9293 231.676C18.0679 231.523 18.2667 231.447 18.5254 231.447C18.7842 231.447 18.9806 231.523 19.1147 231.676C19.2533 231.823 19.3226 232.006 19.3226 232.223C19.3226 232.436 19.2533 232.616 19.1147 232.764C18.9806 232.912 18.7842 232.986 18.5254 232.986C18.2667 232.986 18.0679 232.912 17.9293 232.764C17.7953 232.616 17.7283 232.436 17.7283 232.223ZM27.8975 235.627V236.68H20.605V235.925L25.1247 228.93H26.1714L25.0484 230.955L22.0608 235.627H27.8975ZM26.4903 228.93V239.023H25.2079V228.93H26.4903ZM35.3979 233.173V234.712C35.3979 235.539 35.3239 236.237 35.176 236.805C35.0282 237.374 34.8156 237.831 34.5383 238.178C34.261 238.524 33.926 238.776 33.5332 238.933C33.145 239.086 32.7059 239.162 32.2161 239.162C31.8279 239.162 31.4697 239.114 31.1416 239.017C30.8135 238.919 30.5178 238.765 30.2543 238.552C29.9955 238.335 29.7737 238.053 29.5889 237.706C29.404 237.36 29.2631 236.939 29.166 236.445C29.069 235.95 29.0205 235.373 29.0205 234.712V233.173C29.0205 232.346 29.0944 231.652 29.2423 231.093C29.3948 230.534 29.6097 230.086 29.8869 229.748C30.1642 229.406 30.497 229.162 30.8852 229.014C31.278 228.866 31.717 228.792 32.2022 228.792C32.595 228.792 32.9555 228.84 33.2836 228.937C33.6163 229.03 33.9121 229.18 34.1709 229.388C34.4297 229.591 34.6492 229.864 34.8294 230.206C35.0143 230.543 35.1552 230.957 35.2523 231.447C35.3493 231.937 35.3979 232.512 35.3979 233.173ZM34.1085 234.92V232.958C34.1085 232.505 34.0808 232.108 34.0253 231.766C33.9745 231.419 33.8982 231.123 33.7966 230.878C33.6949 230.633 33.5655 230.435 33.4084 230.282C33.2559 230.13 33.078 230.019 32.8746 229.949C32.6759 229.876 32.4518 229.839 32.2022 229.839C31.8972 229.839 31.6269 229.896 31.3912 230.012C31.1555 230.123 30.9568 230.301 30.795 230.546C30.6379 230.791 30.5178 231.112 30.4346 231.509C30.3514 231.907 30.3098 232.39 30.3098 232.958V234.92C30.3098 235.373 30.3352 235.772 30.386 236.119C30.4415 236.466 30.5224 236.766 30.6287 237.02C30.735 237.27 30.8644 237.475 31.0169 237.637C31.1694 237.799 31.345 237.919 31.5437 237.998C31.747 238.071 31.9712 238.108 32.2161 238.108C32.5303 238.108 32.8053 238.048 33.041 237.928C33.2767 237.808 33.4731 237.621 33.6302 237.367C33.792 237.108 33.9121 236.777 33.9907 236.375C34.0692 235.969 34.1085 235.484 34.1085 234.92ZM44.6243 235.065H41.9278V233.977H44.6243C45.1465 233.977 45.5694 233.894 45.8929 233.727C46.2164 233.561 46.452 233.33 46.5999 233.034C46.7524 232.738 46.8287 232.401 46.8287 232.022C46.8287 231.676 46.7524 231.35 46.5999 231.045C46.452 230.74 46.2164 230.495 45.8929 230.31C45.5694 230.12 45.1465 230.026 44.6243 230.026H42.2397V239.023H40.9018V228.93H44.6243C45.3868 228.93 46.0315 229.062 46.5583 229.326C47.0852 229.589 47.4849 229.954 47.7576 230.421C48.0302 230.883 48.1666 231.412 48.1666 232.008C48.1666 232.655 48.0302 233.208 47.7576 233.665C47.4849 234.123 47.0852 234.471 46.5583 234.712C46.0315 234.947 45.3868 235.065 44.6243 235.065ZM50.2808 228.93H51.5771L54.8836 237.159L58.1833 228.93H59.4865L55.3827 239.023H54.3707L50.2808 228.93ZM49.858 228.93H51.0017L51.1889 235.086V239.023H49.858V228.93ZM58.7586 228.93H59.9024V239.023H58.5714V235.086L58.7586 228.93Z" fill="#8B909C"/>
<g filter="url(#filter1_dd_476_313)">
<rect x="98.1797" y="148.055" width="313" height="128.054" rx="8" fill="white" shape-rendering="crispEdges"/>
<circle cx="124.204" cy="174.079" r="14.1967" fill="#D9D9D9"/>
<rect x="146.68" y="169.344" width="184.557" height="9.46445" rx="2.36611" fill="#D9D9D9"/>
<g clip-path="url(#clip1_476_313)">
<path d="M111.91 209.762C111.91 208.782 112.704 207.988 113.684 207.988H120.783C121.763 207.988 122.557 208.782 122.557 209.762V216.861C122.557 217.841 121.763 218.635 120.783 218.635H113.684C112.704 218.635 111.91 217.841 111.91 216.861V209.762ZM113.684 206.805C112.051 206.805 110.727 208.129 110.727 209.762V216.861C110.727 218.494 112.051 219.818 113.684 219.818H120.783C122.416 219.818 123.74 218.494 123.74 216.861V216.268L125.87 217.866C126.454 218.305 127.289 217.888 127.289 217.157V209.472C127.289 208.742 126.456 208.324 125.871 208.762L123.74 210.355V209.762C123.74 208.129 122.416 206.805 120.783 206.805H113.684ZM123.74 211.832L126.106 210.063V216.565L123.74 214.789V211.832Z" fill="#19BB7D"/>
</g>
<path d="M142.614 212.908V213.546C142.614 214.304 142.519 214.983 142.33 215.584C142.14 216.185 141.868 216.695 141.512 217.116C141.156 217.536 140.729 217.858 140.23 218.079C139.735 218.301 139.18 218.412 138.566 218.412C137.97 218.412 137.422 218.301 136.923 218.079C136.428 217.858 135.999 217.536 135.634 217.116C135.273 216.695 134.994 216.185 134.795 215.584C134.596 214.983 134.497 214.304 134.497 213.546V212.908C134.497 212.15 134.594 211.473 134.788 210.877C134.987 210.276 135.266 209.766 135.627 209.345C135.987 208.92 136.415 208.596 136.909 208.375C137.408 208.153 137.956 208.042 138.552 208.042C139.167 208.042 139.721 208.153 140.216 208.375C140.715 208.596 141.142 208.92 141.498 209.345C141.859 209.766 142.134 210.276 142.323 210.877C142.517 211.473 142.614 212.15 142.614 212.908ZM141.29 213.546V212.894C141.29 212.293 141.228 211.762 141.103 211.3C140.983 210.838 140.805 210.45 140.569 210.135C140.333 209.821 140.045 209.583 139.703 209.421C139.365 209.26 138.982 209.179 138.552 209.179C138.136 209.179 137.759 209.26 137.422 209.421C137.089 209.583 136.803 209.821 136.563 210.135C136.327 210.45 136.144 210.838 136.015 211.3C135.885 211.762 135.821 212.293 135.821 212.894V213.546C135.821 214.151 135.885 214.687 136.015 215.154C136.144 215.616 136.329 216.007 136.569 216.326C136.814 216.64 137.103 216.878 137.436 217.04C137.773 217.201 138.15 217.282 138.566 217.282C139 217.282 139.386 217.201 139.723 217.04C140.061 216.878 140.345 216.64 140.576 216.326C140.812 216.007 140.99 215.616 141.11 215.154C141.23 214.687 141.29 214.151 141.29 213.546ZM145.706 212.374V218.273H144.423V210.773H145.636L145.706 212.374ZM145.401 214.239L144.867 214.218C144.872 213.705 144.948 213.232 145.096 212.797C145.244 212.358 145.452 211.977 145.72 211.653C145.988 211.33 146.307 211.08 146.676 210.905C147.051 210.725 147.464 210.634 147.917 210.634C148.287 210.634 148.62 210.685 148.915 210.787C149.211 210.884 149.463 211.041 149.671 211.258C149.883 211.475 150.045 211.757 150.156 212.104C150.267 212.446 150.322 212.864 150.322 213.359V218.273H149.033V213.345C149.033 212.952 148.975 212.638 148.86 212.402C148.744 212.162 148.576 211.988 148.354 211.882C148.132 211.771 147.859 211.716 147.536 211.716C147.217 211.716 146.926 211.783 146.662 211.917C146.404 212.051 146.179 212.236 145.99 212.471C145.805 212.707 145.66 212.977 145.553 213.282C145.452 213.583 145.401 213.902 145.401 214.239ZM153.664 207.626V218.273H152.374V207.626H153.664ZM157.116 210.773V218.273H155.826V210.773H157.116ZM155.729 208.784C155.729 208.576 155.792 208.4 155.917 208.257C156.046 208.113 156.235 208.042 156.485 208.042C156.73 208.042 156.917 208.113 157.046 208.257C157.181 208.4 157.248 208.576 157.248 208.784C157.248 208.982 157.181 209.153 157.046 209.297C156.917 209.435 156.73 209.504 156.485 209.504C156.235 209.504 156.046 209.435 155.917 209.297C155.792 209.153 155.729 208.982 155.729 208.784ZM160.457 212.374V218.273H159.175V210.773H160.388L160.457 212.374ZM160.152 214.239L159.618 214.218C159.623 213.705 159.699 213.232 159.847 212.797C159.995 212.358 160.203 211.977 160.471 211.653C160.739 211.33 161.058 211.08 161.427 210.905C161.802 210.725 162.215 210.634 162.668 210.634C163.038 210.634 163.371 210.685 163.667 210.787C163.962 210.884 164.214 211.041 164.422 211.258C164.635 211.475 164.796 211.757 164.907 212.104C165.018 212.446 165.074 212.864 165.074 213.359V218.273H163.784V213.345C163.784 212.952 163.727 212.638 163.611 212.402C163.496 212.162 163.327 211.988 163.105 211.882C162.883 211.771 162.611 211.716 162.287 211.716C161.968 211.716 161.677 211.783 161.414 211.917C161.155 212.051 160.931 212.236 160.741 212.471C160.556 212.707 160.411 212.977 160.305 213.282C160.203 213.583 160.152 213.902 160.152 214.239ZM170.134 218.412C169.612 218.412 169.138 218.324 168.713 218.149C168.292 217.968 167.93 217.717 167.625 217.393C167.324 217.07 167.093 216.686 166.931 216.242C166.77 215.799 166.689 215.313 166.689 214.787V214.496C166.689 213.885 166.779 213.342 166.959 212.867C167.139 212.386 167.384 211.979 167.694 211.646C168.004 211.314 168.355 211.062 168.748 210.891C169.14 210.72 169.547 210.634 169.968 210.634C170.504 210.634 170.966 210.727 171.354 210.912C171.747 211.097 172.068 211.355 172.318 211.688C172.567 212.016 172.752 212.404 172.872 212.853C172.992 213.296 173.052 213.782 173.052 214.308V214.884H167.451V213.837H171.77V213.74C171.752 213.407 171.682 213.084 171.562 212.769C171.446 212.455 171.262 212.196 171.007 211.993C170.753 211.79 170.407 211.688 169.968 211.688C169.677 211.688 169.408 211.75 169.164 211.875C168.919 211.995 168.708 212.176 168.533 212.416C168.357 212.656 168.221 212.95 168.124 213.296C168.027 213.643 167.978 214.043 167.978 214.496V214.787C167.978 215.142 168.027 215.478 168.124 215.792C168.225 216.101 168.371 216.374 168.56 216.61C168.755 216.845 168.988 217.03 169.261 217.164C169.538 217.298 169.852 217.365 170.203 217.365C170.656 217.365 171.04 217.273 171.354 217.088C171.668 216.903 171.943 216.656 172.179 216.346L172.955 216.963C172.794 217.208 172.588 217.442 172.338 217.663C172.089 217.885 171.782 218.065 171.416 218.204C171.056 218.343 170.629 218.412 170.134 218.412ZM181.073 217.358C181.378 217.358 181.66 217.296 181.918 217.171C182.177 217.046 182.39 216.875 182.556 216.658C182.723 216.436 182.817 216.185 182.84 215.903H184.06C184.037 216.346 183.887 216.76 183.61 217.144C183.337 217.522 182.979 217.83 182.535 218.065C182.092 218.297 181.604 218.412 181.073 218.412C180.509 218.412 180.017 218.313 179.596 218.114C179.18 217.915 178.834 217.643 178.556 217.296C178.284 216.949 178.078 216.552 177.939 216.104C177.805 215.651 177.738 215.173 177.738 214.669V214.378C177.738 213.874 177.805 213.398 177.939 212.95C178.078 212.497 178.284 212.097 178.556 211.75C178.834 211.404 179.18 211.131 179.596 210.932C180.017 210.734 180.509 210.634 181.073 210.634C181.66 210.634 182.173 210.755 182.612 210.995C183.051 211.231 183.395 211.554 183.644 211.965C183.899 212.372 184.037 212.834 184.06 213.352H182.84C182.817 213.042 182.729 212.763 182.577 212.513C182.429 212.263 182.226 212.065 181.967 211.917C181.713 211.764 181.415 211.688 181.073 211.688C180.68 211.688 180.349 211.767 180.081 211.924C179.818 212.076 179.608 212.284 179.451 212.548C179.298 212.806 179.187 213.095 179.118 213.414C179.053 213.728 179.021 214.05 179.021 214.378V214.669C179.021 214.997 179.053 215.32 179.118 215.639C179.183 215.958 179.291 216.247 179.444 216.506C179.601 216.765 179.811 216.973 180.074 217.13C180.343 217.282 180.675 217.358 181.073 217.358ZM185.163 214.606V214.447C185.163 213.906 185.241 213.405 185.398 212.943C185.555 212.476 185.782 212.072 186.078 211.73C186.373 211.383 186.731 211.115 187.152 210.926C187.573 210.731 188.044 210.634 188.566 210.634C189.093 210.634 189.567 210.731 189.987 210.926C190.412 211.115 190.773 211.383 191.069 211.73C191.369 212.072 191.598 212.476 191.755 212.943C191.912 213.405 191.991 213.906 191.991 214.447V214.606C191.991 215.147 191.912 215.649 191.755 216.111C191.598 216.573 191.369 216.977 191.069 217.324C190.773 217.666 190.415 217.934 189.994 218.128C189.578 218.317 189.107 218.412 188.58 218.412C188.053 218.412 187.58 218.317 187.159 218.128C186.738 217.934 186.378 217.666 186.078 217.324C185.782 216.977 185.555 216.573 185.398 216.111C185.241 215.649 185.163 215.147 185.163 214.606ZM186.445 214.447V214.606C186.445 214.981 186.489 215.334 186.577 215.667C186.664 215.995 186.796 216.286 186.972 216.54C187.152 216.795 187.376 216.996 187.644 217.144C187.912 217.287 188.224 217.358 188.58 217.358C188.931 217.358 189.239 217.287 189.502 217.144C189.77 216.996 189.992 216.795 190.167 216.54C190.343 216.286 190.475 215.995 190.563 215.667C190.655 215.334 190.701 214.981 190.701 214.606V214.447C190.701 214.077 190.655 213.728 190.563 213.4C190.475 213.068 190.341 212.774 190.161 212.52C189.985 212.261 189.763 212.058 189.495 211.91C189.232 211.762 188.922 211.688 188.566 211.688C188.215 211.688 187.905 211.762 187.637 211.91C187.374 212.058 187.152 212.261 186.972 212.52C186.796 212.774 186.664 213.068 186.577 213.4C186.489 213.728 186.445 214.077 186.445 214.447ZM194.881 212.374V218.273H193.599V210.773H194.812L194.881 212.374ZM194.576 214.239L194.042 214.218C194.047 213.705 194.123 213.232 194.271 212.797C194.419 212.358 194.627 211.977 194.895 211.653C195.163 211.33 195.482 211.08 195.852 210.905C196.226 210.725 196.64 210.634 197.092 210.634C197.462 210.634 197.795 210.685 198.091 210.787C198.386 210.884 198.638 211.041 198.846 211.258C199.059 211.475 199.221 211.757 199.332 212.104C199.442 212.446 199.498 212.864 199.498 213.359V218.273H198.209V213.345C198.209 212.952 198.151 212.638 198.035 212.402C197.92 212.162 197.751 211.988 197.529 211.882C197.307 211.771 197.035 211.716 196.711 211.716C196.392 211.716 196.101 211.783 195.838 211.917C195.579 212.051 195.355 212.236 195.165 212.471C194.981 212.707 194.835 212.977 194.729 213.282C194.627 213.583 194.576 213.902 194.576 214.239ZM205.813 216.284C205.813 216.099 205.771 215.928 205.688 215.771C205.61 215.609 205.446 215.464 205.196 215.334C204.951 215.2 204.581 215.085 204.087 214.988C203.671 214.9 203.294 214.796 202.957 214.676C202.624 214.556 202.34 214.41 202.104 214.239C201.873 214.068 201.695 213.867 201.571 213.636C201.446 213.405 201.383 213.135 201.383 212.825C201.383 212.529 201.448 212.25 201.577 211.986C201.711 211.723 201.899 211.489 202.139 211.286C202.384 211.083 202.677 210.923 203.019 210.808C203.361 210.692 203.743 210.634 204.163 210.634C204.764 210.634 205.277 210.741 205.702 210.953C206.127 211.166 206.453 211.45 206.679 211.806C206.906 212.157 207.019 212.548 207.019 212.977H205.737C205.737 212.769 205.674 212.568 205.549 212.374C205.429 212.176 205.251 212.012 205.016 211.882C204.785 211.753 204.5 211.688 204.163 211.688C203.807 211.688 203.518 211.744 203.297 211.854C203.079 211.961 202.92 212.097 202.818 212.263C202.721 212.43 202.673 212.605 202.673 212.79C202.673 212.929 202.696 213.054 202.742 213.165C202.793 213.271 202.881 213.37 203.005 213.463C203.13 213.55 203.306 213.634 203.532 213.712C203.759 213.791 204.048 213.869 204.399 213.948C205.013 214.087 205.519 214.253 205.917 214.447C206.314 214.641 206.61 214.879 206.804 215.161C206.998 215.443 207.095 215.785 207.095 216.187C207.095 216.515 207.026 216.815 206.887 217.088C206.753 217.361 206.557 217.596 206.298 217.795C206.044 217.989 205.739 218.142 205.383 218.253C205.032 218.359 204.637 218.412 204.198 218.412C203.537 218.412 202.978 218.294 202.52 218.059C202.063 217.823 201.716 217.518 201.48 217.144C201.245 216.769 201.127 216.374 201.127 215.958H202.416C202.435 216.309 202.536 216.589 202.721 216.797C202.906 217 203.133 217.146 203.401 217.234C203.669 217.317 203.934 217.358 204.198 217.358C204.549 217.358 204.842 217.312 205.078 217.22C205.318 217.127 205.501 217 205.626 216.839C205.751 216.677 205.813 216.492 205.813 216.284ZM213.369 216.54V210.773H214.658V218.273H213.431L213.369 216.54ZM213.611 214.96L214.145 214.946C214.145 215.445 214.092 215.907 213.986 216.332C213.884 216.753 213.718 217.118 213.487 217.428C213.256 217.737 212.953 217.98 212.579 218.156C212.204 218.327 211.749 218.412 211.213 218.412C210.848 218.412 210.513 218.359 210.208 218.253C209.907 218.146 209.649 217.982 209.431 217.76C209.214 217.539 209.046 217.25 208.925 216.894C208.81 216.538 208.752 216.111 208.752 215.612V210.773H210.034V215.625C210.034 215.963 210.071 216.242 210.145 216.464C210.224 216.681 210.328 216.855 210.457 216.984C210.591 217.109 210.739 217.197 210.901 217.248C211.067 217.298 211.238 217.324 211.414 217.324C211.959 217.324 212.391 217.22 212.71 217.012C213.029 216.799 213.258 216.515 213.396 216.159C213.54 215.799 213.611 215.399 213.611 214.96ZM218.006 207.626V218.273H216.717V207.626H218.006ZM223.205 210.773V211.757H219.15V210.773H223.205ZM220.523 208.95H221.805V216.416C221.805 216.67 221.844 216.862 221.923 216.991C222.001 217.12 222.103 217.206 222.228 217.248C222.353 217.289 222.487 217.31 222.63 217.31C222.736 217.31 222.847 217.301 222.963 217.282C223.083 217.259 223.173 217.241 223.233 217.227L223.24 218.273C223.138 218.306 223.004 218.336 222.838 218.364C222.676 218.396 222.48 218.412 222.249 218.412C221.934 218.412 221.646 218.35 221.382 218.225C221.119 218.1 220.908 217.892 220.751 217.601C220.599 217.305 220.523 216.908 220.523 216.409V208.95ZM229.132 216.991V213.13C229.132 212.834 229.072 212.578 228.952 212.36C228.836 212.139 228.661 211.968 228.425 211.848C228.189 211.727 227.898 211.667 227.552 211.667C227.228 211.667 226.944 211.723 226.699 211.834C226.459 211.945 226.269 212.09 226.131 212.27C225.996 212.451 225.929 212.645 225.929 212.853H224.647C224.647 212.585 224.716 212.319 224.855 212.055C224.994 211.792 225.192 211.554 225.451 211.341C225.715 211.124 226.029 210.953 226.394 210.829C226.764 210.699 227.175 210.634 227.628 210.634C228.173 210.634 228.654 210.727 229.07 210.912C229.49 211.097 229.818 211.376 230.054 211.75C230.294 212.12 230.414 212.585 230.414 213.144V216.637C230.414 216.887 230.435 217.153 230.477 217.435C230.523 217.717 230.59 217.959 230.678 218.163V218.273H229.34C229.275 218.126 229.224 217.929 229.188 217.684C229.151 217.435 229.132 217.204 229.132 216.991ZM229.354 213.726L229.368 214.627H228.071C227.706 214.627 227.381 214.657 227.094 214.717C226.808 214.773 226.567 214.858 226.373 214.974C226.179 215.089 226.031 215.235 225.929 215.411C225.828 215.582 225.777 215.783 225.777 216.014C225.777 216.249 225.83 216.464 225.936 216.658C226.043 216.852 226.202 217.007 226.415 217.123C226.632 217.234 226.898 217.289 227.212 217.289C227.605 217.289 227.951 217.206 228.252 217.04C228.552 216.873 228.79 216.67 228.966 216.43C229.146 216.189 229.243 215.956 229.257 215.729L229.804 216.346C229.772 216.54 229.684 216.755 229.541 216.991C229.398 217.227 229.206 217.453 228.966 217.67C228.73 217.883 228.448 218.061 228.12 218.204C227.796 218.343 227.431 218.412 227.025 218.412C226.516 218.412 226.07 218.313 225.687 218.114C225.308 217.915 225.012 217.65 224.8 217.317C224.592 216.979 224.488 216.603 224.488 216.187C224.488 215.785 224.566 215.431 224.723 215.126C224.88 214.817 225.107 214.56 225.403 214.357C225.698 214.149 226.054 213.992 226.47 213.885C226.886 213.779 227.351 213.726 227.863 213.726H229.354ZM235.572 210.773V211.757H231.517V210.773H235.572ZM232.889 208.95H234.172V216.416C234.172 216.67 234.211 216.862 234.289 216.991C234.368 217.12 234.47 217.206 234.594 217.248C234.719 217.289 234.853 217.31 234.996 217.31C235.103 217.31 235.214 217.301 235.329 217.282C235.449 217.259 235.539 217.241 235.6 217.227L235.607 218.273C235.505 218.306 235.371 218.336 235.204 218.364C235.043 218.396 234.846 218.412 234.615 218.412C234.301 218.412 234.012 218.35 233.749 218.225C233.485 218.1 233.275 217.892 233.118 217.601C232.965 217.305 232.889 216.908 232.889 216.409V208.95ZM238.469 210.773V218.273H237.18V210.773H238.469ZM237.083 208.784C237.083 208.576 237.145 208.4 237.27 208.257C237.4 208.113 237.589 208.042 237.839 208.042C238.084 208.042 238.271 208.113 238.4 208.257C238.534 208.4 238.601 208.576 238.601 208.784C238.601 208.982 238.534 209.153 238.4 209.297C238.271 209.435 238.084 209.504 237.839 209.504C237.589 209.504 237.4 209.435 237.27 209.297C237.145 209.153 237.083 208.982 237.083 208.784ZM240.189 214.606V214.447C240.189 213.906 240.267 213.405 240.424 212.943C240.581 212.476 240.808 212.072 241.104 211.73C241.399 211.383 241.757 211.115 242.178 210.926C242.599 210.731 243.07 210.634 243.592 210.634C244.119 210.634 244.593 210.731 245.013 210.926C245.438 211.115 245.799 211.383 246.095 211.73C246.395 212.072 246.624 212.476 246.781 212.943C246.938 213.405 247.017 213.906 247.017 214.447V214.606C247.017 215.147 246.938 215.649 246.781 216.111C246.624 216.573 246.395 216.977 246.095 217.324C245.799 217.666 245.441 217.934 245.02 218.128C244.604 218.317 244.133 218.412 243.606 218.412C243.079 218.412 242.605 218.317 242.185 218.128C241.764 217.934 241.404 217.666 241.104 217.324C240.808 216.977 240.581 216.573 240.424 216.111C240.267 215.649 240.189 215.147 240.189 214.606ZM241.471 214.447V214.606C241.471 214.981 241.515 215.334 241.603 215.667C241.69 215.995 241.822 216.286 241.998 216.54C242.178 216.795 242.402 216.996 242.67 217.144C242.938 217.287 243.25 217.358 243.606 217.358C243.957 217.358 244.265 217.287 244.528 217.144C244.796 216.996 245.018 216.795 245.193 216.54C245.369 216.286 245.501 215.995 245.589 215.667C245.681 215.334 245.727 214.981 245.727 214.606V214.447C245.727 214.077 245.681 213.728 245.589 213.4C245.501 213.068 245.367 212.774 245.186 212.52C245.011 212.261 244.789 212.058 244.521 211.91C244.258 211.762 243.948 211.688 243.592 211.688C243.241 211.688 242.931 211.762 242.663 211.91C242.4 212.058 242.178 212.261 241.998 212.52C241.822 212.774 241.69 213.068 241.603 213.4C241.515 213.728 241.471 214.077 241.471 214.447ZM249.907 212.374V218.273H248.625V210.773H249.838L249.907 212.374ZM249.602 214.239L249.068 214.218C249.073 213.705 249.149 213.232 249.297 212.797C249.445 212.358 249.653 211.977 249.921 211.653C250.189 211.33 250.508 211.08 250.878 210.905C251.252 210.725 251.666 210.634 252.118 210.634C252.488 210.634 252.821 210.685 253.117 210.787C253.412 210.884 253.664 211.041 253.872 211.258C254.085 211.475 254.247 211.757 254.357 212.104C254.468 212.446 254.524 212.864 254.524 213.359V218.273H253.235V213.345C253.235 212.952 253.177 212.638 253.061 212.402C252.946 212.162 252.777 211.988 252.555 211.882C252.333 211.771 252.061 211.716 251.737 211.716C251.418 211.716 251.127 211.783 250.864 211.917C250.605 212.051 250.381 212.236 250.191 212.471C250.007 212.707 249.861 212.977 249.755 213.282C249.653 213.583 249.602 213.902 249.602 214.239Z" fill="#19BB7D"/>
<rect x="110.008" y="239.273" width="73" height="25" rx="12.5" fill="#DCF3FA"/>
<path d="M123.837 249.728C123.786 249.296 123.579 248.961 123.215 248.722C122.852 248.484 122.406 248.364 121.877 248.364C121.491 248.364 121.153 248.427 120.863 248.552C120.576 248.677 120.352 248.849 120.19 249.067C120.031 249.286 119.951 249.535 119.951 249.813C119.951 250.046 120.006 250.246 120.117 250.414C120.231 250.579 120.376 250.717 120.552 250.827C120.728 250.935 120.913 251.025 121.106 251.096C121.299 251.164 121.477 251.219 121.638 251.262L122.525 251.501C122.752 251.56 123.005 251.643 123.283 251.748C123.565 251.853 123.833 251.996 124.089 252.178C124.347 252.357 124.56 252.587 124.728 252.869C124.896 253.15 124.979 253.495 124.979 253.904C124.979 254.376 124.856 254.802 124.609 255.183C124.364 255.563 124.006 255.866 123.535 256.09C123.066 256.315 122.496 256.427 121.826 256.427C121.201 256.427 120.66 256.326 120.202 256.124C119.748 255.923 119.39 255.641 119.129 255.281C118.87 254.92 118.724 254.501 118.69 254.023H119.781C119.809 254.353 119.92 254.626 120.113 254.842C120.309 255.055 120.556 255.214 120.854 255.319C121.156 255.421 121.479 255.472 121.826 255.472C122.229 255.472 122.592 255.407 122.913 255.276C123.234 255.143 123.488 254.958 123.675 254.722C123.863 254.484 123.957 254.205 123.957 253.887C123.957 253.597 123.876 253.362 123.714 253.18C123.552 252.998 123.339 252.85 123.075 252.737C122.81 252.623 122.525 252.523 122.218 252.438L121.144 252.131C120.462 251.935 119.923 251.656 119.525 251.292C119.127 250.928 118.928 250.452 118.928 249.864C118.928 249.376 119.06 248.95 119.325 248.586C119.592 248.219 119.95 247.935 120.398 247.734C120.85 247.529 121.354 247.427 121.911 247.427C122.474 247.427 122.974 247.528 123.411 247.729C123.849 247.928 124.195 248.201 124.451 248.548C124.71 248.894 124.846 249.288 124.86 249.728H123.837ZM129.24 256.41C128.649 256.41 128.13 256.269 127.684 255.988C127.241 255.707 126.895 255.313 126.645 254.808C126.397 254.302 126.274 253.711 126.274 253.035C126.274 252.353 126.397 251.758 126.645 251.249C126.895 250.741 127.241 250.346 127.684 250.065C128.13 249.783 128.649 249.643 129.24 249.643C129.831 249.643 130.348 249.783 130.791 250.065C131.237 250.346 131.583 250.741 131.831 251.249C132.081 251.758 132.206 252.353 132.206 253.035C132.206 253.711 132.081 254.302 131.831 254.808C131.583 255.313 131.237 255.707 130.791 255.988C130.348 256.269 129.831 256.41 129.24 256.41ZM129.24 255.506C129.689 255.506 130.058 255.391 130.348 255.161C130.637 254.931 130.852 254.629 130.991 254.254C131.13 253.879 131.2 253.472 131.2 253.035C131.2 252.597 131.13 252.19 130.991 251.812C130.852 251.434 130.637 251.129 130.348 250.896C130.058 250.663 129.689 250.546 129.24 250.546C128.791 250.546 128.422 250.663 128.132 250.896C127.842 251.129 127.627 251.434 127.488 251.812C127.349 252.19 127.279 252.597 127.279 253.035C127.279 253.472 127.349 253.879 127.488 254.254C127.627 254.629 127.842 254.931 128.132 255.161C128.422 255.391 128.791 255.506 129.24 255.506ZM133.741 256.273V249.728H134.712V250.717H134.781C134.9 250.393 135.116 250.13 135.428 249.928C135.741 249.727 136.093 249.626 136.485 249.626C136.559 249.626 136.651 249.627 136.762 249.63C136.873 249.633 136.957 249.637 137.013 249.643V250.665C136.979 250.657 136.901 250.644 136.779 250.627C136.66 250.607 136.533 250.597 136.4 250.597C136.082 250.597 135.798 250.664 135.548 250.798C135.3 250.928 135.104 251.11 134.96 251.343C134.817 251.573 134.746 251.836 134.746 252.131V256.273H133.741ZM140.751 256.41C140.12 256.41 139.576 256.271 139.119 255.992C138.664 255.711 138.313 255.319 138.066 254.816C137.822 254.31 137.7 253.722 137.7 253.052C137.7 252.381 137.822 251.79 138.066 251.279C138.313 250.765 138.657 250.364 139.097 250.077C139.54 249.788 140.058 249.643 140.648 249.643C140.989 249.643 141.326 249.7 141.658 249.813C141.991 249.927 142.293 250.112 142.566 250.367C142.839 250.62 143.056 250.955 143.218 251.373C143.38 251.79 143.461 252.305 143.461 252.915V253.342H138.415V252.472H142.438C142.438 252.103 142.364 251.773 142.217 251.484C142.072 251.194 141.864 250.965 141.594 250.798C141.327 250.63 141.012 250.546 140.648 250.546C140.248 250.546 139.901 250.646 139.609 250.844C139.319 251.04 139.096 251.296 138.94 251.612C138.783 251.927 138.705 252.265 138.705 252.626V253.205C138.705 253.7 138.79 254.119 138.961 254.462C139.134 254.803 139.374 255.063 139.681 255.242C139.988 255.418 140.344 255.506 140.751 255.506C141.015 255.506 141.254 255.469 141.467 255.396C141.683 255.319 141.869 255.205 142.025 255.055C142.181 254.901 142.302 254.711 142.387 254.484L143.359 254.756C143.256 255.086 143.085 255.376 142.843 255.626C142.602 255.873 142.303 256.066 141.948 256.205C141.593 256.342 141.194 256.41 140.751 256.41ZM148.502 256.273V247.546H149.559V255.336H153.616V256.273H148.502ZM157.86 256.41C157.229 256.41 156.685 256.271 156.228 255.992C155.773 255.711 155.423 255.319 155.175 254.816C154.931 254.31 154.809 253.722 154.809 253.052C154.809 252.381 154.931 251.79 155.175 251.279C155.423 250.765 155.766 250.364 156.207 250.077C156.65 249.788 157.167 249.643 157.758 249.643C158.099 249.643 158.435 249.7 158.768 249.813C159.1 249.927 159.403 250.112 159.675 250.367C159.948 250.62 160.165 250.955 160.327 251.373C160.489 251.79 160.57 252.305 160.57 252.915V253.342H155.525V252.472H159.548C159.548 252.103 159.474 251.773 159.326 251.484C159.181 251.194 158.974 250.965 158.704 250.798C158.437 250.63 158.121 250.546 157.758 250.546C157.357 250.546 157.011 250.646 156.718 250.844C156.428 251.04 156.205 251.296 156.049 251.612C155.893 251.927 155.815 252.265 155.815 252.626V253.205C155.815 253.7 155.9 254.119 156.07 254.462C156.244 254.803 156.484 255.063 156.79 255.242C157.097 255.418 157.454 255.506 157.86 255.506C158.124 255.506 158.363 255.469 158.576 255.396C158.792 255.319 158.978 255.205 159.134 255.055C159.29 254.901 159.411 254.711 159.496 254.484L160.468 254.756C160.366 255.086 160.194 255.376 159.952 255.626C159.711 255.873 159.413 256.066 159.058 256.205C158.702 256.342 158.303 256.41 157.86 256.41ZM164.742 258.864C164.256 258.864 163.839 258.802 163.489 258.677C163.14 258.555 162.849 258.393 162.616 258.191C162.386 257.992 162.202 257.779 162.066 257.552L162.867 256.989C162.958 257.109 163.073 257.245 163.212 257.398C163.352 257.555 163.542 257.69 163.783 257.803C164.028 257.92 164.347 257.978 164.742 257.978C165.271 257.978 165.707 257.85 166.05 257.594C166.394 257.339 166.566 256.938 166.566 256.393V255.063H166.481C166.407 255.183 166.302 255.33 166.165 255.506C166.032 255.68 165.839 255.835 165.586 255.971C165.336 256.104 164.998 256.171 164.572 256.171C164.043 256.171 163.569 256.046 163.148 255.796C162.731 255.546 162.4 255.183 162.156 254.705C161.914 254.228 161.793 253.648 161.793 252.967C161.793 252.296 161.911 251.712 162.147 251.215C162.383 250.715 162.711 250.329 163.131 250.056C163.552 249.781 164.038 249.643 164.589 249.643C165.015 249.643 165.353 249.714 165.603 249.856C165.856 249.995 166.049 250.154 166.183 250.333C166.319 250.509 166.424 250.654 166.498 250.768H166.6V249.728H167.572V256.461C167.572 257.023 167.444 257.481 167.188 257.833C166.935 258.188 166.594 258.448 166.165 258.613C165.739 258.781 165.265 258.864 164.742 258.864ZM164.708 255.268C165.112 255.268 165.452 255.175 165.731 254.991C166.009 254.806 166.221 254.54 166.366 254.194C166.511 253.847 166.583 253.433 166.583 252.95C166.583 252.478 166.512 252.062 166.37 251.701C166.228 251.34 166.018 251.058 165.739 250.853C165.461 250.648 165.117 250.546 164.708 250.546C164.282 250.546 163.927 250.654 163.643 250.87C163.362 251.086 163.15 251.376 163.008 251.739C162.869 252.103 162.799 252.506 162.799 252.95C162.799 253.404 162.87 253.806 163.012 254.156C163.157 254.502 163.37 254.775 163.651 254.974C163.935 255.17 164.288 255.268 164.708 255.268ZM174.049 251.194L173.146 251.45C173.089 251.299 173.005 251.153 172.894 251.011C172.786 250.866 172.638 250.746 172.451 250.653C172.263 250.559 172.023 250.512 171.731 250.512C171.33 250.512 170.996 250.604 170.729 250.789C170.465 250.971 170.333 251.202 170.333 251.484C170.333 251.734 170.424 251.931 170.606 252.076C170.788 252.221 171.072 252.342 171.458 252.438L172.43 252.677C173.015 252.819 173.451 253.036 173.738 253.329C174.025 253.619 174.168 253.992 174.168 254.45C174.168 254.825 174.06 255.16 173.844 255.455C173.631 255.751 173.333 255.984 172.95 256.154C172.566 256.325 172.12 256.41 171.612 256.41C170.944 256.41 170.391 256.265 169.954 255.975C169.516 255.685 169.239 255.262 169.123 254.705L170.077 254.467C170.168 254.819 170.34 255.083 170.593 255.259C170.849 255.435 171.183 255.523 171.594 255.523C172.063 255.523 172.435 255.424 172.711 255.225C172.989 255.023 173.129 254.782 173.129 254.501C173.129 254.273 173.049 254.083 172.89 253.93C172.731 253.773 172.487 253.657 172.157 253.58L171.066 253.325C170.467 253.183 170.026 252.962 169.745 252.664C169.467 252.363 169.327 251.987 169.327 251.535C169.327 251.165 169.431 250.839 169.638 250.555C169.849 250.271 170.134 250.048 170.495 249.886C170.859 249.724 171.271 249.643 171.731 249.643C172.379 249.643 172.887 249.785 173.256 250.069C173.629 250.353 173.893 250.728 174.049 251.194Z" fill="#3278B2"/>
</g>
<defs>
<filter id="filter0_dd_476_313" x="83.983" y="0" width="341.901" height="156.448" filterUnits="userSpaceOnUse" color-interpolation-filters="sRGB">
<feFlood flood-opacity="0" result="BackgroundImageFix"/>
<feColorMatrix in="SourceAlpha" type="matrix" values="0 0 0 0 0 0 0 0 0 0 0 0 0 0 0 0 0 0 127 0" result="hardAlpha"/>
<feMorphology radius="2.36611" operator="erode" in="SourceAlpha" result="effect1_dropShadow_476_313"/>
<feOffset dy="4.73223"/>
<feGaussianBlur stdDeviation="3.54917"/>
<feComposite in2="hardAlpha" operator="out"/>
<feColorMatrix type="matrix" values="0 0 0 0 0.145098 0 0 0 0 0.192157 0 0 0 0 0.219608 0 0 0 0.03 0"/>
<feBlend mode="normal" in2="BackgroundImageFix" result="effect1_dropShadow_476_313"/>
<feColorMatrix in="SourceAlpha" type="matrix" values="0 0 0 0 0 0 0 0 0 0 0 0 0 0 0 0 0 0 127 0" result="hardAlpha"/>
<feMorphology radius="4.73223" operator="erode" in="SourceAlpha" result="effect2_dropShadow_476_313"/>
<feOffset dy="14.1967"/>
<feGaussianBlur stdDeviation="9.46445"/>
<feComposite in2="hardAlpha" operator="out"/>
<feColorMatrix type="matrix" values="0 0 0 0 0.145098 0 0 0 0 0.192157 0 0 0 0 0.219608 0 0 0 0.08 0"/>
<feBlend mode="normal" in2="effect1_dropShadow_476_313" result="effect2_dropShadow_476_313"/>
<feBlend mode="normal" in="SourceGraphic" in2="effect2_dropShadow_476_313" result="shape"/>
</filter>
<filter id="filter1_dd_476_313" x="83.983" y="148.055" width="341.901" height="156.448" filterUnits="userSpaceOnUse" color-interpolation-filters="sRGB">
<feFlood flood-opacity="0" result="BackgroundImageFix"/>
<feColorMatrix in="SourceAlpha" type="matrix" values="0 0 0 0 0 0 0 0 0 0 0 0 0 0 0 0 0 0 127 0" result="hardAlpha"/>
<feMorphology radius="2.36611" operator="erode" in="SourceAlpha" result="effect1_dropShadow_476_313"/>
<feOffset dy="4.73223"/>
<feGaussianBlur stdDeviation="3.54917"/>
<feComposite in2="hardAlpha" operator="out"/>
<feColorMatrix type="matrix" values="0 0 0 0 0.145098 0 0 0 0 0.192157 0 0 0 0 0.219608 0 0 0 0.03 0"/>
<feBlend mode="normal" in2="BackgroundImageFix" result="effect1_dropShadow_476_313"/>
<feColorMatrix in="SourceAlpha" type="matrix" values="0 0 0 0 0 0 0 0 0 0 0 0 0 0 0 0 0 0 127 0" result="hardAlpha"/>
<feMorphology radius="4.73223" operator="erode" in="SourceAlpha" result="effect2_dropShadow_476_313"/>
<feOffset dy="14.1967"/>
<feGaussianBlur stdDeviation="9.46445"/>
<feComposite in2="hardAlpha" operator="out"/>
<feColorMatrix type="matrix" values="0 0 0 0 0.145098 0 0 0 0 0.192157 0 0 0 0 0.219608 0 0 0 0.08 0"/>
<feBlend mode="normal" in2="effect1_dropShadow_476_313" result="effect2_dropShadow_476_313"/>
<feBlend mode="normal" in="SourceGraphic" in2="effect2_dropShadow_476_313" result="shape"/>
</filter>
<clipPath id="clip0_476_313">
<rect width="18.9289" height="18.9289" fill="white" transform="translate(110.008 56.2578)"/>
</clipPath>
<clipPath id="clip1_476_313">
<rect width="18.9289" height="18.9289" fill="white" transform="translate(110.008 204.312)"/>
</clipPath>
</defs>
</svg>
