<svg width="203" height="59" viewBox="0 0 203 59" fill="none" xmlns="http://www.w3.org/2000/svg">
<g clip-path="url(#clip0_348_1931)">
<path d="M202.915 53.0858C202.915 56.3533 200.315 59 197.099 59H6.77646C3.56217 59 0.953125 56.3533 0.953125 53.0858V5.92193C0.953125 2.65599 3.56217 0 6.77646 0H197.097C200.315 0 202.913 2.65599 202.913 5.92193L202.915 53.0858Z" fill="white"/>
<path d="M45.3983 29.1711C45.3544 24.2307 49.3906 21.8272 49.5752 21.7153C47.2893 18.3385 43.7463 17.8771 42.5012 17.8403C39.5255 17.523 36.639 19.6445 35.1232 19.6445C33.5771 19.6445 31.2428 17.871 28.727 17.9231C25.4896 17.9737 22.4609 19.8729 20.7998 22.822C17.3718 28.8354 19.9284 37.6722 23.2128 42.5329C24.8557 44.9134 26.7755 47.5713 29.2882 47.4778C31.7466 47.3751 32.6649 45.8898 35.6315 45.8898C38.5709 45.8898 39.4332 47.4778 41.9959 47.418C44.6343 47.3751 46.2954 45.0268 47.8808 42.6248C49.7794 39.8964 50.5419 37.2093 50.5721 37.0714C50.5101 37.0499 45.4482 35.0925 45.3983 29.1711Z" fill="#1D2026"/>
<path d="M40.5572 14.6428C41.8795 12.9674 42.7841 10.6881 42.533 8.375C40.6193 8.46084 38.226 9.71624 36.8478 11.3548C35.6285 12.7988 34.5392 15.1655 34.8206 17.3912C36.9704 17.5537 39.1776 16.2921 40.5572 14.6428Z" fill="#1D2026"/>
<path d="M80.9731 47.1256H77.5375L75.6555 41.1338H69.1141L67.3214 47.1256H63.9766L70.4575 26.7266H74.4604L80.9731 47.1256ZM75.0882 38.6199L73.3863 33.2933C73.2063 32.7491 72.8689 31.4676 72.3712 29.4504H72.3107C72.1125 30.318 71.7933 31.5995 71.3546 33.2933L69.6829 38.6199H75.0882Z" fill="#1D2026"/>
<path d="M97.6362 39.585C97.6362 42.0866 96.9691 44.064 95.6348 45.5156C94.4396 46.8078 92.9556 47.4531 91.184 47.4531C89.2718 47.4531 87.8982 46.7572 87.0616 45.3654H87.0011V53.1139H83.7758V37.2536C83.7758 35.6809 83.7349 34.0668 83.6562 32.4113H86.4928L86.6728 34.7428H86.7333C87.8089 32.9862 89.4413 32.1094 91.6318 32.1094C93.3444 32.1094 94.774 32.7946 95.9177 34.1664C97.0644 35.5399 97.6362 37.3456 97.6362 39.585ZM94.3504 39.7046C94.3504 38.2729 94.0327 37.0926 93.3943 36.1637C92.6969 35.195 91.7604 34.7106 90.5865 34.7106C89.7907 34.7106 89.0676 34.9804 88.4216 35.5123C87.7741 36.0488 87.3506 36.7493 87.1524 37.6169C87.0525 38.0216 87.0026 38.3526 87.0026 38.6132V41.0658C87.0026 42.1357 87.3264 43.0385 87.9738 43.7758C88.6213 44.5131 89.4625 44.881 90.4972 44.881C91.712 44.881 92.6575 44.4058 93.3338 43.4585C94.0115 42.5097 94.3504 41.2589 94.3504 39.7046Z" fill="#1D2026"/>
<path d="M114.338 39.585C114.338 42.0866 113.671 44.064 112.335 45.5156C111.141 46.8078 109.657 47.4531 107.886 47.4531C105.973 47.4531 104.6 46.7572 103.765 45.3654H103.704V53.1139H100.479V37.2536C100.479 35.6809 100.438 34.0668 100.359 32.4113H103.196L103.376 34.7428H103.436C104.511 32.9862 106.143 32.1094 108.335 32.1094C110.046 32.1094 111.476 32.7946 112.622 34.1664C113.764 35.5399 114.338 37.3456 114.338 39.585ZM111.052 39.7046C111.052 38.2729 110.733 37.0926 110.094 36.1637C109.397 35.195 108.464 34.7106 107.288 34.7106C106.491 34.7106 105.769 34.9804 105.122 35.5123C104.474 36.0488 104.052 36.7493 103.854 37.6169C103.756 38.0216 103.704 38.3526 103.704 38.6132V41.0658C103.704 42.1357 104.028 43.0385 104.672 43.7758C105.32 44.5116 106.161 44.881 107.199 44.881C108.414 44.881 109.359 44.4058 110.035 43.4585C110.713 42.5097 111.052 41.2589 111.052 39.7046Z" fill="#1D2026"/>
<path d="M133.005 41.4071C133.005 43.1423 132.411 44.554 131.217 45.6439C129.906 46.8349 128.08 47.4296 125.733 47.4296C123.567 47.4296 121.83 47.0066 120.516 46.1589L121.263 43.4351C122.679 44.3026 124.233 44.738 125.925 44.738C127.14 44.738 128.086 44.459 128.765 43.9041C129.441 43.3492 129.779 42.6043 129.779 41.6753C129.779 40.8476 129.5 40.1502 128.942 39.5845C128.387 39.0189 127.459 38.4932 126.164 38.0073C122.64 36.6752 120.879 34.7239 120.879 32.1579C120.879 30.481 121.496 29.106 122.732 28.0361C123.963 26.9647 125.606 26.4297 127.661 26.4297C129.493 26.4297 131.015 26.7531 132.229 27.3984L131.423 30.0625C130.288 29.4371 129.006 29.1244 127.57 29.1244C126.435 29.1244 125.549 29.408 124.913 29.9721C124.376 30.4764 124.107 31.0911 124.107 31.8192C124.107 32.6254 124.414 33.2922 125.031 33.8165C125.568 34.3008 126.544 34.8251 127.96 35.3907C129.692 36.0973 130.965 36.9235 131.783 37.8708C132.599 38.8151 133.005 39.9969 133.005 41.4071Z" fill="#1D2026"/>
<path d="M143.669 34.8676H140.114V42.0091C140.114 43.8255 140.74 44.733 141.996 44.733C142.572 44.733 143.05 44.6824 143.429 44.5812L143.518 47.0629C142.882 47.3035 142.046 47.4246 141.01 47.4246C139.736 47.4246 138.74 47.0307 138.022 46.2443C137.306 45.4565 136.946 44.1351 136.946 42.2789V34.8645H134.828V32.412H136.946V29.7188L140.114 28.75V32.412H143.669V34.8676Z" fill="#1D2026"/>
<path d="M159.711 39.6511C159.711 41.9121 159.073 43.7683 157.799 45.2199C156.463 46.7145 154.69 47.4594 152.48 47.4594C150.35 47.4594 148.654 46.7436 147.389 45.3119C146.125 43.8802 145.492 42.073 145.492 39.8948C145.492 37.6155 146.143 35.7485 147.448 34.2969C148.751 32.8438 150.509 32.1172 152.719 32.1172C154.849 32.1172 156.563 32.833 157.856 34.2662C159.094 35.6565 159.711 37.4515 159.711 39.6511ZM156.365 39.7569C156.365 38.4003 156.079 37.2369 155.499 36.2666C154.823 35.0924 153.857 34.5069 152.604 34.5069C151.307 34.5069 150.323 35.094 149.646 36.2666C149.067 37.2384 148.781 38.4202 148.781 39.8182C148.781 41.1748 149.067 42.3382 149.646 43.3069C150.344 44.4811 151.318 45.0666 152.575 45.0666C153.807 45.0666 154.773 44.4688 155.471 43.2763C156.065 42.2876 156.365 41.1119 156.365 39.7569Z" fill="#1D2026"/>
<path d="M170.197 35.2854C169.877 35.2256 169.537 35.195 169.18 35.195C168.045 35.195 167.168 35.6288 166.551 36.4979C166.014 37.2643 165.744 38.2331 165.744 39.4026V47.1205H162.52L162.551 37.0436C162.551 35.3483 162.51 33.8047 162.43 32.4129H165.239L165.357 35.2272H165.446C165.787 34.26 166.324 33.4813 167.059 32.8973C167.778 32.3715 168.554 32.1094 169.39 32.1094C169.688 32.1094 169.958 32.1308 170.197 32.1692V35.2854Z" fill="#1D2026"/>
<path d="M184.62 39.0742C184.62 39.6597 184.582 40.1533 184.502 40.5564H174.826C174.864 42.0096 175.331 43.1209 176.23 43.8873C177.045 44.5725 178.1 44.9158 179.395 44.9158C180.827 44.9158 182.135 44.6844 183.31 44.2199L183.815 46.4885C182.442 47.0955 180.82 47.3975 178.949 47.3975C176.697 47.3975 174.93 46.7261 173.645 45.3849C172.362 44.0436 171.719 42.2426 171.719 39.9831C171.719 37.7651 172.316 35.918 173.513 34.445C174.766 32.8723 176.458 32.0859 178.588 32.0859C180.681 32.0859 182.265 32.8723 183.34 34.445C184.192 35.6942 184.62 37.2394 184.62 39.0742ZM181.545 38.2265C181.566 37.2577 181.355 36.4208 180.918 35.7142C180.36 34.8052 179.502 34.3515 178.348 34.3515C177.293 34.3515 176.436 34.7945 175.781 35.6835C175.244 36.3902 174.924 37.2378 174.826 38.225H181.545V38.2265Z" fill="#1D2026"/>
<path d="M74.0205 14.1843C74.0205 15.9885 73.4865 17.3466 72.42 18.2586C71.4321 19.1001 70.0282 19.5217 68.2098 19.5217C67.3081 19.5217 66.5366 19.4818 65.8906 19.4021V9.5444C66.7333 9.40645 67.641 9.33594 68.6213 9.33594C70.3535 9.33594 71.659 9.71762 72.5395 10.481C73.5258 11.344 74.0205 12.5779 74.0205 14.1843ZM72.3489 14.2288C72.3489 13.0592 72.0433 12.1625 71.4321 11.5371C70.8209 10.9132 69.9283 10.6005 68.7529 10.6005C68.2537 10.6005 67.8286 10.6343 67.4761 10.7048V18.1988C67.6712 18.2295 68.0282 18.2433 68.5471 18.2433C69.7604 18.2433 70.6969 17.9015 71.3565 17.2178C72.016 16.5342 72.3489 15.5378 72.3489 14.2288Z" fill="#1D2026"/>
<path d="M82.8831 15.755C82.8831 16.8663 82.57 17.7768 81.9437 18.4911C81.2871 19.2253 80.4172 19.5917 79.331 19.5917C78.2842 19.5917 77.4506 19.2407 76.8288 18.5355C76.2086 17.832 75.8984 16.9445 75.8984 15.8745C75.8984 14.7556 76.2176 13.8374 76.8591 13.1246C77.5005 12.4118 78.3628 12.0547 79.449 12.0547C80.4959 12.0547 81.337 12.4057 81.9739 13.1093C82.5791 13.7929 82.8831 14.6758 82.8831 15.755ZM81.2387 15.8071C81.2387 15.1403 81.0965 14.5685 80.8136 14.0918C80.4808 13.5155 80.0073 13.2273 79.3915 13.2273C78.7546 13.2273 78.2705 13.5155 77.9377 14.0918C77.6533 14.5685 77.5126 15.1495 77.5126 15.8362C77.5126 16.503 77.6548 17.0747 77.9377 17.5515C78.2811 18.1278 78.7592 18.416 79.3764 18.416C79.9815 18.416 80.4566 18.1232 80.7985 17.5361C81.092 17.0502 81.2387 16.4739 81.2387 15.8071Z" fill="#1D2026"/>
<path d="M94.7701 12.2031L92.5386 19.4289H91.0863L90.162 16.2912C89.9275 15.5079 89.7369 14.7293 89.5886 13.9567H89.5599C89.4222 14.7507 89.2316 15.5279 88.9865 16.2912L88.0047 19.4289H86.5358L84.4375 12.2031H86.0668L86.8731 15.6382C87.0683 16.4506 87.2287 17.2247 87.3572 17.9574H87.386C87.504 17.3535 87.6991 16.584 87.9745 15.6536L88.9865 12.2047H90.2785L91.2482 15.58C91.4827 16.4031 91.6733 17.1956 91.8201 17.959H91.8639C91.9713 17.2155 92.1332 16.423 92.348 15.58L93.2134 12.2047H94.7701V12.2031Z" fill="#1D2026"/>
<path d="M102.985 19.4323H101.4V15.2936C101.4 14.0183 100.922 13.3806 99.9627 13.3806C99.4922 13.3806 99.1125 13.5553 98.8175 13.9064C98.5255 14.2574 98.3773 14.6713 98.3773 15.1449V19.4307H96.7919V14.2712C96.7919 13.6366 96.7722 12.9483 96.7344 12.2034H98.1277L98.2018 13.3331H98.2457C98.4302 12.9821 98.7056 12.6924 99.0671 12.4609C99.4968 12.1911 99.9778 12.0547 100.504 12.0547C101.17 12.0547 101.724 12.2724 102.164 12.7092C102.712 13.2442 102.985 14.0428 102.985 15.1035V19.4323Z" fill="#1D2026"/>
<path d="M107.357 19.432H105.773V8.89062H107.357V19.432Z" fill="#1D2026"/>
<path d="M116.696 15.755C116.696 16.8663 116.382 17.7768 115.756 18.4911C115.1 19.2253 114.228 19.5917 113.144 19.5917C112.095 19.5917 111.262 19.2407 110.641 18.5355C110.021 17.832 109.711 16.9445 109.711 15.8745C109.711 14.7556 110.03 13.8374 110.672 13.1246C111.313 12.4118 112.175 12.0547 113.26 12.0547C114.308 12.0547 115.148 12.4057 115.786 13.1093C116.392 13.7929 116.696 14.6758 116.696 15.755ZM115.05 15.8071C115.05 15.1403 114.907 14.5685 114.625 14.0918C114.293 13.5155 113.818 13.2273 113.204 13.2273C112.566 13.2273 112.082 13.5155 111.75 14.0918C111.466 14.5685 111.325 15.1495 111.325 15.8362C111.325 16.503 111.467 17.0747 111.75 17.5515C112.094 18.1278 112.572 18.416 113.189 18.416C113.794 18.416 114.268 18.1232 114.609 17.5361C114.904 17.0502 115.05 16.4739 115.05 15.8071Z" fill="#1D2026"/>
<path d="M124.37 19.4277H122.947L122.829 18.5953H122.785C122.298 19.259 121.603 19.5917 120.702 19.5917C120.028 19.5917 119.484 19.3725 119.074 18.9372C118.702 18.5417 118.516 18.0496 118.516 17.4656C118.516 16.5827 118.879 15.9098 119.609 15.4438C120.339 14.9778 121.364 14.7494 122.685 14.7602V14.6253C122.685 13.6734 122.192 13.1982 121.204 13.1982C120.5 13.1982 119.88 13.3775 119.345 13.7332L119.022 12.6786C119.685 12.2632 120.503 12.0547 121.469 12.0547C123.332 12.0547 124.267 13.051 124.267 15.0437V17.7047C124.267 18.4267 124.302 19.0015 124.37 19.4277ZM122.724 16.9445V15.8301C120.975 15.7994 120.101 16.2853 120.101 17.2863C120.101 17.6634 120.201 17.9454 120.405 18.1339C120.609 18.3225 120.87 18.416 121.18 18.416C121.528 18.416 121.853 18.3041 122.149 18.0818C122.447 17.858 122.63 17.5745 122.699 17.2265C122.715 17.1483 122.724 17.0533 122.724 16.9445Z" fill="#1D2026"/>
<path d="M133.378 19.432H131.971L131.897 18.2716H131.853C131.404 19.1545 130.638 19.596 129.563 19.596C128.703 19.596 127.988 19.2542 127.421 18.5705C126.853 17.8869 126.57 16.9994 126.57 15.9095C126.57 14.74 126.877 13.7927 127.495 13.0692C128.092 12.3947 128.824 12.0575 129.696 12.0575C130.653 12.0575 131.324 12.384 131.705 13.0385H131.735V8.89062H133.322V17.4853C133.322 18.1889 133.34 18.8372 133.378 19.432ZM131.735 16.3847V15.1799C131.735 14.9714 131.72 14.8028 131.691 14.674C131.602 14.2878 131.41 13.9628 131.118 13.7007C130.823 13.4386 130.467 13.3067 130.057 13.3067C129.466 13.3067 129.003 13.5443 128.663 14.0211C128.325 14.4978 128.154 15.1063 128.154 15.8497C128.154 16.564 128.316 17.1435 128.641 17.5895C128.985 18.0647 129.448 18.3023 130.027 18.3023C130.548 18.3023 130.964 18.1045 131.28 17.7075C131.585 17.3412 131.735 16.8997 131.735 16.3847Z" fill="#1D2026"/>
<path d="M146.938 15.755C146.938 16.8663 146.625 17.7768 145.998 18.4911C145.342 19.2253 144.473 19.5917 143.386 19.5917C142.34 19.5917 141.507 19.2407 140.884 18.5355C140.263 17.832 139.953 16.9445 139.953 15.8745C139.953 14.7556 140.272 13.8374 140.914 13.1246C141.555 12.4118 142.418 12.0547 143.505 12.0547C144.551 12.0547 145.393 12.4057 146.029 13.1093C146.634 13.7929 146.938 14.6758 146.938 15.755ZM145.295 15.8071C145.295 15.1403 145.153 14.5685 144.87 14.0918C144.535 13.5155 144.063 13.2273 143.446 13.2273C142.811 13.2273 142.327 13.5155 141.992 14.0918C141.708 14.5685 141.567 15.1495 141.567 15.8362C141.567 16.503 141.71 17.0747 141.992 17.5515C142.336 18.1278 142.814 18.416 143.431 18.416C144.036 18.416 144.513 18.1232 144.855 17.5361C145.147 17.0502 145.295 16.4739 145.295 15.8071Z" fill="#1D2026"/>
<path d="M155.46 19.4323H153.876V15.2936C153.876 14.0183 153.398 13.3806 152.438 13.3806C151.967 13.3806 151.588 13.5553 151.294 13.9064C151.001 14.2574 150.854 14.6713 150.854 15.1449V19.4307H149.267V14.2712C149.267 13.6366 149.249 12.9483 149.211 12.2034H150.603L150.677 13.3331H150.721C150.907 12.9821 151.182 12.6924 151.542 12.4609C151.973 12.1911 152.453 12.0547 152.981 12.0547C153.645 12.0547 154.199 12.2724 154.639 12.7092C155.188 13.2442 155.46 14.0428 155.46 15.1035V19.4323Z" fill="#1D2026"/>
<path d="M166.132 13.4091H164.387V16.9193C164.387 17.8114 164.697 18.2575 165.311 18.2575C165.595 18.2575 165.831 18.2329 166.017 18.1824L166.058 19.401C165.745 19.5205 165.334 19.5803 164.827 19.5803C164.2 19.5803 163.713 19.3872 163.361 19.0009C163.007 18.6146 162.831 17.9647 162.831 17.0527V13.4091H161.789V12.2058H162.831V10.8814L164.385 10.4062V12.2043H166.131V13.4091H166.132Z" fill="#1D2026"/>
<path d="M174.522 19.432H172.935V15.324C172.935 14.0287 172.457 13.3803 171.499 13.3803C170.764 13.3803 170.262 13.7559 169.986 14.507C169.939 14.6648 169.912 14.858 169.912 15.0848V19.4305H168.328V8.89062H169.912V13.2454H169.942C170.442 12.453 171.157 12.0575 172.084 12.0575C172.741 12.0575 173.284 12.2751 173.715 12.712C174.252 13.2562 174.522 14.0655 174.522 15.1354V19.432Z" fill="#1D2026"/>
<path d="M183.184 15.4789C183.184 15.7671 183.163 16.0093 183.125 16.207H178.37C178.391 16.9213 178.618 17.4655 179.059 17.8426C179.461 18.1798 179.98 18.3484 180.615 18.3484C181.319 18.3484 181.96 18.235 182.538 18.0066L182.786 19.1225C182.11 19.4198 181.314 19.5685 180.393 19.5685C179.288 19.5685 178.419 19.239 177.789 18.5799C177.157 17.9207 176.844 17.0363 176.844 15.9265C176.844 14.8366 177.136 13.9292 177.724 13.2057C178.338 12.4332 179.169 12.0469 180.217 12.0469C181.243 12.0469 182.022 12.4332 182.549 13.2057C182.974 13.8188 183.184 14.5776 183.184 15.4789ZM181.671 15.0635C181.683 14.5868 181.579 14.176 181.364 13.8296C181.089 13.3835 180.67 13.1597 180.102 13.1597C179.585 13.1597 179.163 13.3774 178.841 13.8142C178.577 14.1622 178.422 14.5776 178.37 15.0635H181.671Z" fill="#1D2026"/>
</g>
<defs>
<clipPath id="clip0_348_1931">
<rect x="0.953125" width="201.962" height="59" rx="6" fill="white"/>
</clipPath>
</defs>
</svg>
