<svg width="22" height="22" viewBox="0 0 22 22" fill="none" xmlns="http://www.w3.org/2000/svg">
<path d="M16.75 2C18.5449 2 20 3.45507 20 5.25V16.75C20 18.5449 18.5449 20 16.75 20H5.25C3.45507 20 2 18.5449 2 16.75V5.25C2 3.45507 3.45507 2 5.25 2H16.75ZM18.5 7.5H3.5V16.75C3.5 17.7165 4.2835 18.5 5.25 18.5H16.75C17.7165 18.5 18.5 17.7165 18.5 16.75V7.5ZM6.75 13.5C7.44036 13.5 8 14.0596 8 14.75C8 15.4404 7.44036 16 6.75 16C6.05964 16 5.5 15.4404 5.5 14.75C5.5 14.0596 6.05964 13.5 6.75 13.5ZM11 13.5C11.6904 13.5 12.25 14.0596 12.25 14.75C12.25 15.4404 11.6904 16 11 16C10.3096 16 9.75 15.4404 9.75 14.75C9.75 14.0596 10.3096 13.5 11 13.5ZM6.75 9.5C7.44036 9.5 8 10.0596 8 10.75C8 11.4404 7.44036 12 6.75 12C6.05964 12 5.5 11.4404 5.5 10.75C5.5 10.0596 6.05964 9.5 6.75 9.5ZM11 9.5C11.6904 9.5 12.25 10.0596 12.25 10.75C12.25 11.4404 11.6904 12 11 12C10.3096 12 9.75 11.4404 9.75 10.75C9.75 10.0596 10.3096 9.5 11 9.5ZM15.25 9.5C15.9404 9.5 16.5 10.0596 16.5 10.75C16.5 11.4404 15.9404 12 15.25 12C14.5596 12 14 11.4404 14 10.75C14 10.0596 14.5596 9.5 15.25 9.5ZM16.75 3.5H5.25C4.2835 3.5 3.5 4.2835 3.5 5.25V6H18.5V5.25C18.5 4.2835 17.7165 3.5 16.75 3.5Z" fill="#EE5A24"/>
</svg>
