<svg width="19" height="19" viewBox="0 0 19 19" fill="none" xmlns="http://www.w3.org/2000/svg">
<path d="M17.2017 12.1878L12.9771 10.2948L12.9655 10.2894C12.7462 10.1956 12.5069 10.158 12.2694 10.1799C12.0319 10.2018 11.8036 10.2826 11.6051 10.415C11.5817 10.4304 11.5593 10.4471 11.5379 10.4652L9.3552 12.3259C7.97242 11.6542 6.54482 10.2374 5.87316 8.87256L7.73658 6.65672C7.75452 6.6343 7.77155 6.61188 7.7877 6.58767C7.91721 6.38976 7.99579 6.1629 8.01644 5.92729C8.03709 5.69167 7.99918 5.4546 7.90607 5.23718V5.22642L6.00767 0.994707C5.88458 0.710678 5.67294 0.474074 5.40433 0.320215C5.13572 0.166355 4.82456 0.103493 4.51729 0.141012C3.30218 0.300906 2.18682 0.897652 1.37954 1.81979C0.572252 2.74193 0.128243 3.92641 0.13044 5.15199C0.13044 12.2721 5.92338 18.065 13.0435 18.065C14.2691 18.0672 15.4535 17.6232 16.3757 16.8159C17.2978 16.0086 17.8946 14.8933 18.0545 13.6782C18.092 13.371 18.0293 13.0599 17.8756 12.7913C17.7219 12.5227 17.4855 12.311 17.2017 12.1878ZM13.0435 16.6303C10.0003 16.6269 7.08267 15.4165 4.9308 13.2647C2.77893 11.1128 1.56855 8.19519 1.56522 5.15199C1.56185 4.27631 1.87733 3.42935 2.45276 2.76927C3.02818 2.10919 3.8242 1.68113 4.69215 1.56503C4.69179 1.56861 4.69179 1.57222 4.69215 1.57579L6.5753 5.79047L4.72174 8.009C4.70289 8.03062 4.6858 8.05371 4.67063 8.07805C4.53568 8.28512 4.45652 8.52355 4.44081 8.77021C4.4251 9.01687 4.47337 9.26341 4.58096 9.48593C5.3934 11.1476 7.06761 12.8092 8.74721 13.6208C8.97136 13.7274 9.21933 13.774 9.46688 13.7561C9.71443 13.7381 9.9531 13.6563 10.1596 13.5186C10.1826 13.5031 10.2048 13.4864 10.2259 13.4683L12.4059 11.6085L16.6206 13.4961H16.6304C16.5158 14.3653 16.0883 15.1629 15.4281 15.7398C14.7679 16.3166 13.9202 16.6332 13.0435 16.6303Z" fill="black"/>
</svg>
