<svg width="32" height="39" viewBox="0 0 32 39" fill="none" xmlns="http://www.w3.org/2000/svg">
<g opacity="0.8">
<path d="M21.4424 21.9063C21.4424 21.9063 21.0585 21.8526 21.0585 21.2933C21.0585 20.7339 20.7839 19.6892 20.7839 19.6892C20.7839 19.6844 20.5459 17.8698 20.2177 17.5813C19.8891 17.2929 19.4672 15.5992 19.4672 15.5992C19.4672 15.5992 19.3951 14.6802 19.2478 14.4824C19.1009 14.2846 18.902 13.8002 18.6087 13.1093C18.3155 12.4184 17.0926 11.9399 17.0926 11.9399C17.0926 11.9399 14.8812 10.6574 14.2548 10.2393C14.1977 10.205 14.1442 10.1648 14.0957 10.1195C13.9865 9.97619 13.511 9.9733 13.511 9.9733C13.4611 9.65951 13.4135 9.2989 13.3981 8.97247C13.3981 8.93739 13.3981 8.90231 13.3932 8.86723C14.0916 8.45418 14.6183 7.80299 14.8753 7.03315C14.8871 6.99612 14.8966 6.95714 14.9075 6.92011C14.9492 6.90633 14.9877 6.88394 15.0208 6.85443C15.0534 6.82488 15.0797 6.78885 15.0974 6.7486C15.154 6.62291 15.1549 6.47574 15.2252 6.3588C15.3072 6.22043 15.4632 6.14636 15.586 6.04207C15.8956 5.77896 15.9758 5.33555 15.9608 4.93211C15.9513 4.60563 15.8987 4.27625 15.9191 3.95173L15.925 3.86987C15.9309 3.82114 15.9377 3.77242 15.9463 3.72564C15.9939 3.48397 16.0982 3.25594 16.1566 3.01622C16.2151 2.77649 16.221 2.50654 16.0846 2.29994C15.8851 1.99686 15.469 1.93644 15.1033 1.90525C14.689 1.87017 14.3187 1.916 14.054 1.57198C13.9298 1.39218 13.7902 1.22356 13.6365 1.06815C13.5822 1.01747 13.0519 0.693942 13.0519 0.672504C12.5347 0.43287 11.9482 0.387863 11.4002 0.54582C11.1255 0.625729 10.8663 0.756309 10.5875 0.821577C9.98607 0.963853 9.29441 0.809884 8.78359 1.1539C8.49895 1.3488 8.32853 1.65869 8.16854 1.96082C8.03891 2.20961 7.90701 2.45813 7.77285 2.70633C7.55755 3.11462 7.33863 3.52979 7.24798 3.98196C7.22894 4.08036 7.21717 4.18003 7.21263 4.28015V4.28505C7.21263 4.32108 7.21263 4.35716 7.21263 4.39319V4.43901C7.21263 4.4731 7.21263 4.50623 7.21853 4.53646C7.22442 4.56665 7.22351 4.5764 7.22623 4.59688C7.2294 4.61732 7.23393 4.66315 7.23983 4.69433C7.24572 4.72551 7.2575 4.78009 7.26929 4.82296C7.27428 4.84146 7.28107 4.859 7.28697 4.87654C7.29648 4.90967 7.30827 4.94185 7.32096 4.97399C7.32776 4.99058 7.33456 5.00812 7.34226 5.02471C7.35676 5.05879 7.37444 5.09192 7.39212 5.12215C7.39982 5.1358 7.40571 5.14844 7.41342 5.16113C7.44062 5.20646 7.47053 5.25006 7.50316 5.29172C7.71166 5.55188 8.01851 5.71754 8.24559 5.96121C8.24559 5.97096 8.24559 5.9807 8.24559 5.98945C8.24559 6.01673 8.24559 6.04307 8.24559 6.07035C8.25782 6.61367 8.40242 7.14587 8.66711 7.62056C8.93181 8.0953 9.30801 8.49815 9.76398 8.79412C9.76398 8.83115 9.76896 8.86918 9.77078 8.90621C9.78981 9.19547 9.78619 9.48578 9.7599 9.7745C9.72047 9.72772 9.67061 9.69051 9.61486 9.66554C9.55865 9.64061 9.49792 9.62851 9.43673 9.63028C9.39458 9.62819 9.35288 9.63182 9.31164 9.64097L9.30302 9.63417V9.64292C9.08864 9.69554 8.82439 9.91872 8.57238 10.5531C8.57238 10.5531 7.80412 11.4185 7.21943 11.3824C6.63474 11.3464 5.15442 12.2829 5.15442 12.2829C5.15442 12.2829 3.71036 13.2204 3.40034 14.1754C3.2272 14.717 3.01961 15.2469 2.77848 15.7619L0.993128 19.4407L0.664062 22.3594C0.664062 22.3594 0.846272 23.6575 0.810012 23.8553C0.774205 24.0531 1.55969 25.8375 1.55969 25.8375C1.55969 25.8375 4.15455 30.3972 5.21515 30.6311L5.29085 30.5776C5.33617 30.6012 5.38467 30.6193 5.43407 30.6311L5.65254 30.477C5.66569 30.6488 5.66025 30.8215 5.63577 30.9919C5.48983 31.442 5.69061 34.3799 5.94579 34.956C6.20097 35.5321 6.11032 43.0837 6.11032 43.0837L6.07452 43.75C6.07452 43.75 6.07452 43.7713 6.08313 43.8084L6.07452 43.9662L6.10081 43.9802C6.128 44.1914 6.11939 44.4058 6.07452 44.6143C5.98296 44.9067 5.94579 45.7334 5.94579 45.7334C5.94579 45.7334 5.21606 50.3992 5.5619 51.3365C5.90773 52.2743 6.20234 53.3013 6.20234 53.3013C6.20234 53.3013 6.56765 54.4707 6.21956 54.6706C5.87191 54.8705 4.88247 55.2054 5.08643 55.6927C5.27136 56.1432 5.9739 57.3493 6.0786 57.5256L6.06953 57.6185L5.9263 59.1709C5.94942 59.3758 6.00517 59.5757 6.09084 59.7633C6.24811 60.1014 6.55315 60.4523 7.13286 60.4142C7.23031 60.4074 7.34317 60.3956 7.4524 60.3811C8.51391 60.2388 9.82064 59.7651 9.82064 59.7651C9.75265 59.7221 9.69055 59.6709 9.63526 59.6124C9.58313 59.5616 9.54189 59.5013 9.51378 59.4343C9.48614 59.3672 9.47208 59.2951 9.47254 59.2226C9.4884 58.9398 8.959 57.5932 8.82756 57.2618C8.80716 57.2138 8.79628 57.1866 8.79628 57.1866C8.79628 57.1866 10.0028 55.9256 9.80205 54.8079C9.80205 54.8079 8.46678 54.0283 8.90643 53.6005C9.34608 53.1726 10.1316 51.9438 10.1316 51.9438C10.1316 51.9438 10.1674 47.3488 10.1316 46.663C10.0939 46.1866 10.1162 45.7076 10.1986 45.2371C10.2132 45.1659 10.2308 45.097 10.2494 45.0286C10.8572 45.1193 11.4709 45.1659 12.0855 45.1682C12.3094 45.1682 12.5374 45.1682 12.7677 45.1541C12.7677 45.2194 12.7704 45.2897 12.7763 45.3649C12.827 46.503 12.9213 48.4987 12.9984 49.2407C13.1076 50.3035 13.7109 53.169 13.7109 53.169C13.7109 53.169 12.5601 53.9073 13.9117 55.728C13.9117 55.728 13.9117 56.3875 13.8219 56.4831C13.7263 56.7954 13.6492 57.1127 13.5908 57.4341C13.5346 57.7772 13.511 58.1244 13.6026 58.3043C13.8219 58.7353 15.1377 58.7 15.1377 58.7L15.1694 58.6941C15.4178 58.6687 15.6689 58.6923 15.9082 58.7648C16.1471 58.8369 16.3697 58.9556 16.5623 59.1143C17.0622 59.5159 18.9595 59.3395 19.9866 59.2117C20.3891 59.161 20.6583 59.1143 20.6583 59.1143C20.671 59.0689 20.676 59.0214 20.6719 58.9738C20.661 58.7218 20.4634 58.1679 19.1222 57.6738C19.1222 57.6738 17.8613 56.8263 17.879 56.0875H17.8527H17.7063C17.8123 56.0816 17.8808 56.0875 17.8808 56.0875C17.8808 56.0875 17.3867 54.2844 17.5884 54.1385C17.7901 53.9921 17.186 51.9946 17.186 51.9946C17.186 51.9946 16.8401 48.6419 16.8215 48.4071C16.8225 48.2059 16.8528 48.0055 16.9122 47.8129L16.8215 45.975C16.8215 45.975 16.8039 45.364 16.8215 45.165C16.8184 44.9923 16.8043 44.8201 16.7794 44.6497C16.7708 44.5812 16.7622 44.5101 16.7522 44.4398C17.2249 44.3202 17.5318 44.2091 17.5318 44.2091L17.4774 37.8115C17.879 37.0319 17.9529 35.3213 17.951 34.108C17.951 33.3284 17.9157 32.7519 17.9157 32.7519L18.4646 31.8562C18.4646 31.8562 18.591 30.7843 18.3902 30.5491C18.3019 30.443 18.3417 30.3329 18.4147 30.2422C18.4528 30.2123 18.4927 30.1846 18.5348 30.1606C18.5348 30.1606 18.5289 30.1516 18.5221 30.1389C18.5602 30.1071 18.601 30.0781 18.6436 30.0523C18.6436 30.0523 18.4487 29.75 18.6232 29.6226C18.7868 29.7337 18.9332 29.8175 19.0443 29.8855C19.0366 29.9567 19.0289 29.9974 19.0289 29.9974L19.0756 29.9C19.1825 29.9607 19.2478 29.9974 19.2478 29.9974C19.2478 29.9974 20.1076 28.2855 20.089 28.0331C20.0704 27.7806 20.6737 26.7173 20.6737 26.7173C20.6737 26.7173 20.7467 26.1589 21.0762 25.9252C21.4057 25.6913 21.3314 23.9966 21.3314 23.9966C21.3314 23.9966 21.4229 23.1137 21.6423 22.7531C21.8617 22.3925 21.4424 21.9063 21.4424 21.9063ZM4.99669 21.1549L5.013 21.5632C4.91555 21.4063 4.84576 21.2933 4.84576 21.2933L4.99669 21.1549Z" fill="url(#paint0_linear_478_1720)"/>
<path d="M19.2999 29.2612L19.0892 30.1577C19.0892 30.1577 17.4035 29.297 17.0994 28.2037C16.7952 27.11 17.6079 26.6953 17.6079 26.6953L19.1789 27.3607L19.2999 29.2612Z" fill="white"/>
<path opacity="0.1" d="M19.2999 29.2612L19.0892 30.1577C19.0892 30.1577 17.4035 29.297 17.0994 28.2037C16.7952 27.11 17.6079 26.6953 17.6079 26.6953L19.1789 27.3607L19.2999 29.2612Z" fill="black"/>
<path d="M12.1474 13.5893C10.8607 13.0894 9.2063 11.4375 9.61921 10.6657C9.71122 10.471 9.76561 10.2608 9.78011 10.0459C9.80685 9.75435 9.81048 9.4611 9.7919 9.16888C9.76289 8.6903 9.70533 8.21389 9.61921 7.74219C9.61921 7.74219 13.6355 7.83279 13.4016 8.42433C13.3331 8.59779 13.3227 8.89893 13.3409 9.2361C13.3594 9.57327 13.4084 9.95432 13.4592 10.2769C13.529 10.7193 13.5992 11.0565 13.5992 11.0565C13.5992 11.0565 13.3535 11.4005 13.2094 11.419C13.0653 11.4375 13.9931 14.3017 12.1474 13.5893Z" fill="#E98A49"/>
<path opacity="0.1" d="M13.3991 8.42433C13.3311 8.59779 13.3202 8.89893 13.3388 9.2361C12.8008 9.56004 12.1826 9.72566 11.5548 9.71392C10.9266 9.70222 10.3152 9.51363 9.78942 9.16984C9.76086 8.69093 9.70331 8.2142 9.61719 7.74219C9.61719 7.74219 13.633 7.83084 13.3991 8.42433Z" fill="black"/>
<path d="M14.9495 6.27462C14.9504 6.6258 14.8951 6.97485 14.7858 7.30858C14.5415 8.0564 14.0412 8.6938 13.3722 9.10821C12.7036 9.52257 11.91 9.68724 11.1317 9.57306C10.3535 9.45889 9.64054 9.07326 9.11885 8.48426C8.59761 7.89531 8.30074 7.14096 8.2817 6.35453C8.2817 6.32724 8.2817 6.30191 8.2817 6.27462C8.27445 5.83198 8.35513 5.39223 8.5192 4.98105C8.68328 4.5699 8.92758 4.19552 9.23806 3.87978C9.54853 3.56409 9.91839 3.31331 10.3268 3.14216C10.7351 2.97097 11.1734 2.88281 11.6163 2.88281C12.0591 2.88281 12.4974 2.97097 12.9053 3.14216C13.3137 3.31331 13.684 3.56409 13.9945 3.87978C14.3045 4.19552 14.5492 4.5699 14.7133 4.98105C14.8774 5.39223 14.9581 5.83198 14.9504 6.27462H14.9495Z" fill="#F4AC75"/>
<path opacity="0.1" d="M12.1474 13.598C10.8607 13.0981 9.2063 11.4463 9.61921 10.6745C9.71122 10.4797 9.76561 10.2695 9.78011 10.0547L11.541 11.5019L12.6306 12.3955L13.4592 10.2866C13.529 10.7291 13.5992 11.0663 13.5992 11.0663C13.5992 11.0663 13.3535 11.4102 13.2094 11.4288C13.0653 11.4473 13.9931 14.3104 12.1474 13.598Z" fill="black"/>
<path d="M16.6985 19.9847L15.2282 44.6885L13.31 44.8145L8.34375 30.49L9.15869 13.4837L9.33002 9.89062L11.5383 11.7042L12.6288 12.5978L13.4818 10.4276L15.0673 11.8095L16.6985 19.9847Z" fill="#6C63FF"/>
<path opacity="0.1" d="M13.917 45.1064C9.92157 45.7885 6.26202 43.8327 6.26202 43.8327L6.29692 43.1701C6.29692 43.1701 6.38757 35.6574 6.13647 35.0814C5.88492 34.5057 5.68911 31.585 5.83143 31.1367C5.97375 30.6885 5.31201 23.9662 5.31201 23.9662L5.20459 21.2376L1.28125 19.6481L3.03533 15.9917C3.27238 15.4791 3.47634 14.9517 3.64541 14.413C3.95044 13.4638 5.3664 12.5312 5.3664 12.5312C5.3664 12.5312 6.81861 11.5995 7.39243 11.6346C7.9667 11.6697 8.71864 10.8102 8.71864 10.8102C9.27433 9.39421 9.77698 10.0355 9.77698 10.0355C9.77698 10.1027 9.77698 10.0355 9.74979 10.245C9.55489 11.7993 12.9012 16.7109 12.9493 16.7977L13.2679 24.5607L13.5906 34.3847L13.917 45.1064Z" fill="black"/>
<path d="M13.8103 45.1044C9.81491 45.7865 6.15446 43.8307 6.15446 43.8307L6.19072 43.1681C6.19072 43.1681 6.28137 35.6554 6.02891 35.0794C5.77645 34.5037 5.58155 31.583 5.72478 31.1347C5.868 30.6865 5.20535 23.9642 5.20535 23.9642L5.09748 21.2355L1.17188 19.6403L2.92595 15.9839C3.16255 15.471 3.36606 14.9438 3.53603 14.4052C3.84016 13.456 5.25702 12.5234 5.25702 12.5234C5.25702 12.5234 6.70924 11.5917 7.28215 11.6268C7.85506 11.6619 8.60836 10.8024 8.60836 10.8024C9.16495 9.3864 9.77774 10.0277 9.77774 10.0277C9.77774 10.0949 9.71927 10.1251 9.75055 10.2372C10.1793 11.7448 12.795 16.7031 12.8426 16.7898L13.1653 24.5528L13.4881 34.3768L13.8103 45.1044Z" fill="white"/>
<path opacity="0.1" d="M12.7355 17.0119C12.3058 16.8326 10.0292 14.2335 10.0292 14.2335V13.642C9.94623 13.4471 9.45445 13.566 9.05469 13.7024L9.22647 10.1094L9.42136 10.2711C9.84787 11.7777 12.6857 16.9251 12.7355 17.0119Z" fill="black"/>
<path d="M12.8458 16.7931C12.4152 16.6138 10.1385 14.0148 10.1385 14.0148V13.4233C10.0556 13.2284 9.56383 13.3472 9.16406 13.4837L9.33675 9.89062L9.53164 10.0524C9.95951 11.559 12.7982 16.7074 12.8458 16.7931Z" fill="white"/>
<path opacity="0.1" d="M6.26625 29.763C6.31973 29.763 9.04467 29.4766 9.04467 29.4766C9.04467 29.4766 10.6945 32.7205 10.5862 33.51C10.4779 34.2991 10.2821 34.9981 9.61849 34.8743C8.95493 34.7506 6.04688 34.9718 6.04688 34.9718L6.26625 29.763Z" fill="black"/>
<path d="M6.16469 29.5521C6.21817 29.5521 8.94266 29.2656 8.94266 29.2656C8.94266 29.2656 10.5916 32.5104 10.4846 33.2991C10.3772 34.0873 10.1796 34.7871 9.51693 34.6634C8.85428 34.5396 5.94531 34.7608 5.94531 34.7608L6.16469 29.5521Z" fill="white"/>
<path d="M8.20904 28.0234C8.20904 28.0234 10.7096 29.3673 10.7631 29.7775C10.8166 30.1882 9.49037 29.5985 9.20392 29.5273C9.01536 29.482 8.82319 29.4516 8.63011 29.4376L6.71875 29.4892L8.20904 28.0234Z" fill="#CF6F80"/>
<path opacity="0.1" d="M12.0445 17.1901C12.1895 17.1901 12.3073 17.0724 12.3073 16.9271C12.3073 16.7818 12.1895 16.6641 12.0445 16.6641C11.8991 16.6641 11.7812 16.7818 11.7812 16.9271C11.7812 17.0724 11.8991 17.1901 12.0445 17.1901Z" fill="black"/>
<path d="M12.0445 17.0807C12.1895 17.0807 12.3073 16.963 12.3073 16.8177C12.3073 16.6724 12.1895 16.5547 12.0445 16.5547C11.8991 16.5547 11.7812 16.6724 11.7812 16.8177C11.7812 16.963 11.8991 17.0807 12.0445 17.0807Z" fill="#3F3D56"/>
<path opacity="0.1" d="M12.5211 28.5807C12.6665 28.5807 12.7838 28.4629 12.7838 28.3175C12.7838 28.1725 12.6665 28.0547 12.5211 28.0547C12.3756 28.0547 12.2578 28.1725 12.2578 28.3175C12.2578 28.4629 12.3756 28.5807 12.5211 28.5807Z" fill="black"/>
<path d="M12.5211 28.4635C12.6665 28.4635 12.7838 28.3457 12.7838 28.2007C12.7838 28.0553 12.6665 27.9375 12.5211 27.9375C12.3756 27.9375 12.2578 28.0553 12.2578 28.2007C12.2578 28.3457 12.3756 28.4635 12.5211 28.4635Z" fill="#3F3D56"/>
<path opacity="0.1" d="M12.2945 22.8776C12.4399 22.8776 12.5577 22.7599 12.5577 22.6146C12.5577 22.4693 12.4399 22.3516 12.2945 22.3516C12.1491 22.3516 12.0312 22.4693 12.0312 22.6146C12.0312 22.7599 12.1491 22.8776 12.2945 22.8776Z" fill="black"/>
<path d="M12.2945 22.7682C12.4399 22.7682 12.5577 22.6505 12.5577 22.5052C12.5577 22.3599 12.4399 22.2422 12.2945 22.2422C12.1491 22.2422 12.0312 22.3599 12.0312 22.5052C12.0312 22.6505 12.1491 22.7682 12.2945 22.7682Z" fill="#3F3D56"/>
<path d="M18.3627 29.3797C18.3627 29.3797 18.5422 29.6489 18.3627 29.7745C18.1832 29.9005 18.3804 30.2042 18.3804 30.2042C18.3804 30.2042 17.9331 30.4666 18.1298 30.7023C18.3265 30.938 18.2018 32.0031 18.2018 32.0031L17.6638 32.8942C17.6638 32.8942 17.696 33.468 17.6983 34.2435C17.6983 35.4542 17.6271 37.1557 17.2332 37.9312L17.2876 44.2957C17.2876 44.2957 15.4039 44.9838 13.8275 44.7744L13.5936 34.5613C13.5936 34.5613 13.9345 28.7701 14.06 27.6587C14.1339 27.0822 14.1638 26.5007 14.1498 25.9194C14.1498 25.9194 14.0963 24.1809 13.9159 23.374C13.9159 23.374 13.721 19.8784 13.7015 18.9107C13.6929 18.4478 13.7174 17.0971 13.7446 15.8127C13.7749 14.4084 13.8089 13.084 13.8089 13.084L13.4531 10.2697C13.4531 10.2697 13.8089 10.2336 13.9159 10.3769C13.9639 10.4217 14.0161 10.4619 14.0718 10.4967C14.686 10.9118 16.8552 12.1885 16.8552 12.1885C16.8552 12.1885 18.0559 12.666 18.3432 13.3501C18.6306 14.0342 18.8305 14.5195 18.9696 14.7144C19.1092 14.9093 19.1854 15.8254 19.1854 15.8254C19.1854 15.8254 19.5983 17.5113 19.921 17.7968C20.2437 18.0823 20.4794 19.8988 20.4794 19.8988L17.6289 22.1403C17.6289 22.1403 17.3783 25.8687 17.3248 26.013C17.2713 26.1571 18.3627 29.3797 18.3627 29.3797Z" fill="white"/>
<path d="M18.4696 29.3718C18.4696 29.3718 18.6482 29.6411 18.4696 29.7666C18.2915 29.8922 18.4864 30.1963 18.4864 30.1963C18.4864 30.1963 18.0422 30.4614 18.2371 30.6971C18.432 30.9333 18.3091 31.9984 18.3091 31.9984L17.7711 32.889C17.7711 32.889 17.8033 33.4629 17.806 34.2388C17.806 35.449 17.7349 37.1505 17.3415 37.9265L17.3949 44.291C17.3949 44.291 15.5081 44.979 13.9335 44.7692L13.7005 34.5566C13.7005 34.5566 14.0418 28.7649 14.1673 27.654C14.2408 27.077 14.2707 26.4955 14.2562 25.9143C14.2562 25.9143 14.2022 24.1758 14.0232 23.3689C14.0232 23.3689 13.8283 19.8733 13.8079 18.9056C13.7988 18.4427 13.8242 17.092 13.8505 15.8076C13.8809 14.4034 13.9149 13.079 13.9149 13.079L13.4453 10.2266C13.4453 10.2266 13.9149 10.2266 14.0232 10.3718C14.0708 10.4172 14.1229 10.4573 14.1791 10.4916C14.7928 10.9068 16.963 12.1834 16.963 12.1834C16.963 12.1834 18.1627 12.6609 18.4501 13.345C18.7379 14.0292 18.9373 14.5145 19.0779 14.7093C19.2184 14.9042 19.2922 15.8203 19.2922 15.8203C19.2922 15.8203 19.7056 17.5062 20.0279 17.7917C20.3506 18.0773 20.5836 19.8899 20.5836 19.8899L17.7331 22.1313C17.7331 22.1313 17.4824 25.8598 17.428 26.004C17.3736 26.1483 18.4696 29.3718 18.4696 29.3718Z" fill="white"/>
<path opacity="0.1" d="M15.065 13.9117L15.3225 14.6621L13.9682 16.0264C13.9981 14.6231 14.0321 13.2978 14.0321 13.2978L13.5625 10.4453C13.5625 10.4453 14.0321 10.4453 14.1404 10.5905C14.188 10.6358 14.2401 10.6757 14.2963 10.7094L15.448 14.0325L15.065 13.9117Z" fill="black"/>
<path d="M14.9478 13.6929L15.2062 14.4433L13.8514 15.8076C13.8818 14.4034 13.9158 13.079 13.9158 13.079L13.4453 10.2266C13.4453 10.2266 13.9158 10.2266 14.0232 10.3718C14.0708 10.4169 14.1229 10.457 14.1791 10.4916L15.3317 13.8138L14.9478 13.6929Z" fill="white"/>
<path opacity="0.1" d="M14.9495 6.27462C14.9504 6.6258 14.8951 6.97485 14.7858 7.30858C14.7673 7.31148 14.7487 7.31062 14.7306 7.30608C14.7124 7.30155 14.6952 7.29348 14.6807 7.28229C14.6553 6.4052 14.2234 5.58174 13.6922 4.88106C13.543 4.66953 13.3626 4.48215 13.1564 4.3256C12.9479 4.16909 12.6887 4.0958 12.4294 4.11996C12.137 4.15994 11.8787 4.35873 11.5836 4.38407C11.1938 4.4162 10.8448 4.14629 10.4578 4.13265C10.3005 4.13415 10.1455 4.16914 10.0027 4.23536C9.86038 4.30158 9.73346 4.39744 9.63057 4.5166C9.42752 4.75705 9.27613 5.03716 9.18729 5.33907C9.0341 5.79694 8.9507 6.27526 8.93982 6.75797C8.93484 7.03087 8.90855 7.37289 8.65518 7.47229C8.67422 7.27164 8.65156 7.06917 8.5881 6.87776C8.52465 6.68635 8.42266 6.51018 8.28759 6.36038L8.2817 6.35453C8.2817 6.32724 8.2817 6.30191 8.2817 6.27462C8.27445 5.83198 8.35513 5.39223 8.5192 4.98104C8.68328 4.5699 8.92758 4.19552 9.23806 3.87978C9.54853 3.56409 9.91839 3.31331 10.3268 3.14216C10.7351 2.97097 11.1734 2.88281 11.6163 2.88281C12.0591 2.88281 12.4974 2.97097 12.9053 3.14216C13.3137 3.31331 13.684 3.56409 13.9945 3.87978C14.3045 4.19552 14.5492 4.5699 14.7133 4.98104C14.8774 5.39223 14.9581 5.83198 14.9504 6.27462H14.9495Z" fill="black"/>
<path d="M12.9988 0.976174C12.4925 0.737991 11.9164 0.692938 11.3793 0.849491C11.1092 0.929399 10.8549 1.05903 10.5811 1.12429C9.99645 1.26562 9.3143 1.1126 8.8121 1.45467C8.53335 1.64957 8.3661 1.95751 8.21018 2.2567L7.82039 2.99926C7.60781 3.40564 7.39343 3.81882 7.30459 4.26614C7.2162 4.71345 7.26969 5.21434 7.55297 5.57395C7.75965 5.83611 8.06469 6.00077 8.28905 6.24734C8.42321 6.39732 8.52519 6.57341 8.58819 6.76454C8.6512 6.95573 8.67386 7.15788 8.65527 7.3583C8.90955 7.26086 8.93403 6.91779 8.93992 6.64493C8.9508 6.16222 9.0342 5.68391 9.18739 5.22603C9.27623 4.92403 9.42762 4.64388 9.63067 4.40356C9.73356 4.28449 9.86047 4.18868 10.0032 4.1225C10.146 4.05628 10.301 4.0212 10.4583 4.01961C10.8481 4.03326 11.198 4.30222 11.5837 4.27004C11.8761 4.2457 12.1353 4.0459 12.4295 4.00692C12.6892 3.98236 12.9485 4.05569 13.1565 4.21256C13.3627 4.36889 13.5431 4.55626 13.6918 4.76802C14.2239 5.4687 14.6554 6.29022 14.6808 7.16925C14.7909 7.25011 14.9496 7.14487 15.0044 7.02013C15.0588 6.8954 15.0611 6.74923 15.13 6.63034C15.2102 6.49291 15.3629 6.41985 15.483 6.31655C15.7867 6.05439 15.8629 5.61293 15.8511 5.21239C15.8393 4.8119 15.7613 4.40551 15.8375 4.01182C15.8833 3.7701 15.9866 3.54402 16.0433 3.30529C16.0999 3.06652 16.1067 2.79851 15.973 2.59292C15.7781 2.29078 15.3679 2.23136 15.0103 2.20308C14.6037 2.168 14.2402 2.21282 13.981 1.8708C13.8595 1.69231 13.7226 1.5247 13.5717 1.36987C13.52 1.31919 12.9988 0.997613 12.9988 0.976174Z" fill="#512E4E"/>
<path opacity="0.1" d="M2.40367 21.5312L1.38522 19.6484L1.0625 22.5535C1.0625 22.5535 1.24198 23.8437 1.20572 24.0416C1.16992 24.2394 1.94044 26.013 1.94044 26.013C1.94044 26.013 4.48726 30.5483 5.52702 30.7822L9.04016 28.2721L8.10828 27.0891C8.10828 27.0891 7.78602 26.9631 7.70489 27.0891C7.70489 27.0891 5.97528 24.1127 5.79579 23.8973C5.61676 23.682 5.65166 23.2522 5.65166 23.2522C5.65166 23.2522 5.38289 22.9657 5.47218 22.6967C5.56192 22.4278 4.95275 21.4952 4.95275 21.4952L5.50844 20.9757L2.40367 21.5312Z" fill="black"/>
<path d="M1.44351 19.4375L1.17428 19.6519L0.851562 22.5569C0.851562 22.5569 1.03105 23.8472 0.994794 24.045C0.958987 24.2428 1.73087 26.0165 1.73087 26.0165C1.73087 26.0165 4.27633 30.5517 5.31608 30.7856L8.83014 28.2755L7.89735 27.0925C7.89735 27.0925 7.57508 26.9665 7.49395 27.0925C7.49395 27.0925 5.76435 24.1161 5.58486 23.9008C5.40583 23.6854 5.44163 23.2556 5.44163 23.2556C5.44163 23.2556 5.17286 22.9691 5.2626 22.7002C5.35189 22.4312 4.74182 21.4986 4.74182 21.4986L5.2975 20.9792L1.44351 19.4375Z" fill="white"/>
<path opacity="0.1" d="M18.1347 30.8136C18.3296 31.0507 18.2067 32.1135 18.2067 32.1135L17.6687 33.0046C17.6687 33.0046 17.7009 33.5794 17.7032 34.354L16.7985 34.6368C16.7169 34.6622 16.6303 34.6681 16.546 34.6531C16.4617 34.6381 16.3819 34.6037 16.3139 34.552C16.2455 34.4999 16.1907 34.4328 16.1539 34.3553C16.1172 34.2783 16.0991 34.1931 16.1018 34.1074L16.2577 29.0781L18.3676 29.8849C18.1881 30.0096 18.3853 30.316 18.3853 30.316C18.3853 30.316 17.9379 30.577 18.1347 30.8136Z" fill="black"/>
<path d="M18.2449 30.7112C18.4398 30.9482 18.317 32.0124 18.317 32.0124L17.779 32.9031C17.779 32.9031 17.8112 33.4769 17.8144 34.2529L16.8933 34.5402C16.8131 34.5651 16.7284 34.5706 16.6459 34.5561C16.5634 34.5416 16.4854 34.5071 16.4188 34.4568C16.3522 34.4061 16.2982 34.3399 16.2624 34.2642C16.2262 34.1885 16.2085 34.1055 16.2112 34.0217L16.368 28.9766L18.4788 29.7834C18.2984 29.9084 18.4956 30.2135 18.4956 30.2135C18.4956 30.2135 18.05 30.4755 18.2449 30.7112Z" fill="white"/>
<path d="M18.9302 28.308C18.9302 28.308 18.7865 29.2231 18.428 29.2771C18.0695 29.3305 17.9086 30.7569 17.5509 30.7066C17.1933 30.6559 17.4304 29.38 17.4431 29.1325C17.4553 28.885 17.0533 27.8597 17.3542 27.6268C17.6552 27.3943 18.6084 27.6268 18.6084 27.6268L18.9302 28.308Z" fill="#CF6F80"/>
<path opacity="0.1" d="M19.7095 21.2627L20.3857 19.8984C20.3857 19.8984 20.655 20.9382 20.655 21.4937C20.655 22.0492 21.0312 22.1038 21.0312 22.1038C21.0312 22.1038 21.4432 22.591 21.2261 22.9457C21.0085 23.3004 20.921 24.1834 20.921 24.1834C20.921 24.1834 20.9922 25.8683 20.6695 26.1011C20.3468 26.3341 20.2797 26.8906 20.2797 26.8906C20.2797 26.8906 19.6873 27.9481 19.7054 28.1992C19.724 28.4507 18.8809 30.1531 18.8809 30.1531C18.8809 30.1531 19.2934 28.0374 16.8912 27.1236C16.8912 27.1236 16.8726 26.4052 17.0521 26.2085C17.2311 26.0116 17.5108 25.9219 17.3354 24.9269C17.16 23.932 17.285 22.743 17.285 22.5043C17.285 22.2655 17.8231 20.7765 17.8231 20.7765L19.7095 21.2627Z" fill="black"/>
<path d="M19.9935 19.7031L20.5841 19.898C20.5841 19.898 20.8538 20.9378 20.8538 21.4933C20.8538 22.0488 21.23 22.1034 21.23 22.1034C21.23 22.1034 21.6425 22.5906 21.4249 22.9453C21.2078 23.3001 21.1212 24.183 21.1212 24.183C21.1212 24.183 21.1924 25.8679 20.8697 26.101C20.547 26.334 20.4749 26.8901 20.4749 26.8901C20.4749 26.8901 19.8834 27.9475 19.902 28.1991C19.9206 28.4502 19.0766 30.153 19.0766 30.153C19.0766 30.153 19.4895 28.0373 17.0864 27.1231C17.0864 27.1231 17.0692 26.4047 17.2482 26.2079C17.4277 26.0111 17.7073 25.9215 17.5319 24.9265C17.3565 23.9315 17.4812 22.7426 17.4812 22.5039C17.4812 22.2651 18.0192 20.7761 18.0192 20.7761L19.9935 19.7031Z" fill="white"/>
<g opacity="0.1">
<path opacity="0.1" d="M15.4974 6.10229C15.3777 6.20563 15.2236 6.27969 15.1438 6.41707C15.0754 6.53501 15.0736 6.68018 15.0187 6.80687C14.9644 6.93359 14.8057 7.03689 14.6956 6.95698C14.6702 6.0799 14.2373 5.25643 13.7061 4.55475C13.5579 4.34304 13.3771 4.15562 13.1713 3.9993C12.9628 3.84247 12.7031 3.76918 12.4434 3.7937C12.151 3.83363 11.8936 4.03243 11.5985 4.05681C11.2087 4.08995 10.8588 3.81999 10.4717 3.80635C10.3145 3.80793 10.1594 3.84306 10.0171 3.90946C9.87435 3.97586 9.74789 4.07195 9.64545 4.19129C9.44195 4.43124 9.29101 4.71104 9.20218 5.01281C9.04898 5.47068 8.96559 5.949 8.95471 6.43171C8.94881 6.70357 8.92343 7.04274 8.67188 7.14408C8.67777 7.21606 8.67777 7.2884 8.67188 7.36042C8.92524 7.26297 8.95063 6.91995 8.95652 6.64705C8.9674 6.16434 9.05079 5.68602 9.20399 5.22815C9.29283 4.92615 9.44376 4.64599 9.64727 4.40568C9.75016 4.28666 9.87662 4.19084 10.0194 4.12462C10.1617 4.05844 10.3167 4.02336 10.474 4.02173C10.8638 4.03537 11.2146 4.30433 11.6003 4.27215C11.8927 4.24781 12.1519 4.04802 12.4452 4.00904C12.7049 3.98452 12.9646 4.05786 13.1731 4.21468C13.3793 4.37101 13.5597 4.55838 13.7084 4.77014C14.2392 5.47082 14.672 6.29234 14.6974 7.17137C14.8075 7.25223 14.9662 7.14699 15.021 7.02225C15.0754 6.89752 15.0772 6.75134 15.1457 6.63245C15.2254 6.49503 15.3795 6.42197 15.4992 6.31867C15.8033 6.05651 15.8795 5.61504 15.8677 5.21451C15.8677 5.20186 15.8677 5.18917 15.8677 5.17747C15.8491 5.52444 15.7566 5.87815 15.4974 6.10229Z" fill="black"/>
<path opacity="0.1" d="M8.2981 6.04089C8.0742 5.79432 7.76825 5.62961 7.56248 5.36844C7.38934 5.13724 7.29053 4.85894 7.27875 4.57031C7.24838 4.93096 7.349 5.29057 7.56248 5.58283C7.76825 5.84499 8.0742 6.00966 8.2981 6.25622C8.5134 6.4974 8.64258 6.80312 8.66569 7.12551C8.68065 6.9293 8.65572 6.73209 8.59272 6.54572C8.52927 6.35934 8.42909 6.1876 8.2981 6.04089Z" fill="black"/>
<path opacity="0.1" d="M16.0518 3.09924C15.9943 3.33797 15.8918 3.56505 15.8452 3.80573C15.8175 3.96658 15.8075 4.12998 15.8148 4.29302C15.8184 4.20014 15.8284 4.10764 15.8452 4.01626C15.8918 3.77454 15.9943 3.54846 16.0518 3.30973C16.0854 3.17802 16.0963 3.04159 16.084 2.90625C16.0781 2.97129 16.0672 3.03574 16.0518 3.09924Z" fill="black"/>
</g>
<path d="M27.7691 0.484375H27.7333C26.3128 0.484375 25.0564 1.23718 24.3339 2.34805C23.611 1.23718 22.355 0.484375 20.9341 0.484375H20.8987C19.8322 0.494528 18.8133 0.92566 18.0627 1.68404C17.3122 2.44242 16.8911 3.46676 16.8906 4.53453C16.8906 5.86042 17.4703 7.74173 18.6012 9.28981C20.755 12.2396 24.3339 14.8203 24.3339 14.8203C24.3339 14.8203 27.9123 12.2401 30.0662 9.28981C31.1975 7.74173 31.7767 5.86042 31.7767 4.53453C31.7763 3.46685 31.3548 2.44255 30.6046 1.68422C29.854 0.925842 28.8351 0.494664 27.7691 0.484375ZM27.2583 9.51675C27.0965 9.51612 26.9387 9.46653 26.8055 9.37448C26.6727 9.28242 26.5702 9.1522 26.5122 9.00091H25.6628C25.6071 9.00055 25.5527 8.98273 25.5074 8.94987C25.462 8.91706 25.4281 8.87092 25.4104 8.81779L25.1493 8.03068L24.3239 10.9194C24.3076 10.975 24.2741 11.0239 24.2278 11.0587C24.1816 11.0936 24.1254 11.1124 24.0679 11.1125H24.0511C23.9908 11.1096 23.9332 11.086 23.8884 11.0457C23.843 11.0055 23.8131 10.951 23.8036 10.8913L22.9529 5.76696L22.331 8.79921C22.3169 8.85682 22.2839 8.90799 22.2372 8.94452C22.1905 8.9811 22.1329 9.00091 22.0736 9.00091H20.877C20.8412 9.00241 20.8054 8.99665 20.7718 8.98396C20.7383 8.97126 20.7075 8.95187 20.6816 8.92703C20.6558 8.90214 20.6349 8.87228 20.6209 8.83919C20.6068 8.80615 20.5996 8.77057 20.5996 8.73462C20.5996 8.69868 20.6068 8.6631 20.6209 8.63001C20.6349 8.59697 20.6558 8.5671 20.6816 8.54222C20.7075 8.51734 20.7383 8.49798 20.7718 8.48529C20.8054 8.4726 20.8412 8.4668 20.877 8.46834H21.8641L22.7448 4.39149C22.7593 4.3312 22.7942 4.27781 22.8436 4.24046C22.893 4.20311 22.9538 4.18412 23.0154 4.18671C23.0775 4.18929 23.1364 4.21331 23.1827 4.2547C23.2289 4.29603 23.2588 4.35214 23.2683 4.41342L24.1372 9.64072L24.8769 7.05615C24.8923 7.00171 24.9249 6.95371 24.9698 6.91935C25.0147 6.885 25.0695 6.86605 25.1262 6.86542H25.1312C25.1874 6.86546 25.2418 6.88319 25.2871 6.91605C25.3324 6.94891 25.366 6.99527 25.3836 7.04853L25.8555 8.46979H26.5018C26.548 8.32992 26.6314 8.2055 26.7434 8.11027C26.8558 8.015 26.9918 7.95263 27.1373 7.93001C27.2823 7.9074 27.431 7.92543 27.5669 7.98209C27.7025 8.03875 27.8199 8.13189 27.906 8.25114C27.9925 8.37044 28.0438 8.51126 28.0551 8.65802C28.0664 8.80483 28.0374 8.95191 27.9703 9.08304C27.9033 9.21416 27.8017 9.32426 27.6762 9.40113C27.5511 9.478 27.407 9.51866 27.2596 9.51866L27.2583 9.51675Z" fill="#FF1600"/>
</g>
<defs>
<linearGradient id="paint0_linear_478_1720" x1="11.184" y1="60.4192" x2="11.184" y2="0.453218" gradientUnits="userSpaceOnUse">
<stop stop-color="#808080" stop-opacity="0.25"/>
<stop offset="0.54" stop-color="#808080" stop-opacity="0.12"/>
<stop offset="1" stop-color="#808080" stop-opacity="0.1"/>
</linearGradient>
</defs>
</svg>
