<svg width="22" height="22" viewBox="0 0 22 22" fill="none" xmlns="http://www.w3.org/2000/svg">
<g id="Cellular Data">
<path id="Shape" d="M2.75 16C3.1297 16 3.44349 16.2822 3.49315 16.6483L3.5 16.75V18.25C3.5 18.6642 3.16421 19 2.75 19C2.3703 19 2.05651 18.7179 2.00685 18.3518L2 18.25V16.75C2 16.3358 2.33579 16 2.75 16ZM10.75 10C11.1297 10 11.4435 10.2822 11.4932 10.6483L11.5 10.75V18.25C11.5 18.6642 11.1642 19 10.75 19C10.3703 19 10.0565 18.7179 10.0068 18.3518L10 18.25V10.75C10 10.3358 10.3358 10 10.75 10ZM14.75 7.00004C15.1297 7.00004 15.4435 7.28219 15.4932 7.64826L15.5 7.75004V18.25C15.5 18.6642 15.1642 19 14.75 19C14.3703 19 14.0565 18.7179 14.0068 18.3518L14 18.25V7.75004C14 7.33582 14.3358 7.00004 14.75 7.00004ZM18.7427 4.00004C19.1224 3.99639 19.4389 4.27526 19.4921 4.64054L19.5 4.74216V18.2432C19.504 18.6571 19.1715 18.9958 18.7573 18.9999C18.3776 19.0035 18.0611 18.7246 18.0079 18.3594L18 18.2577V4.7567C17.996 4.34284 18.3285 4.00409 18.7427 4.00004ZM6.75 13C7.1297 13 7.44349 13.2822 7.49315 13.6483L7.5 13.75V18.2488C7.5 18.663 7.16421 18.9988 6.75 18.9988C6.3703 18.9988 6.05651 18.7166 6.00685 18.3505L6 18.2488V13.75C6 13.3358 6.33579 13 6.75 13Z" fill="#3278B2"/>
</g>
</svg>
