<svg width="149" height="149" viewBox="0 0 149 149" fill="none" xmlns="http://www.w3.org/2000/svg">
<rect width="149" height="149" rx="74.5" fill="#341F97"/>
<path fill-rule="evenodd" clip-rule="evenodd" d="M103.974 34.0002C103.016 34.0002 102.114 34.1063 101.271 34.314C99.6009 34.7235 98.0822 35.5923 96.8896 36.8201C96.2428 37.483 95.6774 38.2188 95.2044 39.0123H95.0996V34.6209H90.8209V61.0777H95.0996V45.9905C95.0996 44.7767 95.2747 43.6668 95.6219 42.663C96.1324 41.182 97.0678 39.8805 98.3134 38.9177C99.0983 38.3251 100.008 37.9151 100.975 37.7177C101.464 37.6162 101.977 37.5655 102.511 37.5655C103.545 37.5655 104.452 37.7431 105.228 38.0939C106.004 38.4415 106.674 38.9861 107.169 39.6723C107.687 40.3738 108.074 41.253 108.335 42.3053C108.591 43.3575 108.721 44.5852 108.721 45.9905V61.0777H113V44.906C113 44.0221 112.954 43.1914 112.856 42.4137C112.768 41.6776 112.621 40.9493 112.42 40.2354C112.239 39.5917 111.996 38.9666 111.695 38.3685C111.416 37.8159 111.075 37.2958 110.679 36.8178C109.923 35.8943 108.949 35.1691 107.843 34.7063C107.262 34.4641 106.655 34.2861 106.034 34.1756C105.354 34.0553 104.666 33.9966 103.974 34.0002ZM68.6041 50.7581C66.2433 50.7581 63.9851 50.9473 61.8316 51.3304C60.7526 51.5219 59.7016 51.7619 58.6762 52.048C54.617 53.1693 50.843 55.1275 47.6016 57.794C45.9392 59.1556 44.4169 60.6769 43.0571 62.3354C41.0393 64.8107 39.4344 67.5895 38.3029 70.5667C37.9207 71.5727 37.5828 72.6043 37.2961 73.6681C37.0071 74.7319 36.7671 75.828 36.5736 76.9518C36.1824 79.2971 35.9907 81.6707 36.0003 84.0476C36.0003 86.3598 36.1705 88.5615 36.5131 90.652C36.8533 92.7408 37.366 94.7202 38.0489 96.5873C39.7138 101.193 42.5687 105.287 46.3291 108.46C48.5414 110.321 51.0484 111.809 53.7494 112.863C55.5673 113.576 57.5016 114.109 59.5455 114.465C61.5893 114.822 63.7497 115 66.0196 115C67.7791 115 69.4688 114.924 71.0815 114.771C72.635 114.628 74.1794 114.4 75.7075 114.088C77.178 113.786 78.574 113.405 79.9024 112.95C81.1919 112.511 82.4472 111.978 83.6595 111.359V104.293C82.4867 104.985 81.2587 105.594 79.977 106.113C78.6975 106.632 77.3645 107.066 75.9755 107.413C74.5865 107.759 73.1463 108.019 71.6501 108.192C70.1539 108.366 68.6041 108.453 67.0007 108.453C65.3444 108.459 63.691 108.319 62.06 108.033C60.5381 107.765 59.048 107.343 57.6134 106.773C56.2233 106.218 54.8986 105.514 53.6632 104.673C52.4094 103.817 51.2509 102.832 50.2071 101.733C49.1502 100.612 48.2167 99.3812 47.4221 98.0643C46.6136 96.7216 45.946 95.3002 45.4295 93.8227C44.8851 92.2566 44.4857 90.6447 44.2363 89.0066C43.9654 87.2225 43.8329 85.4208 43.8402 83.6159C43.8402 81.6225 43.98 79.7279 44.2643 77.9325C44.5486 76.1396 44.9751 74.4481 45.5414 72.8535C46.11 71.2612 46.8209 69.7682 47.6715 68.3767C49.3707 65.6016 51.6438 63.214 54.3414 61.3708C55.6573 60.4755 57.0678 59.7249 58.548 59.1324C60.0721 58.5271 61.6551 58.0787 63.2719 57.794C64.9335 57.494 66.6815 57.3463 68.5155 57.3463C69.8952 57.3463 71.2469 57.4225 72.5707 57.5771C73.8897 57.734 75.1808 57.9694 76.4439 58.2786C78.961 58.8972 81.3862 59.8365 83.6595 61.0731V53.3149C82.6248 52.8746 81.5632 52.5008 80.4804 52.1957C79.3066 51.8652 78.1155 51.5987 76.9124 51.3973C75.6007 51.1771 74.2794 51.0169 72.9528 50.9173C71.5059 50.8079 70.0552 50.7563 68.6041 50.7581Z" fill="white"/>
</svg>
