<svg width="106" height="100" viewBox="0 0 106 100" fill="none" xmlns="http://www.w3.org/2000/svg">
<path d="M55.8166 24.3929L83.2289 41.7447L78.117 45.4642L52.78 29.4261L27.6875 45.4577L22.6094 41.7283L49.7223 24.4061C51.5891 23.2131 53.9448 23.2081 55.8166 24.3929Z" fill="#8512E0"/>
<path fill-rule="evenodd" clip-rule="evenodd" d="M2.56403 40.8811C-0.838373 38.3823 -0.674881 33.0982 2.875 30.83L49.724 0.898133C51.5908 -0.294653 53.9465 -0.299708 55.8183 0.885056L103.106 30.818C106.683 33.0823 106.847 38.4011 103.416 40.8973L56.1303 75.3025C54.114 76.7693 51.4245 76.7635 49.4143 75.2872L2.56403 40.8811ZM6.03905 35.7824L52.7817 5.91825L99.9625 35.7836C99.9766 35.7924 99.9763 35.7933 99.9763 35.7933C99.9763 35.7933 99.9766 35.7933 99.981 35.8012C99.9919 35.8212 100.012 35.8735 100.015 35.9517C100.017 36.0301 100 36.0865 99.9884 36.1118C99.9834 36.1224 99.9793 36.1277 99.9793 36.1277C99.9793 36.1277 99.9749 36.1336 99.959 36.145L52.7832 70.47L6.04261 36.1444C6.02733 36.133 6.02224 36.1265 6.02224 36.1265C6.02224 36.1265 6.01783 36.1209 6.01281 36.1101C6.00094 36.0845 5.98401 36.0284 5.98642 35.9508C5.9888 35.8729 6.00905 35.8212 6.02001 35.8009C6.02448 35.7927 6.02518 35.7924 6.02518 35.7924C6.02518 35.7924 6.02536 35.7912 6.03905 35.7824Z" fill="#8512E0"/>
<path d="M6.68297 51.9071L11.7612 55.6365L6.03905 59.2925C6.03082 59.2977 6.02674 59.301 6.02521 59.3025C6.0245 59.3033 6.02268 59.306 6.02001 59.311C6.00905 59.3312 5.9888 59.383 5.98642 59.4608C5.98401 59.5384 6.00094 59.5945 6.01281 59.6201C6.01504 59.6251 6.01698 59.6286 6.01854 59.6313C6.02042 59.6342 6.02171 59.636 6.02221 59.6365C6.02262 59.6371 6.02733 59.643 6.04261 59.6545L52.7832 93.98L99.959 59.6551C99.9748 59.6436 99.9792 59.6377 99.9792 59.6377C99.9795 59.6371 99.981 59.6357 99.9828 59.6324C99.9842 59.6301 99.986 59.6266 99.9883 59.6219C100 59.5966 100.017 59.5402 100.015 59.4617C100.012 59.3836 99.9919 59.3313 99.981 59.3113L99.9763 59.3033C99.9757 59.3027 99.976 59.3027 99.9763 59.3033C99.9748 59.3019 99.9704 59.2986 99.9625 59.2936L94.1436 55.6101L99.2555 51.8906L103.106 54.328C106.683 56.5924 106.847 61.9112 103.416 64.4073L56.1303 98.8125C54.114 100.279 51.4245 100.273 49.4143 98.7972L2.56403 64.3912C-0.838373 61.8924 -0.674881 56.6082 2.875 54.3401L6.68297 51.9071Z" fill="#8512E0"/>
</svg>
