<svg width="22" height="22" viewBox="0 0 22 22" fill="none" xmlns="http://www.w3.org/2000/svg">
<path d="M8.79844 17.8687C8.79844 17.4131 9.1678 17.0438 9.62344 17.0438H12.3734C12.8291 17.0438 13.1984 17.4131 13.1984 17.8687C13.1984 18.3244 12.8291 18.6938 12.3734 18.6938H9.62344C9.1678 18.6938 8.79844 18.3244 8.79844 17.8687Z" fill="#19BB7D"/>
<path fill-rule="evenodd" clip-rule="evenodd" d="M4.39844 4.39375C4.39844 2.57121 5.8759 1.09375 7.69844 1.09375H14.2984C16.121 1.09375 17.5984 2.57121 17.5984 4.39375V17.5938C17.5984 19.4163 16.121 20.8938 14.2984 20.8938H7.69844C5.8759 20.8938 4.39844 19.4163 4.39844 17.5938V4.39375ZM8.79844 2.74375V3.56875C8.79844 4.02438 9.1678 4.39375 9.62344 4.39375H12.3734C12.8291 4.39375 13.1984 4.02438 13.1984 3.56875V2.74375H14.2984C15.2097 2.74375 15.9484 3.48248 15.9484 4.39375V17.5938C15.9484 18.505 15.2097 19.2437 14.2984 19.2437H7.69844C6.78717 19.2437 6.04844 18.505 6.04844 17.5938V4.39375C6.04844 3.48248 6.78717 2.74375 7.69844 2.74375H8.79844Z" fill="#19BB7D"/>
</svg>
