<svg width="149" height="149" viewBox="0 0 149 149" fill="none" xmlns="http://www.w3.org/2000/svg">
<circle cx="74.0703" cy="74.5234" r="74" fill="white"/>
<g clip-path="url(#clip0_419_4257)">
<path fill-rule="evenodd" clip-rule="evenodd" d="M23.9264 60.5234H32.5179C39.9448 60.5234 45.9654 66.6082 45.9654 74.1141C45.9654 81.6201 39.9448 87.7049 32.5179 87.7049H27.1637C22.6939 87.7049 19.0703 84.0428 19.0703 79.5253V65.4312C19.0703 62.7207 21.2444 60.5234 23.9264 60.5234Z" fill="#0089FF"/>
<g filter="url(#filter0_d_419_4257)">
<path d="M24.9591 78.2757C25.8035 81.1098 28.3937 83.0862 31.366 83.0862C34.3383 83.0862 36.9285 81.1098 37.7729 78.2757C37.9116 77.8099 37.6505 77.3186 37.1895 77.1783C36.7286 77.038 36.2424 77.3019 36.1036 77.7678C35.4796 79.8627 33.5638 81.3245 31.366 81.3245C29.1682 81.3245 27.2524 79.8626 26.6283 77.7678C26.4895 77.3019 26.0033 77.038 25.5424 77.1783C25.0815 77.3186 24.8203 77.8099 24.9591 78.2757Z" fill="black"/>
</g>
<path d="M24.9591 78.2679C25.8035 81.1019 28.3937 83.0784 31.366 83.0784C34.3383 83.0784 36.9285 81.102 37.7729 78.2679C37.9116 77.8021 37.6505 77.3107 37.1895 77.1705C36.7286 77.0302 36.2424 77.2941 36.1036 77.76C35.4796 79.8549 33.5638 81.3166 31.366 81.3166C29.1682 81.3166 27.2524 79.8548 26.6283 77.76C26.4895 77.2941 26.0033 77.0302 25.5424 77.1705C25.0815 77.3107 24.8203 77.8021 24.9591 78.2679Z" fill="white"/>
<path opacity="0.5" fill-rule="evenodd" clip-rule="evenodd" d="M30.3984 87.7088H32.3907V82.1719H30.3984V87.7088Z" fill="white"/>
<path opacity="0.5" fill-rule="evenodd" clip-rule="evenodd" d="M25.3263 79.3282L24.5534 71.164C24.4782 70.3691 25.057 69.6605 25.8434 69.5845L27.1215 69.4609L27.197 70.2582L25.9189 70.3817C25.5674 70.4158 25.3088 70.7325 25.3424 71.0878L26.1151 79.252L25.3263 79.3282Z" fill="white"/>
<path opacity="0.5" fill-rule="evenodd" clip-rule="evenodd" d="M37.3323 79.3374L38.1468 71.1774C38.2261 70.3828 37.6511 69.6712 36.865 69.5912L35.5874 69.4609L35.5078 70.2578L36.7854 70.388C37.1368 70.4237 37.3938 70.7419 37.3584 71.097L36.5439 79.257L37.3323 79.3374Z" fill="white"/>
<g filter="url(#filter1_d_419_4257)">
<path d="M26.5513 68.7109H27.4229C27.9042 68.7109 28.2945 69.1053 28.2945 69.5918V70.0952C28.2945 70.5817 27.9042 70.9761 27.4229 70.9761H26.5513C26.0699 70.9761 25.6797 70.5817 25.6797 70.0952V69.5918C25.6797 69.1053 26.0699 68.7109 26.5513 68.7109Z" fill="black"/>
</g>
<path d="M26.5435 68.7031H27.4151C27.8964 68.7031 28.2866 69.0975 28.2866 69.584V70.0874C28.2866 70.5739 27.8964 70.9682 27.4151 70.9682H26.5435C26.0621 70.9682 25.6719 70.5739 25.6719 70.0874V69.584C25.6719 69.0975 26.0621 68.7031 26.5435 68.7031Z" fill="white"/>
<g filter="url(#filter2_d_419_4257)">
<path d="M35.2622 68.7109H36.1339C36.6152 68.7109 37.0054 69.1053 37.0054 69.5918V70.0952C37.0054 70.5817 36.6152 70.9761 36.1339 70.9761H35.2622C34.7809 70.9761 34.3906 70.5817 34.3906 70.0952V69.5918C34.3906 69.1053 34.7809 68.7109 35.2622 68.7109Z" fill="black"/>
</g>
<path d="M35.2544 68.7031H36.126C36.6074 68.7031 36.9976 69.0975 36.9976 69.584V70.0874C36.9976 70.5739 36.6074 70.9682 36.126 70.9682H35.2544C34.773 70.9682 34.3828 70.5739 34.3828 70.0874V69.584C34.3828 69.0975 34.773 68.7031 35.2544 68.7031Z" fill="white"/>
<path fill-rule="evenodd" clip-rule="evenodd" d="M75.183 70.5859C71.1058 70.5859 68.1328 73.474 68.1328 77.4662C68.1328 81.501 71.0633 84.474 75.183 84.474C79.2602 84.474 82.2332 81.501 82.2332 77.4662C82.2332 73.474 79.3027 70.5859 75.183 70.5859ZM75.2254 80.6516C73.4417 80.6516 72.295 79.2501 72.295 77.4662C72.295 75.7674 73.4841 74.3659 75.2254 74.3659C76.9668 74.3659 78.156 75.7674 78.156 77.4662C78.1135 79.2501 76.9668 80.6516 75.2254 80.6516Z" fill="#191B21"/>
<path fill-rule="evenodd" clip-rule="evenodd" d="M65.7115 63.5781H63.1633C62.6536 63.5781 62.2714 64.0028 62.2714 64.47V70.9681C61.5069 70.7132 60.6999 70.5859 59.8081 70.5859C55.7308 70.5859 52.7578 73.4739 52.7578 77.4662C52.7578 81.5009 55.6884 84.4739 59.8081 84.4739C60.6999 84.4739 61.5493 84.304 62.3563 84.0492C62.4837 84.389 62.8235 84.6438 63.2057 84.6438H65.754C66.2636 84.6438 66.6459 84.2191 66.6459 83.7518V64.47C66.6034 63.9604 66.1787 63.5781 65.7115 63.5781ZM59.8081 80.6515C58.0242 80.6515 56.8775 79.2499 56.8775 77.4662C56.8775 75.7673 58.0667 74.3658 59.8081 74.3658C61.5493 74.3658 62.7385 75.7673 62.7385 77.4662C62.7385 79.2499 61.5493 80.6515 59.8081 80.6515Z" fill="#191B21"/>
<path fill-rule="evenodd" clip-rule="evenodd" d="M106.23 70.5859C102.153 70.5859 99.1797 73.474 99.1797 77.4662C99.1797 81.501 102.11 84.474 106.23 84.474C110.307 84.474 113.28 81.501 113.28 77.4662C113.238 73.474 110.307 70.5859 106.23 70.5859ZM106.23 80.6516C104.446 80.6516 103.299 79.2501 103.299 77.4662C103.299 75.7674 104.489 74.3659 106.23 74.3659C107.972 74.3659 109.16 75.7674 109.16 77.4662C109.16 79.2501 107.972 80.6516 106.23 80.6516Z" fill="#191B21"/>
<path fill-rule="evenodd" clip-rule="evenodd" d="M96.5447 78.7863H94.2517C93.8694 78.7863 93.572 78.9986 93.4023 79.3809C93.02 80.2728 92.1278 80.8249 90.9816 80.8249C89.0702 80.8249 87.9233 79.4233 87.9233 77.5971C87.9233 75.7709 89.0702 74.3693 90.9816 74.3693C92.1278 74.3693 93.02 74.9214 93.4023 75.8133C93.572 76.1531 93.8694 76.4079 94.2517 76.4079H96.7573C97.3093 76.4079 97.7344 75.8558 97.6067 75.3036C96.8849 72.4581 94.2517 70.5469 90.9816 70.5469C86.7767 70.5469 83.7188 73.4774 83.7188 77.5546C83.7188 81.6743 86.7767 84.6048 90.9816 84.6048C94.1669 84.6048 96.7152 82.821 97.5218 80.1029C97.7344 79.4658 97.2244 78.7863 96.5447 78.7863Z" fill="#191B21"/>
<path fill-rule="evenodd" clip-rule="evenodd" d="M122.842 70.5859C121.696 70.5859 120.718 70.9257 119.784 71.5203C119.445 71.7327 119.02 71.4778 119.02 71.0956C119.02 70.7983 118.807 70.5859 118.51 70.5859H116.089C115.324 70.5859 114.688 71.2231 114.688 71.9875V83.7095C114.688 84.2191 115.07 84.6014 115.58 84.6014H118.468C118.978 84.6014 119.359 84.1767 119.359 83.7095V76.7867C119.359 75.9798 120.506 74.7906 121.907 74.7906C123.394 74.7906 124.414 75.725 124.414 77.7211V83.7095C124.414 84.2191 124.838 84.6439 125.305 84.6439H127.854C128.363 84.6439 128.746 84.2191 128.746 83.752V76.362C128.873 73.5589 126.367 70.5859 122.842 70.5859Z" fill="#191B21"/>
</g>
<defs>
<filter id="filter0_d_419_4257" x="23.3398" y="74.7675" width="16.0548" height="9.10946" filterUnits="userSpaceOnUse" color-interpolation-filters="sRGB">
<feFlood flood-opacity="0" result="BackgroundImageFix"/>
<feColorMatrix in="SourceAlpha" type="matrix" values="0 0 0 0 0 0 0 0 0 0 0 0 0 0 0 0 0 0 127 0" result="hardAlpha"/>
<feOffset dy="-0.791036"/>
<feGaussianBlur stdDeviation="0.791036"/>
<feColorMatrix type="matrix" values="0 0 0 0 0 0 0 0 0 0 0 0 0 0 0 0 0 0 0.1 0"/>
<feBlend mode="normal" in2="BackgroundImageFix" result="effect1_dropShadow_419_4257"/>
<feBlend mode="normal" in="SourceGraphic" in2="effect1_dropShadow_419_4257" result="shape"/>
</filter>
<filter id="filter1_d_419_4257" x="23.7021" y="67.1289" width="5.78133" height="5.42977" filterUnits="userSpaceOnUse" color-interpolation-filters="sRGB">
<feFlood flood-opacity="0" result="BackgroundImageFix"/>
<feColorMatrix in="SourceAlpha" type="matrix" values="0 0 0 0 0 0 0 0 0 0 0 0 0 0 0 0 0 0 127 0" result="hardAlpha"/>
<feOffset dx="-0.395517"/>
<feGaussianBlur stdDeviation="0.791036"/>
<feColorMatrix type="matrix" values="0 0 0 0 0 0 0 0 0 0 0 0 0 0 0 0 0 0 0.1 0"/>
<feBlend mode="normal" in2="BackgroundImageFix" result="effect1_dropShadow_419_4257"/>
<feBlend mode="normal" in="SourceGraphic" in2="effect1_dropShadow_419_4257" result="shape"/>
</filter>
<filter id="filter2_d_419_4257" x="33.2041" y="67.1289" width="5.78133" height="5.42977" filterUnits="userSpaceOnUse" color-interpolation-filters="sRGB">
<feFlood flood-opacity="0" result="BackgroundImageFix"/>
<feColorMatrix in="SourceAlpha" type="matrix" values="0 0 0 0 0 0 0 0 0 0 0 0 0 0 0 0 0 0 127 0" result="hardAlpha"/>
<feOffset dx="0.395517"/>
<feGaussianBlur stdDeviation="0.791036"/>
<feColorMatrix type="matrix" values="0 0 0 0 0 0 0 0 0 0 0 0 0 0 0 0 0 0 0.1 0"/>
<feBlend mode="normal" in2="BackgroundImageFix" result="effect1_dropShadow_419_4257"/>
<feBlend mode="normal" in="SourceGraphic" in2="effect1_dropShadow_419_4257" result="shape"/>
</filter>
<clipPath id="clip0_419_4257">
<rect width="110" height="27.8395" fill="white" transform="translate(19.0703 60.5234)"/>
</clipPath>
</defs>
</svg>
