<svg width="111" height="29" viewBox="0 0 111 29" fill="none" xmlns="http://www.w3.org/2000/svg">
<g id="61dc3c7b73f74ee633b43591_Logo 1" clip-path="url(#clip0_419_4259)">
<path id="Vector" fill-rule="evenodd" clip-rule="evenodd" d="M4.92638 0.523438H13.5179C20.9448 0.523438 26.9654 6.60822 26.9654 14.1141C26.9654 21.6201 20.9448 27.7049 13.5179 27.7049H8.16373C3.69387 27.7049 0.0703125 24.0428 0.0703125 19.5253V5.4312C0.0703125 2.72072 2.24445 0.523438 4.92638 0.523438Z" fill="#0089FF"/>
<g id="Group" filter="url(#filter0_d_419_4259)">
<path id="Vector_2" d="M5.95912 18.2757C6.80345 21.1098 9.39366 23.0862 12.366 23.0862C15.3383 23.0862 17.9285 21.1098 18.7729 18.2757C18.9116 17.8099 18.6505 17.3186 18.1895 17.1783C17.7286 17.038 17.2424 17.3019 17.1036 17.7678C16.4796 19.8627 14.5638 21.3245 12.366 21.3245C10.1682 21.3245 8.25238 19.8626 7.6283 17.7678C7.48951 17.3019 7.00333 17.038 6.54241 17.1783C6.08148 17.3186 5.82033 17.8099 5.95912 18.2757Z" fill="black"/>
</g>
<path id="Vector_3" d="M5.95912 18.2679C6.80345 21.1019 9.39366 23.0784 12.366 23.0784C15.3383 23.0784 17.9285 21.102 18.7729 18.2679C18.9116 17.8021 18.6505 17.3107 18.1895 17.1705C17.7286 17.0302 17.2424 17.2941 17.1036 17.76C16.4796 19.8549 14.5638 21.3166 12.366 21.3166C10.1682 21.3166 8.25238 19.8548 7.6283 17.76C7.48951 17.2941 7.00333 17.0302 6.54241 17.1705C6.08148 17.3107 5.82033 17.8021 5.95912 18.2679Z" fill="white"/>
<path id="Vector_4" opacity="0.5" fill-rule="evenodd" clip-rule="evenodd" d="M11.3984 27.7088H13.3907V22.1719H11.3984V27.7088Z" fill="white"/>
<path id="Vector_5" opacity="0.5" fill-rule="evenodd" clip-rule="evenodd" d="M6.32631 19.3282L5.55345 11.164C5.47825 10.3691 6.05699 9.6605 6.84342 9.58452L8.12155 9.46094L8.19699 10.2582L6.91888 10.3817C6.56737 10.4158 6.30875 10.7325 6.34237 11.0878L7.11512 19.252L6.32631 19.3282Z" fill="white"/>
<path id="Vector_6" opacity="0.5" fill-rule="evenodd" clip-rule="evenodd" d="M18.3323 19.3374L19.1468 11.1774C19.2261 10.3828 18.6511 9.67123 17.865 9.59117L16.5874 9.46094L16.5078 10.2578L17.7854 10.388C18.1368 10.4237 18.3938 10.7419 18.3584 11.097L17.5439 19.257L18.3323 19.3374Z" fill="white"/>
<g id="Group_2" filter="url(#filter1_d_419_4259)">
<path id="Vector_7" d="M7.55129 8.71094H8.42287C8.90423 8.71094 9.29446 9.10531 9.29446 9.59182V10.0952C9.29446 10.5817 8.90423 10.9761 8.42287 10.9761H7.55129C7.06994 10.9761 6.67969 10.5817 6.67969 10.0952V9.59182C6.67969 9.10531 7.06994 8.71094 7.55129 8.71094Z" fill="black"/>
</g>
<path id="Vector_8" d="M7.54348 8.70312H8.41506C8.89641 8.70312 9.28664 9.0975 9.28664 9.58401V10.0874C9.28664 10.5739 8.89641 10.9682 8.41506 10.9682H7.54348C7.06213 10.9682 6.67188 10.5739 6.67188 10.0874V9.58401C6.67188 9.0975 7.06213 8.70312 7.54348 8.70312Z" fill="white"/>
<g id="Group_3" filter="url(#filter2_d_419_4259)">
<path id="Vector_9" d="M16.2622 8.71094H17.1339C17.6152 8.71094 18.0054 9.10531 18.0054 9.59182V10.0952C18.0054 10.5817 17.6152 10.9761 17.1339 10.9761H16.2622C15.7809 10.9761 15.3906 10.5817 15.3906 10.0952V9.59182C15.3906 9.10531 15.7809 8.71094 16.2622 8.71094Z" fill="black"/>
</g>
<path id="Vector_10" d="M16.2544 8.70312H17.126C17.6074 8.70312 17.9976 9.0975 17.9976 9.58401V10.0874C17.9976 10.5739 17.6074 10.9682 17.126 10.9682H16.2544C15.773 10.9682 15.3828 10.5739 15.3828 10.0874V9.58401C15.3828 9.0975 15.773 8.70312 16.2544 8.70312Z" fill="white"/>
<path id="Vector_11" fill-rule="evenodd" clip-rule="evenodd" d="M56.183 10.5859C52.1058 10.5859 49.1328 13.474 49.1328 17.4662C49.1328 21.501 52.0633 24.474 56.183 24.474C60.2602 24.474 63.2332 21.501 63.2332 17.4662C63.2332 13.474 60.3027 10.5859 56.183 10.5859ZM56.2254 20.6516C54.4417 20.6516 53.295 19.2501 53.295 17.4662C53.295 15.7674 54.4841 14.3659 56.2254 14.3659C57.9668 14.3659 59.156 15.7674 59.156 17.4662C59.1135 19.2501 57.9668 20.6516 56.2254 20.6516Z" fill="#191B21"/>
<path id="Vector_12" fill-rule="evenodd" clip-rule="evenodd" d="M46.7115 3.57812H44.1633C43.6536 3.57812 43.2714 4.00283 43.2714 4.47001V10.9681C42.5069 10.7132 41.6999 10.5859 40.8081 10.5859C36.7308 10.5859 33.7578 13.4739 33.7578 17.4662C33.7578 21.5009 36.6884 24.4739 40.8081 24.4739C41.6999 24.4739 42.5493 24.304 43.3563 24.0492C43.4837 24.389 43.8235 24.6438 44.2057 24.6438H46.754C47.2636 24.6438 47.6459 24.2191 47.6459 23.7518V4.47001C47.6034 3.96036 47.1787 3.57812 46.7115 3.57812ZM40.8081 20.6515C39.0242 20.6515 37.8775 19.2499 37.8775 17.4662C37.8775 15.7673 39.0667 14.3658 40.8081 14.3658C42.5493 14.3658 43.7385 15.7673 43.7385 17.4662C43.7385 19.2499 42.5493 20.6515 40.8081 20.6515Z" fill="#191B21"/>
<path id="Vector_13" fill-rule="evenodd" clip-rule="evenodd" d="M87.2299 10.5859C83.1531 10.5859 80.1797 13.474 80.1797 17.4662C80.1797 21.501 83.1103 24.474 87.2299 24.474C91.3073 24.474 94.2801 21.501 94.2801 17.4662C94.238 13.474 91.3073 10.5859 87.2299 10.5859ZM87.2299 20.6516C85.4461 20.6516 84.2993 19.2501 84.2993 17.4662C84.2993 15.7674 85.4889 14.3659 87.2299 14.3659C88.9715 14.3659 90.1605 15.7674 90.1605 17.4662C90.1605 19.2501 88.9715 20.6516 87.2299 20.6516Z" fill="#191B21"/>
<path id="Vector_14" fill-rule="evenodd" clip-rule="evenodd" d="M77.5447 18.7863H75.2517C74.8694 18.7863 74.572 18.9986 74.4023 19.3809C74.02 20.2728 73.1278 20.8249 71.9816 20.8249C70.0702 20.8249 68.9233 19.4233 68.9233 17.5971C68.9233 15.7709 70.0702 14.3693 71.9816 14.3693C73.1278 14.3693 74.02 14.9214 74.4023 15.8133C74.572 16.1531 74.8694 16.4079 75.2517 16.4079H77.7573C78.3093 16.4079 78.7344 15.8558 78.6067 15.3036C77.8849 12.4581 75.2517 10.5469 71.9816 10.5469C67.7767 10.5469 64.7188 13.4774 64.7188 17.5546C64.7188 21.6743 67.7767 24.6048 71.9816 24.6048C75.1669 24.6048 77.7152 22.821 78.5218 20.1029C78.7344 19.4658 78.2244 18.7863 77.5447 18.7863Z" fill="#191B21"/>
<path id="Vector_15" fill-rule="evenodd" clip-rule="evenodd" d="M103.842 10.5859C102.696 10.5859 101.718 10.9257 100.784 11.5203C100.445 11.7327 100.02 11.4778 100.02 11.0956C100.02 10.7983 99.8071 10.5859 99.5097 10.5859H97.089C96.3244 10.5859 95.6875 11.2231 95.6875 11.9875V23.7095C95.6875 24.2191 96.0698 24.6014 96.5797 24.6014H99.4676C99.9775 24.6014 100.359 24.1767 100.359 23.7095V16.7867C100.359 15.9798 101.506 14.7906 102.907 14.7906C104.394 14.7906 105.414 15.725 105.414 17.7211V23.7095C105.414 24.2191 105.838 24.6439 106.305 24.6439H108.854C109.363 24.6439 109.746 24.2191 109.746 23.752V16.362C109.873 13.5589 107.367 10.5859 103.842 10.5859Z" fill="#191B21"/>
</g>
<defs>
<filter id="filter0_d_419_4259" x="4.3398" y="14.7675" width="16.0548" height="9.10946" filterUnits="userSpaceOnUse" color-interpolation-filters="sRGB">
<feFlood flood-opacity="0" result="BackgroundImageFix"/>
<feColorMatrix in="SourceAlpha" type="matrix" values="0 0 0 0 0 0 0 0 0 0 0 0 0 0 0 0 0 0 127 0" result="hardAlpha"/>
<feOffset dy="-0.791036"/>
<feGaussianBlur stdDeviation="0.791036"/>
<feColorMatrix type="matrix" values="0 0 0 0 0 0 0 0 0 0 0 0 0 0 0 0 0 0 0.1 0"/>
<feBlend mode="normal" in2="BackgroundImageFix" result="effect1_dropShadow_419_4259"/>
<feBlend mode="normal" in="SourceGraphic" in2="effect1_dropShadow_419_4259" result="shape"/>
</filter>
<filter id="filter1_d_419_4259" x="4.7021" y="7.12887" width="5.78133" height="5.42977" filterUnits="userSpaceOnUse" color-interpolation-filters="sRGB">
<feFlood flood-opacity="0" result="BackgroundImageFix"/>
<feColorMatrix in="SourceAlpha" type="matrix" values="0 0 0 0 0 0 0 0 0 0 0 0 0 0 0 0 0 0 127 0" result="hardAlpha"/>
<feOffset dx="-0.395517"/>
<feGaussianBlur stdDeviation="0.791036"/>
<feColorMatrix type="matrix" values="0 0 0 0 0 0 0 0 0 0 0 0 0 0 0 0 0 0 0.1 0"/>
<feBlend mode="normal" in2="BackgroundImageFix" result="effect1_dropShadow_419_4259"/>
<feBlend mode="normal" in="SourceGraphic" in2="effect1_dropShadow_419_4259" result="shape"/>
</filter>
<filter id="filter2_d_419_4259" x="14.2041" y="7.12887" width="5.78133" height="5.42977" filterUnits="userSpaceOnUse" color-interpolation-filters="sRGB">
<feFlood flood-opacity="0" result="BackgroundImageFix"/>
<feColorMatrix in="SourceAlpha" type="matrix" values="0 0 0 0 0 0 0 0 0 0 0 0 0 0 0 0 0 0 127 0" result="hardAlpha"/>
<feOffset dx="0.395517"/>
<feGaussianBlur stdDeviation="0.791036"/>
<feColorMatrix type="matrix" values="0 0 0 0 0 0 0 0 0 0 0 0 0 0 0 0 0 0 0.1 0"/>
<feBlend mode="normal" in2="BackgroundImageFix" result="effect1_dropShadow_419_4259"/>
<feBlend mode="normal" in="SourceGraphic" in2="effect1_dropShadow_419_4259" result="shape"/>
</filter>
<clipPath id="clip0_419_4259">
<rect width="110" height="27.8395" fill="white" transform="translate(0.0703125 0.523438)"/>
</clipPath>
</defs>
</svg>
