<svg width="22" height="22" viewBox="0 0 22 22" fill="none" xmlns="http://www.w3.org/2000/svg">
<path d="M8.75 3.5C8.61193 3.5 8.5 3.61193 8.5 3.75V7.75C8.5 8.16421 8.16421 8.5 7.75 8.5H3.75C3.61193 8.5 3.5 8.61193 3.5 8.75V13.25C3.5 13.3881 3.61193 13.5 3.75 13.5H7.75C8.16421 13.5 8.5 13.8358 8.5 14.25V18.25C8.5 18.3881 8.61193 18.5 8.75 18.5H13.25C13.3881 18.5 13.5 18.3881 13.5 18.25V14.25C13.5 13.8358 13.8358 13.5 14.25 13.5H18.25C18.3881 13.5 18.5 13.3881 18.5 13.25V8.75C18.5 8.61193 18.3881 8.5 18.25 8.5H14.25C13.8358 8.5 13.5 8.16421 13.5 7.75V3.75C13.5 3.61193 13.3881 3.5 13.25 3.5H8.75ZM7 3.75C7 2.7835 7.7835 2 8.75 2H13.25C14.2165 2 15 2.7835 15 3.75V7H18.25C19.2165 7 20 7.7835 20 8.75V13.25C20 14.2165 19.2165 15 18.25 15H15V18.25C15 19.2165 14.2165 20 13.25 20H8.75C7.7835 20 7 19.2165 7 18.25V15H3.75C2.7835 15 2 14.2165 2 13.25V8.75C2 7.7835 2.7835 7 3.75 7H7V3.75Z" fill="url(#paint0_linear_419_3443)"/>
<defs>
<linearGradient id="paint0_linear_419_3443" x1="18.4697" y1="2.89314" x2="8.65415" y2="21.9297" gradientUnits="userSpaceOnUse">
<stop stop-color="#00A0FF"/>
<stop offset="0.007" stop-color="#00A1FF"/>
<stop offset="0.26" stop-color="#00BEFF"/>
<stop offset="0.512" stop-color="#00D2FF"/>
<stop offset="0.76" stop-color="#00DFFF"/>
<stop offset="1" stop-color="#00E3FF"/>
</linearGradient>
</defs>
</svg>
