<svg width="194" height="52" viewBox="0 0 194 52" fill="none" xmlns="http://www.w3.org/2000/svg">
<path d="M28.8379 12.2077L43.028 20.8918L40.3818 22.7533L27.266 14.7267L14.2767 22.7501L11.6479 20.8836L25.6831 12.2143C26.6495 11.6173 27.8689 11.6148 28.8379 12.2077Z" fill="#8512E0"/>
<path fill-rule="evenodd" clip-rule="evenodd" d="M1.27067 20.4599C-0.490608 19.2093 -0.405975 16.5647 1.43165 15.4296L25.6833 0.449491C26.6497 -0.147466 27.8691 -0.149996 28.8381 0.442946L53.3167 15.4236C55.1685 16.5568 55.2534 19.2187 53.4775 20.468L28.9996 37.6868C27.9558 38.421 26.5636 38.418 25.523 37.6792L1.27067 20.4599ZM3.06953 17.9081L27.2662 2.96192L51.6896 17.9087C51.6969 17.9131 51.6968 17.9136 51.6968 17.9136C51.6968 17.9136 51.6969 17.9136 51.6992 17.9175C51.7048 17.9275 51.7155 17.9537 51.7167 17.9928C51.7179 18.0321 51.7091 18.0603 51.703 18.073C51.7004 18.0783 51.6983 18.0809 51.6983 18.0809C51.6983 18.0809 51.696 18.0839 51.6878 18.0896L27.2669 35.2683L3.07138 18.0893C3.06347 18.0836 3.06083 18.0803 3.06083 18.0803C3.06083 18.0803 3.05855 18.0775 3.05595 18.0721C3.04981 18.0593 3.04104 18.0312 3.04229 17.9924C3.04352 17.9534 3.054 17.9275 3.05968 17.9174C3.06199 17.9133 3.06236 17.9131 3.06236 17.9131C3.06236 17.9131 3.06245 17.9125 3.06953 17.9081Z" fill="#8512E0"/>
<path d="M3.40286 25.9766L6.03165 27.843L3.06953 29.6727C3.06527 29.6754 3.06316 29.677 3.06237 29.6777C3.062 29.6782 3.06106 29.6795 3.05968 29.682C3.054 29.6922 3.04352 29.718 3.04229 29.757C3.04104 29.7958 3.04981 29.8239 3.05595 29.8367C3.05711 29.8392 3.05811 29.841 3.05892 29.8423C3.05989 29.8438 3.06056 29.8447 3.06082 29.8449C3.06103 29.8452 3.06347 29.8482 3.07137 29.8539L27.2669 47.0329L51.6878 29.8542C51.696 29.8485 51.6983 29.8455 51.6983 29.8455C51.6984 29.8452 51.6992 29.8445 51.7001 29.8429C51.7009 29.8417 51.7018 29.8399 51.703 29.8376C51.7091 29.8249 51.7179 29.7967 51.7167 29.7574C51.7155 29.7183 51.7048 29.6922 51.6992 29.6822L51.6968 29.6782C51.6965 29.6779 51.6966 29.6779 51.6968 29.6782C51.696 29.6774 51.6937 29.6758 51.6896 29.6733L48.6774 27.8298L51.3236 25.9683L53.3167 27.1882C55.1685 28.3214 55.2534 30.9833 53.4775 32.2326L28.9996 49.4515C27.9558 50.1856 26.5636 50.1826 25.523 49.4438L1.27067 32.2245C-0.490608 30.9739 -0.405975 28.3294 1.43165 27.1942L3.40286 25.9766Z" fill="#8512E0"/>
<path d="M91.3215 30.1484H95.8215C95.5872 32.3047 94.97 34.2344 93.97 35.9375C92.97 37.6406 91.5559 38.9922 89.7278 39.9922C87.8997 40.9766 85.6184 41.4688 82.884 41.4688C80.884 41.4688 79.0637 41.0938 77.4231 40.3438C75.7981 39.5938 74.3997 38.5312 73.2278 37.1562C72.0559 35.7656 71.1497 34.1016 70.509 32.1641C69.884 30.2109 69.5715 28.0391 69.5715 25.6484V22.25C69.5715 19.8594 69.884 17.6953 70.509 15.7578C71.1497 13.8047 72.0637 12.1328 73.2512 10.7422C74.4543 9.35156 75.8997 8.28125 77.5872 7.53125C79.2747 6.78125 81.1731 6.40625 83.2825 6.40625C85.8606 6.40625 88.0403 6.89063 89.8215 7.85938C91.6028 8.82812 92.9856 10.1719 93.97 11.8906C94.97 13.5938 95.5872 15.5703 95.8215 17.8203H91.3215C91.1028 16.2266 90.6965 14.8594 90.1028 13.7188C89.509 12.5625 88.6653 11.6719 87.5715 11.0469C86.4778 10.4219 85.0481 10.1094 83.2825 10.1094C81.7668 10.1094 80.4309 10.3984 79.2747 10.9766C78.134 11.5547 77.1731 12.375 76.3918 13.4375C75.6262 14.5 75.0481 15.7734 74.6575 17.2578C74.2668 18.7422 74.0715 20.3906 74.0715 22.2031V25.6484C74.0715 27.3203 74.2434 28.8906 74.5872 30.3594C74.9465 31.8281 75.4856 33.1172 76.2043 34.2266C76.9231 35.3359 77.8372 36.2109 78.9465 36.8516C80.0559 37.4766 81.3684 37.7891 82.884 37.7891C84.8059 37.7891 86.3372 37.4844 87.4778 36.875C88.6184 36.2656 89.4778 35.3906 90.0559 34.25C90.6497 33.1094 91.0715 31.7422 91.3215 30.1484ZM104.6 5V41H100.241V5H104.6ZM125.074 36.6641V23.6094C125.074 22.6094 124.871 21.7422 124.465 21.0078C124.074 20.2578 123.481 19.6797 122.684 19.2734C121.887 18.8672 120.902 18.6641 119.731 18.6641C118.637 18.6641 117.676 18.8516 116.848 19.2266C116.035 19.6016 115.395 20.0938 114.926 20.7031C114.473 21.3125 114.246 21.9688 114.246 22.6719H109.91C109.91 21.7656 110.145 20.8672 110.613 19.9766C111.082 19.0859 111.754 18.2812 112.629 17.5625C113.52 16.8281 114.582 16.25 115.817 15.8281C117.067 15.3906 118.457 15.1719 119.988 15.1719C121.832 15.1719 123.457 15.4844 124.863 16.1094C126.285 16.7344 127.395 17.6797 128.192 18.9453C129.004 20.1953 129.41 21.7656 129.41 23.6562V35.4688C129.41 36.3125 129.481 37.2109 129.621 38.1641C129.777 39.1172 130.004 39.9375 130.301 40.625V41H125.777C125.559 40.5 125.387 39.8359 125.262 39.0078C125.137 38.1641 125.074 37.3828 125.074 36.6641ZM125.824 25.625L125.871 28.6719H121.488C120.254 28.6719 119.152 28.7734 118.184 28.9766C117.215 29.1641 116.402 29.4531 115.746 29.8438C115.09 30.2344 114.59 30.7266 114.246 31.3203C113.902 31.8984 113.731 32.5781 113.731 33.3594C113.731 34.1562 113.91 34.8828 114.27 35.5391C114.629 36.1953 115.168 36.7188 115.887 37.1094C116.621 37.4844 117.52 37.6719 118.582 37.6719C119.91 37.6719 121.082 37.3906 122.098 36.8281C123.113 36.2656 123.918 35.5781 124.512 34.7656C125.121 33.9531 125.449 33.1641 125.496 32.3984L127.348 34.4844C127.238 35.1406 126.942 35.8672 126.457 36.6641C125.973 37.4609 125.324 38.2266 124.512 38.9609C123.715 39.6797 122.762 40.2812 121.652 40.7656C120.559 41.2344 119.324 41.4688 117.949 41.4688C116.231 41.4688 114.723 41.1328 113.426 40.4609C112.145 39.7891 111.145 38.8906 110.426 37.7656C109.723 36.625 109.371 35.3516 109.371 33.9453C109.371 32.5859 109.637 31.3906 110.168 30.3594C110.699 29.3125 111.465 28.4453 112.465 27.7578C113.465 27.0547 114.668 26.5234 116.074 26.1641C117.481 25.8047 119.051 25.625 120.785 25.625H125.824ZM139.127 19.625V41H134.791V15.6406H139.009L139.127 19.625ZM147.048 15.5L147.025 19.5312C146.666 19.4531 146.322 19.4062 145.994 19.3906C145.681 19.3594 145.322 19.3438 144.916 19.3438C143.916 19.3438 143.033 19.5 142.267 19.8125C141.502 20.125 140.853 20.5625 140.322 21.125C139.791 21.6875 139.369 22.3594 139.056 23.1406C138.759 23.9062 138.564 24.75 138.47 25.6719L137.252 26.375C137.252 24.8438 137.4 23.4062 137.697 22.0625C138.009 20.7188 138.486 19.5312 139.127 18.5C139.767 17.4531 140.58 16.6406 141.564 16.0625C142.564 15.4688 143.752 15.1719 145.127 15.1719C145.439 15.1719 145.798 15.2109 146.205 15.2891C146.611 15.3516 146.892 15.4219 147.048 15.5ZM154.327 15.6406V41H149.968V15.6406H154.327ZM149.64 8.91406C149.64 8.21094 149.851 7.61719 150.272 7.13281C150.71 6.64844 151.351 6.40625 152.194 6.40625C153.022 6.40625 153.655 6.64844 154.093 7.13281C154.546 7.61719 154.772 8.21094 154.772 8.91406C154.772 9.58594 154.546 10.1641 154.093 10.6484C153.655 11.1172 153.022 11.3516 152.194 11.3516C151.351 11.3516 150.71 11.1172 150.272 10.6484C149.851 10.1641 149.64 9.58594 149.64 8.91406ZM170.465 15.6406V18.9688H156.754V15.6406H170.465ZM161.395 9.47656H165.731V34.7188C165.731 35.5781 165.864 36.2266 166.129 36.6641C166.395 37.1016 166.739 37.3906 167.161 37.5312C167.582 37.6719 168.036 37.7422 168.52 37.7422C168.879 37.7422 169.254 37.7109 169.645 37.6484C170.051 37.5703 170.356 37.5078 170.559 37.4609L170.582 41C170.239 41.1094 169.786 41.2109 169.223 41.3047C168.676 41.4141 168.012 41.4688 167.231 41.4688C166.168 41.4688 165.192 41.2578 164.301 40.8359C163.411 40.4141 162.7 39.7109 162.168 38.7266C161.653 37.7266 161.395 36.3828 161.395 34.6953V9.47656ZM181.236 38.375L188.291 15.6406H192.932L182.76 44.9141C182.525 45.5391 182.213 46.2109 181.822 46.9297C181.447 47.6641 180.963 48.3594 180.369 49.0156C179.775 49.6719 179.057 50.2031 178.213 50.6094C177.385 51.0312 176.392 51.2422 175.236 51.2422C174.892 51.2422 174.455 51.1953 173.924 51.1016C173.392 51.0078 173.017 50.9297 172.799 50.8672L172.775 47.3516C172.9 47.3672 173.096 47.3828 173.361 47.3984C173.642 47.4297 173.838 47.4453 173.947 47.4453C174.932 47.4453 175.767 47.3125 176.455 47.0469C177.142 46.7969 177.721 46.3672 178.189 45.7578C178.674 45.1641 179.088 44.3438 179.432 43.2969L181.236 38.375ZM176.057 15.6406L182.642 35.3281L183.767 39.8984L180.65 41.4922L171.322 15.6406H176.057Z" fill="black"/>
</svg>
