<svg width="44" height="44" viewBox="0 0 44 44" fill="none" xmlns="http://www.w3.org/2000/svg">
<path d="M22.4681 30.9363C13.939 30.9363 7 23.9973 7 15.4681C7 6.93901 13.939 0 22.4681 0C30.9973 0 37.9363 6.93901 37.9363 15.4681C37.9363 23.9973 30.9973 30.9363 22.4681 30.9363ZM22.4681 3.43737C15.8344 3.43737 10.4374 8.83437 10.4374 15.4681C10.4374 22.1019 15.8344 27.4989 22.4681 27.4989C29.1019 27.4989 34.4989 22.1019 34.4989 15.4681C34.4989 8.83437 29.1019 3.43737 22.4681 3.43737Z" fill="#19BB7D"/>
<path d="M28.5746 43.8163L22.4684 40.7632L16.3623 43.8163C15.2217 44.3866 13.875 43.5563 13.875 42.2791V34.9139C13.875 33.9647 14.6445 33.1953 15.5937 33.1953C16.5429 33.1953 17.3124 33.9647 17.3124 34.9139V39.4982L21.6999 37.3045C22.1837 37.0626 22.7532 37.0626 23.2371 37.3045L27.6246 39.4982V34.9139C27.6246 33.9647 28.394 33.1953 29.3433 33.1953C30.2925 33.1953 31.0619 33.9647 31.0619 34.9139V42.2791C31.0619 43.5617 29.7102 44.3841 28.5746 43.8163Z" fill="#19BB7D"/>
<path d="M25.7096 22.5497L22.4685 20.8457L19.2274 22.5497C17.9688 23.2113 16.4932 22.1399 16.7337 20.7379L17.3527 17.129L14.7305 14.573C13.7124 13.5806 14.2754 11.846 15.683 11.6415L19.3067 11.1149L20.9273 7.83144C21.5566 6.55645 23.3802 6.55593 24.0096 7.83144L25.6302 11.1149L29.2538 11.6415C30.6608 11.8459 31.2251 13.5801 30.2063 14.573L27.5841 17.129L28.2031 20.7379C28.4445 22.1444 26.9619 23.208 25.7096 22.5497ZM19.6236 14.5423L20.399 15.2981C20.804 15.693 20.9889 16.2619 20.8932 16.8194L20.7102 17.8866L21.6687 17.3827C22.1693 17.1195 22.7676 17.1195 23.2683 17.3827L24.2267 17.8866L24.0437 16.8194C23.9481 16.2619 24.1329 15.693 24.538 15.2981L25.3133 14.5423L24.2417 14.3865C23.682 14.3052 23.198 13.9536 22.9477 13.4463L22.4684 12.4753L21.9891 13.4463C21.7388 13.9536 21.2549 14.3052 20.6951 14.3865L19.6236 14.5423Z" fill="#CBE7A3"/>
</svg>
