<svg width="1054" height="1054" viewBox="0 0 1054 1054" fill="none" xmlns="http://www.w3.org/2000/svg">
<rect width="1054" height="1054" rx="144" fill="#6C5CE8"/>
<g clip-path="url(#clip0_4167_176)">
<path d="M241.139 776.034C238.611 772.409 235.359 769.145 231.746 766.245C228.133 763.344 224.52 761.169 220.546 759.356C216.571 757.544 212.597 756.093 208.262 755.006C203.927 753.918 199.59 753.555 195.255 753.555C190.197 753.555 184.777 754.28 179.359 755.731C174.661 757.181 169.965 758.993 165.628 761.531C157.319 766.607 150.093 773.858 145.395 782.197C142.867 786.547 141.06 791.26 139.615 795.974C138.17 801.05 137.809 806.126 137.809 811.202C137.809 816.277 138.531 821.353 139.976 826.428C141.422 831.142 143.228 835.855 146.119 840.205C151.177 848.544 158.402 855.795 167.073 860.871C171.409 863.409 176.106 865.584 180.803 866.672C185.5 868.122 190.558 868.847 195.617 868.847H195.978C199.23 868.847 202.843 868.485 206.094 867.759C209.345 867.035 212.597 866.309 215.488 865.222C218.378 864.133 221.268 862.684 224.159 860.871C226.688 859.421 229.578 857.608 231.746 855.795C232.83 854.708 233.914 853.619 234.998 852.532C236.082 851.082 236.443 849.632 236.804 847.819C236.804 846.731 236.443 846.007 236.082 844.918C235.72 844.194 235.359 843.468 234.998 843.106L233.553 841.293C233.191 840.931 232.83 840.205 232.469 839.48C231.746 838.393 231.024 837.305 229.94 836.217C229.217 835.129 228.494 834.404 227.411 833.679C226.327 832.955 225.243 832.591 224.159 832.591H223.797H223.436C221.991 832.591 220.546 832.955 219.463 834.042C218.739 834.404 218.017 835.129 217.655 835.492C216.21 836.58 214.765 838.03 212.958 839.118C211.514 840.205 209.707 841.293 208.262 842.018C206.456 842.743 204.649 843.469 202.481 843.83C200.313 844.194 198.145 844.556 195.617 844.556H195.255C191.642 844.556 188.029 843.83 184.777 842.381C181.164 840.931 178.274 839.118 175.383 836.58C172.493 834.042 169.965 831.142 167.796 827.879C166.713 826.066 165.628 824.253 164.906 822.44H244.392C249.089 822.44 252.34 819.177 252.34 814.465C252.701 807.213 251.618 799.6 249.811 792.711C248.366 786.91 245.114 781.11 241.139 776.034ZM227.049 798.874H164.906C165.99 796.336 167.073 794.161 168.88 791.623C171.409 787.998 174.661 784.735 178.274 782.197C180.803 780.384 184.055 779.297 186.945 778.572C189.836 777.846 193.087 777.484 196.339 777.484C200.313 777.484 203.927 778.208 207.539 779.297C211.152 780.384 214.404 782.197 217.295 784.735C220.184 786.91 222.714 789.811 224.52 793.073C225.604 794.886 226.327 796.699 227.049 798.874Z" fill="white"/>
<path d="M347.702 855.073L305.791 805.041L342.643 766.611C343.727 765.16 344.45 762.985 344.45 761.535C344.45 760.447 344.45 759.722 344.089 758.996C343.727 758.272 343.005 757.546 342.282 756.459C340.837 755.371 339.392 755.009 337.946 755.009H326.024C324.218 755.009 322.772 755.371 321.326 756.097C320.243 756.822 319.52 757.546 318.437 758.272L283.751 795.252V732.168C283.751 731.08 283.752 729.993 283.029 728.905C282.668 727.817 281.945 726.729 281.222 726.368C279.777 724.917 277.971 724.191 275.803 724.191H267.494C266.41 724.191 265.326 724.191 264.242 724.555C263.157 724.917 262.074 725.642 261.351 726.368C259.906 727.817 259.184 729.63 259.184 731.805V858.336C259.184 859.424 259.184 860.512 259.544 861.237C259.906 862.324 260.629 863.412 261.351 864.137C262.074 864.862 263.157 865.588 264.242 865.95C264.964 866.312 265.687 866.312 266.77 866.312C267.132 866.312 267.132 866.312 267.494 866.312H275.081C279.777 866.312 283.029 863.05 283.029 858.336V828.244L289.171 822.081L322.05 861.962C322.772 863.05 323.494 864.5 324.939 865.224C326.385 865.95 327.831 866.675 329.275 866.675H343.005C344.45 866.675 345.534 866.675 346.618 865.95L346.979 865.588C347.702 865.224 349.869 863.775 349.869 860.512C349.869 859.786 349.869 859.061 349.508 858.336C349.508 857.248 348.785 856.161 347.702 855.073Z" fill="white"/>
<path d="M447.813 754.973H439.865C438.781 754.973 437.697 754.973 436.974 755.336C435.891 755.698 434.806 756.423 434.084 757.149C433.362 757.873 432.639 758.962 432.278 760.049C431.917 761.136 431.917 762.224 431.917 762.948V763.312C428.665 761.136 425.413 758.962 421.8 757.51C414.935 754.61 407.709 753.16 400.483 753.16C400.123 753.16 400.123 753.16 399.761 753.16C394.703 753.16 389.644 753.886 384.587 755.336C379.89 756.785 375.193 758.598 370.857 761.136C366.521 763.674 362.547 766.574 359.295 770.2C355.682 773.826 352.792 777.452 350.263 781.802C347.734 786.152 345.566 790.866 344.482 795.579C341.592 805.73 341.592 816.245 344.482 826.033C345.928 830.747 347.734 835.459 350.263 839.811C355.321 848.149 362.547 855.4 370.857 860.476C375.193 863.013 379.89 865.189 384.587 866.276C389.644 867.727 394.703 868.452 399.761 868.452C400.123 868.452 400.123 868.452 400.483 868.452C407.709 868.452 414.935 867.001 421.8 864.101C425.413 862.651 428.665 860.476 431.917 858.301V859.025C431.917 860.113 431.917 861.2 432.639 862.289C433 863.377 433.723 864.101 434.446 864.826C435.168 865.551 436.252 866.276 437.336 866.639C438.419 867.001 439.504 867.364 440.226 867.001H448.537C450.704 867.001 452.511 866.276 453.955 864.826C454.678 864.101 455.401 863.013 455.762 861.925C456.124 860.838 456.485 859.751 456.124 859.025V762.948C456.124 760.049 455.039 758.236 453.955 757.149C452.871 756.06 451.065 754.973 447.813 754.973ZM432.278 810.443C432.278 814.794 431.555 819.144 429.749 823.495C427.942 827.484 425.774 831.109 422.523 834.372C419.632 837.635 416.019 840.172 412.045 841.985C408.071 843.798 403.736 844.887 399.4 844.887C395.064 844.887 390.729 843.798 387.116 841.985C383.141 840.172 379.89 837.635 376.638 834.372C373.747 831.109 371.219 827.484 369.773 823.495C366.521 815.156 366.521 806.093 369.773 797.754C371.58 793.766 373.747 790.14 376.638 786.878C379.528 783.615 383.141 781.439 387.116 779.626C391.09 777.813 395.425 776.726 399.4 776.726C403.736 776.726 408.071 777.813 412.045 779.626C416.019 781.439 419.632 783.977 422.523 786.878C425.413 790.14 427.942 793.766 429.749 797.754C431.555 801.742 432.278 806.093 432.278 810.443Z" fill="white"/>
<path d="M600.934 844.549C600.576 844.186 600.211 843.461 599.854 843.099L596.241 838.385C595.876 837.66 595.153 836.936 594.796 836.21C594.073 834.759 592.62 834.035 590.817 833.31C589.372 832.947 587.927 832.947 586.482 833.31C585.402 833.672 584.679 834.035 583.591 834.759L582.511 835.848C581.066 836.936 579.621 838.385 577.81 839.473C576.365 840.561 574.555 841.648 573.117 842.374C571.307 843.099 569.504 843.824 567.336 844.186C565.161 844.549 563.001 844.911 560.476 844.911H560.11C556.132 844.911 551.8 843.824 548.188 842.374C544.209 840.561 540.598 838.023 537.706 835.123C534.455 831.86 532.285 828.234 530.483 824.245C528.674 820.258 527.953 815.907 527.953 811.194C527.953 806.843 529.034 802.13 530.844 798.142C532.654 794.154 535.176 790.166 538.067 787.265C540.957 784.002 544.577 781.465 548.549 779.652C552.16 777.839 556.493 776.751 560.476 776.751C562.636 776.751 564.446 777.114 566.614 777.476C570.584 778.202 574.555 780.015 577.81 782.189C579.256 783.278 580.701 784.365 582.146 785.815C583.956 787.628 586.124 788.715 588.292 788.715C589.73 788.715 591.905 787.991 593.716 785.452L599.854 777.476C600.934 776.026 600.934 774.213 600.934 772.764C600.934 771.675 600.211 770.225 599.496 769.138C598.766 768.413 598.043 767.688 597.321 766.962L595.876 765.875C593.716 764.062 591.183 762.612 588.65 761.162C585.759 759.712 583.234 758.261 580.336 757.174C577.445 756.086 574.197 755.361 570.949 754.636C567.694 753.91 564.446 753.548 561.19 753.91C556.132 753.91 551.079 754.636 546.018 756.086C541.318 757.536 536.626 759.349 532.285 761.886C523.621 766.962 516.751 774.213 511.337 782.552C508.807 786.903 506.637 791.616 505.195 796.329C502.305 806.481 502.305 816.995 505.195 826.784C506.637 831.497 508.446 836.21 511.337 840.561C516.39 848.899 523.621 856.15 532.285 861.226C536.626 863.764 541.318 865.94 546.018 867.027C551.079 868.477 555.772 869.203 560.833 869.203H561.19C564.446 869.203 568.059 868.84 571.307 868.114C574.555 867.39 577.81 866.665 580.701 865.577C583.591 864.489 586.482 863.039 589.372 861.226C591.905 859.776 594.43 857.963 596.963 856.15C598.043 855.426 599.131 854.338 599.854 853.25C600.576 852.162 601.291 851.074 601.656 849.987C602.014 848.537 602.014 847.086 601.656 845.998L600.934 844.549Z" fill="white"/>
<path d="M709.388 754.973H701.439C700.359 754.973 699.263 754.973 698.549 755.336C697.469 755.698 696.381 756.423 695.658 757.149C694.935 757.873 694.213 758.962 693.855 760.049C693.49 761.136 693.49 762.224 693.49 762.948V763.312C690.235 761.136 686.987 758.962 683.374 757.51C676.505 754.61 669.287 753.16 661.695 753.16C656.637 753.16 651.579 753.886 646.521 755.336C641.828 756.785 637.127 758.598 632.791 761.136C628.455 763.674 624.485 766.574 621.229 770.2C617.624 773.826 614.726 777.452 612.201 781.802C609.668 786.152 607.857 790.866 606.42 795.579C603.529 805.73 603.529 816.245 606.42 826.033C610.39 840.535 620.142 852.862 632.791 860.476C637.127 863.013 641.828 865.189 646.521 866.276C651.579 867.727 656.637 868.452 661.695 868.452C662.053 868.452 662.053 868.452 662.418 868.452C669.644 868.452 676.87 867.001 683.731 864.101C687.352 862.651 690.6 860.476 693.855 858.301V859.025C693.855 860.113 693.855 861.2 694.57 862.289C694.935 863.377 695.658 864.101 696.381 864.826C697.103 865.551 698.183 866.276 699.263 866.639C700.359 867.001 701.439 867.364 702.154 867.001H710.468C712.635 867.001 714.438 866.276 715.891 864.826C716.614 864.101 717.329 863.013 717.702 861.925C718.059 860.838 718.424 859.751 718.424 859.025V762.948C718.424 760.049 717.329 758.236 716.249 757.149C714.438 756.06 712.635 754.973 709.388 754.973ZM694.213 810.443C694.213 814.794 693.49 819.144 691.68 823.495C689.877 827.484 687.709 831.471 684.462 834.372C681.571 837.635 677.95 840.172 673.98 841.985C670.009 843.798 665.666 844.887 661.338 844.887C657.002 844.887 652.659 843.798 649.054 841.985C645.075 840.172 641.828 837.635 638.572 834.372C635.682 831.109 633.156 827.484 631.703 823.495C628.455 815.156 628.455 806.093 631.703 797.754C633.514 793.766 635.682 790.14 638.572 786.878C641.462 783.615 645.075 781.439 649.054 779.626C653.024 777.813 657.36 776.726 661.338 776.726C665.666 776.726 670.009 777.813 673.98 779.626C677.95 781.439 681.571 783.977 684.462 786.878C687.352 790.14 689.877 793.766 691.68 797.754C693.125 801.742 694.213 806.093 694.213 810.443Z" fill="white"/>
<path d="M803.663 770.232C803.663 769.145 803.306 768.057 802.94 766.97C802.583 765.882 801.853 765.157 801.13 764.432C800.415 763.707 799.693 762.981 798.605 762.619C796.437 761.169 794.269 759.718 791.736 758.269C789.568 757.181 787.408 756.093 784.875 755.368C782.35 754.643 779.817 754.28 777.284 753.918C774.394 753.555 771.503 753.555 768.978 753.555C765.722 753.555 762.832 753.918 759.949 755.006C757.416 756.093 755.248 757.181 753.08 758.631C752.715 758.993 752.358 759.356 752 759.356C751.635 758.631 751.278 757.905 750.547 757.181C749.825 756.456 748.745 755.731 747.657 755.368C746.577 755.006 745.497 754.643 744.774 755.006H736.46C735.373 755.006 734.293 755.006 733.57 755.731C732.482 756.093 731.76 756.818 731.045 757.181C730.322 757.905 729.6 758.993 729.234 760.082C728.869 761.169 728.512 762.257 728.512 762.981V859.058C728.512 863.771 731.76 867.035 736.46 867.035H744.774C745.132 867.035 745.132 867.035 745.497 867.035C746.22 867.035 747.3 867.035 748.022 866.672C749.11 866.309 750.19 865.584 750.913 864.859C751.635 864.133 752.358 863.046 752.715 861.959C753.08 860.871 753.08 859.783 753.08 859.058V795.611C753.08 792.711 753.438 790.173 754.526 787.635C755.248 785.46 756.693 783.647 758.139 781.834C759.584 780.384 761.387 779.297 763.197 778.208C765 777.484 767.175 777.121 769.343 777.121C772.233 777.121 775.124 777.484 778.006 778.572C781.262 779.659 784.153 781.11 786.678 782.922L787.766 783.647C788.846 784.735 790.299 785.097 792.101 785.097C793.181 785.097 794.269 784.735 794.992 784.01C796.072 783.284 796.802 782.559 797.517 781.834L802.583 773.858C803.306 772.77 803.663 771.683 803.663 770.232Z" fill="white"/>
<path d="M913.506 793.041C911.704 786.878 909.171 780.714 905.2 775.639C902.31 772.013 899.419 768.75 895.806 765.85C892.185 762.948 888.58 760.774 884.602 758.962C880.632 757.149 876.653 755.698 872.318 754.61C867.982 753.523 863.646 753.16 859.318 753.16H858.945C853.895 753.16 848.472 753.886 843.413 755.336C838.72 756.785 834.019 758.598 829.691 761.136C825.348 763.674 821.378 766.574 818.122 770.2C811.261 777.452 806.203 786.152 803.67 795.579C802.232 800.654 801.867 805.73 801.867 810.806C801.867 815.882 802.59 821.32 804.035 826.033C805.48 830.747 807.283 835.459 809.816 839.811C812.341 844.161 815.597 848.149 818.845 851.412C822.458 855.037 826.436 857.938 830.406 860.476C834.742 863.013 839.443 865.189 844.144 866.276C849.194 867.727 853.895 868.452 858.945 868.452C858.945 868.452 858.945 868.452 859.318 868.452C862.931 868.452 866.179 868.089 869.427 867.364C872.683 866.639 875.931 865.914 878.821 864.826C881.712 863.738 884.602 862.289 887.492 860.476C890.025 859.025 892.551 857.213 895.076 855.4C896.164 854.312 897.609 853.225 898.332 852.137C899.419 851.05 899.777 849.599 899.777 847.424C899.777 846.336 899.419 845.611 899.062 844.523C898.697 843.798 898.332 843.074 897.966 842.71L896.886 841.261C896.529 840.898 896.164 840.172 895.441 839.448L892.916 836.185C892.551 835.459 891.828 834.735 891.105 834.372C890.383 833.647 889.295 833.284 888.215 832.922C887.135 832.559 886.047 832.559 885.325 832.922C884.245 833.284 883.514 833.647 882.792 834.009C882.077 834.372 881.354 835.097 880.997 835.459C879.544 836.547 878.098 837.998 876.296 839.085C874.851 840.172 873.04 841.261 871.603 841.985C869.792 842.71 867.982 843.435 865.822 843.798C863.646 844.161 861.121 844.523 858.945 844.523H858.588C854.975 844.523 851.362 843.798 848.114 842.348C844.501 840.898 841.611 839.085 838.72 836.547C835.83 834.009 833.297 831.109 831.486 827.846C830.406 826.033 829.326 824.22 828.596 822.408H908.091C912.784 822.408 916.032 819.144 916.032 814.432C916.397 807.543 915.317 800.292 913.506 793.041ZM890.748 798.842H828.596C829.691 796.303 830.771 794.129 832.582 791.59C835.107 787.965 838.363 784.702 841.968 782.164C844.501 780.351 847.392 779.264 850.647 778.539C853.538 777.813 856.785 777.452 860.033 777.452C864.011 777.452 867.617 778.176 871.23 779.264C874.851 780.351 878.098 782.164 880.997 784.702C883.887 786.878 886.405 789.778 888.215 793.041C888.938 794.854 890.025 796.666 890.748 798.842Z" fill="white"/>
<path d="M488.265 839.864C485.735 838.776 482.844 838.413 479.953 839.139C477.066 839.864 474.536 840.952 472.368 843.127C470.2 845.302 468.755 847.84 468.394 850.74C467.672 854.729 468.394 858.355 470.562 861.617C472.729 864.88 475.981 867.055 479.593 867.781C480.682 868.143 481.402 868.143 482.484 868.143C484.293 868.143 486.095 867.781 487.905 867.055C490.435 865.968 492.966 864.155 494.407 861.617C495.856 859.079 496.938 856.542 496.938 853.641C496.938 850.74 496.216 847.84 494.407 845.664C493.326 842.764 491.156 840.952 488.265 839.864Z" fill="white"/>
</g>
<path d="M788.298 462.433C783.221 453.091 776.873 444.558 769.474 437.058L729.474 396.928L691.009 435.517L730.536 475.17C741.074 485.733 747.588 500.333 747.588 516.467C747.588 532.599 741.54 546.135 731.663 556.609L731.631 556.642C731.266 557.019 730.9 557.398 730.536 557.773C705.022 584.003 673.736 604.574 638.745 617.423C612.323 627.118 583.78 632.411 554.019 632.411C528.793 632.411 504.464 628.617 481.549 621.55C462.77 615.78 444.966 607.803 428.399 597.95C355.972 554.845 307.412 475.614 307.412 385C307.412 294.386 355.972 215.144 428.399 172.04C445.021 162.154 462.903 154.165 481.748 148.384C504.607 141.35 528.881 137.577 554.03 137.577C583.714 137.577 612.17 142.836 638.524 152.479C673.591 165.316 704.945 185.897 730.503 212.182C730.845 212.526 731.178 212.869 731.51 213.213C741.473 223.699 747.588 237.888 747.588 253.522C747.588 269.156 741.074 284.244 730.536 294.818L721.588 303.805L679.121 346.399L586.533 253.512C583.492 250.492 580.286 247.652 576.923 244.99C557.78 229.9 533.627 220.892 507.384 220.892C498.073 220.892 489.025 222.023 480.365 224.174C474.205 225.685 468.245 227.714 462.538 230.211C462.096 230.399 461.654 230.599 461.224 230.798C422.039 248.474 394.756 287.984 394.756 333.884C394.756 336.692 394.856 339.476 395.066 342.24C395.066 342.35 395.077 342.46 395.089 342.583C395.132 343.26 395.2 343.937 395.265 344.614C396.681 356.706 404.058 366.982 414.365 372.385C419.342 374.991 425.003 376.469 431.009 376.469H431.063C441.67 376.457 451.214 371.83 457.783 364.485C463.512 358.105 466.995 349.651 466.995 340.375C466.995 337.145 466.574 334.028 465.79 331.055C463.765 323.454 459.331 316.831 453.358 312.083C461.975 290.624 482.91 275.481 507.384 275.481C523.463 275.481 538.017 282.014 548.557 292.589L640.658 384.989L616.738 408.988L548.058 477.889C537.563 488.174 523.21 494.509 507.384 494.509C498.979 494.509 490.982 492.722 483.761 489.505C483.716 489.483 483.662 489.46 483.607 489.44C469.894 483.27 458.988 471.942 453.358 457.917C459.331 453.157 463.765 446.545 465.79 438.934C466.574 435.97 466.995 432.842 466.995 429.625C466.995 420.348 463.512 411.895 457.783 405.505C451.214 398.169 441.691 393.543 431.087 393.521H431.009C425.003 393.521 419.342 394.996 414.365 397.604C404.023 403.029 396.638 413.348 395.253 425.486C395.243 425.641 395.222 425.786 395.21 425.93C395.165 426.418 395.122 426.895 395.089 427.382C395.089 427.516 395.089 427.639 395.066 427.761C394.856 430.514 394.756 433.297 394.756 436.092C394.756 481.994 422.039 521.516 461.224 539.189L462.538 539.778C468.245 542.274 474.205 544.304 480.365 545.813C489.025 547.966 498.073 549.098 507.384 549.098C533.693 549.098 557.891 540.055 577.056 524.888C578.881 523.446 580.662 521.936 582.399 520.372L582.442 520.329L666.105 436.394L679 423.456L717.463 384.867L728.854 373.449L738.84 363.431L768.878 333.286C776.499 325.64 783.033 316.899 788.231 307.323C796.924 291.29 801.867 272.916 801.867 253.39C801.867 244.113 800.75 235.105 798.649 226.484C793.905 206.988 784.128 189.48 770.768 175.435C770.359 175.001 769.951 174.58 769.519 174.158C769.463 174.103 769.42 174.058 769.375 174.002C769.032 173.671 768.701 173.326 768.369 172.994C768.291 172.905 768.214 172.838 768.138 172.771C713.57 117.351 637.804 83 554.03 83C513.377 83 474.614 91.0773 439.236 105.734C421.554 113.058 404.721 122.022 388.917 132.43C307.046 186.419 253 279.375 253 385C253 490.626 307.046 583.582 388.917 637.559C404.666 647.933 421.443 656.877 439.06 664.177C474.481 678.889 513.312 687 554.03 687C638.246 687 714.389 652.294 769.011 596.363L769.265 596.109C769.443 595.929 769.619 595.742 769.795 595.566C770.138 595.221 770.482 594.865 770.812 594.51C770.945 594.387 771.068 594.255 771.19 594.11C784.349 580.164 794.005 562.846 798.726 543.572C800.873 534.885 802 525.809 802 516.467C802 496.894 797.023 478.487 788.298 462.433Z" fill="white"/>
<defs>
<clipPath id="clip0_4167_176">
<rect width="778" height="350" fill="white" transform="translate(138 620)"/>
</clipPath>
</defs>
</svg>
