<svg width="149" height="149" viewBox="0 0 149 149" fill="none" xmlns="http://www.w3.org/2000/svg">
<rect width="149" height="149" rx="74.5" fill="#6C5CE8"/>
<g clip-path="url(#clip0_4169_217)">
<path d="M41.9319 103.832C41.6395 103.418 41.2633 103.045 40.8453 102.714C40.4274 102.382 40.0094 102.134 39.5497 101.926C39.0899 101.719 38.6301 101.553 38.1287 101.429C37.6271 101.305 37.1255 101.263 36.624 101.263C36.0389 101.263 35.4119 101.346 34.7851 101.512C34.2416 101.678 33.6984 101.885 33.1967 102.175C32.2355 102.755 31.3996 103.584 30.8561 104.537C30.5637 105.034 30.3547 105.573 30.1875 106.111C30.0203 106.691 29.9785 107.272 29.9785 107.852C29.9785 108.432 30.0621 109.012 30.2293 109.592C30.3965 110.13 30.6055 110.669 30.9398 111.166C31.525 112.119 32.3608 112.948 33.3639 113.528C33.8655 113.818 34.4088 114.067 34.9522 114.191C35.4955 114.357 36.0807 114.44 36.6658 114.44H36.7076C37.0838 114.44 37.5017 114.398 37.8779 114.315C38.254 114.232 38.6301 114.15 38.9646 114.025C39.2989 113.901 39.6332 113.735 39.9676 113.528C40.2602 113.362 40.5946 113.155 40.8453 112.948C40.9707 112.824 41.0961 112.699 41.2215 112.575C41.3469 112.409 41.3887 112.244 41.4305 112.036C41.4305 111.912 41.3887 111.829 41.3469 111.705C41.305 111.622 41.2633 111.539 41.2215 111.498L41.0543 111.291C41.0125 111.249 40.9707 111.166 40.9289 111.083C40.8453 110.959 40.7617 110.835 40.6364 110.711C40.5528 110.586 40.4692 110.503 40.3438 110.42C40.2184 110.338 40.093 110.296 39.9676 110.296H39.9258H39.884C39.7168 110.296 39.5497 110.338 39.4244 110.462C39.3407 110.503 39.2571 110.586 39.2153 110.628C39.0481 110.752 38.8809 110.918 38.6719 111.042C38.5048 111.166 38.2959 111.291 38.1287 111.373C37.9197 111.456 37.7107 111.539 37.4599 111.581C37.2092 111.622 36.9583 111.664 36.6658 111.664H36.624C36.2061 111.664 35.7881 111.581 35.4119 111.415C34.994 111.249 34.6596 111.042 34.3252 110.752C33.9909 110.462 33.6984 110.13 33.4475 109.758C33.3222 109.55 33.1967 109.343 33.1132 109.136H42.3082C42.8515 109.136 43.2276 108.763 43.2276 108.224C43.2694 107.396 43.1441 106.526 42.9351 105.738C42.768 105.075 42.3917 104.412 41.9319 103.832ZM40.302 106.443H33.1132C33.2385 106.153 33.3639 105.904 33.5729 105.614C33.8655 105.2 34.2416 104.827 34.6596 104.537C34.9522 104.33 35.3283 104.205 35.6627 104.122C35.9971 104.04 36.3732 103.998 36.7494 103.998C37.2092 103.998 37.6271 104.081 38.045 104.205C38.463 104.33 38.8391 104.537 39.1736 104.827C39.5079 105.075 39.8005 105.407 40.0094 105.78C40.1348 105.987 40.2184 106.194 40.302 106.443Z" fill="white"/>
<path d="M54.2594 112.865L49.4111 107.148L53.6743 102.756C53.7996 102.59 53.8832 102.341 53.8832 102.175C53.8832 102.051 53.8832 101.968 53.8414 101.885C53.7996 101.803 53.7161 101.72 53.6325 101.595C53.4653 101.471 53.2981 101.43 53.1309 101.43H51.7517C51.5427 101.43 51.3755 101.471 51.2083 101.554C51.083 101.637 50.9993 101.72 50.874 101.803L46.8616 106.029V98.8191C46.8616 98.6949 46.8616 98.5706 46.778 98.4463C46.7363 98.322 46.6526 98.1976 46.569 98.1563C46.4018 97.9905 46.1928 97.9076 45.9421 97.9076H44.9808C44.8555 97.9076 44.7301 97.9076 44.6047 97.9491C44.4792 97.9905 44.3539 98.0734 44.2702 98.1563C44.1031 98.322 44.0195 98.5292 44.0195 98.7777V113.238C44.0195 113.363 44.0195 113.487 44.0612 113.57C44.1031 113.694 44.1867 113.819 44.2702 113.901C44.3539 113.984 44.4792 114.067 44.6047 114.109C44.6882 114.15 44.7719 114.15 44.8972 114.15C44.939 114.15 44.939 114.15 44.9808 114.15H45.8586C46.4018 114.15 46.778 113.777 46.778 113.238V109.799L47.4885 109.095L51.292 113.653C51.3755 113.777 51.4591 113.943 51.6262 114.026C51.7934 114.109 51.9607 114.191 52.1278 114.191H53.7161C53.8832 114.191 54.0086 114.191 54.134 114.109L54.1758 114.067C54.2594 114.026 54.5101 113.86 54.5101 113.487C54.5101 113.404 54.5101 113.321 54.4684 113.238C54.4684 113.114 54.3848 112.99 54.2594 112.865Z" fill="white"/>
<path d="M65.839 101.425H64.9196C64.7941 101.425 64.6688 101.425 64.5851 101.467C64.4598 101.508 64.3343 101.591 64.2508 101.674C64.1672 101.757 64.0836 101.881 64.0418 102.006C64.0001 102.13 64.0001 102.254 64.0001 102.337V102.378C63.6239 102.13 63.2477 101.881 62.8298 101.715C62.0356 101.384 61.1997 101.218 60.3638 101.218C60.3221 101.218 60.3221 101.218 60.2803 101.218C59.6951 101.218 59.1099 101.301 58.5249 101.467C57.9815 101.633 57.4381 101.84 56.9366 102.13C56.435 102.42 55.9753 102.751 55.5991 103.166C55.1812 103.58 54.8469 103.994 54.5542 104.492C54.2617 104.989 54.011 105.528 53.8855 106.066C53.5512 107.226 53.5512 108.428 53.8855 109.547C54.0527 110.085 54.2617 110.624 54.5542 111.121C55.1394 112.074 55.9753 112.903 56.9366 113.483C57.4381 113.773 57.9815 114.022 58.5249 114.146C59.1099 114.312 59.6951 114.395 60.2803 114.395C60.3221 114.395 60.3221 114.395 60.3638 114.395C61.1997 114.395 62.0356 114.229 62.8298 113.897C63.2477 113.732 63.6239 113.483 64.0001 113.234V113.317C64.0001 113.441 64.0001 113.566 64.0836 113.69C64.1254 113.814 64.209 113.897 64.2926 113.98C64.3761 114.063 64.5016 114.146 64.627 114.187C64.7523 114.229 64.8778 114.27 64.9613 114.229H65.9227C66.1735 114.229 66.3824 114.146 66.5495 113.98C66.6331 113.897 66.7167 113.773 66.7585 113.649C66.8004 113.524 66.8421 113.4 66.8004 113.317V102.337C66.8004 102.006 66.6749 101.798 66.5495 101.674C66.4241 101.55 66.2152 101.425 65.839 101.425ZM64.0418 107.765C64.0418 108.262 63.9583 108.759 63.7493 109.257C63.5403 109.712 63.2895 110.127 62.9134 110.5C62.579 110.872 62.161 111.163 61.7013 111.37C61.2415 111.577 60.74 111.701 60.2385 111.701C59.7368 111.701 59.2354 111.577 58.8174 111.37C58.3577 111.163 57.9815 110.872 57.6053 110.5C57.271 110.127 56.9785 109.712 56.8112 109.257C56.435 108.304 56.435 107.268 56.8112 106.315C57.0202 105.859 57.271 105.445 57.6053 105.072C57.9397 104.699 58.3577 104.45 58.8174 104.243C59.2772 104.036 59.7786 103.912 60.2385 103.912C60.74 103.912 61.2415 104.036 61.7013 104.243C62.161 104.45 62.579 104.74 62.9134 105.072C63.2477 105.445 63.5403 105.859 63.7493 106.315C63.9583 106.77 64.0418 107.268 64.0418 107.765Z" fill="white"/>
<path d="M83.5525 111.663C83.5112 111.621 83.4689 111.538 83.4276 111.497L83.0096 110.958C82.9674 110.875 82.8838 110.793 82.8424 110.71C82.7588 110.544 82.5907 110.461 82.3822 110.378C82.215 110.337 82.0478 110.337 81.8807 110.378C81.7557 110.42 81.6721 110.461 81.5463 110.544L81.4214 110.668C81.2542 110.793 81.087 110.958 80.8776 111.083C80.7104 111.207 80.5009 111.331 80.3347 111.414C80.1252 111.497 79.9167 111.58 79.6659 111.621C79.4142 111.663 79.1644 111.704 78.8722 111.704H78.83C78.3698 111.704 77.8686 111.58 77.4508 111.414C76.9905 111.207 76.5727 110.917 76.2383 110.585C75.8622 110.213 75.6112 109.798 75.4027 109.342C75.1934 108.887 75.11 108.389 75.11 107.851C75.11 107.353 75.2351 106.815 75.4444 106.359C75.6538 105.903 75.9456 105.447 76.28 105.116C76.6144 104.743 77.033 104.453 77.4925 104.246C77.9103 104.039 78.4115 103.914 78.8722 103.914C79.1221 103.914 79.3315 103.956 79.5823 103.997C80.0416 104.08 80.5009 104.287 80.8776 104.536C81.0447 104.66 81.2119 104.785 81.3791 104.95C81.5885 105.157 81.8393 105.282 82.0901 105.282C82.2564 105.282 82.5081 105.199 82.7175 104.909L83.4276 103.997C83.5525 103.832 83.5525 103.624 83.5525 103.459C83.5525 103.334 83.4689 103.169 83.3862 103.044C83.3017 102.961 83.2181 102.879 83.1346 102.796L82.9674 102.671C82.7175 102.464 82.4245 102.298 82.1314 102.133C81.7971 101.967 81.5049 101.801 81.1697 101.677C80.8353 101.553 80.4596 101.47 80.0839 101.387C79.7073 101.304 79.3315 101.263 78.9549 101.304C78.3698 101.304 77.7853 101.387 77.1998 101.553C76.6561 101.718 76.1132 101.926 75.6112 102.216C74.6089 102.796 73.8141 103.624 73.1879 104.577C72.8951 105.075 72.6441 105.613 72.4773 106.152C72.143 107.312 72.143 108.514 72.4773 109.632C72.6441 110.171 72.8534 110.71 73.1879 111.207C73.7724 112.16 74.6089 112.989 75.6112 113.569C76.1132 113.859 76.6561 114.107 77.1998 114.232C77.7853 114.397 78.3281 114.48 78.9136 114.48H78.9549C79.3315 114.48 79.7495 114.439 80.1252 114.356C80.5009 114.273 80.8776 114.19 81.2119 114.066C81.5463 113.942 81.8807 113.776 82.215 113.569C82.5081 113.403 82.8002 113.196 83.0932 112.989C83.2181 112.906 83.344 112.781 83.4276 112.657C83.5112 112.533 83.5939 112.408 83.6361 112.284C83.6774 112.118 83.6774 111.953 83.6361 111.828L83.5525 111.663Z" fill="white"/>
<path d="M96.0997 101.425H95.1802C95.0553 101.425 94.9285 101.425 94.8458 101.467C94.7209 101.508 94.5951 101.591 94.5115 101.674C94.4279 101.757 94.3443 101.881 94.3029 102.006C94.2607 102.13 94.2607 102.254 94.2607 102.337V102.378C93.8841 102.13 93.5084 101.881 93.0904 101.715C92.2958 101.384 91.4608 101.218 90.5826 101.218C89.9975 101.218 89.4123 101.301 88.8272 101.467C88.2843 101.633 87.7405 101.84 87.2389 102.13C86.7374 102.42 86.2781 102.751 85.9015 103.166C85.4844 103.58 85.1491 103.994 84.857 104.492C84.564 104.989 84.3546 105.528 84.1883 106.066C83.8539 107.226 83.8539 108.428 84.1883 109.547C84.6476 111.204 85.7756 112.613 87.2389 113.483C87.7405 113.773 88.2843 114.022 88.8272 114.146C89.4123 114.312 89.9975 114.395 90.5826 114.395C90.624 114.395 90.624 114.395 90.6662 114.395C91.5022 114.395 92.3381 114.229 93.1317 113.897C93.5506 113.732 93.9263 113.483 94.3029 113.234V113.317C94.3029 113.441 94.3029 113.566 94.3856 113.69C94.4279 113.814 94.5115 113.897 94.5951 113.98C94.6787 114.063 94.8036 114.146 94.9285 114.187C95.0553 114.229 95.1802 114.27 95.2629 114.229H96.2247C96.4754 114.229 96.684 114.146 96.8521 113.98C96.9356 113.897 97.0183 113.773 97.0615 113.649C97.1028 113.524 97.1451 113.4 97.1451 113.317V102.337C97.1451 102.006 97.0183 101.798 96.8934 101.674C96.684 101.55 96.4754 101.425 96.0997 101.425ZM94.3443 107.765C94.3443 108.262 94.2607 108.759 94.0513 109.257C93.8427 109.712 93.592 110.168 93.2162 110.5C92.8819 110.872 92.463 111.163 92.0037 111.37C91.5444 111.577 91.0419 111.701 90.5413 111.701C90.0397 111.701 89.5373 111.577 89.1202 111.37C88.66 111.163 88.2843 110.872 87.9077 110.5C87.5733 110.127 87.2812 109.712 87.1131 109.257C86.7374 108.304 86.7374 107.268 87.1131 106.315C87.3225 105.859 87.5733 105.445 87.9077 105.072C88.2421 104.699 88.66 104.45 89.1202 104.243C89.5795 104.036 90.0811 103.912 90.5413 103.912C91.0419 103.912 91.5444 104.036 92.0037 104.243C92.463 104.45 92.8819 104.74 93.2162 105.072C93.5506 105.445 93.8427 105.859 94.0513 106.315C94.2185 106.77 94.3443 107.268 94.3443 107.765Z" fill="white"/>
<path d="M107.004 103.169C107.004 103.045 106.963 102.921 106.921 102.796C106.879 102.672 106.795 102.589 106.711 102.506C106.628 102.424 106.545 102.341 106.419 102.299C106.168 102.134 105.917 101.968 105.624 101.802C105.374 101.678 105.124 101.553 104.831 101.471C104.539 101.388 104.246 101.346 103.953 101.305C103.618 101.263 103.284 101.263 102.992 101.263C102.615 101.263 102.281 101.305 101.947 101.429C101.654 101.553 101.403 101.678 101.153 101.844C101.11 101.885 101.069 101.926 101.028 101.926C100.986 101.844 100.944 101.761 100.86 101.678C100.776 101.595 100.651 101.512 100.525 101.471C100.4 101.429 100.275 101.388 100.192 101.429H99.2301C99.1042 101.429 98.9793 101.429 98.8957 101.512C98.7699 101.553 98.6863 101.636 98.6036 101.678C98.52 101.761 98.4364 101.885 98.3941 102.009C98.3519 102.134 98.3105 102.258 98.3105 102.341V113.321C98.3105 113.86 98.6863 114.232 99.2301 114.232H100.192C100.233 114.232 100.233 114.232 100.275 114.232C100.359 114.232 100.484 114.232 100.568 114.191C100.693 114.15 100.818 114.067 100.902 113.984C100.986 113.901 101.069 113.777 101.11 113.652C101.153 113.528 101.153 113.404 101.153 113.321V106.07C101.153 105.738 101.194 105.448 101.32 105.158C101.403 104.91 101.571 104.703 101.738 104.495C101.905 104.33 102.114 104.205 102.323 104.081C102.532 103.998 102.783 103.957 103.034 103.957C103.368 103.957 103.703 103.998 104.036 104.122C104.413 104.247 104.747 104.412 105.039 104.62L105.165 104.703C105.29 104.827 105.458 104.868 105.667 104.868C105.792 104.868 105.917 104.827 106.001 104.744C106.126 104.661 106.21 104.578 106.293 104.495L106.879 103.584C106.963 103.459 107.004 103.335 107.004 103.169Z" fill="white"/>
<path d="M119.711 105.776C119.503 105.072 119.21 104.367 118.751 103.787C118.416 103.373 118.082 103 117.664 102.668C117.245 102.337 116.828 102.088 116.368 101.881C115.908 101.674 115.448 101.508 114.947 101.384C114.445 101.26 113.944 101.218 113.443 101.218H113.4C112.816 101.218 112.188 101.301 111.603 101.467C111.06 101.633 110.516 101.84 110.016 102.13C109.513 102.42 109.054 102.751 108.677 103.166C107.884 103.994 107.298 104.989 107.005 106.066C106.839 106.646 106.797 107.226 106.797 107.806C106.797 108.386 106.88 109.008 107.048 109.547C107.215 110.085 107.423 110.624 107.716 111.121C108.009 111.618 108.385 112.074 108.761 112.447C109.179 112.861 109.639 113.193 110.098 113.483C110.6 113.773 111.144 114.022 111.687 114.146C112.272 114.312 112.816 114.395 113.4 114.395C113.4 114.395 113.4 114.395 113.443 114.395C113.861 114.395 114.237 114.353 114.612 114.27C114.989 114.187 115.365 114.104 115.699 113.98C116.033 113.856 116.368 113.69 116.702 113.483C116.995 113.317 117.287 113.11 117.579 112.903C117.705 112.779 117.872 112.654 117.956 112.53C118.082 112.406 118.123 112.24 118.123 111.991C118.123 111.867 118.082 111.784 118.04 111.66C117.998 111.577 117.956 111.494 117.914 111.453L117.789 111.287C117.747 111.245 117.705 111.163 117.622 111.08L117.329 110.707C117.287 110.624 117.204 110.541 117.12 110.5C117.036 110.417 116.911 110.375 116.786 110.334C116.661 110.292 116.535 110.292 116.451 110.334C116.326 110.375 116.242 110.417 116.158 110.458C116.076 110.5 115.992 110.582 115.951 110.624C115.783 110.748 115.615 110.914 115.407 111.038C115.24 111.163 115.03 111.287 114.864 111.37C114.655 111.453 114.445 111.535 114.195 111.577C113.944 111.618 113.651 111.66 113.4 111.66H113.358C112.94 111.66 112.522 111.577 112.147 111.411C111.729 111.245 111.394 111.038 111.06 110.748C110.726 110.458 110.433 110.127 110.223 109.754C110.098 109.547 109.973 109.339 109.889 109.132H119.085C119.628 109.132 120.004 108.759 120.004 108.221C120.046 107.433 119.921 106.605 119.711 105.776ZM117.079 106.439H109.889C110.016 106.149 110.141 105.9 110.35 105.61C110.642 105.196 111.019 104.823 111.436 104.533C111.729 104.326 112.063 104.202 112.44 104.119C112.774 104.036 113.15 103.994 113.526 103.994C113.986 103.994 114.403 104.077 114.821 104.202C115.24 104.326 115.615 104.533 115.951 104.823C116.285 105.072 116.576 105.403 116.786 105.776C116.869 105.983 116.995 106.19 117.079 106.439Z" fill="white"/>
<path d="M70.5195 111.127C70.2268 111.003 69.8924 110.961 69.558 111.044C69.224 111.127 68.9313 111.252 68.6805 111.5C68.4297 111.749 68.2626 112.039 68.2208 112.37C68.1373 112.826 68.2208 113.24 68.4715 113.613C68.7223 113.986 69.0985 114.235 69.5163 114.318C69.6423 114.359 69.7256 114.359 69.8507 114.359C70.0601 114.359 70.2685 114.318 70.4778 114.235C70.7705 114.111 71.0633 113.903 71.23 113.613C71.3976 113.323 71.5227 113.033 71.5227 112.702C71.5227 112.37 71.4393 112.039 71.23 111.79C71.105 111.459 70.8539 111.252 70.5195 111.127Z" fill="white"/>
</g>
<path d="M105.428 66.9741C104.845 65.8914 104.117 64.9025 103.268 64.0332L98.6773 59.3824L94.2634 63.8546L98.7992 68.4502C100.009 69.6743 100.756 71.3664 100.756 73.2362C100.756 75.1059 100.062 76.6746 98.9285 77.8885L98.9249 77.8923C98.8829 77.936 98.841 77.9799 98.7992 78.0234C95.8713 81.0632 92.2812 83.4473 88.2658 84.9364C85.2338 86.0601 81.9584 86.6735 78.5431 86.6735C75.6484 86.6735 72.8565 86.2338 70.2269 85.4147C68.0719 84.7461 66.0289 83.8215 64.1277 82.6797C55.8165 77.684 50.2439 68.5016 50.2439 58C50.2439 47.4984 55.8165 38.3147 64.1277 33.3192C66.0352 32.1735 68.0872 31.2476 70.2498 30.5776C72.8729 29.7624 75.6585 29.3252 78.5445 29.3252C81.9507 29.3252 85.2162 29.9347 88.2405 31.0522C92.2646 32.5399 95.8625 34.9251 98.7954 37.9714C98.8347 38.0113 98.8728 38.0511 98.911 38.0909C100.054 39.3061 100.756 40.9506 100.756 42.7625C100.756 44.5743 100.009 46.323 98.7992 47.5485L97.7725 48.59L92.8992 53.5264L82.2742 42.7613C81.9254 42.4113 81.5574 42.0822 81.1715 41.7737C78.9748 40.0249 76.2031 38.9809 73.1916 38.9809C72.1231 38.9809 71.0849 39.1119 70.0911 39.3612C69.3842 39.5363 68.7002 39.7715 68.0454 40.0608C67.9947 40.0827 67.9439 40.1059 67.8945 40.1289C63.398 42.1775 60.2671 46.7565 60.2671 52.0759C60.2671 52.4013 60.2786 52.7241 60.3026 53.0443C60.3026 53.0571 60.3039 53.0699 60.3053 53.0841C60.3102 53.1626 60.318 53.2411 60.3255 53.3195C60.488 54.7209 61.3345 55.9118 62.5173 56.538C63.0884 56.8401 63.7381 57.0113 64.4272 57.0113H64.4335C65.6506 57.0099 66.7459 56.4736 67.4997 55.6225C68.1572 54.8831 68.5568 53.9032 68.5568 52.8283C68.5568 52.4539 68.5085 52.0927 68.4185 51.7481C68.1862 50.8672 67.6773 50.0996 66.9919 49.5493C67.9807 47.0624 70.3831 45.3074 73.1916 45.3074C75.0367 45.3074 76.7068 46.0646 77.9163 47.2901L88.4854 57.9987L85.7404 60.7801L77.8591 68.7652C76.6548 69.9573 75.0077 70.6915 73.1916 70.6915C72.2271 70.6915 71.3094 70.4843 70.4808 70.1115C70.4757 70.109 70.4694 70.1063 70.4631 70.104C68.8894 69.3889 67.638 68.076 66.9919 66.4507C67.6773 65.8989 68.1862 65.1326 68.4185 64.2506C68.5085 63.9072 68.5568 63.5446 68.5568 63.1718C68.5568 62.0967 68.1572 61.117 67.4997 60.3764C66.7459 59.5262 65.6531 58.9901 64.4362 58.9876H64.4272C63.7381 58.9876 63.0884 59.1585 62.5173 59.4607C61.3305 60.0894 60.483 61.2853 60.3242 62.6921C60.323 62.7101 60.3205 62.7269 60.3192 62.7435C60.314 62.8001 60.3091 62.8554 60.3053 62.9119C60.3053 62.9273 60.3053 62.9416 60.3026 62.9557C60.2786 63.2748 60.2671 63.5973 60.2671 63.9213C60.2671 69.241 63.398 73.8214 67.8945 75.8696L68.0454 75.9378C68.7002 76.2272 69.3842 76.4624 70.0911 76.6373C71.0849 76.8868 72.1231 77.018 73.1916 77.018C76.2107 77.018 78.9875 75.9699 81.1868 74.2122C81.3962 74.045 81.6005 73.8701 81.7998 73.6888L81.8048 73.6838L91.4055 63.9562L92.8852 62.4569L97.299 57.9846L98.6062 56.6613L99.7522 55.5003L103.199 52.0067C104.074 51.1206 104.823 50.1075 105.42 48.9977C106.417 47.1395 106.985 45.0101 106.985 42.7472C106.985 41.6721 106.857 40.6281 106.615 39.6289C106.071 37.3695 104.949 35.3405 103.416 33.7126C103.369 33.6624 103.322 33.6136 103.273 33.5647C103.266 33.5582 103.261 33.5531 103.256 33.5466C103.217 33.5082 103.179 33.4682 103.141 33.4297C103.132 33.4195 103.123 33.4117 103.114 33.4039C96.8523 26.9811 88.1579 23 78.5445 23C73.8793 23 69.4312 23.9361 65.3714 25.6348C63.3422 26.4835 61.4106 27.5224 59.597 28.7286C50.202 34.9856 44 45.7586 44 58C44 70.2414 50.202 81.0145 59.597 87.2701C61.4043 88.4724 63.3295 89.5089 65.3512 90.355C69.4159 92.06 73.8718 93 78.5445 93C88.2086 93 96.9463 88.9778 103.214 82.4957L103.244 82.4663C103.264 82.4455 103.284 82.4238 103.304 82.4033C103.344 82.3633 103.383 82.3221 103.421 82.281C103.436 82.2667 103.45 82.2514 103.464 82.2346C104.975 80.6183 106.083 78.6113 106.624 76.3775C106.871 75.3708 107 74.3189 107 73.2362C107 70.9679 106.429 68.8346 105.428 66.9741Z" fill="white"/>
<defs>
<clipPath id="clip0_4169_217">
<rect width="90" height="40" fill="white" transform="translate(30 86)"/>
</clipPath>
</defs>
</svg>
