<svg width="29" height="28" viewBox="0 0 29 28" fill="none" xmlns="http://www.w3.org/2000/svg">
<g id="Clip path group">
<mask id="mask0_478_1868" style="mask-type:luminance" maskUnits="userSpaceOnUse" x="0" y="0" width="29" height="28">
<g id="clip1_2032_25080">
<path id="Vector" d="M28.956 0.546875H0.609375V27.3658H28.956V0.546875Z" fill="white"/>
</g>
</mask>
<g mask="url(#mask0_478_1868)">
<g id="Group">
<path id="Vector_2" d="M24.0312 4.61921C23.8191 4.57911 23.6492 4.49899 23.4371 4.45889C23.3518 4.45889 22.3334 4.25842 22.2911 4.29851C22.1212 4.29851 21.9514 4.29851 21.7821 4.29851C21.7392 4.29851 21.6546 4.29851 21.6123 4.29851C21.0181 4.33861 20.5086 4.49899 20.0843 4.6994C19.9996 4.73949 19.9573 4.77959 19.8721 4.77959C19.4478 4.98 19.0658 5.26066 18.7267 5.50117C18.6844 5.54127 18.6415 5.58136 18.5569 5.62146C18.5569 5.62146 18.5145 5.62146 18.5145 5.66149C17.6659 6.26285 17.1141 6.54345 16.4776 5.34079C15.8834 4.1382 16.0533 2.49455 16.7321 1.25186L13.7189 0.570312C13.7189 0.610407 13.7189 0.690596 13.6766 0.730691C13.5497 1.45227 13.3799 2.45446 13.2523 3.53683C13.1254 4.98 13.1677 6.50336 13.8465 7.46551C15.8411 10.432 15.7988 12.7972 14.9073 14.5611C14.0163 17.8483 10.8763 18.5699 10.8763 18.5699C10.8763 18.5699 10.7065 18.3694 10.3244 18.0888C10.0277 18.169 9.77258 18.2091 9.56043 18.2492C8.11764 18.4095 6.67485 18.2492 5.23207 18.4496C3.74697 18.65 2.85604 19.1712 2.26188 19.9329C1.37095 21.1355 1.28571 22.8593 1.03125 24.6232L3.36497 25.1443C3.28036 23.9818 3.53481 22.6589 4.12898 21.817C4.68083 21.0153 5.52947 20.8549 6.4204 21.0153C7.26902 21.1756 8.16058 21.6968 8.83935 22.258C12.064 24.984 13.6343 27.9104 18.6415 27.1887C21.0181 26.8282 22.9698 25.6254 24.4979 23.9016C24.9222 23.4205 25.3888 22.8593 25.7708 22.258C29.7171 16.4452 30.8202 6.70383 24.0312 4.61921Z" fill="#D87C94"/>
<path id="Vector_3" d="M25.8162 15.7647C24.4157 19.0119 21.5301 21.9383 17.7536 22.6599C15.8013 23.0207 13.8066 22.6599 12.0248 21.7779C10.539 21.0162 9.09625 19.8136 7.399 19.4929C5.65945 19.1722 4.13141 20.0542 3.02833 21.2568C2.00985 22.2189 1.71309 23.5017 1.58555 24.7845L0.609375 24.5841C0.65168 23.1009 1.03369 21.5374 1.7977 20.2145C2.68863 18.6912 4.04681 17.5286 5.8716 17.1678C7.90855 16.807 9.39364 17.4885 10.2 18.0097C10.2423 18.0498 10.2846 18.0498 10.3269 18.0898C10.7089 18.3705 10.8787 18.5709 10.8787 18.5709C10.8787 18.5709 14.0617 17.8092 14.9103 14.5621C15.377 12.9185 15.4193 9.91189 13.2554 7.14578C13.0855 6.94537 12.958 6.70486 12.8734 6.46429C12.1094 4.78062 12.7035 2.33521 13.722 0.691628C13.7643 0.651533 13.722 0.571345 13.7643 0.53125L15.7167 0.972231C15.6314 0.932136 15.2923 2.1348 15.2494 2.25508C14.7828 4.17926 15.8436 5.863 16.2256 6.1436C17.0742 6.7449 17.7536 6.26388 18.6022 5.66252C18.6022 5.66252 18.6445 5.66252 18.6445 5.62243C18.6868 5.58239 18.7291 5.5423 18.8144 5.5022C18.8567 5.46211 18.899 5.42202 18.9413 5.42202C19.2387 5.2216 19.5778 4.98103 19.9598 4.82072C20.045 4.78062 20.0873 4.74053 20.1719 4.74053C20.6392 4.54005 21.1904 4.37973 21.7 4.33964C21.7423 4.33964 21.8269 4.33964 21.8692 4.33964C22.6755 4.25945 23.4818 4.37974 24.1183 4.66034H24.1612C27.1737 7.70705 27.4282 12.0365 25.8162 15.7647Z" fill="#EA8CA1"/>
<path id="Vector_4" d="M23.352 7.43053C26.4497 9.27458 24.7518 15.5283 23.0546 17.7733C20.3388 21.4613 15.2888 22.9045 11.2578 20.2186C13.7191 19.6974 15.7131 17.8935 16.5623 15.6886C17.75 12.5618 15.3317 7.55075 20.551 6.90935C21.6964 6.78913 22.5879 6.98955 23.352 7.43053Z" fill="#FC9FAF"/>
<path id="Vector_5" d="M12.9283 5.50117C12.9283 5.74168 12.8859 6.10247 12.8859 6.50336C12.1219 4.81968 12.7161 2.37427 13.7346 0.730691C13.7346 0.690596 13.7346 0.610407 13.7769 0.570312L14.8377 0.810883C14.4133 1.49237 13.8192 2.21395 13.6916 2.53465C13.5647 2.85535 13.4372 3.21614 13.3526 3.53683C13.0981 4.17829 12.9706 4.81968 12.9283 5.50117Z" fill="#FC9FAF"/>
<path id="Vector_6" d="M10.2414 18.0482C10.1568 18.0883 10.0716 18.0883 9.98698 18.0883C9.35051 18.1685 8.75634 18.0482 8.11988 17.968C6.67709 17.8478 5.192 18.1284 3.87613 18.7698C3.49412 18.9301 3.15505 19.1706 2.81534 19.3711C2.47627 19.6116 2.13658 19.8922 1.79688 20.1728C2.68844 18.6495 4.04598 17.487 5.87077 17.1262C7.95003 16.8055 9.43512 17.5271 10.2414 18.0482Z" fill="#FC9FAF"/>
</g>
</g>
</g>
</svg>
