<svg width="204" height="59" viewBox="0 0 204 59" fill="none" xmlns="http://www.w3.org/2000/svg">
<path d="M196.396 59H7.55371C3.40106 59 0 55.6794 0 51.625V7.375C0 3.32059 3.40106 7.56029e-07 7.55371 7.56029e-07H196.396C200.549 7.56029e-07 203.95 3.32059 203.95 7.375V51.625C203.95 55.6794 200.549 59 196.396 59Z" fill="white"/>
<path d="M71.6392 15.1087C71.6392 16.3403 71.2615 17.3267 70.5175 18.0623C69.662 18.9344 68.5479 19.3732 67.1825 19.3732C65.8776 19.3732 64.7634 18.9271 63.8494 18.0476C62.9336 17.1552 62.4766 16.06 62.4766 14.7491C62.4766 13.4382 62.9336 12.343 63.8494 11.458C64.7634 10.5712 65.8776 10.125 67.1825 10.125C67.8321 10.125 68.4515 10.2559 69.0426 10.4993C69.6318 10.7445 70.1115 11.0764 70.4589 11.4857L69.6696 12.2638C69.0634 11.565 68.2382 11.2202 67.1825 11.2202C66.2308 11.2202 65.4055 11.5447 64.7049 12.1992C64.0119 12.8556 63.6644 13.7056 63.6644 14.7491C63.6644 15.7927 64.0119 16.65 64.7049 17.3064C65.4055 17.9536 66.2308 18.2854 67.1825 18.2854C68.1928 18.2854 69.0426 17.9536 69.713 17.299C70.1549 16.8657 70.4061 16.2684 70.4722 15.5051H67.1825V14.4394H71.5712C71.6241 14.6698 71.6392 14.8929 71.6392 15.1087Z" fill="#1D2026"/>
<path d="M78.602 11.4141H74.4795V14.2166H78.196V15.2823H74.4795V18.0848H78.602V19.1707H73.3125V10.3281H78.602V11.4141Z" fill="#1D2026"/>
<path d="M83.5081 19.1707H82.3411V11.4141H79.8125V10.3281H86.0386V11.4141H83.5081V19.1707Z" fill="#1D2026"/>
<path d="M90.5469 19.1707V10.3281H91.712V19.1707H90.5469Z" fill="#1D2026"/>
<path d="M96.8753 19.1707H95.7177V11.4141H93.1797V10.3281H99.4134V11.4141H96.8753V19.1707Z" fill="#1D2026"/>
<path d="M111.201 18.0328C110.308 18.9271 109.201 19.3732 107.881 19.3732C106.554 19.3732 105.447 18.9271 104.554 18.0328C103.663 17.1405 103.219 16.0453 103.219 14.7491C103.219 13.453 103.663 12.3578 104.554 11.4654C105.447 10.5712 106.554 10.125 107.881 10.125C109.194 10.125 110.3 10.5712 111.194 11.4728C112.092 12.3725 112.536 13.4603 112.536 14.7491C112.536 16.0453 112.092 17.1405 111.201 18.0328ZM105.417 17.2917C106.089 17.9536 106.907 18.2854 107.881 18.2854C108.848 18.2854 109.673 17.9536 110.338 17.2917C111.009 16.6297 111.348 15.7798 111.348 14.7491C111.348 13.7185 111.009 12.8685 110.338 12.2066C109.673 11.5447 108.848 11.2128 107.881 11.2128C106.907 11.2128 106.089 11.5447 105.417 12.2066C104.746 12.8685 104.407 13.7185 104.407 14.7491C104.407 15.7798 104.746 16.6297 105.417 17.2917Z" fill="#1D2026"/>
<path d="M114.18 19.1707V10.3281H115.596L120 17.2053H120.051L120 15.5054V10.3281H121.165V19.1707H119.949L115.337 11.9543H115.286L115.337 13.6616V19.1707H114.18Z" fill="#1D2026"/>
<path d="M102.934 32.0863C99.3852 32.0863 96.4864 34.7228 96.4864 38.3605C96.4864 41.9688 99.3852 44.633 102.934 44.633C106.489 44.633 109.388 41.9688 109.388 38.3605C109.388 34.7228 106.489 32.0863 102.934 32.0863ZM102.934 42.1623C100.987 42.1623 99.3115 40.5933 99.3115 38.3605C99.3115 36.0983 100.987 34.5569 102.934 34.5569C104.88 34.5569 106.563 36.0983 106.563 38.3605C106.563 40.5933 104.88 42.1623 102.934 42.1623ZM88.8666 32.0863C85.3107 32.0863 82.4195 34.7228 82.4195 38.3605C82.4195 41.9688 85.3107 44.633 88.8666 44.633C92.4206 44.633 95.3137 41.9688 95.3137 38.3605C95.3137 34.7228 92.4206 32.0863 88.8666 32.0863ZM88.8666 42.1623C86.9178 42.1623 85.2371 40.5933 85.2371 38.3605C85.2371 36.0983 86.9178 34.5569 88.8666 34.5569C90.8136 34.5569 92.4886 36.0983 92.4886 38.3605C92.4886 40.5933 90.8136 42.1623 88.8666 42.1623ZM72.1276 34.0093V36.6753H78.6484C78.4576 38.1651 77.9478 39.2603 77.1659 40.0236C76.2142 40.9455 74.7318 41.9688 72.1276 41.9688C68.1147 41.9688 64.9724 38.8067 64.9724 34.8888C64.9724 30.9708 68.1147 27.8088 72.1276 27.8088C74.2974 27.8088 75.8762 28.6366 77.0413 29.7097L78.9656 27.8309C77.3359 26.3116 75.168 25.1445 72.1276 25.1445C66.6248 25.1445 62 29.5161 62 34.8888C62 40.2614 66.6248 44.633 72.1276 44.633C75.1019 44.633 77.3359 43.6816 79.0921 41.8968C80.8918 40.1398 81.4527 37.6691 81.4527 35.6742C81.4527 35.0547 81.3998 34.485 81.3054 34.0093H72.1276ZM140.576 36.0761C140.045 34.673 138.408 32.0863 135.073 32.0863C131.768 32.0863 129.016 34.6288 129.016 38.3605C129.016 41.8747 131.74 44.633 135.39 44.633C138.341 44.633 140.045 42.8759 140.745 41.8526L138.555 40.4274C137.824 41.4709 136.829 42.1623 135.39 42.1623C133.96 42.1623 132.935 41.5226 132.278 40.2614L140.872 36.7897L140.576 36.0761ZM131.813 38.1651C131.74 35.7461 133.738 34.5071 135.169 34.5071C136.291 34.5071 137.242 35.0547 137.56 35.8383L131.813 38.1651ZM124.828 44.2513H127.653V25.8138H124.828V44.2513ZM120.201 33.4838H120.107C119.472 32.75 118.262 32.0863 116.728 32.0863C113.511 32.0863 110.568 34.8445 110.568 38.3808C110.568 41.8968 113.511 44.633 116.728 44.633C118.262 44.633 119.472 43.9637 120.107 43.2078H120.201V44.1075C120.201 46.5062 118.889 47.795 116.772 47.795C115.046 47.795 113.975 46.5781 113.533 45.5548L111.076 46.556C111.785 48.2191 113.66 50.2656 116.772 50.2656C120.084 50.2656 122.879 48.3629 122.879 43.7332V32.4679H120.201V33.4838ZM116.97 42.1623C115.023 42.1623 113.393 40.5712 113.393 38.3808C113.393 36.1702 115.023 34.5569 116.97 34.5569C118.889 34.5569 120.401 36.1702 120.401 38.3808C120.401 40.5712 118.889 42.1623 116.97 42.1623ZM153.802 25.8138H147.045V44.2513H149.863V37.2653H153.802C156.931 37.2653 160 35.0547 160 31.5387C160 28.0245 156.924 25.8138 153.802 25.8138ZM153.876 34.7007H149.863V28.3785H153.876C155.979 28.3785 157.18 30.0839 157.18 31.5387C157.18 32.9657 155.979 34.7007 153.876 34.7007ZM171.293 32.0512C169.257 32.0512 167.14 32.9288 166.269 34.874L168.77 35.8973C169.308 34.874 170.297 34.5421 171.344 34.5421C172.805 34.5421 174.288 35.3995 174.31 36.9132V37.1068C173.8 36.8192 172.709 36.3933 171.366 36.3933C168.673 36.3933 165.929 37.8406 165.929 40.5417C165.929 43.0123 168.135 44.6035 170.615 44.6035C172.511 44.6035 173.557 43.7683 174.214 42.7966H174.31V44.2218H177.032V37.1492C177.032 33.8802 174.531 32.0512 171.293 32.0512ZM170.953 42.155C170.031 42.155 168.747 41.7088 168.747 40.5933C168.747 39.1663 170.348 38.6187 171.735 38.6187C172.975 38.6187 173.557 38.886 174.31 39.2382C174.089 40.9455 172.584 42.155 170.953 42.155ZM186.946 32.455L183.707 40.4477H183.611L180.263 32.455H177.224L182.255 43.6244L179.385 49.8397H182.329L190.081 32.455H186.946ZM161.548 44.2513H164.373V25.8138H161.548V44.2513Z" fill="#1D2026"/>
<path d="M15.7631 11.1167C15.3193 11.5703 15.0625 12.2765 15.0625 13.191V45.8106C15.0625 46.7251 15.3193 47.4312 15.7631 47.8848L15.8726 47.9844L34.5945 29.7128V29.2814L15.8726 11.0098L15.7631 11.1167Z" fill="url(#paint0_linear_348_1906)"/>
<path d="M40.8274 35.8125L34.5938 29.7189V29.2875L40.835 23.1939L40.9747 23.2732L48.366 27.3792C50.4754 28.5444 50.4754 30.4619 48.366 31.6346L40.9747 35.7332L40.8274 35.8125Z" fill="url(#paint1_linear_348_1906)"/>
<path d="M40.978 35.7265L34.597 29.4965L15.7656 47.8842C16.4662 48.6032 17.6087 48.6899 18.908 47.9708L40.978 35.7265Z" fill="url(#paint2_linear_348_1906)"/>
<path d="M40.978 23.27L18.908 11.0256C17.6087 10.3139 16.4662 10.4006 15.7656 11.1197L34.597 29.5L40.978 23.27Z" fill="url(#paint3_linear_348_1906)"/>
<defs>
<linearGradient id="paint0_linear_348_1906" x1="32.9322" y1="46.1503" x2="8.18527" y2="20.8037" gradientUnits="userSpaceOnUse">
<stop stop-color="#00A0FF"/>
<stop offset="0.0066" stop-color="#00A1FF"/>
<stop offset="0.2601" stop-color="#00BEFF"/>
<stop offset="0.5122" stop-color="#00D2FF"/>
<stop offset="0.7604" stop-color="#00DFFF"/>
<stop offset="1" stop-color="#00E3FF"/>
</linearGradient>
<linearGradient id="paint1_linear_348_1906" x1="51.1128" y1="29.5011" x2="14.5576" y2="29.5011" gradientUnits="userSpaceOnUse">
<stop stop-color="#FFE000"/>
<stop offset="0.4087" stop-color="#FFBD00"/>
<stop offset="0.7754" stop-color="#FFA500"/>
<stop offset="1" stop-color="#FF9C00"/>
</linearGradient>
<linearGradient id="paint2_linear_348_1906" x1="37.5082" y1="26.1097" x2="3.94934" y2="-8.26234" gradientUnits="userSpaceOnUse">
<stop stop-color="#FF3A44"/>
<stop offset="1" stop-color="#C31162"/>
</linearGradient>
<linearGradient id="paint3_linear_348_1906" x1="11.0254" y1="58.7401" x2="26.0109" y2="43.3916" gradientUnits="userSpaceOnUse">
<stop stop-color="#32A071"/>
<stop offset="0.0685" stop-color="#2DA771"/>
<stop offset="0.4762" stop-color="#15CF74"/>
<stop offset="0.8009" stop-color="#06E775"/>
<stop offset="1" stop-color="#00F076"/>
</linearGradient>
</defs>
</svg>
