<svg width="174" height="174" viewBox="0 0 174 174" fill="none" xmlns="http://www.w3.org/2000/svg">
<rect width="173.414" height="173.414" rx="40" fill="url(#paint0_linear_487_383)"/>
<path d="M90.3924 63.4115L117.805 80.7634L112.693 84.4828L87.3559 68.4447L62.2634 84.4764L57.1852 80.747L84.2982 63.4248C86.1649 62.2318 88.5207 62.2268 90.3924 63.4115Z" fill="white"/>
<path fill-rule="evenodd" clip-rule="evenodd" d="M37.1367 79.9019C33.7343 77.4031 33.8978 72.1189 37.4477 69.8508L84.2967 39.9189C86.1635 38.7261 88.5192 38.721 90.391 39.9058L137.678 69.8387C141.256 72.1031 141.42 77.4219 137.989 79.918L90.703 114.323C88.6867 115.79 85.9972 115.784 83.987 114.308L37.1367 79.9019ZM40.6117 74.8032L87.3544 44.939L134.535 74.8043C134.549 74.8132 134.549 74.814 134.549 74.814C134.549 74.814 134.549 74.814 134.554 74.822C134.565 74.842 134.585 74.8943 134.587 74.9724C134.59 75.0509 134.573 75.1073 134.561 75.1326C134.556 75.1431 134.552 75.1484 134.552 75.1484C134.552 75.1484 134.548 75.1543 134.532 75.1658L87.3559 109.491L40.6153 75.1652C40.6 75.1537 40.5949 75.1473 40.5949 75.1473C40.5949 75.1473 40.5905 75.1417 40.5855 75.1308C40.5736 75.1052 40.5567 75.0491 40.5591 74.9715C40.5615 74.8937 40.5817 74.842 40.5927 74.8217C40.5971 74.8135 40.5978 74.8132 40.5978 74.8132C40.5978 74.8132 40.598 74.812 40.6117 74.8032Z" fill="white"/>
<path d="M41.2556 90.926L46.3339 94.6554L40.6117 98.3114C40.6035 98.3167 40.5994 98.3199 40.5979 98.3214C40.5972 98.3223 40.5953 98.3249 40.5927 98.3299C40.5817 98.3502 40.5615 98.4019 40.5591 98.4798C40.5567 98.5573 40.5736 98.6134 40.5855 98.639C40.5877 98.644 40.5896 98.6475 40.5912 98.6502C40.5931 98.6531 40.5944 98.6549 40.5949 98.6555C40.5953 98.6561 40.6 98.6619 40.6153 98.6734L87.3559 132.999L134.532 98.674C134.548 98.6625 134.552 98.6566 134.552 98.6566C134.552 98.6561 134.554 98.6546 134.555 98.6514C134.557 98.649 134.559 98.6455 134.561 98.6408C134.573 98.6155 134.59 98.5591 134.587 98.4806C134.585 98.4025 134.565 98.3502 134.554 98.3302L134.549 98.3223C134.548 98.3217 134.549 98.3217 134.549 98.3223C134.548 98.3208 134.543 98.3176 134.535 98.3126L128.716 94.629L133.828 90.9095L137.678 93.347C141.256 95.6113 141.42 100.93 137.989 103.426L90.703 137.831C88.6867 139.298 85.9971 139.292 83.987 137.816L37.1367 103.41C33.7343 100.911 33.8978 95.6272 37.4477 93.359L41.2556 90.926Z" fill="white"/>
<defs>
<linearGradient id="paint0_linear_487_383" x1="93.5" y1="87" x2="157.203" y2="16" gradientUnits="userSpaceOnUse">
<stop stop-color="#8512E0"/>
<stop offset="1" stop-color="#BE63C5"/>
</linearGradient>
</defs>
</svg>
