<svg width="110" height="100" viewBox="0 0 110 100" fill="none" xmlns="http://www.w3.org/2000/svg">
<path d="M57.6758 24.4153L86.0561 41.7836L80.7637 45.5065L54.532 29.4533L28.5534 45.5001L23.2959 41.7671L51.3663 24.4286C53.299 23.2344 55.7379 23.2294 57.6758 24.4153Z" fill="white"/>
<path fill-rule="evenodd" clip-rule="evenodd" d="M2.54134 40.9198C-0.981216 38.4186 -0.81195 33.1295 2.86329 30.8592L51.3667 0.898982C53.2994 -0.294932 55.7383 -0.299992 57.6762 0.885893L106.633 30.8471C110.337 33.1136 110.507 38.4374 106.955 40.936L57.9992 75.3737C55.9117 76.8419 53.1272 76.836 51.0461 75.3584L2.54134 40.9198ZM6.13907 35.8162L54.5324 5.92384L103.379 35.8174C103.394 35.8263 103.394 35.8271 103.394 35.8271C103.394 35.8271 103.394 35.8271 103.398 35.8351C103.41 35.8551 103.431 35.9074 103.433 35.9857C103.436 36.0642 103.418 36.1207 103.406 36.146C103.401 36.1565 103.397 36.1618 103.397 36.1618C103.397 36.1618 103.392 36.1677 103.376 36.1792L54.5339 70.5366L6.14275 36.1786C6.12693 36.1671 6.12167 36.1607 6.12167 36.1607C6.12167 36.1607 6.1171 36.1551 6.1119 36.1442C6.09961 36.1186 6.08209 36.0624 6.08458 35.9848C6.08705 35.9068 6.10801 35.8551 6.11935 35.8348C6.12398 35.8265 6.12471 35.8263 6.12471 35.8263C6.12471 35.8263 6.12489 35.8251 6.13907 35.8162Z" fill="white"/>
<path d="M6.80573 51.9532L12.0633 55.6861L6.13907 59.3455C6.13055 59.3508 6.12632 59.3541 6.12474 59.3555C6.12401 59.3564 6.12212 59.3591 6.11935 59.3641C6.10801 59.3844 6.08705 59.4361 6.08458 59.5141C6.08209 59.5917 6.09961 59.6479 6.1119 59.6735C6.11421 59.6785 6.11622 59.682 6.11783 59.6847C6.11978 59.6876 6.12112 59.6894 6.12164 59.69C6.12206 59.6905 6.12693 59.6964 6.14275 59.7079L54.5339 94.0659L103.376 59.7085C103.392 59.697 103.397 59.6911 103.397 59.6911C103.397 59.6905 103.398 59.6891 103.4 59.6858C103.402 59.6835 103.404 59.68 103.406 59.6753C103.418 59.65 103.436 59.5935 103.433 59.515C103.431 59.4367 103.41 59.3844 103.398 59.3644L103.394 59.3564C103.393 59.3558 103.393 59.3558 103.394 59.3564C103.392 59.355 103.387 59.3517 103.379 59.3467L97.3548 55.6597L102.647 51.9367L106.633 54.3764C110.337 56.6429 110.507 61.9667 106.955 64.4653L57.9992 98.903C55.9117 100.371 53.1272 100.365 51.046 98.8877L2.54134 64.4491C-0.981215 61.9479 -0.81195 56.6588 2.86329 54.3885L6.80573 51.9532Z" fill="white"/>
</svg>
