<svg width="101" height="25" viewBox="0 0 101 25" fill="none" xmlns="http://www.w3.org/2000/svg">
<path d="M22.6447 13.4514C22.5447 14.8805 22.1643 16.2759 21.5251 17.558C20.8859 18.8401 20.0004 19.9837 18.9192 20.9236C17.838 21.8634 16.5822 22.5812 15.2237 23.0357C13.8651 23.4903 12.4303 23.6728 11.0012 23.5729L11.7622 12.6904L22.6447 13.4514Z" fill="#FFA800"/>
<path d="M16.1186 12.9919C16.0787 13.5635 15.9265 14.1217 15.6708 14.6345C15.4151 15.1474 15.0609 15.6048 14.6284 15.9808C14.1959 16.3567 13.6937 16.6438 13.1502 16.8256C12.6068 17.0075 12.0329 17.0805 11.4612 17.0405L11.7656 12.6875L16.1186 12.9919Z" fill="#FFBB00"/>
<path d="M12.5234 1.8125L19.0529 2.26909C21.457 2.4372 23.2697 4.52239 23.1016 6.92649L22.645 13.456L11.7625 12.695L12.5234 1.8125Z" fill="#59F2F6"/>
<path d="M0.878757 11.9315C0.97869 10.5024 1.35913 9.10691 1.99835 7.82483C2.63758 6.54274 3.52307 5.39912 4.60426 4.45925C5.68546 3.51937 6.9412 2.80166 8.29977 2.34709C9.65834 1.89252 11.0931 1.70999 12.5223 1.80992L11.7613 12.6924L0.878757 11.9315Z" fill="#EE5A24"/>
<path d="M11.0018 23.5744C9.57266 23.4744 8.17722 23.094 6.89514 22.4548C5.61305 21.8155 4.46943 20.9301 3.52956 19.8489C2.58968 18.7677 1.87197 17.5119 1.4174 16.1534C0.962831 14.7948 0.780302 13.36 0.880235 11.9309L11.7628 12.6918L11.0018 23.5744Z" fill="#25C16F"/>
<path d="M7.41262 12.3831C7.45259 11.8115 7.60477 11.2533 7.86046 10.7405C8.11615 10.2276 8.47034 9.77017 8.90282 9.39422C9.3353 9.01827 9.8376 8.73119 10.381 8.54936C10.9245 8.36753 11.4984 8.29452 12.07 8.33449L11.7656 12.6875L7.41262 12.3831Z" fill="#D33C4E"/>
<path d="M17.7675 13.1021C17.8198 12.3169 17.7165 11.529 17.4635 10.7835C17.2106 10.038 16.813 9.34941 16.2933 8.75712C15.7737 8.16483 15.1422 7.68041 14.435 7.33151C13.7277 6.98261 12.9586 6.77607 12.1714 6.72368L11.7734 12.7031L17.7675 13.1021Z" fill="#45A4EC"/>
<path d="M5.74848 12.2873C5.69719 13.0717 5.80164 13.8585 6.05586 14.6029C6.31008 15.3473 6.7091 16.0346 7.23013 16.6257C7.75116 17.2168 8.38399 17.7 9.09251 18.0478C9.80102 18.3955 10.5713 18.6011 11.3595 18.6526L11.75 12.6797L5.74848 12.2873Z" fill="#8BDF55"/>
<path d="M37.6152 17.1201V18.5H30.8389V17.1201H37.6152ZM31.1816 5.70312V18.5H29.4854V5.70312H31.1816ZM36.7188 11.2051V12.585H30.8389V11.2051H36.7188ZM37.5273 5.70312V7.0918H30.8389V5.70312H37.5273ZM44.5371 16.874V11.9785C44.5371 11.6035 44.461 11.2783 44.3086 11.0029C44.1621 10.7217 43.9395 10.5049 43.6407 10.3525C43.3418 10.2002 42.9727 10.124 42.5332 10.124C42.1231 10.124 41.7627 10.1943 41.4522 10.335C41.1475 10.4756 40.9073 10.6602 40.7315 10.8887C40.5616 11.1172 40.4766 11.3633 40.4766 11.627H38.8506C38.8506 11.2871 38.9385 10.9502 39.1143 10.6162C39.2901 10.2822 39.542 9.98047 39.8702 9.71094C40.2041 9.43555 40.6026 9.21875 41.0655 9.06055C41.5342 8.89648 42.0557 8.81445 42.6299 8.81445C43.3213 8.81445 43.9307 8.93164 44.458 9.16602C44.9913 9.40039 45.4073 9.75488 45.7061 10.2295C46.0108 10.6982 46.1631 11.2871 46.1631 11.9961V16.4258C46.1631 16.7422 46.1895 17.0791 46.2422 17.4365C46.3008 17.7939 46.3858 18.1016 46.4971 18.3594V18.5H44.8008C44.7188 18.3125 44.6543 18.0635 44.6075 17.7529C44.5606 17.4365 44.5371 17.1436 44.5371 16.874ZM44.8184 12.7344L44.836 13.877H43.1924C42.7295 13.877 42.3164 13.915 41.9532 13.9912C41.5899 14.0615 41.2852 14.1699 41.0391 14.3164C40.793 14.4629 40.6055 14.6475 40.4766 14.8701C40.3477 15.0869 40.2832 15.3418 40.2832 15.6348C40.2832 15.9336 40.3506 16.2061 40.4854 16.4521C40.6202 16.6982 40.8223 16.8945 41.0918 17.041C41.3672 17.1816 41.7041 17.252 42.1026 17.252C42.6006 17.252 43.0401 17.1465 43.4209 16.9355C43.8018 16.7246 44.1036 16.4668 44.3262 16.1621C44.5547 15.8574 44.6778 15.5615 44.6954 15.2744L45.3897 16.0566C45.3487 16.3027 45.2373 16.5752 45.0557 16.874C44.8741 17.1729 44.6309 17.46 44.3262 17.7354C44.0274 18.0049 43.67 18.2305 43.2539 18.4121C42.8438 18.5879 42.3809 18.6758 41.8653 18.6758C41.2207 18.6758 40.6553 18.5498 40.169 18.2979C39.6885 18.0459 39.3135 17.709 39.044 17.2871C38.7803 16.8594 38.6485 16.3818 38.6485 15.8545C38.6485 15.3447 38.7481 14.8965 38.9473 14.5098C39.1465 14.1172 39.4336 13.792 39.8086 13.5342C40.1836 13.2705 40.6348 13.0713 41.1621 12.9365C41.6895 12.8018 42.2784 12.7344 42.9288 12.7344H44.8184ZM53.7179 15.9775C53.7179 15.7432 53.6651 15.5264 53.5596 15.3271C53.46 15.1221 53.252 14.9375 52.9356 14.7734C52.6251 14.6035 52.1563 14.457 51.5294 14.334C51.002 14.2227 50.5245 14.0908 50.0968 13.9385C49.6749 13.7861 49.3145 13.6016 49.0157 13.3848C48.7227 13.168 48.4971 12.9131 48.3389 12.6201C48.1807 12.3271 48.1016 11.9844 48.1016 11.5918C48.1016 11.2168 48.1837 10.8623 48.3477 10.5283C48.5177 10.1943 48.755 9.89844 49.0596 9.64062C49.3702 9.38281 49.7423 9.18066 50.1759 9.03418C50.6095 8.8877 51.0929 8.81445 51.6261 8.81445C52.3878 8.81445 53.0382 8.94922 53.5772 9.21875C54.1163 9.48828 54.5294 9.84863 54.8165 10.2998C55.1036 10.7451 55.2471 11.2402 55.2471 11.7852H53.6212C53.6212 11.5215 53.5421 11.2666 53.3839 11.0205C53.2315 10.7686 53.0059 10.5605 52.7071 10.3965C52.4141 10.2324 52.0538 10.1504 51.6261 10.1504C51.1749 10.1504 50.8087 10.2207 50.5274 10.3613C50.252 10.4961 50.0499 10.6689 49.921 10.8799C49.7979 11.0908 49.7364 11.3135 49.7364 11.5479C49.7364 11.7236 49.7657 11.8818 49.8243 12.0225C49.8888 12.1572 50.0001 12.2832 50.1583 12.4004C50.3165 12.5117 50.5391 12.6172 50.8263 12.7168C51.1134 12.8164 51.4796 12.916 51.9249 13.0156C52.7042 13.1914 53.3458 13.4023 53.8497 13.6484C54.3536 13.8945 54.7286 14.1963 54.9747 14.5537C55.2208 14.9111 55.3438 15.3447 55.3438 15.8545C55.3438 16.2705 55.2559 16.6514 55.0802 16.9971C54.9102 17.3428 54.6612 17.6416 54.3331 17.8936C54.0108 18.1396 53.6241 18.333 53.1729 18.4736C52.7276 18.6084 52.2266 18.6758 51.67 18.6758C50.8321 18.6758 50.1231 18.5264 49.543 18.2275C48.963 17.9287 48.5235 17.542 48.2247 17.0674C47.9259 16.5928 47.7764 16.0918 47.7764 15.5645H49.4112C49.4346 16.0098 49.5636 16.3643 49.7979 16.6279C50.0323 16.8857 50.3194 17.0703 50.6593 17.1816C50.9991 17.2871 51.336 17.3398 51.67 17.3398C52.1153 17.3398 52.4874 17.2812 52.7862 17.1641C53.0909 17.0469 53.3223 16.8857 53.4805 16.6807C53.6388 16.4756 53.7179 16.2412 53.7179 15.9775ZM60.8859 18.6758C60.2237 18.6758 59.6232 18.5645 59.0841 18.3418C58.5509 18.1133 58.0909 17.7939 57.7042 17.3838C57.3234 16.9736 57.0304 16.4873 56.8253 15.9248C56.6202 15.3623 56.5177 14.7471 56.5177 14.0791V13.71C56.5177 12.9365 56.632 12.248 56.8605 11.6445C57.089 11.0352 57.3995 10.5195 57.7921 10.0977C58.1847 9.67578 58.63 9.35645 59.128 9.13965C59.6261 8.92285 60.1417 8.81445 60.6749 8.81445C61.3546 8.81445 61.9405 8.93164 62.4327 9.16602C62.9308 9.40039 63.338 9.72852 63.6544 10.1504C63.9708 10.5664 64.2052 11.0586 64.3575 11.627C64.5099 12.1895 64.5861 12.8047 64.5861 13.4727V14.2021H57.4845V12.875H62.9601V12.752C62.9366 12.3301 62.8487 11.9199 62.6964 11.5215C62.5499 11.123 62.3155 10.7949 61.9933 10.5371C61.671 10.2793 61.2316 10.1504 60.6749 10.1504C60.3058 10.1504 59.9659 10.2295 59.6554 10.3877C59.3448 10.54 59.0782 10.7686 58.8556 11.0732C58.6329 11.3779 58.4601 11.75 58.337 12.1895C58.214 12.6289 58.1525 13.1357 58.1525 13.71V14.0791C58.1525 14.5303 58.214 14.9551 58.337 15.3535C58.4659 15.7461 58.6505 16.0918 58.8907 16.3906C59.1368 16.6895 59.4327 16.9238 59.7784 17.0938C60.13 17.2637 60.5284 17.3486 60.9737 17.3486C61.548 17.3486 62.0343 17.2314 62.4327 16.9971C62.8312 16.7627 63.1798 16.4492 63.4786 16.0566L64.463 16.8389C64.2579 17.1494 63.9972 17.4453 63.6808 17.7266C63.3644 18.0078 62.9747 18.2363 62.5118 18.4121C62.0548 18.5879 61.5128 18.6758 60.8859 18.6758ZM73.9162 14.4307H75.6037C75.5158 15.2393 75.2843 15.9629 74.9093 16.6016C74.5343 17.2402 74.0041 17.7471 73.3185 18.1221C72.633 18.4912 71.7775 18.6758 70.7521 18.6758C70.0021 18.6758 69.3195 18.5352 68.7043 18.2539C68.0949 17.9727 67.5705 17.5742 67.131 17.0586C66.6916 16.5371 66.3517 15.9131 66.1115 15.1865C65.8771 14.4541 65.7599 13.6396 65.7599 12.7432V11.4688C65.7599 10.5723 65.8771 9.76074 66.1115 9.03418C66.3517 8.30176 66.6945 7.6748 67.1398 7.15332C67.591 6.63184 68.133 6.23047 68.7658 5.94922C69.3986 5.66797 70.1105 5.52734 70.9015 5.52734C71.8683 5.52734 72.6857 5.70898 73.3537 6.07227C74.0216 6.43555 74.5402 6.93945 74.9093 7.58398C75.2843 8.22266 75.5158 8.96387 75.6037 9.80762H73.9162C73.8341 9.20996 73.6818 8.69727 73.4591 8.26953C73.2365 7.83594 72.9201 7.50195 72.5099 7.26758C72.0998 7.0332 71.5636 6.91602 70.9015 6.91602C70.3332 6.91602 69.8322 7.02441 69.3986 7.24121C68.9709 7.45801 68.6105 7.76563 68.3175 8.16406C68.0304 8.5625 67.8136 9.04004 67.6671 9.59668C67.5207 10.1533 67.4474 10.7715 67.4474 11.4512V12.7432C67.4474 13.3701 67.5119 13.959 67.6408 14.5098C67.7755 15.0605 67.9777 15.5439 68.2472 15.96C68.5168 16.376 68.8595 16.7041 69.2755 16.9443C69.6916 17.1787 70.1838 17.2959 70.7521 17.2959C71.4728 17.2959 72.047 17.1816 72.4748 16.9531C72.9025 16.7246 73.2248 16.3965 73.4416 15.9688C73.6642 15.541 73.8224 15.0283 73.9162 14.4307ZM82.7365 16.874V11.9785C82.7365 11.6035 82.6604 11.2783 82.508 11.0029C82.3615 10.7217 82.1389 10.5049 81.84 10.3525C81.5412 10.2002 81.1721 10.124 80.7326 10.124C80.3225 10.124 79.9621 10.1943 79.6516 10.335C79.3469 10.4756 79.1066 10.6602 78.9309 10.8887C78.7609 11.1172 78.676 11.3633 78.676 11.627H77.05C77.05 11.2871 77.1379 10.9502 77.3137 10.6162C77.4895 10.2822 77.7414 9.98047 78.0695 9.71094C78.4035 9.43555 78.802 9.21875 79.2648 9.06055C79.7336 8.89648 80.2551 8.81445 80.8293 8.81445C81.5207 8.81445 82.1301 8.93164 82.6574 9.16602C83.1906 9.40039 83.6066 9.75488 83.9055 10.2295C84.2102 10.6982 84.3625 11.2871 84.3625 11.9961V16.4258C84.3625 16.7422 84.3889 17.0791 84.4416 17.4365C84.5002 17.7939 84.5852 18.1016 84.6965 18.3594V18.5H83.0002C82.9182 18.3125 82.8537 18.0635 82.8068 17.7529C82.76 17.4365 82.7365 17.1436 82.7365 16.874ZM83.0178 12.7344L83.0354 13.877H81.3918C80.9289 13.877 80.5158 13.915 80.1525 13.9912C79.7893 14.0615 79.4846 14.1699 79.2385 14.3164C78.9924 14.4629 78.8049 14.6475 78.676 14.8701C78.5471 15.0869 78.4826 15.3418 78.4826 15.6348C78.4826 15.9336 78.55 16.2061 78.6848 16.4521C78.8195 16.6982 79.0217 16.8945 79.2912 17.041C79.5666 17.1816 79.9035 17.252 80.302 17.252C80.8 17.252 81.2395 17.1465 81.6203 16.9355C82.0012 16.7246 82.3029 16.4668 82.5256 16.1621C82.7541 15.8574 82.8771 15.5615 82.8947 15.2744L83.5891 16.0566C83.548 16.3027 83.4367 16.5752 83.2551 16.874C83.0734 17.1729 82.8303 17.46 82.5256 17.7354C82.2268 18.0049 81.8693 18.2305 81.4533 18.4121C81.0432 18.5879 80.5803 18.6758 80.0646 18.6758C79.4201 18.6758 78.8547 18.5498 78.3684 18.2979C77.8879 18.0459 77.5129 17.709 77.2434 17.2871C76.9797 16.8594 76.8479 16.3818 76.8479 15.8545C76.8479 15.3447 76.9475 14.8965 77.1467 14.5098C77.3459 14.1172 77.633 13.792 78.008 13.5342C78.383 13.2705 78.8342 13.0713 79.3615 12.9365C79.8889 12.8018 80.4777 12.7344 81.1281 12.7344H83.0178ZM88.0061 10.4844V18.5H86.3801V8.99023H87.9621L88.0061 10.4844ZM90.9768 8.9375L90.968 10.4492C90.8332 10.4199 90.7043 10.4023 90.5813 10.3965C90.4641 10.3848 90.3293 10.3789 90.177 10.3789C89.802 10.3789 89.4709 10.4375 89.1838 10.5547C88.8967 10.6719 88.6536 10.8359 88.4543 11.0469C88.2551 11.2578 88.0969 11.5098 87.9797 11.8027C87.8684 12.0898 87.7952 12.4062 87.76 12.752L87.303 13.0156C87.303 12.4414 87.3586 11.9023 87.47 11.3984C87.5871 10.8945 87.7659 10.4492 88.0061 10.0625C88.2463 9.66992 88.551 9.36523 88.9202 9.14844C89.2952 8.92578 89.7405 8.81445 90.2561 8.81445C90.3733 8.81445 90.508 8.8291 90.6604 8.8584C90.8127 8.88184 90.9182 8.9082 90.9768 8.9375ZM95.7102 18.6758C95.0481 18.6758 94.4475 18.5645 93.9085 18.3418C93.3753 18.1133 92.9153 17.7939 92.5286 17.3838C92.1477 16.9736 91.8548 16.4873 91.6497 15.9248C91.4446 15.3623 91.3421 14.7471 91.3421 14.0791V13.71C91.3421 12.9365 91.4563 12.248 91.6848 11.6445C91.9134 11.0352 92.2239 10.5195 92.6165 10.0977C93.0091 9.67578 93.4544 9.35645 93.9524 9.13965C94.4505 8.92285 94.9661 8.81445 95.4993 8.81445C96.179 8.81445 96.7649 8.93164 97.2571 9.16602C97.7552 9.40039 98.1624 9.72852 98.4788 10.1504C98.7952 10.5664 99.0296 11.0586 99.1819 11.627C99.3343 12.1895 99.4104 12.8047 99.4104 13.4727V14.2021H92.3089V12.875H97.7845V12.752C97.761 12.3301 97.6731 11.9199 97.5208 11.5215C97.3743 11.123 97.1399 10.7949 96.8177 10.5371C96.4954 10.2793 96.0559 10.1504 95.4993 10.1504C95.1302 10.1504 94.7903 10.2295 94.4798 10.3877C94.1692 10.54 93.9026 10.7686 93.68 11.0732C93.4573 11.3779 93.2845 11.75 93.1614 12.1895C93.0384 12.6289 92.9768 13.1357 92.9768 13.71V14.0791C92.9768 14.5303 93.0384 14.9551 93.1614 15.3535C93.2903 15.7461 93.4749 16.0918 93.7151 16.3906C93.9612 16.6895 94.2571 16.9238 94.6028 17.0938C94.9544 17.2637 95.3528 17.3486 95.7981 17.3486C96.3723 17.3486 96.8587 17.2314 97.2571 16.9971C97.6555 16.7627 98.0042 16.4492 98.303 16.0566L99.2874 16.8389C99.0823 17.1494 98.8216 17.4453 98.5052 17.7266C98.1888 18.0078 97.7991 18.2363 97.3362 18.4121C96.8792 18.5879 96.3372 18.6758 95.7102 18.6758Z" fill="#505766"/>
</svg>
