<svg width="102" height="29" viewBox="0 0 102 29" fill="none" xmlns="http://www.w3.org/2000/svg">
<path d="M23.1789 15.4514C23.0789 16.8805 22.6985 18.2759 22.0593 19.558C21.42 20.8401 20.5345 21.9837 19.4534 22.9236C18.3722 23.8634 17.1164 24.5812 15.7578 25.0357C14.3993 25.4903 12.9645 25.6728 11.5354 25.5729L12.2963 14.6904L23.1789 15.4514Z" fill="#FFA800"/>
<path d="M16.6528 14.9919C16.6128 15.5635 16.4607 16.1217 16.205 16.6345C15.9493 17.1474 15.5951 17.6048 15.1626 17.9808C14.7301 18.3567 14.2278 18.6438 13.6844 18.8256C13.141 19.0075 12.5671 19.0805 11.9954 19.0405L12.2998 14.6875L16.6528 14.9919Z" fill="#FFBB00"/>
<path d="M13.0576 3.8125L19.5871 4.26909C21.9912 4.4372 23.8039 6.52239 23.6357 8.92649L23.1792 15.456L12.2966 14.695L13.0576 3.8125Z" fill="#59F2F6"/>
<path d="M1.41294 13.9315C1.51287 12.5024 1.89331 11.1069 2.53253 9.82483C3.17176 8.54274 4.05725 7.39912 5.13844 6.45925C6.21964 5.51937 7.47538 4.80166 8.83395 4.34709C10.1925 3.89252 11.6273 3.70999 13.0564 3.80992L12.2955 14.6924L1.41294 13.9315Z" fill="#EE5A24"/>
<path d="M11.536 25.5744C10.1068 25.4744 8.7114 25.094 7.42932 24.4548C6.14723 23.8155 5.00361 22.9301 4.06374 21.8489C3.12386 20.7677 2.40615 19.5119 1.95158 18.1534C1.49701 16.7948 1.31448 15.36 1.41441 13.9309L12.2969 14.6918L11.536 25.5744Z" fill="#25C16F"/>
<path d="M7.9468 14.3831C7.98677 13.8115 8.13895 13.2533 8.39464 12.7405C8.65033 12.2276 9.00452 11.7702 9.437 11.3942C9.86948 11.0183 10.3718 10.7312 10.9152 10.5494C11.4586 10.3675 12.0326 10.2945 12.6042 10.3345L12.2998 14.6875L7.9468 14.3831Z" fill="#D33C4E"/>
<path d="M18.3017 15.1021C18.354 14.3169 18.2507 13.529 17.9977 12.7835C17.7448 12.038 17.3471 11.3494 16.8275 10.7571C16.3078 10.1648 15.6764 9.68041 14.9691 9.33151C14.2619 8.98261 13.4928 8.77607 12.7056 8.72368L12.3076 14.7031L18.3017 15.1021Z" fill="#45A4EC"/>
<path d="M6.28265 14.2873C6.23137 15.0717 6.33582 15.8585 6.59004 16.6029C6.84426 17.3473 7.24328 18.0346 7.76431 18.6257C8.28534 19.2168 8.91817 19.7 9.62669 20.0478C10.3352 20.3955 11.1055 20.6011 11.8936 20.6526L12.2842 14.6797L6.28265 14.2873Z" fill="#8BDF55"/>
<path d="M38.1494 19.1201V20.5H31.373V19.1201H38.1494ZM31.7158 7.70312V20.5H30.0195V7.70312H31.7158ZM37.2529 13.2051V14.585H31.373V13.2051H37.2529ZM38.0615 7.70312V9.0918H31.373V7.70312H38.0615ZM45.0713 18.874V13.9785C45.0713 13.6035 44.9952 13.2783 44.8428 13.0029C44.6963 12.7217 44.4737 12.5049 44.1748 12.3525C43.876 12.2002 43.5069 12.124 43.0674 12.124C42.6573 12.124 42.2969 12.1943 41.9864 12.335C41.6817 12.4756 41.4414 12.6602 41.2657 12.8887C41.0957 13.1172 41.0108 13.3633 41.0108 13.627H39.3848C39.3848 13.2871 39.4727 12.9502 39.6485 12.6162C39.8243 12.2822 40.0762 11.9805 40.4043 11.7109C40.7383 11.4355 41.1368 11.2188 41.5996 11.0605C42.0684 10.8965 42.5899 10.8145 43.1641 10.8145C43.8555 10.8145 44.4649 10.9316 44.9922 11.166C45.5254 11.4004 45.9414 11.7549 46.2403 12.2295C46.545 12.6982 46.6973 13.2871 46.6973 13.9961V18.4258C46.6973 18.7422 46.7237 19.0791 46.7764 19.4365C46.835 19.7939 46.92 20.1016 47.0313 20.3594V20.5H45.335C45.253 20.3125 45.1885 20.0635 45.1416 19.7529C45.0948 19.4365 45.0713 19.1436 45.0713 18.874ZM45.3526 14.7344L45.3702 15.877H43.7266C43.2637 15.877 42.8506 15.915 42.4873 15.9912C42.1241 16.0615 41.8194 16.1699 41.5733 16.3164C41.3272 16.4629 41.1397 16.6475 41.0108 16.8701C40.8819 17.0869 40.8174 17.3418 40.8174 17.6348C40.8174 17.9336 40.8848 18.2061 41.0196 18.4521C41.1543 18.6982 41.3565 18.8945 41.626 19.041C41.9014 19.1816 42.2383 19.252 42.6368 19.252C43.1348 19.252 43.5743 19.1465 43.9551 18.9355C44.336 18.7246 44.6377 18.4668 44.8604 18.1621C45.0889 17.8574 45.212 17.5615 45.2295 17.2744L45.9239 18.0566C45.8829 18.3027 45.7715 18.5752 45.5899 18.874C45.4082 19.1729 45.1651 19.46 44.8604 19.7354C44.5616 20.0049 44.2041 20.2305 43.7881 20.4121C43.378 20.5879 42.9151 20.6758 42.3995 20.6758C41.7549 20.6758 41.1895 20.5498 40.7032 20.2979C40.2227 20.0459 39.8477 19.709 39.5782 19.2871C39.3145 18.8594 39.1827 18.3818 39.1827 17.8545C39.1827 17.3447 39.2823 16.8965 39.4815 16.5098C39.6807 16.1172 39.9678 15.792 40.3428 15.5342C40.7178 15.2705 41.169 15.0713 41.6963 14.9365C42.2237 14.8018 42.8125 14.7344 43.4629 14.7344H45.3526ZM54.252 17.9775C54.252 17.7432 54.1993 17.5264 54.0938 17.3271C53.9942 17.1221 53.7862 16.9375 53.4698 16.7734C53.1593 16.6035 52.6905 16.457 52.0636 16.334C51.5362 16.2227 51.0587 16.0908 50.6309 15.9385C50.2091 15.7861 49.8487 15.6016 49.5499 15.3848C49.2569 15.168 49.0313 14.9131 48.8731 14.6201C48.7149 14.3271 48.6358 13.9844 48.6358 13.5918C48.6358 13.2168 48.7179 12.8623 48.8819 12.5283C49.0518 12.1943 49.2891 11.8984 49.5938 11.6406C49.9044 11.3828 50.2764 11.1807 50.71 11.0342C51.1436 10.8877 51.627 10.8145 52.1602 10.8145C52.922 10.8145 53.5723 10.9492 54.1114 11.2188C54.6505 11.4883 55.0636 11.8486 55.3507 12.2998C55.6378 12.7451 55.7813 13.2402 55.7813 13.7852H54.1554C54.1554 13.5215 54.0763 13.2666 53.918 13.0205C53.7657 12.7686 53.5401 12.5605 53.2413 12.3965C52.9483 12.2324 52.588 12.1504 52.1602 12.1504C51.7091 12.1504 51.3429 12.2207 51.0616 12.3613C50.7862 12.4961 50.5841 12.6689 50.4552 12.8799C50.3321 13.0908 50.2706 13.3135 50.2706 13.5479C50.2706 13.7236 50.2999 13.8818 50.3585 14.0225C50.4229 14.1572 50.5343 14.2832 50.6925 14.4004C50.8507 14.5117 51.0733 14.6172 51.3604 14.7168C51.6475 14.8164 52.0138 14.916 52.4591 15.0156C53.2384 15.1914 53.88 15.4023 54.3839 15.6484C54.8878 15.8945 55.2628 16.1963 55.5089 16.5537C55.755 16.9111 55.878 17.3447 55.878 17.8545C55.878 18.2705 55.7901 18.6514 55.6143 18.9971C55.4444 19.3428 55.1954 19.6416 54.8673 19.8936C54.545 20.1396 54.1583 20.333 53.7071 20.4736C53.2618 20.6084 52.7608 20.6758 52.2042 20.6758C51.3663 20.6758 50.6573 20.5264 50.0772 20.2275C49.4971 19.9287 49.0577 19.542 48.7589 19.0674C48.46 18.5928 48.3106 18.0918 48.3106 17.5645H49.9454C49.9688 18.0098 50.0977 18.3643 50.3321 18.6279C50.5665 18.8857 50.8536 19.0703 51.1934 19.1816C51.5333 19.2871 51.8702 19.3398 52.2042 19.3398C52.6495 19.3398 53.0216 19.2812 53.3204 19.1641C53.6251 19.0469 53.8565 18.8857 54.0147 18.6807C54.1729 18.4756 54.252 18.2412 54.252 17.9775ZM61.42 20.6758C60.7579 20.6758 60.1573 20.5645 59.6183 20.3418C59.0851 20.1133 58.6251 19.7939 58.2384 19.3838C57.8575 18.9736 57.5646 18.4873 57.3595 17.9248C57.1544 17.3623 57.0519 16.7471 57.0519 16.0791V15.71C57.0519 14.9365 57.1661 14.248 57.3946 13.6445C57.6232 13.0352 57.9337 12.5195 58.3263 12.0977C58.7189 11.6758 59.1642 11.3564 59.6622 11.1396C60.1603 10.9229 60.6759 10.8145 61.2091 10.8145C61.8888 10.8145 62.4747 10.9316 62.9669 11.166C63.465 11.4004 63.8722 11.7285 64.1886 12.1504C64.505 12.5664 64.7394 13.0586 64.8917 13.627C65.0441 14.1895 65.1202 14.8047 65.1202 15.4727V16.2021H58.0187V14.875H63.4943V14.752C63.4708 14.3301 63.3829 13.9199 63.2306 13.5215C63.0841 13.123 62.8497 12.7949 62.5275 12.5371C62.2052 12.2793 61.7657 12.1504 61.2091 12.1504C60.84 12.1504 60.5001 12.2295 60.1896 12.3877C59.879 12.54 59.6124 12.7686 59.3898 13.0732C59.1671 13.3779 58.9943 13.75 58.8712 14.1895C58.7482 14.6289 58.6866 15.1357 58.6866 15.71V16.0791C58.6866 16.5303 58.7482 16.9551 58.8712 17.3535C59.0001 17.7461 59.1847 18.0918 59.4249 18.3906C59.671 18.6895 59.9669 18.9238 60.3126 19.0938C60.6642 19.2637 61.0626 19.3486 61.5079 19.3486C62.0821 19.3486 62.5685 19.2314 62.9669 18.9971C63.3654 18.7627 63.714 18.4492 64.0128 18.0566L64.9972 18.8389C64.7921 19.1494 64.5314 19.4453 64.215 19.7266C63.8986 20.0078 63.5089 20.2363 63.046 20.4121C62.589 20.5879 62.047 20.6758 61.42 20.6758ZM74.4504 16.4307H76.1379C76.05 17.2393 75.8185 17.9629 75.4435 18.6016C75.0685 19.2402 74.5382 19.7471 73.8527 20.1221C73.1671 20.4912 72.3117 20.6758 71.2863 20.6758C70.5363 20.6758 69.8537 20.5352 69.2384 20.2539C68.6291 19.9727 68.1046 19.5742 67.6652 19.0586C67.2257 18.5371 66.8859 17.9131 66.6457 17.1865C66.4113 16.4541 66.2941 15.6396 66.2941 14.7432V13.4688C66.2941 12.5723 66.4113 11.7607 66.6457 11.0342C66.8859 10.3018 67.2287 9.6748 67.674 9.15332C68.1252 8.63184 68.6671 8.23047 69.3 7.94922C69.9328 7.66797 70.6447 7.52734 71.4357 7.52734C72.4025 7.52734 73.2199 7.70898 73.8879 8.07227C74.5558 8.43555 75.0744 8.93945 75.4435 9.58398C75.8185 10.2227 76.05 10.9639 76.1379 11.8076H74.4504C74.3683 11.21 74.216 10.6973 73.9933 10.2695C73.7707 9.83594 73.4543 9.50195 73.0441 9.26758C72.6339 9.0332 72.0978 8.91602 71.4357 8.91602C70.8673 8.91602 70.3664 9.02441 69.9328 9.24121C69.505 9.45801 69.1447 9.76562 68.8517 10.1641C68.5646 10.5625 68.3478 11.04 68.2013 11.5967C68.0548 12.1533 67.9816 12.7715 67.9816 13.4512V14.7432C67.9816 15.3701 68.0461 15.959 68.175 16.5098C68.3097 17.0605 68.5119 17.5439 68.7814 17.96C69.0509 18.376 69.3937 18.7041 69.8097 18.9443C70.2257 19.1787 70.7179 19.2959 71.2863 19.2959C72.007 19.2959 72.5812 19.1816 73.0089 18.9531C73.4367 18.7246 73.7589 18.3965 73.9757 17.9688C74.1984 17.541 74.3566 17.0283 74.4504 16.4307ZM83.2707 18.874V13.9785C83.2707 13.6035 83.1945 13.2783 83.0422 13.0029C82.8957 12.7217 82.673 12.5049 82.3742 12.3525C82.0754 12.2002 81.7062 12.124 81.2668 12.124C80.8566 12.124 80.4963 12.1943 80.1857 12.335C79.8811 12.4756 79.6408 12.6602 79.465 12.8887C79.2951 13.1172 79.2102 13.3633 79.2102 13.627H77.5842C77.5842 13.2871 77.6721 12.9502 77.8479 12.6162C78.0236 12.2822 78.2756 11.9805 78.6037 11.7109C78.9377 11.4355 79.3361 11.2188 79.799 11.0605C80.2678 10.8965 80.7893 10.8145 81.3635 10.8145C82.0549 10.8145 82.6643 10.9316 83.1916 11.166C83.7248 11.4004 84.1408 11.7549 84.4396 12.2295C84.7443 12.6982 84.8967 13.2871 84.8967 13.9961V18.4258C84.8967 18.7422 84.923 19.0791 84.9758 19.4365C85.0344 19.7939 85.1193 20.1016 85.2307 20.3594V20.5H83.5344C83.4523 20.3125 83.3879 20.0635 83.341 19.7529C83.2941 19.4365 83.2707 19.1436 83.2707 18.874ZM83.552 14.7344L83.5695 15.877H81.926C81.4631 15.877 81.05 15.915 80.6867 15.9912C80.3234 16.0615 80.0187 16.1699 79.7727 16.3164C79.5266 16.4629 79.3391 16.6475 79.2102 16.8701C79.0812 17.0869 79.0168 17.3418 79.0168 17.6348C79.0168 17.9336 79.0842 18.2061 79.2189 18.4521C79.3537 18.6982 79.5559 18.8945 79.8254 19.041C80.1008 19.1816 80.4377 19.252 80.8361 19.252C81.3342 19.252 81.7736 19.1465 82.1545 18.9355C82.5354 18.7246 82.8371 18.4668 83.0598 18.1621C83.2883 17.8574 83.4113 17.5615 83.4289 17.2744L84.1232 18.0566C84.0822 18.3027 83.9709 18.5752 83.7893 18.874C83.6076 19.1729 83.3645 19.46 83.0598 19.7354C82.7609 20.0049 82.4035 20.2305 81.9875 20.4121C81.5773 20.5879 81.1145 20.6758 80.5988 20.6758C79.9543 20.6758 79.3889 20.5498 78.9025 20.2979C78.4221 20.0459 78.0471 19.709 77.7775 19.2871C77.5139 18.8594 77.382 18.3818 77.382 17.8545C77.382 17.3447 77.4816 16.8965 77.6809 16.5098C77.8801 16.1172 78.1672 15.792 78.5422 15.5342C78.9172 15.2705 79.3684 15.0713 79.8957 14.9365C80.423 14.8018 81.0119 14.7344 81.6623 14.7344H83.552ZM88.5403 12.4844V20.5H86.9143V10.9902H88.4963L88.5403 12.4844ZM91.511 10.9375L91.5022 12.4492C91.3674 12.4199 91.2385 12.4023 91.1155 12.3965C90.9983 12.3848 90.8635 12.3789 90.7112 12.3789C90.3362 12.3789 90.0051 12.4375 89.718 12.5547C89.4309 12.6719 89.1877 12.8359 88.9885 13.0469C88.7893 13.2578 88.6311 13.5098 88.5139 13.8027C88.4026 14.0898 88.3293 14.4062 88.2942 14.752L87.8371 15.0156C87.8371 14.4414 87.8928 13.9023 88.0041 13.3984C88.1213 12.8945 88.3 12.4492 88.5403 12.0625C88.7805 11.6699 89.0852 11.3652 89.4543 11.1484C89.8293 10.9258 90.2746 10.8145 90.7903 10.8145C90.9075 10.8145 91.0422 10.8291 91.1946 10.8584C91.3469 10.8818 91.4524 10.9082 91.511 10.9375ZM96.2444 20.6758C95.5823 20.6758 94.9817 20.5645 94.4427 20.3418C93.9095 20.1133 93.4495 19.7939 93.0628 19.3838C92.6819 18.9736 92.3889 18.4873 92.1839 17.9248C91.9788 17.3623 91.8763 16.7471 91.8763 16.0791V15.71C91.8763 14.9365 91.9905 14.248 92.219 13.6445C92.4475 13.0352 92.7581 12.5195 93.1507 12.0977C93.5432 11.6758 93.9886 11.3564 94.4866 11.1396C94.9846 10.9229 95.5003 10.8145 96.0335 10.8145C96.7132 10.8145 97.2991 10.9316 97.7913 11.166C98.2893 11.4004 98.6966 11.7285 99.013 12.1504C99.3294 12.5664 99.5638 13.0586 99.7161 13.627C99.8684 14.1895 99.9446 14.8047 99.9446 15.4727V16.2021H92.843V14.875H98.3186V14.752C98.2952 14.3301 98.2073 13.9199 98.055 13.5215C97.9085 13.123 97.6741 12.7949 97.3518 12.5371C97.0296 12.2793 96.5901 12.1504 96.0335 12.1504C95.6643 12.1504 95.3245 12.2295 95.0139 12.3877C94.7034 12.54 94.4368 12.7686 94.2141 13.0732C93.9915 13.3779 93.8186 13.75 93.6956 14.1895C93.5725 14.6289 93.511 15.1357 93.511 15.71V16.0791C93.511 16.5303 93.5725 16.9551 93.6956 17.3535C93.8245 17.7461 94.0091 18.0918 94.2493 18.3906C94.4954 18.6895 94.7913 18.9238 95.137 19.0938C95.4886 19.2637 95.887 19.3486 96.3323 19.3486C96.9065 19.3486 97.3929 19.2314 97.7913 18.9971C98.1897 18.7627 98.5384 18.4492 98.8372 18.0566L99.8216 18.8389C99.6165 19.1494 99.3557 19.4453 99.0393 19.7266C98.7229 20.0078 98.3333 20.2363 97.8704 20.4121C97.4134 20.5879 96.8714 20.6758 96.2444 20.6758Z" fill="white"/>
</svg>
