<svg width="32" height="35" viewBox="0 0 32 35" fill="none" xmlns="http://www.w3.org/2000/svg">
<g id="Clip path group">
<mask id="mask0_478_1832" style="mask-type:luminance" maskUnits="userSpaceOnUse" x="0" y="0" width="32" height="35">
<g id="clip1_2032_25388">
<path id="Vector" d="M0.582293 0.671875H31.1094V34.5752H0.582293V0.671875Z" fill="white"/>
</g>
</mask>
<g mask="url(#mask0_478_1832)">
<g id="Group">
<path id="Vector_2" d="M13.5781 15.4563C16.3314 16.3276 21.0982 13.9728 21.0982 13.9728C21.0982 13.9728 18.9492 12.354 18.7087 9.00434C18.7027 8.95721 18.7027 8.91015 18.7027 8.86303C18.6911 8.61576 18.685 8.35677 18.6972 8.08594L17.9454 8.69233L15.1217 10.9764C15.1217 10.9764 15.2687 12.1008 15.327 13.9728C14.8813 14.2201 14.523 14.4908 14.2528 14.7322C13.7949 15.1325 13.5781 15.4563 13.5781 15.4563Z" fill="#F4AC75"/>
<path id="Vector_3" d="M24.158 13.6177C24.158 13.6177 16.8784 12.4639 12.0818 15.6487C12.0818 15.6487 8.82392 37.006 11.6591 39.0312C14.495 41.0502 24.158 39.0312 24.158 39.0312V13.6177Z" fill="#F4AC75"/>
<path id="Vector_4" d="M14.4375 62.0036H27.5935C27.5935 62.0036 26.0675 39.4925 25.6272 34.0175C25.275 29.5731 24.5232 18.9179 24.253 15.0502C24.1886 14.1495 24.1534 13.6138 24.1534 13.6138L21.0128 13.0781L15.6174 20.0894C15.6174 20.0894 14.7666 38.7862 14.7958 41.7295C14.8249 44.6789 14.4551 56.1583 14.4375 58.0893C14.4199 60.0197 14.4375 62.0036 14.4375 62.0036Z" fill="#E9F2FF"/>
<path id="Vector_5" d="M15.6136 20.095L14.4337 62.0091H8.23438C8.23438 62.0091 8.5222 34.4415 8.53981 31.9099C8.55742 29.3783 7.86456 18.4643 9.80228 16.7748C11.4163 15.3619 15.3088 13.9844 15.3088 13.9844L15.6136 20.095Z" fill="#E9F2FF"/>
<path id="Vector_6" d="M15.2826 13.0156C15.2826 13.0156 13.5155 14.2342 13.5798 14.6757C13.6448 15.1113 13.8914 15.806 13.8914 15.806L14.971 15.5882L14.0614 16.2298C14.0614 16.2298 15.0943 19.2557 15.6226 20.0975L15.2826 13.0156Z" fill="#E9F2FF"/>
<path id="Vector_7" opacity="0.2" d="M24.9908 25.4982C24.2154 20.7299 15.2804 27.7765 16.02 34.0281C17.3942 45.6021 23.2468 58.5 27.5911 62.0087L24.9908 25.4982Z" fill="#B2CBFD"/>
<path id="Vector_8" d="M18.7096 9.00923C18.7218 8.92094 18.7509 8.87977 18.7509 8.87977L18.7042 8.86799L17.9409 8.70312L15.1172 10.9873C15.1172 10.9873 15.2405 12.0469 15.3285 13.9895C15.334 13.9778 18.2342 12.3647 18.7096 9.00923Z" fill="#C97C47"/>
<path id="Vector_9" d="M13.9643 11.6769C13.9643 11.6769 18.8781 11.5416 18.7433 8.47453C18.6079 5.40746 19.1544 3.32352 16.0132 3.28228C12.8725 3.24111 12.315 4.43611 12.1092 5.47219C11.91 6.50833 12.6849 11.6358 13.9643 11.6769Z" fill="#F4AC75"/>
<path id="Vector_10" d="M18.7482 8.87913C18.7482 8.87913 18.1082 9.04989 17.6029 8.37287C17.0983 7.69592 16.253 5.08805 15.1375 4.91729C14.022 4.74659 12.5543 5.57663 12.0788 5.10566C11.386 4.41692 10.5 3.28077 10.5 3.28077C10.5 3.28077 16.0241 -0.675187 18.2314 1.15559C20.4388 2.98643 21.2075 5.65904 18.7482 8.87913Z" fill="#2C3A64"/>
<path id="Vector_11" d="M12.1111 19.8262C12.2168 17.9247 13.2503 14.8341 13.2558 14.8047L12.9625 14.9342C12.9273 15.0578 12.1057 17.8835 12 19.8203L12.1111 19.8262Z" fill="#2C3A64"/>
<path id="Vector_12" d="M19.2615 25.4982C19.3672 25.3923 21.8915 22.9492 21.3571 21.242C21.1458 20.5768 20.7584 20.3119 20.3473 20.1176C19.9659 19.9763 19.0733 19.8292 18.6099 20.1235C17.7647 20.6533 17.342 22.1251 17.2188 24.5681L17.3183 24.574C17.4653 21.6776 18.2104 20.6239 18.7684 20.3884C19.4668 20.0882 20.694 20.2118 21.0814 21.3362C21.3456 22.1074 20.8227 23.1906 20.3418 23.9323C19.8014 24.7565 19.2202 25.4865 19.2142 25.4923H19.2615V25.4982Z" fill="#2C3A64"/>
<path id="Vector_13" d="M19.0044 25.7584C19.1045 25.8585 19.2629 25.8585 19.3564 25.7584L19.527 25.5878C19.6266 25.4877 19.6266 25.3288 19.527 25.2347C19.4329 25.1405 19.2684 25.1405 19.1749 25.2347L19.0044 25.4112C18.9048 25.5054 18.9048 25.6643 19.0044 25.7584Z" fill="#B64C41"/>
<path id="Vector_14" d="M17.2621 25.0384C17.3968 25.0384 17.5085 24.9265 17.5085 24.7912V24.544C17.5085 24.4087 17.3968 24.2969 17.2621 24.2969C17.1267 24.2969 17.0156 24.4087 17.0156 24.544V24.7912C17.0156 24.9265 17.1267 25.0384 17.2621 25.0384Z" fill="#B64C41"/>
<path id="Vector_15" d="M12.7489 19.8332C12.7489 19.4565 12.4435 19.1562 12.0737 19.1562C11.6978 19.1562 11.3984 19.4624 11.3984 19.8332C11.3984 20.21 11.7039 20.5102 12.0737 20.5102C12.4435 20.5102 12.7489 20.21 12.7489 19.8332Z" fill="#2C3A64"/>
<path id="Vector_16" d="M12.3914 19.8257C12.3914 19.6373 12.2391 19.4844 12.0515 19.4844C11.8633 19.4844 11.7109 19.6373 11.7109 19.8257C11.7109 20.014 11.8633 20.167 12.0515 20.167C12.2391 20.1729 12.3914 20.014 12.3914 19.8257Z" fill="#D6716B"/>
<path id="Vector_17" d="M15.1374 62.0027C15.1435 61.9614 15.5661 57.7404 15.4429 54.0672C15.39 52.5187 15.4368 50.6939 15.4781 48.9275C15.5364 46.4141 15.6718 43.9888 15.472 42.4111C15.1259 39.7089 15.1963 27.4286 15.3372 26.0926C15.4781 24.7975 15.3427 23.3728 15.2139 22.9431C15.0846 22.5075 15.6426 20.1115 15.6481 20.088L15.5837 20.0703C15.5601 20.1704 14.9552 22.531 15.0907 22.9843C15.2194 23.4082 15.4076 24.7975 15.2668 26.0867C15.1259 27.4171 14.8496 39.6974 15.1963 42.4051C15.3955 43.9766 15.4659 46.4141 15.4076 48.922C15.3663 50.6879 15.3196 52.5072 15.3724 54.0611C15.4957 57.7289 14.8733 61.9492 14.8672 61.9905H15.1374V62.0027Z" fill="#B2CBFD"/>
<path id="Vector_18" d="M4.25377 28.2891C4.25377 28.2891 2.59235 31.1619 4.33575 31.9155C6.07914 32.6691 6.26739 31.8742 6.26739 31.8742L4.25377 28.2891Z" fill="#E9F2FF"/>
<path id="Vector_19" d="M18.182 30.0722C18.182 30.0722 17.9179 30.6138 17.9476 31.1021C17.9768 31.6085 18.2173 32.3797 18.2173 32.3797C18.2173 32.3797 28.4912 34.5755 30.4927 32.7386C32.6357 30.7608 28.6552 15.973 26.9531 14.5248C26.2189 13.9008 24.6753 13.5182 23.2428 13.2945C22.4558 13.1708 21.7047 13.0884 21.1472 13.0413C20.5716 12.9883 20.1957 12.9766 20.1957 12.9766L20.4246 13.8361L21.3233 17.1739L22.3739 21.071C22.3739 21.071 25.5145 27.5527 25.6147 28.1648C25.7258 28.7709 18.182 30.0722 18.182 30.0722Z" fill="#E9F2FF"/>
<path id="Vector_20" opacity="0.2" d="M16.7656 19.0535C16.7656 19.0535 19.3835 17.9114 21.2683 16.8695C22.495 16.1866 23.1289 14.915 23.2583 13.2844C22.4713 13.1608 21.7201 13.0783 21.1627 13.0312C21.0746 13.0607 21.0157 13.0783 21.0157 13.0783L20.4461 13.8201L16.7656 19.0535Z" fill="#B2CBFD"/>
<path id="Vector_21" d="M15.625 20.0951L19.7051 12.2891C19.7051 12.2891 21.2256 12.6011 21.7363 13.0779C21.7363 13.0779 21.4776 15.4268 21.2724 15.9448C21.2724 15.9448 20.486 15.8565 20.3743 15.9212C20.3743 15.9212 20.7556 16.51 20.8673 16.5747C20.8734 16.5806 17.3216 18.2348 15.625 20.0951Z" fill="#E9F2FF"/>
<path id="Vector_22" d="M20.334 20.3932C20.6157 19.7751 23.0696 14.5123 22.4472 13.1701L22.2067 13.1406C22.6822 14.1531 20.9795 18.7332 20.2344 20.3697L20.334 20.3932Z" fill="#2C3A64"/>
<path id="Vector_23" opacity="0.5" d="M14.9308 24.9545C14.9308 24.7721 14.7839 24.625 14.6024 24.625C14.4203 24.625 14.2734 24.7721 14.2734 24.9545C14.2734 25.137 14.4203 25.2841 14.6024 25.2841C14.7839 25.2841 14.9308 25.137 14.9308 24.9545Z" fill="#B2CBFD"/>
<path id="Vector_24" d="M18.3847 14.8047C18.3847 14.8047 17.2516 15.3639 15.4141 15.0166L15.6193 20.0911L18.3847 14.8047Z" fill="#7A97F3"/>
<path id="Vector_25" d="M11.2098 20.8203L0.578125 21.774L7.06471 33.3243L17.0685 32.7468L11.2098 20.8203Z" fill="#D6716B"/>
<path id="Vector_26" d="M10.2342 20.7587C10.2342 20.7587 10.2282 19.1281 9.33006 19.2399C8.43195 19.3517 8.15625 20.9942 8.15625 20.9942L10.2342 20.7587Z" fill="#B2CBFD"/>
<path id="Vector_27" d="M0.648564 21.6177L11.2802 20.6641L17.1389 32.5908L17.0684 32.7438L11.2037 20.8112L0.578125 21.7649L0.648564 21.6177Z" fill="#B64C41"/>
<path id="Vector_28" d="M9.33428 19.2422C9.33428 19.2422 7.83135 19.9839 8.36573 22.3504C8.89403 24.717 9.55713 26.0179 9.16971 27.4191L2.00788 28.0786C2.00788 28.0786 2.78879 26.218 1.91983 24.3284C1.05693 22.4446 1.66721 20.2901 2.46574 20.1017L9.33428 19.2422Z" fill="#E9F2FF"/>
<path id="Vector_29" d="M5.74265 31.1684C5.74265 31.1684 6.82839 29.8556 6.60554 28.9077C6.38207 27.9597 5.57201 27.7424 5.07346 28.0776C4.58038 28.4134 3.85775 29.1785 3.99317 29.7675C4.12798 30.3499 5.19066 31.4393 5.74265 31.1684Z" fill="#F4AC75"/>
<path id="Vector_30" d="M18.7377 30.393C18.7377 30.393 16.8941 29.5811 16.0488 29.8161C15.2035 30.0517 14.0643 30.2224 13.9763 30.5284C13.8882 30.8345 14.5811 31.9591 15.6201 32.018C16.6591 32.0769 18.479 32.5597 18.9199 32.018C19.3601 31.4763 18.7377 30.393 18.7377 30.393Z" fill="#F4AC75"/>
</g>
</g>
</g>
</svg>
