<svg width="34" height="34" viewBox="0 0 34 34" fill="none" xmlns="http://www.w3.org/2000/svg">
<g id="Group 1000004765">
<path id="Vector" d="M9.67546 5.49155C11.3538 4.3481 13.6345 5.13477 14.2641 7.06495C14.3551 7.34856 14.4375 7.65958 14.5105 7.99804C14.921 9.94655 15.4131 11.4651 15.4497 14.9504C15.4862 18.4357 16.2161 19.4694 16.59 21.9942C16.9095 24.1073 16.8822 26.6138 14.3279 27.309C12.1568 27.9037 11.4541 26.5864 8.67192 28.5989C6.36336 30.2639 2.9881 30.977 2.66865 26.7327C2.53184 24.894 2.33126 23.6042 3.49019 18.4631C4.24733 15.1333 4.7946 13.7428 5.62479 11.5199C6.17206 10.0197 7.604 6.9095 9.67546 5.49155Z" fill="#61A2ED"/>
<path id="Vector_2" opacity="0.2" d="M11.1998 6.26203C9.05594 6.6279 7.32312 9.71986 6.04595 13.8364C3.92002 20.6881 3.58261 26.0944 4.59544 26.9726C6.22796 28.3814 7.45066 25.9481 9.47569 25.7376C11.51 25.5181 14.1925 26.506 15.0227 24.4936C15.8529 22.4811 14.0006 19.5995 14.3473 15.0164C14.4934 13.2418 14.3658 5.72231 11.1998 6.26203Z" fill="#61A2ED"/>
<path id="Vector_3" opacity="0.2" d="M11.82 7.87562C11.2089 7.68352 10.388 7.89388 9.65814 9.00991C8.16181 11.2969 7.73341 13.4191 7.15828 15.0017C6.65682 16.4013 4.69555 22.0272 6.13678 23.4818C7.04869 24.4057 8.68184 22.6035 10.2599 22.8871C11.6101 23.125 12.3586 23.4268 12.9238 23.1524C14.1465 22.5487 12.9603 20.4812 12.9238 19.1365C12.8693 17.2155 13.0241 16.0995 13.125 14.9743C13.216 13.8399 13.3894 8.36959 11.82 7.87562Z" fill="#61A2ED"/>
<path id="Vector_4" opacity="0.2" d="M11.6554 9.9233C11.336 9.81354 10.9076 9.90497 10.4971 10.4721C9.66691 11.6431 9.40193 12.7408 9.07382 13.555C8.78161 14.2776 6.58324 19.7937 7.60473 20.4707C8.19781 20.864 9.15616 20.3975 9.94983 20.425C10.6791 20.4432 11.2635 20.553 11.5824 20.3335C12.3123 19.8303 11.9749 18.8515 11.9928 17.4153C12.0207 15.7138 12.1482 13.9666 12.194 13.6464C12.2664 13.0609 12.4676 10.2068 11.6554 9.9233Z" fill="#75B3F2"/>
<path id="Vector_5" d="M25.5005 5.49158C23.8221 4.34806 21.5414 5.1348 20.9118 7.06498C20.8208 7.34858 20.7385 7.65955 20.6654 7.99807C20.255 9.94651 19.7622 11.4651 19.7263 14.9504C19.6897 18.4356 18.9598 19.4694 18.5859 21.9941C18.2665 24.1073 18.2937 26.6138 20.848 27.309C23.0192 27.9036 23.7218 26.5863 26.504 28.5989C28.8126 30.2639 32.1878 30.9771 32.5073 26.7327C32.6441 24.894 32.8447 23.6041 31.6857 18.4631C30.9286 15.1333 30.3813 13.7429 29.5511 11.5199C29.0039 10.0197 27.5713 6.90947 25.5005 5.49158Z" fill="#61A2ED"/>
<path id="Vector_6" opacity="0.2" d="M23.9838 6.26203C26.1277 6.62797 27.8612 9.71992 29.1383 13.8364C31.2643 20.6881 31.6017 26.0945 30.5889 26.9726C28.9557 28.3814 27.7336 25.9481 25.708 25.7377C23.6737 25.5181 20.9918 26.5061 20.1616 24.4936C19.3314 22.4811 21.1831 19.5995 20.8364 15.0165C20.6909 13.2418 20.8278 5.72231 23.9838 6.26203Z" fill="#61A2ED"/>
<path id="Vector_7" opacity="0.2" d="M23.3661 7.87561C23.9772 7.68351 24.7987 7.89394 25.5286 9.00996C27.0243 11.2969 27.4533 13.4192 28.0278 15.0018C28.5299 16.4013 30.4912 22.0273 29.0499 23.4817C28.1374 24.4057 26.5043 22.6036 24.9262 22.8871C23.576 23.125 22.8281 23.4268 22.2623 23.1524C21.0402 22.5487 22.2258 20.4813 22.2623 19.1366C22.3174 17.2155 22.162 16.0995 22.0617 14.9743C21.9794 13.84 21.7974 8.36958 23.3661 7.87561Z" fill="#61A2ED"/>
<path id="Vector_8" opacity="0.2" d="M23.5241 9.92329C23.8435 9.81353 24.2725 9.90503 24.683 10.4722C25.5132 11.6431 25.7775 12.7408 26.1063 13.555C26.3979 14.2776 28.5968 19.7937 27.5747 20.4707C26.9816 20.8641 26.0239 20.3975 25.2303 20.4249C24.5004 20.4433 23.9166 20.553 23.5971 20.3334C22.8672 19.8303 23.2052 18.8515 23.1867 17.4153C23.1594 15.7138 23.0319 13.9666 22.9861 13.6465C22.9223 13.061 22.7124 10.2069 23.5241 9.92329Z" fill="#75B3F2"/>
<path id="Vector_9" d="M28.0553 22.9653C28.1377 22.9653 28.2287 22.9653 28.311 22.9653C28.3841 22.9653 28.4658 22.9836 28.5296 23.011C28.6757 23.0659 28.7852 23.194 28.8855 23.3403C28.9858 23.4776 29.0774 23.6331 29.1957 23.7612C29.3146 23.8892 29.46 23.9989 29.6247 24.0539C29.7064 24.0813 29.7888 24.0996 29.8618 24.1179C29.9349 24.1362 30.0166 24.1454 30.0896 24.1545C30.2358 24.1728 30.3819 24.182 30.5187 24.182C30.783 24.182 31.0022 24.1454 31.1483 24.1179C31.3031 24.0905 31.3854 24.063 31.3854 24.063C31.3854 24.063 31.3031 24.0813 31.1483 24.1088C30.9929 24.127 30.783 24.1545 30.5187 24.1454C30.3911 24.1362 30.245 24.127 30.0989 24.1088C29.9528 24.0813 29.7981 24.0539 29.652 23.9898C29.5058 23.9258 29.3783 23.8252 29.2687 23.6971C29.1592 23.5691 29.0774 23.4226 28.9765 23.2671C28.8855 23.1208 28.758 22.9653 28.5847 22.8829C28.493 22.8463 28.402 22.8189 28.311 22.8189C28.2194 22.8189 28.1463 22.8189 28.0646 22.8097C27.7452 22.7915 27.4536 22.7183 27.2344 22.6085C27.006 22.4987 26.8512 22.3615 26.7509 22.2609C26.7144 22.2243 26.6872 22.1877 26.6686 22.1603C26.6599 22.1419 26.6506 22.1237 26.6413 22.1054C26.5776 21.7943 26.5411 21.4833 26.5045 21.154C26.4315 20.5411 26.377 19.9191 26.3132 19.2878C26.2854 18.9768 26.2488 18.6567 26.2037 18.3456C26.1944 18.2633 26.1764 18.181 26.1578 18.1078C26.1399 18.0255 26.1213 17.9523 26.1034 17.8699C26.0848 17.8059 26.0848 17.6687 26.2581 17.7693C26.3498 17.8242 26.4587 17.8791 26.5776 17.9523C26.7144 18.0346 26.8512 18.1352 26.9973 18.2359C27.079 18.2999 27.1614 18.3639 27.2437 18.4371C27.271 18.4554 27.2889 18.4828 27.3168 18.5012C27.3527 18.5378 27.3892 18.5743 27.4257 18.6109C27.5625 18.7481 27.6814 18.9128 27.791 19.0866C27.9006 19.2604 27.9823 19.4525 28.0553 19.6538C28.1284 19.855 28.1742 20.0562 28.2107 20.2667C28.2287 20.3673 28.2473 20.4862 28.3017 20.596C28.3475 20.7058 28.4293 20.8064 28.5296 20.8613C28.6298 20.9253 28.7394 20.9527 28.8397 20.9711C28.9406 20.9893 29.0409 20.9893 29.1319 20.9985C29.3232 21.0077 29.4966 21.0168 29.652 21.0351C29.9714 21.0717 30.2265 21.154 30.3998 21.2455C30.4822 21.2912 30.5459 21.3278 30.5917 21.3553C30.5552 21.3278 30.4914 21.2821 30.4091 21.2363C30.245 21.1357 29.9894 21.0351 29.6612 20.9711C29.4966 20.9436 29.3232 20.9253 29.1412 20.907C28.9586 20.8796 28.758 20.8613 28.6212 20.7606C28.5481 20.7149 28.5023 20.6417 28.4658 20.5503C28.4385 20.4679 28.4206 20.3673 28.4113 20.2575C28.3841 20.038 28.3383 19.8276 28.2838 19.608C28.2194 19.3885 28.1377 19.1781 28.0374 18.986C27.9823 18.8762 27.9092 18.7664 27.8455 18.6749C27.8089 18.6292 27.6814 18.5286 27.882 18.5469C27.9823 18.556 28.0919 18.556 28.2014 18.5652C28.2838 18.5743 28.3655 18.5743 28.4571 18.5835C28.5481 18.5926 28.6577 18.5835 28.7487 18.5378C28.8397 18.492 28.9221 18.428 28.9765 18.3548C29.0316 18.2816 29.0682 18.1993 29.1047 18.1261C29.1684 17.9706 29.2143 17.8334 29.278 17.7236C29.3053 17.6687 29.3418 17.623 29.3876 17.5863C29.4241 17.5498 29.4693 17.5315 29.5059 17.5315C29.5424 17.5223 29.5696 17.5223 29.5882 17.5223C29.6061 17.5223 29.6154 17.5223 29.6154 17.5223C29.6154 17.5223 29.6061 17.5223 29.5882 17.5132C29.5696 17.5132 29.5331 17.5041 29.4966 17.5132C29.46 17.5132 29.4148 17.5315 29.369 17.5589C29.3232 17.5863 29.278 17.6321 29.2415 17.687C29.1592 17.7968 29.0954 17.934 29.0131 18.0804C28.9765 18.1535 28.9313 18.2176 28.8762 18.2725C28.8218 18.3273 28.758 18.3731 28.6942 18.3914C28.6212 18.4097 28.5574 18.4097 28.4751 18.4005C28.3927 18.3822 28.311 18.3731 28.2287 18.3548C28.0646 18.3273 27.9185 18.2999 27.791 18.2816C27.791 18.2816 27.5174 18.2359 27.2344 18.0255C27.079 17.9065 26.9422 17.7876 26.8054 17.6962C26.5318 17.5041 26.2854 17.3668 26.1034 17.2845C26.0031 17.2387 25.93 17.1473 25.8935 17.0466C25.7288 16.5801 25.5196 16.1319 25.2546 15.7294C25.0998 15.4915 24.7253 15.0799 25.0998 14.6408C25.2732 14.4395 25.4279 14.1743 25.6471 13.9547C25.7567 13.8449 25.8749 13.7351 26.0117 13.6528C26.1486 13.5705 26.3039 13.5064 26.4587 13.479C26.5503 13.4607 26.6141 13.4516 26.6958 13.4699C26.7689 13.479 26.8419 13.5156 26.915 13.5522C27.0518 13.6345 27.1793 13.7443 27.3168 13.8449C27.4443 13.9456 27.5811 14.0462 27.7359 14.0919C27.8913 14.1285 28.0374 14.1285 28.1649 14.1102C28.4293 14.0828 28.6391 14.0004 28.776 13.9364C28.9128 13.8724 28.9858 13.8266 28.9858 13.8266C28.9858 13.8266 28.9128 13.8724 28.7673 13.9272C28.6212 13.9822 28.4113 14.0553 28.1556 14.0645C28.0281 14.0736 27.8913 14.0553 27.7452 14.0187C27.6176 13.973 27.4895 13.8724 27.3712 13.7626C27.2524 13.6528 27.1249 13.5339 26.9788 13.4333C26.9057 13.3875 26.8147 13.3418 26.7237 13.3143C26.6321 13.2869 26.5138 13.2961 26.4408 13.3052C26.2488 13.3235 25.9573 13.4424 25.9114 13.4059C25.8204 13.3509 25.7839 13.1863 25.7381 13.0216C25.6929 12.8478 25.6564 12.6465 25.6743 12.427C25.6836 12.3173 25.7109 12.2167 25.7567 12.0977C25.8019 11.9971 25.8477 11.8873 25.9114 11.7775C26.0303 11.5671 26.1486 11.3567 26.2581 11.1555C26.3132 11.0549 26.3677 10.9542 26.4135 10.8628C26.4408 10.817 26.4587 10.7713 26.4773 10.7255C26.4952 10.6798 26.5138 10.6341 26.5318 10.5883C26.5683 10.506 26.5869 10.4237 26.6048 10.3505C26.6141 10.3139 26.6141 10.2773 26.6234 10.2499C26.6234 10.2132 26.6234 10.1858 26.6234 10.1584C26.6234 10.1035 26.6141 10.0669 26.6141 10.0395C26.6141 10.0669 26.6234 10.1126 26.6234 10.1584C26.6234 10.1858 26.6234 10.2132 26.6141 10.2499C26.6048 10.2773 26.5955 10.3139 26.5955 10.3505C26.5776 10.4237 26.5503 10.4968 26.5138 10.5883C26.4952 10.6341 26.4773 10.6707 26.4587 10.7164C26.4408 10.7621 26.4135 10.8079 26.3857 10.8536C26.3405 10.9451 26.2767 11.0365 26.2216 11.1372C26.1034 11.3293 25.9665 11.5305 25.8384 11.7409C25.7746 11.8415 25.7109 11.9513 25.6564 12.0702C25.6106 12.1801 25.5648 12.2989 25.5468 12.4179C25.5103 12.6557 25.5375 12.8844 25.574 13.0674C25.6106 13.2503 25.6836 13.4882 25.6471 13.5339C25.6285 13.5522 25.0082 14.2383 24.8441 14.4304C24.5705 14.7597 24.1508 14.5585 24.0047 14.4579C23.8592 14.3572 23.7131 14.2749 23.567 14.1925C23.4574 14.1285 23.2568 13.6711 23.2475 13.4333C23.2389 13.1954 23.211 12.9301 23.2023 12.6557C23.193 12.5185 23.193 12.3722 23.211 12.2349C23.2296 12.0977 23.2568 11.9605 23.3206 11.8415C23.3843 11.7226 23.4939 11.6312 23.6128 11.5671C23.731 11.5031 23.8864 11.4573 24.014 11.3933C24.2783 11.2652 24.4975 11.0915 24.6436 10.9176C24.7983 10.7438 24.8807 10.57 24.9265 10.442C24.9717 10.3139 24.9902 10.2407 24.9902 10.2407C24.9902 10.2407 24.9717 10.3139 24.9172 10.4328C24.8627 10.5517 24.7618 10.7164 24.607 10.881C24.4516 11.0457 24.2331 11.1921 23.9774 11.2927C23.8499 11.3476 23.7131 11.375 23.5577 11.4299C23.4122 11.4939 23.3113 11.5854 23.211 11.7226C23.193 11.7501 23.1293 11.8965 23.12 11.8233C23.0928 11.7226 23.0469 11.6129 22.9925 11.4939C22.9287 11.375 22.8464 11.2652 22.7461 11.1463C22.6458 11.0365 22.5269 10.936 22.4173 10.8353C22.3077 10.7347 22.1802 10.6249 22.2075 10.4968C22.2167 10.442 22.2626 10.3596 22.2898 10.2773L22.3263 10.1584C22.3356 10.1126 22.3443 10.076 22.3536 10.0303C22.3901 9.86561 22.3901 9.69183 22.3721 9.52716C22.3628 9.36254 22.3356 9.20703 22.3263 9.05152C22.317 8.896 22.317 8.74959 22.3443 8.6124C22.3721 8.47521 22.4173 8.34712 22.4631 8.23736C22.5634 8.00867 22.691 7.84399 22.7826 7.73423C22.8736 7.62447 22.9374 7.56955 22.9374 7.56955C22.9374 7.56955 22.8736 7.62447 22.7733 7.73423C22.673 7.84399 22.5455 8.00867 22.4359 8.2282C22.3808 8.33796 22.3263 8.46605 22.2991 8.6124C22.2626 8.74959 22.2533 8.90511 22.2626 9.06062C22.2718 9.21613 22.2805 9.38081 22.2898 9.53632C22.2991 9.701 22.2898 9.85651 22.2533 10.0211C22.244 10.0578 22.2353 10.1035 22.226 10.1401L22.1895 10.2499L22.1437 10.3596L22.1165 10.4145C22.1072 10.4328 22.0985 10.4602 22.0985 10.4877C22.0892 10.5334 22.0892 10.5883 22.1072 10.6341C22.1257 10.6798 22.1437 10.7255 22.1709 10.7621C22.226 10.8353 22.2805 10.8902 22.3356 10.9451C22.4452 11.0549 22.5541 11.1555 22.6458 11.2652C22.7368 11.375 22.8005 11.4757 22.8556 11.5854C22.9559 11.7958 22.9832 11.9971 23.0011 12.1343C23.0011 12.1709 23.0011 12.2075 23.0104 12.2349C22.9832 12.3813 22.9739 12.5277 22.9646 12.6649C22.9559 12.9576 22.9467 13.2229 22.9467 13.4424C22.9374 13.8449 22.7095 13.7901 22.6179 13.7535C22.1623 13.5796 21.724 13.4699 21.3686 13.3693C21.0671 13.2778 20.812 13.1954 20.5836 13.1131C20.1366 12.9119 19.6896 12.6557 19.4432 12.3538C19.2792 12.1617 19.1517 11.9056 19.0328 11.6403C18.7499 10.9725 18.6223 10.2499 18.6223 9.52716V0.589804C18.6223 0.397702 18.2026 0.242188 17.6826 0.242188C17.1625 0.242188 16.7434 0.397702 16.7434 0.589804V9.47231C16.7434 10.1858 16.6153 10.8994 16.3416 11.558C16.2321 11.8324 16.0866 12.0977 15.9219 12.2989C15.6755 12.5917 15.2285 12.857 14.7815 13.0582C14.7085 13.0857 14.4714 13.104 14.4169 13.0033C14.3897 12.9576 14.3531 12.9027 14.3166 12.8478C14.2801 12.8021 14.2343 12.7472 14.1885 12.6923C14.134 12.6283 14.0151 12.4362 14.0244 12.3904C14.043 12.2349 14.0609 12.0062 14.0244 11.7409C14.0064 11.6037 13.9606 11.4665 13.9061 11.3202C13.8418 11.1738 13.76 11.0365 13.6598 10.9085C13.5595 10.7804 13.4499 10.6523 13.3496 10.5243C13.2493 10.3962 13.1763 10.2499 13.1212 10.0852C13.076 9.92969 13.0481 9.75585 13.0574 9.59123C13.0574 9.42656 13.076 9.25272 13.0846 9.09721C13.0939 8.93259 13.0939 8.77708 13.0667 8.62156C13.0394 8.47521 12.9843 8.33796 12.9299 8.21903C12.8203 7.98118 12.6835 7.8074 12.5832 7.69764C12.4829 7.58781 12.4191 7.53296 12.4191 7.53296C12.4191 7.53296 12.4829 7.58781 12.5832 7.70674C12.6835 7.82567 12.811 7.99951 12.9113 8.23736C12.9664 8.35629 13.0122 8.48431 13.0301 8.63066C13.0481 8.77708 13.0481 8.93259 13.0301 9.0881C13.0122 9.25272 12.9936 9.41739 12.9843 9.59123C12.9757 9.76501 12.9936 9.94795 13.0394 10.1126C13.0846 10.2865 13.167 10.4511 13.2673 10.5975C13.3675 10.7438 13.4771 10.8628 13.5681 11C13.6598 11.1281 13.7328 11.2652 13.7873 11.3933C13.8418 11.5214 13.8696 11.6586 13.8783 11.7775C13.9061 12.0154 13.76 12.2898 13.7049 12.2532C13.6412 12.2075 13.5681 12.1617 13.4957 12.116C13.3496 12.0245 13.2035 11.9422 13.0481 11.869C12.8933 11.7867 12.7293 11.7226 12.5646 11.6586C12.4005 11.5946 12.2365 11.5397 12.0724 11.4848C11.9077 11.4299 11.7437 11.3842 11.5889 11.3384C11.5159 11.311 11.4335 11.2927 11.3698 11.2652C11.3332 11.247 11.2967 11.2378 11.2695 11.2195C11.2329 11.2012 11.2057 11.1829 11.1692 11.1646C11.1054 11.1372 11.0503 11.0915 10.9866 11.0549C10.9321 11.0091 10.877 10.9725 10.8318 10.9268C10.7315 10.8444 10.6584 10.7529 10.5941 10.6707C10.5303 10.5883 10.4851 10.506 10.4486 10.442C10.3848 10.3047 10.3569 10.2224 10.3569 10.2224C10.3569 10.2224 10.3662 10.3139 10.43 10.4511C10.4572 10.5243 10.503 10.6066 10.5581 10.6981C10.6126 10.7896 10.6857 10.8902 10.7767 10.9817C10.8225 11.0366 10.877 11.0731 10.9321 11.1281C10.9865 11.1738 11.0503 11.2195 11.1141 11.2561C11.1506 11.2744 11.1785 11.2927 11.215 11.3202C11.2509 11.3384 11.2874 11.3567 11.324 11.375C11.397 11.4116 11.4701 11.4391 11.5524 11.4757C11.7072 11.5305 11.8626 11.5854 12.0173 11.6494C12.1727 11.7135 12.3275 11.7867 12.4829 11.8599C12.6376 11.933 12.7838 12.0154 12.9299 12.0977C13.076 12.1801 13.2128 12.2715 13.3403 12.363C13.4041 12.4088 13.4678 12.4544 13.5229 12.5094C13.5774 12.5551 13.6412 12.6009 13.687 12.6557C13.7873 12.7564 13.8783 12.857 13.9514 12.9485C13.9879 12.9942 14.0151 13.0491 14.0516 13.0857C14.0795 13.1314 14.1067 13.1772 14.1247 13.2229C14.1612 13.2869 14.0151 13.3509 13.9427 13.3693C13.9241 13.3784 13.9061 13.3784 13.8876 13.3875C13.7966 13.415 13.6963 13.4424 13.6047 13.4699C13.4134 13.5248 13.2035 13.5888 12.9843 13.662C12.5559 13.8083 12.0904 14.0004 11.6341 14.2749C11.4701 14.3664 11.3153 14.4761 11.1599 14.595C10.9958 14.7231 10.7674 14.7048 10.6219 14.5493C10.6033 14.531 10.594 14.5127 10.5761 14.5036C10.4213 14.3389 10.2566 14.1285 10.0468 13.909C9.92853 13.7809 9.61837 13.5796 9.64561 13.4882C9.68214 13.3875 9.73662 13.232 9.77314 13.0491C9.80967 12.8661 9.83691 12.6374 9.80039 12.3996C9.78243 12.2807 9.73661 12.1526 9.69142 12.052C9.63632 11.9422 9.58184 11.8324 9.50879 11.7226C9.38126 11.5123 9.24444 11.311 9.12558 11.1189C9.06181 11.0183 9.00671 10.9268 8.96152 10.8353C8.93428 10.7896 8.91571 10.7438 8.88847 10.6981C8.8699 10.6523 8.84265 10.6158 8.83337 10.57C8.79746 10.4877 8.76961 10.4053 8.75166 10.3322C8.74237 10.2956 8.73308 10.259 8.73308 10.2316C8.73308 10.2041 8.72441 10.1675 8.72441 10.1401C8.71513 10.0852 8.72442 10.0486 8.73308 10.0211C8.73308 9.9937 8.74237 9.97544 8.74237 9.97544C8.74237 9.97544 8.74237 9.9937 8.73308 10.0211C8.73308 10.0486 8.71513 10.0944 8.72441 10.1401C8.72441 10.1675 8.72441 10.195 8.72441 10.2316C8.73308 10.259 8.73308 10.2956 8.74237 10.3322C8.76094 10.4053 8.77889 10.4877 8.81542 10.57C8.83337 10.6158 8.85194 10.6615 8.8699 10.7073C8.88847 10.7529 8.90643 10.7987 8.93428 10.8444C8.97948 10.9359 9.03458 11.0365 9.08906 11.1372C9.19863 11.3384 9.32616 11.5488 9.43574 11.7592C9.49022 11.869 9.54531 11.9788 9.59113 12.0794C9.63632 12.1983 9.66356 12.2898 9.67285 12.4088C9.69142 12.6283 9.6549 12.8295 9.60908 13.0033C9.56327 13.1772 9.5088 13.3144 9.46299 13.4059C9.4537 13.4241 9.32616 13.3875 9.25311 13.3601C9.21659 13.3509 9.17139 13.3327 9.13486 13.3235C9.09834 13.3143 9.05253 13.3052 9.01601 13.2961C8.97019 13.2869 8.93428 13.2869 8.89775 13.2778C8.86123 13.2778 8.8247 13.2686 8.77889 13.2686C8.69655 13.2686 8.62412 13.2686 8.55107 13.2686C8.47802 13.2778 8.39568 13.2778 8.32262 13.2869C8.17652 13.3052 8.03971 13.3327 7.90289 13.3693C7.77536 13.4058 7.65711 13.4424 7.54753 13.4882C7.32838 13.5796 7.16431 13.6711 7.05474 13.7535C6.94516 13.8266 6.89068 13.8815 6.89068 13.8815C6.89068 13.8815 6.95445 13.8358 7.07269 13.7717C7.19156 13.7077 7.3649 13.6254 7.58406 13.5522C7.69302 13.5156 7.81188 13.4882 7.93941 13.4699C8.06756 13.4424 8.20438 13.4333 8.3412 13.4241C8.41425 13.4241 8.48669 13.4241 8.55974 13.4241C8.63279 13.4241 8.70584 13.4333 8.77889 13.4424C8.80613 13.4424 8.85194 13.4516 8.88847 13.4607C8.92499 13.4699 8.96152 13.479 8.98876 13.479C9.02529 13.4882 9.05253 13.4973 9.08906 13.5065C9.12558 13.5156 9.15282 13.5339 9.18935 13.543C9.4537 13.662 9.66356 13.8632 9.84619 14.0736C10.0288 14.284 10.1749 14.5127 10.3204 14.6957C10.3755 14.7688 10.4393 14.8421 10.503 14.9061C10.5761 14.9793 10.5761 15.0982 10.503 15.1714C10.4572 15.2263 10.412 15.272 10.3662 15.3269C10.2022 15.5281 10.0561 15.7477 9.91925 15.9855C9.88272 16.0495 9.79171 16.0679 9.73661 16.0221C9.72794 16.0129 9.72795 16.0129 9.71866 16.0038C9.67285 15.9672 9.62703 15.9398 9.58184 15.9032C9.53603 15.8666 9.48155 15.83 9.42646 15.7934C9.31688 15.7202 9.18934 15.6471 9.04324 15.583C8.89776 15.519 8.74237 15.4641 8.55974 15.4458C8.3864 15.4275 8.1951 15.4458 8.02175 15.5098C7.84841 15.5647 7.69302 15.6471 7.54753 15.7385C7.40143 15.8208 7.26461 15.9032 7.11851 15.9672C6.97241 16.0313 6.82692 16.077 6.68082 16.0861C6.53471 16.0953 6.37932 16.0861 6.23384 16.0953C6.08773 16.1044 5.95091 16.1136 5.82338 16.141C5.69523 16.1593 5.58566 16.1868 5.48536 16.2234C5.38507 16.2508 5.30335 16.2965 5.23896 16.3331C5.1752 16.3697 5.13001 16.4063 5.10215 16.4337C5.07491 16.4612 5.06562 16.4795 5.06562 16.4795C5.06562 16.4795 5.12072 16.4155 5.25753 16.3514C5.3213 16.324 5.40364 16.2874 5.50394 16.2691C5.60423 16.2416 5.7138 16.2325 5.84134 16.2234C5.96887 16.2142 6.09701 16.2142 6.2425 16.2234C6.37932 16.2234 6.53471 16.2508 6.69876 16.2508C6.87211 16.2508 7.03617 16.2142 7.20085 16.1502C7.3649 16.0861 7.51968 16.0129 7.66578 15.9398C7.81189 15.8666 7.95799 15.8026 8.10409 15.766C8.24957 15.7294 8.38639 15.7202 8.52321 15.7477C8.79747 15.7934 9.03457 15.9489 9.21658 16.0861C9.2624 16.1227 9.30821 16.1593 9.35341 16.1959C9.39922 16.2325 9.43575 16.2691 9.47227 16.2965C9.5088 16.324 9.53603 16.3606 9.57256 16.388C9.62703 16.4429 9.64561 16.5344 9.61837 16.6076C9.58184 16.699 9.54532 16.7905 9.50879 16.882C9.49022 16.9186 9.48156 16.9552 9.47227 16.9826C9.42646 17.1107 9.33545 17.2113 9.22587 17.2662C9.03457 17.3668 8.76094 17.5132 8.46873 17.7328C8.39568 17.7876 8.31334 17.8425 8.2409 17.9065L8.18581 17.9523L8.17653 17.9614L8.16785 17.9706L8.15857 17.9797L8.13133 18.0072C8.09481 18.0438 8.05828 18.0712 8.02175 18.117C7.98523 18.1535 7.95799 18.1901 7.93075 18.2267C7.93075 18.2267 7.92146 18.2359 7.90289 18.2542C7.88494 18.2725 7.8577 18.2999 7.82984 18.3273C7.76607 18.3914 7.67507 18.4828 7.5562 18.5743C7.43796 18.6749 7.29185 18.7756 7.1278 18.8762C7.04546 18.922 6.95445 18.9677 6.86282 19.0043C6.77182 19.0409 6.68081 19.0683 6.57124 19.0775C6.52542 19.0866 6.46166 19.0957 6.40718 19.1141C6.35208 19.1323 6.2976 19.1506 6.25179 19.1689C6.15149 19.2147 6.06049 19.2696 5.97815 19.3336C5.81409 19.4617 5.68656 19.5989 5.5677 19.6995C5.44883 19.8001 5.33987 19.8733 5.24825 19.9099C5.20305 19.9282 5.1752 19.9374 5.14796 19.9465C5.1752 19.9465 5.21172 19.9374 5.25753 19.9191C5.34854 19.8916 5.4767 19.8367 5.60423 19.7361C5.74105 19.6446 5.87786 19.5257 6.04192 19.4159C6.12426 19.3702 6.21526 19.3244 6.30689 19.2878C6.35208 19.2696 6.39789 19.2604 6.45237 19.2513C6.49818 19.2421 6.54399 19.2421 6.59847 19.233C6.70805 19.2238 6.82692 19.2056 6.92721 19.1689C7.03617 19.1323 7.13708 19.0957 7.22809 19.05C7.34633 18.9951 7.60201 18.7847 7.43795 19.2147C7.34633 19.4617 7.22809 19.7727 7.1278 19.9648L7.04545 20.1203L6.95445 20.2667L6.84487 20.4039C6.80835 20.4496 6.77182 20.4862 6.73529 20.5228C6.57124 20.6783 6.3886 20.8064 6.19731 20.9253C6.00539 21.0442 5.82338 21.1632 5.65003 21.2638C5.47669 21.3735 5.3213 21.4834 5.18448 21.6022C5.11143 21.6571 5.05696 21.7212 4.99319 21.7761C4.93809 21.8309 4.88361 21.895 4.8378 21.9498C4.79199 22.0047 4.75546 22.0688 4.71956 22.1145C4.68303 22.1694 4.66445 22.2243 4.63721 22.27C4.58211 22.3615 4.56417 22.4439 4.54621 22.4896C4.52764 22.5445 4.51836 22.5719 4.51836 22.5719C4.51836 22.5719 4.52764 22.5445 4.55488 22.4896C4.58212 22.4347 4.60069 22.3615 4.65517 22.27C4.68303 22.2243 4.71026 22.1694 4.74679 22.1237C4.78332 22.0779 4.81985 22.0231 4.87433 21.9682C4.92881 21.9132 4.97462 21.8584 5.03838 21.8035C5.10215 21.7486 5.15725 21.6937 5.2303 21.6388C5.36712 21.529 5.53117 21.4284 5.70451 21.3278C5.88714 21.2272 6.06915 21.1266 6.26107 21.0168C6.45237 20.907 6.65358 20.779 6.84487 20.6235C6.89069 20.5777 6.93587 20.5411 6.98169 20.4954L7.10055 20.3582L7.20951 20.2118L7.31042 20.0562C7.5562 19.6355 7.69301 19.1598 7.89422 18.7847C7.99451 18.6018 8.11275 18.428 8.2409 18.3091C8.26814 18.2816 8.31334 18.245 8.34987 18.2176L8.37773 18.1901L8.39567 18.181L8.40497 18.1718L8.45945 18.1261C8.5325 18.0712 8.60554 18.0255 8.6786 17.9706C8.85194 17.8608 9.00672 17.7693 9.14353 17.6962C9.18935 17.6687 9.28097 17.623 9.27168 17.6778C9.23516 17.8242 9.19863 17.9614 9.17139 18.117C9.14353 18.2725 9.12558 18.4188 9.10763 18.5652C9.04324 19.1598 9.00671 19.7361 8.94295 20.3124C8.88847 20.8796 8.80613 21.4376 8.70584 21.9773C8.70584 21.9864 8.69655 22.0047 8.69655 22.0139C8.6786 22.0871 8.64208 22.1603 8.5876 22.2152C8.48669 22.3158 8.33191 22.453 8.10409 22.5628C7.87565 22.6726 7.59272 22.7457 7.27389 22.764C7.19156 22.7732 7.11851 22.764 7.0275 22.7732C6.93588 22.7823 6.83559 22.8006 6.75387 22.8372C6.58052 22.9195 6.45237 23.075 6.36136 23.2214C6.26107 23.3678 6.17873 23.5233 6.06916 23.6513C5.9602 23.7794 5.83205 23.88 5.68656 23.9441C5.54046 24.0081 5.38507 24.0355 5.23896 24.063C5.09348 24.0905 4.94738 24.0996 4.81985 24.0996C4.55488 24.1088 4.33634 24.0813 4.19023 24.063C4.03484 24.0447 3.95312 24.0173 3.95312 24.0173C3.95312 24.0173 4.03484 24.0447 4.19023 24.0721C4.33634 24.0996 4.55488 24.127 4.81985 24.1362C4.94738 24.1362 5.09348 24.127 5.24825 24.1088C5.3213 24.0996 5.40364 24.0904 5.47669 24.0721C5.54974 24.0539 5.63147 24.0355 5.71381 24.0081C5.86858 23.9533 6.02396 23.8434 6.14221 23.7154C6.26107 23.5873 6.35208 23.4318 6.45237 23.2946C6.55266 23.1574 6.66224 23.0293 6.80834 22.9653C6.8814 22.9378 6.95445 22.9195 7.0275 22.9195C7.10922 22.9195 7.20085 22.9287 7.28257 22.9195C7.62059 22.9104 7.93075 22.8372 8.18581 22.7274C8.2861 22.6817 8.38639 22.636 8.46873 22.5811C8.61484 22.4805 8.57831 22.5902 8.55974 22.6451C8.48669 22.9378 8.39568 23.2123 8.2861 23.4776C8.09481 23.9349 7.8577 24.3466 7.5562 24.6485C7.41072 24.804 7.23737 24.9229 7.07269 25.0144C6.98169 25.051 6.89935 25.0967 6.80834 25.1333C6.71734 25.1699 6.635 25.2065 6.55267 25.2522C6.2425 25.4352 6.00539 25.6456 5.83205 25.8469C5.66799 26.0481 5.57698 26.2311 5.53117 26.3591C5.51322 26.4232 5.49465 26.478 5.49465 26.5146C5.50394 26.478 5.51322 26.4323 5.54046 26.3682C5.58565 26.2402 5.68656 26.0572 5.85991 25.8743C6.03325 25.6913 6.27903 25.4901 6.58052 25.3254C6.73529 25.2522 6.91793 25.1973 7.10922 25.115C7.29185 25.0235 7.47448 24.9046 7.63854 24.7491C7.79393 24.6119 7.93941 24.4381 8.06756 24.2551C8.08551 24.2276 8.13133 24.1636 8.15857 24.2276C8.18581 24.2826 8.21305 24.3557 8.24957 24.4381C8.27743 24.5204 8.30467 24.6118 8.31334 24.7125C8.31334 24.7399 8.31334 24.7674 8.31334 24.7857C8.31334 24.7948 8.31334 24.8131 8.31334 24.8223L8.30468 24.868C8.2861 24.9229 8.26814 24.9686 8.2409 25.0235C8.17652 25.1241 8.08552 25.2248 8.00318 25.3528C7.96728 25.4169 7.93075 25.4901 7.91217 25.5632C7.89422 25.6364 7.89422 25.7188 7.89422 25.7919C7.89422 25.9383 7.90289 26.0938 7.90289 26.2402C7.89422 26.542 7.85769 26.8348 7.76607 27.1001C7.67506 27.3653 7.52896 27.5849 7.37419 27.7495C7.29185 27.8319 7.2188 27.8959 7.14574 27.9508C7.07269 28.0057 7.00027 28.0423 6.94517 28.0789C6.89069 28.1063 6.83558 28.1338 6.80834 28.1429C6.77182 28.1612 6.76254 28.1612 6.76254 28.1612C6.76254 28.1612 6.7811 28.1521 6.80834 28.1429C6.84487 28.1338 6.89069 28.1155 6.94517 28.0789C7.00893 28.0514 7.07269 28.0148 7.15503 27.96C7.23737 27.9142 7.31043 27.8411 7.39215 27.7679C7.5562 27.6124 7.71159 27.3837 7.8026 27.1184C7.90289 26.8531 7.95799 26.5512 7.96728 26.2493C7.97594 26.0938 7.97594 25.9475 7.97594 25.8011C7.96727 25.6547 8.01247 25.5267 8.0948 25.4169C8.17652 25.3071 8.27743 25.2156 8.35915 25.1059C8.39568 25.051 8.4322 24.9869 8.45078 24.9229L8.45945 24.8772C8.46873 24.8497 8.46873 24.8406 8.46873 24.8223C8.47802 24.7857 8.47802 24.7583 8.47802 24.7217C8.47802 24.5936 8.45078 24.493 8.4322 24.3923C8.40496 24.3009 8.37773 24.2185 8.34987 24.1545C8.3412 24.1362 8.33191 24.1179 8.33191 24.0996C8.29538 24.0173 8.29538 23.9166 8.3412 23.8343C8.38639 23.752 8.43221 23.6605 8.47802 23.569C8.68789 23.1025 8.85194 22.5902 8.98876 22.0505C9.02529 21.9042 9.06182 21.7486 9.08906 21.5931C9.10763 21.5108 9.13487 21.3461 9.25311 21.5656C9.28964 21.6297 9.33545 21.7029 9.38126 21.7761C9.51808 22.0048 9.68214 22.2884 9.81896 22.5902L9.82824 22.6176C9.82824 22.6176 9.82824 22.6268 9.82824 22.6085V22.6176L9.83691 22.636L9.86476 22.7L9.88272 22.764L9.89201 22.8189C9.90996 22.8921 9.91925 22.9744 9.92854 23.0568C9.9372 23.2214 9.91925 23.4044 9.89201 23.5782C9.86477 23.7611 9.83691 23.9441 9.81896 24.127C9.80967 24.31 9.82824 24.5112 9.89201 24.6851C9.96506 24.8589 10.0561 24.9961 10.1656 25.1241C10.2752 25.2431 10.3848 25.3437 10.503 25.426C10.7315 25.5907 10.9321 25.7004 11.0416 25.8102C11.0689 25.8377 11.0961 25.8651 11.1141 25.8925C11.1327 25.92 11.1506 25.9383 11.1506 25.9566C11.1692 25.9932 11.1785 26.0206 11.1785 26.0206C11.1785 26.0206 11.1692 26.0023 11.1599 25.9566C11.1506 25.9383 11.1419 25.9109 11.1234 25.8834C11.1054 25.856 11.0868 25.8285 11.0596 25.8011C10.95 25.6822 10.7494 25.5541 10.5489 25.3803C10.4486 25.2888 10.339 25.1882 10.248 25.0693C10.1564 24.9504 10.0746 24.804 10.0195 24.6485C9.97372 24.493 9.96506 24.3283 9.9923 24.1545C10.0103 23.9807 10.0561 23.8068 10.1019 23.6239C10.1384 23.441 10.1749 23.2489 10.1749 23.0568C10.1749 23.011 10.1749 22.9561 10.1656 22.9104C10.1656 22.8647 10.1564 22.8097 10.1471 22.764L10.1291 22.6908L10.1105 22.6268L10.0926 22.5628L10.0833 22.5445V22.5353V22.5261L10.0746 22.4987C9.94649 22.1694 9.80967 21.8767 9.68213 21.6205C9.5546 21.3735 9.44503 21.1723 9.36269 21.0259C9.28097 20.8887 9.25311 20.7241 9.28097 20.5594C9.28964 20.5045 9.29893 20.4405 9.30821 20.3856C9.38993 19.8093 9.46298 19.2238 9.54532 18.6567C9.56327 18.5103 9.59113 18.3731 9.61837 18.245C9.64561 18.1078 9.70009 17.9706 9.73661 17.8334C9.75518 17.7693 9.77315 17.6962 9.80039 17.6321L9.87344 17.4308C9.91925 17.2936 9.96505 17.1656 10.0288 17.0375C10.1471 16.7631 10.2659 16.4978 10.43 16.26C10.5668 16.0587 10.5668 16.2142 10.5761 16.2874C10.594 16.4063 10.6219 16.5435 10.6584 16.6807C10.7494 17.0558 10.9048 17.4857 11.1599 17.8974C11.2874 18.0986 11.4428 18.2999 11.6254 18.4828C11.6799 18.5378 11.8167 18.739 11.844 18.8305C11.8805 18.986 11.9356 19.2147 11.9356 19.4799C11.9356 19.6172 11.9263 19.7544 11.8533 19.8825C11.7802 20.0106 11.662 20.1203 11.5338 20.2483C11.4063 20.3764 11.2788 20.5137 11.1871 20.6783C11.0868 20.843 11.0138 21.0259 10.9866 21.2272C10.9593 21.4193 10.9773 21.6205 11.0138 21.8035C11.0503 21.9864 11.1141 22.1694 11.1964 22.3249C11.2788 22.4805 11.3883 22.6268 11.5159 22.7274C11.6527 22.8189 11.7437 22.9378 11.8167 23.0568C11.9628 23.2946 12.0266 23.5233 12.0724 23.6879C12.1176 23.8434 12.1269 23.9441 12.1269 23.9441C12.1269 23.9441 12.1176 23.8526 12.0811 23.6879C12.0452 23.5324 11.9808 23.2946 11.844 23.0476C11.7802 22.9287 11.6799 22.7915 11.5431 22.7C11.4242 22.5994 11.324 22.4621 11.2509 22.3066C11.1785 22.1511 11.1234 21.9773 11.0961 21.8035C11.0689 21.6205 11.0596 21.4376 11.0868 21.2638C11.1141 21.09 11.1964 20.9162 11.2874 20.7698C11.3883 20.6234 11.5066 20.4954 11.6341 20.3764C11.7623 20.2575 11.8991 20.1386 11.9901 19.9831C12.0173 19.9465 12.0359 19.9008 12.0452 19.8641C12.0631 19.8276 12.0724 19.7727 12.0811 19.7361C12.0997 19.6538 12.0997 19.5806 12.1089 19.4983C12.1176 19.2604 12.0452 18.8945 12.1634 19.0043C12.3461 19.1689 12.5008 19.361 12.6376 19.5531C12.7745 19.7453 12.9026 19.9465 12.9936 20.1569C13.0846 20.3673 13.1577 20.5777 13.1942 20.779C13.24 20.9893 13.258 21.1814 13.258 21.3735C13.2673 21.7395 13.2214 22.0505 13.1855 22.2609C13.167 22.3707 13.149 22.453 13.1304 22.5079C13.1212 22.5628 13.1125 22.5994 13.1125 22.5994C13.1125 22.5994 13.1212 22.5719 13.1397 22.517C13.1577 22.4621 13.1763 22.3798 13.2035 22.27C13.258 22.0597 13.3131 21.7486 13.3224 21.3735C13.331 21.1814 13.3131 20.9802 13.2858 20.7698C13.2493 20.5594 13.1942 20.3307 13.1032 20.1112C13.0209 19.8916 12.9026 19.672 12.7658 19.4617C12.629 19.2512 12.4736 19.0591 12.3002 18.867C12.2179 18.7756 12.1269 18.6841 12.0359 18.5926C11.9443 18.5012 11.8626 18.4188 11.7802 18.3365C11.6254 18.1627 11.4886 17.9706 11.3883 17.7784C11.1692 17.3851 11.0503 16.9826 10.9773 16.6258C10.9135 16.2691 10.8955 15.9764 10.8863 15.766C10.8863 15.6928 10.9135 15.6105 10.9686 15.5556C11.2788 15.2354 11.6341 14.9793 11.9994 14.778C12.2 14.6682 12.4005 14.5767 12.6104 14.4944C12.7565 14.4395 12.9299 14.4944 13.0122 14.6316C13.0574 14.7048 13.0939 14.7963 13.1125 14.8969C13.1212 14.9518 13.1304 15.0067 13.1304 15.0616C13.1304 15.1348 13.1304 15.1897 13.1397 15.2629C13.149 15.4092 13.1763 15.5556 13.2214 15.7019C13.2673 15.8483 13.3224 15.9855 13.3768 16.1136C13.4313 16.2416 13.4678 16.3789 13.4864 16.5069C13.5044 16.6258 13.4592 16.7539 13.4041 16.8728C13.2945 17.1107 13.149 17.3211 13.0394 17.5132C12.9391 17.7053 12.8748 17.8791 12.8475 17.998C12.8389 18.062 12.8296 18.1078 12.8296 18.1444C12.8296 18.181 12.8296 18.1993 12.8296 18.1993C12.8296 18.1993 12.8296 18.181 12.8388 18.1444C12.8475 18.1078 12.8568 18.062 12.8748 18.0072C12.9113 17.8883 12.9843 17.7236 13.1032 17.5407C13.1577 17.4492 13.2307 17.3577 13.3038 17.257C13.3768 17.1564 13.4499 17.0466 13.5229 16.9278C13.5867 16.8088 13.6505 16.6624 13.6505 16.4978C13.6505 16.3971 13.4957 16.0587 13.8511 16.3148C13.9062 16.3514 13.9699 16.3971 14.0151 16.4429C14.043 16.4703 14.0702 16.4978 14.0882 16.5252C14.0974 16.5435 14.1067 16.5618 14.116 16.571C14.1247 16.5892 14.134 16.6076 14.1433 16.6258C14.1705 16.6899 14.1885 16.7813 14.1885 16.8637C14.1977 16.9552 14.1885 17.0466 14.1977 17.1473C14.207 17.2479 14.2343 17.3486 14.2894 17.4308C14.3073 17.4492 14.3166 17.4766 14.3346 17.4949C14.3531 17.5132 14.3618 17.5315 14.3804 17.5498C14.4169 17.5863 14.4441 17.6138 14.4807 17.6504C14.6082 17.7693 14.7271 17.8791 14.8094 17.998C14.8453 18.0529 14.8732 18.117 14.8911 18.1718C14.9097 18.2267 14.9184 18.2725 14.9184 18.3182C14.9276 18.3548 14.9184 18.3914 14.9184 18.4097C14.9184 18.428 14.9184 18.4463 14.9184 18.4463C14.9184 18.4463 14.9184 18.4371 14.9184 18.4097C14.9184 18.3914 14.9276 18.3548 14.9276 18.3091C14.9276 18.2633 14.9184 18.2176 14.9097 18.1627C14.9004 18.1078 14.8732 18.0438 14.8366 17.9797C14.7636 17.8517 14.6447 17.7328 14.5265 17.6047C14.4986 17.5681 14.4714 17.5407 14.4441 17.5041C14.4262 17.4857 14.4169 17.4675 14.4076 17.4492C14.3983 17.4308 14.3897 17.4126 14.3711 17.3942C14.3346 17.3211 14.3166 17.2296 14.3166 17.1381C14.3166 17.0466 14.3253 16.9552 14.3253 16.8545C14.3253 16.7539 14.3253 16.6624 14.2894 16.5618C14.2801 16.5344 14.2708 16.5161 14.2615 16.4978C14.2528 16.4703 14.2343 16.4521 14.225 16.4337C14.1977 16.3971 14.1705 16.3606 14.1433 16.324C14.0795 16.26 14.0244 16.205 13.9606 16.1593C13.8418 16.0679 13.7328 16.0129 13.6598 15.9764C13.6139 15.9581 13.5044 15.7294 13.4864 15.6379C13.4592 15.5098 13.4592 15.3726 13.4592 15.2537C13.4592 15.1988 13.4678 15.1256 13.4678 15.0616C13.4771 14.9884 13.4678 14.9152 13.4678 14.8512C13.4592 14.714 13.4041 14.5767 13.3583 14.4579C13.2858 14.2749 13.3861 14.2474 13.4499 14.2291C13.596 14.1925 13.7328 14.1559 13.8783 14.1193C13.8969 14.1193 13.9148 14.1102 13.9334 14.1102C14.5079 14.0462 15.8216 13.8266 16.9712 13.168C17.482 12.8753 18.1209 12.8753 18.6316 13.168C19.7813 13.8266 21.095 14.0462 21.6695 14.1102C21.7518 14.1285 21.8335 14.1468 21.9252 14.1743C22.0254 14.2017 22.0706 14.3023 22.0254 14.3938C21.9704 14.5127 21.9338 14.65 21.9252 14.7963C21.9159 14.9335 21.9252 15.0799 21.9431 15.2263C21.9704 15.3635 21.9889 15.4915 21.9976 15.6287C22.0069 15.6928 22.0069 15.766 21.9976 15.83C21.9976 15.8757 21.9796 15.9672 21.9338 15.9947C21.8608 16.0313 21.7518 16.0953 21.6329 16.1776C21.5692 16.2234 21.5141 16.2782 21.4503 16.3423C21.4231 16.3789 21.3958 16.4155 21.3686 16.4521C21.3593 16.4703 21.3407 16.4886 21.3321 16.5161C21.3228 16.5344 21.3135 16.5527 21.3048 16.5801C21.2683 16.6807 21.2683 16.7813 21.2683 16.8728C21.2683 16.9734 21.277 17.0649 21.277 17.1565C21.277 17.2479 21.259 17.3302 21.2225 17.4126C21.2132 17.4308 21.2039 17.4492 21.186 17.4675C21.1767 17.4857 21.1587 17.5041 21.1494 17.5223C21.1222 17.5589 21.095 17.5863 21.0671 17.623C20.9489 17.751 20.83 17.8699 20.7569 17.998C20.7204 18.062 20.6932 18.1261 20.6839 18.181C20.6659 18.2359 20.6659 18.2907 20.6659 18.3273C20.6659 18.3731 20.6659 18.4005 20.6752 18.428C20.6752 18.4463 20.6752 18.4646 20.6752 18.4646C20.6752 18.4646 20.6752 18.4554 20.6752 18.428C20.6752 18.4097 20.6752 18.3731 20.6752 18.3365C20.6752 18.2999 20.6839 18.245 20.7025 18.1901C20.7204 18.1352 20.7483 18.0804 20.7848 18.0163C20.8572 17.8974 20.9854 17.7876 21.1129 17.6687C21.1494 17.6413 21.1767 17.6047 21.2132 17.5681C21.2318 17.5498 21.2404 17.5315 21.259 17.5132C21.277 17.4949 21.2863 17.4766 21.3048 17.4492C21.3593 17.3668 21.3866 17.2571 21.3958 17.1656C21.4051 17.065 21.4051 16.9734 21.4051 16.882C21.4051 16.7905 21.4231 16.7082 21.4503 16.6442C21.4596 16.6258 21.4689 16.6076 21.4776 16.5892C21.4868 16.5801 21.4961 16.5618 21.5054 16.5435C21.5234 16.5161 21.5506 16.4886 21.5785 16.4612C21.6329 16.4063 21.6874 16.3697 21.7425 16.3331C21.8063 16.2965 21.8608 16.26 21.9159 16.2325C21.9889 16.1959 21.9617 16.2691 21.9617 16.2965C21.9524 16.3606 21.9524 16.4155 21.9431 16.4795C21.9338 16.6442 21.9976 16.7905 22.062 16.9094C22.1257 17.0375 22.2075 17.1381 22.2805 17.2479C22.3536 17.3486 22.4173 17.4492 22.4811 17.5407C22.6 17.7236 22.673 17.8883 22.7095 18.0072C22.7275 18.0712 22.7368 18.117 22.7461 18.1535C22.7554 18.1901 22.7554 18.2084 22.7554 18.2084C22.7554 18.2084 22.7554 18.1901 22.7554 18.1535C22.7554 18.117 22.7461 18.0712 22.7275 18.0072C22.7003 17.8791 22.6365 17.7053 22.5269 17.5132C22.4724 17.4126 22.4087 17.312 22.3443 17.2113C22.2805 17.1015 22.2168 16.9918 22.1623 16.8728C22.1072 16.7539 22.0706 16.6258 22.0892 16.4978C22.1165 16.3697 22.153 16.2234 22.1895 16.0861C22.226 15.9398 22.2626 15.7843 22.2718 15.6379C22.2805 15.4915 22.2718 15.336 22.2626 15.1988C22.2533 15.0708 22.2533 14.9518 22.2718 14.8421C22.2898 14.7322 22.317 14.6408 22.3628 14.5676C22.4359 14.4395 22.5907 14.3755 22.7368 14.4212C23.1014 14.5493 23.476 14.714 23.8313 14.9335C24.2603 15.1988 24.6615 15.5556 24.981 16.0038C25.0082 16.0495 25.0447 16.0953 25.072 16.1319C25.1271 16.2142 25.0813 16.3148 24.9902 16.3423C24.9537 16.3514 24.9172 16.3606 24.89 16.3789C24.7438 16.4337 24.5977 16.5069 24.4516 16.6258C24.3062 16.7356 24.178 16.8911 24.069 17.0558C23.9595 17.2296 23.8678 17.4217 23.8041 17.623C23.7403 17.8242 23.6858 18.0438 23.658 18.2633C23.6214 18.4828 23.6214 18.7024 23.549 18.8854C23.5125 18.9768 23.4667 19.0683 23.4029 19.1506C23.3391 19.233 23.2748 19.3062 23.193 19.3702C23.0377 19.5074 22.8643 19.6172 22.691 19.727C22.5176 19.8367 22.3443 19.9374 22.1895 20.0471C22.0341 20.1569 21.8973 20.2758 21.7883 20.4039C21.6788 20.5319 21.5871 20.6509 21.5234 20.7698C21.4868 20.8247 21.4689 20.8887 21.4417 20.9345C21.4231 20.9893 21.3958 21.0351 21.3866 21.0808C21.3593 21.1723 21.3321 21.2455 21.3228 21.2912C21.3321 21.2455 21.3593 21.1723 21.3958 21.0808C21.4138 21.0351 21.4417 20.9893 21.4596 20.9345C21.4868 20.8887 21.5141 20.8247 21.5506 20.7698C21.6237 20.66 21.7153 20.5411 21.8242 20.4313C21.9431 20.3216 22.0799 20.2118 22.2353 20.1112C22.3901 20.0106 22.5634 19.9191 22.7461 19.8185C22.9287 19.7178 23.12 19.6172 23.2933 19.4799C23.3843 19.4068 23.4667 19.3336 23.5397 19.2421C23.6128 19.1506 23.6765 19.05 23.7224 18.9402C23.8227 18.7115 23.8313 18.4828 23.8771 18.2816C23.9229 18.0804 23.9774 17.8791 24.0505 17.6962C24.0963 17.5772 24.1508 17.4675 24.2059 17.3668C24.2603 17.2845 24.3699 17.2571 24.4516 17.312C24.4609 17.312 24.4609 17.3211 24.4702 17.3211C24.5526 17.376 24.6528 17.4675 24.698 17.5955C24.7439 17.7236 24.7346 17.8883 24.6615 18.062C24.625 18.1444 24.5798 18.2359 24.5247 18.3182C24.4975 18.3639 24.4609 18.4005 24.4337 18.4463C24.4064 18.4828 24.3606 18.5286 24.3241 18.5743C24.178 18.7573 24.0505 18.9677 23.9595 19.2147C23.9137 19.3336 23.8864 19.4708 23.8957 19.6172C23.9137 19.7544 23.9409 19.8825 23.9867 20.0106C24.0325 20.1386 24.0963 20.2575 24.1601 20.3764C24.2238 20.4954 24.2783 20.6143 24.3334 20.7332C24.3879 20.8521 24.443 20.9802 24.4795 21.0991C24.516 21.218 24.5433 21.3461 24.5526 21.4742C24.5705 21.7303 24.534 21.9864 24.443 22.2152C24.3972 22.3249 24.3427 22.4347 24.2696 22.5261C24.1966 22.6176 24.1235 22.7183 24.0777 22.8189C23.9774 23.0293 23.9316 23.2489 23.9316 23.4501C23.9316 23.6513 23.9681 23.8343 24.0232 23.9898C24.069 24.1454 24.1328 24.2734 24.178 24.3741C24.2876 24.5844 24.3699 24.6851 24.3699 24.6851C24.3699 24.6851 24.2876 24.5753 24.1873 24.3649C24.1328 24.2642 24.0777 24.127 24.0325 23.9715C23.9867 23.816 23.9502 23.6331 23.9502 23.441C23.9502 23.2397 23.996 23.0293 24.0963 22.8281C24.1508 22.7274 24.2145 22.636 24.2876 22.5445C24.3606 22.453 24.4244 22.3432 24.4795 22.2243C24.5798 21.9956 24.625 21.7303 24.6163 21.465C24.607 21.3278 24.5885 21.1998 24.5526 21.0717C24.516 20.9436 24.4609 20.8155 24.4151 20.6966C24.3148 20.4496 24.178 20.2118 24.0963 19.974C24.0598 19.855 24.0325 19.727 24.0232 19.608C24.0232 19.4983 24.0505 19.3793 24.0963 19.2696C24.1873 19.05 24.3148 18.8488 24.4609 18.6841C24.4975 18.6384 24.534 18.6018 24.5705 18.556C24.607 18.5103 24.6436 18.4646 24.6708 18.4188C24.7346 18.3273 24.7897 18.2359 24.8349 18.1352C24.9172 17.9431 24.9537 17.7236 24.89 17.5407C24.8262 17.3577 24.7073 17.2387 24.5977 17.1656C24.5798 17.1473 24.5526 17.1381 24.534 17.1199C24.4882 17.0924 24.4795 17.0192 24.5247 16.9826C24.5705 16.946 24.6163 16.9094 24.6528 16.8728C24.89 16.7082 25.1636 16.635 25.3184 16.6899C25.4007 16.7173 25.6471 17.2205 25.7474 17.5223C25.7932 17.6687 25.8384 17.8059 25.8842 17.9523C25.9022 18.0255 25.93 18.0986 25.948 18.1718C25.9665 18.2541 25.9845 18.3182 25.9938 18.3914C26.0483 18.6933 26.0941 19.0043 26.1399 19.3062C26.2036 19.7453 26.2581 20.1843 26.3219 20.6235C26.3312 20.6692 26.3312 20.7881 26.2581 20.8521C26.2216 20.8796 26.1851 20.9162 26.1399 20.9619C25.9938 21.0991 25.7932 21.3095 25.5833 21.584C25.483 21.7211 25.3735 21.8858 25.2911 22.0688C25.2639 22.1145 25.2453 22.1603 25.2274 22.206L25.2001 22.2792C25.1908 22.3158 25.1815 22.3249 25.1729 22.3524C25.1363 22.4621 25.1178 22.5811 25.1178 22.6908C25.1085 22.9195 25.1543 23.1482 25.2181 23.3586C25.2818 23.5782 25.3549 23.7794 25.4187 23.9898C25.483 24.2002 25.5375 24.4106 25.5375 24.621C25.5375 24.6759 25.5375 24.7217 25.5282 24.7765C25.5196 24.8314 25.5103 24.8863 25.501 24.9412C25.4917 25.0601 25.4917 25.1699 25.5196 25.2796C25.574 25.4992 25.6929 25.673 25.8204 25.8194C25.948 25.9657 26.0848 26.0846 26.2123 26.1944C26.3312 26.3042 26.4408 26.414 26.5225 26.5238C26.6048 26.6335 26.6599 26.7342 26.6779 26.8348C26.6958 26.9263 26.6872 27.0086 26.6872 27.0543C26.6779 27.1092 26.6686 27.1367 26.6686 27.1367C26.6686 27.1367 26.6779 27.1092 26.6872 27.0635C26.6958 27.0086 26.7051 26.9354 26.6872 26.8348C26.6686 26.7342 26.6234 26.6244 26.5411 26.5146C26.4587 26.4048 26.3584 26.2859 26.2402 26.167C26.1213 26.0481 25.9938 25.9291 25.8749 25.7828C25.7567 25.6364 25.6471 25.4717 25.6106 25.2705C25.592 25.1699 25.592 25.0693 25.6013 24.9778C25.6013 24.9504 25.6106 24.9229 25.6199 24.8954L25.6378 24.8131C25.6471 24.7583 25.6564 24.7033 25.665 24.6393C25.6836 24.4106 25.6378 24.1819 25.5833 23.9624C25.5282 23.7428 25.4645 23.5324 25.4187 23.322C25.3735 23.1116 25.3462 22.9104 25.3642 22.7182C25.3735 22.6268 25.3914 22.5353 25.4187 22.453C25.4279 22.4347 25.4372 22.3981 25.4465 22.389L25.4738 22.3249C25.4917 22.2792 25.5103 22.2426 25.5375 22.206C25.6285 22.0505 25.7288 21.9132 25.8384 21.7943C25.9938 21.6114 26.1399 21.4742 26.2674 21.3644C26.4135 21.2363 26.4315 21.3919 26.4408 21.465C26.5318 21.9864 26.6413 22.4987 26.8785 22.9653C26.9515 23.1025 27.0338 23.2305 27.1341 23.3495C27.2344 23.4684 27.3347 23.569 27.4443 23.6697C27.6628 23.8618 27.8727 24.0355 28.0553 24.2276C28.238 24.4197 28.402 24.621 28.5481 24.8223C28.6212 24.9229 28.6942 25.0327 28.7487 25.1333C28.8032 25.2339 28.8397 25.3437 28.8762 25.4626C28.9406 25.6822 28.9765 25.9109 29.0131 26.1212C29.0223 26.1761 29.0316 26.2311 29.0496 26.2767C29.0589 26.3042 29.0774 26.3317 29.0861 26.3499C29.1047 26.3774 29.1134 26.3957 29.1319 26.414C29.1957 26.4963 29.2687 26.5695 29.3511 26.6244C29.5151 26.7342 29.6885 26.789 29.8525 26.8256C30.0166 26.8622 30.1627 26.8805 30.2995 26.8988C30.5732 26.9354 30.783 26.9903 30.8926 27.0909C30.9471 27.1367 30.9749 27.1916 30.9836 27.2282C30.9929 27.2647 31.0022 27.283 31.0022 27.283C31.0022 27.283 31.0022 27.2647 30.9929 27.2282C30.9836 27.1916 30.9564 27.1367 30.9019 27.0909C30.7923 26.9811 30.5732 26.9263 30.3088 26.8805C30.172 26.8531 30.0259 26.8348 29.8618 26.7982C29.7064 26.7616 29.5331 26.7067 29.3783 26.5969C29.3053 26.542 29.2322 26.478 29.1777 26.3957C29.1592 26.3774 29.1499 26.3499 29.1412 26.3317C29.1319 26.3042 29.1134 26.2859 29.1134 26.2676C29.1047 26.2219 29.0954 26.167 29.0861 26.1121C29.0496 25.9017 29.0223 25.673 28.9679 25.4443C28.9406 25.3254 28.9041 25.2065 28.8397 25.0967C28.776 24.9869 28.7122 24.8772 28.6484 24.7674C28.5116 24.5478 28.3562 24.3375 28.1742 24.1362C27.8182 23.7154 27.3168 23.4044 27.0883 22.8829C27.0518 22.8097 27.0246 22.7366 26.9973 22.6542C26.9788 22.6085 26.9973 22.5811 27.0338 22.5994C27.1248 22.6542 27.2524 22.7091 27.3712 22.764C27.4078 22.8829 27.7179 22.9561 28.0553 22.9653Z" fill="url(#paint0_linear_478_1763)"/>
<path id="Vector_10" d="M17.5886 0.746137C17.9618 0.746137 18.2638 0.656092 18.2638 0.544944C18.2638 0.433857 17.9618 0.34375 17.5886 0.34375C17.2161 0.34375 16.9141 0.433857 16.9141 0.544944C16.9141 0.656092 17.2161 0.746137 17.5886 0.746137Z" fill="#61A2ED"/>
<path id="Vector_11" d="M18.5877 1.23438C18.5877 1.39905 18.1408 1.52714 17.6022 1.52714C17.0642 1.52714 16.6172 1.39905 16.6172 1.23438" stroke="#61A2ED" stroke-width="0.335656" stroke-miterlimit="10" stroke-linecap="round"/>
<path id="Vector_12" d="M18.5877 2.25C18.5877 2.41461 18.1408 2.5427 17.6022 2.5427C17.0642 2.5427 16.6172 2.41461 16.6172 2.25" stroke="#61A2ED" stroke-width="0.335656" stroke-miterlimit="10" stroke-linecap="round"/>
<path id="Vector_13" d="M18.5877 3.26562C18.5877 3.4303 18.1408 3.55839 17.6022 3.55839C17.0642 3.55839 16.6172 3.4303 16.6172 3.26562" stroke="#61A2ED" stroke-width="0.335656" stroke-miterlimit="10" stroke-linecap="round"/>
<path id="Vector_14" d="M18.5877 4.28125C18.5877 4.44593 18.1408 4.57402 17.6022 4.57402C17.0642 4.57402 16.6172 4.44593 16.6172 4.28125" stroke="#61A2ED" stroke-width="0.335656" stroke-miterlimit="10" stroke-linecap="round"/>
<path id="Vector_15" d="M18.5877 5.29688C18.5877 5.46155 18.1408 5.58958 17.6022 5.58958C17.0642 5.58958 16.6172 5.46155 16.6172 5.29688" stroke="#61A2ED" stroke-width="0.335656" stroke-miterlimit="10" stroke-linecap="round"/>
<path id="Vector_16" d="M18.5877 6.32031C18.5877 6.48499 18.1408 6.61308 17.6022 6.61308C17.0642 6.61308 16.6172 6.48499 16.6172 6.32031" stroke="#61A2ED" stroke-width="0.335656" stroke-miterlimit="10" stroke-linecap="round"/>
<path id="Vector_17" d="M18.5877 7.33594C18.5877 7.50055 18.1408 7.62864 17.6022 7.62864C17.0642 7.62864 16.6172 7.50055 16.6172 7.33594" stroke="#61A2ED" stroke-width="0.335656" stroke-miterlimit="10" stroke-linecap="round"/>
<path id="Vector_18" d="M18.5877 8.35938C18.5877 8.52405 18.1408 8.65214 17.6022 8.65214C17.0642 8.65214 16.6172 8.52405 16.6172 8.35938" stroke="#61A2ED" stroke-width="0.335656" stroke-miterlimit="10" stroke-linecap="round"/>
<path id="Vector_19" d="M18.5877 9.35938C18.5877 9.52405 18.1408 9.65214 17.6022 9.65214C17.0642 9.65214 16.6172 9.52405 16.6172 9.35938" stroke="#61A2ED" stroke-width="0.335656" stroke-miterlimit="10" stroke-linecap="round"/>
<path id="Vector_20" d="M18.6551 10.3672C18.6551 10.541 18.1809 10.6782 17.5971 10.6782C17.0133 10.6782 16.5391 10.541 16.5391 10.3672" stroke="#61A2ED" stroke-width="0.335656" stroke-miterlimit="10" stroke-linecap="round"/>
<path id="Vector_21" d="M18.8799 11.3594C18.8799 11.5697 18.3054 11.7436 17.5848 11.7436C16.8735 11.7436 16.2891 11.5697 16.2891 11.3594" stroke="#61A2ED" stroke-width="0.335656" stroke-miterlimit="10" stroke-linecap="round"/>
<path id="Vector_22" d="M9.23203 8.98016C9.23203 9.14472 9.09526 9.27276 8.94054 9.27276C8.77592 9.27276 8.64844 9.13562 8.64844 8.98016C8.64844 8.81554 8.78521 8.6875 8.94054 8.6875C9.09526 8.6875 9.23203 8.81554 9.23203 8.98016Z" fill="#4B7AA8"/>
<path id="Vector_23" d="M24.6389 7.8321C24.6389 7.99672 24.5021 8.1247 24.3468 8.1247C24.1828 8.1247 24.0547 7.98756 24.0547 7.8321C24.0547 7.66748 24.1915 7.5395 24.3468 7.5395C24.5021 7.53034 24.6389 7.66748 24.6389 7.8321Z" fill="#4B7AA8"/>
<path id="Vector_24" d="M14.2477 19.113C14.2477 19.2776 14.1109 19.4056 13.9562 19.4056C13.7922 19.4056 13.6641 19.2684 13.6641 19.113C13.6641 18.9484 13.8008 18.8203 13.9562 18.8203C14.1202 18.8203 14.2477 18.9575 14.2477 19.113Z" fill="#4B7AA8"/>
<path id="Vector_25" d="M27.0415 25.0931C27.203 25.0931 27.3336 24.9621 27.3336 24.8005C27.3336 24.6388 27.203 24.5078 27.0415 24.5078C26.8806 24.5078 26.75 24.6388 26.75 24.8005C26.75 24.9621 26.8806 25.0931 27.0415 25.0931Z" fill="#4B7AA8"/>
<path id="Vector_26" d="M22.0187 24.5618C22.1796 24.5618 22.3108 24.4308 22.3108 24.2692C22.3108 24.1076 22.1796 23.9766 22.0187 23.9766C21.8578 23.9766 21.7266 24.1076 21.7266 24.2692C21.7266 24.4308 21.8578 24.5618 22.0187 24.5618Z" fill="#4B7AA8"/>
<path id="Vector_27" d="M30.8071 25.765C30.9686 25.765 31.0992 25.6339 31.0992 25.4724C31.0992 25.3107 30.9686 25.1797 30.8071 25.1797C30.6462 25.1797 30.5156 25.3107 30.5156 25.4724C30.5156 25.6339 30.6462 25.765 30.8071 25.765Z" fill="#4B7AA8"/>
<path id="Vector_28" d="M11.5758 24.4254C11.5758 24.59 11.439 24.718 11.2837 24.718C11.1197 24.718 10.9922 24.5809 10.9922 24.4254C10.9922 24.2608 11.129 24.1328 11.2837 24.1328C11.439 24.1328 11.5758 24.2608 11.5758 24.4254Z" fill="#4B7AA8"/>
<path id="Vector_29" d="M15.6075 22.9927C15.6075 23.2944 15.3704 23.5322 15.0697 23.5322C14.7683 23.5322 14.5312 23.2944 14.5312 22.9927C14.5312 22.6909 14.7683 22.4531 15.0697 22.4531C15.3612 22.4531 15.6075 22.7001 15.6075 22.9927Z" fill="#4B7AA8"/>
<path id="Vector_30" d="M24.1778 26.1645C24.1778 26.4663 23.9407 26.7041 23.6394 26.7041C23.3386 26.7041 23.1016 26.4663 23.1016 26.1645C23.1016 25.8628 23.3386 25.625 23.6394 25.625C23.9407 25.625 24.1778 25.8628 24.1778 26.1645Z" fill="#4B7AA8"/>
<path id="Vector_31" d="M8.08341 16.7427C8.08341 17.0444 7.84638 17.2822 7.54561 17.2822C7.24484 17.2822 7.00781 17.0444 7.00781 16.7427C7.00781 16.4409 7.24484 16.2031 7.54561 16.2031C7.84638 16.2031 8.08341 16.4501 8.08341 16.7427Z" fill="#4B7AA8"/>
<path id="Vector_32" d="M15.8126 23.7624C15.8126 23.8357 15.7489 23.8998 15.6758 23.8998C15.6028 23.8998 15.5391 23.8357 15.5391 23.7624C15.5391 23.6891 15.6028 23.625 15.6758 23.625C15.7489 23.625 15.8126 23.68 15.8126 23.7624Z" fill="#4B7AA8"/>
<path id="Vector_33" d="M4.94603 27.9343C4.94603 28.0076 4.88229 28.0717 4.80926 28.0717C4.73624 28.0717 4.67188 28.0076 4.67188 27.9343C4.67188 27.861 4.73624 27.7969 4.80926 27.7969C4.88229 27.7969 4.94603 27.861 4.94603 27.9343Z" fill="#4B7AA8"/>
<path id="Vector_34" d="M6.50854 22.6296C6.50854 22.7029 6.44418 22.767 6.37115 22.767C6.29812 22.767 6.23438 22.7029 6.23438 22.6296C6.23438 22.5564 6.29812 22.4922 6.37115 22.4922C6.44418 22.4922 6.50854 22.5564 6.50854 22.6296Z" fill="#4B7AA8"/>
<path id="Vector_35" d="M5.75073 14.8875C5.75073 14.9607 5.68636 15.0248 5.61334 15.0248C5.54031 15.0248 5.47656 14.9607 5.47656 14.8875C5.47656 14.8141 5.54031 14.75 5.61334 14.75C5.68636 14.75 5.75073 14.8141 5.75073 14.8875Z" fill="#4B7AA8"/>
<path id="Vector_36" d="M11.4148 13.0828C11.4148 13.156 11.3504 13.2202 11.2774 13.2202C11.2044 13.2202 11.1406 13.156 11.1406 13.0828C11.1406 13.0094 11.2044 12.9453 11.2774 12.9453C11.3597 12.9453 11.4148 13.0094 11.4148 13.0828Z" fill="#4B7AA8"/>
<path id="Vector_37" d="M20.5007 18.9186C20.5007 18.992 20.4364 19.0561 20.3633 19.0561C20.2903 19.0561 20.2266 18.992 20.2266 18.9186C20.2266 18.8454 20.2903 18.7812 20.3633 18.7812C20.4364 18.7812 20.5007 18.8454 20.5007 18.9186Z" fill="#4B7AA8"/>
<path id="Vector_38" d="M20.6414 23.614C20.6414 23.6873 20.577 23.7514 20.504 23.7514C20.4309 23.7514 20.3672 23.6873 20.3672 23.614C20.3672 23.5407 20.4309 23.4766 20.504 23.4766C20.5863 23.4857 20.6414 23.5407 20.6414 23.614Z" fill="#4B7AA8"/>
<path id="Vector_39" d="M28.5945 22.2311C28.5945 22.3045 28.5307 22.3686 28.4577 22.3686C28.3847 22.3686 28.3203 22.3045 28.3203 22.2311C28.3203 22.1579 28.3847 22.0938 28.4577 22.0938C28.54 22.0938 28.5945 22.1487 28.5945 22.2311Z" fill="#4B7AA8"/>
<path id="Vector_40" d="M27.9773 9.88739C27.9773 9.96072 27.9129 10.0248 27.8399 10.0248C27.7669 10.0248 27.7031 9.96072 27.7031 9.88739C27.7031 9.81411 27.7669 9.75 27.8399 9.75C27.9222 9.75 27.9773 9.81411 27.9773 9.88739Z" fill="#4B7AA8"/>
<path id="Vector_41" d="M24.0476 9.40308C24.0476 9.47635 23.9839 9.54046 23.9108 9.54046C23.8378 9.54046 23.7734 9.47635 23.7734 9.40308C23.7734 9.32974 23.8378 9.26562 23.9108 9.26562C23.9839 9.26562 24.0476 9.32974 24.0476 9.40308Z" fill="#4B7AA8"/>
<path id="Vector_42" d="M21.3907 12.1062C21.3907 12.1795 21.327 12.2436 21.254 12.2436C21.1809 12.2436 21.1172 12.1795 21.1172 12.1062C21.1172 12.0329 21.1809 11.9688 21.254 11.9688C21.327 11.9688 21.3907 12.0329 21.3907 12.1062Z" fill="#4B7AA8"/>
<path id="Vector_43" d="M16.8036 2.11861C16.9583 2.1826 17.123 2.21008 17.287 2.2375C17.3142 2.2375 17.3414 2.21008 17.3414 2.1826C17.3414 2.14603 17.3142 2.12777 17.287 2.12777C17.1316 2.10945 16.9769 2.07288 16.8308 2.01799C16.8036 2.00889 16.7671 2.02714 16.7578 2.05462C16.7578 2.08204 16.7764 2.10945 16.8036 2.11861Z" fill="white"/>
<path id="Vector_44" d="M16.8358 3.27621C16.9726 3.33104 17.1186 3.35846 17.2554 3.38593C17.2826 3.39509 17.3191 3.37678 17.3284 3.34936C17.3371 3.32188 17.3191 3.28531 17.2919 3.27621C17.1459 3.25789 17.0091 3.22132 16.8723 3.16642C16.8451 3.15733 16.8086 3.17558 16.7993 3.203C16.79 3.23964 16.8086 3.26705 16.8358 3.27621Z" fill="white"/>
<path id="Vector_45" d="M16.8358 4.29177C16.9633 4.33751 17.1001 4.37408 17.2282 4.3924C17.2554 4.40156 17.2919 4.38324 17.3006 4.35583C17.3099 4.32841 17.2919 4.29177 17.2641 4.28268C17.1273 4.26436 16.9998 4.22778 16.8723 4.18205C16.8451 4.17295 16.8086 4.19121 16.7993 4.21862C16.79 4.2552 16.8086 4.28268 16.8358 4.29177Z" fill="white"/>
<path id="Vector_46" d="M16.8358 5.33086C16.9633 5.37659 17.0908 5.41317 17.2282 5.43149C17.2554 5.44058 17.2919 5.42233 17.3006 5.39491C17.3099 5.36743 17.2919 5.33086 17.2641 5.3217C17.1366 5.30344 16.9998 5.26687 16.8723 5.22113C16.8451 5.21197 16.8086 5.23029 16.7993 5.25771C16.79 5.29428 16.8086 5.3217 16.8358 5.33086Z" fill="white"/>
<path id="Vector_47" d="M16.8358 6.33867C16.954 6.38441 17.0908 6.42098 17.2189 6.4393C17.2461 6.4484 17.2826 6.43014 17.2919 6.40272C17.3006 6.37525 17.2826 6.33867 17.2554 6.32957C17.1273 6.31126 16.9998 6.27468 16.8723 6.22895C16.8451 6.21979 16.8086 6.23811 16.7993 6.26552C16.79 6.3021 16.8086 6.32958 16.8358 6.33867Z" fill="white"/>
<path id="Vector_48" d="M16.8358 7.37773C16.9361 7.41431 17.0456 7.44172 17.1551 7.4692C17.1824 7.4783 17.2189 7.46004 17.2282 7.43263C17.2368 7.40515 17.2189 7.36857 17.1917 7.35941C17.0821 7.34116 16.9726 7.31374 16.8723 7.26801C16.8451 7.25885 16.8086 7.27717 16.7993 7.30458C16.79 7.34116 16.8086 7.36857 16.8358 7.37773Z" fill="white"/>
<path id="Vector_49" d="M16.8358 8.37774C16.954 8.42347 17.0821 8.45089 17.2096 8.4783C17.2368 8.48746 17.2733 8.46915 17.2826 8.44173C17.2919 8.41431 17.2733 8.37774 17.2461 8.36858C17.1186 8.35032 16.9905 8.31375 16.8723 8.26801C16.8451 8.25885 16.8086 8.27711 16.7993 8.30459C16.79 8.34116 16.8086 8.36858 16.8358 8.37774Z" fill="white"/>
<path id="Vector_50" d="M16.8358 9.40115C16.9361 9.43779 17.0549 9.4652 17.1638 9.49261C17.1917 9.50177 17.2282 9.48346 17.2368 9.45604C17.2461 9.42863 17.2282 9.39205 17.2003 9.38289C17.0908 9.36457 16.9819 9.33716 16.8723 9.29142C16.8451 9.28233 16.8086 9.30058 16.7993 9.328C16.79 9.36457 16.8086 9.39205 16.8358 9.40115Z" fill="white"/>
<path id="Vector_51" d="M16.8427 10.4076C16.998 10.4716 17.162 10.4991 17.326 10.5265C17.3532 10.5265 17.3805 10.4991 17.3805 10.4716C17.3805 10.4351 17.3532 10.4168 17.326 10.4168C17.1713 10.3985 17.016 10.3619 16.8699 10.3071C16.8427 10.2979 16.8062 10.3162 16.7969 10.3436C16.7969 10.3711 16.8154 10.3893 16.8427 10.4076Z" fill="white"/>
<path id="Vector_52" d="M16.5516 11.45C16.8066 11.5506 17.0894 11.5963 17.363 11.5781C17.436 11.5781 17.436 11.4592 17.363 11.4683C17.0987 11.4866 16.8252 11.4409 16.5882 11.3403C16.5151 11.3128 16.4873 11.4226 16.5516 11.45Z" fill="white"/>
<path id="Vector_53" d="M16.6863 12.9646C16.6863 12.9554 16.6955 12.9554 16.6955 12.9463C16.6863 12.9554 16.7048 12.9372 16.6955 12.9463L16.7048 12.9372C16.7141 12.928 16.7141 12.9189 16.7228 12.9189C16.7686 12.8732 16.8144 12.8366 16.8688 12.8C17.0607 12.6812 17.2977 12.6537 17.5162 12.6812C17.544 12.6812 17.5712 12.6537 17.5712 12.6263C17.5712 12.5897 17.544 12.5714 17.5162 12.5714C17.1974 12.5348 16.8509 12.6079 16.6318 12.8549C16.6132 12.8732 16.5953 12.8914 16.586 12.9189C16.5495 12.9646 16.6497 13.0195 16.6863 12.9646Z" fill="white"/>
<path id="Vector_54" d="M1.72764 16.4048C1.82727 15.9821 1.56611 15.5586 1.14466 15.4587C0.722596 15.3589 0.300523 15.6207 0.200885 16.0434C0.101247 16.4661 0.36241 16.8897 0.783859 16.9894C1.20531 17.0893 1.628 16.8275 1.72764 16.4048Z" fill="#D4E2FF"/>
<path id="Vector_55" d="M24.3477 30.4198C24.4152 30.0064 24.1348 29.6165 23.7227 29.5491C23.3099 29.4816 22.9206 29.7626 22.8538 30.176C22.7863 30.59 23.0667 30.9799 23.4794 31.0473C23.8916 31.1148 24.2809 30.8338 24.3477 30.4198Z" fill="#D4E2FF"/>
<path id="Vector_56" d="M8.49378 31.7775C8.59218 31.3548 8.32977 30.9315 7.90771 30.8331C7.48626 30.7347 7.06419 30.9978 6.96579 31.4204C6.86801 31.8437 7.12979 32.2664 7.55186 32.3648C7.97393 32.4638 8.39538 32.2008 8.49378 31.7775Z" fill="#D4E2FF"/>
<path id="Vector_57" d="M33.7528 5.64717C34.0592 5.34008 34.0592 4.84214 33.7528 4.535C33.4471 4.22792 32.9502 4.22792 32.6438 4.535C32.3375 4.84214 32.3375 5.34008 32.6438 5.64717C32.9502 5.95431 33.4471 5.95431 33.7528 5.64717Z" fill="#D4E2FF"/>
<path id="Vector_58" d="M2.51615 18.6888C2.51615 18.8991 2.34288 19.0728 2.13308 19.0728C1.92328 19.0728 1.75 18.8991 1.75 18.6888C1.75 18.4785 1.92328 18.3047 2.13308 18.3047C2.34288 18.3047 2.51615 18.4785 2.51615 18.6888Z" fill="#E6EFFF"/>
<path id="Vector_59" d="M21.4406 28.7095C21.4406 28.9107 21.2766 29.0754 21.0761 29.0754C20.8749 29.0754 20.7109 28.9107 20.7109 28.7095C20.7109 28.5083 20.8749 28.3438 21.0761 28.3438C21.2766 28.3438 21.4406 28.5083 21.4406 28.7095Z" fill="#E6EFFF"/>
<path id="Vector_60" d="M10.1018 31.7061C10.3135 31.7061 10.4849 31.5341 10.4849 31.3218C10.4849 31.1095 10.3135 30.9375 10.1018 30.9375C9.89018 30.9375 9.71875 31.1095 9.71875 31.3218C9.71875 31.5341 9.89018 31.7061 10.1018 31.7061Z" fill="#E6EFFF"/>
<path id="Vector_61" d="M30.6874 6.91532C30.6874 7.12561 30.5141 7.29939 30.3043 7.29939C30.0952 7.29939 29.9219 7.12561 29.9219 6.91532C29.9219 6.70496 30.0952 6.53125 30.3043 6.53125C30.5141 6.53125 30.6874 6.70496 30.6874 6.91532Z" fill="#E6EFFF"/>
<path id="Vector_62" d="M19.9976 32.7704C20.1684 32.7704 20.3076 32.6312 20.3076 32.4591C20.3076 32.2877 20.1684 32.1484 19.9976 32.1484C19.8261 32.1484 19.6875 32.2877 19.6875 32.4591C19.6875 32.6312 19.8261 32.7704 19.9976 32.7704Z" fill="#D4E2FF"/>
<path id="Vector_63" d="M10.4038 33.1141C10.5746 33.1141 10.7139 32.9749 10.7139 32.8035C10.7139 32.6314 10.5746 32.4922 10.4038 32.4922C10.2324 32.4922 10.0938 32.6314 10.0938 32.8035C10.0938 32.9749 10.2324 33.1141 10.4038 33.1141Z" fill="#D4E2FF"/>
<path id="Vector_64" d="M31.8115 9.30416C31.9879 9.30416 32.1309 9.16089 32.1309 8.98414C32.1309 8.80733 31.9879 8.66406 31.8115 8.66406C31.6351 8.66406 31.4922 8.80733 31.4922 8.98414C31.4922 9.16089 31.6351 9.30416 31.8115 9.30416Z" fill="#D4E2FF"/>
</g>
<defs>
<linearGradient id="paint0_linear_478_1763" x1="17.6089" y1="24.8577" x2="17.1211" y2="1.40681" gradientUnits="userSpaceOnUse">
<stop stop-color="white"/>
<stop offset="1" stop-color="#B6CBFF"/>
</linearGradient>
</defs>
</svg>
