<svg width="174" height="174" viewBox="0 0 174 174" fill="none" xmlns="http://www.w3.org/2000/svg">
<rect x="0.414062" width="173.414" height="173.414" rx="40" fill="url(#paint0_linear_539_8115)"/>
<path d="M90.8065 63.4115L118.219 80.7634L113.107 84.4828L87.7699 68.4447L62.6774 84.4764L57.5993 80.747L84.7122 63.4248C86.579 62.2318 88.9347 62.2268 90.8065 63.4115Z" fill="white"/>
<path fill-rule="evenodd" clip-rule="evenodd" d="M37.5508 79.9019C34.1483 77.4031 34.3118 72.1189 37.8617 69.8508L84.7108 39.9189C86.5775 38.7261 88.9332 38.721 90.805 39.9058L138.092 69.8387C141.67 72.1031 141.834 77.4219 138.403 79.918L91.1171 114.323C89.1007 115.79 86.4112 115.784 84.401 114.308L37.5508 79.9019ZM41.0258 74.8032L87.7685 44.939L134.949 74.8043C134.963 74.8132 134.963 74.814 134.963 74.814C134.963 74.814 134.963 74.814 134.968 74.822C134.979 74.842 134.999 74.8943 135.002 74.9724C135.004 75.0509 134.987 75.1073 134.975 75.1326C134.97 75.1431 134.966 75.1484 134.966 75.1484C134.966 75.1484 134.962 75.1543 134.946 75.1658L87.7699 109.491L41.0293 75.1652C41.014 75.1537 41.009 75.1473 41.009 75.1473C41.009 75.1473 41.0046 75.1417 40.9995 75.1308C40.9877 75.1052 40.9707 75.0491 40.9731 74.9715C40.9755 74.8937 40.9958 74.842 41.0067 74.8217C41.0112 74.8135 41.0119 74.8132 41.0119 74.8132C41.0119 74.8132 41.0121 74.812 41.0258 74.8032Z" fill="white"/>
<path d="M41.6697 90.926L46.7479 94.6554L41.0258 98.3114C41.0175 98.3167 41.0135 98.3199 41.0119 98.3214C41.0112 98.3223 41.0094 98.3249 41.0067 98.3299C40.9958 98.3502 40.9755 98.4019 40.9731 98.4798C40.9707 98.5573 40.9877 98.6134 40.9995 98.639C41.0018 98.644 41.0037 98.6475 41.0053 98.6502C41.0071 98.6531 41.0084 98.6549 41.0089 98.6555C41.0093 98.6561 41.014 98.6619 41.0293 98.6734L87.7699 132.999L134.946 98.674C134.962 98.6625 134.966 98.6566 134.966 98.6566C134.966 98.6561 134.968 98.6546 134.969 98.6514C134.971 98.649 134.973 98.6455 134.975 98.6408C134.987 98.6155 135.004 98.5591 135.002 98.4806C134.999 98.4025 134.979 98.3502 134.968 98.3302L134.963 98.3223C134.962 98.3217 134.963 98.3217 134.963 98.3223C134.962 98.3208 134.957 98.3176 134.949 98.3126L129.13 94.629L134.242 90.9095L138.092 93.347C141.67 95.6113 141.834 100.93 138.403 103.426L91.1171 137.831C89.1007 139.298 86.4112 139.292 84.401 137.816L37.5508 103.41C34.1483 100.911 34.3118 95.6272 37.8617 93.359L41.6697 90.926Z" fill="white"/>
<defs>
<linearGradient id="paint0_linear_539_8115" x1="93.9141" y1="87" x2="157.617" y2="16" gradientUnits="userSpaceOnUse">
<stop stop-color="#505766"/>
<stop offset="1" stop-color="#8B909C"/>
</linearGradient>
</defs>
</svg>
