<svg width="44" height="44" viewBox="0 0 44 44" fill="none" xmlns="http://www.w3.org/2000/svg">
<g clip-path="url(#clip0_801_2998)">
<path d="M32.6562 3.4375H30.9375V1.71875C30.9375 0.769484 30.168 0 29.2188 0C28.2695 0 27.5 0.769484 27.5 1.71875V3.4375H13.75V1.71875C13.75 0.769484 12.9805 0 12.0312 0C11.082 0 10.3125 0.769484 10.3125 1.71875V3.4375H8.59375C3.85507 3.4375 0 7.29266 0 12.0312V31.9688C0 36.7073 3.85507 40.5625 8.59375 40.5625H15.4688C16.418 40.5625 17.1875 39.793 17.1875 38.8438C17.1875 37.8945 16.418 37.125 15.4688 37.125H8.59375C5.75059 37.125 3.4375 34.8119 3.4375 31.9688V17.1875H39.5312C40.4805 17.1875 41.25 16.418 41.25 15.4688V12.0312C41.25 7.29266 37.3949 3.4375 32.6562 3.4375ZM37.8125 13.75H3.4375V12.0312C3.4375 9.18809 5.75059 6.875 8.59375 6.875H10.3125V8.59375C10.3125 9.54302 11.082 10.3125 12.0312 10.3125C12.9805 10.3125 13.75 9.54302 13.75 8.59375V6.875H27.5V8.59375C27.5 9.54302 28.2695 10.3125 29.2188 10.3125C30.168 10.3125 30.9375 9.54302 30.9375 8.59375V6.875H32.6562C35.4994 6.875 37.8125 9.18809 37.8125 12.0312V13.75Z" fill="#19BB7D"/>
<path d="M8.59375 24.0625C9.54299 24.0625 10.3125 23.293 10.3125 22.3438C10.3125 21.3945 9.54299 20.625 8.59375 20.625C7.64451 20.625 6.875 21.3945 6.875 22.3438C6.875 23.293 7.64451 24.0625 8.59375 24.0625Z" fill="#19BB7D"/>
<path d="M15.4688 24.0625C16.418 24.0625 17.1875 23.293 17.1875 22.3438C17.1875 21.3945 16.418 20.625 15.4688 20.625C14.5195 20.625 13.75 21.3945 13.75 22.3438C13.75 23.293 14.5195 24.0625 15.4688 24.0625Z" fill="#19BB7D"/>
<path d="M22.3438 24.0625C23.293 24.0625 24.0625 23.293 24.0625 22.3438C24.0625 21.3945 23.293 20.625 22.3438 20.625C21.3945 20.625 20.625 21.3945 20.625 22.3438C20.625 23.293 21.3945 24.0625 22.3438 24.0625Z" fill="#19BB7D"/>
<path d="M8.59375 30.9375C9.54299 30.9375 10.3125 30.168 10.3125 29.2188C10.3125 28.2695 9.54299 27.5 8.59375 27.5C7.64451 27.5 6.875 28.2695 6.875 29.2188C6.875 30.168 7.64451 30.9375 8.59375 30.9375Z" fill="#19BB7D"/>
<path d="M15.4688 30.9375C16.418 30.9375 17.1875 30.168 17.1875 29.2188C17.1875 28.2695 16.418 27.5 15.4688 27.5C14.5195 27.5 13.75 28.2695 13.75 29.2188C13.75 30.168 14.5195 30.9375 15.4688 30.9375Z" fill="#19BB7D"/>
<path d="M42.2812 37.125C41.3335 37.125 40.5625 36.354 40.5625 35.4062V29.2188C40.5625 24.4802 36.7074 20.625 31.9688 20.625C27.2301 20.625 23.375 24.4802 23.375 29.2188V35.4062C23.375 36.354 22.604 37.125 21.6562 37.125C20.707 37.125 19.9375 37.8945 19.9375 38.8438C19.9375 39.793 20.707 40.5625 21.6562 40.5625H30.25V42.2812C30.25 43.2305 31.0195 44 31.9688 44C32.918 44 33.6875 43.2305 33.6875 42.2812V40.5625H42.2812C43.2305 40.5625 44 39.793 44 38.8438C44 37.8945 43.2305 37.125 42.2812 37.125ZM26.518 37.125C26.7087 36.5872 26.8125 36.0086 26.8125 35.4062V29.2188C26.8125 26.3756 29.1256 24.0625 31.9688 24.0625C34.8119 24.0625 37.125 26.3756 37.125 29.2188V35.4062C37.125 36.0086 37.2288 36.5872 37.4195 37.125H26.518Z" fill="#CBE7A3"/>
</g>
<defs>
<clipPath id="clip0_801_2998">
<rect width="44" height="44" fill="white"/>
</clipPath>
</defs>
</svg>
