<svg width="22" height="22" viewBox="0 0 22 22" fill="none" xmlns="http://www.w3.org/2000/svg">
<g id="Receipt">
<path id="Shape" d="M3 5.25C3 4.00736 4.00736 3 5.25 3H13.75C14.9926 3 16 4.00736 16 5.25V13H19.5V16.25C19.5 18.0449 18.0449 19.5 16.25 19.5H6.25C4.45507 19.5 3 18.0449 3 16.25V5.25ZM16 14.5V18H16.25C17.2165 18 18 17.2165 18 16.25V14.5H16ZM14.5 18V5.25C14.5 4.83579 14.1642 4.5 13.75 4.5H5.25C4.83579 4.5 4.5 4.83579 4.5 5.25V16.25C4.5 17.2165 5.2835 18 6.25 18H14.5ZM6.00001 7.75C6.00001 7.33579 6.3358 7 6.75001 7H12.25C12.6642 7 13 7.33579 13 7.75C13 8.16422 12.6642 8.5 12.25 8.5H6.75001C6.3358 8.5 6.00001 8.16422 6.00001 7.75ZM6.00001 11.25C6.00001 10.8358 6.3358 10.5 6.75001 10.5H12.25C12.6642 10.5 13 10.8358 13 11.25C13 11.6642 12.6642 12 12.25 12H6.75001C6.3358 12 6.00001 11.6642 6.00001 11.25ZM6.00001 14.75C6.00001 14.3358 6.3358 14 6.75001 14H9.25001C9.66423 14 10 14.3358 10 14.75C10 15.1642 9.66423 15.5 9.25001 15.5H6.75001C6.3358 15.5 6.00001 15.1642 6.00001 14.75Z" fill="#DA3757"/>
</g>
</svg>
