<svg width="66" height="67" viewBox="0 0 66 67" fill="none" xmlns="http://www.w3.org/2000/svg">
<g id="..">
<g id="Group 1000004730">
<g id="surface1" opacity="0.51">
<path id="Vector" d="M57.9469 19.7647V19.7185C57.9205 19.1442 57.9007 18.5336 57.8908 17.8569C57.8413 14.553 55.2173 11.8234 51.9133 11.6385C45.0249 11.2556 39.6976 9.00789 35.146 4.57183L35.1064 4.53552C33.6211 3.17566 31.3833 3.17566 29.898 4.53552L29.8584 4.57183C25.3068 9.00789 19.9796 11.2556 13.0911 11.6385C9.78716 11.8234 7.16315 14.553 7.11364 17.8569C7.10374 18.5303 7.08723 19.1376 7.06083 19.7185V19.8274C6.9255 26.8512 6.75717 35.5913 9.68154 43.5228C11.289 47.8862 13.7248 51.6787 16.9166 54.7945C20.5539 58.346 25.32 61.1614 31.0796 63.1715C31.2678 63.2375 31.4625 63.2903 31.6605 63.3299C31.9411 63.386 32.2216 63.4124 32.5022 63.4124C32.7828 63.4124 33.0666 63.386 33.3439 63.3299C33.5419 63.2903 33.7366 63.2375 33.9281 63.1715C39.6811 61.1614 44.4406 58.3394 48.0747 54.7912C51.2664 51.6721 53.7023 47.8796 55.3097 43.5162C58.2439 35.5583 58.0789 26.8017 57.9436 19.768L57.9469 19.7647ZM52.0123 42.2982C48.9295 50.6588 42.6319 56.4019 32.7663 59.8511C32.7299 59.8643 32.6936 59.8741 32.654 59.8808C32.5517 59.9006 32.4494 59.9006 32.3438 59.8808C32.3042 59.8741 32.2679 59.8643 32.2316 59.8511C22.356 56.4085 16.0551 50.6686 12.9756 42.3048C10.2823 34.9939 10.4341 26.97 10.5694 19.8901V19.8505C10.5991 19.2432 10.6156 18.6062 10.6255 17.9064C10.6486 16.441 11.8171 15.2263 13.2858 15.1438C17.1839 14.926 20.6067 14.1734 23.7522 12.84C26.8944 11.5098 29.6835 9.63502 32.2811 7.11002C32.4131 6.9978 32.5847 6.9978 32.7167 7.11002C35.3144 9.63502 38.1067 11.5098 41.2456 12.84C44.3911 14.1701 47.8139 14.926 51.712 15.1438C53.1808 15.2263 54.3492 16.4377 54.3723 17.9064C54.3822 18.6095 54.402 19.2465 54.4284 19.8505C54.5637 26.937 54.7122 34.9675 52.009 42.2949L52.0123 42.2982Z" fill="url(#paint0_linear_292_8323)"/>
<path id="Vector_2" d="M32.5069 18.5391C24.2751 18.5391 17.5781 25.2361 17.5781 33.4679C17.5781 41.6997 24.2751 48.3967 32.5069 48.3967C40.7388 48.3967 47.4358 41.6997 47.4358 33.4679C47.4358 25.2361 40.7388 18.5391 32.5069 18.5391ZM32.5069 44.8815C26.2126 44.8815 21.0933 39.7622 21.0933 33.4679C21.0933 27.1736 26.2126 22.0543 32.5069 22.0543C38.8013 22.0543 43.9206 27.1736 43.9206 33.4679C43.9206 39.7622 38.8013 44.8815 32.5069 44.8815Z" stroke="url(#paint1_linear_292_8323)" stroke-width="0.88" stroke-miterlimit="10"/>
<path id="Vector_3" d="M36.7929 28.8241L29.8582 35.7588L27.9768 33.8774C27.2903 33.1909 26.178 33.1909 25.4915 33.8774C24.8049 34.5639 24.8049 35.6762 25.4915 36.3628L28.6172 39.4885C28.9604 39.8318 29.4093 40.0034 29.8582 40.0034C30.3071 40.0034 30.756 39.8318 31.0993 39.4885L39.275 31.3128C39.9615 30.6263 39.9615 29.5139 39.275 28.8274C38.5884 28.1409 37.4761 28.1409 36.7896 28.8274L36.7929 28.8241Z" stroke="url(#paint2_linear_292_8323)" stroke-width="0.88" stroke-miterlimit="10"/>
</g>
<path id="Vector_4" d="M32.5069 18.5391C24.2751 18.5391 17.5781 25.2361 17.5781 33.4679C17.5781 41.6997 24.2751 48.3967 32.5069 48.3967C40.7388 48.3967 47.4358 41.6997 47.4358 33.4679C47.4358 25.2361 40.7388 18.5391 32.5069 18.5391ZM32.5069 44.8815C26.2126 44.8815 21.0933 39.7622 21.0933 33.4679C21.0933 27.1736 26.2126 22.0543 32.5069 22.0543C38.8013 22.0543 43.9206 27.1736 43.9206 33.4679C43.9206 39.7622 38.8013 44.8815 32.5069 44.8815Z" fill="url(#paint3_linear_292_8323)" stroke="url(#paint4_linear_292_8323)" stroke-width="0.88" stroke-miterlimit="10"/>
<path id="Vector_5" d="M36.7929 28.8397L29.8582 35.7744L27.9768 33.893C27.2903 33.2065 26.178 33.2065 25.4915 33.893C24.8049 34.5796 24.8049 35.6919 25.4915 36.3784L28.6172 39.5041C28.9604 39.8474 29.4093 40.019 29.8582 40.019C30.3071 40.019 30.756 39.8474 31.0993 39.5041L39.275 31.3284C39.9615 30.6419 39.9615 29.5296 39.275 28.843C38.5884 28.1565 37.4761 28.1565 36.7896 28.843L36.7929 28.8397Z" fill="url(#paint5_linear_292_8323)" stroke="url(#paint6_linear_292_8323)" stroke-width="0.88" stroke-miterlimit="10"/>
</g>
</g>
<defs>
<linearGradient id="paint0_linear_292_8323" x1="-2.59495" y1="-28.9169" x2="40.8276" y2="-0.420017" gradientUnits="userSpaceOnUse">
<stop stop-color="#32A071"/>
<stop offset="0.069" stop-color="#2DA771"/>
<stop offset="0.476" stop-color="#15CF74"/>
<stop offset="0.801" stop-color="#06E775"/>
<stop offset="1" stop-color="#00F076"/>
</linearGradient>
<linearGradient id="paint1_linear_292_8323" x1="11.9613" y1="2.37195" x2="34.7769" y2="19.9558" gradientUnits="userSpaceOnUse">
<stop stop-color="#32A071"/>
<stop offset="0.069" stop-color="#2DA771"/>
<stop offset="0.476" stop-color="#15CF74"/>
<stop offset="0.801" stop-color="#06E775"/>
<stop offset="1" stop-color="#00F076"/>
</linearGradient>
<linearGradient id="paint2_linear_292_8323" x1="22.1899" y1="21.9822" x2="31.4256" y2="31.0011" gradientUnits="userSpaceOnUse">
<stop stop-color="#32A071"/>
<stop offset="0.069" stop-color="#2DA771"/>
<stop offset="0.476" stop-color="#15CF74"/>
<stop offset="0.801" stop-color="#06E775"/>
<stop offset="1" stop-color="#00F076"/>
</linearGradient>
<linearGradient id="paint3_linear_292_8323" x1="11.9613" y1="2.37195" x2="34.7769" y2="19.9558" gradientUnits="userSpaceOnUse">
<stop stop-color="#32A071"/>
<stop offset="0.069" stop-color="#2DA771"/>
<stop offset="0.476" stop-color="#15CF74"/>
<stop offset="0.801" stop-color="#06E775"/>
<stop offset="1" stop-color="#00F076"/>
</linearGradient>
<linearGradient id="paint4_linear_292_8323" x1="11.9613" y1="2.37195" x2="34.7769" y2="19.9558" gradientUnits="userSpaceOnUse">
<stop stop-color="#32A071"/>
<stop offset="0.069" stop-color="#2DA771"/>
<stop offset="0.476" stop-color="#15CF74"/>
<stop offset="0.801" stop-color="#06E775"/>
<stop offset="1" stop-color="#00F076"/>
</linearGradient>
<linearGradient id="paint5_linear_292_8323" x1="22.1899" y1="21.9978" x2="31.4256" y2="31.0168" gradientUnits="userSpaceOnUse">
<stop stop-color="#32A071"/>
<stop offset="0.069" stop-color="#2DA771"/>
<stop offset="0.476" stop-color="#15CF74"/>
<stop offset="0.801" stop-color="#06E775"/>
<stop offset="1" stop-color="#00F076"/>
</linearGradient>
<linearGradient id="paint6_linear_292_8323" x1="22.1899" y1="21.9978" x2="31.4256" y2="31.0168" gradientUnits="userSpaceOnUse">
<stop stop-color="#32A071"/>
<stop offset="0.069" stop-color="#2DA771"/>
<stop offset="0.476" stop-color="#15CF74"/>
<stop offset="0.801" stop-color="#06E775"/>
<stop offset="1" stop-color="#00F076"/>
</linearGradient>
</defs>
</svg>
