<svg width="44" height="44" viewBox="0 0 44 44" fill="none" xmlns="http://www.w3.org/2000/svg">
<g clip-path="url(#clip0_811_5991)">
<path d="M3.57561 43.9961C2.43522 43.9961 1.69638 43.9131 1.59206 43.9005C0.80596 43.8064 0.185878 43.1873 0.0904083 42.4014C0.0433179 42.0133 -0.995508 32.8306 4.94106 26.894C5.61227 26.2228 6.70042 26.2228 7.37155 26.894C8.04267 27.5652 8.04276 28.6534 7.37155 29.3245C3.84183 32.8544 3.41303 38.0581 3.43202 40.552C3.45978 40.5521 3.48796 40.5522 3.51641 40.5522C6.04692 40.5522 11.1958 40.0834 14.6632 36.616C15.3344 35.9448 16.4225 35.9448 17.0936 36.616C17.7648 37.2872 17.7649 38.3754 17.0936 39.0465C12.7601 43.38 6.68075 43.9961 3.57561 43.9961Z" fill="#CBE7A3"/>
<path d="M28.0309 21.1165C26.6537 21.1165 25.3589 20.5802 24.3851 19.6063C23.4113 18.6325 22.875 17.3378 22.875 15.9606C22.875 14.5835 23.4113 13.2886 24.3851 12.3149C25.3589 11.341 26.6537 10.8047 28.0309 10.8047C29.408 10.8047 30.7028 11.341 31.6766 12.3149C32.6504 13.2887 33.1868 14.5835 33.1868 15.9606C33.1868 17.3378 32.6505 18.6325 31.6766 19.6064C30.7028 20.5802 29.4081 21.1165 28.0309 21.1165ZM28.0309 14.242C27.5718 14.242 27.1402 14.4207 26.8156 14.7453C26.491 15.07 26.3122 15.5015 26.3122 15.9606C26.3122 16.4196 26.491 16.8513 26.8156 17.1758C27.1402 17.5005 27.5718 17.6792 28.0309 17.6792C28.4899 17.6792 28.9215 17.5004 29.2461 17.1758C29.5708 16.8513 29.7495 16.4197 29.7495 15.9606C29.7495 15.5015 29.5707 15.07 29.2461 14.7453C28.9216 14.4208 28.4899 14.242 28.0309 14.242Z" fill="#19BB7D"/>
<path d="M43.4857 2.93386C44.1569 2.26265 44.1569 1.1745 43.4857 0.503376C42.8145 -0.167749 41.7263 -0.167835 41.0552 0.503376L39.8093 1.7493C33.5768 -0.809829 26.3837 0.591885 21.5604 5.41513L15.7564 11.2191C12.4217 9.01351 7.87596 9.37752 4.9432 12.3102L0.497542 16.7416C-0.174699 17.4117 -0.176504 18.4998 0.493589 19.1721C0.829324 19.5089 1.27006 19.6774 1.71081 19.6774C2.14966 19.6774 2.58868 19.5103 2.92407 19.176L7.3718 14.7427C8.95595 13.1585 11.3229 12.8237 13.239 13.7366L9.80228 17.1733C7.792 19.1836 7.792 22.4546 9.80228 24.4648L19.5243 34.1869C20.5294 35.1919 21.8498 35.6945 23.17 35.6945C24.4903 35.6945 25.8106 35.1919 26.8158 34.1868L30.2547 30.7478C30.5829 31.4334 30.7565 32.189 30.7565 32.9715C30.7565 34.3487 30.2202 35.6434 29.2439 36.6197L24.8126 41.0684C24.1428 41.7409 24.1449 42.8291 24.8174 43.4989C25.1528 43.833 25.5916 43.9999 26.0302 43.9999C26.4712 43.9999 26.9122 43.8312 27.2479 43.4941L31.6769 39.0477C33.3 37.4246 34.1938 35.2667 34.1938 32.9714C34.1938 31.26 33.6967 29.6253 32.7711 28.2314L38.574 22.4285C43.3973 17.6053 44.7989 10.412 42.2398 4.1797L43.4857 2.93386ZM36.1435 19.9981L29.2468 26.8948C29.2467 26.895 29.247 26.8946 29.2468 26.8948C29.2467 26.8949 29.2461 26.8955 29.246 26.8957L24.3853 31.7563C23.7153 32.4263 22.625 32.4264 21.9548 31.7563L12.2328 22.0343C11.5627 21.3642 11.5627 20.2739 12.2328 19.6037L23.9909 7.84562C27.9278 3.90867 33.8495 2.83719 38.8935 5.09555C41.1519 10.1396 40.0803 16.0614 36.1435 19.9981Z" fill="#19BB7D"/>
</g>
<defs>
<clipPath id="clip0_811_5991">
<rect width="44" height="44" fill="white" transform="translate(-0.0078125)"/>
</clipPath>
</defs>
</svg>
