<svg width="22" height="22" viewBox="0 0 22 22" fill="none" xmlns="http://www.w3.org/2000/svg">
<g id="Video">
<path id="Shape" d="M12.75 3.5C14.5449 3.5 16 4.95507 16 6.75V6.923L19.8639 4.605C20.3638 4.30486 21 4.66493 21 5.248V16.75C21 17.333 20.364 17.6931 19.8641 17.3931L16 15.075V15.25C16 17.0449 14.5449 18.5 12.75 18.5H4.25C2.45507 18.5 1 17.0449 1 15.25V6.75C1 4.95507 2.45507 3.5 4.25 3.5H12.75ZM12.75 5H4.25C3.2835 5 2.5 5.7835 2.5 6.75V15.25C2.5 16.2165 3.2835 17 4.25 17H12.75C13.7165 17 14.5 16.2165 14.5 15.25V6.75C14.5 5.7835 13.7165 5 12.75 5ZM19.5 6.5731L16 8.6745V13.3254L19.5 15.4254V6.5731Z" fill="#8512E0"/>
</g>
</svg>
